G04 FreePCB version 1.359*
G04 C:\Users\Waynej\Documents\GitHub\mlaunch\mGPS\CAM-A2235\bottom_copper.grb*
G04 bottom copper layer *
G04 Scale: 100 percent, Rotated: No, Reflected: No *
%FSLAX24Y24*%
%MOIN*%
%LN bottom copper *%
G04 Rounded Rectangle Macro, params: W/2, H/2, R *
%AMRNDREC*
21,1,$1+$1,$2+$2-$3-$3,0,0,0*
21,1,$1+$1-$3-$3,$2+$2,0,0,0*
1,1,$3+$3,$1-$3,$2-$3*
1,1,$3+$3,$3-$1,$2-$3*
1,1,$3+$3,$1-$3,$3-$2*
1,1,$3+$3,$3-$1,$3-$2*%
G04 Rectangular Thermal Macro, params: W/2, H/2, T/2 *
%AMRECTHERM*
$4=$3/2*
21,1,$1-$3,$2-$3,0-$1/2-$4,0-$2/2-$4,0*
21,1,$1-$3,$2-$3,0-$1/2-$4,$2/2+$4,0*
21,1,$1-$3,$2-$3,$1/2+$4,0-$2/2-$4,0*
21,1,$1-$3,$2-$3,$1/2+$4,$2/2+$4,0*%
%ADD10C,0.005000*%
%ADD11C,0.155000*%
%ADD12R,0.380000X0.144000*%
%ADD13R,0.070000X0.070000*%
%ADD14RECTHERM,0.035000X0.035000X0.005000*%
%ADD15C,0.001000*%
%ADD16R,0.082992X0.082992*%
%ADD17R,0.055433X0.086929*%
%ADD18C,0.048000*%
%ADD19C,0.045000*%
%ADD20C,0.030000*%
%AMTHERM21*7,0,0,0.048000,0.028000,0.010000,45.0*%
%ADD21THERM21*%
%ADD22R,0.360000X0.124000*%
%ADD23R,0.050000X0.050000*%
%ADD24R,0.062992X0.062992*%
%ADD25R,0.035433X0.066929*%
%ADD26C,0.025000*%
%ADD27C,0.028000*%
%ADD28C,0.010000*%
G90*
G70D02*

G04 Step and Repeat for panelization *

G04 ----------------------- Draw board outline (positive)*
%LPD*%
G54D10*
G01X-12500Y8750D02*
G01X-12500Y-8750D01*
G04 end of side 1*
G01X12500Y-8750D01*
G04 end of side 2*
G01X12500Y8750D01*
G04 end of side 3*
G01X-12500Y8750D01*

G04 ----------------------- Draw copper area (positive)*
G36*
G01X12350Y-8600D02*
G01X-5050Y-8600D01*
G01X-5050Y8600D01*
G01X12350Y8600D01*
G01X12350Y-8600D01*
G37*

G04 -------------------- Draw copper area clearances (negative)*
%LPC*%

G04 Draw clearances for pads*
G54D11*
G01X-9174Y-6299D03*
G01X6574Y-6299D03*
G01X6574Y6299D03*
G54D12*
G01X9500Y7000D03*
G01X-2950Y7000D03*
G54D13*
G01X-8500Y-4330D03*
G01X-7720Y-4330D03*
G01X-6930Y-4330D03*
G01X-6137Y-4330D03*
G01X-5350Y-4330D03*
G01X-4562Y-4330D03*
G01X-3775Y-4330D03*
G01X-2988Y-4330D03*
G01X-2200Y-4330D03*
G54D14*
G01X-1413Y-4330D03*
G54D15*
G54D13*
G01X-1413Y4331D03*
G01X-2200Y4331D03*
G01X-2988Y4331D03*
G01X-3775Y4331D03*
G01X-4562Y4331D03*
G01X-5350Y4331D03*
G01X-6137Y4331D03*
G01X-6925Y4331D03*
G01X-7712Y4331D03*
G01X-8500Y4330D03*
G54D16*
G01X-11000Y-4250D03*
G01X-9897Y-4250D03*
G01X-6000Y6000D03*
G01X-7102Y6000D03*
G01X-11500Y4500D03*
G01X-10397Y4500D03*
G54D17*
G01X-6000Y-3050D03*
G01X-6500Y-3050D03*
G01X-7000Y-3050D03*
G01X-7500Y-3050D03*
G01X-8000Y-3050D03*
G01X-8500Y-3050D03*
G01X-11000Y-3050D03*
G01X-11500Y-3050D03*
G01X-12000Y-3050D03*
G01X-12000Y3056D03*
G01X-11500Y3056D03*
G01X-11000Y3056D03*
G01X-10500Y3056D03*
G01X-10000Y3056D03*
G01X-9500Y3056D03*
G01X-9000Y3056D03*
G01X-8500Y3056D03*
G01X-8000Y3056D03*
G01X-7500Y3056D03*
G01X-7000Y3056D03*
G01X-6500Y3056D03*
G01X-6000Y3056D03*
G54D12*
G01X-2900Y2500D03*
G01X9550Y2500D03*
G01X9500Y-2500D03*
G01X-2950Y-2500D03*
G01X-2900Y-7000D03*
G01X9550Y-7000D03*
G54D11*
G01X-9174Y6299D03*

G04 Draw clearances for traces*
G54D18*
G01X-7000Y-1950D03*
G54D19*
G01X-7000Y-3050D02*
G01X-7000Y-1950D01*
G54D20*
G01X-7500Y3056D02*
G01X-7500Y-3050D01*
G01X-11000Y-4250D02*
G01X-11000Y-3050D01*
G01X-6000Y3056D02*
G01X-6000Y-550D01*
G54D18*
G01X-6700Y-1250D03*
G54D20*
G01X-6000Y-550D02*
G01X-6700Y-1250D01*
G01X-10397Y4500D02*
G01X-10397Y3802D01*
G01X-10397Y3802D02*
G01X-10399Y3600D01*
G01X-10399Y3600D02*
G01X-8500Y3600D01*
G01X-8500Y3600D02*
G01X-8500Y3056D01*
G01X-7102Y6000D02*
G01X-8100Y6000D01*
G01X-8100Y6000D02*
G01X-8800Y5300D01*
G01X-8800Y5300D02*
G01X-9500Y5300D01*
G01X-9500Y5300D02*
G01X-9500Y3800D01*
G01X-9500Y3800D02*
G01X-8000Y3800D01*
G01X-8000Y3800D02*
G01X-8000Y3056D01*
G54D18*
G01X-6500Y2100D03*
G54D20*
G01X-6500Y3056D02*
G01X-6500Y2100D01*
G01X-6000Y6000D02*
G01X-5107Y5150D01*
G01X-5107Y5150D02*
G01X-750Y5150D01*
G01X-750Y5150D02*
G01X-750Y3700D01*
G01X-750Y3700D02*
G01X-5500Y3700D01*
G01X-5500Y3700D02*
G01X-5500Y-3700D01*
G01X-5500Y-3700D02*
G01X-8000Y-3700D01*
G01X-8000Y-3700D02*
G01X-8000Y-3050D01*
G01X-8000Y-3050D02*
G01X-8000Y-3700D01*
G01X-8000Y-3700D02*
G01X-9000Y-3700D01*
G01X-9000Y-3700D02*
G01X-9550Y-4250D01*
G01X-9550Y-4250D02*
G01X-9897Y-4250D01*
G54D19*
G01X-2900Y2500D02*
G01X-150Y2500D01*
G01X-150Y2500D02*
G01X-150Y7000D01*
G01X-150Y7000D02*
G01X-2950Y7000D01*
G01X9500Y-2500D02*
G01X9550Y2500D01*
G01X-2900Y-7000D02*
G01X-150Y-7000D01*
G01X-150Y-7000D02*
G01X-150Y-2500D01*
G01X-150Y-2500D02*
G01X-2950Y-2500D01*
G54D21*
G01X2850Y-4350D03*
G01X5400Y8100D03*
G01X2850Y-4350D03*
G01X6800Y-3900D03*
G54D18*
G01X7676Y4724D03*
G54D19*
G01X7676Y4724D02*
G01X7700Y7000D01*
G01X7700Y7000D02*
G01X9500Y7000D01*

G04 Draw clearances for text*

G04 -------------- Draw Parts, Pads, Traces, Vias and Text (positive)*
%LPD*%
G04 Draw part U1*
G04 Draw part C1*
G04 Draw part C2*
G04 Draw part h2*
G04 Draw part h3*
G04 Draw part h4*
G04 Draw part C3*
G04 Draw part B1*
G54D22*
G01X9500Y7000D03*
G01X-2950Y7000D03*
G04 Draw part U2*
G54D23*
G01X-8500Y-4330D03*
G01X-7720Y-4330D03*
G01X-6930Y-4330D03*
G01X-6137Y-4330D03*
G01X-5350Y-4330D03*
G01X-4562Y-4330D03*
G01X-3775Y-4330D03*
G01X-2988Y-4330D03*
G01X-2200Y-4330D03*
G01X-1413Y-4330D03*
G01X-1413Y4331D03*
G01X-2200Y4331D03*
G01X-2988Y4331D03*
G01X-3775Y4331D03*
G01X-4562Y4331D03*
G01X-5350Y4331D03*
G01X-6137Y4331D03*
G01X-6925Y4331D03*
G01X-7712Y4331D03*
G01X-8500Y4330D03*
G04 Draw part R3*
G54D24*
G01X-11000Y-4250D03*
G01X-9897Y-4250D03*
G04 Draw part R1*
G01X-6000Y6000D03*
G01X-7102Y6000D03*
G04 Draw part R2*
G01X-11500Y4500D03*
G01X-10397Y4500D03*
G04 Draw part U3*
G54D25*
G01X-6000Y-3050D03*
G01X-6500Y-3050D03*
G01X-7000Y-3050D03*
G01X-7500Y-3050D03*
G01X-8000Y-3050D03*
G01X-8500Y-3050D03*
G01X-11000Y-3050D03*
G01X-11500Y-3050D03*
G01X-12000Y-3050D03*
G01X-12000Y3056D03*
G01X-11500Y3056D03*
G01X-11000Y3056D03*
G01X-10500Y3056D03*
G01X-10000Y3056D03*
G01X-9500Y3056D03*
G01X-9000Y3056D03*
G01X-8500Y3056D03*
G01X-8000Y3056D03*
G01X-7500Y3056D03*
G01X-7000Y3056D03*
G01X-6500Y3056D03*
G01X-6000Y3056D03*
G04 Draw part B2*
G54D22*
G01X-2900Y2500D03*
G01X9550Y2500D03*
G04 Draw part B3*
G01X9500Y-2500D03*
G01X-2950Y-2500D03*
G04 Draw part B4*
G01X-2900Y-7000D03*
G01X9550Y-7000D03*
G04 Draw part h1*

G04 Draw traces*
G54D26*
G01X-7000Y-3050D02*
G01X-7000Y-1950D01*
G54D27*
G01X-7000Y-1950D03*
G54D28*
G01X-7500Y3056D02*
G01X-7500Y-3050D01*
G01X-11000Y-4250D02*
G01X-11000Y-3050D01*
G01X-6000Y3056D02*
G01X-6000Y-550D01*
G01X-6000Y-550D02*
G01X-6700Y-1250D01*
G54D27*
G01X-6700Y-1250D03*
G54D28*
G01X-10397Y4500D02*
G01X-10397Y3802D01*
G01X-10397Y3802D02*
G01X-10399Y3600D01*
G01X-10399Y3600D02*
G01X-8500Y3600D01*
G01X-8500Y3600D02*
G01X-8500Y3056D01*
G01X-7102Y6000D02*
G01X-8100Y6000D01*
G01X-8100Y6000D02*
G01X-8800Y5300D01*
G01X-8800Y5300D02*
G01X-9500Y5300D01*
G01X-9500Y5300D02*
G01X-9500Y3800D01*
G01X-9500Y3800D02*
G01X-8000Y3800D01*
G01X-8000Y3800D02*
G01X-8000Y3056D01*
G01X-6500Y3056D02*
G01X-6500Y2100D01*
G54D27*
G01X-6500Y2100D03*
G54D28*
G01X-6000Y6000D02*
G01X-5107Y5150D01*
G01X-5107Y5150D02*
G01X-750Y5150D01*
G01X-750Y5150D02*
G01X-750Y3700D01*
G01X-750Y3700D02*
G01X-5500Y3700D01*
G01X-5500Y3700D02*
G01X-5500Y-3700D01*
G01X-5500Y-3700D02*
G01X-8000Y-3700D01*
G01X-8000Y-3700D02*
G01X-8000Y-3050D01*
G01X-8000Y-3050D02*
G01X-8000Y-3700D01*
G01X-8000Y-3700D02*
G01X-9000Y-3700D01*
G01X-9000Y-3700D02*
G01X-9550Y-4250D01*
G01X-9550Y-4250D02*
G01X-9897Y-4250D01*
G54D26*
G01X-2900Y2500D02*
G01X-150Y2500D01*
G01X-150Y2500D02*
G01X-150Y7000D01*
G01X-150Y7000D02*
G01X-2950Y7000D01*
G01X9500Y-2500D02*
G01X9550Y2500D01*
G01X-2900Y-7000D02*
G01X-150Y-7000D01*
G01X-150Y-7000D02*
G01X-150Y-2500D01*
G01X-150Y-2500D02*
G01X-2950Y-2500D01*
G01X-12000Y-3050D02*
G01X-12000Y-2300D01*
G01X-12000Y-2300D02*
G01X-8500Y-2300D01*
G01X-8500Y-2300D02*
G01X-8500Y-3050D01*
G01X9494Y-7200D02*
G01X2801Y-7200D01*
G01X2801Y-7200D02*
G01X2801Y-4399D01*
G01X2801Y-4399D02*
G01X2850Y-4350D01*
G54D27*
G01X2850Y-4350D03*
G54D26*
G01X-11500Y4500D02*
G01X-11500Y8100D01*
G01X-11500Y8100D02*
G01X5400Y8100D01*
G54D27*
G01X5400Y8100D03*
G54D26*
G01X-8500Y-3050D02*
G01X-8500Y-2300D01*
G01X-8500Y-2300D02*
G01X-12000Y-2300D01*
G01X-12000Y-2300D02*
G01X-12000Y-4900D01*
G01X-12000Y-4900D02*
G01X-8900Y-8000D01*
G01X-8900Y-8000D02*
G01X2839Y-8000D01*
G01X2839Y-8000D02*
G01X2839Y-4361D01*
G01X2839Y-4361D02*
G01X2850Y-4350D01*
G54D27*
G01X2850Y-4350D03*
G54D26*
G01X9550Y-7000D02*
G01X9600Y-3900D01*
G01X9600Y-3900D02*
G01X6800Y-3900D01*
G54D27*
G01X6800Y-3900D03*
G01X7676Y4724D03*
G54D26*
G01X7676Y4724D02*
G01X7700Y7000D01*
G01X7700Y7000D02*
G01X9500Y7000D01*

G04 Draw Text*
M00*
M02*
