G04 FreePCB version 1.359*
G04 C:\Users\Waynej\Documents\GitHub\mlaunch\mGPS\CAM-A2235\bottom_silk.grb*
G04 bottom silk layer *
G04 Scale: 100 percent, Rotated: No, Reflected: No *
%FSLAX24Y24*%
%MOIN*%
%LN bottom silk *%
G04 Rounded Rectangle Macro, params: W/2, H/2, R *
%AMRNDREC*
21,1,$1+$1,$2+$2-$3-$3,0,0,0*
21,1,$1+$1-$3-$3,$2+$2,0,0,0*
1,1,$3+$3,$1-$3,$2-$3*
1,1,$3+$3,$3-$1,$2-$3*
1,1,$3+$3,$1-$3,$3-$2*
1,1,$3+$3,$3-$1,$3-$2*%
G04 Rectangular Thermal Macro, params: W/2, H/2, T/2 *
%AMRECTHERM*
$4=$3/2*
21,1,$1-$3,$2-$3,0-$1/2-$4,0-$2/2-$4,0*
21,1,$1-$3,$2-$3,0-$1/2-$4,$2/2+$4,0*
21,1,$1-$3,$2-$3,$1/2+$4,0-$2/2-$4,0*
21,1,$1-$3,$2-$3,$1/2+$4,$2/2+$4,0*%
%ADD10C,0.005000*%
%ADD11C,0.010000*%
%ADD12C,0.007000*%
G90*
G70D02*

G04 Step and Repeat for panelization *

G04 ----------------------- Draw board outline (positive)*
%LPD*%
G54D10*
G01X-12500Y8000D02*
G01X-12500Y-8000D01*
G04 end of side 1*
G01X12500Y-8000D01*
G04 end of side 2*
G01X12500Y8000D01*
G04 end of side 3*
G01X-12500Y8000D01*

G04 -------------- Draw Parts, Pads, Traces, Vias and Text (positive)*
%LPD*%
G04 Draw part U1*
G04 Draw part C1*
G04 Draw part C2*
G04 Draw part h2*
G04 Draw part h3*
G04 Draw part h4*
G04 Draw part C3*
G04 Draw part B1*
G04 draw part outline for part B1*
G54D11*
G01X-5150Y4550D02*
G01X-5150Y7850D01*
G01X-5150Y7850D02*
G01X11700Y7850D01*
G01X11700Y7850D02*
G01X11700Y4550D01*
G01X11700Y4550D02*
G01X-5150Y4550D01*
G54D10*
G01X7400Y7330D02*
G01X7400Y5070D01*
G01X7400Y5070D02*
G01X11700Y5070D01*
G01X11700Y5070D02*
G01X11700Y7330D01*
G01X11700Y7330D02*
G01X7400Y7330D01*
G01X-900Y7330D02*
G01X-5150Y7330D01*
G01X-5150Y7330D02*
G01X-5150Y5070D01*
G01X-5150Y5070D02*
G01X-900Y5070D01*
G01X-900Y5070D02*
G01X-900Y7330D01*
G04 draw reference designator for part B1*
G54D11*
G01X4300Y6654D02*
G01X4300Y5700D01*
G01X3890Y6654D02*
G01X4300Y6654D01*
G01X3890Y6654D02*
G01X3754Y6609D01*
G01X3754Y6609D02*
G01X3709Y6563D01*
G01X3709Y6563D02*
G01X3663Y6472D01*
G01X3663Y6472D02*
G01X3663Y6381D01*
G01X3663Y6381D02*
G01X3709Y6290D01*
G01X3709Y6290D02*
G01X3754Y6245D01*
G01X3754Y6245D02*
G01X3890Y6200D01*
G01X3890Y6200D02*
G01X4300Y6200D01*
G01X3890Y6200D02*
G01X3754Y6154D01*
G01X3754Y6154D02*
G01X3709Y6109D01*
G01X3709Y6109D02*
G01X3663Y6018D01*
G01X3663Y6018D02*
G01X3663Y5881D01*
G01X3663Y5881D02*
G01X3709Y5790D01*
G01X3709Y5790D02*
G01X3754Y5745D01*
G01X3754Y5745D02*
G01X3890Y5700D01*
G01X4300Y5700D02*
G01X3890Y5700D01*
G01X3209Y6518D02*
G01X3300Y6472D01*
G01X3072Y6654D02*
G01X3209Y6518D01*
G01X3072Y6654D02*
G01X3072Y5700D01*
G04 Draw part U2*
G04 Draw part R3*
G04 draw part outline for part R3*
G54D12*
G01X-11433Y-4683D02*
G01X-9464Y-4683D01*
G01X-9464Y-4683D02*
G01X-9464Y-3816D01*
G01X-9464Y-3816D02*
G01X-11433Y-3816D01*
G01X-11433Y-3816D02*
G01X-11433Y-4683D01*
G04 draw reference designator for part R3*
G01X-10400Y-3172D02*
G01X-10400Y-3650D01*
G01X-10604Y-3172D02*
G01X-10400Y-3172D01*
G01X-10604Y-3172D02*
G01X-10672Y-3195D01*
G01X-10672Y-3195D02*
G01X-10695Y-3218D01*
G01X-10695Y-3218D02*
G01X-10718Y-3263D01*
G01X-10718Y-3263D02*
G01X-10718Y-3309D01*
G01X-10718Y-3309D02*
G01X-10695Y-3354D01*
G01X-10695Y-3354D02*
G01X-10672Y-3377D01*
G01X-10672Y-3377D02*
G01X-10604Y-3400D01*
G01X-10400Y-3400D02*
G01X-10604Y-3400D01*
G01X-10559Y-3400D02*
G01X-10718Y-3650D01*
G01X-11195Y-3172D02*
G01X-10945Y-3172D01*
G01X-11195Y-3172D02*
G01X-11059Y-3354D01*
G01X-11127Y-3354D02*
G01X-11059Y-3354D01*
G01X-11127Y-3354D02*
G01X-11172Y-3377D01*
G01X-11172Y-3377D02*
G01X-11195Y-3400D01*
G01X-11195Y-3400D02*
G01X-11218Y-3468D01*
G01X-11218Y-3468D02*
G01X-11218Y-3513D01*
G01X-11218Y-3513D02*
G01X-11195Y-3581D01*
G01X-11195Y-3581D02*
G01X-11150Y-3627D01*
G01X-11150Y-3627D02*
G01X-11081Y-3650D01*
G01X-11013Y-3650D02*
G01X-11081Y-3650D01*
G01X-10945Y-3627D02*
G01X-11013Y-3650D01*
G01X-10922Y-3604D02*
G01X-10945Y-3627D01*
G01X-10900Y-3559D02*
G01X-10922Y-3604D01*
G04 Draw part R1*
G04 draw part outline for part R1*
G01X-5566Y6433D02*
G01X-7535Y6433D01*
G01X-7535Y6433D02*
G01X-7535Y5566D01*
G01X-7535Y5566D02*
G01X-5566Y5566D01*
G01X-5566Y5566D02*
G01X-5566Y6433D01*
G04 draw reference designator for part R1*
G01X-6551Y7304D02*
G01X-6551Y6826D01*
G01X-6755Y7304D02*
G01X-6551Y7304D01*
G01X-6755Y7304D02*
G01X-6823Y7281D01*
G01X-6823Y7281D02*
G01X-6846Y7258D01*
G01X-6846Y7258D02*
G01X-6869Y7213D01*
G01X-6869Y7213D02*
G01X-6869Y7167D01*
G01X-6869Y7167D02*
G01X-6846Y7122D01*
G01X-6846Y7122D02*
G01X-6823Y7099D01*
G01X-6823Y7099D02*
G01X-6755Y7076D01*
G01X-6551Y7076D02*
G01X-6755Y7076D01*
G01X-6710Y7076D02*
G01X-6869Y6826D01*
G01X-7096Y7235D02*
G01X-7051Y7213D01*
G01X-7164Y7304D02*
G01X-7096Y7235D01*
G01X-7164Y7304D02*
G01X-7164Y6826D01*
G04 Draw part R2*
G04 draw part outline for part R2*
G01X-11933Y4066D02*
G01X-9964Y4066D01*
G01X-9964Y4066D02*
G01X-9964Y4933D01*
G01X-9964Y4933D02*
G01X-11933Y4933D01*
G01X-11933Y4933D02*
G01X-11933Y4066D01*
G04 draw reference designator for part R2*
G01X-10250Y5727D02*
G01X-10250Y5250D01*
G01X-10454Y5727D02*
G01X-10250Y5727D01*
G01X-10454Y5727D02*
G01X-10522Y5704D01*
G01X-10522Y5704D02*
G01X-10545Y5681D01*
G01X-10545Y5681D02*
G01X-10568Y5636D01*
G01X-10568Y5636D02*
G01X-10568Y5590D01*
G01X-10568Y5590D02*
G01X-10545Y5545D01*
G01X-10545Y5545D02*
G01X-10522Y5522D01*
G01X-10522Y5522D02*
G01X-10454Y5500D01*
G01X-10250Y5500D02*
G01X-10454Y5500D01*
G01X-10409Y5500D02*
G01X-10568Y5250D01*
G01X-10772Y5636D02*
G01X-10772Y5613D01*
G01X-10795Y5681D02*
G01X-10772Y5636D01*
G01X-10818Y5704D02*
G01X-10795Y5681D01*
G01X-10863Y5727D02*
G01X-10818Y5704D01*
G01X-10954Y5727D02*
G01X-10863Y5727D01*
G01X-10954Y5727D02*
G01X-11000Y5704D01*
G01X-11000Y5704D02*
G01X-11022Y5681D01*
G01X-11022Y5681D02*
G01X-11045Y5636D01*
G01X-11045Y5636D02*
G01X-11045Y5590D01*
G01X-11045Y5590D02*
G01X-11022Y5545D01*
G01X-11022Y5545D02*
G01X-10977Y5477D01*
G01X-10977Y5477D02*
G01X-10750Y5250D01*
G01X-11068Y5250D02*
G01X-10750Y5250D01*
G04 Draw part U3*
G04 draw part outline for part U3*
G01X-6000Y-2304D02*
G01X-12000Y-2304D01*
G01X-12000Y-2304D02*
G01X-12000Y2311D01*
G01X-12000Y2311D02*
G01X-6000Y2311D01*
G01X-6000Y2311D02*
G01X-6000Y512D01*
G01X-6000Y512D02*
G01X-6125Y512D01*
G01X-6125Y512D02*
G01X-6125Y-505D01*
G01X-6125Y-505D02*
G01X-6000Y-505D01*
G01X-6000Y-505D02*
G01X-6000Y-2304D01*
G04 draw reference designator for part U3*
G54D10*
G01X-5800Y-3672D02*
G01X-5800Y-4013D01*
G01X-5800Y-4013D02*
G01X-5822Y-4081D01*
G01X-5822Y-4081D02*
G01X-5868Y-4127D01*
G01X-5868Y-4127D02*
G01X-5936Y-4150D01*
G01X-5981Y-4150D02*
G01X-5936Y-4150D01*
G01X-6050Y-4127D02*
G01X-5981Y-4150D01*
G01X-6095Y-4081D02*
G01X-6050Y-4127D01*
G01X-6118Y-4013D02*
G01X-6095Y-4081D01*
G01X-6118Y-3672D02*
G01X-6118Y-4013D01*
G01X-6595Y-3672D02*
G01X-6345Y-3672D01*
G01X-6595Y-3672D02*
G01X-6459Y-3854D01*
G01X-6527Y-3854D02*
G01X-6459Y-3854D01*
G01X-6527Y-3854D02*
G01X-6572Y-3877D01*
G01X-6572Y-3877D02*
G01X-6595Y-3900D01*
G01X-6595Y-3900D02*
G01X-6618Y-3968D01*
G01X-6618Y-3968D02*
G01X-6618Y-4013D01*
G01X-6618Y-4013D02*
G01X-6595Y-4081D01*
G01X-6595Y-4081D02*
G01X-6550Y-4127D01*
G01X-6550Y-4127D02*
G01X-6481Y-4150D01*
G01X-6413Y-4150D02*
G01X-6481Y-4150D01*
G01X-6345Y-4127D02*
G01X-6413Y-4150D01*
G01X-6322Y-4104D02*
G01X-6345Y-4127D01*
G01X-6300Y-4059D02*
G01X-6322Y-4104D01*
G04 Draw part B2*
G04 draw part outline for part B2*
G54D11*
G01X11750Y3650D02*
G01X11750Y350D01*
G01X11750Y350D02*
G01X-5100Y350D01*
G01X-5100Y350D02*
G01X-5100Y3650D01*
G01X-5100Y3650D02*
G01X11750Y3650D01*
G54D10*
G01X-800Y870D02*
G01X-800Y3130D01*
G01X-800Y3130D02*
G01X-5100Y3130D01*
G01X-5100Y3130D02*
G01X-5100Y870D01*
G01X-5100Y870D02*
G01X-800Y870D01*
G01X7500Y870D02*
G01X11750Y870D01*
G01X11750Y870D02*
G01X11750Y3130D01*
G01X11750Y3130D02*
G01X7500Y3130D01*
G01X7500Y3130D02*
G01X7500Y870D01*
G04 draw reference designator for part B2*
G54D11*
G01X4450Y2554D02*
G01X4450Y1600D01*
G01X4040Y2554D02*
G01X4450Y2554D01*
G01X4040Y2554D02*
G01X3904Y2509D01*
G01X3904Y2509D02*
G01X3859Y2463D01*
G01X3859Y2463D02*
G01X3813Y2372D01*
G01X3813Y2372D02*
G01X3813Y2281D01*
G01X3813Y2281D02*
G01X3859Y2190D01*
G01X3859Y2190D02*
G01X3904Y2145D01*
G01X3904Y2145D02*
G01X4040Y2100D01*
G01X4040Y2100D02*
G01X4450Y2100D01*
G01X4040Y2100D02*
G01X3904Y2054D01*
G01X3904Y2054D02*
G01X3859Y2009D01*
G01X3859Y2009D02*
G01X3813Y1918D01*
G01X3813Y1918D02*
G01X3813Y1781D01*
G01X3813Y1781D02*
G01X3859Y1690D01*
G01X3859Y1690D02*
G01X3904Y1645D01*
G01X3904Y1645D02*
G01X4040Y1600D01*
G01X4450Y1600D02*
G01X4040Y1600D01*
G01X3404Y2372D02*
G01X3404Y2327D01*
G01X3359Y2463D02*
G01X3404Y2372D01*
G01X3313Y2509D02*
G01X3359Y2463D01*
G01X3222Y2554D02*
G01X3313Y2509D01*
G01X3040Y2554D02*
G01X3222Y2554D01*
G01X3040Y2554D02*
G01X2950Y2509D01*
G01X2950Y2509D02*
G01X2904Y2463D01*
G01X2904Y2463D02*
G01X2859Y2372D01*
G01X2859Y2372D02*
G01X2859Y2281D01*
G01X2859Y2281D02*
G01X2904Y2190D01*
G01X2904Y2190D02*
G01X2995Y2054D01*
G01X2995Y2054D02*
G01X3450Y1600D01*
G01X2813Y1600D02*
G01X3450Y1600D01*
G04 Draw part B3*
G04 draw part outline for part B3*
G01X-5150Y-3650D02*
G01X-5150Y-350D01*
G01X-5150Y-350D02*
G01X11700Y-350D01*
G01X11700Y-350D02*
G01X11700Y-3650D01*
G01X11700Y-3650D02*
G01X-5150Y-3650D01*
G54D10*
G01X7400Y-870D02*
G01X7400Y-3130D01*
G01X7400Y-3130D02*
G01X11700Y-3130D01*
G01X11700Y-3130D02*
G01X11700Y-870D01*
G01X11700Y-870D02*
G01X7400Y-870D01*
G01X-900Y-870D02*
G01X-5150Y-870D01*
G01X-5150Y-870D02*
G01X-5150Y-3130D01*
G01X-5150Y-3130D02*
G01X-900Y-3130D01*
G01X-900Y-3130D02*
G01X-900Y-870D01*
G04 draw reference designator for part B3*
G54D11*
G01X4500Y-1545D02*
G01X4500Y-2500D01*
G01X4090Y-1545D02*
G01X4500Y-1545D01*
G01X4090Y-1545D02*
G01X3954Y-1590D01*
G01X3954Y-1590D02*
G01X3909Y-1636D01*
G01X3909Y-1636D02*
G01X3863Y-1727D01*
G01X3863Y-1727D02*
G01X3863Y-1818D01*
G01X3863Y-1818D02*
G01X3909Y-1909D01*
G01X3909Y-1909D02*
G01X3954Y-1954D01*
G01X3954Y-1954D02*
G01X4090Y-2000D01*
G01X4090Y-2000D02*
G01X4500Y-2000D01*
G01X4090Y-2000D02*
G01X3954Y-2045D01*
G01X3954Y-2045D02*
G01X3909Y-2090D01*
G01X3909Y-2090D02*
G01X3863Y-2181D01*
G01X3863Y-2181D02*
G01X3863Y-2318D01*
G01X3863Y-2318D02*
G01X3909Y-2409D01*
G01X3909Y-2409D02*
G01X3954Y-2454D01*
G01X3954Y-2454D02*
G01X4090Y-2500D01*
G01X4500Y-2500D02*
G01X4090Y-2500D01*
G01X2909Y-1545D02*
G01X3409Y-1545D01*
G01X2909Y-1545D02*
G01X3181Y-1909D01*
G01X3045Y-1909D02*
G01X3181Y-1909D01*
G01X3045Y-1909D02*
G01X2954Y-1954D01*
G01X2954Y-1954D02*
G01X2909Y-2000D01*
G01X2909Y-2000D02*
G01X2863Y-2136D01*
G01X2863Y-2136D02*
G01X2863Y-2227D01*
G01X2863Y-2227D02*
G01X2909Y-2363D01*
G01X2909Y-2363D02*
G01X3000Y-2454D01*
G01X3000Y-2454D02*
G01X3136Y-2500D01*
G01X3272Y-2500D02*
G01X3136Y-2500D01*
G01X3409Y-2454D02*
G01X3272Y-2500D01*
G01X3454Y-2409D02*
G01X3409Y-2454D01*
G01X3500Y-2318D02*
G01X3454Y-2409D01*
G04 Draw part B4*
G04 draw part outline for part B4*
G01X11750Y-4550D02*
G01X11750Y-7850D01*
G01X11750Y-7850D02*
G01X-5100Y-7850D01*
G01X-5100Y-7850D02*
G01X-5100Y-4550D01*
G01X-5100Y-4550D02*
G01X11750Y-4550D01*
G54D10*
G01X-800Y-7330D02*
G01X-800Y-5070D01*
G01X-800Y-5070D02*
G01X-5100Y-5070D01*
G01X-5100Y-5070D02*
G01X-5100Y-7330D01*
G01X-5100Y-7330D02*
G01X-800Y-7330D01*
G01X7500Y-7330D02*
G01X11750Y-7330D01*
G01X11750Y-7330D02*
G01X11750Y-5070D01*
G01X11750Y-5070D02*
G01X7500Y-5070D01*
G01X7500Y-5070D02*
G01X7500Y-7330D01*
G04 draw reference designator for part B4*
G54D11*
G01X4650Y-5745D02*
G01X4650Y-6700D01*
G01X4240Y-5745D02*
G01X4650Y-5745D01*
G01X4240Y-5745D02*
G01X4104Y-5790D01*
G01X4104Y-5790D02*
G01X4059Y-5836D01*
G01X4059Y-5836D02*
G01X4013Y-5927D01*
G01X4013Y-5927D02*
G01X4013Y-6018D01*
G01X4013Y-6018D02*
G01X4059Y-6109D01*
G01X4059Y-6109D02*
G01X4104Y-6154D01*
G01X4104Y-6154D02*
G01X4240Y-6200D01*
G01X4240Y-6200D02*
G01X4650Y-6200D01*
G01X4240Y-6200D02*
G01X4104Y-6245D01*
G01X4104Y-6245D02*
G01X4059Y-6290D01*
G01X4059Y-6290D02*
G01X4013Y-6381D01*
G01X4013Y-6381D02*
G01X4013Y-6518D01*
G01X4013Y-6518D02*
G01X4059Y-6609D01*
G01X4059Y-6609D02*
G01X4104Y-6654D01*
G01X4104Y-6654D02*
G01X4240Y-6700D01*
G01X4650Y-6700D02*
G01X4240Y-6700D01*
G01X3195Y-5745D02*
G01X3650Y-6381D01*
G01X2968Y-6381D02*
G01X3650Y-6381D01*
G01X3195Y-5745D02*
G01X3195Y-6700D01*
G04 Draw part h1*

G04 Draw traces*

G04 Draw Text*
M00*
M02*
