;Holesize 1 =  125.0 PLATED MILS
;Holesize 2 =   29.0 PLATED MILS
;Holesize 3 =   14.0 PLATED MILS
M48
INCH,00.0000
T01C0.125
T02C0.029
T03C0.014
%
G05
G90
T01
X-009174Y-006299
X006574Y-006299
X006574Y006299
X-009174Y006299
T02
X-008500Y-004330
X-007720Y-004330
X-006930Y-004330
X-006137Y-004330
X-005350Y-004330
X-004562Y-004330
X-003775Y-004330
X-002988Y-004330
X-002200Y-004330
X-001413Y-004330
X-001413Y004331
X-002200Y004331
X-002988Y004331
X-003775Y004331
X-004562Y004331
X-005350Y004331
X-006137Y004331
X-006925Y004331
X-007712Y004331
X-008500Y004330
T03
X-007000Y-001950
X-006700Y-001250
X-006350Y002300
X002850Y-004350
X005400Y008100
X002850Y-004350
X006800Y-003900
X007676Y004724
M30
