G04 FreePCB version 1.359*
G04 C:\Users\Waynej\Documents\GitHub\mlaunch\mGPS\CAM-A2235\top_silk.grb*
G04 top silk layer *
G04 Scale: 100 percent, Rotated: No, Reflected: No *
%FSLAX24Y24*%
%MOIN*%
%LN top silk *%
G04 Rounded Rectangle Macro, params: W/2, H/2, R *
%AMRNDREC*
21,1,$1+$1,$2+$2-$3-$3,0,0,0*
21,1,$1+$1-$3-$3,$2+$2,0,0,0*
1,1,$3+$3,$1-$3,$2-$3*
1,1,$3+$3,$3-$1,$2-$3*
1,1,$3+$3,$1-$3,$3-$2*
1,1,$3+$3,$3-$1,$3-$2*%
G04 Rectangular Thermal Macro, params: W/2, H/2, T/2 *
%AMRECTHERM*
$4=$3/2*
21,1,$1-$3,$2-$3,0-$1/2-$4,0-$2/2-$4,0*
21,1,$1-$3,$2-$3,0-$1/2-$4,$2/2+$4,0*
21,1,$1-$3,$2-$3,$1/2+$4,0-$2/2-$4,0*
21,1,$1-$3,$2-$3,$1/2+$4,$2/2+$4,0*%
%ADD10C,0.005000*%
%ADD11C,0.007000*%
%ADD12C,0.010000*%
G90*
G70D02*

G04 Step and Repeat for panelization *

G04 ----------------------- Draw board outline (positive)*
%LPD*%
G54D10*
G01X-12500Y8000D02*
G01X-12500Y-8000D01*
G04 end of side 1*
G01X12500Y-8000D01*
G04 end of side 2*
G01X12500Y8000D01*
G04 end of side 3*
G01X-12500Y8000D01*

G04 -------------- Draw Parts, Pads, Traces, Vias and Text (positive)*
%LPD*%
G04 Draw part U1*
G04 draw part outline for part U1*
G54D11*
G01X11074Y-3610D02*
G01X8514Y-3610D01*
G01X8514Y-3610D02*
G01X8514Y-4988D01*
G01X8514Y-4988D02*
G01X11074Y-4988D01*
G01X11074Y-4988D02*
G01X11074Y-3610D01*
G04 draw reference designator for part U1*
G01X11250Y-4022D02*
G01X11250Y-4363D01*
G01X11250Y-4363D02*
G01X11272Y-4431D01*
G01X11272Y-4431D02*
G01X11318Y-4477D01*
G01X11318Y-4477D02*
G01X11386Y-4500D01*
G01X11431Y-4500D02*
G01X11386Y-4500D01*
G01X11500Y-4477D02*
G01X11431Y-4500D01*
G01X11545Y-4431D02*
G01X11500Y-4477D01*
G01X11568Y-4363D02*
G01X11545Y-4431D01*
G01X11568Y-4022D02*
G01X11568Y-4363D01*
G01X11795Y-4090D02*
G01X11750Y-4113D01*
G01X11863Y-4022D02*
G01X11795Y-4090D01*
G01X11863Y-4022D02*
G01X11863Y-4500D01*
G04 Draw part C1*
G04 draw part outline for part C1*
G01X10853Y5653D02*
G01X10853Y2346D01*
G01X10853Y2346D02*
G01X7546Y2346D01*
G01X7546Y2346D02*
G01X7546Y5653D01*
G01X7546Y5653D02*
G01X10853Y5653D01*
G54D12*
G01X7168Y2551D02*
G01X7168Y3370D01*
G04 draw reference designator for part C1*
G54D10*
G01X10568Y6409D02*
G01X10590Y6363D01*
G01X10522Y6454D02*
G01X10568Y6409D01*
G01X10477Y6477D02*
G01X10522Y6454D01*
G01X10386Y6477D02*
G01X10477Y6477D01*
G01X10386Y6477D02*
G01X10340Y6454D01*
G01X10340Y6454D02*
G01X10295Y6409D01*
G01X10295Y6409D02*
G01X10272Y6363D01*
G01X10272Y6363D02*
G01X10250Y6295D01*
G01X10250Y6295D02*
G01X10250Y6181D01*
G01X10250Y6181D02*
G01X10272Y6113D01*
G01X10272Y6113D02*
G01X10295Y6068D01*
G01X10295Y6068D02*
G01X10340Y6022D01*
G01X10340Y6022D02*
G01X10386Y6000D01*
G01X10477Y6000D02*
G01X10386Y6000D01*
G01X10522Y6022D02*
G01X10477Y6000D01*
G01X10568Y6068D02*
G01X10522Y6022D01*
G01X10590Y6113D02*
G01X10568Y6068D01*
G01X10818Y6409D02*
G01X10772Y6386D01*
G01X10886Y6477D02*
G01X10818Y6409D01*
G01X10886Y6477D02*
G01X10886Y6000D01*
G04 Draw part C2*
G04 draw part outline for part C2*
G54D11*
G01X9266Y511D02*
G01X11235Y511D01*
G01X11235Y511D02*
G01X11235Y-511D01*
G01X11235Y-511D02*
G01X9266Y-511D01*
G01X9266Y-511D02*
G01X9266Y511D01*
G04 draw reference designator for part C2*
G01X10569Y1314D02*
G01X10592Y1269D01*
G01X10523Y1360D02*
G01X10569Y1314D01*
G01X10478Y1382D02*
G01X10523Y1360D01*
G01X10387Y1382D02*
G01X10478Y1382D01*
G01X10387Y1382D02*
G01X10342Y1360D01*
G01X10342Y1360D02*
G01X10296Y1314D01*
G01X10296Y1314D02*
G01X10273Y1269D01*
G01X10273Y1269D02*
G01X10251Y1200D01*
G01X10251Y1200D02*
G01X10251Y1087D01*
G01X10251Y1087D02*
G01X10273Y1019D01*
G01X10273Y1019D02*
G01X10296Y973D01*
G01X10296Y973D02*
G01X10342Y928D01*
G01X10342Y928D02*
G01X10387Y905D01*
G01X10478Y905D02*
G01X10387Y905D01*
G01X10523Y928D02*
G01X10478Y905D01*
G01X10569Y973D02*
G01X10523Y928D01*
G01X10592Y1019D02*
G01X10569Y973D01*
G01X10796Y1291D02*
G01X10796Y1269D01*
G01X10819Y1337D02*
G01X10796Y1291D01*
G01X10842Y1360D02*
G01X10819Y1337D01*
G01X10887Y1382D02*
G01X10842Y1360D01*
G01X10978Y1382D02*
G01X10887Y1382D01*
G01X10978Y1382D02*
G01X11023Y1360D01*
G01X11023Y1360D02*
G01X11046Y1337D01*
G01X11046Y1337D02*
G01X11069Y1291D01*
G01X11069Y1291D02*
G01X11069Y1246D01*
G01X11069Y1246D02*
G01X11046Y1200D01*
G01X11046Y1200D02*
G01X11001Y1132D01*
G01X11001Y1132D02*
G01X10773Y905D01*
G01X11092Y905D02*
G01X10773Y905D01*
G04 Draw part h2*
G04 draw part outline for part h2*
G04 Draw part h3*
G04 draw part outline for part h3*
G04 Draw part h4*
G04 draw part outline for part h4*
G04 Draw part C3*
G04 draw part outline for part C3*
G01X7188Y-5433D02*
G01X7188Y-3464D01*
G01X7188Y-3464D02*
G01X8211Y-3464D01*
G01X8211Y-3464D02*
G01X8211Y-5433D01*
G01X8211Y-5433D02*
G01X7188Y-5433D01*
G04 draw reference designator for part C3*
G01X7568Y-2840D02*
G01X7590Y-2886D01*
G01X7522Y-2795D02*
G01X7568Y-2840D01*
G01X7477Y-2772D02*
G01X7522Y-2795D01*
G01X7386Y-2772D02*
G01X7477Y-2772D01*
G01X7386Y-2772D02*
G01X7340Y-2795D01*
G01X7340Y-2795D02*
G01X7295Y-2840D01*
G01X7295Y-2840D02*
G01X7272Y-2886D01*
G01X7272Y-2886D02*
G01X7250Y-2954D01*
G01X7250Y-2954D02*
G01X7250Y-3068D01*
G01X7250Y-3068D02*
G01X7272Y-3136D01*
G01X7272Y-3136D02*
G01X7295Y-3181D01*
G01X7295Y-3181D02*
G01X7340Y-3227D01*
G01X7340Y-3227D02*
G01X7386Y-3250D01*
G01X7477Y-3250D02*
G01X7386Y-3250D01*
G01X7522Y-3227D02*
G01X7477Y-3250D01*
G01X7568Y-3181D02*
G01X7522Y-3227D01*
G01X7590Y-3136D02*
G01X7568Y-3181D01*
G01X8068Y-2772D02*
G01X7818Y-2772D01*
G01X8068Y-2772D02*
G01X7931Y-2954D01*
G01X8000Y-2954D02*
G01X7931Y-2954D01*
G01X8000Y-2954D02*
G01X8045Y-2977D01*
G01X8045Y-2977D02*
G01X8068Y-3000D01*
G01X8068Y-3000D02*
G01X8090Y-3068D01*
G01X8090Y-3068D02*
G01X8090Y-3113D01*
G01X8090Y-3113D02*
G01X8068Y-3181D01*
G01X8068Y-3181D02*
G01X8022Y-3227D01*
G01X8022Y-3227D02*
G01X7954Y-3250D01*
G01X7886Y-3250D02*
G01X7954Y-3250D01*
G01X7818Y-3227D02*
G01X7886Y-3250D01*
G01X7795Y-3204D02*
G01X7818Y-3227D01*
G01X7772Y-3159D02*
G01X7795Y-3204D01*
G04 draw part outline for part D1*
G04 Draw part B1*
G04 Draw part U2*
G04 draw part outline for part U2*
G01X-8893Y-4723D02*
G01X2129Y-4723D01*
G01X2129Y-4723D02*
G01X2129Y4725D01*
G01X2129Y4725D02*
G01X-8893Y4725D01*
G01X-8893Y4725D02*
G01X-11540Y1875D01*
G01X-11540Y1875D02*
G01X-11540Y-1875D01*
G01X-11540Y-1875D02*
G01X-8893Y-4723D01*
G54D12*
G01X-11540Y-1875D02*
G01X-12190Y-1875D01*
G01X-12190Y-1875D02*
G01X-12190Y1875D01*
G01X-12190Y1875D02*
G01X-11540Y1875D01*
G01X-11540Y1875D02*
G01X-11540Y-1875D01*
G04 draw reference designator for part U2*
G54D10*
G01X-8600Y5547D02*
G01X-8600Y5206D01*
G01X-8600Y5206D02*
G01X-8577Y5138D01*
G01X-8577Y5138D02*
G01X-8531Y5092D01*
G01X-8531Y5092D02*
G01X-8463Y5070D01*
G01X-8418Y5070D02*
G01X-8463Y5070D01*
G01X-8350Y5092D02*
G01X-8418Y5070D01*
G01X-8304Y5138D02*
G01X-8350Y5092D01*
G01X-8281Y5206D02*
G01X-8304Y5138D01*
G01X-8281Y5547D02*
G01X-8281Y5206D01*
G01X-8077Y5456D02*
G01X-8077Y5433D01*
G01X-8054Y5501D02*
G01X-8077Y5456D01*
G01X-8031Y5524D02*
G01X-8054Y5501D01*
G01X-7986Y5547D02*
G01X-8031Y5524D01*
G01X-7895Y5547D02*
G01X-7986Y5547D01*
G01X-7895Y5547D02*
G01X-7850Y5524D01*
G01X-7850Y5524D02*
G01X-7827Y5501D01*
G01X-7827Y5501D02*
G01X-7804Y5456D01*
G01X-7804Y5456D02*
G01X-7804Y5410D01*
G01X-7804Y5410D02*
G01X-7827Y5365D01*
G01X-7827Y5365D02*
G01X-7872Y5297D01*
G01X-7872Y5297D02*
G01X-8100Y5070D01*
G01X-7781Y5070D02*
G01X-8100Y5070D01*
G04 Draw part R3*
G04 Draw part R1*
G04 Draw part R2*
G04 Draw part U3*
G04 draw part outline for part x1*
G04 draw part outline for part x2*
G04 Draw part B2*
G04 Draw part B3*
G04 Draw part B4*
G04 Draw part h1*
G04 draw part outline for part h1*

G04 Draw traces*

G04 Draw Text*
M00*
M02*
