G04 FreePCB version 1.359*
G04 C:\Users\waynej\Documents\GitHub\mlaunch\controller30\CAM\bottom_silk.grb*
G04 bottom silk layer *
G04 Scale: 100 percent, Rotated: No, Reflected: No *
%FSLAX24Y24*%
%MOIN*%
%LN bottom silk *%
G04 Rounded Rectangle Macro, params: W/2, H/2, R *
%AMRNDREC*
21,1,$1+$1,$2+$2-$3-$3,0,0,0*
21,1,$1+$1-$3-$3,$2+$2,0,0,0*
1,1,$3+$3,$1-$3,$2-$3*
1,1,$3+$3,$3-$1,$2-$3*
1,1,$3+$3,$1-$3,$3-$2*
1,1,$3+$3,$3-$1,$3-$2*%
G04 Rectangular Thermal Macro, params: W/2, H/2, T/2 *
%AMRECTHERM*
$4=$3/2*
21,1,$1-$3,$2-$3,0-$1/2-$4,0-$2/2-$4,0*
21,1,$1-$3,$2-$3,0-$1/2-$4,$2/2+$4,0*
21,1,$1-$3,$2-$3,$1/2+$4,0-$2/2-$4,0*
21,1,$1-$3,$2-$3,$1/2+$4,$2/2+$4,0*%
%ADD10C,0.005000*%
%ADD11C,0.007000*%
%ADD12C,0.010000*%
G90*
G70D02*

G04 Step and Repeat for panelization *

G04 ----------------------- Draw board outline (positive)*
%LPD*%
G54D10*
G01X3500Y1750D02*
G01X3499Y1789D01*
G01X3498Y1828D01*
G01X3496Y1867D01*
G01X3492Y1906D01*
G01X3488Y1945D01*
G01X3484Y1984D01*
G01X3478Y2023D01*
G01X3471Y2062D01*
G01X3464Y2101D01*
G01X3456Y2139D01*
G01X3446Y2177D01*
G01X3436Y2215D01*
G01X3426Y2253D01*
G01X3414Y2290D01*
G01X3401Y2327D01*
G01X3388Y2364D01*
G01X3374Y2401D01*
G01X3359Y2437D01*
G01X3343Y2473D01*
G01X3326Y2509D01*
G01X3309Y2544D01*
G01X3291Y2579D01*
G01X3272Y2613D01*
G01X3252Y2647D01*
G01X3231Y2681D01*
G01X3210Y2714D01*
G01X3188Y2746D01*
G01X3165Y2778D01*
G01X3142Y2810D01*
G01X3118Y2841D01*
G01X3093Y2871D01*
G01X3067Y2901D01*
G01X3041Y2930D01*
G01X3014Y2959D01*
G01X2987Y2987D01*
G01X2959Y3014D01*
G01X2930Y3041D01*
G01X2901Y3067D01*
G01X2871Y3093D01*
G01X2841Y3118D01*
G01X2810Y3142D01*
G01X2778Y3165D01*
G01X2746Y3188D01*
G01X2714Y3210D01*
G01X2681Y3231D01*
G01X2647Y3252D01*
G01X2613Y3272D01*
G01X2579Y3291D01*
G01X2544Y3309D01*
G01X2509Y3326D01*
G01X2473Y3343D01*
G01X2437Y3359D01*
G01X2401Y3374D01*
G01X2364Y3388D01*
G01X2327Y3401D01*
G01X2290Y3414D01*
G01X2253Y3426D01*
G01X2215Y3436D01*
G01X2177Y3446D01*
G01X2139Y3456D01*
G01X2101Y3464D01*
G01X2062Y3471D01*
G01X2023Y3478D01*
G01X1984Y3484D01*
G01X1945Y3488D01*
G01X1906Y3492D01*
G01X1867Y3496D01*
G01X1828Y3498D01*
G01X1789Y3499D01*
G01X1750Y3500D01*
G04 end of side 1*
G01X0Y3500D01*
G04 end of side 2*
G01X0Y41800D01*
G04 end of side 3*
G01X1750Y41800D01*
G04 end of side 4*
G01X1789Y41800D01*
G01X1828Y41801D01*
G01X1867Y41803D01*
G01X1906Y41807D01*
G01X1945Y41811D01*
G01X1984Y41815D01*
G01X2023Y41821D01*
G01X2062Y41828D01*
G01X2101Y41835D01*
G01X2139Y41843D01*
G01X2177Y41853D01*
G01X2215Y41863D01*
G01X2253Y41873D01*
G01X2290Y41885D01*
G01X2327Y41898D01*
G01X2364Y41911D01*
G01X2401Y41925D01*
G01X2437Y41940D01*
G01X2473Y41956D01*
G01X2509Y41973D01*
G01X2544Y41990D01*
G01X2579Y42008D01*
G01X2613Y42027D01*
G01X2647Y42047D01*
G01X2681Y42068D01*
G01X2714Y42089D01*
G01X2746Y42111D01*
G01X2778Y42134D01*
G01X2810Y42157D01*
G01X2841Y42181D01*
G01X2871Y42206D01*
G01X2901Y42232D01*
G01X2930Y42258D01*
G01X2959Y42285D01*
G01X2987Y42312D01*
G01X3014Y42340D01*
G01X3041Y42369D01*
G01X3067Y42398D01*
G01X3093Y42428D01*
G01X3118Y42458D01*
G01X3142Y42489D01*
G01X3165Y42521D01*
G01X3188Y42553D01*
G01X3210Y42585D01*
G01X3231Y42618D01*
G01X3252Y42652D01*
G01X3272Y42686D01*
G01X3291Y42720D01*
G01X3309Y42755D01*
G01X3326Y42790D01*
G01X3343Y42826D01*
G01X3359Y42862D01*
G01X3374Y42898D01*
G01X3388Y42935D01*
G01X3401Y42972D01*
G01X3414Y43009D01*
G01X3426Y43046D01*
G01X3436Y43084D01*
G01X3446Y43122D01*
G01X3456Y43160D01*
G01X3464Y43198D01*
G01X3471Y43237D01*
G01X3478Y43276D01*
G01X3484Y43315D01*
G01X3488Y43354D01*
G01X3492Y43393D01*
G01X3496Y43432D01*
G01X3498Y43471D01*
G01X3499Y43510D01*
G01X3500Y43550D01*
G04 end of side 5*
G01X3500Y45150D01*
G04 end of side 6*
G01X30000Y45150D01*
G04 end of side 7*
G01X30000Y43550D01*
G04 end of side 8*
G01X30000Y43512D01*
G01X30001Y43475D01*
G01X30004Y43437D01*
G01X30007Y43400D01*
G01X30012Y43362D01*
G01X30017Y43325D01*
G01X30023Y43288D01*
G01X30030Y43251D01*
G01X30038Y43214D01*
G01X30047Y43178D01*
G01X30057Y43141D01*
G01X30068Y43105D01*
G01X30080Y43069D01*
G01X30093Y43034D01*
G01X30107Y42998D01*
G01X30121Y42963D01*
G01X30137Y42929D01*
G01X30153Y42894D01*
G01X30170Y42860D01*
G01X30188Y42826D01*
G01X30207Y42793D01*
G01X30227Y42760D01*
G01X30248Y42728D01*
G01X30269Y42696D01*
G01X30292Y42664D01*
G01X30315Y42633D01*
G01X30339Y42603D01*
G01X30363Y42573D01*
G01X30389Y42544D01*
G01X30415Y42515D01*
G01X30442Y42486D01*
G01X30469Y42459D01*
G01X30498Y42431D01*
G01X30527Y42405D01*
G01X30556Y42379D01*
G01X30587Y42354D01*
G01X30618Y42329D01*
G01X30649Y42305D01*
G01X30681Y42282D01*
G01X30714Y42259D01*
G01X30748Y42238D01*
G01X30782Y42217D01*
G01X30816Y42196D01*
G01X30851Y42177D01*
G01X30886Y42158D01*
G01X30922Y42140D01*
G01X30959Y42122D01*
G01X30995Y42106D01*
G01X31033Y42090D01*
G01X31070Y42075D01*
G01X31108Y42061D01*
G01X31147Y42047D01*
G01X31185Y42035D01*
G01X31224Y42023D01*
G01X31264Y42012D01*
G01X31303Y42002D01*
G01X31343Y41993D01*
G01X31383Y41985D01*
G01X31423Y41978D01*
G01X31464Y41971D01*
G01X31504Y41965D01*
G01X31545Y41960D01*
G01X31586Y41957D01*
G01X31627Y41953D01*
G01X31667Y41951D01*
G01X31708Y41950D01*
G01X31750Y41950D01*
G04 end of side 9*
G01X31791Y41950D01*
G01X31832Y41951D01*
G01X31872Y41953D01*
G01X31913Y41957D01*
G01X31954Y41960D01*
G01X31995Y41965D01*
G01X32035Y41971D01*
G01X32076Y41978D01*
G01X32116Y41985D01*
G01X32156Y41993D01*
G01X32196Y42002D01*
G01X32235Y42012D01*
G01X32275Y42023D01*
G01X32314Y42035D01*
G01X32352Y42047D01*
G01X32391Y42061D01*
G01X32429Y42075D01*
G01X32466Y42090D01*
G01X32504Y42106D01*
G01X32540Y42122D01*
G01X32577Y42140D01*
G01X32613Y42158D01*
G01X32648Y42177D01*
G01X32683Y42196D01*
G01X32717Y42217D01*
G01X32751Y42238D01*
G01X32785Y42259D01*
G01X32818Y42282D01*
G01X32850Y42305D01*
G01X32881Y42329D01*
G01X32912Y42354D01*
G01X32943Y42379D01*
G01X32972Y42405D01*
G01X33001Y42431D01*
G01X33030Y42459D01*
G01X33057Y42486D01*
G01X33084Y42515D01*
G01X33110Y42544D01*
G01X33136Y42573D01*
G01X33160Y42603D01*
G01X33184Y42633D01*
G01X33207Y42664D01*
G01X33230Y42696D01*
G01X33251Y42728D01*
G01X33272Y42760D01*
G01X33292Y42793D01*
G01X33311Y42826D01*
G01X33329Y42860D01*
G01X33346Y42894D01*
G01X33362Y42929D01*
G01X33378Y42963D01*
G01X33392Y42998D01*
G01X33406Y43034D01*
G01X33419Y43069D01*
G01X33431Y43105D01*
G01X33442Y43141D01*
G01X33452Y43178D01*
G01X33461Y43214D01*
G01X33469Y43251D01*
G01X33476Y43288D01*
G01X33482Y43325D01*
G01X33487Y43362D01*
G01X33492Y43400D01*
G01X33495Y43437D01*
G01X33498Y43475D01*
G01X33499Y43512D01*
G01X33500Y43550D01*
G04 end of side 10*
G01X33500Y45150D01*
G04 end of side 11*
G01X60000Y45150D01*
G04 end of side 12*
G01X60000Y43550D01*
G04 end of side 13*
G01X60000Y43510D01*
G01X60001Y43471D01*
G01X60003Y43432D01*
G01X60007Y43393D01*
G01X60011Y43354D01*
G01X60015Y43315D01*
G01X60021Y43276D01*
G01X60028Y43237D01*
G01X60035Y43198D01*
G01X60043Y43160D01*
G01X60053Y43122D01*
G01X60063Y43084D01*
G01X60073Y43046D01*
G01X60085Y43009D01*
G01X60098Y42972D01*
G01X60111Y42935D01*
G01X60125Y42898D01*
G01X60140Y42862D01*
G01X60156Y42826D01*
G01X60173Y42790D01*
G01X60190Y42755D01*
G01X60208Y42720D01*
G01X60227Y42686D01*
G01X60247Y42652D01*
G01X60268Y42618D01*
G01X60289Y42585D01*
G01X60311Y42553D01*
G01X60334Y42521D01*
G01X60357Y42489D01*
G01X60381Y42458D01*
G01X60406Y42428D01*
G01X60432Y42398D01*
G01X60458Y42369D01*
G01X60485Y42340D01*
G01X60512Y42312D01*
G01X60540Y42285D01*
G01X60569Y42258D01*
G01X60598Y42232D01*
G01X60628Y42206D01*
G01X60658Y42181D01*
G01X60689Y42157D01*
G01X60721Y42134D01*
G01X60753Y42111D01*
G01X60785Y42089D01*
G01X60818Y42068D01*
G01X60852Y42047D01*
G01X60886Y42027D01*
G01X60920Y42008D01*
G01X60955Y41990D01*
G01X60990Y41973D01*
G01X61026Y41956D01*
G01X61062Y41940D01*
G01X61098Y41925D01*
G01X61135Y41911D01*
G01X61172Y41898D01*
G01X61209Y41885D01*
G01X61246Y41873D01*
G01X61284Y41863D01*
G01X61322Y41853D01*
G01X61360Y41843D01*
G01X61398Y41835D01*
G01X61437Y41828D01*
G01X61476Y41821D01*
G01X61515Y41815D01*
G01X61554Y41811D01*
G01X61593Y41807D01*
G01X61632Y41803D01*
G01X61671Y41801D01*
G01X61710Y41800D01*
G01X61750Y41800D01*
G04 end of side 14*
G01X63500Y41800D01*
G04 end of side 15*
G01X63500Y3500D01*
G04 end of side 16*
G01X61750Y3500D01*
G04 end of side 17*
G01X61710Y3499D01*
G01X61671Y3498D01*
G01X61632Y3496D01*
G01X61593Y3492D01*
G01X61554Y3488D01*
G01X61515Y3484D01*
G01X61476Y3478D01*
G01X61437Y3471D01*
G01X61398Y3464D01*
G01X61360Y3456D01*
G01X61322Y3446D01*
G01X61284Y3436D01*
G01X61246Y3426D01*
G01X61209Y3414D01*
G01X61172Y3401D01*
G01X61135Y3388D01*
G01X61098Y3374D01*
G01X61062Y3359D01*
G01X61026Y3343D01*
G01X60990Y3326D01*
G01X60955Y3309D01*
G01X60920Y3291D01*
G01X60886Y3272D01*
G01X60852Y3252D01*
G01X60818Y3231D01*
G01X60785Y3210D01*
G01X60753Y3188D01*
G01X60721Y3165D01*
G01X60689Y3142D01*
G01X60658Y3118D01*
G01X60628Y3093D01*
G01X60598Y3067D01*
G01X60569Y3041D01*
G01X60540Y3014D01*
G01X60512Y2987D01*
G01X60485Y2959D01*
G01X60458Y2930D01*
G01X60432Y2901D01*
G01X60406Y2871D01*
G01X60381Y2841D01*
G01X60357Y2810D01*
G01X60334Y2778D01*
G01X60311Y2746D01*
G01X60289Y2714D01*
G01X60268Y2681D01*
G01X60247Y2647D01*
G01X60227Y2613D01*
G01X60208Y2579D01*
G01X60190Y2544D01*
G01X60173Y2509D01*
G01X60156Y2473D01*
G01X60140Y2437D01*
G01X60125Y2401D01*
G01X60111Y2364D01*
G01X60098Y2327D01*
G01X60085Y2290D01*
G01X60073Y2253D01*
G01X60063Y2215D01*
G01X60053Y2177D01*
G01X60043Y2139D01*
G01X60035Y2101D01*
G01X60028Y2062D01*
G01X60021Y2023D01*
G01X60015Y1984D01*
G01X60011Y1945D01*
G01X60007Y1906D01*
G01X60003Y1867D01*
G01X60001Y1828D01*
G01X60000Y1789D01*
G01X60000Y1750D01*
G04 end of side 18*
G01X60000Y0D01*
G04 end of side 19*
G01X33500Y0D01*
G04 end of side 20*
G01X33500Y1750D01*
G04 end of side 21*
G01X33499Y1787D01*
G01X33498Y1824D01*
G01X33495Y1862D01*
G01X33492Y1899D01*
G01X33487Y1937D01*
G01X33482Y1974D01*
G01X33476Y2011D01*
G01X33469Y2048D01*
G01X33461Y2085D01*
G01X33452Y2121D01*
G01X33442Y2158D01*
G01X33431Y2194D01*
G01X33419Y2230D01*
G01X33406Y2265D01*
G01X33392Y2301D01*
G01X33378Y2336D01*
G01X33362Y2370D01*
G01X33346Y2405D01*
G01X33329Y2439D01*
G01X33311Y2473D01*
G01X33292Y2506D01*
G01X33272Y2539D01*
G01X33251Y2571D01*
G01X33230Y2603D01*
G01X33207Y2635D01*
G01X33184Y2666D01*
G01X33160Y2696D01*
G01X33136Y2726D01*
G01X33110Y2755D01*
G01X33084Y2784D01*
G01X33057Y2813D01*
G01X33030Y2840D01*
G01X33001Y2868D01*
G01X32972Y2894D01*
G01X32943Y2920D01*
G01X32912Y2945D01*
G01X32881Y2970D01*
G01X32850Y2994D01*
G01X32818Y3017D01*
G01X32785Y3040D01*
G01X32751Y3061D01*
G01X32717Y3082D01*
G01X32683Y3103D01*
G01X32648Y3122D01*
G01X32613Y3141D01*
G01X32577Y3159D01*
G01X32540Y3177D01*
G01X32504Y3193D01*
G01X32466Y3209D01*
G01X32429Y3224D01*
G01X32391Y3238D01*
G01X32352Y3252D01*
G01X32314Y3264D01*
G01X32275Y3276D01*
G01X32235Y3287D01*
G01X32196Y3297D01*
G01X32156Y3306D01*
G01X32116Y3314D01*
G01X32076Y3321D01*
G01X32035Y3328D01*
G01X31995Y3334D01*
G01X31954Y3339D01*
G01X31913Y3342D01*
G01X31872Y3346D01*
G01X31832Y3348D01*
G01X31791Y3349D01*
G01X31750Y3350D01*
G04 end of side 22*
G01X31708Y3349D01*
G01X31667Y3348D01*
G01X31627Y3346D01*
G01X31586Y3342D01*
G01X31545Y3339D01*
G01X31504Y3334D01*
G01X31464Y3328D01*
G01X31423Y3321D01*
G01X31383Y3314D01*
G01X31343Y3306D01*
G01X31303Y3297D01*
G01X31264Y3287D01*
G01X31224Y3276D01*
G01X31185Y3264D01*
G01X31147Y3252D01*
G01X31108Y3238D01*
G01X31070Y3224D01*
G01X31033Y3209D01*
G01X30995Y3193D01*
G01X30959Y3177D01*
G01X30922Y3159D01*
G01X30886Y3141D01*
G01X30851Y3122D01*
G01X30816Y3103D01*
G01X30782Y3082D01*
G01X30748Y3061D01*
G01X30714Y3040D01*
G01X30681Y3017D01*
G01X30649Y2994D01*
G01X30618Y2970D01*
G01X30587Y2945D01*
G01X30556Y2920D01*
G01X30527Y2894D01*
G01X30498Y2868D01*
G01X30469Y2840D01*
G01X30442Y2813D01*
G01X30415Y2784D01*
G01X30389Y2755D01*
G01X30363Y2726D01*
G01X30339Y2696D01*
G01X30315Y2666D01*
G01X30292Y2635D01*
G01X30269Y2603D01*
G01X30248Y2571D01*
G01X30227Y2539D01*
G01X30207Y2506D01*
G01X30188Y2473D01*
G01X30170Y2439D01*
G01X30153Y2405D01*
G01X30137Y2370D01*
G01X30121Y2336D01*
G01X30107Y2301D01*
G01X30093Y2265D01*
G01X30080Y2230D01*
G01X30068Y2194D01*
G01X30057Y2158D01*
G01X30047Y2121D01*
G01X30038Y2085D01*
G01X30030Y2048D01*
G01X30023Y2011D01*
G01X30017Y1974D01*
G01X30012Y1937D01*
G01X30007Y1899D01*
G01X30004Y1862D01*
G01X30001Y1824D01*
G01X30000Y1787D01*
G01X30000Y1750D01*
G04 end of side 23*
G01X30000Y0D01*
G04 end of side 24*
G01X3500Y0D01*
G04 end of side 25*
G01X3500Y1750D01*
G01X9250Y44700D02*
G01X9210Y44698D01*
G01X9171Y44695D01*
G01X9132Y44690D01*
G01X9094Y44683D01*
G01X9055Y44674D01*
G01X9018Y44663D01*
G01X8981Y44650D01*
G01X8944Y44635D01*
G01X8909Y44618D01*
G01X8874Y44599D01*
G01X8841Y44579D01*
G01X8809Y44556D01*
G01X8778Y44532D01*
G01X8748Y44507D01*
G01X8719Y44480D01*
G01X8692Y44451D01*
G01X8667Y44421D01*
G01X8643Y44390D01*
G01X8620Y44358D01*
G01X8600Y44324D01*
G01X8581Y44290D01*
G01X8564Y44255D01*
G01X8549Y44218D01*
G01X8536Y44181D01*
G01X8525Y44144D01*
G01X8516Y44105D01*
G01X8509Y44067D01*
G01X8504Y44028D01*
G01X8501Y43989D01*
G01X8500Y43950D01*
G04 end of side 1*
G01X8501Y43910D01*
G01X8504Y43871D01*
G01X8509Y43832D01*
G01X8516Y43794D01*
G01X8525Y43755D01*
G01X8536Y43718D01*
G01X8549Y43681D01*
G01X8564Y43644D01*
G01X8581Y43609D01*
G01X8600Y43574D01*
G01X8620Y43541D01*
G01X8643Y43509D01*
G01X8667Y43478D01*
G01X8692Y43448D01*
G01X8719Y43419D01*
G01X8748Y43392D01*
G01X8778Y43367D01*
G01X8809Y43343D01*
G01X8841Y43320D01*
G01X8875Y43300D01*
G01X8909Y43281D01*
G01X8944Y43264D01*
G01X8981Y43249D01*
G01X9018Y43236D01*
G01X9055Y43225D01*
G01X9094Y43216D01*
G01X9132Y43209D01*
G01X9171Y43204D01*
G01X9210Y43201D01*
G01X9250Y43200D01*
G04 end of side 2*
G01X9289Y43201D01*
G01X9328Y43204D01*
G01X9367Y43209D01*
G01X9405Y43216D01*
G01X9444Y43225D01*
G01X9481Y43236D01*
G01X9518Y43249D01*
G01X9555Y43264D01*
G01X9590Y43281D01*
G01X9625Y43300D01*
G01X9658Y43320D01*
G01X9690Y43343D01*
G01X9721Y43367D01*
G01X9751Y43392D01*
G01X9780Y43419D01*
G01X9807Y43448D01*
G01X9832Y43478D01*
G01X9856Y43509D01*
G01X9879Y43541D01*
G01X9899Y43575D01*
G01X9918Y43609D01*
G01X9935Y43644D01*
G01X9950Y43681D01*
G01X9963Y43718D01*
G01X9974Y43755D01*
G01X9983Y43794D01*
G01X9990Y43832D01*
G01X9995Y43871D01*
G01X9998Y43910D01*
G01X10000Y43950D01*
G04 end of side 3*
G01X9998Y43989D01*
G01X9995Y44028D01*
G01X9990Y44067D01*
G01X9983Y44105D01*
G01X9974Y44144D01*
G01X9963Y44181D01*
G01X9950Y44218D01*
G01X9935Y44255D01*
G01X9918Y44290D01*
G01X9899Y44325D01*
G01X9879Y44358D01*
G01X9856Y44390D01*
G01X9832Y44421D01*
G01X9807Y44451D01*
G01X9780Y44480D01*
G01X9751Y44507D01*
G01X9721Y44532D01*
G01X9690Y44556D01*
G01X9658Y44579D01*
G01X9624Y44599D01*
G01X9590Y44618D01*
G01X9555Y44635D01*
G01X9518Y44650D01*
G01X9481Y44663D01*
G01X9444Y44674D01*
G01X9405Y44683D01*
G01X9367Y44690D01*
G01X9328Y44695D01*
G01X9289Y44698D01*
G01X9250Y44700D01*
G01X25500Y44700D02*
G01X25460Y44698D01*
G01X25421Y44695D01*
G01X25382Y44690D01*
G01X25344Y44683D01*
G01X25305Y44674D01*
G01X25268Y44663D01*
G01X25231Y44650D01*
G01X25194Y44635D01*
G01X25159Y44618D01*
G01X25124Y44599D01*
G01X25091Y44579D01*
G01X25059Y44556D01*
G01X25028Y44532D01*
G01X24998Y44507D01*
G01X24969Y44480D01*
G01X24942Y44451D01*
G01X24917Y44421D01*
G01X24893Y44390D01*
G01X24870Y44358D01*
G01X24850Y44324D01*
G01X24831Y44290D01*
G01X24814Y44255D01*
G01X24799Y44218D01*
G01X24786Y44181D01*
G01X24775Y44144D01*
G01X24766Y44105D01*
G01X24759Y44067D01*
G01X24754Y44028D01*
G01X24751Y43989D01*
G01X24750Y43950D01*
G04 end of side 1*
G01X24751Y43910D01*
G01X24754Y43871D01*
G01X24759Y43832D01*
G01X24766Y43794D01*
G01X24775Y43755D01*
G01X24786Y43718D01*
G01X24799Y43681D01*
G01X24814Y43644D01*
G01X24831Y43609D01*
G01X24850Y43574D01*
G01X24870Y43541D01*
G01X24893Y43509D01*
G01X24917Y43478D01*
G01X24942Y43448D01*
G01X24969Y43419D01*
G01X24998Y43392D01*
G01X25028Y43367D01*
G01X25059Y43343D01*
G01X25091Y43320D01*
G01X25125Y43300D01*
G01X25159Y43281D01*
G01X25194Y43264D01*
G01X25231Y43249D01*
G01X25268Y43236D01*
G01X25305Y43225D01*
G01X25344Y43216D01*
G01X25382Y43209D01*
G01X25421Y43204D01*
G01X25460Y43201D01*
G01X25500Y43200D01*
G04 end of side 2*
G01X25539Y43201D01*
G01X25578Y43204D01*
G01X25617Y43209D01*
G01X25655Y43216D01*
G01X25694Y43225D01*
G01X25731Y43236D01*
G01X25768Y43249D01*
G01X25805Y43264D01*
G01X25840Y43281D01*
G01X25875Y43300D01*
G01X25908Y43320D01*
G01X25940Y43343D01*
G01X25971Y43367D01*
G01X26001Y43392D01*
G01X26030Y43419D01*
G01X26057Y43448D01*
G01X26082Y43478D01*
G01X26106Y43509D01*
G01X26129Y43541D01*
G01X26149Y43575D01*
G01X26168Y43609D01*
G01X26185Y43644D01*
G01X26200Y43681D01*
G01X26213Y43718D01*
G01X26224Y43755D01*
G01X26233Y43794D01*
G01X26240Y43832D01*
G01X26245Y43871D01*
G01X26248Y43910D01*
G01X26250Y43950D01*
G04 end of side 3*
G01X26248Y43989D01*
G01X26245Y44028D01*
G01X26240Y44067D01*
G01X26233Y44105D01*
G01X26224Y44144D01*
G01X26213Y44181D01*
G01X26200Y44218D01*
G01X26185Y44255D01*
G01X26168Y44290D01*
G01X26149Y44325D01*
G01X26129Y44358D01*
G01X26106Y44390D01*
G01X26082Y44421D01*
G01X26057Y44451D01*
G01X26030Y44480D01*
G01X26001Y44507D01*
G01X25971Y44532D01*
G01X25940Y44556D01*
G01X25908Y44579D01*
G01X25874Y44599D01*
G01X25840Y44618D01*
G01X25805Y44635D01*
G01X25768Y44650D01*
G01X25731Y44663D01*
G01X25694Y44674D01*
G01X25655Y44683D01*
G01X25617Y44690D01*
G01X25578Y44695D01*
G01X25539Y44698D01*
G01X25500Y44700D01*
G01X38000Y44700D02*
G01X37960Y44698D01*
G01X37921Y44695D01*
G01X37882Y44690D01*
G01X37844Y44683D01*
G01X37805Y44674D01*
G01X37768Y44663D01*
G01X37731Y44650D01*
G01X37694Y44635D01*
G01X37659Y44618D01*
G01X37624Y44599D01*
G01X37591Y44579D01*
G01X37559Y44556D01*
G01X37528Y44532D01*
G01X37498Y44507D01*
G01X37469Y44480D01*
G01X37442Y44451D01*
G01X37417Y44421D01*
G01X37393Y44390D01*
G01X37370Y44358D01*
G01X37350Y44324D01*
G01X37331Y44290D01*
G01X37314Y44255D01*
G01X37299Y44218D01*
G01X37286Y44181D01*
G01X37275Y44144D01*
G01X37266Y44105D01*
G01X37259Y44067D01*
G01X37254Y44028D01*
G01X37251Y43989D01*
G01X37250Y43950D01*
G04 end of side 1*
G01X37251Y43910D01*
G01X37254Y43871D01*
G01X37259Y43832D01*
G01X37266Y43794D01*
G01X37275Y43755D01*
G01X37286Y43718D01*
G01X37299Y43681D01*
G01X37314Y43644D01*
G01X37331Y43609D01*
G01X37350Y43574D01*
G01X37370Y43541D01*
G01X37393Y43509D01*
G01X37417Y43478D01*
G01X37442Y43448D01*
G01X37469Y43419D01*
G01X37498Y43392D01*
G01X37528Y43367D01*
G01X37559Y43343D01*
G01X37591Y43320D01*
G01X37625Y43300D01*
G01X37659Y43281D01*
G01X37694Y43264D01*
G01X37731Y43249D01*
G01X37768Y43236D01*
G01X37805Y43225D01*
G01X37844Y43216D01*
G01X37882Y43209D01*
G01X37921Y43204D01*
G01X37960Y43201D01*
G01X38000Y43200D01*
G04 end of side 2*
G01X38039Y43201D01*
G01X38078Y43204D01*
G01X38117Y43209D01*
G01X38155Y43216D01*
G01X38194Y43225D01*
G01X38231Y43236D01*
G01X38268Y43249D01*
G01X38305Y43264D01*
G01X38340Y43281D01*
G01X38375Y43300D01*
G01X38408Y43320D01*
G01X38440Y43343D01*
G01X38471Y43367D01*
G01X38501Y43392D01*
G01X38530Y43419D01*
G01X38557Y43448D01*
G01X38582Y43478D01*
G01X38606Y43509D01*
G01X38629Y43541D01*
G01X38649Y43575D01*
G01X38668Y43609D01*
G01X38685Y43644D01*
G01X38700Y43681D01*
G01X38713Y43718D01*
G01X38724Y43755D01*
G01X38733Y43794D01*
G01X38740Y43832D01*
G01X38745Y43871D01*
G01X38748Y43910D01*
G01X38750Y43950D01*
G04 end of side 3*
G01X38748Y43989D01*
G01X38745Y44028D01*
G01X38740Y44067D01*
G01X38733Y44105D01*
G01X38724Y44144D01*
G01X38713Y44181D01*
G01X38700Y44218D01*
G01X38685Y44255D01*
G01X38668Y44290D01*
G01X38649Y44325D01*
G01X38629Y44358D01*
G01X38606Y44390D01*
G01X38582Y44421D01*
G01X38557Y44451D01*
G01X38530Y44480D01*
G01X38501Y44507D01*
G01X38471Y44532D01*
G01X38440Y44556D01*
G01X38408Y44579D01*
G01X38374Y44599D01*
G01X38340Y44618D01*
G01X38305Y44635D01*
G01X38268Y44650D01*
G01X38231Y44663D01*
G01X38194Y44674D01*
G01X38155Y44683D01*
G01X38117Y44690D01*
G01X38078Y44695D01*
G01X38039Y44698D01*
G01X38000Y44700D01*
G01X54250Y44700D02*
G01X54210Y44698D01*
G01X54171Y44695D01*
G01X54132Y44690D01*
G01X54094Y44683D01*
G01X54055Y44674D01*
G01X54018Y44663D01*
G01X53981Y44650D01*
G01X53944Y44635D01*
G01X53909Y44618D01*
G01X53874Y44599D01*
G01X53841Y44579D01*
G01X53809Y44556D01*
G01X53778Y44532D01*
G01X53748Y44507D01*
G01X53719Y44480D01*
G01X53692Y44451D01*
G01X53667Y44421D01*
G01X53643Y44390D01*
G01X53620Y44358D01*
G01X53600Y44324D01*
G01X53581Y44290D01*
G01X53564Y44255D01*
G01X53549Y44218D01*
G01X53536Y44181D01*
G01X53525Y44144D01*
G01X53516Y44105D01*
G01X53509Y44067D01*
G01X53504Y44028D01*
G01X53501Y43989D01*
G01X53500Y43950D01*
G04 end of side 1*
G01X53501Y43910D01*
G01X53504Y43871D01*
G01X53509Y43832D01*
G01X53516Y43794D01*
G01X53525Y43755D01*
G01X53536Y43718D01*
G01X53549Y43681D01*
G01X53564Y43644D01*
G01X53581Y43609D01*
G01X53600Y43574D01*
G01X53620Y43541D01*
G01X53643Y43509D01*
G01X53667Y43478D01*
G01X53692Y43448D01*
G01X53719Y43419D01*
G01X53748Y43392D01*
G01X53778Y43367D01*
G01X53809Y43343D01*
G01X53841Y43320D01*
G01X53875Y43300D01*
G01X53909Y43281D01*
G01X53944Y43264D01*
G01X53981Y43249D01*
G01X54018Y43236D01*
G01X54055Y43225D01*
G01X54094Y43216D01*
G01X54132Y43209D01*
G01X54171Y43204D01*
G01X54210Y43201D01*
G01X54250Y43200D01*
G04 end of side 2*
G01X54289Y43201D01*
G01X54328Y43204D01*
G01X54367Y43209D01*
G01X54405Y43216D01*
G01X54444Y43225D01*
G01X54481Y43236D01*
G01X54518Y43249D01*
G01X54555Y43264D01*
G01X54590Y43281D01*
G01X54625Y43300D01*
G01X54658Y43320D01*
G01X54690Y43343D01*
G01X54721Y43367D01*
G01X54751Y43392D01*
G01X54780Y43419D01*
G01X54807Y43448D01*
G01X54832Y43478D01*
G01X54856Y43509D01*
G01X54879Y43541D01*
G01X54899Y43575D01*
G01X54918Y43609D01*
G01X54935Y43644D01*
G01X54950Y43681D01*
G01X54963Y43718D01*
G01X54974Y43755D01*
G01X54983Y43794D01*
G01X54990Y43832D01*
G01X54995Y43871D01*
G01X54998Y43910D01*
G01X55000Y43950D01*
G04 end of side 3*
G01X54998Y43989D01*
G01X54995Y44028D01*
G01X54990Y44067D01*
G01X54983Y44105D01*
G01X54974Y44144D01*
G01X54963Y44181D01*
G01X54950Y44218D01*
G01X54935Y44255D01*
G01X54918Y44290D01*
G01X54899Y44325D01*
G01X54879Y44358D01*
G01X54856Y44390D01*
G01X54832Y44421D01*
G01X54807Y44451D01*
G01X54780Y44480D01*
G01X54751Y44507D01*
G01X54721Y44532D01*
G01X54690Y44556D01*
G01X54658Y44579D01*
G01X54624Y44599D01*
G01X54590Y44618D01*
G01X54555Y44635D01*
G01X54518Y44650D01*
G01X54481Y44663D01*
G01X54444Y44674D01*
G01X54405Y44683D01*
G01X54367Y44690D01*
G01X54328Y44695D01*
G01X54289Y44698D01*
G01X54250Y44700D01*
G01X54250Y2800D02*
G01X54210Y2798D01*
G01X54171Y2795D01*
G01X54132Y2790D01*
G01X54094Y2783D01*
G01X54055Y2774D01*
G01X54018Y2763D01*
G01X53981Y2750D01*
G01X53944Y2735D01*
G01X53909Y2718D01*
G01X53874Y2699D01*
G01X53841Y2679D01*
G01X53809Y2656D01*
G01X53778Y2632D01*
G01X53748Y2607D01*
G01X53719Y2580D01*
G01X53692Y2551D01*
G01X53667Y2521D01*
G01X53643Y2490D01*
G01X53620Y2458D01*
G01X53600Y2424D01*
G01X53581Y2390D01*
G01X53564Y2355D01*
G01X53549Y2318D01*
G01X53536Y2281D01*
G01X53525Y2244D01*
G01X53516Y2205D01*
G01X53509Y2167D01*
G01X53504Y2128D01*
G01X53501Y2089D01*
G01X53500Y2050D01*
G04 end of side 1*
G01X53501Y2010D01*
G01X53504Y1971D01*
G01X53509Y1932D01*
G01X53516Y1894D01*
G01X53525Y1855D01*
G01X53536Y1818D01*
G01X53549Y1781D01*
G01X53564Y1744D01*
G01X53581Y1709D01*
G01X53600Y1674D01*
G01X53620Y1641D01*
G01X53643Y1609D01*
G01X53667Y1578D01*
G01X53692Y1548D01*
G01X53719Y1519D01*
G01X53748Y1492D01*
G01X53778Y1467D01*
G01X53809Y1443D01*
G01X53841Y1420D01*
G01X53875Y1400D01*
G01X53909Y1381D01*
G01X53944Y1364D01*
G01X53981Y1349D01*
G01X54018Y1336D01*
G01X54055Y1325D01*
G01X54094Y1316D01*
G01X54132Y1309D01*
G01X54171Y1304D01*
G01X54210Y1301D01*
G01X54250Y1300D01*
G04 end of side 2*
G01X54289Y1301D01*
G01X54328Y1304D01*
G01X54367Y1309D01*
G01X54405Y1316D01*
G01X54444Y1325D01*
G01X54481Y1336D01*
G01X54518Y1349D01*
G01X54555Y1364D01*
G01X54590Y1381D01*
G01X54625Y1400D01*
G01X54658Y1420D01*
G01X54690Y1443D01*
G01X54721Y1467D01*
G01X54751Y1492D01*
G01X54780Y1519D01*
G01X54807Y1548D01*
G01X54832Y1578D01*
G01X54856Y1609D01*
G01X54879Y1641D01*
G01X54899Y1675D01*
G01X54918Y1709D01*
G01X54935Y1744D01*
G01X54950Y1781D01*
G01X54963Y1818D01*
G01X54974Y1855D01*
G01X54983Y1894D01*
G01X54990Y1932D01*
G01X54995Y1971D01*
G01X54998Y2010D01*
G01X55000Y2050D01*
G04 end of side 3*
G01X54998Y2089D01*
G01X54995Y2128D01*
G01X54990Y2167D01*
G01X54983Y2205D01*
G01X54974Y2244D01*
G01X54963Y2281D01*
G01X54950Y2318D01*
G01X54935Y2355D01*
G01X54918Y2390D01*
G01X54899Y2425D01*
G01X54879Y2458D01*
G01X54856Y2490D01*
G01X54832Y2521D01*
G01X54807Y2551D01*
G01X54780Y2580D01*
G01X54751Y2607D01*
G01X54721Y2632D01*
G01X54690Y2656D01*
G01X54658Y2679D01*
G01X54624Y2699D01*
G01X54590Y2718D01*
G01X54555Y2735D01*
G01X54518Y2750D01*
G01X54481Y2763D01*
G01X54444Y2774D01*
G01X54405Y2783D01*
G01X54367Y2790D01*
G01X54328Y2795D01*
G01X54289Y2798D01*
G01X54250Y2800D01*
G01X38000Y2800D02*
G01X37960Y2798D01*
G01X37921Y2795D01*
G01X37882Y2790D01*
G01X37844Y2783D01*
G01X37805Y2774D01*
G01X37768Y2763D01*
G01X37731Y2750D01*
G01X37694Y2735D01*
G01X37659Y2718D01*
G01X37624Y2699D01*
G01X37591Y2679D01*
G01X37559Y2656D01*
G01X37528Y2632D01*
G01X37498Y2607D01*
G01X37469Y2580D01*
G01X37442Y2551D01*
G01X37417Y2521D01*
G01X37393Y2490D01*
G01X37370Y2458D01*
G01X37350Y2424D01*
G01X37331Y2390D01*
G01X37314Y2355D01*
G01X37299Y2318D01*
G01X37286Y2281D01*
G01X37275Y2244D01*
G01X37266Y2205D01*
G01X37259Y2167D01*
G01X37254Y2128D01*
G01X37251Y2089D01*
G01X37250Y2050D01*
G04 end of side 1*
G01X37251Y2010D01*
G01X37254Y1971D01*
G01X37259Y1932D01*
G01X37266Y1894D01*
G01X37275Y1855D01*
G01X37286Y1818D01*
G01X37299Y1781D01*
G01X37314Y1744D01*
G01X37331Y1709D01*
G01X37350Y1674D01*
G01X37370Y1641D01*
G01X37393Y1609D01*
G01X37417Y1578D01*
G01X37442Y1548D01*
G01X37469Y1519D01*
G01X37498Y1492D01*
G01X37528Y1467D01*
G01X37559Y1443D01*
G01X37591Y1420D01*
G01X37625Y1400D01*
G01X37659Y1381D01*
G01X37694Y1364D01*
G01X37731Y1349D01*
G01X37768Y1336D01*
G01X37805Y1325D01*
G01X37844Y1316D01*
G01X37882Y1309D01*
G01X37921Y1304D01*
G01X37960Y1301D01*
G01X38000Y1300D01*
G04 end of side 2*
G01X38039Y1301D01*
G01X38078Y1304D01*
G01X38117Y1309D01*
G01X38155Y1316D01*
G01X38194Y1325D01*
G01X38231Y1336D01*
G01X38268Y1349D01*
G01X38305Y1364D01*
G01X38340Y1381D01*
G01X38375Y1400D01*
G01X38408Y1420D01*
G01X38440Y1443D01*
G01X38471Y1467D01*
G01X38501Y1492D01*
G01X38530Y1519D01*
G01X38557Y1548D01*
G01X38582Y1578D01*
G01X38606Y1609D01*
G01X38629Y1641D01*
G01X38649Y1675D01*
G01X38668Y1709D01*
G01X38685Y1744D01*
G01X38700Y1781D01*
G01X38713Y1818D01*
G01X38724Y1855D01*
G01X38733Y1894D01*
G01X38740Y1932D01*
G01X38745Y1971D01*
G01X38748Y2010D01*
G01X38750Y2050D01*
G04 end of side 3*
G01X38748Y2089D01*
G01X38745Y2128D01*
G01X38740Y2167D01*
G01X38733Y2205D01*
G01X38724Y2244D01*
G01X38713Y2281D01*
G01X38700Y2318D01*
G01X38685Y2355D01*
G01X38668Y2390D01*
G01X38649Y2425D01*
G01X38629Y2458D01*
G01X38606Y2490D01*
G01X38582Y2521D01*
G01X38557Y2551D01*
G01X38530Y2580D01*
G01X38501Y2607D01*
G01X38471Y2632D01*
G01X38440Y2656D01*
G01X38408Y2679D01*
G01X38374Y2699D01*
G01X38340Y2718D01*
G01X38305Y2735D01*
G01X38268Y2750D01*
G01X38231Y2763D01*
G01X38194Y2774D01*
G01X38155Y2783D01*
G01X38117Y2790D01*
G01X38078Y2795D01*
G01X38039Y2798D01*
G01X38000Y2800D01*
G01X25500Y2800D02*
G01X25460Y2798D01*
G01X25421Y2795D01*
G01X25382Y2790D01*
G01X25344Y2783D01*
G01X25305Y2774D01*
G01X25268Y2763D01*
G01X25231Y2750D01*
G01X25194Y2735D01*
G01X25159Y2718D01*
G01X25124Y2699D01*
G01X25091Y2679D01*
G01X25059Y2656D01*
G01X25028Y2632D01*
G01X24998Y2607D01*
G01X24969Y2580D01*
G01X24942Y2551D01*
G01X24917Y2521D01*
G01X24893Y2490D01*
G01X24870Y2458D01*
G01X24850Y2424D01*
G01X24831Y2390D01*
G01X24814Y2355D01*
G01X24799Y2318D01*
G01X24786Y2281D01*
G01X24775Y2244D01*
G01X24766Y2205D01*
G01X24759Y2167D01*
G01X24754Y2128D01*
G01X24751Y2089D01*
G01X24750Y2050D01*
G04 end of side 1*
G01X24751Y2010D01*
G01X24754Y1971D01*
G01X24759Y1932D01*
G01X24766Y1894D01*
G01X24775Y1855D01*
G01X24786Y1818D01*
G01X24799Y1781D01*
G01X24814Y1744D01*
G01X24831Y1709D01*
G01X24850Y1674D01*
G01X24870Y1641D01*
G01X24893Y1609D01*
G01X24917Y1578D01*
G01X24942Y1548D01*
G01X24969Y1519D01*
G01X24998Y1492D01*
G01X25028Y1467D01*
G01X25059Y1443D01*
G01X25091Y1420D01*
G01X25125Y1400D01*
G01X25159Y1381D01*
G01X25194Y1364D01*
G01X25231Y1349D01*
G01X25268Y1336D01*
G01X25305Y1325D01*
G01X25344Y1316D01*
G01X25382Y1309D01*
G01X25421Y1304D01*
G01X25460Y1301D01*
G01X25500Y1300D01*
G04 end of side 2*
G01X25539Y1301D01*
G01X25578Y1304D01*
G01X25617Y1309D01*
G01X25655Y1316D01*
G01X25694Y1325D01*
G01X25731Y1336D01*
G01X25768Y1349D01*
G01X25805Y1364D01*
G01X25840Y1381D01*
G01X25875Y1400D01*
G01X25908Y1420D01*
G01X25940Y1443D01*
G01X25971Y1467D01*
G01X26001Y1492D01*
G01X26030Y1519D01*
G01X26057Y1548D01*
G01X26082Y1578D01*
G01X26106Y1609D01*
G01X26129Y1641D01*
G01X26149Y1675D01*
G01X26168Y1709D01*
G01X26185Y1744D01*
G01X26200Y1781D01*
G01X26213Y1818D01*
G01X26224Y1855D01*
G01X26233Y1894D01*
G01X26240Y1932D01*
G01X26245Y1971D01*
G01X26248Y2010D01*
G01X26250Y2050D01*
G04 end of side 3*
G01X26248Y2089D01*
G01X26245Y2128D01*
G01X26240Y2167D01*
G01X26233Y2205D01*
G01X26224Y2244D01*
G01X26213Y2281D01*
G01X26200Y2318D01*
G01X26185Y2355D01*
G01X26168Y2390D01*
G01X26149Y2425D01*
G01X26129Y2458D01*
G01X26106Y2490D01*
G01X26082Y2521D01*
G01X26057Y2551D01*
G01X26030Y2580D01*
G01X26001Y2607D01*
G01X25971Y2632D01*
G01X25940Y2656D01*
G01X25908Y2679D01*
G01X25874Y2699D01*
G01X25840Y2718D01*
G01X25805Y2735D01*
G01X25768Y2750D01*
G01X25731Y2763D01*
G01X25694Y2774D01*
G01X25655Y2783D01*
G01X25617Y2790D01*
G01X25578Y2795D01*
G01X25539Y2798D01*
G01X25500Y2800D01*
G01X9250Y2800D02*
G01X9210Y2798D01*
G01X9171Y2795D01*
G01X9132Y2790D01*
G01X9094Y2783D01*
G01X9055Y2774D01*
G01X9018Y2763D01*
G01X8981Y2750D01*
G01X8944Y2735D01*
G01X8909Y2718D01*
G01X8874Y2699D01*
G01X8841Y2679D01*
G01X8809Y2656D01*
G01X8778Y2632D01*
G01X8748Y2607D01*
G01X8719Y2580D01*
G01X8692Y2551D01*
G01X8667Y2521D01*
G01X8643Y2490D01*
G01X8620Y2458D01*
G01X8600Y2424D01*
G01X8581Y2390D01*
G01X8564Y2355D01*
G01X8549Y2318D01*
G01X8536Y2281D01*
G01X8525Y2244D01*
G01X8516Y2205D01*
G01X8509Y2167D01*
G01X8504Y2128D01*
G01X8501Y2089D01*
G01X8500Y2050D01*
G04 end of side 1*
G01X8501Y2010D01*
G01X8504Y1971D01*
G01X8509Y1932D01*
G01X8516Y1894D01*
G01X8525Y1855D01*
G01X8536Y1818D01*
G01X8549Y1781D01*
G01X8564Y1744D01*
G01X8581Y1709D01*
G01X8600Y1674D01*
G01X8620Y1641D01*
G01X8643Y1609D01*
G01X8667Y1578D01*
G01X8692Y1548D01*
G01X8719Y1519D01*
G01X8748Y1492D01*
G01X8778Y1467D01*
G01X8809Y1443D01*
G01X8841Y1420D01*
G01X8875Y1400D01*
G01X8909Y1381D01*
G01X8944Y1364D01*
G01X8981Y1349D01*
G01X9018Y1336D01*
G01X9055Y1325D01*
G01X9094Y1316D01*
G01X9132Y1309D01*
G01X9171Y1304D01*
G01X9210Y1301D01*
G01X9250Y1300D01*
G04 end of side 2*
G01X9289Y1301D01*
G01X9328Y1304D01*
G01X9367Y1309D01*
G01X9405Y1316D01*
G01X9444Y1325D01*
G01X9481Y1336D01*
G01X9518Y1349D01*
G01X9555Y1364D01*
G01X9590Y1381D01*
G01X9625Y1400D01*
G01X9658Y1420D01*
G01X9690Y1443D01*
G01X9721Y1467D01*
G01X9751Y1492D01*
G01X9780Y1519D01*
G01X9807Y1548D01*
G01X9832Y1578D01*
G01X9856Y1609D01*
G01X9879Y1641D01*
G01X9899Y1675D01*
G01X9918Y1709D01*
G01X9935Y1744D01*
G01X9950Y1781D01*
G01X9963Y1818D01*
G01X9974Y1855D01*
G01X9983Y1894D01*
G01X9990Y1932D01*
G01X9995Y1971D01*
G01X9998Y2010D01*
G01X10000Y2050D01*
G04 end of side 3*
G01X9998Y2089D01*
G01X9995Y2128D01*
G01X9990Y2167D01*
G01X9983Y2205D01*
G01X9974Y2244D01*
G01X9963Y2281D01*
G01X9950Y2318D01*
G01X9935Y2355D01*
G01X9918Y2390D01*
G01X9899Y2425D01*
G01X9879Y2458D01*
G01X9856Y2490D01*
G01X9832Y2521D01*
G01X9807Y2551D01*
G01X9780Y2580D01*
G01X9751Y2607D01*
G01X9721Y2632D01*
G01X9690Y2656D01*
G01X9658Y2679D01*
G01X9624Y2699D01*
G01X9590Y2718D01*
G01X9555Y2735D01*
G01X9518Y2750D01*
G01X9481Y2763D01*
G01X9444Y2774D01*
G01X9405Y2783D01*
G01X9367Y2790D01*
G01X9328Y2795D01*
G01X9289Y2798D01*
G01X9250Y2800D01*

G04 -------------- Draw Parts, Pads, Traces, Vias and Text (positive)*
%LPD*%
G04 Draw part U5*
G04 draw part outline for part U5*
G54D11*
G01X25425Y37189D02*
G01X27985Y37189D01*
G01X27985Y37189D02*
G01X27985Y35811D01*
G01X27985Y35811D02*
G01X25425Y35811D01*
G01X25425Y35811D02*
G01X25425Y37189D01*
G04 draw reference designator for part U5*
G01X25200Y36477D02*
G01X25200Y36136D01*
G01X25200Y36136D02*
G01X25177Y36068D01*
G01X25177Y36068D02*
G01X25131Y36022D01*
G01X25131Y36022D02*
G01X25063Y36000D01*
G01X25018Y36000D02*
G01X25063Y36000D01*
G01X24950Y36022D02*
G01X25018Y36000D01*
G01X24904Y36068D02*
G01X24950Y36022D01*
G01X24881Y36136D02*
G01X24904Y36068D01*
G01X24881Y36477D02*
G01X24881Y36136D01*
G01X24654Y36477D02*
G01X24427Y36477D01*
G01X24654Y36477D02*
G01X24677Y36272D01*
G01X24654Y36295D02*
G01X24677Y36272D01*
G01X24586Y36318D02*
G01X24654Y36295D01*
G01X24518Y36318D02*
G01X24586Y36318D01*
G01X24518Y36318D02*
G01X24450Y36295D01*
G01X24450Y36295D02*
G01X24404Y36250D01*
G01X24404Y36250D02*
G01X24381Y36181D01*
G01X24381Y36181D02*
G01X24381Y36136D01*
G01X24381Y36136D02*
G01X24404Y36068D01*
G01X24404Y36068D02*
G01X24450Y36022D01*
G01X24450Y36022D02*
G01X24518Y36000D01*
G01X24586Y36000D02*
G01X24518Y36000D01*
G01X24654Y36022D02*
G01X24586Y36000D01*
G01X24677Y36045D02*
G01X24654Y36022D01*
G01X24700Y36090D02*
G01X24677Y36045D01*
G04 Draw part U3*
G04 draw part outline for part U3*
G01X31925Y37189D02*
G01X34485Y37189D01*
G01X34485Y37189D02*
G01X34485Y35811D01*
G01X34485Y35811D02*
G01X31925Y35811D01*
G01X31925Y35811D02*
G01X31925Y37189D01*
G04 draw reference designator for part U3*
G01X35700Y36677D02*
G01X35700Y36336D01*
G01X35700Y36336D02*
G01X35677Y36268D01*
G01X35677Y36268D02*
G01X35631Y36222D01*
G01X35631Y36222D02*
G01X35563Y36200D01*
G01X35518Y36200D02*
G01X35563Y36200D01*
G01X35450Y36222D02*
G01X35518Y36200D01*
G01X35404Y36268D02*
G01X35450Y36222D01*
G01X35381Y36336D02*
G01X35404Y36268D01*
G01X35381Y36677D02*
G01X35381Y36336D01*
G01X34904Y36677D02*
G01X35154Y36677D01*
G01X34904Y36677D02*
G01X35040Y36495D01*
G01X34972Y36495D02*
G01X35040Y36495D01*
G01X34972Y36495D02*
G01X34927Y36472D01*
G01X34927Y36472D02*
G01X34904Y36450D01*
G01X34904Y36450D02*
G01X34881Y36381D01*
G01X34881Y36381D02*
G01X34881Y36336D01*
G01X34881Y36336D02*
G01X34904Y36268D01*
G01X34904Y36268D02*
G01X34950Y36222D01*
G01X34950Y36222D02*
G01X35018Y36200D01*
G01X35086Y36200D02*
G01X35018Y36200D01*
G01X35154Y36222D02*
G01X35086Y36200D01*
G01X35177Y36245D02*
G01X35154Y36222D01*
G01X35200Y36290D02*
G01X35177Y36245D01*
G04 Draw part C2*
G04 draw part outline for part C2*
G01X27433Y40311D02*
G01X25464Y40311D01*
G01X25464Y40311D02*
G01X25464Y39288D01*
G01X25464Y39288D02*
G01X27433Y39288D01*
G01X27433Y39288D02*
G01X27433Y40311D01*
G04 draw reference designator for part C2*
G01X26581Y40909D02*
G01X26559Y40863D01*
G01X26627Y40954D02*
G01X26581Y40909D01*
G01X26672Y40977D02*
G01X26627Y40954D01*
G01X26763Y40977D02*
G01X26672Y40977D01*
G01X26763Y40977D02*
G01X26809Y40954D01*
G01X26809Y40954D02*
G01X26854Y40909D01*
G01X26854Y40909D02*
G01X26877Y40863D01*
G01X26877Y40863D02*
G01X26900Y40795D01*
G01X26900Y40795D02*
G01X26900Y40681D01*
G01X26900Y40681D02*
G01X26877Y40613D01*
G01X26877Y40613D02*
G01X26854Y40568D01*
G01X26854Y40568D02*
G01X26809Y40522D01*
G01X26809Y40522D02*
G01X26763Y40500D01*
G01X26672Y40500D02*
G01X26763Y40500D01*
G01X26627Y40522D02*
G01X26672Y40500D01*
G01X26581Y40568D02*
G01X26627Y40522D01*
G01X26559Y40613D02*
G01X26581Y40568D01*
G01X26354Y40886D02*
G01X26354Y40863D01*
G01X26331Y40931D02*
G01X26354Y40886D01*
G01X26309Y40954D02*
G01X26331Y40931D01*
G01X26263Y40977D02*
G01X26309Y40954D01*
G01X26172Y40977D02*
G01X26263Y40977D01*
G01X26172Y40977D02*
G01X26127Y40954D01*
G01X26127Y40954D02*
G01X26104Y40931D01*
G01X26104Y40931D02*
G01X26081Y40886D01*
G01X26081Y40886D02*
G01X26081Y40840D01*
G01X26081Y40840D02*
G01X26104Y40795D01*
G01X26104Y40795D02*
G01X26150Y40727D01*
G01X26150Y40727D02*
G01X26377Y40500D01*
G01X26059Y40500D02*
G01X26377Y40500D01*
G04 Draw part C3*
G04 draw part outline for part C3*
G01X33833Y40311D02*
G01X31864Y40311D01*
G01X31864Y40311D02*
G01X31864Y39288D01*
G01X31864Y39288D02*
G01X33833Y39288D01*
G01X33833Y39288D02*
G01X33833Y40311D01*
G04 draw reference designator for part C3*
G01X32981Y41009D02*
G01X32959Y40963D01*
G01X33027Y41054D02*
G01X32981Y41009D01*
G01X33072Y41077D02*
G01X33027Y41054D01*
G01X33163Y41077D02*
G01X33072Y41077D01*
G01X33163Y41077D02*
G01X33209Y41054D01*
G01X33209Y41054D02*
G01X33254Y41009D01*
G01X33254Y41009D02*
G01X33277Y40963D01*
G01X33277Y40963D02*
G01X33300Y40895D01*
G01X33300Y40895D02*
G01X33300Y40781D01*
G01X33300Y40781D02*
G01X33277Y40713D01*
G01X33277Y40713D02*
G01X33254Y40668D01*
G01X33254Y40668D02*
G01X33209Y40622D01*
G01X33209Y40622D02*
G01X33163Y40600D01*
G01X33072Y40600D02*
G01X33163Y40600D01*
G01X33027Y40622D02*
G01X33072Y40600D01*
G01X32981Y40668D02*
G01X33027Y40622D01*
G01X32959Y40713D02*
G01X32981Y40668D01*
G01X32481Y41077D02*
G01X32731Y41077D01*
G01X32481Y41077D02*
G01X32618Y40895D01*
G01X32550Y40895D02*
G01X32618Y40895D01*
G01X32550Y40895D02*
G01X32504Y40872D01*
G01X32504Y40872D02*
G01X32481Y40850D01*
G01X32481Y40850D02*
G01X32459Y40781D01*
G01X32459Y40781D02*
G01X32459Y40736D01*
G01X32459Y40736D02*
G01X32481Y40668D01*
G01X32481Y40668D02*
G01X32527Y40622D01*
G01X32527Y40622D02*
G01X32595Y40600D01*
G01X32663Y40600D02*
G01X32595Y40600D01*
G01X32731Y40622D02*
G01X32663Y40600D01*
G01X32754Y40645D02*
G01X32731Y40622D01*
G01X32777Y40690D02*
G01X32754Y40645D01*
G04 Draw part U1*
G04 draw part outline for part U1*
G01X61800Y20600D02*
G01X41800Y20600D01*
G01X41800Y20600D02*
G01X41800Y25600D01*
G01X41800Y25600D02*
G01X61800Y25600D01*
G01X61800Y25600D02*
G01X61800Y20600D01*
G01X61800Y22600D02*
G01X61300Y22600D01*
G01X61300Y22600D02*
G01X61300Y23600D01*
G01X61300Y23600D02*
G01X61800Y23600D01*
G01X61800Y23600D02*
G01X61800Y22600D01*
G04 draw reference designator for part U1*
G01X62441Y22890D02*
G01X62441Y23231D01*
G01X62441Y23231D02*
G01X62464Y23299D01*
G01X62464Y23299D02*
G01X62509Y23344D01*
G01X62509Y23344D02*
G01X62578Y23367D01*
G01X62623Y23367D02*
G01X62578Y23367D01*
G01X62691Y23344D02*
G01X62623Y23367D01*
G01X62737Y23299D02*
G01X62691Y23344D01*
G01X62759Y23231D02*
G01X62737Y23299D01*
G01X62759Y22890D02*
G01X62759Y23231D01*
G01X62987Y22958D02*
G01X62941Y22981D01*
G01X63055Y22890D02*
G01X62987Y22958D01*
G01X63055Y22890D02*
G01X63055Y23367D01*
G04 Draw part C6*
G04 draw part outline for part C6*
G01X45411Y17066D02*
G01X45411Y19035D01*
G01X45411Y19035D02*
G01X44388Y19035D01*
G01X44388Y19035D02*
G01X44388Y17066D01*
G01X44388Y17066D02*
G01X45411Y17066D01*
G04 draw reference designator for part C6*
G01X46181Y18209D02*
G01X46159Y18163D01*
G01X46227Y18254D02*
G01X46181Y18209D01*
G01X46272Y18277D02*
G01X46227Y18254D01*
G01X46363Y18277D02*
G01X46272Y18277D01*
G01X46363Y18277D02*
G01X46409Y18254D01*
G01X46409Y18254D02*
G01X46454Y18209D01*
G01X46454Y18209D02*
G01X46477Y18163D01*
G01X46477Y18163D02*
G01X46500Y18095D01*
G01X46500Y18095D02*
G01X46500Y17981D01*
G01X46500Y17981D02*
G01X46477Y17913D01*
G01X46477Y17913D02*
G01X46454Y17868D01*
G01X46454Y17868D02*
G01X46409Y17822D01*
G01X46409Y17822D02*
G01X46363Y17800D01*
G01X46272Y17800D02*
G01X46363Y17800D01*
G01X46227Y17822D02*
G01X46272Y17800D01*
G01X46181Y17868D02*
G01X46227Y17822D01*
G01X46159Y17913D02*
G01X46181Y17868D01*
G01X45727Y18254D02*
G01X45704Y18209D01*
G01X45795Y18277D02*
G01X45727Y18254D01*
G01X45840Y18277D02*
G01X45795Y18277D01*
G01X45840Y18277D02*
G01X45909Y18254D01*
G01X45909Y18254D02*
G01X45954Y18186D01*
G01X45954Y18186D02*
G01X45977Y18072D01*
G01X45977Y18072D02*
G01X45977Y17959D01*
G01X45977Y17959D02*
G01X45954Y17868D01*
G01X45954Y17868D02*
G01X45909Y17822D01*
G01X45909Y17822D02*
G01X45840Y17800D01*
G01X45818Y17800D02*
G01X45840Y17800D01*
G01X45750Y17822D02*
G01X45818Y17800D01*
G01X45704Y17868D02*
G01X45750Y17822D01*
G01X45681Y17936D02*
G01X45704Y17868D01*
G01X45681Y17959D02*
G01X45681Y17936D01*
G01X45704Y18027D02*
G01X45681Y17959D01*
G01X45750Y18072D02*
G01X45704Y18027D01*
G01X45818Y18095D02*
G01X45750Y18072D01*
G01X45840Y18095D02*
G01X45818Y18095D01*
G01X45840Y18095D02*
G01X45909Y18072D01*
G01X45909Y18072D02*
G01X45954Y18027D01*
G01X45954Y18027D02*
G01X45977Y17959D01*
G04 Draw part C7*
G04 draw part outline for part C7*
G01X52388Y18933D02*
G01X52388Y16964D01*
G01X52388Y16964D02*
G01X53411Y16964D01*
G01X53411Y16964D02*
G01X53411Y18933D01*
G01X53411Y18933D02*
G01X52388Y18933D01*
G04 draw reference designator for part C7*
G01X53918Y17990D02*
G01X53940Y18036D01*
G01X53872Y17945D02*
G01X53918Y17990D01*
G01X53827Y17922D02*
G01X53872Y17945D01*
G01X53736Y17922D02*
G01X53827Y17922D01*
G01X53736Y17922D02*
G01X53690Y17945D01*
G01X53690Y17945D02*
G01X53645Y17990D01*
G01X53645Y17990D02*
G01X53622Y18036D01*
G01X53622Y18036D02*
G01X53600Y18104D01*
G01X53600Y18104D02*
G01X53600Y18218D01*
G01X53600Y18218D02*
G01X53622Y18286D01*
G01X53622Y18286D02*
G01X53645Y18331D01*
G01X53645Y18331D02*
G01X53690Y18377D01*
G01X53690Y18377D02*
G01X53736Y18400D01*
G01X53827Y18400D02*
G01X53736Y18400D01*
G01X53872Y18377D02*
G01X53827Y18400D01*
G01X53918Y18331D02*
G01X53872Y18377D01*
G01X53940Y18286D02*
G01X53918Y18331D01*
G01X54440Y17922D02*
G01X54213Y18400D01*
G01X54440Y17922D02*
G01X54122Y17922D01*
G04 Draw part S1*
G04 Draw part S2*
G04 Draw part S3*
G04 Draw part S5*
G04 Draw part S4*
G04 Draw part S6*
G04 Draw part S7*
G04 Draw part S8*
G04 Draw part C4*
G04 draw part outline for part C4*
G01X50766Y28988D02*
G01X52735Y28988D01*
G01X52735Y28988D02*
G01X52735Y30011D01*
G01X52735Y30011D02*
G01X50766Y30011D01*
G01X50766Y30011D02*
G01X50766Y28988D01*
G04 draw reference designator for part C4*
G01X51984Y30578D02*
G01X51961Y30532D01*
G01X52029Y30623D02*
G01X51984Y30578D01*
G01X52075Y30646D02*
G01X52029Y30623D01*
G01X52165Y30646D02*
G01X52075Y30646D01*
G01X52165Y30646D02*
G01X52211Y30623D01*
G01X52211Y30623D02*
G01X52256Y30578D01*
G01X52256Y30578D02*
G01X52279Y30532D01*
G01X52279Y30532D02*
G01X52302Y30464D01*
G01X52302Y30464D02*
G01X52302Y30351D01*
G01X52302Y30351D02*
G01X52279Y30282D01*
G01X52279Y30282D02*
G01X52256Y30237D01*
G01X52256Y30237D02*
G01X52211Y30192D01*
G01X52211Y30192D02*
G01X52165Y30169D01*
G01X52075Y30169D02*
G01X52165Y30169D01*
G01X52029Y30192D02*
G01X52075Y30169D01*
G01X51984Y30237D02*
G01X52029Y30192D01*
G01X51961Y30282D02*
G01X51984Y30237D01*
G01X51552Y30646D02*
G01X51779Y30328D01*
G01X51438Y30328D02*
G01X51779Y30328D01*
G01X51552Y30646D02*
G01X51552Y30169D01*
G04 Draw part C5*
G04 Draw part R3*
G04 draw part outline for part R3*
G01X42833Y28266D02*
G01X42833Y30235D01*
G01X42833Y30235D02*
G01X41966Y30235D01*
G01X41966Y30235D02*
G01X41966Y28266D01*
G01X41966Y28266D02*
G01X42833Y28266D01*
G04 draw reference designator for part R3*
G01X43221Y29881D02*
G01X43699Y29881D01*
G01X43221Y29676D02*
G01X43221Y29881D01*
G01X43221Y29676D02*
G01X43244Y29608D01*
G01X43244Y29608D02*
G01X43267Y29585D01*
G01X43267Y29585D02*
G01X43312Y29562D01*
G01X43312Y29562D02*
G01X43358Y29562D01*
G01X43358Y29562D02*
G01X43403Y29585D01*
G01X43403Y29585D02*
G01X43426Y29608D01*
G01X43426Y29608D02*
G01X43449Y29676D01*
G01X43449Y29881D02*
G01X43449Y29676D01*
G01X43449Y29722D02*
G01X43699Y29562D01*
G01X43221Y29085D02*
G01X43221Y29335D01*
G01X43221Y29085D02*
G01X43403Y29222D01*
G01X43403Y29153D02*
G01X43403Y29222D01*
G01X43403Y29153D02*
G01X43426Y29108D01*
G01X43426Y29108D02*
G01X43449Y29085D01*
G01X43449Y29085D02*
G01X43517Y29062D01*
G01X43517Y29062D02*
G01X43562Y29062D01*
G01X43562Y29062D02*
G01X43631Y29085D01*
G01X43631Y29085D02*
G01X43676Y29131D01*
G01X43676Y29131D02*
G01X43699Y29199D01*
G01X43699Y29267D02*
G01X43699Y29199D01*
G01X43676Y29335D02*
G01X43699Y29267D01*
G01X43653Y29358D02*
G01X43676Y29335D01*
G01X43608Y29381D02*
G01X43653Y29358D01*
G04 Draw part R4*
G04 draw part outline for part R4*
G01X48066Y38733D02*
G01X48066Y36764D01*
G01X48066Y36764D02*
G01X48933Y36764D01*
G01X48933Y36764D02*
G01X48933Y38733D01*
G01X48933Y38733D02*
G01X48066Y38733D01*
G04 draw reference designator for part R4*
G01X50100Y37377D02*
G01X50100Y36900D01*
G01X49895Y37377D02*
G01X50100Y37377D01*
G01X49895Y37377D02*
G01X49827Y37354D01*
G01X49827Y37354D02*
G01X49804Y37331D01*
G01X49804Y37331D02*
G01X49781Y37286D01*
G01X49781Y37286D02*
G01X49781Y37240D01*
G01X49781Y37240D02*
G01X49804Y37195D01*
G01X49804Y37195D02*
G01X49827Y37172D01*
G01X49827Y37172D02*
G01X49895Y37150D01*
G01X50100Y37150D02*
G01X49895Y37150D01*
G01X49940Y37150D02*
G01X49781Y36900D01*
G01X49372Y37377D02*
G01X49600Y37059D01*
G01X49259Y37059D02*
G01X49600Y37059D01*
G01X49372Y37377D02*
G01X49372Y36900D01*
G04 Draw part R5*
G04 draw part outline for part R5*
G01X48066Y41533D02*
G01X48066Y39564D01*
G01X48066Y39564D02*
G01X48933Y39564D01*
G01X48933Y39564D02*
G01X48933Y41533D01*
G01X48933Y41533D02*
G01X48066Y41533D01*
G04 draw reference designator for part R5*
G01X50139Y40759D02*
G01X50139Y40282D01*
G01X49934Y40759D02*
G01X50139Y40759D01*
G01X49934Y40759D02*
G01X49866Y40737D01*
G01X49866Y40737D02*
G01X49843Y40714D01*
G01X49843Y40714D02*
G01X49821Y40669D01*
G01X49821Y40669D02*
G01X49821Y40623D01*
G01X49821Y40623D02*
G01X49843Y40578D01*
G01X49843Y40578D02*
G01X49866Y40555D01*
G01X49866Y40555D02*
G01X49934Y40532D01*
G01X50139Y40532D02*
G01X49934Y40532D01*
G01X49980Y40532D02*
G01X49821Y40282D01*
G01X49593Y40759D02*
G01X49366Y40759D01*
G01X49593Y40759D02*
G01X49616Y40555D01*
G01X49593Y40578D02*
G01X49616Y40555D01*
G01X49525Y40600D02*
G01X49593Y40578D01*
G01X49457Y40600D02*
G01X49525Y40600D01*
G01X49457Y40600D02*
G01X49389Y40578D01*
G01X49389Y40578D02*
G01X49343Y40532D01*
G01X49343Y40532D02*
G01X49321Y40464D01*
G01X49321Y40464D02*
G01X49321Y40419D01*
G01X49321Y40419D02*
G01X49343Y40350D01*
G01X49343Y40350D02*
G01X49389Y40305D01*
G01X49389Y40305D02*
G01X49457Y40282D01*
G01X49525Y40282D02*
G01X49457Y40282D01*
G01X49593Y40305D02*
G01X49525Y40282D01*
G01X49616Y40328D02*
G01X49593Y40305D01*
G01X49639Y40373D02*
G01X49616Y40328D01*
G04 Draw part R6*
G04 draw part outline for part R6*
G01X48633Y29333D02*
G01X46664Y29333D01*
G01X46664Y29333D02*
G01X46664Y28466D01*
G01X46664Y28466D02*
G01X48633Y28466D01*
G01X48633Y28466D02*
G01X48633Y29333D01*
G04 draw reference designator for part R6*
G01X47648Y30204D02*
G01X47648Y29726D01*
G01X47444Y30204D02*
G01X47648Y30204D01*
G01X47444Y30204D02*
G01X47376Y30181D01*
G01X47376Y30181D02*
G01X47353Y30158D01*
G01X47353Y30158D02*
G01X47330Y30113D01*
G01X47330Y30113D02*
G01X47330Y30067D01*
G01X47330Y30067D02*
G01X47353Y30022D01*
G01X47353Y30022D02*
G01X47376Y29999D01*
G01X47376Y29999D02*
G01X47444Y29976D01*
G01X47648Y29976D02*
G01X47444Y29976D01*
G01X47489Y29976D02*
G01X47330Y29726D01*
G01X46898Y30181D02*
G01X46876Y30135D01*
G01X46967Y30204D02*
G01X46898Y30181D01*
G01X47012Y30204D02*
G01X46967Y30204D01*
G01X47012Y30204D02*
G01X47080Y30181D01*
G01X47080Y30181D02*
G01X47126Y30113D01*
G01X47126Y30113D02*
G01X47148Y29999D01*
G01X47148Y29999D02*
G01X47148Y29885D01*
G01X47148Y29885D02*
G01X47126Y29794D01*
G01X47126Y29794D02*
G01X47080Y29749D01*
G01X47080Y29749D02*
G01X47012Y29726D01*
G01X46989Y29726D02*
G01X47012Y29726D01*
G01X46921Y29749D02*
G01X46989Y29726D01*
G01X46876Y29794D02*
G01X46921Y29749D01*
G01X46853Y29863D02*
G01X46876Y29794D01*
G01X46853Y29885D02*
G01X46853Y29863D01*
G01X46876Y29954D02*
G01X46853Y29885D01*
G01X46921Y29999D02*
G01X46876Y29954D01*
G01X46989Y30022D02*
G01X46921Y29999D01*
G01X47012Y30022D02*
G01X46989Y30022D01*
G01X47012Y30022D02*
G01X47080Y29999D01*
G01X47080Y29999D02*
G01X47126Y29954D01*
G01X47126Y29954D02*
G01X47148Y29885D01*
G04 Draw part C8*
G04 draw part outline for part C8*
G01X44366Y39388D02*
G01X46335Y39388D01*
G01X46335Y39388D02*
G01X46335Y40411D01*
G01X46335Y40411D02*
G01X44366Y40411D01*
G01X44366Y40411D02*
G01X44366Y39388D01*
G04 draw reference designator for part C8*
G01X46918Y39790D02*
G01X46940Y39836D01*
G01X46872Y39745D02*
G01X46918Y39790D01*
G01X46827Y39722D02*
G01X46872Y39745D01*
G01X46736Y39722D02*
G01X46827Y39722D01*
G01X46736Y39722D02*
G01X46690Y39745D01*
G01X46690Y39745D02*
G01X46645Y39790D01*
G01X46645Y39790D02*
G01X46622Y39836D01*
G01X46622Y39836D02*
G01X46600Y39904D01*
G01X46600Y39904D02*
G01X46600Y40018D01*
G01X46600Y40018D02*
G01X46622Y40086D01*
G01X46622Y40086D02*
G01X46645Y40131D01*
G01X46645Y40131D02*
G01X46690Y40177D01*
G01X46690Y40177D02*
G01X46736Y40200D01*
G01X46827Y40200D02*
G01X46736Y40200D01*
G01X46872Y40177D02*
G01X46827Y40200D01*
G01X46918Y40131D02*
G01X46872Y40177D01*
G01X46940Y40086D02*
G01X46918Y40131D01*
G01X47236Y39722D02*
G01X47168Y39745D01*
G01X47168Y39745D02*
G01X47145Y39790D01*
G01X47145Y39790D02*
G01X47145Y39836D01*
G01X47145Y39836D02*
G01X47168Y39881D01*
G01X47168Y39881D02*
G01X47213Y39904D01*
G01X47213Y39904D02*
G01X47304Y39927D01*
G01X47304Y39927D02*
G01X47372Y39950D01*
G01X47372Y39950D02*
G01X47418Y39995D01*
G01X47418Y39995D02*
G01X47440Y40040D01*
G01X47440Y40040D02*
G01X47440Y40109D01*
G01X47440Y40109D02*
G01X47418Y40154D01*
G01X47418Y40154D02*
G01X47395Y40177D01*
G01X47395Y40177D02*
G01X47327Y40200D01*
G01X47236Y40200D02*
G01X47327Y40200D01*
G01X47168Y40177D02*
G01X47236Y40200D01*
G01X47145Y40154D02*
G01X47168Y40177D01*
G01X47122Y40109D02*
G01X47145Y40154D01*
G01X47122Y40040D02*
G01X47122Y40109D01*
G01X47145Y39995D02*
G01X47122Y40040D01*
G01X47190Y39950D02*
G01X47145Y39995D01*
G01X47259Y39927D02*
G01X47190Y39950D01*
G01X47350Y39904D02*
G01X47259Y39927D01*
G01X47395Y39881D02*
G01X47350Y39904D01*
G01X47418Y39836D02*
G01X47395Y39881D01*
G01X47418Y39790D02*
G01X47418Y39836D01*
G01X47395Y39745D02*
G01X47418Y39790D01*
G01X47327Y39722D02*
G01X47395Y39745D01*
G01X47236Y39722D02*
G01X47327Y39722D01*
G04 Draw part R7*
G04 draw part outline for part R7*
G01X32533Y23066D02*
G01X32533Y25035D01*
G01X32533Y25035D02*
G01X31666Y25035D01*
G01X31666Y25035D02*
G01X31666Y23066D01*
G01X31666Y23066D02*
G01X32533Y23066D01*
G04 draw reference designator for part R7*
G01X32500Y26077D02*
G01X32500Y25600D01*
G01X32295Y26077D02*
G01X32500Y26077D01*
G01X32295Y26077D02*
G01X32227Y26054D01*
G01X32227Y26054D02*
G01X32204Y26031D01*
G01X32204Y26031D02*
G01X32181Y25986D01*
G01X32181Y25986D02*
G01X32181Y25940D01*
G01X32181Y25940D02*
G01X32204Y25895D01*
G01X32204Y25895D02*
G01X32227Y25872D01*
G01X32227Y25872D02*
G01X32295Y25850D01*
G01X32500Y25850D02*
G01X32295Y25850D01*
G01X32340Y25850D02*
G01X32181Y25600D01*
G01X31681Y26077D02*
G01X31909Y25600D01*
G01X31681Y26077D02*
G01X32000Y26077D01*
G04 Draw part R8*
G04 draw part outline for part R8*
G01X18033Y23066D02*
G01X18033Y25035D01*
G01X18033Y25035D02*
G01X17166Y25035D01*
G01X17166Y25035D02*
G01X17166Y23066D01*
G01X17166Y23066D02*
G01X18033Y23066D01*
G04 draw reference designator for part R8*
G01X18100Y25977D02*
G01X18100Y25500D01*
G01X17895Y25977D02*
G01X18100Y25977D01*
G01X17895Y25977D02*
G01X17827Y25954D01*
G01X17827Y25954D02*
G01X17804Y25931D01*
G01X17804Y25931D02*
G01X17781Y25886D01*
G01X17781Y25886D02*
G01X17781Y25840D01*
G01X17781Y25840D02*
G01X17804Y25795D01*
G01X17804Y25795D02*
G01X17827Y25772D01*
G01X17827Y25772D02*
G01X17895Y25750D01*
G01X18100Y25750D02*
G01X17895Y25750D01*
G01X17940Y25750D02*
G01X17781Y25500D01*
G01X17486Y25977D02*
G01X17554Y25954D01*
G01X17554Y25954D02*
G01X17577Y25909D01*
G01X17577Y25909D02*
G01X17577Y25863D01*
G01X17577Y25863D02*
G01X17554Y25818D01*
G01X17554Y25818D02*
G01X17509Y25795D01*
G01X17509Y25795D02*
G01X17418Y25772D01*
G01X17418Y25772D02*
G01X17350Y25750D01*
G01X17350Y25750D02*
G01X17304Y25704D01*
G01X17304Y25704D02*
G01X17281Y25659D01*
G01X17281Y25659D02*
G01X17281Y25590D01*
G01X17281Y25590D02*
G01X17304Y25545D01*
G01X17304Y25545D02*
G01X17327Y25522D01*
G01X17327Y25522D02*
G01X17395Y25500D01*
G01X17486Y25500D02*
G01X17395Y25500D01*
G01X17554Y25522D02*
G01X17486Y25500D01*
G01X17577Y25545D02*
G01X17554Y25522D01*
G01X17600Y25590D02*
G01X17577Y25545D01*
G01X17600Y25659D02*
G01X17600Y25590D01*
G01X17577Y25704D02*
G01X17600Y25659D01*
G01X17531Y25750D02*
G01X17577Y25704D01*
G01X17463Y25772D02*
G01X17531Y25750D01*
G01X17372Y25795D02*
G01X17463Y25772D01*
G01X17327Y25818D02*
G01X17372Y25795D01*
G01X17304Y25863D02*
G01X17327Y25818D01*
G01X17304Y25909D02*
G01X17304Y25863D01*
G01X17327Y25954D02*
G01X17304Y25909D01*
G01X17395Y25977D02*
G01X17327Y25954D01*
G01X17486Y25977D02*
G01X17395Y25977D01*
G04 Draw part R9*
G04 draw part outline for part R9*
G01X6233Y23066D02*
G01X6233Y25035D01*
G01X6233Y25035D02*
G01X5366Y25035D01*
G01X5366Y25035D02*
G01X5366Y23066D01*
G01X5366Y23066D02*
G01X6233Y23066D01*
G04 draw reference designator for part R9*
G01X6200Y25977D02*
G01X6200Y25500D01*
G01X5995Y25977D02*
G01X6200Y25977D01*
G01X5995Y25977D02*
G01X5927Y25954D01*
G01X5927Y25954D02*
G01X5904Y25931D01*
G01X5904Y25931D02*
G01X5881Y25886D01*
G01X5881Y25886D02*
G01X5881Y25840D01*
G01X5881Y25840D02*
G01X5904Y25795D01*
G01X5904Y25795D02*
G01X5927Y25772D01*
G01X5927Y25772D02*
G01X5995Y25750D01*
G01X6200Y25750D02*
G01X5995Y25750D01*
G01X6040Y25750D02*
G01X5881Y25500D01*
G01X5404Y25818D02*
G01X5427Y25750D01*
G01X5427Y25750D02*
G01X5472Y25704D01*
G01X5472Y25704D02*
G01X5540Y25681D01*
G01X5563Y25681D02*
G01X5540Y25681D01*
G01X5631Y25704D02*
G01X5563Y25681D01*
G01X5677Y25750D02*
G01X5631Y25704D01*
G01X5700Y25818D02*
G01X5677Y25750D01*
G01X5700Y25840D02*
G01X5700Y25818D01*
G01X5677Y25909D02*
G01X5700Y25840D01*
G01X5631Y25954D02*
G01X5677Y25909D01*
G01X5563Y25977D02*
G01X5631Y25954D01*
G01X5540Y25977D02*
G01X5563Y25977D01*
G01X5540Y25977D02*
G01X5472Y25954D01*
G01X5472Y25954D02*
G01X5427Y25909D01*
G01X5427Y25909D02*
G01X5404Y25818D01*
G01X5404Y25818D02*
G01X5404Y25704D01*
G01X5404Y25704D02*
G01X5427Y25590D01*
G01X5427Y25590D02*
G01X5472Y25522D01*
G01X5472Y25522D02*
G01X5540Y25500D01*
G01X5586Y25500D02*
G01X5540Y25500D01*
G01X5654Y25522D02*
G01X5586Y25500D01*
G01X5677Y25568D02*
G01X5654Y25522D01*
G04 Draw part C9*
G04 draw part outline for part C9*
G01X19966Y26588D02*
G01X21935Y26588D01*
G01X21935Y26588D02*
G01X21935Y27611D01*
G01X21935Y27611D02*
G01X19966Y27611D01*
G01X19966Y27611D02*
G01X19966Y26588D01*
G04 draw reference designator for part C9*
G01X19981Y28209D02*
G01X19959Y28163D01*
G01X20027Y28254D02*
G01X19981Y28209D01*
G01X20072Y28277D02*
G01X20027Y28254D01*
G01X20163Y28277D02*
G01X20072Y28277D01*
G01X20163Y28277D02*
G01X20209Y28254D01*
G01X20209Y28254D02*
G01X20254Y28209D01*
G01X20254Y28209D02*
G01X20277Y28163D01*
G01X20277Y28163D02*
G01X20300Y28095D01*
G01X20300Y28095D02*
G01X20300Y27981D01*
G01X20300Y27981D02*
G01X20277Y27913D01*
G01X20277Y27913D02*
G01X20254Y27868D01*
G01X20254Y27868D02*
G01X20209Y27822D01*
G01X20209Y27822D02*
G01X20163Y27800D01*
G01X20072Y27800D02*
G01X20163Y27800D01*
G01X20027Y27822D02*
G01X20072Y27800D01*
G01X19981Y27868D02*
G01X20027Y27822D01*
G01X19959Y27913D02*
G01X19981Y27868D01*
G01X19481Y28118D02*
G01X19504Y28050D01*
G01X19504Y28050D02*
G01X19550Y28004D01*
G01X19550Y28004D02*
G01X19618Y27981D01*
G01X19640Y27981D02*
G01X19618Y27981D01*
G01X19709Y28004D02*
G01X19640Y27981D01*
G01X19754Y28050D02*
G01X19709Y28004D01*
G01X19777Y28118D02*
G01X19754Y28050D01*
G01X19777Y28140D02*
G01X19777Y28118D01*
G01X19754Y28209D02*
G01X19777Y28140D01*
G01X19709Y28254D02*
G01X19754Y28209D01*
G01X19640Y28277D02*
G01X19709Y28254D01*
G01X19618Y28277D02*
G01X19640Y28277D01*
G01X19618Y28277D02*
G01X19550Y28254D01*
G01X19550Y28254D02*
G01X19504Y28209D01*
G01X19504Y28209D02*
G01X19481Y28118D01*
G01X19481Y28118D02*
G01X19481Y28004D01*
G01X19481Y28004D02*
G01X19504Y27890D01*
G01X19504Y27890D02*
G01X19550Y27822D01*
G01X19550Y27822D02*
G01X19618Y27800D01*
G01X19663Y27800D02*
G01X19618Y27800D01*
G01X19731Y27822D02*
G01X19663Y27800D01*
G01X19754Y27868D02*
G01X19731Y27822D01*
G04 Draw part D3*
G04 Draw part D4*
G04 Draw part D5*
G04 Draw part D6*
G04 Draw part D7*
G04 Draw part D8*
G04 Draw part D9*
G04 Draw part D10*
G04 Draw part U7*
G04 draw part outline for part U7*
G01X35009Y25275D02*
G01X35009Y21224D01*
G01X35009Y21224D02*
G01X34222Y21224D01*
G01X34222Y21224D02*
G01X34222Y25275D01*
G01X34222Y25275D02*
G01X35009Y25275D01*
G01X34812Y25275D02*
G01X34812Y25078D01*
G01X34812Y25078D02*
G01X34418Y25078D01*
G01X34418Y25078D02*
G01X34418Y25275D01*
G01X34418Y25275D02*
G01X34812Y25275D01*
G04 draw reference designator for part U7*
G01X35100Y26177D02*
G01X35100Y25836D01*
G01X35100Y25836D02*
G01X35077Y25768D01*
G01X35077Y25768D02*
G01X35031Y25722D01*
G01X35031Y25722D02*
G01X34963Y25700D01*
G01X34918Y25700D02*
G01X34963Y25700D01*
G01X34850Y25722D02*
G01X34918Y25700D01*
G01X34804Y25768D02*
G01X34850Y25722D01*
G01X34781Y25836D02*
G01X34804Y25768D01*
G01X34781Y26177D02*
G01X34781Y25836D01*
G01X34281Y26177D02*
G01X34509Y25700D01*
G01X34281Y26177D02*
G01X34600Y26177D01*
G04 Draw part U8*
G04 draw part outline for part U8*
G01X20909Y25275D02*
G01X20909Y21224D01*
G01X20909Y21224D02*
G01X20122Y21224D01*
G01X20122Y21224D02*
G01X20122Y25275D01*
G01X20122Y25275D02*
G01X20909Y25275D01*
G01X20712Y25275D02*
G01X20712Y25078D01*
G01X20712Y25078D02*
G01X20318Y25078D01*
G01X20318Y25078D02*
G01X20318Y25275D01*
G01X20318Y25275D02*
G01X20712Y25275D01*
G04 draw reference designator for part U8*
G01X20900Y26177D02*
G01X20900Y25836D01*
G01X20900Y25836D02*
G01X20877Y25768D01*
G01X20877Y25768D02*
G01X20831Y25722D01*
G01X20831Y25722D02*
G01X20763Y25700D01*
G01X20718Y25700D02*
G01X20763Y25700D01*
G01X20650Y25722D02*
G01X20718Y25700D01*
G01X20604Y25768D02*
G01X20650Y25722D01*
G01X20581Y25836D02*
G01X20604Y25768D01*
G01X20581Y26177D02*
G01X20581Y25836D01*
G01X20286Y26177D02*
G01X20354Y26154D01*
G01X20354Y26154D02*
G01X20377Y26109D01*
G01X20377Y26109D02*
G01X20377Y26063D01*
G01X20377Y26063D02*
G01X20354Y26018D01*
G01X20354Y26018D02*
G01X20309Y25995D01*
G01X20309Y25995D02*
G01X20218Y25972D01*
G01X20218Y25972D02*
G01X20150Y25950D01*
G01X20150Y25950D02*
G01X20104Y25904D01*
G01X20104Y25904D02*
G01X20081Y25859D01*
G01X20081Y25859D02*
G01X20081Y25790D01*
G01X20081Y25790D02*
G01X20104Y25745D01*
G01X20104Y25745D02*
G01X20127Y25722D01*
G01X20127Y25722D02*
G01X20195Y25700D01*
G01X20286Y25700D02*
G01X20195Y25700D01*
G01X20354Y25722D02*
G01X20286Y25700D01*
G01X20377Y25745D02*
G01X20354Y25722D01*
G01X20400Y25790D02*
G01X20377Y25745D01*
G01X20400Y25859D02*
G01X20400Y25790D01*
G01X20377Y25904D02*
G01X20400Y25859D01*
G01X20331Y25950D02*
G01X20377Y25904D01*
G01X20263Y25972D02*
G01X20331Y25950D01*
G01X20172Y25995D02*
G01X20263Y25972D01*
G01X20127Y26018D02*
G01X20172Y25995D01*
G01X20104Y26063D02*
G01X20127Y26018D01*
G01X20104Y26109D02*
G01X20104Y26063D01*
G01X20127Y26154D02*
G01X20104Y26109D01*
G01X20195Y26177D02*
G01X20127Y26154D01*
G01X20286Y26177D02*
G01X20195Y26177D01*
G04 Draw part U9*
G04 draw part outline for part U9*
G01X8909Y25275D02*
G01X8909Y21224D01*
G01X8909Y21224D02*
G01X8122Y21224D01*
G01X8122Y21224D02*
G01X8122Y25275D01*
G01X8122Y25275D02*
G01X8909Y25275D01*
G01X8712Y25275D02*
G01X8712Y25078D01*
G01X8712Y25078D02*
G01X8318Y25078D01*
G01X8318Y25078D02*
G01X8318Y25275D01*
G01X8318Y25275D02*
G01X8712Y25275D01*
G04 draw reference designator for part U9*
G01X8900Y26077D02*
G01X8900Y25736D01*
G01X8900Y25736D02*
G01X8877Y25668D01*
G01X8877Y25668D02*
G01X8831Y25622D01*
G01X8831Y25622D02*
G01X8763Y25600D01*
G01X8718Y25600D02*
G01X8763Y25600D01*
G01X8650Y25622D02*
G01X8718Y25600D01*
G01X8604Y25668D02*
G01X8650Y25622D01*
G01X8581Y25736D02*
G01X8604Y25668D01*
G01X8581Y26077D02*
G01X8581Y25736D01*
G01X8104Y25918D02*
G01X8127Y25850D01*
G01X8127Y25850D02*
G01X8172Y25804D01*
G01X8172Y25804D02*
G01X8240Y25781D01*
G01X8263Y25781D02*
G01X8240Y25781D01*
G01X8331Y25804D02*
G01X8263Y25781D01*
G01X8377Y25850D02*
G01X8331Y25804D01*
G01X8400Y25918D02*
G01X8377Y25850D01*
G01X8400Y25940D02*
G01X8400Y25918D01*
G01X8377Y26009D02*
G01X8400Y25940D01*
G01X8331Y26054D02*
G01X8377Y26009D01*
G01X8263Y26077D02*
G01X8331Y26054D01*
G01X8240Y26077D02*
G01X8263Y26077D01*
G01X8240Y26077D02*
G01X8172Y26054D01*
G01X8172Y26054D02*
G01X8127Y26009D01*
G01X8127Y26009D02*
G01X8104Y25918D01*
G01X8104Y25918D02*
G01X8104Y25804D01*
G01X8104Y25804D02*
G01X8127Y25690D01*
G01X8127Y25690D02*
G01X8172Y25622D01*
G01X8172Y25622D02*
G01X8240Y25600D01*
G01X8286Y25600D02*
G01X8240Y25600D01*
G01X8354Y25622D02*
G01X8286Y25600D01*
G01X8377Y25668D02*
G01X8354Y25622D01*
G04 Draw part D1*
G04 draw part outline for part D1*
G01X6314Y37200D02*
G01X6314Y35148D01*
G01X6314Y35148D02*
G01X4045Y35148D01*
G01X4045Y35148D02*
G01X4045Y37200D01*
G01X4045Y37200D02*
G01X4892Y37200D01*
G01X4892Y37200D02*
G01X4892Y36687D01*
G01X4892Y36687D02*
G01X5466Y36687D01*
G01X5466Y36687D02*
G01X5466Y37200D01*
G01X5466Y37200D02*
G01X6314Y37200D01*
G04 draw reference designator for part D1*
G54D10*
G01X5500Y37977D02*
G01X5500Y37500D01*
G01X5340Y37977D02*
G01X5500Y37977D01*
G01X5340Y37977D02*
G01X5272Y37954D01*
G01X5272Y37954D02*
G01X5227Y37909D01*
G01X5227Y37909D02*
G01X5204Y37863D01*
G01X5204Y37863D02*
G01X5181Y37795D01*
G01X5181Y37795D02*
G01X5181Y37681D01*
G01X5181Y37681D02*
G01X5204Y37613D01*
G01X5204Y37613D02*
G01X5227Y37568D01*
G01X5227Y37568D02*
G01X5272Y37522D01*
G01X5272Y37522D02*
G01X5340Y37500D01*
G01X5500Y37500D02*
G01X5340Y37500D01*
G01X4954Y37909D02*
G01X5000Y37886D01*
G01X4886Y37977D02*
G01X4954Y37909D01*
G01X4886Y37977D02*
G01X4886Y37500D01*
G04 Draw part J1*
G04 draw part outline for part J1*
G54D12*
G01X1074Y33539D02*
G01X1074Y35539D01*
G01X1074Y35539D02*
G01X2074Y35539D01*
G01X2074Y35539D02*
G01X2074Y33539D01*
G01X2074Y33539D02*
G01X1074Y33539D01*
G04 draw reference designator for part J1*
G54D11*
G01X1662Y33193D02*
G01X1662Y32830D01*
G01X1662Y32830D02*
G01X1685Y32761D01*
G01X1685Y32761D02*
G01X1707Y32739D01*
G01X1707Y32739D02*
G01X1753Y32716D01*
G01X1798Y32716D02*
G01X1753Y32716D01*
G01X1844Y32739D02*
G01X1798Y32716D01*
G01X1867Y32761D02*
G01X1844Y32739D01*
G01X1889Y32830D02*
G01X1867Y32761D01*
G01X1889Y32875D02*
G01X1889Y32830D01*
G01X1435Y33125D02*
G01X1480Y33102D01*
G01X1367Y33193D02*
G01X1435Y33125D01*
G01X1367Y33193D02*
G01X1367Y32716D01*
G04 Draw part J2*
G04 draw part outline for part J2*
G54D12*
G01X1074Y37082D02*
G01X1074Y39082D01*
G01X1074Y39082D02*
G01X2074Y39082D01*
G01X2074Y39082D02*
G01X2074Y37082D01*
G01X2074Y37082D02*
G01X1074Y37082D01*
G04 draw reference designator for part J2*
G54D11*
G01X1780Y36776D02*
G01X1780Y36412D01*
G01X1780Y36412D02*
G01X1803Y36344D01*
G01X1803Y36344D02*
G01X1826Y36321D01*
G01X1826Y36321D02*
G01X1871Y36299D01*
G01X1916Y36299D02*
G01X1871Y36299D01*
G01X1962Y36321D02*
G01X1916Y36299D01*
G01X1985Y36344D02*
G01X1962Y36321D01*
G01X2007Y36412D02*
G01X1985Y36344D01*
G01X2007Y36458D02*
G01X2007Y36412D01*
G01X1576Y36685D02*
G01X1576Y36662D01*
G01X1553Y36731D02*
G01X1576Y36685D01*
G01X1530Y36753D02*
G01X1553Y36731D01*
G01X1485Y36776D02*
G01X1530Y36753D01*
G01X1394Y36776D02*
G01X1485Y36776D01*
G01X1394Y36776D02*
G01X1348Y36753D01*
G01X1348Y36753D02*
G01X1326Y36731D01*
G01X1326Y36731D02*
G01X1303Y36685D01*
G01X1303Y36685D02*
G01X1303Y36640D01*
G01X1303Y36640D02*
G01X1326Y36594D01*
G01X1326Y36594D02*
G01X1371Y36526D01*
G01X1371Y36526D02*
G01X1598Y36299D01*
G01X1280Y36299D02*
G01X1598Y36299D01*
G04 Draw part J5*
G04 draw part outline for part J5*
G01X58591Y31466D02*
G01X58591Y34340D01*
G01X58591Y34340D02*
G01X61583Y34340D01*
G01X61583Y34340D02*
G01X61583Y31466D01*
G01X61583Y31466D02*
G01X60284Y31466D01*
G01X60284Y31466D02*
G01X60284Y31663D01*
G01X60284Y31663D02*
G01X60008Y31663D01*
G01X60008Y31663D02*
G01X60008Y31585D01*
G01X60008Y31585D02*
G01X60008Y31466D01*
G01X60008Y31466D02*
G01X58591Y31466D01*
G54D12*
G01X59312Y31158D02*
G01X59266Y31112D01*
G01X59266Y31112D02*
G01X59221Y31158D01*
G01X59266Y31203D02*
G01X59221Y31158D01*
G01X59312Y31158D02*
G01X59266Y31203D01*
G04 draw reference designator for part J5*
G54D11*
G01X61627Y30827D02*
G01X61263Y30827D01*
G01X61263Y30827D02*
G01X61195Y30804D01*
G01X61195Y30804D02*
G01X61172Y30781D01*
G01X61172Y30781D02*
G01X61150Y30736D01*
G01X61150Y30690D02*
G01X61150Y30736D01*
G01X61172Y30645D02*
G01X61150Y30690D01*
G01X61195Y30622D02*
G01X61172Y30645D01*
G01X61263Y30600D02*
G01X61195Y30622D01*
G01X61309Y30600D02*
G01X61263Y30600D01*
G01X61627Y31054D02*
G01X61627Y31281D01*
G01X61627Y31054D02*
G01X61422Y31031D01*
G01X61445Y31054D02*
G01X61422Y31031D01*
G01X61468Y31122D02*
G01X61445Y31054D01*
G01X61468Y31190D02*
G01X61468Y31122D01*
G01X61468Y31190D02*
G01X61445Y31259D01*
G01X61445Y31259D02*
G01X61400Y31304D01*
G01X61400Y31304D02*
G01X61331Y31327D01*
G01X61331Y31327D02*
G01X61286Y31327D01*
G01X61286Y31327D02*
G01X61218Y31304D01*
G01X61218Y31304D02*
G01X61172Y31259D01*
G01X61172Y31259D02*
G01X61150Y31190D01*
G01X61150Y31122D02*
G01X61150Y31190D01*
G01X61172Y31054D02*
G01X61150Y31122D01*
G01X61195Y31031D02*
G01X61172Y31054D01*
G01X61240Y31009D02*
G01X61195Y31031D01*
G04 Draw part J3*
G04 draw part outline for part J3*
G54D12*
G01X55263Y38169D02*
G01X55263Y35169D01*
G01X55263Y35169D02*
G01X54263Y35169D01*
G01X54263Y35169D02*
G01X54263Y38169D01*
G01X54263Y38169D02*
G01X55263Y38169D01*
G04 draw reference designator for part J3*
G54D11*
G01X54536Y39146D02*
G01X54536Y38782D01*
G01X54536Y38782D02*
G01X54559Y38714D01*
G01X54559Y38714D02*
G01X54581Y38692D01*
G01X54581Y38692D02*
G01X54627Y38669D01*
G01X54672Y38669D02*
G01X54627Y38669D01*
G01X54718Y38692D02*
G01X54672Y38669D01*
G01X54741Y38714D02*
G01X54718Y38692D01*
G01X54763Y38782D02*
G01X54741Y38714D01*
G01X54763Y38828D02*
G01X54763Y38782D01*
G01X54059Y39146D02*
G01X54309Y39146D01*
G01X54059Y39146D02*
G01X54195Y38964D01*
G01X54127Y38964D02*
G01X54195Y38964D01*
G01X54127Y38964D02*
G01X54081Y38942D01*
G01X54081Y38942D02*
G01X54059Y38919D01*
G01X54059Y38919D02*
G01X54036Y38851D01*
G01X54036Y38851D02*
G01X54036Y38805D01*
G01X54036Y38805D02*
G01X54059Y38737D01*
G01X54059Y38737D02*
G01X54104Y38692D01*
G01X54104Y38692D02*
G01X54172Y38669D01*
G01X54241Y38669D02*
G01X54172Y38669D01*
G01X54309Y38692D02*
G01X54241Y38669D01*
G01X54331Y38714D02*
G01X54309Y38692D01*
G01X54354Y38760D02*
G01X54331Y38714D01*
G04 Draw part U2*
G04 draw part outline for part U2*
G01X51693Y41493D02*
G01X51693Y30470D01*
G01X51693Y30470D02*
G01X42244Y30470D01*
G01X42244Y30470D02*
G01X42244Y41493D01*
G01X42244Y41493D02*
G01X45095Y44140D01*
G01X45095Y44140D02*
G01X48845Y44140D01*
G01X48845Y44140D02*
G01X51693Y41493D01*
G54D12*
G01X48845Y44140D02*
G01X48845Y44790D01*
G01X48845Y44790D02*
G01X45095Y44790D01*
G01X45095Y44790D02*
G01X45095Y44140D01*
G01X45095Y44140D02*
G01X48845Y44140D01*
G04 draw reference designator for part U2*
G54D10*
G01X51400Y43377D02*
G01X51400Y43036D01*
G01X51400Y43036D02*
G01X51377Y42968D01*
G01X51377Y42968D02*
G01X51331Y42922D01*
G01X51331Y42922D02*
G01X51263Y42900D01*
G01X51218Y42900D02*
G01X51263Y42900D01*
G01X51150Y42922D02*
G01X51218Y42900D01*
G01X51104Y42968D02*
G01X51150Y42922D01*
G01X51081Y43036D02*
G01X51104Y42968D01*
G01X51081Y43377D02*
G01X51081Y43036D01*
G01X50877Y43286D02*
G01X50877Y43263D01*
G01X50854Y43331D02*
G01X50877Y43286D01*
G01X50831Y43354D02*
G01X50854Y43331D01*
G01X50786Y43377D02*
G01X50831Y43354D01*
G01X50695Y43377D02*
G01X50786Y43377D01*
G01X50695Y43377D02*
G01X50650Y43354D01*
G01X50650Y43354D02*
G01X50627Y43331D01*
G01X50627Y43331D02*
G01X50604Y43286D01*
G01X50604Y43286D02*
G01X50604Y43240D01*
G01X50604Y43240D02*
G01X50627Y43195D01*
G01X50627Y43195D02*
G01X50672Y43127D01*
G01X50672Y43127D02*
G01X50900Y42900D01*
G01X50581Y42900D02*
G01X50900Y42900D01*
G04 Draw part X1*
G04 draw part outline for part X1*
G54D12*
G01X46809Y17309D02*
G01X46810Y17275D01*
G01X46815Y17241D01*
G01X46822Y17207D01*
G01X46833Y17174D01*
G01X46846Y17143D01*
G01X46862Y17112D01*
G01X46880Y17083D01*
G01X46901Y17056D01*
G01X46924Y17031D01*
G01X46950Y17007D01*
G01X46977Y16986D01*
G01X47006Y16968D01*
G01X47036Y16952D01*
G01X47068Y16939D01*
G01X47101Y16929D01*
G01X47134Y16921D01*
G01X47168Y16917D01*
G01X47203Y16915D01*
G01X47203Y16915D02*
G01X51140Y16915D01*
G01X51140Y16915D02*
G01X51174Y16917D01*
G01X51208Y16921D01*
G01X51242Y16929D01*
G01X51274Y16939D01*
G01X51306Y16952D01*
G01X51337Y16968D01*
G01X51365Y16986D01*
G01X51393Y17007D01*
G01X51418Y17031D01*
G01X51441Y17056D01*
G01X51462Y17083D01*
G01X51481Y17112D01*
G01X51496Y17143D01*
G01X51510Y17174D01*
G01X51520Y17207D01*
G01X51527Y17241D01*
G01X51532Y17275D01*
G01X51533Y17309D01*
G01X46809Y18490D02*
G01X46810Y18524D01*
G01X46815Y18558D01*
G01X46822Y18592D01*
G01X46833Y18625D01*
G01X46846Y18656D01*
G01X46862Y18687D01*
G01X46880Y18716D01*
G01X46901Y18743D01*
G01X46924Y18768D01*
G01X46950Y18792D01*
G01X46977Y18813D01*
G01X47006Y18831D01*
G01X47036Y18847D01*
G01X47068Y18860D01*
G01X47101Y18870D01*
G01X47134Y18878D01*
G01X47168Y18882D01*
G01X47203Y18884D01*
G01X47203Y18884D02*
G01X51140Y18884D01*
G01X51140Y18884D02*
G01X51174Y18882D01*
G01X51208Y18878D01*
G01X51242Y18870D01*
G01X51274Y18860D01*
G01X51306Y18847D01*
G01X51337Y18831D01*
G01X51365Y18813D01*
G01X51393Y18792D01*
G01X51418Y18768D01*
G01X51441Y18743D01*
G01X51462Y18716D01*
G01X51481Y18687D01*
G01X51496Y18656D01*
G01X51510Y18625D01*
G01X51520Y18592D01*
G01X51527Y18558D01*
G01X51532Y18524D01*
G01X51533Y18490D01*
G04 draw reference designator for part X1*
G01X50600Y19224D02*
G01X50850Y19600D01*
G01X50850Y19224D02*
G01X50600Y19600D01*
G01X51029Y19277D02*
G01X50993Y19295D01*
G01X51083Y19224D02*
G01X51029Y19277D01*
G01X51083Y19224D02*
G01X51083Y19600D01*
G04 Draw part U6*
G04 Draw part C1*
G04 draw part outline for part C1*
G54D11*
G01X10984Y34330D02*
G01X14291Y34330D01*
G01X14291Y34330D02*
G01X14291Y37637D01*
G01X14291Y37637D02*
G01X10984Y37637D01*
G01X10984Y37637D02*
G01X10984Y34330D01*
G54D12*
G01X12613Y38079D02*
G01X12613Y38897D01*
G01X13022Y38488D02*
G01X12204Y38488D01*
G04 draw reference designator for part C1*
G54D10*
G01X12881Y33809D02*
G01X12859Y33763D01*
G01X12927Y33854D02*
G01X12881Y33809D01*
G01X12972Y33877D02*
G01X12927Y33854D01*
G01X13063Y33877D02*
G01X12972Y33877D01*
G01X13063Y33877D02*
G01X13109Y33854D01*
G01X13109Y33854D02*
G01X13154Y33809D01*
G01X13154Y33809D02*
G01X13177Y33763D01*
G01X13177Y33763D02*
G01X13200Y33695D01*
G01X13200Y33695D02*
G01X13200Y33581D01*
G01X13200Y33581D02*
G01X13177Y33513D01*
G01X13177Y33513D02*
G01X13154Y33468D01*
G01X13154Y33468D02*
G01X13109Y33422D01*
G01X13109Y33422D02*
G01X13063Y33400D01*
G01X12972Y33400D02*
G01X13063Y33400D01*
G01X12927Y33422D02*
G01X12972Y33400D01*
G01X12881Y33468D02*
G01X12927Y33422D01*
G01X12859Y33513D02*
G01X12881Y33468D01*
G01X12631Y33809D02*
G01X12677Y33786D01*
G01X12563Y33877D02*
G01X12631Y33809D01*
G01X12563Y33877D02*
G01X12563Y33400D01*
G04 Draw part Q1*
G04 draw part outline for part Q1*
G54D11*
G01X44700Y28560D02*
G01X46100Y28560D01*
G01X46100Y28560D02*
G01X46100Y30240D01*
G01X46100Y30240D02*
G01X44700Y30240D01*
G01X44700Y30240D02*
G01X44700Y28560D01*
G04 draw reference designator for part Q1*
G01X45536Y27682D02*
G01X45490Y27705D01*
G01X45490Y27705D02*
G01X45445Y27750D01*
G01X45445Y27750D02*
G01X45422Y27796D01*
G01X45422Y27796D02*
G01X45400Y27864D01*
G01X45400Y27864D02*
G01X45400Y27978D01*
G01X45400Y27978D02*
G01X45422Y28046D01*
G01X45422Y28046D02*
G01X45445Y28091D01*
G01X45445Y28091D02*
G01X45490Y28137D01*
G01X45490Y28137D02*
G01X45536Y28160D01*
G01X45627Y28160D02*
G01X45536Y28160D01*
G01X45672Y28137D02*
G01X45627Y28160D01*
G01X45718Y28091D02*
G01X45672Y28137D01*
G01X45740Y28046D02*
G01X45718Y28091D01*
G01X45763Y27978D02*
G01X45740Y28046D01*
G01X45763Y27864D02*
G01X45763Y27978D01*
G01X45740Y27796D02*
G01X45763Y27864D01*
G01X45718Y27750D02*
G01X45740Y27796D01*
G01X45672Y27705D02*
G01X45718Y27750D01*
G01X45627Y27682D02*
G01X45672Y27705D01*
G01X45536Y27682D02*
G01X45627Y27682D01*
G01X45604Y28069D02*
G01X45740Y28205D01*
G01X45990Y27750D02*
G01X45945Y27773D01*
G01X46059Y27682D02*
G01X45990Y27750D01*
G01X46059Y27682D02*
G01X46059Y28160D01*
G04 Draw part V1*
G04 draw part outline for part V1*
G01X9251Y35546D02*
G01X9251Y37515D01*
G01X9251Y37515D02*
G01X8228Y37515D01*
G01X8228Y37515D02*
G01X8228Y35546D01*
G01X8228Y35546D02*
G01X9251Y35546D01*
G04 draw reference designator for part V1*
G01X9055Y38469D02*
G01X8873Y37992D01*
G01X8691Y38469D02*
G01X8873Y37992D01*
G01X8464Y38401D02*
G01X8509Y38378D01*
G01X8396Y38469D02*
G01X8464Y38401D01*
G01X8396Y38469D02*
G01X8396Y37992D01*
G04 Draw part S9*
G04 Draw part R10*
G04 Draw part C10*
G04 draw part outline for part C10*
G01X44366Y37688D02*
G01X46335Y37688D01*
G01X46335Y37688D02*
G01X46335Y38711D01*
G01X46335Y38711D02*
G01X44366Y38711D01*
G01X44366Y38711D02*
G01X44366Y37688D01*
G04 draw reference designator for part C10*
G01X46918Y38090D02*
G01X46940Y38136D01*
G01X46872Y38045D02*
G01X46918Y38090D01*
G01X46827Y38022D02*
G01X46872Y38045D01*
G01X46736Y38022D02*
G01X46827Y38022D01*
G01X46736Y38022D02*
G01X46690Y38045D01*
G01X46690Y38045D02*
G01X46645Y38090D01*
G01X46645Y38090D02*
G01X46622Y38136D01*
G01X46622Y38136D02*
G01X46600Y38204D01*
G01X46600Y38204D02*
G01X46600Y38318D01*
G01X46600Y38318D02*
G01X46622Y38386D01*
G01X46622Y38386D02*
G01X46645Y38431D01*
G01X46645Y38431D02*
G01X46690Y38477D01*
G01X46690Y38477D02*
G01X46736Y38500D01*
G01X46827Y38500D02*
G01X46736Y38500D01*
G01X46872Y38477D02*
G01X46827Y38500D01*
G01X46918Y38431D02*
G01X46872Y38477D01*
G01X46940Y38386D02*
G01X46918Y38431D01*
G01X47168Y38090D02*
G01X47122Y38113D01*
G01X47236Y38022D02*
G01X47168Y38090D01*
G01X47236Y38022D02*
G01X47236Y38500D01*
G01X47554Y38022D02*
G01X47486Y38045D01*
G01X47486Y38045D02*
G01X47440Y38113D01*
G01X47440Y38113D02*
G01X47418Y38227D01*
G01X47418Y38227D02*
G01X47418Y38295D01*
G01X47418Y38295D02*
G01X47440Y38409D01*
G01X47440Y38409D02*
G01X47486Y38477D01*
G01X47486Y38477D02*
G01X47554Y38500D01*
G01X47600Y38500D02*
G01X47554Y38500D01*
G01X47668Y38477D02*
G01X47600Y38500D01*
G01X47713Y38409D02*
G01X47668Y38477D01*
G01X47736Y38295D02*
G01X47713Y38409D01*
G01X47736Y38227D02*
G01X47736Y38295D01*
G01X47713Y38113D02*
G01X47736Y38227D01*
G01X47668Y38045D02*
G01X47713Y38113D01*
G01X47600Y38022D02*
G01X47668Y38045D01*
G01X47554Y38022D02*
G01X47600Y38022D01*

G04 Draw traces*

G04 Draw Text*
G54D10*
G01X831Y35240D02*
G01X445Y35240D01*
G01X445Y35240D02*
G01X377Y35263D01*
G01X377Y35263D02*
G01X354Y35308D01*
G01X354Y35308D02*
G01X354Y35354D01*
G01X672Y35172D02*
G01X672Y35331D01*
G01X831Y34877D02*
G01X445Y34877D01*
G01X445Y34877D02*
G01X377Y34899D01*
G01X377Y34899D02*
G01X354Y34945D01*
G01X354Y34945D02*
G01X354Y34990D01*
G01X672Y34808D02*
G01X672Y34967D01*
G01X672Y34627D02*
G01X354Y34627D01*
G01X604Y34627D02*
G01X649Y34581D01*
G01X649Y34581D02*
G01X672Y34536D01*
G01X672Y34536D02*
G01X672Y34467D01*
G01X672Y34467D02*
G01X649Y34422D01*
G01X649Y34422D02*
G01X604Y34377D01*
G01X604Y34377D02*
G01X536Y34354D01*
G01X536Y34354D02*
G01X490Y34354D01*
G01X490Y34354D02*
G01X422Y34377D01*
G01X422Y34377D02*
G01X377Y34422D01*
G01X377Y34422D02*
G01X354Y34467D01*
G01X354Y34467D02*
G01X354Y34536D01*
G01X354Y34536D02*
G01X377Y34581D01*
G01X377Y34581D02*
G01X422Y34627D01*
G01X831Y33854D02*
G01X354Y33854D01*
G01X831Y33854D02*
G01X831Y34058D01*
G01X831Y34058D02*
G01X808Y34127D01*
G01X808Y34127D02*
G01X786Y34149D01*
G01X786Y34149D02*
G01X740Y34172D01*
G01X740Y34172D02*
G01X695Y34172D01*
G01X695Y34172D02*
G01X649Y34149D01*
G01X649Y34149D02*
G01X627Y34127D01*
G01X627Y34127D02*
G01X604Y34058D01*
G01X604Y33854D02*
G01X604Y34058D01*
G01X604Y34058D02*
G01X581Y34127D01*
G01X581Y34127D02*
G01X558Y34149D01*
G01X558Y34149D02*
G01X513Y34172D01*
G01X513Y34172D02*
G01X445Y34172D01*
G01X445Y34172D02*
G01X399Y34149D01*
G01X399Y34149D02*
G01X377Y34127D01*
G01X377Y34127D02*
G01X354Y34058D01*
G01X354Y34058D02*
G01X354Y33854D01*
G01X831Y39348D02*
G01X354Y39462D01*
G01X831Y39575D02*
G01X354Y39462D01*
G01X831Y39575D02*
G01X354Y39689D01*
G01X831Y39803D02*
G01X354Y39689D01*
G01X763Y39166D02*
G01X808Y39121D01*
G01X808Y39121D02*
G01X831Y39053D01*
G01X831Y39053D02*
G01X831Y38962D01*
G01X831Y38962D02*
G01X808Y38894D01*
G01X808Y38894D02*
G01X763Y38848D01*
G01X763Y38848D02*
G01X717Y38848D01*
G01X717Y38848D02*
G01X672Y38871D01*
G01X672Y38871D02*
G01X649Y38894D01*
G01X649Y38894D02*
G01X627Y38939D01*
G01X627Y38939D02*
G01X581Y39075D01*
G01X581Y39075D02*
G01X558Y39121D01*
G01X558Y39121D02*
G01X536Y39144D01*
G01X536Y39144D02*
G01X490Y39166D01*
G01X490Y39166D02*
G01X422Y39166D01*
G01X422Y39166D02*
G01X377Y39121D01*
G01X377Y39121D02*
G01X354Y39053D01*
G01X354Y39053D02*
G01X354Y38962D01*
G01X354Y38962D02*
G01X377Y38894D01*
G01X377Y38894D02*
G01X422Y38848D01*
G01X672Y38121D02*
G01X354Y38121D01*
G01X536Y38121D02*
G01X604Y38144D01*
G01X604Y38144D02*
G01X649Y38189D01*
G01X649Y38189D02*
G01X672Y38234D01*
G01X672Y38234D02*
G01X672Y38303D01*
G01X536Y37666D02*
G01X536Y37939D01*
G01X536Y37939D02*
G01X581Y37939D01*
G01X581Y37939D02*
G01X627Y37916D01*
G01X627Y37916D02*
G01X649Y37894D01*
G01X649Y37894D02*
G01X672Y37848D01*
G01X672Y37848D02*
G01X672Y37780D01*
G01X672Y37780D02*
G01X649Y37734D01*
G01X649Y37734D02*
G01X604Y37689D01*
G01X604Y37689D02*
G01X536Y37666D01*
G01X536Y37666D02*
G01X490Y37666D01*
G01X490Y37666D02*
G01X422Y37689D01*
G01X422Y37689D02*
G01X377Y37734D01*
G01X377Y37734D02*
G01X354Y37780D01*
G01X354Y37780D02*
G01X354Y37848D01*
G01X354Y37848D02*
G01X377Y37894D01*
G01X377Y37894D02*
G01X422Y37939D01*
G01X672Y37121D02*
G01X354Y37212D01*
G01X672Y37303D02*
G01X354Y37212D01*
G01X672Y37303D02*
G01X354Y37394D01*
G01X672Y37484D02*
G01X354Y37394D01*
G01X672Y36757D02*
G01X649Y36712D01*
G01X649Y36712D02*
G01X604Y36666D01*
G01X604Y36666D02*
G01X536Y36644D01*
G01X536Y36644D02*
G01X490Y36644D01*
G01X490Y36644D02*
G01X422Y36666D01*
G01X422Y36666D02*
G01X377Y36712D01*
G01X377Y36712D02*
G01X354Y36757D01*
G01X354Y36757D02*
G01X354Y36825D01*
G01X354Y36825D02*
G01X377Y36871D01*
G01X377Y36871D02*
G01X422Y36916D01*
G01X422Y36916D02*
G01X490Y36939D01*
G01X490Y36939D02*
G01X536Y36939D01*
G01X536Y36939D02*
G01X604Y36916D01*
G01X604Y36916D02*
G01X649Y36871D01*
G01X649Y36871D02*
G01X672Y36825D01*
G01X672Y36825D02*
G01X672Y36757D01*
G01X831Y36144D02*
G01X354Y36144D01*
G01X831Y36144D02*
G01X831Y36348D01*
G01X831Y36348D02*
G01X808Y36416D01*
G01X808Y36416D02*
G01X786Y36439D01*
G01X786Y36439D02*
G01X740Y36462D01*
G01X740Y36462D02*
G01X672Y36462D01*
G01X672Y36462D02*
G01X627Y36439D01*
G01X627Y36439D02*
G01X604Y36416D01*
G01X604Y36416D02*
G01X581Y36348D01*
G01X581Y36348D02*
G01X581Y36144D01*
G01X42313Y26786D02*
G01X42268Y26809D01*
G01X42268Y26809D02*
G01X42200Y26877D01*
G01X42200Y26877D02*
G01X42200Y26400D01*
G01X46145Y26877D02*
G01X46372Y26877D01*
G01X46372Y26877D02*
G01X46395Y26672D01*
G01X46395Y26672D02*
G01X46372Y26695D01*
G01X46372Y26695D02*
G01X46304Y26718D01*
G01X46304Y26718D02*
G01X46236Y26718D01*
G01X46236Y26718D02*
G01X46168Y26695D01*
G01X46168Y26695D02*
G01X46122Y26650D01*
G01X46122Y26650D02*
G01X46100Y26581D01*
G01X46100Y26581D02*
G01X46100Y26536D01*
G01X46100Y26536D02*
G01X46122Y26468D01*
G01X46122Y26468D02*
G01X46168Y26422D01*
G01X46168Y26422D02*
G01X46236Y26400D01*
G01X46236Y26400D02*
G01X46304Y26400D01*
G01X46304Y26400D02*
G01X46372Y26422D01*
G01X46372Y26422D02*
G01X46395Y26445D01*
G01X46395Y26445D02*
G01X46418Y26490D01*
G01X51181Y26877D02*
G01X51250Y26854D01*
G01X51250Y26854D02*
G01X51295Y26786D01*
G01X51295Y26786D02*
G01X51318Y26672D01*
G01X51318Y26672D02*
G01X51318Y26604D01*
G01X51318Y26604D02*
G01X51295Y26490D01*
G01X51295Y26490D02*
G01X51250Y26422D01*
G01X51250Y26422D02*
G01X51181Y26400D01*
G01X51181Y26400D02*
G01X51136Y26400D01*
G01X51136Y26400D02*
G01X51068Y26422D01*
G01X51068Y26422D02*
G01X51022Y26490D01*
G01X51022Y26490D02*
G01X51000Y26604D01*
G01X51000Y26604D02*
G01X51000Y26672D01*
G01X51000Y26672D02*
G01X51022Y26786D01*
G01X51022Y26786D02*
G01X51068Y26854D01*
G01X51068Y26854D02*
G01X51136Y26877D01*
G01X51136Y26877D02*
G01X51181Y26877D01*
G01X51613Y26786D02*
G01X51568Y26809D01*
G01X51568Y26809D02*
G01X51500Y26877D01*
G01X51500Y26877D02*
G01X51500Y26400D01*
G01X56045Y26877D02*
G01X56272Y26877D01*
G01X56272Y26877D02*
G01X56295Y26672D01*
G01X56295Y26672D02*
G01X56272Y26695D01*
G01X56272Y26695D02*
G01X56204Y26718D01*
G01X56204Y26718D02*
G01X56136Y26718D01*
G01X56136Y26718D02*
G01X56068Y26695D01*
G01X56068Y26695D02*
G01X56022Y26650D01*
G01X56022Y26650D02*
G01X56000Y26581D01*
G01X56000Y26581D02*
G01X56000Y26536D01*
G01X56000Y26536D02*
G01X56022Y26468D01*
G01X56022Y26468D02*
G01X56068Y26422D01*
G01X56068Y26422D02*
G01X56136Y26400D01*
G01X56136Y26400D02*
G01X56204Y26400D01*
G01X56204Y26400D02*
G01X56272Y26422D01*
G01X56272Y26422D02*
G01X56295Y26445D01*
G01X56295Y26445D02*
G01X56318Y26490D01*
G01X56613Y26786D02*
G01X56568Y26809D01*
G01X56568Y26809D02*
G01X56500Y26877D01*
G01X56500Y26877D02*
G01X56500Y26400D01*
G01X61081Y26877D02*
G01X61150Y26854D01*
G01X61150Y26854D02*
G01X61195Y26786D01*
G01X61195Y26786D02*
G01X61218Y26672D01*
G01X61218Y26672D02*
G01X61218Y26604D01*
G01X61218Y26604D02*
G01X61195Y26490D01*
G01X61195Y26490D02*
G01X61150Y26422D01*
G01X61150Y26422D02*
G01X61081Y26400D01*
G01X61081Y26400D02*
G01X61036Y26400D01*
G01X61036Y26400D02*
G01X60968Y26422D01*
G01X60968Y26422D02*
G01X60922Y26490D01*
G01X60922Y26490D02*
G01X60900Y26604D01*
G01X60900Y26604D02*
G01X60900Y26672D01*
G01X60900Y26672D02*
G01X60922Y26786D01*
G01X60922Y26786D02*
G01X60968Y26854D01*
G01X60968Y26854D02*
G01X61036Y26877D01*
G01X61036Y26877D02*
G01X61081Y26877D01*
G01X61695Y26763D02*
G01X61695Y26786D01*
G01X61695Y26786D02*
G01X61672Y26831D01*
G01X61672Y26831D02*
G01X61650Y26854D01*
G01X61650Y26854D02*
G01X61604Y26877D01*
G01X61604Y26877D02*
G01X61513Y26877D01*
G01X61513Y26877D02*
G01X61468Y26854D01*
G01X61468Y26854D02*
G01X61445Y26831D01*
G01X61445Y26831D02*
G01X61422Y26786D01*
G01X61422Y26786D02*
G01X61422Y26740D01*
G01X61422Y26740D02*
G01X61445Y26695D01*
G01X61445Y26695D02*
G01X61490Y26627D01*
G01X61490Y26627D02*
G01X61718Y26400D01*
G01X61718Y26400D02*
G01X61400Y26400D01*
G01X61113Y19386D02*
G01X61068Y19409D01*
G01X61068Y19409D02*
G01X61000Y19477D01*
G01X61000Y19477D02*
G01X61000Y19000D01*
G01X61590Y19363D02*
G01X61590Y19386D01*
G01X61590Y19386D02*
G01X61568Y19431D01*
G01X61568Y19431D02*
G01X61545Y19454D01*
G01X61545Y19454D02*
G01X61499Y19477D01*
G01X61499Y19477D02*
G01X61409Y19477D01*
G01X61409Y19477D02*
G01X61363Y19454D01*
G01X61363Y19454D02*
G01X61340Y19431D01*
G01X61340Y19431D02*
G01X61318Y19386D01*
G01X61318Y19386D02*
G01X61318Y19340D01*
G01X61318Y19340D02*
G01X61340Y19295D01*
G01X61340Y19295D02*
G01X61386Y19227D01*
G01X61386Y19227D02*
G01X61613Y19000D01*
G01X61613Y19000D02*
G01X61295Y19000D01*
G01X41981Y19577D02*
G01X42050Y19554D01*
G01X42050Y19554D02*
G01X42095Y19486D01*
G01X42095Y19486D02*
G01X42118Y19372D01*
G01X42118Y19372D02*
G01X42118Y19304D01*
G01X42118Y19304D02*
G01X42095Y19190D01*
G01X42095Y19190D02*
G01X42050Y19122D01*
G01X42050Y19122D02*
G01X41981Y19100D01*
G01X41981Y19100D02*
G01X41936Y19100D01*
G01X41936Y19100D02*
G01X41868Y19122D01*
G01X41868Y19122D02*
G01X41822Y19190D01*
G01X41822Y19190D02*
G01X41800Y19304D01*
G01X41800Y19304D02*
G01X41800Y19372D01*
G01X41800Y19372D02*
G01X41822Y19486D01*
G01X41822Y19486D02*
G01X41868Y19554D01*
G01X41868Y19554D02*
G01X41936Y19577D01*
G01X41936Y19577D02*
G01X41981Y19577D01*
G01X42413Y19577D02*
G01X42640Y19259D01*
G01X42640Y19259D02*
G01X42300Y19259D01*
G01X42413Y19577D02*
G01X42413Y19100D01*
G01X56845Y19477D02*
G01X57072Y19477D01*
G01X57072Y19477D02*
G01X57095Y19272D01*
G01X57095Y19272D02*
G01X57072Y19295D01*
G01X57072Y19295D02*
G01X57004Y19318D01*
G01X57004Y19318D02*
G01X56936Y19318D01*
G01X56936Y19318D02*
G01X56868Y19295D01*
G01X56868Y19295D02*
G01X56822Y19250D01*
G01X56822Y19250D02*
G01X56800Y19181D01*
G01X56800Y19181D02*
G01X56800Y19136D01*
G01X56800Y19136D02*
G01X56822Y19068D01*
G01X56822Y19068D02*
G01X56868Y19022D01*
G01X56868Y19022D02*
G01X56936Y19000D01*
G01X56936Y19000D02*
G01X57004Y19000D01*
G01X57004Y19000D02*
G01X57072Y19022D01*
G01X57072Y19022D02*
G01X57095Y19045D01*
G01X57095Y19045D02*
G01X57118Y19090D01*
G01X57595Y19363D02*
G01X57595Y19386D01*
G01X57595Y19386D02*
G01X57572Y19431D01*
G01X57572Y19431D02*
G01X57550Y19454D01*
G01X57550Y19454D02*
G01X57504Y19477D01*
G01X57504Y19477D02*
G01X57413Y19477D01*
G01X57413Y19477D02*
G01X57368Y19454D01*
G01X57368Y19454D02*
G01X57345Y19431D01*
G01X57345Y19431D02*
G01X57322Y19386D01*
G01X57322Y19386D02*
G01X57322Y19340D01*
G01X57322Y19340D02*
G01X57345Y19295D01*
G01X57345Y19295D02*
G01X57390Y19227D01*
G01X57390Y19227D02*
G01X57618Y19000D01*
G01X57618Y19000D02*
G01X57300Y19000D01*
G01X52081Y19677D02*
G01X52150Y19654D01*
G01X52150Y19654D02*
G01X52195Y19586D01*
G01X52195Y19586D02*
G01X52218Y19472D01*
G01X52218Y19472D02*
G01X52218Y19404D01*
G01X52218Y19404D02*
G01X52195Y19290D01*
G01X52195Y19290D02*
G01X52150Y19222D01*
G01X52150Y19222D02*
G01X52081Y19200D01*
G01X52081Y19200D02*
G01X52036Y19200D01*
G01X52036Y19200D02*
G01X51968Y19222D01*
G01X51968Y19222D02*
G01X51922Y19290D01*
G01X51922Y19290D02*
G01X51900Y19404D01*
G01X51900Y19404D02*
G01X51900Y19472D01*
G01X51900Y19472D02*
G01X51922Y19586D01*
G01X51922Y19586D02*
G01X51968Y19654D01*
G01X51968Y19654D02*
G01X52036Y19677D01*
G01X52036Y19677D02*
G01X52081Y19677D01*
G01X52672Y19677D02*
G01X52422Y19677D01*
G01X52422Y19677D02*
G01X52559Y19495D01*
G01X52559Y19495D02*
G01X52490Y19495D01*
G01X52490Y19495D02*
G01X52445Y19472D01*
G01X52445Y19472D02*
G01X52422Y19450D01*
G01X52422Y19450D02*
G01X52400Y19381D01*
G01X52400Y19381D02*
G01X52400Y19336D01*
G01X52400Y19336D02*
G01X52422Y19268D01*
G01X52422Y19268D02*
G01X52468Y19222D01*
G01X52468Y19222D02*
G01X52536Y19200D01*
G01X52536Y19200D02*
G01X52604Y19200D01*
G01X52604Y19200D02*
G01X52672Y19222D01*
G01X52672Y19222D02*
G01X52695Y19245D01*
G01X52695Y19245D02*
G01X52718Y19290D01*
G01X46945Y19577D02*
G01X47172Y19577D01*
G01X47172Y19577D02*
G01X47195Y19372D01*
G01X47195Y19372D02*
G01X47172Y19395D01*
G01X47172Y19395D02*
G01X47104Y19418D01*
G01X47104Y19418D02*
G01X47036Y19418D01*
G01X47036Y19418D02*
G01X46968Y19395D01*
G01X46968Y19395D02*
G01X46922Y19350D01*
G01X46922Y19350D02*
G01X46900Y19281D01*
G01X46900Y19281D02*
G01X46900Y19236D01*
G01X46900Y19236D02*
G01X46922Y19168D01*
G01X46922Y19168D02*
G01X46968Y19122D01*
G01X46968Y19122D02*
G01X47036Y19100D01*
G01X47036Y19100D02*
G01X47104Y19100D01*
G01X47104Y19100D02*
G01X47172Y19122D01*
G01X47172Y19122D02*
G01X47195Y19145D01*
G01X47195Y19145D02*
G01X47218Y19190D01*
G01X47672Y19577D02*
G01X47422Y19577D01*
G01X47422Y19577D02*
G01X47559Y19395D01*
G01X47559Y19395D02*
G01X47490Y19395D01*
G01X47490Y19395D02*
G01X47445Y19372D01*
G01X47445Y19372D02*
G01X47422Y19350D01*
G01X47422Y19350D02*
G01X47400Y19281D01*
G01X47400Y19281D02*
G01X47400Y19236D01*
G01X47400Y19236D02*
G01X47422Y19168D01*
G01X47422Y19168D02*
G01X47468Y19122D01*
G01X47468Y19122D02*
G01X47536Y19100D01*
G01X47536Y19100D02*
G01X47604Y19100D01*
G01X47604Y19100D02*
G01X47672Y19122D01*
G01X47672Y19122D02*
G01X47695Y19145D01*
G01X47695Y19145D02*
G01X47718Y19190D01*
G54D12*
G01X56477Y36015D02*
G01X56477Y35300D01*
G01X56477Y36015D02*
G01X56238Y36015D01*
G01X56238Y36015D02*
G01X56136Y35981D01*
G01X56136Y35981D02*
G01X56068Y35913D01*
G01X56068Y35913D02*
G01X56034Y35845D01*
G01X56034Y35845D02*
G01X56000Y35743D01*
G01X56000Y35743D02*
G01X56000Y35572D01*
G01X56000Y35572D02*
G01X56034Y35470D01*
G01X56034Y35470D02*
G01X56068Y35402D01*
G01X56068Y35402D02*
G01X56136Y35334D01*
G01X56136Y35334D02*
G01X56238Y35300D01*
G01X56238Y35300D02*
G01X56477Y35300D01*
G01X57125Y35777D02*
G01X56750Y35300D01*
G01X56750Y35777D02*
G01X57125Y35300D01*
G01X57636Y36015D02*
G01X57636Y35300D01*
G01X57874Y36015D02*
G01X57397Y36015D01*
G01X56477Y38115D02*
G01X56477Y37400D01*
G01X56477Y38115D02*
G01X56238Y38115D01*
G01X56238Y38115D02*
G01X56136Y38081D01*
G01X56136Y38081D02*
G01X56068Y38013D01*
G01X56068Y38013D02*
G01X56034Y37945D01*
G01X56034Y37945D02*
G01X56000Y37843D01*
G01X56000Y37843D02*
G01X56000Y37672D01*
G01X56000Y37672D02*
G01X56034Y37570D01*
G01X56034Y37570D02*
G01X56068Y37502D01*
G01X56068Y37502D02*
G01X56136Y37434D01*
G01X56136Y37434D02*
G01X56238Y37400D01*
G01X56238Y37400D02*
G01X56477Y37400D01*
G01X57125Y37877D02*
G01X56750Y37400D01*
G01X56750Y37877D02*
G01X57125Y37400D01*
G01X57874Y38115D02*
G01X57874Y37400D01*
G01X57874Y38115D02*
G01X57568Y38115D01*
G01X57568Y38115D02*
G01X57465Y38081D01*
G01X57465Y38081D02*
G01X57431Y38047D01*
G01X57431Y38047D02*
G01X57397Y37979D01*
G01X57397Y37979D02*
G01X57397Y37911D01*
G01X57397Y37911D02*
G01X57431Y37843D01*
G01X57431Y37843D02*
G01X57465Y37809D01*
G01X57465Y37809D02*
G01X57568Y37775D01*
G01X57568Y37775D02*
G01X57874Y37775D01*
G01X57636Y37775D02*
G01X57397Y37400D01*
M00*
M02*
