G04 FreePCB version 1.359*
G04 D:\Users\waynej\My Documents\GitHub\mlaunch\controller30\CAM\bottom_copper.grb*
G04 bottom copper layer *
G04 Scale: 100 percent, Rotated: No, Reflected: No *
%FSLAX24Y24*%
%MOIN*%
%LN bottom copper *%
G04 Rounded Rectangle Macro, params: W/2, H/2, R *
%AMRNDREC*
21,1,$1+$1,$2+$2-$3-$3,0,0,0*
21,1,$1+$1-$3-$3,$2+$2,0,0,0*
1,1,$3+$3,$1-$3,$2-$3*
1,1,$3+$3,$3-$1,$2-$3*
1,1,$3+$3,$1-$3,$3-$2*
1,1,$3+$3,$3-$1,$3-$2*%
G04 Rectangular Thermal Macro, params: W/2, H/2, T/2 *
%AMRECTHERM*
$4=$3/2*
21,1,$1-$3,$2-$3,0-$1/2-$4,0-$2/2-$4,0*
21,1,$1-$3,$2-$3,0-$1/2-$4,$2/2+$4,0*
21,1,$1-$3,$2-$3,$1/2+$4,0-$2/2-$4,0*
21,1,$1-$3,$2-$3,$1/2+$4,$2/2+$4,0*%
%ADD10C,0.005000*%
%ADD11R,0.086929X0.075118*%
%ADD12R,0.086929X0.177480*%
%ADD13R,0.098740X0.082992*%
%ADD14R,0.075000X0.075000*%
%ADD15C,0.075000*%
%AMTHERM16*7,0,0,0.075000,0.055000,0.010000,45.0*%
%ADD16THERM16*%
%ADD17C,0.001000*%
%ADD18R,0.082992X0.098740*%
%ADD19R,0.082992X0.082992*%
%ADD20R,0.114488X0.051496*%
%ADD21R,0.079843X0.067244*%
%ADD22R,0.080000X0.080000*%
%ADD23C,0.080000*%
%ADD24R,0.092835X0.049134*%
%ADD25C,0.065433*%
%ADD26RECTHERM,0.035000X0.035000X0.005000*%
%ADD27R,0.070000X0.070000*%
%ADD28R,0.236535X0.098740*%
%ADD29R,0.059370X0.177480*%
%ADD30C,0.048000*%
%ADD31C,0.030000*%
%ADD32C,0.045000*%
%AMTHERM33*7,0,0,0.048000,0.028000,0.010000,45.0*%
%ADD33THERM33*%
%ADD34C,0.028000*%
%ADD35C,0.035000*%
%ADD36R,0.066929X0.055118*%
%ADD37R,0.066929X0.157480*%
%ADD38R,0.078740X0.062992*%
%ADD39R,0.055000X0.055000*%
%ADD40C,0.055000*%
%ADD41R,0.062992X0.078740*%
%ADD42R,0.062992X0.062992*%
%ADD43R,0.094488X0.031496*%
%ADD44R,0.059843X0.047244*%
%ADD45R,0.060000X0.060000*%
%ADD46C,0.060000*%
%ADD47R,0.072835X0.029134*%
%ADD48R,0.050000X0.050000*%
%ADD49R,0.216535X0.078740*%
%ADD50R,0.039370X0.157480*%
%ADD51C,0.010000*%
%ADD52C,0.025000*%
%ADD53C,0.008000*%
%ADD54C,0.015000*%
G90*
G70D02*

G04 Step and Repeat for panelization *

G04 ----------------------- Draw board outline (positive)*
%LPD*%
G54D10*
G01X3500Y1750D02*
G01X3499Y1789D01*
G01X3498Y1828D01*
G01X3496Y1867D01*
G01X3492Y1906D01*
G01X3488Y1945D01*
G01X3484Y1984D01*
G01X3478Y2023D01*
G01X3471Y2062D01*
G01X3464Y2101D01*
G01X3456Y2139D01*
G01X3446Y2177D01*
G01X3436Y2215D01*
G01X3426Y2253D01*
G01X3414Y2290D01*
G01X3401Y2327D01*
G01X3388Y2364D01*
G01X3374Y2401D01*
G01X3359Y2437D01*
G01X3343Y2473D01*
G01X3326Y2509D01*
G01X3309Y2544D01*
G01X3291Y2579D01*
G01X3272Y2613D01*
G01X3252Y2647D01*
G01X3231Y2681D01*
G01X3210Y2714D01*
G01X3188Y2746D01*
G01X3165Y2778D01*
G01X3142Y2810D01*
G01X3118Y2841D01*
G01X3093Y2871D01*
G01X3067Y2901D01*
G01X3041Y2930D01*
G01X3014Y2959D01*
G01X2987Y2987D01*
G01X2959Y3014D01*
G01X2930Y3041D01*
G01X2901Y3067D01*
G01X2871Y3093D01*
G01X2841Y3118D01*
G01X2810Y3142D01*
G01X2778Y3165D01*
G01X2746Y3188D01*
G01X2714Y3210D01*
G01X2681Y3231D01*
G01X2647Y3252D01*
G01X2613Y3272D01*
G01X2579Y3291D01*
G01X2544Y3309D01*
G01X2509Y3326D01*
G01X2473Y3343D01*
G01X2437Y3359D01*
G01X2401Y3374D01*
G01X2364Y3388D01*
G01X2327Y3401D01*
G01X2290Y3414D01*
G01X2253Y3426D01*
G01X2215Y3436D01*
G01X2177Y3446D01*
G01X2139Y3456D01*
G01X2101Y3464D01*
G01X2062Y3471D01*
G01X2023Y3478D01*
G01X1984Y3484D01*
G01X1945Y3488D01*
G01X1906Y3492D01*
G01X1867Y3496D01*
G01X1828Y3498D01*
G01X1789Y3499D01*
G01X1750Y3500D01*
G04 end of side 1*
G01X0Y3500D01*
G04 end of side 2*
G01X0Y41800D01*
G04 end of side 3*
G01X1750Y41800D01*
G04 end of side 4*
G01X1789Y41800D01*
G01X1828Y41801D01*
G01X1867Y41803D01*
G01X1906Y41807D01*
G01X1945Y41811D01*
G01X1984Y41815D01*
G01X2023Y41821D01*
G01X2062Y41828D01*
G01X2101Y41835D01*
G01X2139Y41843D01*
G01X2177Y41853D01*
G01X2215Y41863D01*
G01X2253Y41873D01*
G01X2290Y41885D01*
G01X2327Y41898D01*
G01X2364Y41911D01*
G01X2401Y41925D01*
G01X2437Y41940D01*
G01X2473Y41956D01*
G01X2509Y41973D01*
G01X2544Y41990D01*
G01X2579Y42008D01*
G01X2613Y42027D01*
G01X2647Y42047D01*
G01X2681Y42068D01*
G01X2714Y42089D01*
G01X2746Y42111D01*
G01X2778Y42134D01*
G01X2810Y42157D01*
G01X2841Y42181D01*
G01X2871Y42206D01*
G01X2901Y42232D01*
G01X2930Y42258D01*
G01X2959Y42285D01*
G01X2987Y42312D01*
G01X3014Y42340D01*
G01X3041Y42369D01*
G01X3067Y42398D01*
G01X3093Y42428D01*
G01X3118Y42458D01*
G01X3142Y42489D01*
G01X3165Y42521D01*
G01X3188Y42553D01*
G01X3210Y42585D01*
G01X3231Y42618D01*
G01X3252Y42652D01*
G01X3272Y42686D01*
G01X3291Y42720D01*
G01X3309Y42755D01*
G01X3326Y42790D01*
G01X3343Y42826D01*
G01X3359Y42862D01*
G01X3374Y42898D01*
G01X3388Y42935D01*
G01X3401Y42972D01*
G01X3414Y43009D01*
G01X3426Y43046D01*
G01X3436Y43084D01*
G01X3446Y43122D01*
G01X3456Y43160D01*
G01X3464Y43198D01*
G01X3471Y43237D01*
G01X3478Y43276D01*
G01X3484Y43315D01*
G01X3488Y43354D01*
G01X3492Y43393D01*
G01X3496Y43432D01*
G01X3498Y43471D01*
G01X3499Y43510D01*
G01X3500Y43550D01*
G04 end of side 5*
G01X3500Y44650D01*
G04 end of side 6*
G01X8500Y44650D01*
G04 end of side 7*
G01X8500Y43950D01*
G04 end of side 8*
G01X8501Y43910D01*
G01X8504Y43871D01*
G01X8509Y43832D01*
G01X8516Y43794D01*
G01X8525Y43755D01*
G01X8536Y43718D01*
G01X8549Y43681D01*
G01X8564Y43644D01*
G01X8581Y43609D01*
G01X8600Y43574D01*
G01X8620Y43541D01*
G01X8643Y43509D01*
G01X8667Y43478D01*
G01X8692Y43448D01*
G01X8719Y43419D01*
G01X8748Y43392D01*
G01X8778Y43367D01*
G01X8809Y43343D01*
G01X8841Y43320D01*
G01X8875Y43300D01*
G01X8909Y43281D01*
G01X8944Y43264D01*
G01X8981Y43249D01*
G01X9018Y43236D01*
G01X9055Y43225D01*
G01X9094Y43216D01*
G01X9132Y43209D01*
G01X9171Y43204D01*
G01X9210Y43201D01*
G01X9250Y43200D01*
G04 end of side 9*
G01X9289Y43201D01*
G01X9328Y43204D01*
G01X9367Y43209D01*
G01X9405Y43216D01*
G01X9444Y43225D01*
G01X9481Y43236D01*
G01X9518Y43249D01*
G01X9555Y43264D01*
G01X9590Y43281D01*
G01X9625Y43300D01*
G01X9658Y43320D01*
G01X9690Y43343D01*
G01X9721Y43367D01*
G01X9751Y43392D01*
G01X9780Y43419D01*
G01X9807Y43448D01*
G01X9832Y43478D01*
G01X9856Y43509D01*
G01X9879Y43541D01*
G01X9899Y43575D01*
G01X9918Y43609D01*
G01X9935Y43644D01*
G01X9950Y43681D01*
G01X9963Y43718D01*
G01X9974Y43755D01*
G01X9983Y43794D01*
G01X9990Y43832D01*
G01X9995Y43871D01*
G01X9998Y43910D01*
G01X10000Y43950D01*
G04 end of side 10*
G01X10000Y44650D01*
G04 end of side 11*
G01X24750Y44650D01*
G04 end of side 12*
G01X24750Y43950D01*
G04 end of side 13*
G01X24751Y43910D01*
G01X24754Y43871D01*
G01X24759Y43832D01*
G01X24766Y43794D01*
G01X24775Y43755D01*
G01X24786Y43718D01*
G01X24799Y43681D01*
G01X24814Y43644D01*
G01X24831Y43609D01*
G01X24850Y43574D01*
G01X24870Y43541D01*
G01X24893Y43509D01*
G01X24917Y43478D01*
G01X24942Y43448D01*
G01X24969Y43419D01*
G01X24998Y43392D01*
G01X25028Y43367D01*
G01X25059Y43343D01*
G01X25091Y43320D01*
G01X25125Y43300D01*
G01X25159Y43281D01*
G01X25194Y43264D01*
G01X25231Y43249D01*
G01X25268Y43236D01*
G01X25305Y43225D01*
G01X25344Y43216D01*
G01X25382Y43209D01*
G01X25421Y43204D01*
G01X25460Y43201D01*
G01X25500Y43200D01*
G04 end of side 14*
G01X25539Y43201D01*
G01X25578Y43204D01*
G01X25617Y43209D01*
G01X25655Y43216D01*
G01X25694Y43225D01*
G01X25731Y43236D01*
G01X25768Y43249D01*
G01X25805Y43264D01*
G01X25840Y43281D01*
G01X25875Y43300D01*
G01X25908Y43320D01*
G01X25940Y43343D01*
G01X25971Y43367D01*
G01X26001Y43392D01*
G01X26030Y43419D01*
G01X26057Y43448D01*
G01X26082Y43478D01*
G01X26106Y43509D01*
G01X26129Y43541D01*
G01X26149Y43575D01*
G01X26168Y43609D01*
G01X26185Y43644D01*
G01X26200Y43681D01*
G01X26213Y43718D01*
G01X26224Y43755D01*
G01X26233Y43794D01*
G01X26240Y43832D01*
G01X26245Y43871D01*
G01X26248Y43910D01*
G01X26250Y43950D01*
G04 end of side 15*
G01X26250Y44650D01*
G04 end of side 16*
G01X30000Y44650D01*
G04 end of side 17*
G01X30000Y43550D01*
G04 end of side 18*
G01X30000Y43512D01*
G01X30001Y43475D01*
G01X30004Y43437D01*
G01X30007Y43400D01*
G01X30012Y43362D01*
G01X30017Y43325D01*
G01X30023Y43288D01*
G01X30030Y43251D01*
G01X30038Y43214D01*
G01X30047Y43178D01*
G01X30057Y43141D01*
G01X30068Y43105D01*
G01X30080Y43069D01*
G01X30093Y43034D01*
G01X30107Y42998D01*
G01X30121Y42963D01*
G01X30137Y42929D01*
G01X30153Y42894D01*
G01X30170Y42860D01*
G01X30188Y42826D01*
G01X30207Y42793D01*
G01X30227Y42760D01*
G01X30248Y42728D01*
G01X30269Y42696D01*
G01X30292Y42664D01*
G01X30315Y42633D01*
G01X30339Y42603D01*
G01X30363Y42573D01*
G01X30389Y42544D01*
G01X30415Y42515D01*
G01X30442Y42486D01*
G01X30469Y42459D01*
G01X30498Y42431D01*
G01X30527Y42405D01*
G01X30556Y42379D01*
G01X30587Y42354D01*
G01X30618Y42329D01*
G01X30649Y42305D01*
G01X30681Y42282D01*
G01X30714Y42259D01*
G01X30748Y42238D01*
G01X30782Y42217D01*
G01X30816Y42196D01*
G01X30851Y42177D01*
G01X30886Y42158D01*
G01X30922Y42140D01*
G01X30959Y42122D01*
G01X30995Y42106D01*
G01X31033Y42090D01*
G01X31070Y42075D01*
G01X31108Y42061D01*
G01X31147Y42047D01*
G01X31185Y42035D01*
G01X31224Y42023D01*
G01X31264Y42012D01*
G01X31303Y42002D01*
G01X31343Y41993D01*
G01X31383Y41985D01*
G01X31423Y41978D01*
G01X31464Y41971D01*
G01X31504Y41965D01*
G01X31545Y41960D01*
G01X31586Y41957D01*
G01X31627Y41953D01*
G01X31667Y41951D01*
G01X31708Y41950D01*
G01X31750Y41950D01*
G04 end of side 19*
G01X31791Y41950D01*
G01X31832Y41951D01*
G01X31872Y41953D01*
G01X31913Y41957D01*
G01X31954Y41960D01*
G01X31995Y41965D01*
G01X32035Y41971D01*
G01X32076Y41978D01*
G01X32116Y41985D01*
G01X32156Y41993D01*
G01X32196Y42002D01*
G01X32235Y42012D01*
G01X32275Y42023D01*
G01X32314Y42035D01*
G01X32352Y42047D01*
G01X32391Y42061D01*
G01X32429Y42075D01*
G01X32466Y42090D01*
G01X32504Y42106D01*
G01X32540Y42122D01*
G01X32577Y42140D01*
G01X32613Y42158D01*
G01X32648Y42177D01*
G01X32683Y42196D01*
G01X32717Y42217D01*
G01X32751Y42238D01*
G01X32785Y42259D01*
G01X32818Y42282D01*
G01X32850Y42305D01*
G01X32881Y42329D01*
G01X32912Y42354D01*
G01X32943Y42379D01*
G01X32972Y42405D01*
G01X33001Y42431D01*
G01X33030Y42459D01*
G01X33057Y42486D01*
G01X33084Y42515D01*
G01X33110Y42544D01*
G01X33136Y42573D01*
G01X33160Y42603D01*
G01X33184Y42633D01*
G01X33207Y42664D01*
G01X33230Y42696D01*
G01X33251Y42728D01*
G01X33272Y42760D01*
G01X33292Y42793D01*
G01X33311Y42826D01*
G01X33329Y42860D01*
G01X33346Y42894D01*
G01X33362Y42929D01*
G01X33378Y42963D01*
G01X33392Y42998D01*
G01X33406Y43034D01*
G01X33419Y43069D01*
G01X33431Y43105D01*
G01X33442Y43141D01*
G01X33452Y43178D01*
G01X33461Y43214D01*
G01X33469Y43251D01*
G01X33476Y43288D01*
G01X33482Y43325D01*
G01X33487Y43362D01*
G01X33492Y43400D01*
G01X33495Y43437D01*
G01X33498Y43475D01*
G01X33499Y43512D01*
G01X33500Y43550D01*
G04 end of side 20*
G01X33500Y44650D01*
G04 end of side 21*
G01X37250Y44650D01*
G04 end of side 22*
G01X37250Y43950D01*
G04 end of side 23*
G01X37251Y43910D01*
G01X37254Y43871D01*
G01X37259Y43832D01*
G01X37266Y43794D01*
G01X37275Y43755D01*
G01X37286Y43718D01*
G01X37299Y43681D01*
G01X37314Y43644D01*
G01X37331Y43609D01*
G01X37350Y43574D01*
G01X37370Y43541D01*
G01X37393Y43509D01*
G01X37417Y43478D01*
G01X37442Y43448D01*
G01X37469Y43419D01*
G01X37498Y43392D01*
G01X37528Y43367D01*
G01X37559Y43343D01*
G01X37591Y43320D01*
G01X37625Y43300D01*
G01X37659Y43281D01*
G01X37694Y43264D01*
G01X37731Y43249D01*
G01X37768Y43236D01*
G01X37805Y43225D01*
G01X37844Y43216D01*
G01X37882Y43209D01*
G01X37921Y43204D01*
G01X37960Y43201D01*
G01X38000Y43200D01*
G04 end of side 24*
G01X38039Y43201D01*
G01X38078Y43204D01*
G01X38117Y43209D01*
G01X38155Y43216D01*
G01X38194Y43225D01*
G01X38231Y43236D01*
G01X38268Y43249D01*
G01X38305Y43264D01*
G01X38340Y43281D01*
G01X38375Y43300D01*
G01X38408Y43320D01*
G01X38440Y43343D01*
G01X38471Y43367D01*
G01X38501Y43392D01*
G01X38530Y43419D01*
G01X38557Y43448D01*
G01X38582Y43478D01*
G01X38606Y43509D01*
G01X38629Y43541D01*
G01X38649Y43575D01*
G01X38668Y43609D01*
G01X38685Y43644D01*
G01X38700Y43681D01*
G01X38713Y43718D01*
G01X38724Y43755D01*
G01X38733Y43794D01*
G01X38740Y43832D01*
G01X38745Y43871D01*
G01X38748Y43910D01*
G01X38750Y43950D01*
G04 end of side 25*
G01X38700Y44650D01*
G04 end of side 26*
G01X53500Y44650D01*
G04 end of side 27*
G01X53500Y43950D01*
G04 end of side 28*
G01X53501Y43910D01*
G01X53504Y43871D01*
G01X53509Y43832D01*
G01X53516Y43794D01*
G01X53525Y43755D01*
G01X53536Y43718D01*
G01X53549Y43681D01*
G01X53564Y43644D01*
G01X53581Y43609D01*
G01X53600Y43574D01*
G01X53620Y43541D01*
G01X53643Y43509D01*
G01X53667Y43478D01*
G01X53692Y43448D01*
G01X53719Y43419D01*
G01X53748Y43392D01*
G01X53778Y43367D01*
G01X53809Y43343D01*
G01X53841Y43320D01*
G01X53875Y43300D01*
G01X53909Y43281D01*
G01X53944Y43264D01*
G01X53981Y43249D01*
G01X54018Y43236D01*
G01X54055Y43225D01*
G01X54094Y43216D01*
G01X54132Y43209D01*
G01X54171Y43204D01*
G01X54210Y43201D01*
G01X54250Y43200D01*
G04 end of side 29*
G01X54289Y43201D01*
G01X54328Y43204D01*
G01X54367Y43209D01*
G01X54405Y43216D01*
G01X54444Y43225D01*
G01X54481Y43236D01*
G01X54518Y43249D01*
G01X54555Y43264D01*
G01X54590Y43281D01*
G01X54625Y43300D01*
G01X54658Y43320D01*
G01X54690Y43343D01*
G01X54721Y43367D01*
G01X54751Y43392D01*
G01X54780Y43419D01*
G01X54807Y43448D01*
G01X54832Y43478D01*
G01X54856Y43509D01*
G01X54879Y43541D01*
G01X54899Y43575D01*
G01X54918Y43609D01*
G01X54935Y43644D01*
G01X54950Y43681D01*
G01X54963Y43718D01*
G01X54974Y43755D01*
G01X54983Y43794D01*
G01X54990Y43832D01*
G01X54995Y43871D01*
G01X54998Y43910D01*
G01X55000Y43950D01*
G04 end of side 30*
G01X55000Y44650D01*
G04 end of side 31*
G01X60000Y44650D01*
G04 end of side 32*
G01X60000Y43550D01*
G04 end of side 33*
G01X60000Y43510D01*
G01X60001Y43471D01*
G01X60003Y43432D01*
G01X60007Y43393D01*
G01X60011Y43354D01*
G01X60015Y43315D01*
G01X60021Y43276D01*
G01X60028Y43237D01*
G01X60035Y43198D01*
G01X60043Y43160D01*
G01X60053Y43122D01*
G01X60063Y43084D01*
G01X60073Y43046D01*
G01X60085Y43009D01*
G01X60098Y42972D01*
G01X60111Y42935D01*
G01X60125Y42898D01*
G01X60140Y42862D01*
G01X60156Y42826D01*
G01X60173Y42790D01*
G01X60190Y42755D01*
G01X60208Y42720D01*
G01X60227Y42686D01*
G01X60247Y42652D01*
G01X60268Y42618D01*
G01X60289Y42585D01*
G01X60311Y42553D01*
G01X60334Y42521D01*
G01X60357Y42489D01*
G01X60381Y42458D01*
G01X60406Y42428D01*
G01X60432Y42398D01*
G01X60458Y42369D01*
G01X60485Y42340D01*
G01X60512Y42312D01*
G01X60540Y42285D01*
G01X60569Y42258D01*
G01X60598Y42232D01*
G01X60628Y42206D01*
G01X60658Y42181D01*
G01X60689Y42157D01*
G01X60721Y42134D01*
G01X60753Y42111D01*
G01X60785Y42089D01*
G01X60818Y42068D01*
G01X60852Y42047D01*
G01X60886Y42027D01*
G01X60920Y42008D01*
G01X60955Y41990D01*
G01X60990Y41973D01*
G01X61026Y41956D01*
G01X61062Y41940D01*
G01X61098Y41925D01*
G01X61135Y41911D01*
G01X61172Y41898D01*
G01X61209Y41885D01*
G01X61246Y41873D01*
G01X61284Y41863D01*
G01X61322Y41853D01*
G01X61360Y41843D01*
G01X61398Y41835D01*
G01X61437Y41828D01*
G01X61476Y41821D01*
G01X61515Y41815D01*
G01X61554Y41811D01*
G01X61593Y41807D01*
G01X61632Y41803D01*
G01X61671Y41801D01*
G01X61710Y41800D01*
G01X61750Y41800D01*
G04 end of side 34*
G01X63500Y41800D01*
G04 end of side 35*
G01X63500Y3500D01*
G04 end of side 36*
G01X61750Y3500D01*
G04 end of side 37*
G01X61710Y3499D01*
G01X61671Y3498D01*
G01X61632Y3496D01*
G01X61593Y3492D01*
G01X61554Y3488D01*
G01X61515Y3484D01*
G01X61476Y3478D01*
G01X61437Y3471D01*
G01X61398Y3464D01*
G01X61360Y3456D01*
G01X61322Y3446D01*
G01X61284Y3436D01*
G01X61246Y3426D01*
G01X61209Y3414D01*
G01X61172Y3401D01*
G01X61135Y3388D01*
G01X61098Y3374D01*
G01X61062Y3359D01*
G01X61026Y3343D01*
G01X60990Y3326D01*
G01X60955Y3309D01*
G01X60920Y3291D01*
G01X60886Y3272D01*
G01X60852Y3252D01*
G01X60818Y3231D01*
G01X60785Y3210D01*
G01X60753Y3188D01*
G01X60721Y3165D01*
G01X60689Y3142D01*
G01X60658Y3118D01*
G01X60628Y3093D01*
G01X60598Y3067D01*
G01X60569Y3041D01*
G01X60540Y3014D01*
G01X60512Y2987D01*
G01X60485Y2959D01*
G01X60458Y2930D01*
G01X60432Y2901D01*
G01X60406Y2871D01*
G01X60381Y2841D01*
G01X60357Y2810D01*
G01X60334Y2778D01*
G01X60311Y2746D01*
G01X60289Y2714D01*
G01X60268Y2681D01*
G01X60247Y2647D01*
G01X60227Y2613D01*
G01X60208Y2579D01*
G01X60190Y2544D01*
G01X60173Y2509D01*
G01X60156Y2473D01*
G01X60140Y2437D01*
G01X60125Y2401D01*
G01X60111Y2364D01*
G01X60098Y2327D01*
G01X60085Y2290D01*
G01X60073Y2253D01*
G01X60063Y2215D01*
G01X60053Y2177D01*
G01X60043Y2139D01*
G01X60035Y2101D01*
G01X60028Y2062D01*
G01X60021Y2023D01*
G01X60015Y1984D01*
G01X60011Y1945D01*
G01X60007Y1906D01*
G01X60003Y1867D01*
G01X60001Y1828D01*
G01X60000Y1789D01*
G01X60000Y1750D01*
G04 end of side 38*
G01X60000Y0D01*
G04 end of side 39*
G01X55000Y0D01*
G04 end of side 40*
G01X55000Y2050D01*
G04 end of side 41*
G01X54998Y2089D01*
G01X54995Y2128D01*
G01X54990Y2167D01*
G01X54983Y2205D01*
G01X54974Y2244D01*
G01X54963Y2281D01*
G01X54950Y2318D01*
G01X54935Y2355D01*
G01X54918Y2390D01*
G01X54899Y2425D01*
G01X54879Y2458D01*
G01X54856Y2490D01*
G01X54832Y2521D01*
G01X54807Y2551D01*
G01X54780Y2580D01*
G01X54751Y2607D01*
G01X54721Y2632D01*
G01X54690Y2656D01*
G01X54658Y2679D01*
G01X54624Y2699D01*
G01X54590Y2718D01*
G01X54555Y2735D01*
G01X54518Y2750D01*
G01X54481Y2763D01*
G01X54444Y2774D01*
G01X54405Y2783D01*
G01X54367Y2790D01*
G01X54328Y2795D01*
G01X54289Y2798D01*
G01X54250Y2800D01*
G04 end of side 42*
G01X54210Y2798D01*
G01X54171Y2795D01*
G01X54132Y2790D01*
G01X54094Y2783D01*
G01X54055Y2774D01*
G01X54018Y2763D01*
G01X53981Y2750D01*
G01X53944Y2735D01*
G01X53909Y2718D01*
G01X53874Y2699D01*
G01X53841Y2679D01*
G01X53809Y2656D01*
G01X53778Y2632D01*
G01X53748Y2607D01*
G01X53719Y2580D01*
G01X53692Y2551D01*
G01X53667Y2521D01*
G01X53643Y2490D01*
G01X53620Y2458D01*
G01X53600Y2424D01*
G01X53581Y2390D01*
G01X53564Y2355D01*
G01X53549Y2318D01*
G01X53536Y2281D01*
G01X53525Y2244D01*
G01X53516Y2205D01*
G01X53509Y2167D01*
G01X53504Y2128D01*
G01X53501Y2089D01*
G01X53500Y2050D01*
G04 end of side 43*
G01X53500Y0D01*
G04 end of side 44*
G01X38750Y0D01*
G04 end of side 45*
G01X38750Y2050D01*
G04 end of side 46*
G01X38748Y2089D01*
G01X38745Y2128D01*
G01X38740Y2167D01*
G01X38733Y2205D01*
G01X38724Y2244D01*
G01X38713Y2281D01*
G01X38700Y2318D01*
G01X38685Y2355D01*
G01X38668Y2390D01*
G01X38649Y2425D01*
G01X38629Y2458D01*
G01X38606Y2490D01*
G01X38582Y2521D01*
G01X38557Y2551D01*
G01X38530Y2580D01*
G01X38501Y2607D01*
G01X38471Y2632D01*
G01X38440Y2656D01*
G01X38408Y2679D01*
G01X38374Y2699D01*
G01X38340Y2718D01*
G01X38305Y2735D01*
G01X38268Y2750D01*
G01X38231Y2763D01*
G01X38194Y2774D01*
G01X38155Y2783D01*
G01X38117Y2790D01*
G01X38078Y2795D01*
G01X38039Y2798D01*
G01X38000Y2800D01*
G04 end of side 47*
G01X37960Y2798D01*
G01X37921Y2795D01*
G01X37882Y2790D01*
G01X37844Y2783D01*
G01X37805Y2774D01*
G01X37768Y2763D01*
G01X37731Y2750D01*
G01X37694Y2735D01*
G01X37659Y2718D01*
G01X37624Y2699D01*
G01X37591Y2679D01*
G01X37559Y2656D01*
G01X37528Y2632D01*
G01X37498Y2607D01*
G01X37469Y2580D01*
G01X37442Y2551D01*
G01X37417Y2521D01*
G01X37393Y2490D01*
G01X37370Y2458D01*
G01X37350Y2424D01*
G01X37331Y2390D01*
G01X37314Y2355D01*
G01X37299Y2318D01*
G01X37286Y2281D01*
G01X37275Y2244D01*
G01X37266Y2205D01*
G01X37259Y2167D01*
G01X37254Y2128D01*
G01X37251Y2089D01*
G01X37250Y2050D01*
G04 end of side 48*
G01X37250Y0D01*
G04 end of side 49*
G01X33500Y0D01*
G04 end of side 50*
G01X33500Y1750D01*
G04 end of side 51*
G01X33499Y1787D01*
G01X33498Y1824D01*
G01X33495Y1862D01*
G01X33492Y1899D01*
G01X33487Y1937D01*
G01X33482Y1974D01*
G01X33476Y2011D01*
G01X33469Y2048D01*
G01X33461Y2085D01*
G01X33452Y2121D01*
G01X33442Y2158D01*
G01X33431Y2194D01*
G01X33419Y2230D01*
G01X33406Y2265D01*
G01X33392Y2301D01*
G01X33378Y2336D01*
G01X33362Y2370D01*
G01X33346Y2405D01*
G01X33329Y2439D01*
G01X33311Y2473D01*
G01X33292Y2506D01*
G01X33272Y2539D01*
G01X33251Y2571D01*
G01X33230Y2603D01*
G01X33207Y2635D01*
G01X33184Y2666D01*
G01X33160Y2696D01*
G01X33136Y2726D01*
G01X33110Y2755D01*
G01X33084Y2784D01*
G01X33057Y2813D01*
G01X33030Y2840D01*
G01X33001Y2868D01*
G01X32972Y2894D01*
G01X32943Y2920D01*
G01X32912Y2945D01*
G01X32881Y2970D01*
G01X32850Y2994D01*
G01X32818Y3017D01*
G01X32785Y3040D01*
G01X32751Y3061D01*
G01X32717Y3082D01*
G01X32683Y3103D01*
G01X32648Y3122D01*
G01X32613Y3141D01*
G01X32577Y3159D01*
G01X32540Y3177D01*
G01X32504Y3193D01*
G01X32466Y3209D01*
G01X32429Y3224D01*
G01X32391Y3238D01*
G01X32352Y3252D01*
G01X32314Y3264D01*
G01X32275Y3276D01*
G01X32235Y3287D01*
G01X32196Y3297D01*
G01X32156Y3306D01*
G01X32116Y3314D01*
G01X32076Y3321D01*
G01X32035Y3328D01*
G01X31995Y3334D01*
G01X31954Y3339D01*
G01X31913Y3342D01*
G01X31872Y3346D01*
G01X31832Y3348D01*
G01X31791Y3349D01*
G01X31750Y3350D01*
G04 end of side 52*
G01X31708Y3349D01*
G01X31667Y3348D01*
G01X31627Y3346D01*
G01X31586Y3342D01*
G01X31545Y3339D01*
G01X31504Y3334D01*
G01X31464Y3328D01*
G01X31423Y3321D01*
G01X31383Y3314D01*
G01X31343Y3306D01*
G01X31303Y3297D01*
G01X31264Y3287D01*
G01X31224Y3276D01*
G01X31185Y3264D01*
G01X31147Y3252D01*
G01X31108Y3238D01*
G01X31070Y3224D01*
G01X31033Y3209D01*
G01X30995Y3193D01*
G01X30959Y3177D01*
G01X30922Y3159D01*
G01X30886Y3141D01*
G01X30851Y3122D01*
G01X30816Y3103D01*
G01X30782Y3082D01*
G01X30748Y3061D01*
G01X30714Y3040D01*
G01X30681Y3017D01*
G01X30649Y2994D01*
G01X30618Y2970D01*
G01X30587Y2945D01*
G01X30556Y2920D01*
G01X30527Y2894D01*
G01X30498Y2868D01*
G01X30469Y2840D01*
G01X30442Y2813D01*
G01X30415Y2784D01*
G01X30389Y2755D01*
G01X30363Y2726D01*
G01X30339Y2696D01*
G01X30315Y2666D01*
G01X30292Y2635D01*
G01X30269Y2603D01*
G01X30248Y2571D01*
G01X30227Y2539D01*
G01X30207Y2506D01*
G01X30188Y2473D01*
G01X30170Y2439D01*
G01X30153Y2405D01*
G01X30137Y2370D01*
G01X30121Y2336D01*
G01X30107Y2301D01*
G01X30093Y2265D01*
G01X30080Y2230D01*
G01X30068Y2194D01*
G01X30057Y2158D01*
G01X30047Y2121D01*
G01X30038Y2085D01*
G01X30030Y2048D01*
G01X30023Y2011D01*
G01X30017Y1974D01*
G01X30012Y1937D01*
G01X30007Y1899D01*
G01X30004Y1862D01*
G01X30001Y1824D01*
G01X30000Y1787D01*
G01X30000Y1750D01*
G04 end of side 53*
G01X30000Y0D01*
G04 end of side 54*
G01X26250Y0D01*
G04 end of side 55*
G01X26250Y2050D01*
G04 end of side 56*
G01X26248Y2089D01*
G01X26245Y2128D01*
G01X26240Y2167D01*
G01X26233Y2205D01*
G01X26224Y2244D01*
G01X26213Y2281D01*
G01X26200Y2318D01*
G01X26185Y2355D01*
G01X26168Y2390D01*
G01X26149Y2425D01*
G01X26129Y2458D01*
G01X26106Y2490D01*
G01X26082Y2521D01*
G01X26057Y2551D01*
G01X26030Y2580D01*
G01X26001Y2607D01*
G01X25971Y2632D01*
G01X25940Y2656D01*
G01X25908Y2679D01*
G01X25874Y2699D01*
G01X25840Y2718D01*
G01X25805Y2735D01*
G01X25768Y2750D01*
G01X25731Y2763D01*
G01X25694Y2774D01*
G01X25655Y2783D01*
G01X25617Y2790D01*
G01X25578Y2795D01*
G01X25539Y2798D01*
G01X25500Y2800D01*
G04 end of side 57*
G01X25460Y2798D01*
G01X25421Y2795D01*
G01X25382Y2790D01*
G01X25344Y2783D01*
G01X25305Y2774D01*
G01X25268Y2763D01*
G01X25231Y2750D01*
G01X25194Y2735D01*
G01X25159Y2718D01*
G01X25124Y2699D01*
G01X25091Y2679D01*
G01X25059Y2656D01*
G01X25028Y2632D01*
G01X24998Y2607D01*
G01X24969Y2580D01*
G01X24942Y2551D01*
G01X24917Y2521D01*
G01X24893Y2490D01*
G01X24870Y2458D01*
G01X24850Y2424D01*
G01X24831Y2390D01*
G01X24814Y2355D01*
G01X24799Y2318D01*
G01X24786Y2281D01*
G01X24775Y2244D01*
G01X24766Y2205D01*
G01X24759Y2167D01*
G01X24754Y2128D01*
G01X24751Y2089D01*
G01X24750Y2050D01*
G04 end of side 58*
G01X24750Y0D01*
G04 end of side 59*
G01X10000Y0D01*
G04 end of side 60*
G01X10000Y2050D01*
G04 end of side 61*
G01X9998Y2089D01*
G01X9995Y2128D01*
G01X9990Y2167D01*
G01X9983Y2205D01*
G01X9974Y2244D01*
G01X9963Y2281D01*
G01X9950Y2318D01*
G01X9935Y2355D01*
G01X9918Y2390D01*
G01X9899Y2425D01*
G01X9879Y2458D01*
G01X9856Y2490D01*
G01X9832Y2521D01*
G01X9807Y2551D01*
G01X9780Y2580D01*
G01X9751Y2607D01*
G01X9721Y2632D01*
G01X9690Y2656D01*
G01X9658Y2679D01*
G01X9624Y2699D01*
G01X9590Y2718D01*
G01X9555Y2735D01*
G01X9518Y2750D01*
G01X9481Y2763D01*
G01X9444Y2774D01*
G01X9405Y2783D01*
G01X9367Y2790D01*
G01X9328Y2795D01*
G01X9289Y2798D01*
G01X9250Y2800D01*
G04 end of side 62*
G01X9210Y2798D01*
G01X9171Y2795D01*
G01X9132Y2790D01*
G01X9094Y2783D01*
G01X9055Y2774D01*
G01X9018Y2763D01*
G01X8981Y2750D01*
G01X8944Y2735D01*
G01X8909Y2718D01*
G01X8874Y2699D01*
G01X8841Y2679D01*
G01X8809Y2656D01*
G01X8778Y2632D01*
G01X8748Y2607D01*
G01X8719Y2580D01*
G01X8692Y2551D01*
G01X8667Y2521D01*
G01X8643Y2490D01*
G01X8620Y2458D01*
G01X8600Y2424D01*
G01X8581Y2390D01*
G01X8564Y2355D01*
G01X8549Y2318D01*
G01X8536Y2281D01*
G01X8525Y2244D01*
G01X8516Y2205D01*
G01X8509Y2167D01*
G01X8504Y2128D01*
G01X8501Y2089D01*
G01X8500Y2050D01*
G04 end of side 63*
G01X8500Y0D01*
G04 end of side 64*
G01X3500Y0D01*
G04 end of side 65*
G01X3500Y1750D01*

G04 ----------------------- Draw copper area (positive)*
G36*
G01X63100Y3900D02*
G01X61700Y3900D01*
G01X61661Y3899D01*
G01X61622Y3898D01*
G01X61583Y3896D01*
G01X61544Y3894D01*
G01X61506Y3890D01*
G01X61467Y3886D01*
G01X61429Y3882D01*
G01X61390Y3876D01*
G01X61352Y3870D01*
G01X61314Y3863D01*
G01X61276Y3855D01*
G01X61238Y3847D01*
G01X61200Y3838D01*
G01X61162Y3828D01*
G01X61125Y3817D01*
G01X61088Y3806D01*
G01X61051Y3794D01*
G01X61014Y3782D01*
G01X60977Y3768D01*
G01X60941Y3754D01*
G01X60905Y3740D01*
G01X60869Y3724D01*
G01X60834Y3708D01*
G01X60798Y3691D01*
G01X60763Y3674D01*
G01X60729Y3656D01*
G01X60695Y3637D01*
G01X60661Y3618D01*
G01X60627Y3598D01*
G01X60594Y3577D01*
G01X60561Y3556D01*
G01X60529Y3534D01*
G01X60497Y3512D01*
G01X60465Y3489D01*
G01X60434Y3465D01*
G01X60403Y3441D01*
G01X60373Y3416D01*
G01X60343Y3391D01*
G01X60314Y3365D01*
G01X60285Y3338D01*
G01X60256Y3311D01*
G01X60228Y3284D01*
G01X60201Y3256D01*
G01X60174Y3227D01*
G01X60148Y3198D01*
G01X60122Y3168D01*
G01X60096Y3138D01*
G01X60072Y3108D01*
G01X60047Y3077D01*
G01X60024Y3045D01*
G01X60001Y3013D01*
G01X59978Y2981D01*
G01X59956Y2948D01*
G01X59935Y2915D01*
G01X59914Y2881D01*
G01X59894Y2847D01*
G01X59874Y2813D01*
G01X59856Y2778D01*
G01X59837Y2743D01*
G01X59820Y2708D01*
G01X59803Y2672D01*
G01X59786Y2636D01*
G01X59771Y2600D01*
G01X59756Y2563D01*
G01X59741Y2526D01*
G01X59728Y2489D01*
G01X59715Y2452D01*
G01X59702Y2414D01*
G01X59691Y2376D01*
G01X59680Y2338D01*
G01X59669Y2300D01*
G01X59660Y2261D01*
G01X59651Y2222D01*
G01X59643Y2184D01*
G01X59635Y2145D01*
G01X59628Y2105D01*
G01X59622Y2066D01*
G01X59617Y2027D01*
G01X59612Y1987D01*
G01X59608Y1948D01*
G01X59605Y1908D01*
G01X59603Y1869D01*
G01X59601Y1829D01*
G01X59600Y1789D01*
G01X59600Y1750D01*
G01X59600Y400D01*
G01X55400Y400D01*
G01X55400Y2000D01*
G01X55399Y2040D01*
G01X55397Y2080D01*
G01X55394Y2120D01*
G01X55389Y2159D01*
G01X55383Y2199D01*
G01X55376Y2239D01*
G01X55368Y2278D01*
G01X55359Y2317D01*
G01X55348Y2355D01*
G01X55336Y2393D01*
G01X55323Y2431D01*
G01X55308Y2468D01*
G01X55293Y2505D01*
G01X55276Y2541D01*
G01X55258Y2576D01*
G01X55239Y2611D01*
G01X55219Y2645D01*
G01X55198Y2679D01*
G01X55175Y2711D01*
G01X55152Y2743D01*
G01X55128Y2774D01*
G01X55102Y2804D01*
G01X55076Y2834D01*
G01X55049Y2862D01*
G01X55021Y2889D01*
G01X54992Y2916D01*
G01X54962Y2941D01*
G01X54932Y2966D01*
G01X54900Y2989D01*
G01X54868Y3011D01*
G01X54836Y3032D01*
G01X54802Y3052D01*
G01X54768Y3071D01*
G01X54734Y3088D01*
G01X54698Y3104D01*
G01X54663Y3119D01*
G01X54627Y3133D01*
G01X54590Y3146D01*
G01X54553Y3157D01*
G01X54516Y3167D01*
G01X54479Y3175D01*
G01X54441Y3183D01*
G01X54403Y3189D01*
G01X54365Y3193D01*
G01X54326Y3197D01*
G01X54288Y3199D01*
G01X54250Y3200D01*
G01X54211Y3199D01*
G01X54173Y3197D01*
G01X54134Y3193D01*
G01X54096Y3189D01*
G01X54058Y3183D01*
G01X54020Y3175D01*
G01X53983Y3167D01*
G01X53946Y3157D01*
G01X53909Y3146D01*
G01X53872Y3133D01*
G01X53836Y3119D01*
G01X53801Y3104D01*
G01X53765Y3088D01*
G01X53731Y3071D01*
G01X53697Y3052D01*
G01X53663Y3032D01*
G01X53631Y3011D01*
G01X53599Y2989D01*
G01X53567Y2966D01*
G01X53537Y2941D01*
G01X53507Y2916D01*
G01X53478Y2889D01*
G01X53450Y2862D01*
G01X53423Y2834D01*
G01X53397Y2804D01*
G01X53371Y2774D01*
G01X53347Y2743D01*
G01X53324Y2711D01*
G01X53301Y2679D01*
G01X53280Y2645D01*
G01X53260Y2611D01*
G01X53241Y2576D01*
G01X53223Y2541D01*
G01X53206Y2505D01*
G01X53191Y2468D01*
G01X53176Y2431D01*
G01X53163Y2393D01*
G01X53151Y2355D01*
G01X53140Y2317D01*
G01X53131Y2278D01*
G01X53123Y2239D01*
G01X53116Y2199D01*
G01X53110Y2159D01*
G01X53105Y2120D01*
G01X53102Y2080D01*
G01X53100Y2040D01*
G01X53100Y2000D01*
G01X53100Y400D01*
G01X39150Y400D01*
G01X39150Y2000D01*
G01X39149Y2040D01*
G01X39147Y2080D01*
G01X39144Y2120D01*
G01X39139Y2159D01*
G01X39133Y2199D01*
G01X39126Y2239D01*
G01X39118Y2278D01*
G01X39109Y2317D01*
G01X39098Y2355D01*
G01X39086Y2393D01*
G01X39073Y2431D01*
G01X39058Y2468D01*
G01X39043Y2505D01*
G01X39026Y2541D01*
G01X39008Y2576D01*
G01X38989Y2611D01*
G01X38969Y2645D01*
G01X38948Y2679D01*
G01X38925Y2711D01*
G01X38902Y2743D01*
G01X38878Y2774D01*
G01X38852Y2804D01*
G01X38826Y2834D01*
G01X38799Y2862D01*
G01X38771Y2889D01*
G01X38742Y2916D01*
G01X38712Y2941D01*
G01X38682Y2966D01*
G01X38650Y2989D01*
G01X38618Y3011D01*
G01X38586Y3032D01*
G01X38552Y3052D01*
G01X38518Y3071D01*
G01X38484Y3088D01*
G01X38448Y3104D01*
G01X38413Y3119D01*
G01X38377Y3133D01*
G01X38340Y3146D01*
G01X38303Y3157D01*
G01X38266Y3167D01*
G01X38229Y3175D01*
G01X38191Y3183D01*
G01X38153Y3189D01*
G01X38115Y3193D01*
G01X38076Y3197D01*
G01X38038Y3199D01*
G01X38000Y3200D01*
G01X37960Y3199D01*
G01X37921Y3197D01*
G01X37882Y3193D01*
G01X37843Y3189D01*
G01X37804Y3183D01*
G01X37766Y3175D01*
G01X37727Y3167D01*
G01X37689Y3157D01*
G01X37652Y3146D01*
G01X37614Y3133D01*
G01X37578Y3119D01*
G01X37541Y3104D01*
G01X37506Y3088D01*
G01X37470Y3071D01*
G01X37436Y3052D01*
G01X37402Y3032D01*
G01X37369Y3011D01*
G01X37336Y2989D01*
G01X37305Y2966D01*
G01X37274Y2942D01*
G01X37244Y2916D01*
G01X37215Y2890D01*
G01X37186Y2863D01*
G01X37159Y2834D01*
G01X37133Y2805D01*
G01X37107Y2775D01*
G01X37083Y2744D01*
G01X37060Y2713D01*
G01X37038Y2680D01*
G01X37017Y2647D01*
G01X36997Y2613D01*
G01X36978Y2579D01*
G01X36961Y2543D01*
G01X36945Y2508D01*
G01X36930Y2471D01*
G01X36916Y2435D01*
G01X36903Y2397D01*
G01X36892Y2360D01*
G01X36882Y2322D01*
G01X36874Y2283D01*
G01X36866Y2245D01*
G01X36860Y2206D01*
G01X36856Y2167D01*
G01X36852Y2128D01*
G01X36850Y2089D01*
G01X36850Y2050D01*
G01X36850Y400D01*
G01X33900Y400D01*
G01X33900Y1750D01*
G01X33899Y1786D01*
G01X33898Y1823D01*
G01X33896Y1859D01*
G01X33893Y1895D01*
G01X33890Y1932D01*
G01X33886Y1968D01*
G01X33881Y2005D01*
G01X33875Y2041D01*
G01X33868Y2077D01*
G01X33861Y2113D01*
G01X33853Y2149D01*
G01X33844Y2184D01*
G01X33835Y2220D01*
G01X33825Y2255D01*
G01X33814Y2291D01*
G01X33802Y2326D01*
G01X33790Y2361D01*
G01X33776Y2395D01*
G01X33762Y2430D01*
G01X33748Y2464D01*
G01X33732Y2498D01*
G01X33716Y2532D01*
G01X33700Y2565D01*
G01X33682Y2598D01*
G01X33664Y2631D01*
G01X33645Y2664D01*
G01X33625Y2696D01*
G01X33605Y2728D01*
G01X33584Y2760D01*
G01X33563Y2791D01*
G01X33541Y2822D01*
G01X33518Y2853D01*
G01X33494Y2883D01*
G01X33470Y2913D01*
G01X33445Y2943D01*
G01X33420Y2972D01*
G01X33394Y3001D01*
G01X33367Y3029D01*
G01X33340Y3057D01*
G01X33312Y3084D01*
G01X33284Y3111D01*
G01X33255Y3138D01*
G01X33226Y3164D01*
G01X33196Y3189D01*
G01X33165Y3214D01*
G01X33134Y3239D01*
G01X33103Y3263D01*
G01X33071Y3287D01*
G01X33038Y3310D01*
G01X33005Y3332D01*
G01X32972Y3355D01*
G01X32938Y3376D01*
G01X32903Y3397D01*
G01X32869Y3417D01*
G01X32833Y3437D01*
G01X32798Y3457D01*
G01X32762Y3475D01*
G01X32725Y3494D01*
G01X32688Y3511D01*
G01X32651Y3528D01*
G01X32614Y3545D01*
G01X32576Y3560D01*
G01X32538Y3576D01*
G01X32499Y3590D01*
G01X32460Y3604D01*
G01X32421Y3618D01*
G01X32382Y3630D01*
G01X32342Y3642D01*
G01X32302Y3654D01*
G01X32262Y3665D01*
G01X32222Y3675D01*
G01X32181Y3684D01*
G01X32141Y3693D01*
G01X32100Y3702D01*
G01X32059Y3709D01*
G01X32017Y3716D01*
G01X31976Y3723D01*
G01X31934Y3728D01*
G01X31893Y3733D01*
G01X31851Y3738D01*
G01X31809Y3741D01*
G01X31767Y3744D01*
G01X31725Y3746D01*
G01X31684Y3748D01*
G01X31642Y3749D01*
G01X31600Y3750D01*
G01X31560Y3749D01*
G01X31521Y3748D01*
G01X31482Y3746D01*
G01X31443Y3743D01*
G01X31403Y3740D01*
G01X31364Y3736D01*
G01X31325Y3731D01*
G01X31287Y3725D01*
G01X31248Y3718D01*
G01X31209Y3711D01*
G01X31171Y3703D01*
G01X31133Y3694D01*
G01X31095Y3685D01*
G01X31057Y3674D01*
G01X31019Y3663D01*
G01X30981Y3652D01*
G01X30944Y3639D01*
G01X30907Y3626D01*
G01X30871Y3612D01*
G01X30834Y3597D01*
G01X30798Y3582D01*
G01X30762Y3566D01*
G01X30727Y3549D01*
G01X30692Y3532D01*
G01X30657Y3513D01*
G01X30622Y3494D01*
G01X30588Y3475D01*
G01X30555Y3455D01*
G01X30521Y3434D01*
G01X30488Y3412D01*
G01X30456Y3390D01*
G01X30424Y3368D01*
G01X30392Y3344D01*
G01X30361Y3320D01*
G01X30331Y3296D01*
G01X30301Y3270D01*
G01X30271Y3245D01*
G01X30242Y3218D01*
G01X30213Y3191D01*
G01X30185Y3164D01*
G01X30158Y3136D01*
G01X30131Y3107D01*
G01X30104Y3078D01*
G01X30079Y3048D01*
G01X30053Y3018D01*
G01X30029Y2988D01*
G01X30005Y2957D01*
G01X29981Y2925D01*
G01X29959Y2893D01*
G01X29937Y2861D01*
G01X29915Y2828D01*
G01X29894Y2794D01*
G01X29874Y2761D01*
G01X29855Y2727D01*
G01X29836Y2692D01*
G01X29817Y2657D01*
G01X29800Y2622D01*
G01X29783Y2587D01*
G01X29767Y2551D01*
G01X29752Y2515D01*
G01X29737Y2478D01*
G01X29723Y2442D01*
G01X29710Y2405D01*
G01X29697Y2368D01*
G01X29686Y2330D01*
G01X29675Y2292D01*
G01X29664Y2254D01*
G01X29655Y2216D01*
G01X29646Y2178D01*
G01X29638Y2140D01*
G01X29631Y2101D01*
G01X29624Y2062D01*
G01X29618Y2024D01*
G01X29613Y1985D01*
G01X29609Y1946D01*
G01X29606Y1906D01*
G01X29603Y1867D01*
G01X29601Y1828D01*
G01X29600Y1789D01*
G01X29600Y1750D01*
G01X29600Y400D01*
G01X26650Y400D01*
G01X26650Y2050D01*
G01X26649Y2089D01*
G01X26647Y2128D01*
G01X26643Y2167D01*
G01X26639Y2206D01*
G01X26633Y2245D01*
G01X26625Y2283D01*
G01X26617Y2322D01*
G01X26607Y2360D01*
G01X26596Y2397D01*
G01X26583Y2435D01*
G01X26569Y2471D01*
G01X26554Y2508D01*
G01X26538Y2543D01*
G01X26521Y2579D01*
G01X26502Y2613D01*
G01X26482Y2647D01*
G01X26461Y2680D01*
G01X26439Y2713D01*
G01X26416Y2744D01*
G01X26392Y2775D01*
G01X26366Y2805D01*
G01X26340Y2834D01*
G01X26313Y2863D01*
G01X26284Y2890D01*
G01X26255Y2916D01*
G01X26225Y2942D01*
G01X26194Y2966D01*
G01X26163Y2989D01*
G01X26130Y3011D01*
G01X26097Y3032D01*
G01X26063Y3052D01*
G01X26029Y3071D01*
G01X25993Y3088D01*
G01X25958Y3104D01*
G01X25921Y3119D01*
G01X25885Y3133D01*
G01X25847Y3146D01*
G01X25810Y3157D01*
G01X25772Y3167D01*
G01X25733Y3175D01*
G01X25695Y3183D01*
G01X25656Y3189D01*
G01X25617Y3193D01*
G01X25578Y3197D01*
G01X25539Y3199D01*
G01X25500Y3200D01*
G01X25460Y3199D01*
G01X25421Y3197D01*
G01X25382Y3193D01*
G01X25343Y3189D01*
G01X25304Y3183D01*
G01X25266Y3175D01*
G01X25227Y3167D01*
G01X25189Y3157D01*
G01X25152Y3146D01*
G01X25114Y3133D01*
G01X25078Y3119D01*
G01X25041Y3104D01*
G01X25006Y3088D01*
G01X24970Y3071D01*
G01X24936Y3052D01*
G01X24902Y3032D01*
G01X24869Y3011D01*
G01X24836Y2989D01*
G01X24805Y2966D01*
G01X24774Y2942D01*
G01X24744Y2916D01*
G01X24715Y2890D01*
G01X24686Y2863D01*
G01X24659Y2834D01*
G01X24633Y2805D01*
G01X24607Y2775D01*
G01X24583Y2744D01*
G01X24560Y2713D01*
G01X24538Y2680D01*
G01X24517Y2647D01*
G01X24497Y2613D01*
G01X24478Y2579D01*
G01X24461Y2543D01*
G01X24445Y2508D01*
G01X24430Y2471D01*
G01X24416Y2435D01*
G01X24403Y2397D01*
G01X24392Y2360D01*
G01X24382Y2322D01*
G01X24374Y2283D01*
G01X24366Y2245D01*
G01X24360Y2206D01*
G01X24356Y2167D01*
G01X24352Y2128D01*
G01X24350Y2089D01*
G01X24350Y2050D01*
G01X24350Y400D01*
G01X10400Y400D01*
G01X10400Y2500D01*
G01X10398Y2529D01*
G01X10395Y2559D01*
G01X10390Y2588D01*
G01X10383Y2618D01*
G01X10374Y2647D01*
G01X10362Y2676D01*
G01X10349Y2704D01*
G01X10334Y2733D01*
G01X10317Y2760D01*
G01X10297Y2788D01*
G01X10276Y2815D01*
G01X10253Y2841D01*
G01X10229Y2867D01*
G01X10202Y2891D01*
G01X10174Y2916D01*
G01X10144Y2939D01*
G01X10113Y2962D01*
G01X10080Y2984D01*
G01X10045Y3005D01*
G01X10009Y3025D01*
G01X9972Y3044D01*
G01X9933Y3062D01*
G01X9893Y3079D01*
G01X9852Y3096D01*
G01X9810Y3111D01*
G01X9767Y3125D01*
G01X9723Y3137D01*
G01X9678Y3149D01*
G01X9633Y3160D01*
G01X9586Y3169D01*
G01X9539Y3177D01*
G01X9492Y3184D01*
G01X9444Y3189D01*
G01X9396Y3194D01*
G01X9347Y3197D01*
G01X9298Y3199D01*
G01X9250Y3200D01*
G01X9210Y3199D01*
G01X9171Y3197D01*
G01X9132Y3193D01*
G01X9093Y3189D01*
G01X9054Y3183D01*
G01X9016Y3175D01*
G01X8977Y3167D01*
G01X8939Y3157D01*
G01X8902Y3146D01*
G01X8864Y3133D01*
G01X8828Y3119D01*
G01X8791Y3104D01*
G01X8756Y3088D01*
G01X8720Y3071D01*
G01X8686Y3052D01*
G01X8652Y3032D01*
G01X8619Y3011D01*
G01X8586Y2989D01*
G01X8555Y2966D01*
G01X8524Y2942D01*
G01X8494Y2916D01*
G01X8465Y2890D01*
G01X8436Y2863D01*
G01X8409Y2834D01*
G01X8383Y2805D01*
G01X8357Y2775D01*
G01X8333Y2744D01*
G01X8310Y2713D01*
G01X8288Y2680D01*
G01X8267Y2647D01*
G01X8247Y2613D01*
G01X8228Y2579D01*
G01X8211Y2543D01*
G01X8195Y2508D01*
G01X8180Y2471D01*
G01X8166Y2435D01*
G01X8153Y2397D01*
G01X8142Y2360D01*
G01X8132Y2322D01*
G01X8124Y2283D01*
G01X8116Y2245D01*
G01X8110Y2206D01*
G01X8106Y2167D01*
G01X8102Y2128D01*
G01X8100Y2089D01*
G01X8100Y2050D01*
G01X8100Y400D01*
G01X3900Y400D01*
G01X3900Y1750D01*
G01X3899Y1789D01*
G01X3898Y1828D01*
G01X3896Y1867D01*
G01X3894Y1906D01*
G01X3891Y1946D01*
G01X3887Y1985D01*
G01X3882Y2024D01*
G01X3877Y2063D01*
G01X3871Y2101D01*
G01X3864Y2140D01*
G01X3856Y2179D01*
G01X3848Y2217D01*
G01X3839Y2255D01*
G01X3830Y2293D01*
G01X3819Y2331D01*
G01X3808Y2369D01*
G01X3797Y2406D01*
G01X3784Y2444D01*
G01X3771Y2481D01*
G01X3758Y2518D01*
G01X3743Y2554D01*
G01X3728Y2590D01*
G01X3713Y2626D01*
G01X3696Y2662D01*
G01X3679Y2697D01*
G01X3662Y2733D01*
G01X3643Y2767D01*
G01X3624Y2802D01*
G01X3605Y2836D01*
G01X3585Y2870D01*
G01X3564Y2903D01*
G01X3543Y2936D01*
G01X3521Y2968D01*
G01X3498Y3000D01*
G01X3475Y3032D01*
G01X3451Y3064D01*
G01X3427Y3094D01*
G01X3402Y3125D01*
G01X3377Y3155D01*
G01X3351Y3184D01*
G01X3324Y3213D01*
G01X3297Y3242D01*
G01X3270Y3270D01*
G01X3242Y3297D01*
G01X3213Y3324D01*
G01X3184Y3351D01*
G01X3155Y3377D01*
G01X3125Y3402D01*
G01X3094Y3427D01*
G01X3064Y3451D01*
G01X3032Y3475D01*
G01X3000Y3498D01*
G01X2968Y3521D01*
G01X2936Y3543D01*
G01X2903Y3564D01*
G01X2870Y3585D01*
G01X2836Y3605D01*
G01X2802Y3624D01*
G01X2767Y3643D01*
G01X2733Y3662D01*
G01X2697Y3679D01*
G01X2662Y3696D01*
G01X2626Y3713D01*
G01X2590Y3728D01*
G01X2554Y3743D01*
G01X2518Y3758D01*
G01X2481Y3771D01*
G01X2444Y3784D01*
G01X2406Y3797D01*
G01X2369Y3808D01*
G01X2331Y3819D01*
G01X2293Y3830D01*
G01X2255Y3839D01*
G01X2217Y3848D01*
G01X2179Y3856D01*
G01X2140Y3864D01*
G01X2101Y3871D01*
G01X2063Y3877D01*
G01X2024Y3882D01*
G01X1985Y3887D01*
G01X1946Y3891D01*
G01X1906Y3894D01*
G01X1867Y3896D01*
G01X1828Y3898D01*
G01X1789Y3899D01*
G01X1750Y3900D01*
G01X400Y3900D01*
G01X400Y41400D01*
G01X63100Y41400D01*
G01X63100Y3900D01*
G37*

G04 -------------------- Draw copper area clearances (negative)*
%LPC*%

G04 Draw clearances for pads*
G54D11*
G01X20300Y34700D03*
G01X20300Y35605D03*
G01X20300Y36511D03*
G54D12*
G01X22859Y35605D03*
G54D13*
G01X17300Y35700D03*
G01X17300Y34597D03*
G54D14*
G01X61300Y20100D03*
G54D15*
G01X60300Y20100D03*
G01X59300Y20100D03*
G01X58300Y20100D03*
G01X57300Y20100D03*
G01X56300Y20100D03*
G01X55300Y20100D03*
G01X54300Y20100D03*
G01X53300Y20100D03*
G54D16*
G01X52300Y20100D03*
G54D17*
G54D15*
G01X51300Y20100D03*
G01X50300Y20100D03*
G01X49300Y20100D03*
G01X48300Y20100D03*
G01X47300Y20100D03*
G01X46300Y20100D03*
G01X45300Y20100D03*
G01X44300Y20100D03*
G01X43300Y20100D03*
G01X42300Y20100D03*
G01X42300Y26100D03*
G01X43300Y26100D03*
G01X44300Y26100D03*
G01X45300Y26100D03*
G01X46300Y26100D03*
G01X47300Y26100D03*
G01X48300Y26100D03*
G01X49300Y26100D03*
G01X50300Y26100D03*
G54D16*
G01X51300Y26100D03*
G54D17*
G54D15*
G01X52300Y26100D03*
G01X53300Y26100D03*
G01X54300Y26100D03*
G01X55300Y26100D03*
G01X56300Y26100D03*
G01X57300Y26100D03*
G01X58300Y26100D03*
G01X59300Y26100D03*
G01X60300Y26100D03*
G01X61300Y26100D03*
G54D13*
G01X44900Y17500D03*
G01X44900Y18602D03*
G01X52900Y18500D03*
G01X52900Y17397D03*
G54D18*
G01X52700Y29500D03*
G01X53802Y29500D03*
G01X21100Y42700D03*
G01X19997Y42700D03*
G01X44800Y39400D03*
G01X45902Y39400D03*
G54D19*
G01X30600Y23400D03*
G01X30600Y24502D03*
G01X16400Y23400D03*
G01X16400Y24502D03*
G01X4100Y23400D03*
G01X4100Y24502D03*
G54D18*
G01X20400Y27100D03*
G01X21502Y27100D03*
G54D20*
G01X35600Y25000D03*
G01X35600Y24500D03*
G01X35600Y24000D03*
G01X35600Y23500D03*
G01X35600Y23000D03*
G01X35600Y22500D03*
G01X35600Y22000D03*
G01X35600Y21500D03*
G01X33631Y21500D03*
G01X33631Y22000D03*
G01X33631Y22500D03*
G01X33631Y23000D03*
G01X33631Y23500D03*
G01X33631Y24000D03*
G01X33631Y24500D03*
G01X33631Y25000D03*
G01X21500Y25000D03*
G01X21500Y24500D03*
G01X21500Y24000D03*
G01X21500Y23500D03*
G01X21500Y23000D03*
G01X21500Y22500D03*
G01X21500Y22000D03*
G01X21500Y21500D03*
G01X19531Y21500D03*
G01X19531Y22000D03*
G01X19531Y22500D03*
G01X19531Y23000D03*
G01X19531Y23500D03*
G01X19531Y24000D03*
G01X19531Y24500D03*
G01X19531Y25000D03*
G01X9500Y25000D03*
G01X9500Y24500D03*
G01X9500Y24000D03*
G01X9500Y23500D03*
G01X9500Y23000D03*
G01X9500Y22500D03*
G01X9500Y22000D03*
G01X9500Y21500D03*
G01X7531Y21500D03*
G01X7531Y22000D03*
G01X7531Y22500D03*
G01X7531Y23000D03*
G01X7531Y23500D03*
G01X7531Y24000D03*
G01X7531Y24500D03*
G01X7531Y25000D03*
G54D21*
G01X6900Y37200D03*
G01X6900Y35148D03*
G01X3459Y35148D03*
G01X3459Y37200D03*
G54D22*
G01X1574Y35039D03*
G54D23*
G01X1574Y34039D03*
G54D22*
G01X1574Y38582D03*
G54D23*
G01X1574Y37582D03*
G54D24*
G01X59300Y31900D03*
G01X59300Y32400D03*
G01X59300Y32900D03*
G01X59300Y33400D03*
G01X59300Y33900D03*
G01X60973Y33900D03*
G01X60973Y33400D03*
G01X60973Y32900D03*
G01X60973Y32400D03*
G01X60973Y31900D03*
G54D25*
G01X60126Y32150D03*
G01X60126Y33650D03*
G54D22*
G01X54763Y35669D03*
G54D23*
G01X54763Y36669D03*
G01X54763Y37669D03*
G54D26*
G01X51300Y39500D03*
G54D17*
G54D27*
G01X51300Y38720D03*
G01X51300Y37930D03*
G01X51300Y37137D03*
G01X51300Y36350D03*
G01X51300Y35562D03*
G01X51300Y34775D03*
G01X51300Y33988D03*
G01X51300Y33200D03*
G01X51300Y32413D03*
G01X42638Y32413D03*
G01X42638Y33200D03*
G01X42638Y33988D03*
G01X42638Y34775D03*
G01X42638Y35562D03*
G01X42638Y36350D03*
G01X42638Y37137D03*
G01X42638Y37925D03*
G01X42638Y38712D03*
G01X42640Y39500D03*
G54D28*
G01X47400Y17900D03*
G01X51140Y17900D03*
G54D14*
G01X8000Y25900D03*
G54D15*
G01X9000Y25900D03*
G01X10000Y25900D03*
G01X27000Y25900D03*
G01X28000Y25900D03*
G01X29000Y25900D03*
G01X29000Y40900D03*
G01X28000Y40900D03*
G01X27000Y40900D03*
G01X26000Y40900D03*
G01X25000Y40900D03*
G01X24000Y40900D03*
G54D16*
G01X23000Y40900D03*
G54D17*
G54D16*
G01X22000Y40900D03*
G54D17*
G54D16*
G01X21000Y40900D03*
G54D17*
G54D15*
G01X20000Y40900D03*
G01X19000Y40900D03*
G01X18000Y40900D03*
G01X17000Y40900D03*
G01X16000Y40900D03*
G01X15000Y40900D03*
G01X14000Y40900D03*
G01X13000Y40900D03*
G01X12000Y40900D03*
G01X11000Y40900D03*
G01X10000Y40900D03*
G01X9000Y40900D03*
G01X8000Y40900D03*
G54D29*
G01X12637Y37106D03*
G01X12637Y34862D03*
G54D13*
G01X8740Y35980D03*
G01X8740Y37082D03*
G54D18*
G01X44800Y37700D03*
G01X45902Y37700D03*

G04 Draw clearances for traces*
G54D30*
G01X8500Y11000D03*
G01X61300Y11000D03*
G54D31*
G01X8500Y11000D02*
G01X61300Y11000D01*
G54D30*
G01X27700Y19400D03*
G01X36800Y19400D03*
G54D31*
G01X27700Y19400D02*
G01X36800Y19400D01*
G54D30*
G01X36800Y21500D03*
G54D31*
G01X36800Y21500D02*
G01X35600Y21500D01*
G54D30*
G01X34700Y13400D03*
G01X18400Y13392D03*
G54D31*
G01X34700Y13400D02*
G01X18400Y13392D01*
G54D30*
G01X18400Y21500D03*
G54D31*
G01X18400Y21500D02*
G01X19531Y21500D01*
G54D30*
G01X60300Y10700D03*
G01X15500Y10700D03*
G54D31*
G01X60300Y10700D02*
G01X15500Y10700D01*
G54D30*
G01X46300Y22200D03*
G54D31*
G01X46300Y22200D02*
G01X46300Y20100D01*
G54D30*
G01X44225Y23000D03*
G54D31*
G01X44225Y23000D02*
G01X44300Y20100D01*
G54D30*
G01X20700Y19700D03*
G01X37100Y19700D03*
G54D31*
G01X20700Y19700D02*
G01X37100Y19700D01*
G54D30*
G01X37100Y22000D03*
G54D31*
G01X37100Y22000D02*
G01X35600Y22000D01*
G54D30*
G01X26700Y14900D03*
G01X23100Y14900D03*
G54D31*
G01X26700Y14900D02*
G01X23100Y14900D01*
G54D30*
G01X23100Y21500D03*
G54D31*
G01X23100Y21500D02*
G01X21500Y21500D01*
G54D30*
G01X22500Y10400D03*
G01X59300Y10400D03*
G54D31*
G01X22500Y10400D02*
G01X59300Y10400D01*
G54D30*
G01X13700Y20000D03*
G01X37400Y20000D03*
G54D31*
G01X13700Y20000D02*
G01X37400Y20000D01*
G54D30*
G01X37400Y22500D03*
G54D31*
G01X37400Y22500D02*
G01X35600Y22500D01*
G54D30*
G01X20697Y13700D03*
G01X23400Y13700D03*
G54D31*
G01X20697Y13700D02*
G01X23400Y13700D01*
G54D30*
G01X23400Y22000D03*
G54D31*
G01X23400Y22000D02*
G01X21500Y22000D01*
G01X21500Y24500D02*
G01X26700Y24500D01*
G01X26700Y24500D02*
G01X27200Y24000D01*
G01X27200Y24000D02*
G01X33631Y24000D01*
G01X42300Y26100D02*
G01X42300Y23400D01*
G01X42300Y23400D02*
G01X39000Y23400D01*
G01X39000Y23400D02*
G01X39000Y24500D01*
G01X39000Y24500D02*
G01X35600Y24500D01*
G54D30*
G01X58300Y10100D03*
G01X29500Y10100D03*
G54D31*
G01X58300Y10100D02*
G01X29500Y10100D01*
G54D30*
G01X6700Y20300D03*
G01X37700Y20300D03*
G54D31*
G01X6700Y20300D02*
G01X37700Y20300D01*
G54D30*
G01X37700Y23000D03*
G54D31*
G01X37700Y23000D02*
G01X35600Y23000D01*
G54D30*
G01X13700Y14000D03*
G01X23700Y14000D03*
G54D31*
G01X13700Y14000D02*
G01X23700Y14000D01*
G54D30*
G01X23700Y22500D03*
G54D31*
G01X23700Y22500D02*
G01X21500Y22500D01*
G01X30600Y24502D02*
G01X33631Y24500D01*
G54D32*
G01X1574Y37582D02*
G01X1574Y35039D01*
G54D33*
G01X49300Y15500D03*
G01X56300Y15500D03*
G01X7300Y15500D03*
G01X14300Y15500D03*
G01X14300Y15500D03*
G01X21300Y15500D03*
G01X21300Y15500D03*
G01X28300Y15500D03*
G01X49300Y15500D03*
G01X42300Y15500D03*
G01X42300Y15500D03*
G01X35300Y15500D03*
G01X35300Y15500D03*
G01X28300Y15500D03*
G01X51300Y29500D03*
G54D30*
G01X36500Y9800D03*
G01X57000Y9800D03*
G54D31*
G01X36500Y9800D02*
G01X57000Y9800D01*
G54D30*
G01X50300Y21950D03*
G54D31*
G01X50300Y21950D02*
G01X50300Y26100D01*
G54D30*
G01X55700Y17000D03*
G54D31*
G01X55700Y17000D02*
G01X55400Y16700D01*
G01X55400Y16700D02*
G01X52000Y16700D01*
G01X52000Y16700D02*
G01X51700Y17000D01*
G01X51700Y17000D02*
G01X44200Y17000D01*
G01X44200Y17000D02*
G01X43780Y17300D01*
G54D30*
G01X32000Y17300D03*
G54D31*
G01X43780Y17300D02*
G01X32000Y17300D01*
G54D30*
G01X32000Y22900D03*
G54D31*
G01X32000Y22900D02*
G01X33200Y22900D01*
G01X33200Y22900D02*
G01X33631Y23000D01*
G54D30*
G01X8400Y14300D03*
G01X24000Y14300D03*
G54D31*
G01X8400Y14300D02*
G01X24000Y14300D01*
G54D30*
G01X24000Y23000D03*
G54D31*
G01X24000Y23000D02*
G01X21500Y23000D01*
G01X9500Y24500D02*
G01X13700Y24500D01*
G01X13700Y24500D02*
G01X14200Y24000D01*
G01X14200Y24000D02*
G01X19531Y24000D01*
G54D32*
G01X1574Y34039D02*
G01X3459Y35148D01*
G54D30*
G01X56600Y9500D03*
G01X43500Y9500D03*
G54D31*
G01X56600Y9500D02*
G01X43500Y9500D01*
G54D30*
G01X55700Y12500D03*
G01X17500Y12500D03*
G54D31*
G01X55700Y12500D02*
G01X17500Y12500D01*
G54D30*
G01X17500Y22900D03*
G54D31*
G01X17500Y22900D02*
G01X19300Y22900D01*
G01X19300Y22900D02*
G01X19531Y23000D01*
G01X16400Y24502D02*
G01X19531Y24500D01*
G54D32*
G01X1574Y38582D02*
G01X3459Y37200D01*
G54D30*
G01X50450Y11300D03*
G01X55000Y11300D03*
G54D31*
G01X50450Y11300D02*
G01X55000Y11300D01*
G01X4100Y24502D02*
G01X7531Y24500D01*
G54D32*
G01X8740Y37082D02*
G01X12637Y37106D01*
G01X8740Y37082D02*
G01X6900Y37200D01*
G01X20300Y36511D02*
G01X17288Y36511D01*
G01X17288Y36511D02*
G01X16700Y37100D01*
G01X16700Y37100D02*
G01X12637Y37106D01*
G54D30*
G01X45230Y22600D03*
G54D31*
G01X45230Y22600D02*
G01X45300Y20100D01*
G01X44900Y18602D02*
G01X47400Y17900D01*
G01X47400Y17900D02*
G01X49300Y20100D01*
G54D30*
G01X50100Y16300D03*
G54D31*
G01X50100Y16300D02*
G01X50100Y16700D01*
G54D30*
G01X5300Y16700D03*
G54D31*
G01X50100Y16700D02*
G01X5300Y16700D01*
G54D30*
G01X5300Y22500D03*
G54D31*
G01X5300Y22500D02*
G01X7531Y22500D01*
G01X51140Y17900D02*
G01X50300Y20100D01*
G01X52900Y17397D02*
G01X51140Y17900D01*
G01X43300Y26100D02*
G01X43400Y21800D01*
G01X43400Y21800D02*
G01X43400Y20800D01*
G01X43400Y20800D02*
G01X3300Y20800D01*
G01X3300Y20800D02*
G01X3300Y24000D01*
G01X3300Y24000D02*
G01X7531Y24000D01*
G54D30*
G01X42299Y17000D03*
G01X5600Y17000D03*
G54D31*
G01X42299Y17000D02*
G01X5600Y17000D01*
G54D30*
G01X5600Y22000D03*
G54D31*
G01X5600Y22000D02*
G01X7531Y22000D01*
G01X59300Y31900D02*
G01X57900Y31900D01*
G01X57900Y31900D02*
G01X57900Y27400D01*
G01X57900Y27400D02*
G01X47800Y27400D01*
G01X47800Y27400D02*
G01X47800Y25550D01*
G01X47800Y25550D02*
G01X45300Y25550D01*
G01X45300Y25550D02*
G01X45300Y26100D01*
G54D30*
G01X10700Y23500D03*
G54D31*
G01X9500Y23500D02*
G01X10700Y23500D01*
G54D30*
G01X22700Y23500D03*
G54D31*
G01X22700Y23500D02*
G01X21500Y23500D01*
G54D30*
G01X22700Y23500D03*
G54D31*
G01X21500Y23500D02*
G01X22700Y23500D01*
G54D30*
G01X38000Y23500D03*
G54D31*
G01X38000Y23500D02*
G01X35600Y23500D01*
G54D30*
G01X38000Y23500D03*
G54D31*
G01X38000Y23500D02*
G01X35600Y23500D01*
G01X35600Y25000D02*
G01X34700Y25000D01*
G01X34700Y25000D02*
G01X34700Y23500D01*
G01X34700Y23500D02*
G01X33631Y23500D01*
G54D32*
G01X8740Y35980D02*
G01X12637Y34862D01*
G01X8740Y35980D02*
G01X6900Y35148D01*
G54D31*
G01X9500Y25000D02*
G01X8500Y25000D01*
G01X8500Y25000D02*
G01X8500Y23500D01*
G01X8500Y23500D02*
G01X7531Y23500D01*
G01X21500Y25000D02*
G01X20500Y25000D01*
G01X20500Y25000D02*
G01X20500Y23500D01*
G01X20500Y23500D02*
G01X19531Y23500D01*
G54D30*
G01X5900Y35200D03*
G54D32*
G01X6900Y35148D02*
G01X5900Y35200D01*
G54D30*
G01X10700Y25000D03*
G54D32*
G01X10700Y25000D02*
G01X9500Y25000D01*
G54D30*
G01X21500Y28200D03*
G54D32*
G01X21502Y27100D02*
G01X21500Y28200D01*
G54D30*
G01X35600Y26000D03*
G54D32*
G01X35600Y26000D02*
G01X35600Y25000D01*
G54D34*
G01X52900Y18500D02*
G01X54100Y18500D01*
G01X54100Y18500D02*
G01X54100Y16900D01*
G01X54100Y16900D02*
G01X52100Y16900D01*
G01X52100Y16900D02*
G01X51700Y17300D01*
G01X51700Y17300D02*
G01X45100Y17300D01*
G01X45100Y17300D02*
G01X44900Y17500D01*
G54D30*
G01X47300Y39400D03*
G54D32*
G01X45902Y39400D02*
G01X47300Y39400D01*
G54D30*
G01X52300Y30800D03*
G54D32*
G01X52300Y30800D02*
G01X53800Y30800D01*
G01X53800Y30800D02*
G01X53802Y29500D01*
G54D30*
G01X61000Y34500D03*
G54D35*
G01X60973Y33900D02*
G01X61000Y34500D01*
G54D30*
G01X52300Y30800D03*
G54D32*
G01X52300Y30800D02*
G01X53800Y30800D01*
G01X53800Y30800D02*
G01X53802Y29500D01*
G54D31*
G01X52300Y26100D02*
G01X52300Y23800D01*
G01X52300Y23800D02*
G01X52800Y23300D01*
G01X52800Y23300D02*
G01X52800Y18500D01*
G01X52800Y18500D02*
G01X52900Y18500D01*
G54D30*
G01X10700Y25000D03*
G54D32*
G01X10700Y25000D02*
G01X9500Y25000D01*
G54D30*
G01X22700Y25000D03*
G54D32*
G01X21500Y25000D02*
G01X22700Y25000D01*
G54D30*
G01X21502Y28197D03*
G54D32*
G01X21502Y28197D02*
G01X21502Y27100D01*
G54D30*
G01X10700Y25000D03*
G54D32*
G01X9500Y25000D02*
G01X10700Y25000D01*
G54D30*
G01X22700Y25000D03*
G54D32*
G01X22700Y25000D02*
G01X21500Y25000D01*
G01X30600Y23400D02*
G01X30800Y23500D01*
G54D31*
G01X30800Y23500D02*
G01X33631Y23500D01*
G54D34*
G01X60973Y31900D02*
G01X60450Y31900D01*
G01X60450Y31900D02*
G01X60450Y33900D01*
G01X60450Y33900D02*
G01X60973Y33900D01*
G54D32*
G01X16400Y23400D02*
G01X16600Y23500D01*
G54D31*
G01X16600Y23500D02*
G01X19531Y23500D01*
G54D32*
G01X4100Y23400D02*
G01X4300Y23500D01*
G54D31*
G01X4300Y23500D02*
G01X7531Y23500D01*
G54D32*
G01X45902Y37700D02*
G01X45902Y39400D01*
G54D30*
G01X20000Y42000D03*
G54D32*
G01X20000Y40900D02*
G01X20000Y42000D01*
G54D30*
G01X5900Y35200D03*
G54D32*
G01X5900Y35200D02*
G01X6900Y35148D01*
G54D30*
G01X21500Y28200D03*
G54D32*
G01X21502Y27100D02*
G01X21500Y28200D01*
G54D30*
G01X20300Y33850D03*
G54D32*
G01X20300Y33850D02*
G01X20300Y34700D01*
G01X17300Y34597D02*
G01X20300Y34700D01*
G01X12637Y34862D02*
G01X17300Y34597D01*
G54D30*
G01X47300Y39400D03*
G54D32*
G01X45902Y39400D02*
G01X47300Y39400D01*
G54D30*
G01X20000Y42000D03*
G54D32*
G01X20000Y42000D02*
G01X19997Y42700D01*
G01X20000Y40900D02*
G01X19997Y42700D01*
G54D30*
G01X35300Y18800D03*
G01X5900Y18800D03*
G54D31*
G01X35300Y18800D02*
G01X5900Y18800D01*
G54D30*
G01X5900Y21500D03*
G54D31*
G01X5900Y21500D02*
G01X7531Y21500D01*
G01X59300Y32900D02*
G01X57500Y32900D01*
G01X57500Y32900D02*
G01X57500Y27800D01*
G01X57500Y27800D02*
G01X46300Y27800D01*
G01X46300Y27800D02*
G01X46300Y26100D01*
G01X51300Y38720D02*
G01X49000Y38700D01*
G01X49000Y38700D02*
G01X49000Y30650D01*
G01X49000Y30650D02*
G01X41800Y30650D01*
G54D30*
G01X41800Y23800D03*
G54D31*
G01X41800Y30650D02*
G01X41800Y23800D01*
G54D30*
G01X48300Y23800D03*
G54D31*
G01X48300Y23800D02*
G01X48300Y20100D01*
G54D30*
G01X28300Y19100D03*
G01X10700Y19100D03*
G54D31*
G01X28300Y19100D02*
G01X10700Y19100D01*
G54D30*
G01X10700Y21500D03*
G54D31*
G01X10700Y21500D02*
G01X9500Y21500D01*
G01X59300Y32400D02*
G01X57700Y32400D01*
G01X57700Y32400D02*
G01X57700Y27600D01*
G01X57700Y27600D02*
G01X47300Y27600D01*
G01X47300Y27600D02*
G01X47300Y26100D01*
G54D30*
G01X21300Y19400D03*
G01X11100Y19400D03*
G54D31*
G01X21300Y19400D02*
G01X11100Y19400D01*
G54D30*
G01X11100Y22000D03*
G54D31*
G01X11100Y22000D02*
G01X9500Y22000D01*
G01X48300Y26100D02*
G01X48300Y25250D01*
G01X48300Y25250D02*
G01X44800Y25250D01*
G01X44800Y25250D02*
G01X44800Y28000D01*
G01X44800Y28000D02*
G01X57300Y28000D01*
G01X57300Y28000D02*
G01X57300Y33900D01*
G01X57300Y33900D02*
G01X59300Y33900D01*
G01X51300Y37930D02*
G01X50000Y37950D01*
G01X50000Y37950D02*
G01X50000Y29994D01*
G01X50000Y29994D02*
G01X42800Y30004D01*
G54D30*
G01X42800Y23400D03*
G54D31*
G01X42800Y30004D02*
G01X42800Y23400D01*
G54D30*
G01X47300Y23400D03*
G54D31*
G01X47300Y23400D02*
G01X47300Y20100D01*
G54D30*
G01X14300Y18500D03*
G01X11400Y18500D03*
G54D31*
G01X14300Y18500D02*
G01X11400Y18500D01*
G54D30*
G01X11400Y22500D03*
G54D31*
G01X11400Y22500D02*
G01X9500Y22500D01*
G54D30*
G01X47700Y19200D03*
G54D31*
G01X47700Y19200D02*
G01X41959Y19200D01*
G01X41959Y19200D02*
G01X38600Y19100D01*
G54D30*
G01X32300Y19100D03*
G54D31*
G01X38600Y19100D02*
G01X32300Y19100D01*
G54D30*
G01X32300Y22500D03*
G54D31*
G01X32300Y22500D02*
G01X33631Y22500D01*
G54D30*
G01X7300Y20000D03*
G01X11700Y20000D03*
G54D31*
G01X7300Y20000D02*
G01X11700Y20000D01*
G54D30*
G01X11700Y23000D03*
G54D31*
G01X11700Y23000D02*
G01X9500Y23000D01*
G54D30*
G01X10700Y24000D03*
G54D31*
G01X9500Y24000D02*
G01X10700Y24000D01*
G54D30*
G01X22700Y24000D03*
G54D31*
G01X22700Y24000D02*
G01X21500Y24000D01*
G54D30*
G01X22700Y24000D03*
G54D31*
G01X21500Y24000D02*
G01X22700Y24000D01*
G54D30*
G01X38300Y24000D03*
G54D31*
G01X38300Y24000D02*
G01X35600Y24000D01*
G54D30*
G01X38300Y24000D03*
G54D31*
G01X38300Y24000D02*
G01X35600Y24000D01*
G01X60973Y32900D02*
G01X62300Y32900D01*
G01X62300Y32900D02*
G01X62300Y22300D01*
G01X62300Y22300D02*
G01X53300Y22300D01*
G01X53300Y22300D02*
G01X53300Y20100D01*
G01X60973Y32900D02*
G01X62300Y32900D01*
G01X62300Y32900D02*
G01X62300Y35000D01*
G01X62300Y35000D02*
G01X53600Y35000D01*
G01X53600Y35000D02*
G01X52249Y36350D01*
G01X52249Y36350D02*
G01X51300Y36350D01*
G54D30*
G01X39600Y16400D03*
G01X32600Y16400D03*
G54D31*
G01X39600Y16400D02*
G01X32600Y16400D01*
G54D30*
G01X32596Y22000D03*
G54D31*
G01X32596Y22000D02*
G01X33631Y22000D01*
G54D30*
G01X48699Y12800D03*
G01X17800Y12800D03*
G54D31*
G01X48699Y12800D02*
G01X17800Y12800D01*
G54D30*
G01X17800Y22500D03*
G54D31*
G01X17800Y22500D02*
G01X19531Y22500D01*
G54D30*
G01X57000Y15900D03*
G01X5000Y15900D03*
G54D31*
G01X57000Y15900D02*
G01X5000Y15900D01*
G54D30*
G01X5000Y23000D03*
G54D31*
G01X5000Y23000D02*
G01X7531Y23000D01*
G54D30*
G01X34700Y21100D03*
G54D31*
G01X34700Y21100D02*
G01X33677Y21100D01*
G01X33677Y21100D02*
G01X33631Y21500D01*
G54D30*
G01X41697Y13100D03*
G01X18100Y13100D03*
G54D31*
G01X41697Y13100D02*
G01X18100Y13100D01*
G54D30*
G01X18100Y22000D03*
G54D31*
G01X18100Y22000D02*
G01X19531Y22000D01*

G04 Draw clearances for text*

G04 -------------- Draw Parts, Pads, Traces, Vias and Text (positive)*
%LPD*%
G04 Draw part U3*
G54D36*
G01X20300Y34700D03*
G01X20300Y35605D03*
G01X20300Y36511D03*
G54D37*
G01X22859Y35605D03*
G04 Draw part C3*
G54D38*
G01X17300Y35700D03*
G01X17300Y34597D03*
G04 Draw part U1*
G54D39*
G01X61300Y20100D03*
G54D40*
G01X60300Y20100D03*
G01X59300Y20100D03*
G01X58300Y20100D03*
G01X57300Y20100D03*
G01X56300Y20100D03*
G01X55300Y20100D03*
G01X54300Y20100D03*
G01X53300Y20100D03*
G01X52300Y20100D03*
G01X51300Y20100D03*
G01X50300Y20100D03*
G01X49300Y20100D03*
G01X48300Y20100D03*
G01X47300Y20100D03*
G01X46300Y20100D03*
G01X45300Y20100D03*
G01X44300Y20100D03*
G01X43300Y20100D03*
G01X42300Y20100D03*
G01X42300Y26100D03*
G01X43300Y26100D03*
G01X44300Y26100D03*
G01X45300Y26100D03*
G01X46300Y26100D03*
G01X47300Y26100D03*
G01X48300Y26100D03*
G01X49300Y26100D03*
G01X50300Y26100D03*
G01X51300Y26100D03*
G01X52300Y26100D03*
G01X53300Y26100D03*
G01X54300Y26100D03*
G01X55300Y26100D03*
G01X56300Y26100D03*
G01X57300Y26100D03*
G01X58300Y26100D03*
G01X59300Y26100D03*
G01X60300Y26100D03*
G01X61300Y26100D03*
G04 Draw part C6*
G54D38*
G01X44900Y17500D03*
G01X44900Y18602D03*
G04 Draw part C7*
G01X52900Y18500D03*
G01X52900Y17397D03*
G04 Draw part S1*
G04 Draw part S2*
G04 Draw part S3*
G04 Draw part S5*
G04 Draw part S4*
G04 Draw part S6*
G04 Draw part S7*
G04 Draw part S8*
G04 Draw part C4*
G54D41*
G01X52700Y29500D03*
G01X53802Y29500D03*
G04 Draw part C5*
G01X21100Y42700D03*
G01X19997Y42700D03*
G04 Draw part C8*
G01X44800Y39400D03*
G01X45902Y39400D03*
G04 Draw part R7*
G54D42*
G01X30600Y23400D03*
G01X30600Y24502D03*
G04 Draw part R8*
G01X16400Y23400D03*
G01X16400Y24502D03*
G04 Draw part R9*
G01X4100Y23400D03*
G01X4100Y24502D03*
G04 Draw part C9*
G54D41*
G01X20400Y27100D03*
G01X21502Y27100D03*
G04 Draw part D3*
G04 Draw part D4*
G04 Draw part D5*
G04 Draw part D6*
G04 Draw part D7*
G04 Draw part D8*
G04 Draw part D9*
G04 Draw part D10*
G04 Draw part U7*
G54D43*
G01X35600Y25000D03*
G01X35600Y24500D03*
G01X35600Y24000D03*
G01X35600Y23500D03*
G01X35600Y23000D03*
G01X35600Y22500D03*
G01X35600Y22000D03*
G01X35600Y21500D03*
G01X33631Y21500D03*
G01X33631Y22000D03*
G01X33631Y22500D03*
G01X33631Y23000D03*
G01X33631Y23500D03*
G01X33631Y24000D03*
G01X33631Y24500D03*
G01X33631Y25000D03*
G04 Draw part U8*
G01X21500Y25000D03*
G01X21500Y24500D03*
G01X21500Y24000D03*
G01X21500Y23500D03*
G01X21500Y23000D03*
G01X21500Y22500D03*
G01X21500Y22000D03*
G01X21500Y21500D03*
G01X19531Y21500D03*
G01X19531Y22000D03*
G01X19531Y22500D03*
G01X19531Y23000D03*
G01X19531Y23500D03*
G01X19531Y24000D03*
G01X19531Y24500D03*
G01X19531Y25000D03*
G04 Draw part U9*
G01X9500Y25000D03*
G01X9500Y24500D03*
G01X9500Y24000D03*
G01X9500Y23500D03*
G01X9500Y23000D03*
G01X9500Y22500D03*
G01X9500Y22000D03*
G01X9500Y21500D03*
G01X7531Y21500D03*
G01X7531Y22000D03*
G01X7531Y22500D03*
G01X7531Y23000D03*
G01X7531Y23500D03*
G01X7531Y24000D03*
G01X7531Y24500D03*
G01X7531Y25000D03*
G04 Draw part D1*
G54D44*
G01X6900Y37200D03*
G01X6900Y35148D03*
G01X3459Y35148D03*
G01X3459Y37200D03*
G04 Draw part J1*
G54D45*
G01X1574Y35039D03*
G54D46*
G01X1574Y34039D03*
G04 Draw part J2*
G54D45*
G01X1574Y38582D03*
G54D46*
G01X1574Y37582D03*
G04 Draw part J5*
G54D47*
G01X59300Y31900D03*
G01X59300Y32400D03*
G01X59300Y32900D03*
G01X59300Y33400D03*
G01X59300Y33900D03*
G01X60973Y33900D03*
G01X60973Y33400D03*
G01X60973Y32900D03*
G01X60973Y32400D03*
G01X60973Y31900D03*
G04 Draw part J3*
G54D45*
G01X54763Y35669D03*
G54D46*
G01X54763Y36669D03*
G01X54763Y37669D03*
G04 Draw part U2*
G54D48*
G01X51300Y39500D03*
G01X51300Y38720D03*
G01X51300Y37930D03*
G01X51300Y37137D03*
G01X51300Y36350D03*
G01X51300Y35562D03*
G01X51300Y34775D03*
G01X51300Y33988D03*
G01X51300Y33200D03*
G01X51300Y32413D03*
G01X42638Y32413D03*
G01X42638Y33200D03*
G01X42638Y33988D03*
G01X42638Y34775D03*
G01X42638Y35562D03*
G01X42638Y36350D03*
G01X42638Y37137D03*
G01X42638Y37925D03*
G01X42638Y38712D03*
G01X42640Y39500D03*
G04 Draw part X1*
G54D49*
G01X47400Y17900D03*
G01X51140Y17900D03*
G04 Draw part U6*
G54D39*
G01X8000Y25900D03*
G54D40*
G01X9000Y25900D03*
G01X10000Y25900D03*
G01X27000Y25900D03*
G01X28000Y25900D03*
G01X29000Y25900D03*
G01X29000Y40900D03*
G01X28000Y40900D03*
G01X27000Y40900D03*
G01X26000Y40900D03*
G01X25000Y40900D03*
G01X24000Y40900D03*
G01X23000Y40900D03*
G01X22000Y40900D03*
G01X21000Y40900D03*
G01X20000Y40900D03*
G01X19000Y40900D03*
G01X18000Y40900D03*
G01X17000Y40900D03*
G01X16000Y40900D03*
G01X15000Y40900D03*
G01X14000Y40900D03*
G01X13000Y40900D03*
G01X12000Y40900D03*
G01X11000Y40900D03*
G01X10000Y40900D03*
G01X9000Y40900D03*
G01X8000Y40900D03*
G04 Draw part C1*
G54D50*
G01X12637Y37106D03*
G01X12637Y34862D03*
G04 Draw part V1*
G54D38*
G01X8740Y35980D03*
G01X8740Y37082D03*
G04 Draw part S9*
G04 Draw part C10*
G54D41*
G01X44800Y37700D03*
G01X45902Y37700D03*

G04 Draw traces*
G54D34*
G01X8500Y11000D03*
G54D51*
G01X8500Y11000D02*
G01X61300Y11000D01*
G54D34*
G01X61300Y11000D03*
G01X27700Y19400D03*
G54D51*
G01X27700Y19400D02*
G01X36800Y19400D01*
G54D34*
G01X36800Y19400D03*
G01X36800Y21500D03*
G54D51*
G01X36800Y21500D02*
G01X35600Y21500D01*
G54D34*
G01X34700Y13400D03*
G54D51*
G01X34700Y13400D02*
G01X18400Y13392D01*
G54D34*
G01X18400Y13392D03*
G01X18400Y21500D03*
G54D51*
G01X18400Y21500D02*
G01X19531Y21500D01*
G54D34*
G01X60300Y10700D03*
G54D51*
G01X60300Y10700D02*
G01X15500Y10700D01*
G54D34*
G01X15500Y10700D03*
G01X46300Y22200D03*
G54D51*
G01X46300Y22200D02*
G01X46300Y20100D01*
G54D34*
G01X44225Y23000D03*
G54D51*
G01X44225Y23000D02*
G01X44300Y20100D01*
G54D34*
G01X20700Y19700D03*
G54D51*
G01X20700Y19700D02*
G01X37100Y19700D01*
G54D34*
G01X37100Y19700D03*
G01X37100Y22000D03*
G54D51*
G01X37100Y22000D02*
G01X35600Y22000D01*
G54D34*
G01X26700Y14900D03*
G54D51*
G01X26700Y14900D02*
G01X23100Y14900D01*
G54D34*
G01X23100Y14900D03*
G01X23100Y21500D03*
G54D51*
G01X23100Y21500D02*
G01X21500Y21500D01*
G54D34*
G01X22500Y10400D03*
G54D51*
G01X22500Y10400D02*
G01X59300Y10400D01*
G54D34*
G01X59300Y10400D03*
G01X13700Y20000D03*
G54D51*
G01X13700Y20000D02*
G01X37400Y20000D01*
G54D34*
G01X37400Y20000D03*
G01X37400Y22500D03*
G54D51*
G01X37400Y22500D02*
G01X35600Y22500D01*
G54D34*
G01X20697Y13700D03*
G54D51*
G01X20697Y13700D02*
G01X23400Y13700D01*
G54D34*
G01X23400Y13700D03*
G01X23400Y22000D03*
G54D51*
G01X23400Y22000D02*
G01X21500Y22000D01*
G01X21500Y24500D02*
G01X26700Y24500D01*
G01X26700Y24500D02*
G01X27200Y24000D01*
G01X27200Y24000D02*
G01X33631Y24000D01*
G01X42300Y26100D02*
G01X42300Y23400D01*
G01X42300Y23400D02*
G01X39000Y23400D01*
G01X39000Y23400D02*
G01X39000Y24500D01*
G01X39000Y24500D02*
G01X35600Y24500D01*
G54D34*
G01X58300Y10100D03*
G54D51*
G01X58300Y10100D02*
G01X29500Y10100D01*
G54D34*
G01X29500Y10100D03*
G01X6700Y20300D03*
G54D51*
G01X6700Y20300D02*
G01X37700Y20300D01*
G54D34*
G01X37700Y20300D03*
G01X37700Y23000D03*
G54D51*
G01X37700Y23000D02*
G01X35600Y23000D01*
G54D34*
G01X13700Y14000D03*
G54D51*
G01X13700Y14000D02*
G01X23700Y14000D01*
G54D34*
G01X23700Y14000D03*
G01X23700Y22500D03*
G54D51*
G01X23700Y22500D02*
G01X21500Y22500D01*
G01X30600Y24502D02*
G01X33631Y24500D01*
G54D52*
G01X1574Y37582D02*
G01X1574Y35039D01*
G01X44800Y39400D02*
G01X44800Y40600D01*
G01X44800Y40600D02*
G01X50800Y40600D01*
G01X50800Y40600D02*
G01X51300Y40100D01*
G01X51300Y40100D02*
G01X51300Y39500D01*
G01X21000Y40900D02*
G01X22000Y40900D01*
G01X22000Y40900D02*
G01X23000Y40900D01*
G54D34*
G01X49300Y15500D03*
G54D52*
G01X49300Y15500D02*
G01X56300Y15500D01*
G54D34*
G01X56300Y15500D03*
G01X7300Y15500D03*
G54D52*
G01X7300Y15500D02*
G01X14300Y15500D01*
G54D34*
G01X14300Y15500D03*
G01X14300Y15500D03*
G54D52*
G01X14300Y15500D02*
G01X21300Y15500D01*
G54D34*
G01X21300Y15500D03*
G01X21300Y15500D03*
G54D52*
G01X21300Y15500D02*
G01X28300Y15500D01*
G54D34*
G01X28300Y15500D03*
G01X49300Y15500D03*
G54D52*
G01X49300Y15500D02*
G01X42300Y15500D01*
G54D34*
G01X42300Y15500D03*
G01X42300Y15500D03*
G54D52*
G01X42300Y15500D02*
G01X35300Y15500D01*
G54D34*
G01X35300Y15500D03*
G01X35300Y15500D03*
G54D52*
G01X35300Y15500D02*
G01X28300Y15500D01*
G54D34*
G01X28300Y15500D03*
G54D52*
G01X7531Y25000D02*
G01X6600Y25000D01*
G01X6600Y25000D02*
G01X6600Y28800D01*
G01X6600Y28800D02*
G01X18500Y28800D01*
G01X18500Y28800D02*
G01X18500Y25000D01*
G01X18500Y25000D02*
G01X19531Y25000D01*
G01X19531Y25000D02*
G01X18500Y25000D01*
G01X18500Y25000D02*
G01X18500Y28800D01*
G01X18500Y28800D02*
G01X33600Y28800D01*
G01X33600Y28800D02*
G01X33631Y25000D01*
G54D51*
G01X60973Y32400D02*
G01X61800Y32400D01*
G01X61800Y32400D02*
G01X61800Y26800D01*
G01X61800Y26800D02*
G01X51300Y26800D01*
G01X51300Y26800D02*
G01X51300Y26100D01*
G54D52*
G01X51300Y26100D02*
G01X51300Y23680D01*
G01X51300Y23680D02*
G01X52300Y22730D01*
G01X52300Y22730D02*
G01X52300Y20100D01*
G01X20400Y27100D02*
G01X18500Y27100D01*
G01X18500Y27100D02*
G01X18500Y25000D01*
G01X18500Y25000D02*
G01X19531Y25000D01*
G01X44800Y37700D02*
G01X44800Y39400D01*
G01X52700Y29500D02*
G01X51300Y29500D01*
G54D34*
G01X51300Y29500D03*
G54D52*
G01X22859Y35605D02*
G01X20300Y35605D01*
G01X17300Y35700D02*
G01X20300Y35605D01*
G01X23000Y40900D02*
G01X22859Y35605D01*
G01X44800Y39400D02*
G01X44800Y40600D01*
G01X44800Y40600D02*
G01X33500Y40600D01*
G01X33500Y40600D02*
G01X33500Y35600D01*
G01X33500Y35600D02*
G01X22859Y35605D01*
G01X21000Y40900D02*
G01X21100Y42700D01*
G54D34*
G01X36500Y9800D03*
G54D51*
G01X36500Y9800D02*
G01X57000Y9800D01*
G54D34*
G01X57000Y9800D03*
G01X50300Y21950D03*
G54D51*
G01X50300Y21950D02*
G01X50300Y26100D01*
G54D34*
G01X55700Y17000D03*
G54D51*
G01X55700Y17000D02*
G01X55400Y16700D01*
G01X55400Y16700D02*
G01X52000Y16700D01*
G01X52000Y16700D02*
G01X51700Y17000D01*
G01X51700Y17000D02*
G01X44200Y17000D01*
G01X44200Y17000D02*
G01X43780Y17300D01*
G01X43780Y17300D02*
G01X32000Y17300D01*
G54D34*
G01X32000Y17300D03*
G01X32000Y22900D03*
G54D51*
G01X32000Y22900D02*
G01X33200Y22900D01*
G01X33200Y22900D02*
G01X33631Y23000D01*
G54D34*
G01X8400Y14300D03*
G54D51*
G01X8400Y14300D02*
G01X24000Y14300D01*
G54D34*
G01X24000Y14300D03*
G01X24000Y23000D03*
G54D51*
G01X24000Y23000D02*
G01X21500Y23000D01*
G01X9500Y24500D02*
G01X13700Y24500D01*
G01X13700Y24500D02*
G01X14200Y24000D01*
G01X14200Y24000D02*
G01X19531Y24000D01*
G54D52*
G01X1574Y34039D02*
G01X3459Y35148D01*
G54D34*
G01X56600Y9500D03*
G54D51*
G01X56600Y9500D02*
G01X43500Y9500D01*
G54D34*
G01X43500Y9500D03*
G01X55700Y12500D03*
G54D51*
G01X55700Y12500D02*
G01X17500Y12500D01*
G54D34*
G01X17500Y12500D03*
G01X17500Y22900D03*
G54D51*
G01X17500Y22900D02*
G01X19300Y22900D01*
G01X19300Y22900D02*
G01X19531Y23000D01*
G01X16400Y24502D02*
G01X19531Y24500D01*
G54D52*
G01X1574Y38582D02*
G01X3459Y37200D01*
G54D34*
G01X50450Y11300D03*
G54D51*
G01X50450Y11300D02*
G01X55000Y11300D01*
G54D34*
G01X55000Y11300D03*
G54D51*
G01X4100Y24502D02*
G01X7531Y24500D01*
G54D52*
G01X8740Y37082D02*
G01X12637Y37106D01*
G01X8740Y37082D02*
G01X6900Y37200D01*
G01X20300Y36511D02*
G01X17288Y36511D01*
G01X17288Y36511D02*
G01X16700Y37100D01*
G01X16700Y37100D02*
G01X12637Y37106D01*
G54D34*
G01X45230Y22600D03*
G54D51*
G01X45230Y22600D02*
G01X45300Y20100D01*
G01X44900Y18602D02*
G01X47400Y17900D01*
G01X47400Y17900D02*
G01X49300Y20100D01*
G54D34*
G01X50100Y16300D03*
G54D51*
G01X50100Y16300D02*
G01X50100Y16700D01*
G01X50100Y16700D02*
G01X5300Y16700D01*
G54D34*
G01X5300Y16700D03*
G01X5300Y22500D03*
G54D51*
G01X5300Y22500D02*
G01X7531Y22500D01*
G01X51140Y17900D02*
G01X50300Y20100D01*
G01X52900Y17397D02*
G01X51140Y17900D01*
G01X43300Y26100D02*
G01X43400Y21800D01*
G01X43400Y21800D02*
G01X43400Y20800D01*
G01X43400Y20800D02*
G01X3300Y20800D01*
G01X3300Y20800D02*
G01X3300Y24000D01*
G01X3300Y24000D02*
G01X7531Y24000D01*
G54D34*
G01X42299Y17000D03*
G54D51*
G01X42299Y17000D02*
G01X5600Y17000D01*
G54D34*
G01X5600Y17000D03*
G01X5600Y22000D03*
G54D51*
G01X5600Y22000D02*
G01X7531Y22000D01*
G01X59300Y31900D02*
G01X57900Y31900D01*
G01X57900Y31900D02*
G01X57900Y27400D01*
G01X57900Y27400D02*
G01X47800Y27400D01*
G01X47800Y27400D02*
G01X47800Y25550D01*
G01X47800Y25550D02*
G01X45300Y25550D01*
G01X45300Y25550D02*
G01X45300Y26100D01*
G01X9500Y23500D02*
G01X10700Y23500D01*
G54D34*
G01X10700Y23500D03*
G01X22700Y23500D03*
G54D51*
G01X22700Y23500D02*
G01X21500Y23500D01*
G01X21500Y23500D02*
G01X22700Y23500D01*
G54D34*
G01X22700Y23500D03*
G01X38000Y23500D03*
G54D51*
G01X38000Y23500D02*
G01X35600Y23500D01*
G54D34*
G01X38000Y23500D03*
G54D51*
G01X38000Y23500D02*
G01X35600Y23500D01*
G01X35600Y25000D02*
G01X34700Y25000D01*
G01X34700Y25000D02*
G01X34700Y23500D01*
G01X34700Y23500D02*
G01X33631Y23500D01*
G54D52*
G01X8740Y35980D02*
G01X12637Y34862D01*
G01X8740Y35980D02*
G01X6900Y35148D01*
G54D51*
G01X9500Y25000D02*
G01X8500Y25000D01*
G01X8500Y25000D02*
G01X8500Y23500D01*
G01X8500Y23500D02*
G01X7531Y23500D01*
G01X21500Y25000D02*
G01X20500Y25000D01*
G01X20500Y25000D02*
G01X20500Y23500D01*
G01X20500Y23500D02*
G01X19531Y23500D01*
G54D52*
G01X6900Y35148D02*
G01X5900Y35200D01*
G54D34*
G01X5900Y35200D03*
G01X10700Y25000D03*
G54D52*
G01X10700Y25000D02*
G01X9500Y25000D01*
G01X21502Y27100D02*
G01X21500Y28200D01*
G54D34*
G01X21500Y28200D03*
G01X35600Y26000D03*
G54D52*
G01X35600Y26000D02*
G01X35600Y25000D01*
G54D53*
G01X52900Y18500D02*
G01X54100Y18500D01*
G01X54100Y18500D02*
G01X54100Y16900D01*
G01X54100Y16900D02*
G01X52100Y16900D01*
G01X52100Y16900D02*
G01X51700Y17300D01*
G01X51700Y17300D02*
G01X45100Y17300D01*
G01X45100Y17300D02*
G01X44900Y17500D01*
G54D52*
G01X45902Y39400D02*
G01X47300Y39400D01*
G54D34*
G01X47300Y39400D03*
G01X52300Y30800D03*
G54D52*
G01X52300Y30800D02*
G01X53800Y30800D01*
G01X53800Y30800D02*
G01X53802Y29500D01*
G54D54*
G01X60973Y33900D02*
G01X61000Y34500D01*
G54D34*
G01X61000Y34500D03*
G01X52300Y30800D03*
G54D52*
G01X52300Y30800D02*
G01X53800Y30800D01*
G01X53800Y30800D02*
G01X53802Y29500D01*
G54D51*
G01X52300Y26100D02*
G01X52300Y23800D01*
G01X52300Y23800D02*
G01X52800Y23300D01*
G01X52800Y23300D02*
G01X52800Y18500D01*
G01X52800Y18500D02*
G01X52900Y18500D01*
G54D34*
G01X10700Y25000D03*
G54D52*
G01X10700Y25000D02*
G01X9500Y25000D01*
G01X21500Y25000D02*
G01X22700Y25000D01*
G54D34*
G01X22700Y25000D03*
G01X21502Y28197D03*
G54D52*
G01X21502Y28197D02*
G01X21502Y27100D01*
G01X9500Y25000D02*
G01X10700Y25000D01*
G54D34*
G01X10700Y25000D03*
G01X22700Y25000D03*
G54D52*
G01X22700Y25000D02*
G01X21500Y25000D01*
G01X30600Y23400D02*
G01X30800Y23500D01*
G54D51*
G01X30800Y23500D02*
G01X33631Y23500D01*
G54D53*
G01X60973Y31900D02*
G01X60450Y31900D01*
G01X60450Y31900D02*
G01X60450Y33900D01*
G01X60450Y33900D02*
G01X60973Y33900D01*
G54D52*
G01X16400Y23400D02*
G01X16600Y23500D01*
G54D51*
G01X16600Y23500D02*
G01X19531Y23500D01*
G54D52*
G01X4100Y23400D02*
G01X4300Y23500D01*
G54D51*
G01X4300Y23500D02*
G01X7531Y23500D01*
G54D52*
G01X45902Y37700D02*
G01X45902Y39400D01*
G01X20000Y40900D02*
G01X20000Y42000D01*
G54D34*
G01X20000Y42000D03*
G01X5900Y35200D03*
G54D52*
G01X5900Y35200D02*
G01X6900Y35148D01*
G01X21502Y27100D02*
G01X21500Y28200D01*
G54D34*
G01X21500Y28200D03*
G01X20300Y33850D03*
G54D52*
G01X20300Y33850D02*
G01X20300Y34700D01*
G01X17300Y34597D02*
G01X20300Y34700D01*
G01X12637Y34862D02*
G01X17300Y34597D01*
G01X45902Y39400D02*
G01X47300Y39400D01*
G54D34*
G01X47300Y39400D03*
G01X20000Y42000D03*
G54D52*
G01X20000Y42000D02*
G01X19997Y42700D01*
G01X20000Y40900D02*
G01X19997Y42700D01*
G54D34*
G01X35300Y18800D03*
G54D51*
G01X35300Y18800D02*
G01X5900Y18800D01*
G54D34*
G01X5900Y18800D03*
G01X5900Y21500D03*
G54D51*
G01X5900Y21500D02*
G01X7531Y21500D01*
G01X59300Y32900D02*
G01X57500Y32900D01*
G01X57500Y32900D02*
G01X57500Y27800D01*
G01X57500Y27800D02*
G01X46300Y27800D01*
G01X46300Y27800D02*
G01X46300Y26100D01*
G01X51300Y38720D02*
G01X49000Y38700D01*
G01X49000Y38700D02*
G01X49000Y30650D01*
G01X49000Y30650D02*
G01X41800Y30650D01*
G01X41800Y30650D02*
G01X41800Y23800D01*
G54D34*
G01X41800Y23800D03*
G01X48300Y23800D03*
G54D51*
G01X48300Y23800D02*
G01X48300Y20100D01*
G54D34*
G01X28300Y19100D03*
G54D51*
G01X28300Y19100D02*
G01X10700Y19100D01*
G54D34*
G01X10700Y19100D03*
G01X10700Y21500D03*
G54D51*
G01X10700Y21500D02*
G01X9500Y21500D01*
G01X59300Y32400D02*
G01X57700Y32400D01*
G01X57700Y32400D02*
G01X57700Y27600D01*
G01X57700Y27600D02*
G01X47300Y27600D01*
G01X47300Y27600D02*
G01X47300Y26100D01*
G54D34*
G01X21300Y19400D03*
G54D51*
G01X21300Y19400D02*
G01X11100Y19400D01*
G54D34*
G01X11100Y19400D03*
G01X11100Y22000D03*
G54D51*
G01X11100Y22000D02*
G01X9500Y22000D01*
G01X48300Y26100D02*
G01X48300Y25250D01*
G01X48300Y25250D02*
G01X44800Y25250D01*
G01X44800Y25250D02*
G01X44800Y28000D01*
G01X44800Y28000D02*
G01X57300Y28000D01*
G01X57300Y28000D02*
G01X57300Y33900D01*
G01X57300Y33900D02*
G01X59300Y33900D01*
G01X51300Y37930D02*
G01X50000Y37950D01*
G01X50000Y37950D02*
G01X50000Y29994D01*
G01X50000Y29994D02*
G01X42800Y30004D01*
G01X42800Y30004D02*
G01X42800Y23400D01*
G54D34*
G01X42800Y23400D03*
G01X47300Y23400D03*
G54D51*
G01X47300Y23400D02*
G01X47300Y20100D01*
G54D34*
G01X14300Y18500D03*
G54D51*
G01X14300Y18500D02*
G01X11400Y18500D01*
G54D34*
G01X11400Y18500D03*
G01X11400Y22500D03*
G54D51*
G01X11400Y22500D02*
G01X9500Y22500D01*
G54D34*
G01X47700Y19200D03*
G54D51*
G01X47700Y19200D02*
G01X41959Y19200D01*
G01X41959Y19200D02*
G01X38600Y19100D01*
G01X38600Y19100D02*
G01X32300Y19100D01*
G54D34*
G01X32300Y19100D03*
G01X32300Y22500D03*
G54D51*
G01X32300Y22500D02*
G01X33631Y22500D01*
G54D34*
G01X7300Y20000D03*
G54D51*
G01X7300Y20000D02*
G01X11700Y20000D01*
G54D34*
G01X11700Y20000D03*
G01X11700Y23000D03*
G54D51*
G01X11700Y23000D02*
G01X9500Y23000D01*
G01X9500Y24000D02*
G01X10700Y24000D01*
G54D34*
G01X10700Y24000D03*
G01X22700Y24000D03*
G54D51*
G01X22700Y24000D02*
G01X21500Y24000D01*
G01X21500Y24000D02*
G01X22700Y24000D01*
G54D34*
G01X22700Y24000D03*
G01X38300Y24000D03*
G54D51*
G01X38300Y24000D02*
G01X35600Y24000D01*
G54D34*
G01X38300Y24000D03*
G54D51*
G01X38300Y24000D02*
G01X35600Y24000D01*
G01X60973Y32900D02*
G01X62300Y32900D01*
G01X62300Y32900D02*
G01X62300Y22300D01*
G01X62300Y22300D02*
G01X53300Y22300D01*
G01X53300Y22300D02*
G01X53300Y20100D01*
G01X60973Y32900D02*
G01X62300Y32900D01*
G01X62300Y32900D02*
G01X62300Y35000D01*
G01X62300Y35000D02*
G01X53600Y35000D01*
G01X53600Y35000D02*
G01X52249Y36350D01*
G01X52249Y36350D02*
G01X51300Y36350D01*
G54D34*
G01X39600Y16400D03*
G54D51*
G01X39600Y16400D02*
G01X32600Y16400D01*
G54D34*
G01X32600Y16400D03*
G01X32596Y22000D03*
G54D51*
G01X32596Y22000D02*
G01X33631Y22000D01*
G54D34*
G01X48699Y12800D03*
G54D51*
G01X48699Y12800D02*
G01X17800Y12800D01*
G54D34*
G01X17800Y12800D03*
G01X17800Y22500D03*
G54D51*
G01X17800Y22500D02*
G01X19531Y22500D01*
G54D34*
G01X57000Y15900D03*
G54D51*
G01X57000Y15900D02*
G01X5000Y15900D01*
G54D34*
G01X5000Y15900D03*
G01X5000Y23000D03*
G54D51*
G01X5000Y23000D02*
G01X7531Y23000D01*
G54D34*
G01X34700Y21100D03*
G54D51*
G01X34700Y21100D02*
G01X33677Y21100D01*
G01X33677Y21100D02*
G01X33631Y21500D01*
G54D34*
G01X41697Y13100D03*
G54D51*
G01X41697Y13100D02*
G01X18100Y13100D01*
G54D34*
G01X18100Y13100D03*
G01X18100Y22000D03*
G54D51*
G01X18100Y22000D02*
G01X19531Y22000D01*

G04 Draw Text*
M00*
M02*
