;Holesize 1 =   28.0 PLATED MILS
;Holesize 2 =   40.0 PLATED MILS
;Holesize 3 =   35.0 PLATED MILS
;Holesize 4 =   29.0 PLATED MILS
;Holesize 5 =   14.0 PLATED MILS
M48
INCH,00.0000
T01C0.028
T02C0.040
T03C0.035
T04C0.029
T05C0.014
%
G05
G90
T01
X061300Y020100
X060300Y020100
X059300Y020100
X058300Y020100
X057300Y020100
X056300Y020100
X055300Y020100
X054300Y020100
X053300Y020100
X052300Y020100
X051300Y020100
X050300Y020100
X049300Y020100
X048300Y020100
X047300Y020100
X046300Y020100
X045300Y020100
X044300Y020100
X043300Y020100
X042300Y020100
X042300Y026100
X043300Y026100
X044300Y026100
X045300Y026100
X046300Y026100
X047300Y026100
X048300Y026100
X049300Y026100
X050300Y026100
X051300Y026100
X052300Y026100
X053300Y026100
X054300Y026100
X055300Y026100
X056300Y026100
X057300Y026100
X058300Y026100
X059300Y026100
X060300Y026100
X061300Y026100
X008000Y025900
X009000Y025900
X010000Y025900
X027000Y025900
X028000Y025900
X029000Y025900
X029000Y040900
X028000Y040900
X027000Y040900
X026000Y040900
X025000Y040900
X024000Y040900
X023000Y040900
X022000Y040900
X021000Y040900
X020000Y040900
X019000Y040900
X018000Y040900
X017000Y040900
X016000Y040900
X015000Y040900
X014000Y040900
X013000Y040900
X012000Y040900
X011000Y040900
X010000Y040900
X009000Y040900
X008000Y040900
T02
X001574Y035039
X001574Y034039
X001574Y038582
X001574Y037582
X054763Y035669
X054763Y036669
X054763Y037669
T03
X060126Y032150
X060126Y033650
T04
X051300Y039500
X051300Y038720
X051300Y037930
X051300Y037137
X051300Y036350
X051300Y035562
X051300Y034775
X051300Y033988
X051300Y033200
X051300Y032413
X042638Y032413
X042638Y033200
X042638Y033988
X042638Y034775
X042638Y035562
X042638Y036350
X042638Y037137
X042638Y037925
X042638Y038712
X042640Y039500
T05
X008500Y011000
X061300Y011000
X027700Y019400
X036800Y019400
X036800Y021500
X034700Y013400
X018400Y013392
X018400Y021500
X060300Y010700
X015500Y010700
X046300Y022200
X044225Y023000
X020700Y019700
X037100Y019700
X037100Y022000
X026700Y014900
X023100Y014900
X023100Y021500
X022500Y010400
X059300Y010400
X013700Y020000
X037400Y020000
X037400Y022500
X020697Y013700
X023400Y013700
X023400Y022000
X058300Y010100
X029500Y010100
X006700Y020300
X037700Y020300
X037700Y023000
X013700Y014000
X023700Y014000
X023700Y022500
X049300Y015500
X056300Y015500
X007300Y015500
X014300Y015500
X014300Y015500
X021300Y015500
X021300Y015500
X028300Y015500
X049300Y015500
X042300Y015500
X042300Y015500
X035300Y015500
X035300Y015500
X028300Y015500
X051300Y029500
X036500Y009800
X057000Y009800
X050300Y021950
X055700Y017000
X032000Y017300
X032000Y022900
X008400Y014300
X024000Y014300
X024000Y023000
X056600Y009500
X043500Y009500
X055700Y012500
X017500Y012500
X017500Y022900
X050450Y011300
X055000Y011300
X045230Y022600
X050100Y016300
X005300Y016700
X005300Y022500
X042299Y017000
X005600Y017000
X005600Y022000
X010700Y023500
X022700Y023500
X022700Y023500
X038000Y023500
X038000Y023500
X005900Y035200
X010700Y025000
X021500Y028200
X035600Y026000
X047300Y039400
X052300Y030800
X061000Y034500
X052300Y030800
X010700Y025000
X022700Y025000
X021502Y028197
X010700Y025000
X022700Y025000
X020000Y042000
X005900Y035200
X021500Y028200
X020300Y033850
X047300Y039400
X020000Y042000
X035300Y018800
X005900Y018800
X005900Y021500
X041800Y023800
X048300Y023800
X028300Y019100
X010700Y019100
X010700Y021500
X021300Y019400
X011100Y019400
X011100Y022000
X042800Y023400
X047300Y023400
X014300Y018500
X011400Y018500
X011400Y022500
X047700Y019200
X032300Y019100
X032300Y022500
X007300Y020000
X011700Y020000
X011700Y023000
X010700Y024000
X022700Y024000
X022700Y024000
X038300Y024000
X038300Y024000
X039600Y016400
X032600Y016400
X032596Y022000
X048699Y012800
X017800Y012800
X017800Y022500
X057000Y015900
X005000Y015900
X005000Y023000
X034700Y021100
X041697Y013100
X018100Y013100
X018100Y022000
M30
