;Holesize 1 =   28.0 PLATED MILS
;Holesize 2 =   23.0 PLATED MILS
;Holesize 3 =   40.0 PLATED MILS
;Holesize 4 =   35.0 PLATED MILS
;Holesize 5 =   29.0 PLATED MILS
;Holesize 6 =   98.0 PLATED MILS
;Holesize 7 =   14.0 PLATED MILS
M48
INCH,00.0000
T01C0.028
T02C0.023
T03C0.040
T04C0.035
T05C0.029
T06C0.098
T07C0.014
%
G05
G90
T01
X061300Y020100
X060300Y020100
X059300Y020100
X058300Y020100
X057300Y020100
X056300Y020100
X055300Y020100
X054300Y020100
X053300Y020100
X052300Y020100
X051300Y020100
X050300Y020100
X049300Y020100
X048300Y020100
X047300Y020100
X046300Y020100
X045300Y020100
X044300Y020100
X043300Y020100
X042300Y020100
X042300Y026100
X043300Y026100
X044300Y026100
X045300Y026100
X046300Y026100
X047300Y026100
X048300Y026100
X049300Y026100
X050300Y026100
X051300Y026100
X052300Y026100
X053300Y026100
X054300Y026100
X055300Y026100
X056300Y026100
X057300Y026100
X058300Y026100
X059300Y026100
X060300Y026100
X061300Y026100
T02
X006192Y016307
X007807Y014692
X013192Y016307
X014807Y014692
X020192Y016307
X021807Y014692
X027192Y016307
X028807Y014692
X034192Y016307
X035807Y014692
X041192Y016307
X042807Y014692
X048192Y016307
X049807Y014692
X055192Y016307
X056807Y014692
T03
X001574Y035039
X001574Y034039
X001574Y038582
X001574Y037582
X054763Y035669
X054763Y036669
X054763Y037669
X006692Y040157
X007692Y040157
X008692Y040157
X009692Y040157
X010692Y040157
X011692Y040157
X012692Y040157
X013692Y040157
X014692Y040157
X015692Y040157
X016692Y040157
X017692Y040157
X018692Y040157
X019692Y040157
X020692Y040157
X021692Y040157
T04
X060126Y032150
X060126Y033650
T05
X051300Y041100
X051300Y040320
X051300Y039530
X051300Y038737
X051300Y037950
X051300Y037162
X051300Y036375
X051300Y035588
X051300Y034800
X051300Y034013
X042638Y034013
X042638Y034800
X042638Y035588
X042638Y036375
X042638Y037162
X042638Y037950
X042638Y038737
X042638Y039525
X042638Y040312
X042640Y041100
T06
X003543Y040157
X003740Y018503
X040354Y040157
X040157Y018503
T07
X006000Y011000
X061300Y011000
X027700Y019400
X036000Y019400
X036000Y021200
X034700Y013400
X018800Y013392
X018800Y021500
X035300Y015500
X049300Y015500
X056300Y015500
X007300Y015500
X014300Y015500
X029500Y034700
X014300Y015500
X021300Y015500
X021300Y015500
X028300Y015500
X049300Y015500
X042300Y015500
X042300Y015500
X035300Y015500
X035300Y015500
X028300Y015500
X048200Y030000
X061900Y030900
X060300Y010700
X012500Y010700
X011700Y031900
X011700Y033000
X050050Y032850
X020700Y019700
X036400Y019700
X036400Y022000
X027200Y014900
X022600Y014900
X022600Y021500
X019450Y010400
X059300Y010400
X013700Y020000
X036700Y020000
X036700Y022500
X020697Y013700
X023000Y013700
X023000Y022000
X058300Y010100
X026500Y010100
X042400Y031300
X006700Y020300
X037100Y020300
X037100Y023000
X013700Y014000
X023400Y014000
X023400Y022500
X033500Y009800
X057000Y009800
X050300Y021400
X055699Y016700
X032200Y017300
X032200Y022900
X006700Y014300
X023800Y014300
X023800Y023000
X056600Y009500
X040500Y009500
X055700Y012500
X017600Y012500
X017600Y022900
X047500Y011300
X055000Y011300
X027600Y038400
X034110Y038400
X027600Y038400
X020704Y037204
X010700Y033000
X010698Y032250
X049600Y016300
X005500Y016700
X005500Y022500
X043300Y022700
X040700Y022700
X042299Y017000
X005900Y017000
X005900Y022000
X010200Y023500
X022600Y023500
X022600Y023500
X038000Y023500
X038000Y023500
X025900Y040400
X020200Y034850
X032300Y040350
X045900Y040600
X032300Y040350
X025900Y040400
X007500Y035100
X010700Y025000
X021500Y028200
X036800Y025000
X052300Y028850
X052300Y028850
X010700Y025000
X022700Y025000
X021500Y028200
X010700Y025000
X022700Y025000
X035300Y018800
X006200Y018800
X006200Y021500
X028300Y019100
X010300Y019100
X010300Y021500
X021300Y019400
X010700Y019400
X010700Y022000
X014300Y018500
X011100Y018500
X011100Y022500
X047700Y019100
X032500Y019100
X032500Y022500
X007300Y020000
X011500Y020000
X011500Y023000
X010200Y024000
X022600Y024000
X022600Y024000
X038300Y024000
X038300Y024000
X041700Y017600
X032800Y017600
X032800Y022000
X048699Y012800
X018000Y012800
X018000Y022500
X056700Y015900
X005100Y015900
X005100Y023000
X034700Y021100
X041697Y013100
X018400Y013100
X018400Y022000
M30
