G04 FreePCB version 1.359*
G04 D:\Users\waynej\My Documents\GitHub\mlaunch\controller30\CAM\top_silk.grb*
G04 top silk layer *
G04 Scale: 100 percent, Rotated: No, Reflected: No *
%FSLAX24Y24*%
%MOIN*%
%LN top silk *%
G04 Rounded Rectangle Macro, params: W/2, H/2, R *
%AMRNDREC*
21,1,$1+$1,$2+$2-$3-$3,0,0,0*
21,1,$1+$1-$3-$3,$2+$2,0,0,0*
1,1,$3+$3,$1-$3,$2-$3*
1,1,$3+$3,$3-$1,$2-$3*
1,1,$3+$3,$1-$3,$3-$2*
1,1,$3+$3,$3-$1,$3-$2*%
G04 Rectangular Thermal Macro, params: W/2, H/2, T/2 *
%AMRECTHERM*
$4=$3/2*
21,1,$1-$3,$2-$3,0-$1/2-$4,0-$2/2-$4,0*
21,1,$1-$3,$2-$3,0-$1/2-$4,$2/2+$4,0*
21,1,$1-$3,$2-$3,$1/2+$4,0-$2/2-$4,0*
21,1,$1-$3,$2-$3,$1/2+$4,$2/2+$4,0*%
%ADD10C,0.005000*%
%ADD11C,0.007000*%
%ADD12C,0.010000*%
G90*
G70D02*

G04 Step and Repeat for panelization *

G04 ----------------------- Draw board outline (positive)*
%LPD*%
G54D10*
G01X3500Y1750D02*
G01X3499Y1789D01*
G01X3498Y1828D01*
G01X3496Y1867D01*
G01X3492Y1906D01*
G01X3488Y1945D01*
G01X3484Y1984D01*
G01X3478Y2023D01*
G01X3471Y2062D01*
G01X3464Y2101D01*
G01X3456Y2139D01*
G01X3446Y2177D01*
G01X3436Y2215D01*
G01X3426Y2253D01*
G01X3414Y2290D01*
G01X3401Y2327D01*
G01X3388Y2364D01*
G01X3374Y2401D01*
G01X3359Y2437D01*
G01X3343Y2473D01*
G01X3326Y2509D01*
G01X3309Y2544D01*
G01X3291Y2579D01*
G01X3272Y2613D01*
G01X3252Y2647D01*
G01X3231Y2681D01*
G01X3210Y2714D01*
G01X3188Y2746D01*
G01X3165Y2778D01*
G01X3142Y2810D01*
G01X3118Y2841D01*
G01X3093Y2871D01*
G01X3067Y2901D01*
G01X3041Y2930D01*
G01X3014Y2959D01*
G01X2987Y2987D01*
G01X2959Y3014D01*
G01X2930Y3041D01*
G01X2901Y3067D01*
G01X2871Y3093D01*
G01X2841Y3118D01*
G01X2810Y3142D01*
G01X2778Y3165D01*
G01X2746Y3188D01*
G01X2714Y3210D01*
G01X2681Y3231D01*
G01X2647Y3252D01*
G01X2613Y3272D01*
G01X2579Y3291D01*
G01X2544Y3309D01*
G01X2509Y3326D01*
G01X2473Y3343D01*
G01X2437Y3359D01*
G01X2401Y3374D01*
G01X2364Y3388D01*
G01X2327Y3401D01*
G01X2290Y3414D01*
G01X2253Y3426D01*
G01X2215Y3436D01*
G01X2177Y3446D01*
G01X2139Y3456D01*
G01X2101Y3464D01*
G01X2062Y3471D01*
G01X2023Y3478D01*
G01X1984Y3484D01*
G01X1945Y3488D01*
G01X1906Y3492D01*
G01X1867Y3496D01*
G01X1828Y3498D01*
G01X1789Y3499D01*
G01X1750Y3500D01*
G04 end of side 1*
G01X0Y3500D01*
G04 end of side 2*
G01X0Y41800D01*
G04 end of side 3*
G01X1750Y41800D01*
G04 end of side 4*
G01X1789Y41800D01*
G01X1828Y41801D01*
G01X1867Y41803D01*
G01X1906Y41807D01*
G01X1945Y41811D01*
G01X1984Y41815D01*
G01X2023Y41821D01*
G01X2062Y41828D01*
G01X2101Y41835D01*
G01X2139Y41843D01*
G01X2177Y41853D01*
G01X2215Y41863D01*
G01X2253Y41873D01*
G01X2290Y41885D01*
G01X2327Y41898D01*
G01X2364Y41911D01*
G01X2401Y41925D01*
G01X2437Y41940D01*
G01X2473Y41956D01*
G01X2509Y41973D01*
G01X2544Y41990D01*
G01X2579Y42008D01*
G01X2613Y42027D01*
G01X2647Y42047D01*
G01X2681Y42068D01*
G01X2714Y42089D01*
G01X2746Y42111D01*
G01X2778Y42134D01*
G01X2810Y42157D01*
G01X2841Y42181D01*
G01X2871Y42206D01*
G01X2901Y42232D01*
G01X2930Y42258D01*
G01X2959Y42285D01*
G01X2987Y42312D01*
G01X3014Y42340D01*
G01X3041Y42369D01*
G01X3067Y42398D01*
G01X3093Y42428D01*
G01X3118Y42458D01*
G01X3142Y42489D01*
G01X3165Y42521D01*
G01X3188Y42553D01*
G01X3210Y42585D01*
G01X3231Y42618D01*
G01X3252Y42652D01*
G01X3272Y42686D01*
G01X3291Y42720D01*
G01X3309Y42755D01*
G01X3326Y42790D01*
G01X3343Y42826D01*
G01X3359Y42862D01*
G01X3374Y42898D01*
G01X3388Y42935D01*
G01X3401Y42972D01*
G01X3414Y43009D01*
G01X3426Y43046D01*
G01X3436Y43084D01*
G01X3446Y43122D01*
G01X3456Y43160D01*
G01X3464Y43198D01*
G01X3471Y43237D01*
G01X3478Y43276D01*
G01X3484Y43315D01*
G01X3488Y43354D01*
G01X3492Y43393D01*
G01X3496Y43432D01*
G01X3498Y43471D01*
G01X3499Y43510D01*
G01X3500Y43550D01*
G04 end of side 5*
G01X3500Y44650D01*
G04 end of side 6*
G01X8500Y44650D01*
G04 end of side 7*
G01X8500Y43950D01*
G04 end of side 8*
G01X8501Y43910D01*
G01X8504Y43871D01*
G01X8509Y43832D01*
G01X8516Y43794D01*
G01X8525Y43755D01*
G01X8536Y43718D01*
G01X8549Y43681D01*
G01X8564Y43644D01*
G01X8581Y43609D01*
G01X8600Y43574D01*
G01X8620Y43541D01*
G01X8643Y43509D01*
G01X8667Y43478D01*
G01X8692Y43448D01*
G01X8719Y43419D01*
G01X8748Y43392D01*
G01X8778Y43367D01*
G01X8809Y43343D01*
G01X8841Y43320D01*
G01X8875Y43300D01*
G01X8909Y43281D01*
G01X8944Y43264D01*
G01X8981Y43249D01*
G01X9018Y43236D01*
G01X9055Y43225D01*
G01X9094Y43216D01*
G01X9132Y43209D01*
G01X9171Y43204D01*
G01X9210Y43201D01*
G01X9250Y43200D01*
G04 end of side 9*
G01X9289Y43201D01*
G01X9328Y43204D01*
G01X9367Y43209D01*
G01X9405Y43216D01*
G01X9444Y43225D01*
G01X9481Y43236D01*
G01X9518Y43249D01*
G01X9555Y43264D01*
G01X9590Y43281D01*
G01X9625Y43300D01*
G01X9658Y43320D01*
G01X9690Y43343D01*
G01X9721Y43367D01*
G01X9751Y43392D01*
G01X9780Y43419D01*
G01X9807Y43448D01*
G01X9832Y43478D01*
G01X9856Y43509D01*
G01X9879Y43541D01*
G01X9899Y43575D01*
G01X9918Y43609D01*
G01X9935Y43644D01*
G01X9950Y43681D01*
G01X9963Y43718D01*
G01X9974Y43755D01*
G01X9983Y43794D01*
G01X9990Y43832D01*
G01X9995Y43871D01*
G01X9998Y43910D01*
G01X10000Y43950D01*
G04 end of side 10*
G01X10000Y44650D01*
G04 end of side 11*
G01X24750Y44650D01*
G04 end of side 12*
G01X24750Y43950D01*
G04 end of side 13*
G01X24751Y43910D01*
G01X24754Y43871D01*
G01X24759Y43832D01*
G01X24766Y43794D01*
G01X24775Y43755D01*
G01X24786Y43718D01*
G01X24799Y43681D01*
G01X24814Y43644D01*
G01X24831Y43609D01*
G01X24850Y43574D01*
G01X24870Y43541D01*
G01X24893Y43509D01*
G01X24917Y43478D01*
G01X24942Y43448D01*
G01X24969Y43419D01*
G01X24998Y43392D01*
G01X25028Y43367D01*
G01X25059Y43343D01*
G01X25091Y43320D01*
G01X25125Y43300D01*
G01X25159Y43281D01*
G01X25194Y43264D01*
G01X25231Y43249D01*
G01X25268Y43236D01*
G01X25305Y43225D01*
G01X25344Y43216D01*
G01X25382Y43209D01*
G01X25421Y43204D01*
G01X25460Y43201D01*
G01X25500Y43200D01*
G04 end of side 14*
G01X25539Y43201D01*
G01X25578Y43204D01*
G01X25617Y43209D01*
G01X25655Y43216D01*
G01X25694Y43225D01*
G01X25731Y43236D01*
G01X25768Y43249D01*
G01X25805Y43264D01*
G01X25840Y43281D01*
G01X25875Y43300D01*
G01X25908Y43320D01*
G01X25940Y43343D01*
G01X25971Y43367D01*
G01X26001Y43392D01*
G01X26030Y43419D01*
G01X26057Y43448D01*
G01X26082Y43478D01*
G01X26106Y43509D01*
G01X26129Y43541D01*
G01X26149Y43575D01*
G01X26168Y43609D01*
G01X26185Y43644D01*
G01X26200Y43681D01*
G01X26213Y43718D01*
G01X26224Y43755D01*
G01X26233Y43794D01*
G01X26240Y43832D01*
G01X26245Y43871D01*
G01X26248Y43910D01*
G01X26250Y43950D01*
G04 end of side 15*
G01X26250Y44650D01*
G04 end of side 16*
G01X30000Y44650D01*
G04 end of side 17*
G01X30000Y43550D01*
G04 end of side 18*
G01X30000Y43512D01*
G01X30001Y43475D01*
G01X30004Y43437D01*
G01X30007Y43400D01*
G01X30012Y43362D01*
G01X30017Y43325D01*
G01X30023Y43288D01*
G01X30030Y43251D01*
G01X30038Y43214D01*
G01X30047Y43178D01*
G01X30057Y43141D01*
G01X30068Y43105D01*
G01X30080Y43069D01*
G01X30093Y43034D01*
G01X30107Y42998D01*
G01X30121Y42963D01*
G01X30137Y42929D01*
G01X30153Y42894D01*
G01X30170Y42860D01*
G01X30188Y42826D01*
G01X30207Y42793D01*
G01X30227Y42760D01*
G01X30248Y42728D01*
G01X30269Y42696D01*
G01X30292Y42664D01*
G01X30315Y42633D01*
G01X30339Y42603D01*
G01X30363Y42573D01*
G01X30389Y42544D01*
G01X30415Y42515D01*
G01X30442Y42486D01*
G01X30469Y42459D01*
G01X30498Y42431D01*
G01X30527Y42405D01*
G01X30556Y42379D01*
G01X30587Y42354D01*
G01X30618Y42329D01*
G01X30649Y42305D01*
G01X30681Y42282D01*
G01X30714Y42259D01*
G01X30748Y42238D01*
G01X30782Y42217D01*
G01X30816Y42196D01*
G01X30851Y42177D01*
G01X30886Y42158D01*
G01X30922Y42140D01*
G01X30959Y42122D01*
G01X30995Y42106D01*
G01X31033Y42090D01*
G01X31070Y42075D01*
G01X31108Y42061D01*
G01X31147Y42047D01*
G01X31185Y42035D01*
G01X31224Y42023D01*
G01X31264Y42012D01*
G01X31303Y42002D01*
G01X31343Y41993D01*
G01X31383Y41985D01*
G01X31423Y41978D01*
G01X31464Y41971D01*
G01X31504Y41965D01*
G01X31545Y41960D01*
G01X31586Y41957D01*
G01X31627Y41953D01*
G01X31667Y41951D01*
G01X31708Y41950D01*
G01X31750Y41950D01*
G04 end of side 19*
G01X31791Y41950D01*
G01X31832Y41951D01*
G01X31872Y41953D01*
G01X31913Y41957D01*
G01X31954Y41960D01*
G01X31995Y41965D01*
G01X32035Y41971D01*
G01X32076Y41978D01*
G01X32116Y41985D01*
G01X32156Y41993D01*
G01X32196Y42002D01*
G01X32235Y42012D01*
G01X32275Y42023D01*
G01X32314Y42035D01*
G01X32352Y42047D01*
G01X32391Y42061D01*
G01X32429Y42075D01*
G01X32466Y42090D01*
G01X32504Y42106D01*
G01X32540Y42122D01*
G01X32577Y42140D01*
G01X32613Y42158D01*
G01X32648Y42177D01*
G01X32683Y42196D01*
G01X32717Y42217D01*
G01X32751Y42238D01*
G01X32785Y42259D01*
G01X32818Y42282D01*
G01X32850Y42305D01*
G01X32881Y42329D01*
G01X32912Y42354D01*
G01X32943Y42379D01*
G01X32972Y42405D01*
G01X33001Y42431D01*
G01X33030Y42459D01*
G01X33057Y42486D01*
G01X33084Y42515D01*
G01X33110Y42544D01*
G01X33136Y42573D01*
G01X33160Y42603D01*
G01X33184Y42633D01*
G01X33207Y42664D01*
G01X33230Y42696D01*
G01X33251Y42728D01*
G01X33272Y42760D01*
G01X33292Y42793D01*
G01X33311Y42826D01*
G01X33329Y42860D01*
G01X33346Y42894D01*
G01X33362Y42929D01*
G01X33378Y42963D01*
G01X33392Y42998D01*
G01X33406Y43034D01*
G01X33419Y43069D01*
G01X33431Y43105D01*
G01X33442Y43141D01*
G01X33452Y43178D01*
G01X33461Y43214D01*
G01X33469Y43251D01*
G01X33476Y43288D01*
G01X33482Y43325D01*
G01X33487Y43362D01*
G01X33492Y43400D01*
G01X33495Y43437D01*
G01X33498Y43475D01*
G01X33499Y43512D01*
G01X33500Y43550D01*
G04 end of side 20*
G01X33500Y44650D01*
G04 end of side 21*
G01X37250Y44650D01*
G04 end of side 22*
G01X37250Y43950D01*
G04 end of side 23*
G01X37251Y43910D01*
G01X37254Y43871D01*
G01X37259Y43832D01*
G01X37266Y43794D01*
G01X37275Y43755D01*
G01X37286Y43718D01*
G01X37299Y43681D01*
G01X37314Y43644D01*
G01X37331Y43609D01*
G01X37350Y43574D01*
G01X37370Y43541D01*
G01X37393Y43509D01*
G01X37417Y43478D01*
G01X37442Y43448D01*
G01X37469Y43419D01*
G01X37498Y43392D01*
G01X37528Y43367D01*
G01X37559Y43343D01*
G01X37591Y43320D01*
G01X37625Y43300D01*
G01X37659Y43281D01*
G01X37694Y43264D01*
G01X37731Y43249D01*
G01X37768Y43236D01*
G01X37805Y43225D01*
G01X37844Y43216D01*
G01X37882Y43209D01*
G01X37921Y43204D01*
G01X37960Y43201D01*
G01X38000Y43200D01*
G04 end of side 24*
G01X38039Y43201D01*
G01X38078Y43204D01*
G01X38117Y43209D01*
G01X38155Y43216D01*
G01X38194Y43225D01*
G01X38231Y43236D01*
G01X38268Y43249D01*
G01X38305Y43264D01*
G01X38340Y43281D01*
G01X38375Y43300D01*
G01X38408Y43320D01*
G01X38440Y43343D01*
G01X38471Y43367D01*
G01X38501Y43392D01*
G01X38530Y43419D01*
G01X38557Y43448D01*
G01X38582Y43478D01*
G01X38606Y43509D01*
G01X38629Y43541D01*
G01X38649Y43575D01*
G01X38668Y43609D01*
G01X38685Y43644D01*
G01X38700Y43681D01*
G01X38713Y43718D01*
G01X38724Y43755D01*
G01X38733Y43794D01*
G01X38740Y43832D01*
G01X38745Y43871D01*
G01X38748Y43910D01*
G01X38750Y43950D01*
G04 end of side 25*
G01X38700Y44650D01*
G04 end of side 26*
G01X53500Y44650D01*
G04 end of side 27*
G01X53500Y43950D01*
G04 end of side 28*
G01X53501Y43910D01*
G01X53504Y43871D01*
G01X53509Y43832D01*
G01X53516Y43794D01*
G01X53525Y43755D01*
G01X53536Y43718D01*
G01X53549Y43681D01*
G01X53564Y43644D01*
G01X53581Y43609D01*
G01X53600Y43574D01*
G01X53620Y43541D01*
G01X53643Y43509D01*
G01X53667Y43478D01*
G01X53692Y43448D01*
G01X53719Y43419D01*
G01X53748Y43392D01*
G01X53778Y43367D01*
G01X53809Y43343D01*
G01X53841Y43320D01*
G01X53875Y43300D01*
G01X53909Y43281D01*
G01X53944Y43264D01*
G01X53981Y43249D01*
G01X54018Y43236D01*
G01X54055Y43225D01*
G01X54094Y43216D01*
G01X54132Y43209D01*
G01X54171Y43204D01*
G01X54210Y43201D01*
G01X54250Y43200D01*
G04 end of side 29*
G01X54289Y43201D01*
G01X54328Y43204D01*
G01X54367Y43209D01*
G01X54405Y43216D01*
G01X54444Y43225D01*
G01X54481Y43236D01*
G01X54518Y43249D01*
G01X54555Y43264D01*
G01X54590Y43281D01*
G01X54625Y43300D01*
G01X54658Y43320D01*
G01X54690Y43343D01*
G01X54721Y43367D01*
G01X54751Y43392D01*
G01X54780Y43419D01*
G01X54807Y43448D01*
G01X54832Y43478D01*
G01X54856Y43509D01*
G01X54879Y43541D01*
G01X54899Y43575D01*
G01X54918Y43609D01*
G01X54935Y43644D01*
G01X54950Y43681D01*
G01X54963Y43718D01*
G01X54974Y43755D01*
G01X54983Y43794D01*
G01X54990Y43832D01*
G01X54995Y43871D01*
G01X54998Y43910D01*
G01X55000Y43950D01*
G04 end of side 30*
G01X55000Y44650D01*
G04 end of side 31*
G01X60000Y44650D01*
G04 end of side 32*
G01X60000Y43550D01*
G04 end of side 33*
G01X60000Y43510D01*
G01X60001Y43471D01*
G01X60003Y43432D01*
G01X60007Y43393D01*
G01X60011Y43354D01*
G01X60015Y43315D01*
G01X60021Y43276D01*
G01X60028Y43237D01*
G01X60035Y43198D01*
G01X60043Y43160D01*
G01X60053Y43122D01*
G01X60063Y43084D01*
G01X60073Y43046D01*
G01X60085Y43009D01*
G01X60098Y42972D01*
G01X60111Y42935D01*
G01X60125Y42898D01*
G01X60140Y42862D01*
G01X60156Y42826D01*
G01X60173Y42790D01*
G01X60190Y42755D01*
G01X60208Y42720D01*
G01X60227Y42686D01*
G01X60247Y42652D01*
G01X60268Y42618D01*
G01X60289Y42585D01*
G01X60311Y42553D01*
G01X60334Y42521D01*
G01X60357Y42489D01*
G01X60381Y42458D01*
G01X60406Y42428D01*
G01X60432Y42398D01*
G01X60458Y42369D01*
G01X60485Y42340D01*
G01X60512Y42312D01*
G01X60540Y42285D01*
G01X60569Y42258D01*
G01X60598Y42232D01*
G01X60628Y42206D01*
G01X60658Y42181D01*
G01X60689Y42157D01*
G01X60721Y42134D01*
G01X60753Y42111D01*
G01X60785Y42089D01*
G01X60818Y42068D01*
G01X60852Y42047D01*
G01X60886Y42027D01*
G01X60920Y42008D01*
G01X60955Y41990D01*
G01X60990Y41973D01*
G01X61026Y41956D01*
G01X61062Y41940D01*
G01X61098Y41925D01*
G01X61135Y41911D01*
G01X61172Y41898D01*
G01X61209Y41885D01*
G01X61246Y41873D01*
G01X61284Y41863D01*
G01X61322Y41853D01*
G01X61360Y41843D01*
G01X61398Y41835D01*
G01X61437Y41828D01*
G01X61476Y41821D01*
G01X61515Y41815D01*
G01X61554Y41811D01*
G01X61593Y41807D01*
G01X61632Y41803D01*
G01X61671Y41801D01*
G01X61710Y41800D01*
G01X61750Y41800D01*
G04 end of side 34*
G01X63500Y41800D01*
G04 end of side 35*
G01X63500Y3500D01*
G04 end of side 36*
G01X61750Y3500D01*
G04 end of side 37*
G01X61710Y3499D01*
G01X61671Y3498D01*
G01X61632Y3496D01*
G01X61593Y3492D01*
G01X61554Y3488D01*
G01X61515Y3484D01*
G01X61476Y3478D01*
G01X61437Y3471D01*
G01X61398Y3464D01*
G01X61360Y3456D01*
G01X61322Y3446D01*
G01X61284Y3436D01*
G01X61246Y3426D01*
G01X61209Y3414D01*
G01X61172Y3401D01*
G01X61135Y3388D01*
G01X61098Y3374D01*
G01X61062Y3359D01*
G01X61026Y3343D01*
G01X60990Y3326D01*
G01X60955Y3309D01*
G01X60920Y3291D01*
G01X60886Y3272D01*
G01X60852Y3252D01*
G01X60818Y3231D01*
G01X60785Y3210D01*
G01X60753Y3188D01*
G01X60721Y3165D01*
G01X60689Y3142D01*
G01X60658Y3118D01*
G01X60628Y3093D01*
G01X60598Y3067D01*
G01X60569Y3041D01*
G01X60540Y3014D01*
G01X60512Y2987D01*
G01X60485Y2959D01*
G01X60458Y2930D01*
G01X60432Y2901D01*
G01X60406Y2871D01*
G01X60381Y2841D01*
G01X60357Y2810D01*
G01X60334Y2778D01*
G01X60311Y2746D01*
G01X60289Y2714D01*
G01X60268Y2681D01*
G01X60247Y2647D01*
G01X60227Y2613D01*
G01X60208Y2579D01*
G01X60190Y2544D01*
G01X60173Y2509D01*
G01X60156Y2473D01*
G01X60140Y2437D01*
G01X60125Y2401D01*
G01X60111Y2364D01*
G01X60098Y2327D01*
G01X60085Y2290D01*
G01X60073Y2253D01*
G01X60063Y2215D01*
G01X60053Y2177D01*
G01X60043Y2139D01*
G01X60035Y2101D01*
G01X60028Y2062D01*
G01X60021Y2023D01*
G01X60015Y1984D01*
G01X60011Y1945D01*
G01X60007Y1906D01*
G01X60003Y1867D01*
G01X60001Y1828D01*
G01X60000Y1789D01*
G01X60000Y1750D01*
G04 end of side 38*
G01X60000Y0D01*
G04 end of side 39*
G01X55000Y0D01*
G04 end of side 40*
G01X55000Y2050D01*
G04 end of side 41*
G01X54998Y2089D01*
G01X54995Y2128D01*
G01X54990Y2167D01*
G01X54983Y2205D01*
G01X54974Y2244D01*
G01X54963Y2281D01*
G01X54950Y2318D01*
G01X54935Y2355D01*
G01X54918Y2390D01*
G01X54899Y2425D01*
G01X54879Y2458D01*
G01X54856Y2490D01*
G01X54832Y2521D01*
G01X54807Y2551D01*
G01X54780Y2580D01*
G01X54751Y2607D01*
G01X54721Y2632D01*
G01X54690Y2656D01*
G01X54658Y2679D01*
G01X54624Y2699D01*
G01X54590Y2718D01*
G01X54555Y2735D01*
G01X54518Y2750D01*
G01X54481Y2763D01*
G01X54444Y2774D01*
G01X54405Y2783D01*
G01X54367Y2790D01*
G01X54328Y2795D01*
G01X54289Y2798D01*
G01X54250Y2800D01*
G04 end of side 42*
G01X54210Y2798D01*
G01X54171Y2795D01*
G01X54132Y2790D01*
G01X54094Y2783D01*
G01X54055Y2774D01*
G01X54018Y2763D01*
G01X53981Y2750D01*
G01X53944Y2735D01*
G01X53909Y2718D01*
G01X53874Y2699D01*
G01X53841Y2679D01*
G01X53809Y2656D01*
G01X53778Y2632D01*
G01X53748Y2607D01*
G01X53719Y2580D01*
G01X53692Y2551D01*
G01X53667Y2521D01*
G01X53643Y2490D01*
G01X53620Y2458D01*
G01X53600Y2424D01*
G01X53581Y2390D01*
G01X53564Y2355D01*
G01X53549Y2318D01*
G01X53536Y2281D01*
G01X53525Y2244D01*
G01X53516Y2205D01*
G01X53509Y2167D01*
G01X53504Y2128D01*
G01X53501Y2089D01*
G01X53500Y2050D01*
G04 end of side 43*
G01X53500Y0D01*
G04 end of side 44*
G01X38750Y0D01*
G04 end of side 45*
G01X38750Y2050D01*
G04 end of side 46*
G01X38748Y2089D01*
G01X38745Y2128D01*
G01X38740Y2167D01*
G01X38733Y2205D01*
G01X38724Y2244D01*
G01X38713Y2281D01*
G01X38700Y2318D01*
G01X38685Y2355D01*
G01X38668Y2390D01*
G01X38649Y2425D01*
G01X38629Y2458D01*
G01X38606Y2490D01*
G01X38582Y2521D01*
G01X38557Y2551D01*
G01X38530Y2580D01*
G01X38501Y2607D01*
G01X38471Y2632D01*
G01X38440Y2656D01*
G01X38408Y2679D01*
G01X38374Y2699D01*
G01X38340Y2718D01*
G01X38305Y2735D01*
G01X38268Y2750D01*
G01X38231Y2763D01*
G01X38194Y2774D01*
G01X38155Y2783D01*
G01X38117Y2790D01*
G01X38078Y2795D01*
G01X38039Y2798D01*
G01X38000Y2800D01*
G04 end of side 47*
G01X37960Y2798D01*
G01X37921Y2795D01*
G01X37882Y2790D01*
G01X37844Y2783D01*
G01X37805Y2774D01*
G01X37768Y2763D01*
G01X37731Y2750D01*
G01X37694Y2735D01*
G01X37659Y2718D01*
G01X37624Y2699D01*
G01X37591Y2679D01*
G01X37559Y2656D01*
G01X37528Y2632D01*
G01X37498Y2607D01*
G01X37469Y2580D01*
G01X37442Y2551D01*
G01X37417Y2521D01*
G01X37393Y2490D01*
G01X37370Y2458D01*
G01X37350Y2424D01*
G01X37331Y2390D01*
G01X37314Y2355D01*
G01X37299Y2318D01*
G01X37286Y2281D01*
G01X37275Y2244D01*
G01X37266Y2205D01*
G01X37259Y2167D01*
G01X37254Y2128D01*
G01X37251Y2089D01*
G01X37250Y2050D01*
G04 end of side 48*
G01X37250Y0D01*
G04 end of side 49*
G01X33500Y0D01*
G04 end of side 50*
G01X33500Y1750D01*
G04 end of side 51*
G01X33499Y1787D01*
G01X33498Y1824D01*
G01X33495Y1862D01*
G01X33492Y1899D01*
G01X33487Y1937D01*
G01X33482Y1974D01*
G01X33476Y2011D01*
G01X33469Y2048D01*
G01X33461Y2085D01*
G01X33452Y2121D01*
G01X33442Y2158D01*
G01X33431Y2194D01*
G01X33419Y2230D01*
G01X33406Y2265D01*
G01X33392Y2301D01*
G01X33378Y2336D01*
G01X33362Y2370D01*
G01X33346Y2405D01*
G01X33329Y2439D01*
G01X33311Y2473D01*
G01X33292Y2506D01*
G01X33272Y2539D01*
G01X33251Y2571D01*
G01X33230Y2603D01*
G01X33207Y2635D01*
G01X33184Y2666D01*
G01X33160Y2696D01*
G01X33136Y2726D01*
G01X33110Y2755D01*
G01X33084Y2784D01*
G01X33057Y2813D01*
G01X33030Y2840D01*
G01X33001Y2868D01*
G01X32972Y2894D01*
G01X32943Y2920D01*
G01X32912Y2945D01*
G01X32881Y2970D01*
G01X32850Y2994D01*
G01X32818Y3017D01*
G01X32785Y3040D01*
G01X32751Y3061D01*
G01X32717Y3082D01*
G01X32683Y3103D01*
G01X32648Y3122D01*
G01X32613Y3141D01*
G01X32577Y3159D01*
G01X32540Y3177D01*
G01X32504Y3193D01*
G01X32466Y3209D01*
G01X32429Y3224D01*
G01X32391Y3238D01*
G01X32352Y3252D01*
G01X32314Y3264D01*
G01X32275Y3276D01*
G01X32235Y3287D01*
G01X32196Y3297D01*
G01X32156Y3306D01*
G01X32116Y3314D01*
G01X32076Y3321D01*
G01X32035Y3328D01*
G01X31995Y3334D01*
G01X31954Y3339D01*
G01X31913Y3342D01*
G01X31872Y3346D01*
G01X31832Y3348D01*
G01X31791Y3349D01*
G01X31750Y3350D01*
G04 end of side 52*
G01X31708Y3349D01*
G01X31667Y3348D01*
G01X31627Y3346D01*
G01X31586Y3342D01*
G01X31545Y3339D01*
G01X31504Y3334D01*
G01X31464Y3328D01*
G01X31423Y3321D01*
G01X31383Y3314D01*
G01X31343Y3306D01*
G01X31303Y3297D01*
G01X31264Y3287D01*
G01X31224Y3276D01*
G01X31185Y3264D01*
G01X31147Y3252D01*
G01X31108Y3238D01*
G01X31070Y3224D01*
G01X31033Y3209D01*
G01X30995Y3193D01*
G01X30959Y3177D01*
G01X30922Y3159D01*
G01X30886Y3141D01*
G01X30851Y3122D01*
G01X30816Y3103D01*
G01X30782Y3082D01*
G01X30748Y3061D01*
G01X30714Y3040D01*
G01X30681Y3017D01*
G01X30649Y2994D01*
G01X30618Y2970D01*
G01X30587Y2945D01*
G01X30556Y2920D01*
G01X30527Y2894D01*
G01X30498Y2868D01*
G01X30469Y2840D01*
G01X30442Y2813D01*
G01X30415Y2784D01*
G01X30389Y2755D01*
G01X30363Y2726D01*
G01X30339Y2696D01*
G01X30315Y2666D01*
G01X30292Y2635D01*
G01X30269Y2603D01*
G01X30248Y2571D01*
G01X30227Y2539D01*
G01X30207Y2506D01*
G01X30188Y2473D01*
G01X30170Y2439D01*
G01X30153Y2405D01*
G01X30137Y2370D01*
G01X30121Y2336D01*
G01X30107Y2301D01*
G01X30093Y2265D01*
G01X30080Y2230D01*
G01X30068Y2194D01*
G01X30057Y2158D01*
G01X30047Y2121D01*
G01X30038Y2085D01*
G01X30030Y2048D01*
G01X30023Y2011D01*
G01X30017Y1974D01*
G01X30012Y1937D01*
G01X30007Y1899D01*
G01X30004Y1862D01*
G01X30001Y1824D01*
G01X30000Y1787D01*
G01X30000Y1750D01*
G04 end of side 53*
G01X30000Y0D01*
G04 end of side 54*
G01X26250Y0D01*
G04 end of side 55*
G01X26250Y2050D01*
G04 end of side 56*
G01X26248Y2089D01*
G01X26245Y2128D01*
G01X26240Y2167D01*
G01X26233Y2205D01*
G01X26224Y2244D01*
G01X26213Y2281D01*
G01X26200Y2318D01*
G01X26185Y2355D01*
G01X26168Y2390D01*
G01X26149Y2425D01*
G01X26129Y2458D01*
G01X26106Y2490D01*
G01X26082Y2521D01*
G01X26057Y2551D01*
G01X26030Y2580D01*
G01X26001Y2607D01*
G01X25971Y2632D01*
G01X25940Y2656D01*
G01X25908Y2679D01*
G01X25874Y2699D01*
G01X25840Y2718D01*
G01X25805Y2735D01*
G01X25768Y2750D01*
G01X25731Y2763D01*
G01X25694Y2774D01*
G01X25655Y2783D01*
G01X25617Y2790D01*
G01X25578Y2795D01*
G01X25539Y2798D01*
G01X25500Y2800D01*
G04 end of side 57*
G01X25460Y2798D01*
G01X25421Y2795D01*
G01X25382Y2790D01*
G01X25344Y2783D01*
G01X25305Y2774D01*
G01X25268Y2763D01*
G01X25231Y2750D01*
G01X25194Y2735D01*
G01X25159Y2718D01*
G01X25124Y2699D01*
G01X25091Y2679D01*
G01X25059Y2656D01*
G01X25028Y2632D01*
G01X24998Y2607D01*
G01X24969Y2580D01*
G01X24942Y2551D01*
G01X24917Y2521D01*
G01X24893Y2490D01*
G01X24870Y2458D01*
G01X24850Y2424D01*
G01X24831Y2390D01*
G01X24814Y2355D01*
G01X24799Y2318D01*
G01X24786Y2281D01*
G01X24775Y2244D01*
G01X24766Y2205D01*
G01X24759Y2167D01*
G01X24754Y2128D01*
G01X24751Y2089D01*
G01X24750Y2050D01*
G04 end of side 58*
G01X24750Y0D01*
G04 end of side 59*
G01X10000Y0D01*
G04 end of side 60*
G01X10000Y2050D01*
G04 end of side 61*
G01X9998Y2089D01*
G01X9995Y2128D01*
G01X9990Y2167D01*
G01X9983Y2205D01*
G01X9974Y2244D01*
G01X9963Y2281D01*
G01X9950Y2318D01*
G01X9935Y2355D01*
G01X9918Y2390D01*
G01X9899Y2425D01*
G01X9879Y2458D01*
G01X9856Y2490D01*
G01X9832Y2521D01*
G01X9807Y2551D01*
G01X9780Y2580D01*
G01X9751Y2607D01*
G01X9721Y2632D01*
G01X9690Y2656D01*
G01X9658Y2679D01*
G01X9624Y2699D01*
G01X9590Y2718D01*
G01X9555Y2735D01*
G01X9518Y2750D01*
G01X9481Y2763D01*
G01X9444Y2774D01*
G01X9405Y2783D01*
G01X9367Y2790D01*
G01X9328Y2795D01*
G01X9289Y2798D01*
G01X9250Y2800D01*
G04 end of side 62*
G01X9210Y2798D01*
G01X9171Y2795D01*
G01X9132Y2790D01*
G01X9094Y2783D01*
G01X9055Y2774D01*
G01X9018Y2763D01*
G01X8981Y2750D01*
G01X8944Y2735D01*
G01X8909Y2718D01*
G01X8874Y2699D01*
G01X8841Y2679D01*
G01X8809Y2656D01*
G01X8778Y2632D01*
G01X8748Y2607D01*
G01X8719Y2580D01*
G01X8692Y2551D01*
G01X8667Y2521D01*
G01X8643Y2490D01*
G01X8620Y2458D01*
G01X8600Y2424D01*
G01X8581Y2390D01*
G01X8564Y2355D01*
G01X8549Y2318D01*
G01X8536Y2281D01*
G01X8525Y2244D01*
G01X8516Y2205D01*
G01X8509Y2167D01*
G01X8504Y2128D01*
G01X8501Y2089D01*
G01X8500Y2050D01*
G04 end of side 63*
G01X8500Y0D01*
G04 end of side 64*
G01X3500Y0D01*
G04 end of side 65*
G01X3500Y1750D01*

G04 -------------- Draw Parts, Pads, Traces, Vias and Text (positive)*
%LPD*%
G04 Draw part U3*
G04 Draw part C3*
G04 Draw part U1*
G04 Draw part C6*
G04 Draw part C7*
G04 Draw part S1*
G04 draw part outline for part S1*
G54D11*
G01X5011Y8811D02*
G01X8988Y8811D01*
G01X8988Y8811D02*
G01X8988Y12788D01*
G01X8988Y12788D02*
G01X5011Y12788D01*
G01X5011Y12788D02*
G01X5011Y8811D01*
G54D12*
G01X7000Y10878D02*
G01X7078Y10800D01*
G01X7078Y10800D02*
G01X7000Y10721D01*
G01X7000Y10721D02*
G01X6921Y10800D01*
G01X6921Y10800D02*
G01X7000Y10878D01*
G01X4204Y10760D02*
G01X4204Y10800D01*
G01X4205Y10839D01*
G01X4207Y10878D01*
G01X4209Y10918D01*
G01X4211Y10957D01*
G01X4214Y10996D01*
G01X4218Y11036D01*
G01X4222Y11075D01*
G01X4226Y11114D01*
G01X4232Y11153D01*
G01X4237Y11192D01*
G01X4244Y11231D01*
G01X4250Y11270D01*
G01X4258Y11308D01*
G01X4266Y11347D01*
G01X4274Y11385D01*
G01X4283Y11424D01*
G01X4292Y11462D01*
G01X4303Y11500D01*
G01X4313Y11538D01*
G01X4324Y11576D01*
G01X4336Y11614D01*
G01X4348Y11651D01*
G01X4361Y11688D01*
G01X4374Y11726D01*
G01X4387Y11762D01*
G01X4402Y11799D01*
G01X4416Y11836D01*
G01X4431Y11872D01*
G01X4447Y11908D01*
G01X4463Y11944D01*
G01X4480Y11980D01*
G01X4497Y12015D01*
G01X4515Y12051D01*
G01X4533Y12086D01*
G01X4552Y12120D01*
G01X4571Y12155D01*
G01X4591Y12189D01*
G01X4611Y12223D01*
G01X4631Y12256D01*
G01X4652Y12290D01*
G01X4674Y12323D01*
G01X4696Y12355D01*
G01X4718Y12388D01*
G01X4741Y12420D01*
G01X4764Y12452D01*
G01X4788Y12483D01*
G01X4812Y12514D01*
G01X4837Y12545D01*
G01X4862Y12575D01*
G01X4887Y12606D01*
G01X4913Y12635D01*
G01X4939Y12665D01*
G01X4966Y12694D01*
G01X4993Y12722D01*
G01X5021Y12751D01*
G01X5048Y12778D01*
G01X5077Y12806D01*
G01X5105Y12833D01*
G01X5134Y12860D01*
G01X5164Y12886D01*
G01X5193Y12912D01*
G01X5224Y12937D01*
G01X5254Y12962D01*
G01X5285Y12987D01*
G01X5316Y13011D01*
G01X5347Y13035D01*
G01X5379Y13058D01*
G01X5411Y13081D01*
G01X5444Y13103D01*
G01X5476Y13125D01*
G01X5509Y13147D01*
G01X5543Y13168D01*
G01X5576Y13188D01*
G01X5610Y13208D01*
G01X5644Y13228D01*
G01X5679Y13247D01*
G01X5713Y13266D01*
G01X5748Y13284D01*
G01X5784Y13302D01*
G01X5819Y13319D01*
G01X5855Y13336D01*
G01X5891Y13352D01*
G01X5927Y13368D01*
G01X5963Y13383D01*
G01X6000Y13397D01*
G01X6037Y13412D01*
G01X6073Y13425D01*
G01X6111Y13438D01*
G01X6148Y13451D01*
G01X6185Y13463D01*
G01X6223Y13475D01*
G01X6261Y13486D01*
G01X6299Y13496D01*
G01X6337Y13507D01*
G01X6375Y13516D01*
G01X6414Y13525D01*
G01X6452Y13533D01*
G01X6491Y13541D01*
G01X6529Y13549D01*
G01X6568Y13555D01*
G01X6607Y13562D01*
G01X6646Y13567D01*
G01X6685Y13573D01*
G01X6724Y13577D01*
G01X6763Y13581D01*
G01X6803Y13585D01*
G01X6842Y13588D01*
G01X6881Y13590D01*
G01X6921Y13592D01*
G01X6960Y13594D01*
G01X6999Y13595D01*
G01X7039Y13595D01*
G01X7039Y13595D02*
G01X7078Y13594D01*
G01X7118Y13594D01*
G01X7157Y13592D01*
G01X7196Y13590D01*
G01X7235Y13588D01*
G01X7275Y13585D01*
G01X7314Y13581D01*
G01X7353Y13577D01*
G01X7392Y13572D01*
G01X7431Y13567D01*
G01X7470Y13561D01*
G01X7509Y13554D01*
G01X7548Y13547D01*
G01X7586Y13540D01*
G01X7625Y13532D01*
G01X7663Y13523D01*
G01X7701Y13514D01*
G01X7739Y13504D01*
G01X7777Y13494D01*
G01X7815Y13483D01*
G01X7853Y13472D01*
G01X7890Y13460D01*
G01X7928Y13447D01*
G01X7965Y13435D01*
G01X8002Y13421D01*
G01X8039Y13407D01*
G01X8075Y13392D01*
G01X8112Y13377D01*
G01X8148Y13362D01*
G01X8184Y13346D01*
G01X8219Y13329D01*
G01X8255Y13312D01*
G01X8290Y13294D01*
G01X8325Y13276D01*
G01X8360Y13258D01*
G01X8394Y13239D01*
G01X8428Y13219D01*
G01X8462Y13199D01*
G01X8496Y13178D01*
G01X8529Y13157D01*
G01X8562Y13136D01*
G01X8594Y13114D01*
G01X8627Y13091D01*
G01X8659Y13068D01*
G01X8690Y13045D01*
G01X8722Y13021D01*
G01X8753Y12997D01*
G01X8783Y12972D01*
G01X8814Y12947D01*
G01X8844Y12922D01*
G01X8873Y12896D01*
G01X8902Y12869D01*
G01X8931Y12842D01*
G01X8960Y12815D01*
G01X8988Y12788D01*
G01X9015Y12760D01*
G01X9042Y12731D01*
G01X9069Y12702D01*
G01X9096Y12673D01*
G01X9122Y12644D01*
G01X9147Y12614D01*
G01X9172Y12583D01*
G01X9197Y12553D01*
G01X9221Y12522D01*
G01X9245Y12490D01*
G01X9268Y12459D01*
G01X9291Y12427D01*
G01X9314Y12394D01*
G01X9336Y12362D01*
G01X9357Y12329D01*
G01X9378Y12296D01*
G01X9399Y12262D01*
G01X9419Y12228D01*
G01X9439Y12194D01*
G01X9458Y12160D01*
G01X9476Y12125D01*
G01X9494Y12090D01*
G01X9512Y12055D01*
G01X9529Y12019D01*
G01X9546Y11984D01*
G01X9562Y11948D01*
G01X9577Y11912D01*
G01X9592Y11875D01*
G01X9607Y11839D01*
G01X9621Y11802D01*
G01X9635Y11765D01*
G01X9647Y11728D01*
G01X9660Y11690D01*
G01X9672Y11653D01*
G01X9683Y11615D01*
G01X9694Y11577D01*
G01X9704Y11539D01*
G01X9714Y11501D01*
G01X9723Y11463D01*
G01X9732Y11425D01*
G01X9740Y11386D01*
G01X9747Y11348D01*
G01X9754Y11309D01*
G01X9761Y11270D01*
G01X9767Y11231D01*
G01X9772Y11192D01*
G01X9777Y11153D01*
G01X9781Y11114D01*
G01X9785Y11075D01*
G01X9788Y11035D01*
G01X9790Y10996D01*
G01X9792Y10957D01*
G01X9794Y10918D01*
G01X9794Y10878D01*
G01X9795Y10839D01*
G01X9795Y10839D02*
G01X9795Y10799D01*
G01X9794Y10760D01*
G01X9792Y10721D01*
G01X9790Y10681D01*
G01X9788Y10642D01*
G01X9785Y10603D01*
G01X9781Y10563D01*
G01X9777Y10524D01*
G01X9773Y10485D01*
G01X9767Y10446D01*
G01X9762Y10407D01*
G01X9755Y10368D01*
G01X9749Y10329D01*
G01X9741Y10291D01*
G01X9733Y10252D01*
G01X9725Y10214D01*
G01X9716Y10175D01*
G01X9707Y10137D01*
G01X9696Y10099D01*
G01X9686Y10061D01*
G01X9675Y10023D01*
G01X9663Y9985D01*
G01X9651Y9948D01*
G01X9638Y9911D01*
G01X9625Y9873D01*
G01X9612Y9837D01*
G01X9597Y9800D01*
G01X9583Y9763D01*
G01X9568Y9727D01*
G01X9552Y9691D01*
G01X9536Y9655D01*
G01X9519Y9619D01*
G01X9502Y9584D01*
G01X9484Y9548D01*
G01X9466Y9513D01*
G01X9447Y9479D01*
G01X9428Y9444D01*
G01X9408Y9410D01*
G01X9388Y9376D01*
G01X9368Y9343D01*
G01X9347Y9309D01*
G01X9325Y9276D01*
G01X9303Y9244D01*
G01X9281Y9211D01*
G01X9258Y9179D01*
G01X9235Y9147D01*
G01X9211Y9116D01*
G01X9187Y9085D01*
G01X9162Y9054D01*
G01X9137Y9024D01*
G01X9112Y8993D01*
G01X9086Y8964D01*
G01X9060Y8934D01*
G01X9033Y8905D01*
G01X9006Y8877D01*
G01X8978Y8848D01*
G01X8951Y8821D01*
G01X8922Y8793D01*
G01X8894Y8766D01*
G01X8865Y8739D01*
G01X8835Y8713D01*
G01X8806Y8687D01*
G01X8775Y8662D01*
G01X8745Y8637D01*
G01X8714Y8612D01*
G01X8683Y8588D01*
G01X8652Y8564D01*
G01X8620Y8541D01*
G01X8588Y8518D01*
G01X8555Y8496D01*
G01X8523Y8474D01*
G01X8490Y8452D01*
G01X8456Y8431D01*
G01X8423Y8411D01*
G01X8389Y8391D01*
G01X8355Y8371D01*
G01X8320Y8352D01*
G01X8286Y8333D01*
G01X8251Y8315D01*
G01X8215Y8297D01*
G01X8180Y8280D01*
G01X8144Y8263D01*
G01X8108Y8247D01*
G01X8072Y8231D01*
G01X8036Y8216D01*
G01X7999Y8202D01*
G01X7962Y8187D01*
G01X7926Y8174D01*
G01X7888Y8161D01*
G01X7851Y8148D01*
G01X7814Y8136D01*
G01X7776Y8124D01*
G01X7738Y8113D01*
G01X7700Y8103D01*
G01X7662Y8092D01*
G01X7624Y8083D01*
G01X7585Y8074D01*
G01X7547Y8066D01*
G01X7508Y8058D01*
G01X7470Y8050D01*
G01X7431Y8044D01*
G01X7392Y8037D01*
G01X7353Y8032D01*
G01X7314Y8026D01*
G01X7275Y8022D01*
G01X7236Y8018D01*
G01X7196Y8014D01*
G01X7157Y8011D01*
G01X7118Y8009D01*
G01X7078Y8007D01*
G01X7039Y8005D01*
G01X7000Y8004D01*
G01X6960Y8004D01*
G01X6960Y8004D02*
G01X6921Y8005D01*
G01X6881Y8005D01*
G01X6842Y8007D01*
G01X6803Y8009D01*
G01X6764Y8011D01*
G01X6724Y8014D01*
G01X6685Y8018D01*
G01X6646Y8022D01*
G01X6607Y8027D01*
G01X6568Y8032D01*
G01X6529Y8038D01*
G01X6490Y8045D01*
G01X6451Y8052D01*
G01X6413Y8059D01*
G01X6374Y8067D01*
G01X6336Y8076D01*
G01X6298Y8085D01*
G01X6260Y8095D01*
G01X6222Y8105D01*
G01X6184Y8116D01*
G01X6146Y8127D01*
G01X6109Y8139D01*
G01X6071Y8152D01*
G01X6034Y8164D01*
G01X5997Y8178D01*
G01X5960Y8192D01*
G01X5924Y8207D01*
G01X5887Y8222D01*
G01X5851Y8237D01*
G01X5815Y8253D01*
G01X5780Y8270D01*
G01X5744Y8287D01*
G01X5709Y8305D01*
G01X5674Y8323D01*
G01X5639Y8341D01*
G01X5605Y8360D01*
G01X5571Y8380D01*
G01X5537Y8400D01*
G01X5503Y8421D01*
G01X5470Y8442D01*
G01X5437Y8463D01*
G01X5405Y8485D01*
G01X5372Y8508D01*
G01X5340Y8531D01*
G01X5309Y8554D01*
G01X5277Y8578D01*
G01X5246Y8602D01*
G01X5216Y8627D01*
G01X5185Y8652D01*
G01X5155Y8677D01*
G01X5126Y8703D01*
G01X5097Y8730D01*
G01X5068Y8757D01*
G01X5039Y8784D01*
G01X5011Y8811D01*
G01X4984Y8839D01*
G01X4957Y8868D01*
G01X4930Y8897D01*
G01X4903Y8926D01*
G01X4877Y8955D01*
G01X4852Y8985D01*
G01X4827Y9016D01*
G01X4802Y9046D01*
G01X4778Y9077D01*
G01X4754Y9109D01*
G01X4731Y9140D01*
G01X4708Y9172D01*
G01X4685Y9205D01*
G01X4663Y9237D01*
G01X4642Y9270D01*
G01X4621Y9303D01*
G01X4600Y9337D01*
G01X4580Y9371D01*
G01X4560Y9405D01*
G01X4541Y9439D01*
G01X4523Y9474D01*
G01X4505Y9509D01*
G01X4487Y9544D01*
G01X4470Y9580D01*
G01X4453Y9615D01*
G01X4437Y9651D01*
G01X4422Y9687D01*
G01X4407Y9724D01*
G01X4392Y9760D01*
G01X4378Y9797D01*
G01X4364Y9834D01*
G01X4352Y9871D01*
G01X4339Y9909D01*
G01X4327Y9946D01*
G01X4316Y9984D01*
G01X4305Y10022D01*
G01X4295Y10060D01*
G01X4285Y10098D01*
G01X4276Y10136D01*
G01X4267Y10174D01*
G01X4259Y10213D01*
G01X4252Y10251D01*
G01X4245Y10290D01*
G01X4238Y10329D01*
G01X4232Y10368D01*
G01X4227Y10407D01*
G01X4222Y10446D01*
G01X4218Y10485D01*
G01X4214Y10524D01*
G01X4211Y10564D01*
G01X4209Y10603D01*
G01X4207Y10642D01*
G01X4205Y10681D01*
G01X4205Y10721D01*
G01X4204Y10760D01*
G04 draw reference designator for part S1*
G54D10*
G01X6972Y8554D02*
G01X7018Y8509D01*
G01X6904Y8577D02*
G01X6972Y8554D01*
G01X6813Y8577D02*
G01X6904Y8577D01*
G01X6813Y8577D02*
G01X6745Y8554D01*
G01X6745Y8554D02*
G01X6700Y8509D01*
G01X6700Y8509D02*
G01X6700Y8463D01*
G01X6700Y8463D02*
G01X6722Y8418D01*
G01X6722Y8418D02*
G01X6745Y8395D01*
G01X6745Y8395D02*
G01X6790Y8372D01*
G01X6790Y8372D02*
G01X6927Y8327D01*
G01X6927Y8327D02*
G01X6972Y8304D01*
G01X6972Y8304D02*
G01X6995Y8281D01*
G01X6995Y8281D02*
G01X7018Y8236D01*
G01X7018Y8236D02*
G01X7018Y8168D01*
G01X7018Y8168D02*
G01X6972Y8122D01*
G01X6972Y8122D02*
G01X6904Y8100D01*
G01X6813Y8100D02*
G01X6904Y8100D01*
G01X6745Y8122D02*
G01X6813Y8100D01*
G01X6700Y8168D02*
G01X6745Y8122D01*
G01X7245Y8509D02*
G01X7200Y8486D01*
G01X7313Y8577D02*
G01X7245Y8509D01*
G01X7313Y8577D02*
G01X7313Y8100D01*
G04 Draw part S2*
G04 draw part outline for part S2*
G54D11*
G01X12011Y8811D02*
G01X15988Y8811D01*
G01X15988Y8811D02*
G01X15988Y12788D01*
G01X15988Y12788D02*
G01X12011Y12788D01*
G01X12011Y12788D02*
G01X12011Y8811D01*
G54D12*
G01X14000Y10878D02*
G01X14078Y10800D01*
G01X14078Y10800D02*
G01X14000Y10721D01*
G01X14000Y10721D02*
G01X13921Y10800D01*
G01X13921Y10800D02*
G01X14000Y10878D01*
G01X11204Y10760D02*
G01X11204Y10800D01*
G01X11205Y10839D01*
G01X11207Y10878D01*
G01X11209Y10918D01*
G01X11211Y10957D01*
G01X11214Y10996D01*
G01X11218Y11036D01*
G01X11222Y11075D01*
G01X11226Y11114D01*
G01X11232Y11153D01*
G01X11237Y11192D01*
G01X11244Y11231D01*
G01X11250Y11270D01*
G01X11258Y11308D01*
G01X11266Y11347D01*
G01X11274Y11385D01*
G01X11283Y11424D01*
G01X11292Y11462D01*
G01X11303Y11500D01*
G01X11313Y11538D01*
G01X11324Y11576D01*
G01X11336Y11614D01*
G01X11348Y11651D01*
G01X11361Y11688D01*
G01X11374Y11726D01*
G01X11387Y11762D01*
G01X11402Y11799D01*
G01X11416Y11836D01*
G01X11431Y11872D01*
G01X11447Y11908D01*
G01X11463Y11944D01*
G01X11480Y11980D01*
G01X11497Y12015D01*
G01X11515Y12051D01*
G01X11533Y12086D01*
G01X11552Y12120D01*
G01X11571Y12155D01*
G01X11591Y12189D01*
G01X11611Y12223D01*
G01X11631Y12256D01*
G01X11652Y12290D01*
G01X11674Y12323D01*
G01X11696Y12355D01*
G01X11718Y12388D01*
G01X11741Y12420D01*
G01X11764Y12452D01*
G01X11788Y12483D01*
G01X11812Y12514D01*
G01X11837Y12545D01*
G01X11862Y12575D01*
G01X11887Y12606D01*
G01X11913Y12635D01*
G01X11939Y12665D01*
G01X11966Y12694D01*
G01X11993Y12722D01*
G01X12021Y12751D01*
G01X12048Y12778D01*
G01X12077Y12806D01*
G01X12105Y12833D01*
G01X12134Y12860D01*
G01X12164Y12886D01*
G01X12193Y12912D01*
G01X12224Y12937D01*
G01X12254Y12962D01*
G01X12285Y12987D01*
G01X12316Y13011D01*
G01X12347Y13035D01*
G01X12379Y13058D01*
G01X12411Y13081D01*
G01X12444Y13103D01*
G01X12476Y13125D01*
G01X12509Y13147D01*
G01X12543Y13168D01*
G01X12576Y13188D01*
G01X12610Y13208D01*
G01X12644Y13228D01*
G01X12679Y13247D01*
G01X12713Y13266D01*
G01X12748Y13284D01*
G01X12784Y13302D01*
G01X12819Y13319D01*
G01X12855Y13336D01*
G01X12891Y13352D01*
G01X12927Y13368D01*
G01X12963Y13383D01*
G01X13000Y13397D01*
G01X13037Y13412D01*
G01X13073Y13425D01*
G01X13111Y13438D01*
G01X13148Y13451D01*
G01X13185Y13463D01*
G01X13223Y13475D01*
G01X13261Y13486D01*
G01X13299Y13496D01*
G01X13337Y13507D01*
G01X13375Y13516D01*
G01X13414Y13525D01*
G01X13452Y13533D01*
G01X13491Y13541D01*
G01X13529Y13549D01*
G01X13568Y13555D01*
G01X13607Y13562D01*
G01X13646Y13567D01*
G01X13685Y13573D01*
G01X13724Y13577D01*
G01X13763Y13581D01*
G01X13803Y13585D01*
G01X13842Y13588D01*
G01X13881Y13590D01*
G01X13921Y13592D01*
G01X13960Y13594D01*
G01X13999Y13595D01*
G01X14039Y13595D01*
G01X14039Y13595D02*
G01X14078Y13594D01*
G01X14118Y13594D01*
G01X14157Y13592D01*
G01X14196Y13590D01*
G01X14235Y13588D01*
G01X14275Y13585D01*
G01X14314Y13581D01*
G01X14353Y13577D01*
G01X14392Y13572D01*
G01X14431Y13567D01*
G01X14470Y13561D01*
G01X14509Y13554D01*
G01X14548Y13547D01*
G01X14586Y13540D01*
G01X14625Y13532D01*
G01X14663Y13523D01*
G01X14701Y13514D01*
G01X14739Y13504D01*
G01X14777Y13494D01*
G01X14815Y13483D01*
G01X14853Y13472D01*
G01X14890Y13460D01*
G01X14928Y13447D01*
G01X14965Y13435D01*
G01X15002Y13421D01*
G01X15039Y13407D01*
G01X15075Y13392D01*
G01X15112Y13377D01*
G01X15148Y13362D01*
G01X15184Y13346D01*
G01X15219Y13329D01*
G01X15255Y13312D01*
G01X15290Y13294D01*
G01X15325Y13276D01*
G01X15360Y13258D01*
G01X15394Y13239D01*
G01X15428Y13219D01*
G01X15462Y13199D01*
G01X15496Y13178D01*
G01X15529Y13157D01*
G01X15562Y13136D01*
G01X15594Y13114D01*
G01X15627Y13091D01*
G01X15659Y13068D01*
G01X15690Y13045D01*
G01X15722Y13021D01*
G01X15753Y12997D01*
G01X15783Y12972D01*
G01X15814Y12947D01*
G01X15844Y12922D01*
G01X15873Y12896D01*
G01X15902Y12869D01*
G01X15931Y12842D01*
G01X15960Y12815D01*
G01X15988Y12788D01*
G01X16015Y12760D01*
G01X16042Y12731D01*
G01X16069Y12702D01*
G01X16096Y12673D01*
G01X16122Y12644D01*
G01X16147Y12614D01*
G01X16172Y12583D01*
G01X16197Y12553D01*
G01X16221Y12522D01*
G01X16245Y12490D01*
G01X16268Y12459D01*
G01X16291Y12427D01*
G01X16314Y12394D01*
G01X16336Y12362D01*
G01X16357Y12329D01*
G01X16378Y12296D01*
G01X16399Y12262D01*
G01X16419Y12228D01*
G01X16439Y12194D01*
G01X16458Y12160D01*
G01X16476Y12125D01*
G01X16494Y12090D01*
G01X16512Y12055D01*
G01X16529Y12019D01*
G01X16546Y11984D01*
G01X16562Y11948D01*
G01X16577Y11912D01*
G01X16592Y11875D01*
G01X16607Y11839D01*
G01X16621Y11802D01*
G01X16635Y11765D01*
G01X16647Y11728D01*
G01X16660Y11690D01*
G01X16672Y11653D01*
G01X16683Y11615D01*
G01X16694Y11577D01*
G01X16704Y11539D01*
G01X16714Y11501D01*
G01X16723Y11463D01*
G01X16732Y11425D01*
G01X16740Y11386D01*
G01X16747Y11348D01*
G01X16754Y11309D01*
G01X16761Y11270D01*
G01X16767Y11231D01*
G01X16772Y11192D01*
G01X16777Y11153D01*
G01X16781Y11114D01*
G01X16785Y11075D01*
G01X16788Y11035D01*
G01X16790Y10996D01*
G01X16792Y10957D01*
G01X16794Y10918D01*
G01X16794Y10878D01*
G01X16795Y10839D01*
G01X16795Y10839D02*
G01X16795Y10799D01*
G01X16794Y10760D01*
G01X16792Y10721D01*
G01X16790Y10681D01*
G01X16788Y10642D01*
G01X16785Y10603D01*
G01X16781Y10563D01*
G01X16777Y10524D01*
G01X16773Y10485D01*
G01X16767Y10446D01*
G01X16762Y10407D01*
G01X16755Y10368D01*
G01X16749Y10329D01*
G01X16741Y10291D01*
G01X16733Y10252D01*
G01X16725Y10214D01*
G01X16716Y10175D01*
G01X16707Y10137D01*
G01X16696Y10099D01*
G01X16686Y10061D01*
G01X16675Y10023D01*
G01X16663Y9985D01*
G01X16651Y9948D01*
G01X16638Y9911D01*
G01X16625Y9873D01*
G01X16612Y9837D01*
G01X16597Y9800D01*
G01X16583Y9763D01*
G01X16568Y9727D01*
G01X16552Y9691D01*
G01X16536Y9655D01*
G01X16519Y9619D01*
G01X16502Y9584D01*
G01X16484Y9548D01*
G01X16466Y9513D01*
G01X16447Y9479D01*
G01X16428Y9444D01*
G01X16408Y9410D01*
G01X16388Y9376D01*
G01X16368Y9343D01*
G01X16347Y9309D01*
G01X16325Y9276D01*
G01X16303Y9244D01*
G01X16281Y9211D01*
G01X16258Y9179D01*
G01X16235Y9147D01*
G01X16211Y9116D01*
G01X16187Y9085D01*
G01X16162Y9054D01*
G01X16137Y9024D01*
G01X16112Y8993D01*
G01X16086Y8964D01*
G01X16060Y8934D01*
G01X16033Y8905D01*
G01X16006Y8877D01*
G01X15978Y8848D01*
G01X15951Y8821D01*
G01X15922Y8793D01*
G01X15894Y8766D01*
G01X15865Y8739D01*
G01X15835Y8713D01*
G01X15806Y8687D01*
G01X15775Y8662D01*
G01X15745Y8637D01*
G01X15714Y8612D01*
G01X15683Y8588D01*
G01X15652Y8564D01*
G01X15620Y8541D01*
G01X15588Y8518D01*
G01X15555Y8496D01*
G01X15523Y8474D01*
G01X15490Y8452D01*
G01X15456Y8431D01*
G01X15423Y8411D01*
G01X15389Y8391D01*
G01X15355Y8371D01*
G01X15320Y8352D01*
G01X15286Y8333D01*
G01X15251Y8315D01*
G01X15215Y8297D01*
G01X15180Y8280D01*
G01X15144Y8263D01*
G01X15108Y8247D01*
G01X15072Y8231D01*
G01X15036Y8216D01*
G01X14999Y8202D01*
G01X14962Y8187D01*
G01X14926Y8174D01*
G01X14888Y8161D01*
G01X14851Y8148D01*
G01X14814Y8136D01*
G01X14776Y8124D01*
G01X14738Y8113D01*
G01X14700Y8103D01*
G01X14662Y8092D01*
G01X14624Y8083D01*
G01X14585Y8074D01*
G01X14547Y8066D01*
G01X14508Y8058D01*
G01X14470Y8050D01*
G01X14431Y8044D01*
G01X14392Y8037D01*
G01X14353Y8032D01*
G01X14314Y8026D01*
G01X14275Y8022D01*
G01X14236Y8018D01*
G01X14196Y8014D01*
G01X14157Y8011D01*
G01X14118Y8009D01*
G01X14078Y8007D01*
G01X14039Y8005D01*
G01X14000Y8004D01*
G01X13960Y8004D01*
G01X13960Y8004D02*
G01X13921Y8005D01*
G01X13881Y8005D01*
G01X13842Y8007D01*
G01X13803Y8009D01*
G01X13764Y8011D01*
G01X13724Y8014D01*
G01X13685Y8018D01*
G01X13646Y8022D01*
G01X13607Y8027D01*
G01X13568Y8032D01*
G01X13529Y8038D01*
G01X13490Y8045D01*
G01X13451Y8052D01*
G01X13413Y8059D01*
G01X13374Y8067D01*
G01X13336Y8076D01*
G01X13298Y8085D01*
G01X13260Y8095D01*
G01X13222Y8105D01*
G01X13184Y8116D01*
G01X13146Y8127D01*
G01X13109Y8139D01*
G01X13071Y8152D01*
G01X13034Y8164D01*
G01X12997Y8178D01*
G01X12960Y8192D01*
G01X12924Y8207D01*
G01X12887Y8222D01*
G01X12851Y8237D01*
G01X12815Y8253D01*
G01X12780Y8270D01*
G01X12744Y8287D01*
G01X12709Y8305D01*
G01X12674Y8323D01*
G01X12639Y8341D01*
G01X12605Y8360D01*
G01X12571Y8380D01*
G01X12537Y8400D01*
G01X12503Y8421D01*
G01X12470Y8442D01*
G01X12437Y8463D01*
G01X12405Y8485D01*
G01X12372Y8508D01*
G01X12340Y8531D01*
G01X12309Y8554D01*
G01X12277Y8578D01*
G01X12246Y8602D01*
G01X12216Y8627D01*
G01X12185Y8652D01*
G01X12155Y8677D01*
G01X12126Y8703D01*
G01X12097Y8730D01*
G01X12068Y8757D01*
G01X12039Y8784D01*
G01X12011Y8811D01*
G01X11984Y8839D01*
G01X11957Y8868D01*
G01X11930Y8897D01*
G01X11903Y8926D01*
G01X11877Y8955D01*
G01X11852Y8985D01*
G01X11827Y9016D01*
G01X11802Y9046D01*
G01X11778Y9077D01*
G01X11754Y9109D01*
G01X11731Y9140D01*
G01X11708Y9172D01*
G01X11685Y9205D01*
G01X11663Y9237D01*
G01X11642Y9270D01*
G01X11621Y9303D01*
G01X11600Y9337D01*
G01X11580Y9371D01*
G01X11560Y9405D01*
G01X11541Y9439D01*
G01X11523Y9474D01*
G01X11505Y9509D01*
G01X11487Y9544D01*
G01X11470Y9580D01*
G01X11453Y9615D01*
G01X11437Y9651D01*
G01X11422Y9687D01*
G01X11407Y9724D01*
G01X11392Y9760D01*
G01X11378Y9797D01*
G01X11364Y9834D01*
G01X11352Y9871D01*
G01X11339Y9909D01*
G01X11327Y9946D01*
G01X11316Y9984D01*
G01X11305Y10022D01*
G01X11295Y10060D01*
G01X11285Y10098D01*
G01X11276Y10136D01*
G01X11267Y10174D01*
G01X11259Y10213D01*
G01X11252Y10251D01*
G01X11245Y10290D01*
G01X11238Y10329D01*
G01X11232Y10368D01*
G01X11227Y10407D01*
G01X11222Y10446D01*
G01X11218Y10485D01*
G01X11214Y10524D01*
G01X11211Y10564D01*
G01X11209Y10603D01*
G01X11207Y10642D01*
G01X11205Y10681D01*
G01X11205Y10721D01*
G01X11204Y10760D01*
G04 draw reference designator for part S2*
G54D10*
G01X13872Y8554D02*
G01X13918Y8509D01*
G01X13804Y8577D02*
G01X13872Y8554D01*
G01X13713Y8577D02*
G01X13804Y8577D01*
G01X13713Y8577D02*
G01X13645Y8554D01*
G01X13645Y8554D02*
G01X13600Y8509D01*
G01X13600Y8509D02*
G01X13600Y8463D01*
G01X13600Y8463D02*
G01X13622Y8418D01*
G01X13622Y8418D02*
G01X13645Y8395D01*
G01X13645Y8395D02*
G01X13690Y8372D01*
G01X13690Y8372D02*
G01X13827Y8327D01*
G01X13827Y8327D02*
G01X13872Y8304D01*
G01X13872Y8304D02*
G01X13895Y8281D01*
G01X13895Y8281D02*
G01X13918Y8236D01*
G01X13918Y8236D02*
G01X13918Y8168D01*
G01X13918Y8168D02*
G01X13872Y8122D01*
G01X13872Y8122D02*
G01X13804Y8100D01*
G01X13713Y8100D02*
G01X13804Y8100D01*
G01X13645Y8122D02*
G01X13713Y8100D01*
G01X13600Y8168D02*
G01X13645Y8122D01*
G01X14122Y8486D02*
G01X14122Y8463D01*
G01X14145Y8531D02*
G01X14122Y8486D01*
G01X14168Y8554D02*
G01X14145Y8531D01*
G01X14213Y8577D02*
G01X14168Y8554D01*
G01X14304Y8577D02*
G01X14213Y8577D01*
G01X14304Y8577D02*
G01X14350Y8554D01*
G01X14350Y8554D02*
G01X14372Y8531D01*
G01X14372Y8531D02*
G01X14395Y8486D01*
G01X14395Y8486D02*
G01X14395Y8440D01*
G01X14395Y8440D02*
G01X14372Y8395D01*
G01X14372Y8395D02*
G01X14327Y8327D01*
G01X14327Y8327D02*
G01X14100Y8100D01*
G01X14418Y8100D02*
G01X14100Y8100D01*
G04 Draw part S3*
G04 draw part outline for part S3*
G54D11*
G01X19011Y8811D02*
G01X22988Y8811D01*
G01X22988Y8811D02*
G01X22988Y12788D01*
G01X22988Y12788D02*
G01X19011Y12788D01*
G01X19011Y12788D02*
G01X19011Y8811D01*
G54D12*
G01X21000Y10878D02*
G01X21078Y10800D01*
G01X21078Y10800D02*
G01X21000Y10721D01*
G01X21000Y10721D02*
G01X20921Y10800D01*
G01X20921Y10800D02*
G01X21000Y10878D01*
G01X18204Y10760D02*
G01X18204Y10800D01*
G01X18205Y10839D01*
G01X18207Y10878D01*
G01X18209Y10918D01*
G01X18211Y10957D01*
G01X18214Y10996D01*
G01X18218Y11036D01*
G01X18222Y11075D01*
G01X18226Y11114D01*
G01X18232Y11153D01*
G01X18237Y11192D01*
G01X18244Y11231D01*
G01X18250Y11270D01*
G01X18258Y11308D01*
G01X18266Y11347D01*
G01X18274Y11385D01*
G01X18283Y11424D01*
G01X18292Y11462D01*
G01X18303Y11500D01*
G01X18313Y11538D01*
G01X18324Y11576D01*
G01X18336Y11614D01*
G01X18348Y11651D01*
G01X18361Y11688D01*
G01X18374Y11726D01*
G01X18387Y11762D01*
G01X18402Y11799D01*
G01X18416Y11836D01*
G01X18431Y11872D01*
G01X18447Y11908D01*
G01X18463Y11944D01*
G01X18480Y11980D01*
G01X18497Y12015D01*
G01X18515Y12051D01*
G01X18533Y12086D01*
G01X18552Y12120D01*
G01X18571Y12155D01*
G01X18591Y12189D01*
G01X18611Y12223D01*
G01X18631Y12256D01*
G01X18652Y12290D01*
G01X18674Y12323D01*
G01X18696Y12355D01*
G01X18718Y12388D01*
G01X18741Y12420D01*
G01X18764Y12452D01*
G01X18788Y12483D01*
G01X18812Y12514D01*
G01X18837Y12545D01*
G01X18862Y12575D01*
G01X18887Y12606D01*
G01X18913Y12635D01*
G01X18939Y12665D01*
G01X18966Y12694D01*
G01X18993Y12722D01*
G01X19021Y12751D01*
G01X19048Y12778D01*
G01X19077Y12806D01*
G01X19105Y12833D01*
G01X19134Y12860D01*
G01X19164Y12886D01*
G01X19193Y12912D01*
G01X19224Y12937D01*
G01X19254Y12962D01*
G01X19285Y12987D01*
G01X19316Y13011D01*
G01X19347Y13035D01*
G01X19379Y13058D01*
G01X19411Y13081D01*
G01X19444Y13103D01*
G01X19476Y13125D01*
G01X19509Y13147D01*
G01X19543Y13168D01*
G01X19576Y13188D01*
G01X19610Y13208D01*
G01X19644Y13228D01*
G01X19679Y13247D01*
G01X19713Y13266D01*
G01X19748Y13284D01*
G01X19784Y13302D01*
G01X19819Y13319D01*
G01X19855Y13336D01*
G01X19891Y13352D01*
G01X19927Y13368D01*
G01X19963Y13383D01*
G01X20000Y13397D01*
G01X20037Y13412D01*
G01X20073Y13425D01*
G01X20111Y13438D01*
G01X20148Y13451D01*
G01X20185Y13463D01*
G01X20223Y13475D01*
G01X20261Y13486D01*
G01X20299Y13496D01*
G01X20337Y13507D01*
G01X20375Y13516D01*
G01X20414Y13525D01*
G01X20452Y13533D01*
G01X20491Y13541D01*
G01X20529Y13549D01*
G01X20568Y13555D01*
G01X20607Y13562D01*
G01X20646Y13567D01*
G01X20685Y13573D01*
G01X20724Y13577D01*
G01X20763Y13581D01*
G01X20803Y13585D01*
G01X20842Y13588D01*
G01X20881Y13590D01*
G01X20921Y13592D01*
G01X20960Y13594D01*
G01X20999Y13595D01*
G01X21039Y13595D01*
G01X21039Y13595D02*
G01X21078Y13594D01*
G01X21118Y13594D01*
G01X21157Y13592D01*
G01X21196Y13590D01*
G01X21235Y13588D01*
G01X21275Y13585D01*
G01X21314Y13581D01*
G01X21353Y13577D01*
G01X21392Y13572D01*
G01X21431Y13567D01*
G01X21470Y13561D01*
G01X21509Y13554D01*
G01X21548Y13547D01*
G01X21586Y13540D01*
G01X21625Y13532D01*
G01X21663Y13523D01*
G01X21701Y13514D01*
G01X21739Y13504D01*
G01X21777Y13494D01*
G01X21815Y13483D01*
G01X21853Y13472D01*
G01X21890Y13460D01*
G01X21928Y13447D01*
G01X21965Y13435D01*
G01X22002Y13421D01*
G01X22039Y13407D01*
G01X22075Y13392D01*
G01X22112Y13377D01*
G01X22148Y13362D01*
G01X22184Y13346D01*
G01X22219Y13329D01*
G01X22255Y13312D01*
G01X22290Y13294D01*
G01X22325Y13276D01*
G01X22360Y13258D01*
G01X22394Y13239D01*
G01X22428Y13219D01*
G01X22462Y13199D01*
G01X22496Y13178D01*
G01X22529Y13157D01*
G01X22562Y13136D01*
G01X22594Y13114D01*
G01X22627Y13091D01*
G01X22659Y13068D01*
G01X22690Y13045D01*
G01X22722Y13021D01*
G01X22753Y12997D01*
G01X22783Y12972D01*
G01X22814Y12947D01*
G01X22844Y12922D01*
G01X22873Y12896D01*
G01X22902Y12869D01*
G01X22931Y12842D01*
G01X22960Y12815D01*
G01X22988Y12788D01*
G01X23015Y12760D01*
G01X23042Y12731D01*
G01X23069Y12702D01*
G01X23096Y12673D01*
G01X23122Y12644D01*
G01X23147Y12614D01*
G01X23172Y12583D01*
G01X23197Y12553D01*
G01X23221Y12522D01*
G01X23245Y12490D01*
G01X23268Y12459D01*
G01X23291Y12427D01*
G01X23314Y12394D01*
G01X23336Y12362D01*
G01X23357Y12329D01*
G01X23378Y12296D01*
G01X23399Y12262D01*
G01X23419Y12228D01*
G01X23439Y12194D01*
G01X23458Y12160D01*
G01X23476Y12125D01*
G01X23494Y12090D01*
G01X23512Y12055D01*
G01X23529Y12019D01*
G01X23546Y11984D01*
G01X23562Y11948D01*
G01X23577Y11912D01*
G01X23592Y11875D01*
G01X23607Y11839D01*
G01X23621Y11802D01*
G01X23635Y11765D01*
G01X23647Y11728D01*
G01X23660Y11690D01*
G01X23672Y11653D01*
G01X23683Y11615D01*
G01X23694Y11577D01*
G01X23704Y11539D01*
G01X23714Y11501D01*
G01X23723Y11463D01*
G01X23732Y11425D01*
G01X23740Y11386D01*
G01X23747Y11348D01*
G01X23754Y11309D01*
G01X23761Y11270D01*
G01X23767Y11231D01*
G01X23772Y11192D01*
G01X23777Y11153D01*
G01X23781Y11114D01*
G01X23785Y11075D01*
G01X23788Y11035D01*
G01X23790Y10996D01*
G01X23792Y10957D01*
G01X23794Y10918D01*
G01X23794Y10878D01*
G01X23795Y10839D01*
G01X23795Y10839D02*
G01X23795Y10799D01*
G01X23794Y10760D01*
G01X23792Y10721D01*
G01X23790Y10681D01*
G01X23788Y10642D01*
G01X23785Y10603D01*
G01X23781Y10563D01*
G01X23777Y10524D01*
G01X23773Y10485D01*
G01X23767Y10446D01*
G01X23762Y10407D01*
G01X23755Y10368D01*
G01X23749Y10329D01*
G01X23741Y10291D01*
G01X23733Y10252D01*
G01X23725Y10214D01*
G01X23716Y10175D01*
G01X23707Y10137D01*
G01X23696Y10099D01*
G01X23686Y10061D01*
G01X23675Y10023D01*
G01X23663Y9985D01*
G01X23651Y9948D01*
G01X23638Y9911D01*
G01X23625Y9873D01*
G01X23612Y9837D01*
G01X23597Y9800D01*
G01X23583Y9763D01*
G01X23568Y9727D01*
G01X23552Y9691D01*
G01X23536Y9655D01*
G01X23519Y9619D01*
G01X23502Y9584D01*
G01X23484Y9548D01*
G01X23466Y9513D01*
G01X23447Y9479D01*
G01X23428Y9444D01*
G01X23408Y9410D01*
G01X23388Y9376D01*
G01X23368Y9343D01*
G01X23347Y9309D01*
G01X23325Y9276D01*
G01X23303Y9244D01*
G01X23281Y9211D01*
G01X23258Y9179D01*
G01X23235Y9147D01*
G01X23211Y9116D01*
G01X23187Y9085D01*
G01X23162Y9054D01*
G01X23137Y9024D01*
G01X23112Y8993D01*
G01X23086Y8964D01*
G01X23060Y8934D01*
G01X23033Y8905D01*
G01X23006Y8877D01*
G01X22978Y8848D01*
G01X22951Y8821D01*
G01X22922Y8793D01*
G01X22894Y8766D01*
G01X22865Y8739D01*
G01X22835Y8713D01*
G01X22806Y8687D01*
G01X22775Y8662D01*
G01X22745Y8637D01*
G01X22714Y8612D01*
G01X22683Y8588D01*
G01X22652Y8564D01*
G01X22620Y8541D01*
G01X22588Y8518D01*
G01X22555Y8496D01*
G01X22523Y8474D01*
G01X22490Y8452D01*
G01X22456Y8431D01*
G01X22423Y8411D01*
G01X22389Y8391D01*
G01X22355Y8371D01*
G01X22320Y8352D01*
G01X22286Y8333D01*
G01X22251Y8315D01*
G01X22215Y8297D01*
G01X22180Y8280D01*
G01X22144Y8263D01*
G01X22108Y8247D01*
G01X22072Y8231D01*
G01X22036Y8216D01*
G01X21999Y8202D01*
G01X21962Y8187D01*
G01X21926Y8174D01*
G01X21888Y8161D01*
G01X21851Y8148D01*
G01X21814Y8136D01*
G01X21776Y8124D01*
G01X21738Y8113D01*
G01X21700Y8103D01*
G01X21662Y8092D01*
G01X21624Y8083D01*
G01X21585Y8074D01*
G01X21547Y8066D01*
G01X21508Y8058D01*
G01X21470Y8050D01*
G01X21431Y8044D01*
G01X21392Y8037D01*
G01X21353Y8032D01*
G01X21314Y8026D01*
G01X21275Y8022D01*
G01X21236Y8018D01*
G01X21196Y8014D01*
G01X21157Y8011D01*
G01X21118Y8009D01*
G01X21078Y8007D01*
G01X21039Y8005D01*
G01X21000Y8004D01*
G01X20960Y8004D01*
G01X20960Y8004D02*
G01X20921Y8005D01*
G01X20881Y8005D01*
G01X20842Y8007D01*
G01X20803Y8009D01*
G01X20764Y8011D01*
G01X20724Y8014D01*
G01X20685Y8018D01*
G01X20646Y8022D01*
G01X20607Y8027D01*
G01X20568Y8032D01*
G01X20529Y8038D01*
G01X20490Y8045D01*
G01X20451Y8052D01*
G01X20413Y8059D01*
G01X20374Y8067D01*
G01X20336Y8076D01*
G01X20298Y8085D01*
G01X20260Y8095D01*
G01X20222Y8105D01*
G01X20184Y8116D01*
G01X20146Y8127D01*
G01X20109Y8139D01*
G01X20071Y8152D01*
G01X20034Y8164D01*
G01X19997Y8178D01*
G01X19960Y8192D01*
G01X19924Y8207D01*
G01X19887Y8222D01*
G01X19851Y8237D01*
G01X19815Y8253D01*
G01X19780Y8270D01*
G01X19744Y8287D01*
G01X19709Y8305D01*
G01X19674Y8323D01*
G01X19639Y8341D01*
G01X19605Y8360D01*
G01X19571Y8380D01*
G01X19537Y8400D01*
G01X19503Y8421D01*
G01X19470Y8442D01*
G01X19437Y8463D01*
G01X19405Y8485D01*
G01X19372Y8508D01*
G01X19340Y8531D01*
G01X19309Y8554D01*
G01X19277Y8578D01*
G01X19246Y8602D01*
G01X19216Y8627D01*
G01X19185Y8652D01*
G01X19155Y8677D01*
G01X19126Y8703D01*
G01X19097Y8730D01*
G01X19068Y8757D01*
G01X19039Y8784D01*
G01X19011Y8811D01*
G01X18984Y8839D01*
G01X18957Y8868D01*
G01X18930Y8897D01*
G01X18903Y8926D01*
G01X18877Y8955D01*
G01X18852Y8985D01*
G01X18827Y9016D01*
G01X18802Y9046D01*
G01X18778Y9077D01*
G01X18754Y9109D01*
G01X18731Y9140D01*
G01X18708Y9172D01*
G01X18685Y9205D01*
G01X18663Y9237D01*
G01X18642Y9270D01*
G01X18621Y9303D01*
G01X18600Y9337D01*
G01X18580Y9371D01*
G01X18560Y9405D01*
G01X18541Y9439D01*
G01X18523Y9474D01*
G01X18505Y9509D01*
G01X18487Y9544D01*
G01X18470Y9580D01*
G01X18453Y9615D01*
G01X18437Y9651D01*
G01X18422Y9687D01*
G01X18407Y9724D01*
G01X18392Y9760D01*
G01X18378Y9797D01*
G01X18364Y9834D01*
G01X18352Y9871D01*
G01X18339Y9909D01*
G01X18327Y9946D01*
G01X18316Y9984D01*
G01X18305Y10022D01*
G01X18295Y10060D01*
G01X18285Y10098D01*
G01X18276Y10136D01*
G01X18267Y10174D01*
G01X18259Y10213D01*
G01X18252Y10251D01*
G01X18245Y10290D01*
G01X18238Y10329D01*
G01X18232Y10368D01*
G01X18227Y10407D01*
G01X18222Y10446D01*
G01X18218Y10485D01*
G01X18214Y10524D01*
G01X18211Y10564D01*
G01X18209Y10603D01*
G01X18207Y10642D01*
G01X18205Y10681D01*
G01X18205Y10721D01*
G01X18204Y10760D01*
G04 draw reference designator for part S3*
G54D10*
G01X20872Y8554D02*
G01X20918Y8509D01*
G01X20804Y8577D02*
G01X20872Y8554D01*
G01X20713Y8577D02*
G01X20804Y8577D01*
G01X20713Y8577D02*
G01X20645Y8554D01*
G01X20645Y8554D02*
G01X20600Y8509D01*
G01X20600Y8509D02*
G01X20600Y8463D01*
G01X20600Y8463D02*
G01X20622Y8418D01*
G01X20622Y8418D02*
G01X20645Y8395D01*
G01X20645Y8395D02*
G01X20690Y8372D01*
G01X20690Y8372D02*
G01X20827Y8327D01*
G01X20827Y8327D02*
G01X20872Y8304D01*
G01X20872Y8304D02*
G01X20895Y8281D01*
G01X20895Y8281D02*
G01X20918Y8236D01*
G01X20918Y8236D02*
G01X20918Y8168D01*
G01X20918Y8168D02*
G01X20872Y8122D01*
G01X20872Y8122D02*
G01X20804Y8100D01*
G01X20713Y8100D02*
G01X20804Y8100D01*
G01X20645Y8122D02*
G01X20713Y8100D01*
G01X20600Y8168D02*
G01X20645Y8122D01*
G01X21395Y8577D02*
G01X21145Y8577D01*
G01X21395Y8577D02*
G01X21259Y8395D01*
G01X21327Y8395D02*
G01X21259Y8395D01*
G01X21327Y8395D02*
G01X21372Y8372D01*
G01X21372Y8372D02*
G01X21395Y8350D01*
G01X21395Y8350D02*
G01X21418Y8281D01*
G01X21418Y8281D02*
G01X21418Y8236D01*
G01X21418Y8236D02*
G01X21395Y8168D01*
G01X21395Y8168D02*
G01X21350Y8122D01*
G01X21350Y8122D02*
G01X21281Y8100D01*
G01X21213Y8100D02*
G01X21281Y8100D01*
G01X21145Y8122D02*
G01X21213Y8100D01*
G01X21122Y8145D02*
G01X21145Y8122D01*
G01X21100Y8190D02*
G01X21122Y8145D01*
G04 Draw part S5*
G04 draw part outline for part S5*
G54D11*
G01X33011Y8811D02*
G01X36988Y8811D01*
G01X36988Y8811D02*
G01X36988Y12788D01*
G01X36988Y12788D02*
G01X33011Y12788D01*
G01X33011Y12788D02*
G01X33011Y8811D01*
G54D12*
G01X35000Y10878D02*
G01X35078Y10800D01*
G01X35078Y10800D02*
G01X35000Y10721D01*
G01X35000Y10721D02*
G01X34921Y10800D01*
G01X34921Y10800D02*
G01X35000Y10878D01*
G01X32204Y10760D02*
G01X32204Y10800D01*
G01X32205Y10839D01*
G01X32207Y10878D01*
G01X32209Y10918D01*
G01X32211Y10957D01*
G01X32214Y10996D01*
G01X32218Y11036D01*
G01X32222Y11075D01*
G01X32226Y11114D01*
G01X32232Y11153D01*
G01X32237Y11192D01*
G01X32244Y11231D01*
G01X32250Y11270D01*
G01X32258Y11308D01*
G01X32266Y11347D01*
G01X32274Y11385D01*
G01X32283Y11424D01*
G01X32292Y11462D01*
G01X32303Y11500D01*
G01X32313Y11538D01*
G01X32324Y11576D01*
G01X32336Y11614D01*
G01X32348Y11651D01*
G01X32361Y11688D01*
G01X32374Y11726D01*
G01X32387Y11762D01*
G01X32402Y11799D01*
G01X32416Y11836D01*
G01X32431Y11872D01*
G01X32447Y11908D01*
G01X32463Y11944D01*
G01X32480Y11980D01*
G01X32497Y12015D01*
G01X32515Y12051D01*
G01X32533Y12086D01*
G01X32552Y12120D01*
G01X32571Y12155D01*
G01X32591Y12189D01*
G01X32611Y12223D01*
G01X32631Y12256D01*
G01X32652Y12290D01*
G01X32674Y12323D01*
G01X32696Y12355D01*
G01X32718Y12388D01*
G01X32741Y12420D01*
G01X32764Y12452D01*
G01X32788Y12483D01*
G01X32812Y12514D01*
G01X32837Y12545D01*
G01X32862Y12575D01*
G01X32887Y12606D01*
G01X32913Y12635D01*
G01X32939Y12665D01*
G01X32966Y12694D01*
G01X32993Y12722D01*
G01X33021Y12751D01*
G01X33048Y12778D01*
G01X33077Y12806D01*
G01X33105Y12833D01*
G01X33134Y12860D01*
G01X33164Y12886D01*
G01X33193Y12912D01*
G01X33224Y12937D01*
G01X33254Y12962D01*
G01X33285Y12987D01*
G01X33316Y13011D01*
G01X33347Y13035D01*
G01X33379Y13058D01*
G01X33411Y13081D01*
G01X33444Y13103D01*
G01X33476Y13125D01*
G01X33509Y13147D01*
G01X33543Y13168D01*
G01X33576Y13188D01*
G01X33610Y13208D01*
G01X33644Y13228D01*
G01X33679Y13247D01*
G01X33713Y13266D01*
G01X33748Y13284D01*
G01X33784Y13302D01*
G01X33819Y13319D01*
G01X33855Y13336D01*
G01X33891Y13352D01*
G01X33927Y13368D01*
G01X33963Y13383D01*
G01X34000Y13397D01*
G01X34037Y13412D01*
G01X34073Y13425D01*
G01X34111Y13438D01*
G01X34148Y13451D01*
G01X34185Y13463D01*
G01X34223Y13475D01*
G01X34261Y13486D01*
G01X34299Y13496D01*
G01X34337Y13507D01*
G01X34375Y13516D01*
G01X34414Y13525D01*
G01X34452Y13533D01*
G01X34491Y13541D01*
G01X34529Y13549D01*
G01X34568Y13555D01*
G01X34607Y13562D01*
G01X34646Y13567D01*
G01X34685Y13573D01*
G01X34724Y13577D01*
G01X34763Y13581D01*
G01X34803Y13585D01*
G01X34842Y13588D01*
G01X34881Y13590D01*
G01X34921Y13592D01*
G01X34960Y13594D01*
G01X34999Y13595D01*
G01X35039Y13595D01*
G01X35039Y13595D02*
G01X35078Y13594D01*
G01X35118Y13594D01*
G01X35157Y13592D01*
G01X35196Y13590D01*
G01X35235Y13588D01*
G01X35275Y13585D01*
G01X35314Y13581D01*
G01X35353Y13577D01*
G01X35392Y13572D01*
G01X35431Y13567D01*
G01X35470Y13561D01*
G01X35509Y13554D01*
G01X35548Y13547D01*
G01X35586Y13540D01*
G01X35625Y13532D01*
G01X35663Y13523D01*
G01X35701Y13514D01*
G01X35739Y13504D01*
G01X35777Y13494D01*
G01X35815Y13483D01*
G01X35853Y13472D01*
G01X35890Y13460D01*
G01X35928Y13447D01*
G01X35965Y13435D01*
G01X36002Y13421D01*
G01X36039Y13407D01*
G01X36075Y13392D01*
G01X36112Y13377D01*
G01X36148Y13362D01*
G01X36184Y13346D01*
G01X36219Y13329D01*
G01X36255Y13312D01*
G01X36290Y13294D01*
G01X36325Y13276D01*
G01X36360Y13258D01*
G01X36394Y13239D01*
G01X36428Y13219D01*
G01X36462Y13199D01*
G01X36496Y13178D01*
G01X36529Y13157D01*
G01X36562Y13136D01*
G01X36594Y13114D01*
G01X36627Y13091D01*
G01X36659Y13068D01*
G01X36690Y13045D01*
G01X36722Y13021D01*
G01X36753Y12997D01*
G01X36783Y12972D01*
G01X36814Y12947D01*
G01X36844Y12922D01*
G01X36873Y12896D01*
G01X36902Y12869D01*
G01X36931Y12842D01*
G01X36960Y12815D01*
G01X36988Y12788D01*
G01X37015Y12760D01*
G01X37042Y12731D01*
G01X37069Y12702D01*
G01X37096Y12673D01*
G01X37122Y12644D01*
G01X37147Y12614D01*
G01X37172Y12583D01*
G01X37197Y12553D01*
G01X37221Y12522D01*
G01X37245Y12490D01*
G01X37268Y12459D01*
G01X37291Y12427D01*
G01X37314Y12394D01*
G01X37336Y12362D01*
G01X37357Y12329D01*
G01X37378Y12296D01*
G01X37399Y12262D01*
G01X37419Y12228D01*
G01X37439Y12194D01*
G01X37458Y12160D01*
G01X37476Y12125D01*
G01X37494Y12090D01*
G01X37512Y12055D01*
G01X37529Y12019D01*
G01X37546Y11984D01*
G01X37562Y11948D01*
G01X37577Y11912D01*
G01X37592Y11875D01*
G01X37607Y11839D01*
G01X37621Y11802D01*
G01X37635Y11765D01*
G01X37647Y11728D01*
G01X37660Y11690D01*
G01X37672Y11653D01*
G01X37683Y11615D01*
G01X37694Y11577D01*
G01X37704Y11539D01*
G01X37714Y11501D01*
G01X37723Y11463D01*
G01X37732Y11425D01*
G01X37740Y11386D01*
G01X37747Y11348D01*
G01X37754Y11309D01*
G01X37761Y11270D01*
G01X37767Y11231D01*
G01X37772Y11192D01*
G01X37777Y11153D01*
G01X37781Y11114D01*
G01X37785Y11075D01*
G01X37788Y11035D01*
G01X37790Y10996D01*
G01X37792Y10957D01*
G01X37794Y10918D01*
G01X37794Y10878D01*
G01X37795Y10839D01*
G01X37795Y10839D02*
G01X37795Y10799D01*
G01X37794Y10760D01*
G01X37792Y10721D01*
G01X37790Y10681D01*
G01X37788Y10642D01*
G01X37785Y10603D01*
G01X37781Y10563D01*
G01X37777Y10524D01*
G01X37773Y10485D01*
G01X37767Y10446D01*
G01X37762Y10407D01*
G01X37755Y10368D01*
G01X37749Y10329D01*
G01X37741Y10291D01*
G01X37733Y10252D01*
G01X37725Y10214D01*
G01X37716Y10175D01*
G01X37707Y10137D01*
G01X37696Y10099D01*
G01X37686Y10061D01*
G01X37675Y10023D01*
G01X37663Y9985D01*
G01X37651Y9948D01*
G01X37638Y9911D01*
G01X37625Y9873D01*
G01X37612Y9837D01*
G01X37597Y9800D01*
G01X37583Y9763D01*
G01X37568Y9727D01*
G01X37552Y9691D01*
G01X37536Y9655D01*
G01X37519Y9619D01*
G01X37502Y9584D01*
G01X37484Y9548D01*
G01X37466Y9513D01*
G01X37447Y9479D01*
G01X37428Y9444D01*
G01X37408Y9410D01*
G01X37388Y9376D01*
G01X37368Y9343D01*
G01X37347Y9309D01*
G01X37325Y9276D01*
G01X37303Y9244D01*
G01X37281Y9211D01*
G01X37258Y9179D01*
G01X37235Y9147D01*
G01X37211Y9116D01*
G01X37187Y9085D01*
G01X37162Y9054D01*
G01X37137Y9024D01*
G01X37112Y8993D01*
G01X37086Y8964D01*
G01X37060Y8934D01*
G01X37033Y8905D01*
G01X37006Y8877D01*
G01X36978Y8848D01*
G01X36951Y8821D01*
G01X36922Y8793D01*
G01X36894Y8766D01*
G01X36865Y8739D01*
G01X36835Y8713D01*
G01X36806Y8687D01*
G01X36775Y8662D01*
G01X36745Y8637D01*
G01X36714Y8612D01*
G01X36683Y8588D01*
G01X36652Y8564D01*
G01X36620Y8541D01*
G01X36588Y8518D01*
G01X36555Y8496D01*
G01X36523Y8474D01*
G01X36490Y8452D01*
G01X36456Y8431D01*
G01X36423Y8411D01*
G01X36389Y8391D01*
G01X36355Y8371D01*
G01X36320Y8352D01*
G01X36286Y8333D01*
G01X36251Y8315D01*
G01X36215Y8297D01*
G01X36180Y8280D01*
G01X36144Y8263D01*
G01X36108Y8247D01*
G01X36072Y8231D01*
G01X36036Y8216D01*
G01X35999Y8202D01*
G01X35962Y8187D01*
G01X35926Y8174D01*
G01X35888Y8161D01*
G01X35851Y8148D01*
G01X35814Y8136D01*
G01X35776Y8124D01*
G01X35738Y8113D01*
G01X35700Y8103D01*
G01X35662Y8092D01*
G01X35624Y8083D01*
G01X35585Y8074D01*
G01X35547Y8066D01*
G01X35508Y8058D01*
G01X35470Y8050D01*
G01X35431Y8044D01*
G01X35392Y8037D01*
G01X35353Y8032D01*
G01X35314Y8026D01*
G01X35275Y8022D01*
G01X35236Y8018D01*
G01X35196Y8014D01*
G01X35157Y8011D01*
G01X35118Y8009D01*
G01X35078Y8007D01*
G01X35039Y8005D01*
G01X35000Y8004D01*
G01X34960Y8004D01*
G01X34960Y8004D02*
G01X34921Y8005D01*
G01X34881Y8005D01*
G01X34842Y8007D01*
G01X34803Y8009D01*
G01X34764Y8011D01*
G01X34724Y8014D01*
G01X34685Y8018D01*
G01X34646Y8022D01*
G01X34607Y8027D01*
G01X34568Y8032D01*
G01X34529Y8038D01*
G01X34490Y8045D01*
G01X34451Y8052D01*
G01X34413Y8059D01*
G01X34374Y8067D01*
G01X34336Y8076D01*
G01X34298Y8085D01*
G01X34260Y8095D01*
G01X34222Y8105D01*
G01X34184Y8116D01*
G01X34146Y8127D01*
G01X34109Y8139D01*
G01X34071Y8152D01*
G01X34034Y8164D01*
G01X33997Y8178D01*
G01X33960Y8192D01*
G01X33924Y8207D01*
G01X33887Y8222D01*
G01X33851Y8237D01*
G01X33815Y8253D01*
G01X33780Y8270D01*
G01X33744Y8287D01*
G01X33709Y8305D01*
G01X33674Y8323D01*
G01X33639Y8341D01*
G01X33605Y8360D01*
G01X33571Y8380D01*
G01X33537Y8400D01*
G01X33503Y8421D01*
G01X33470Y8442D01*
G01X33437Y8463D01*
G01X33405Y8485D01*
G01X33372Y8508D01*
G01X33340Y8531D01*
G01X33309Y8554D01*
G01X33277Y8578D01*
G01X33246Y8602D01*
G01X33216Y8627D01*
G01X33185Y8652D01*
G01X33155Y8677D01*
G01X33126Y8703D01*
G01X33097Y8730D01*
G01X33068Y8757D01*
G01X33039Y8784D01*
G01X33011Y8811D01*
G01X32984Y8839D01*
G01X32957Y8868D01*
G01X32930Y8897D01*
G01X32903Y8926D01*
G01X32877Y8955D01*
G01X32852Y8985D01*
G01X32827Y9016D01*
G01X32802Y9046D01*
G01X32778Y9077D01*
G01X32754Y9109D01*
G01X32731Y9140D01*
G01X32708Y9172D01*
G01X32685Y9205D01*
G01X32663Y9237D01*
G01X32642Y9270D01*
G01X32621Y9303D01*
G01X32600Y9337D01*
G01X32580Y9371D01*
G01X32560Y9405D01*
G01X32541Y9439D01*
G01X32523Y9474D01*
G01X32505Y9509D01*
G01X32487Y9544D01*
G01X32470Y9580D01*
G01X32453Y9615D01*
G01X32437Y9651D01*
G01X32422Y9687D01*
G01X32407Y9724D01*
G01X32392Y9760D01*
G01X32378Y9797D01*
G01X32364Y9834D01*
G01X32352Y9871D01*
G01X32339Y9909D01*
G01X32327Y9946D01*
G01X32316Y9984D01*
G01X32305Y10022D01*
G01X32295Y10060D01*
G01X32285Y10098D01*
G01X32276Y10136D01*
G01X32267Y10174D01*
G01X32259Y10213D01*
G01X32252Y10251D01*
G01X32245Y10290D01*
G01X32238Y10329D01*
G01X32232Y10368D01*
G01X32227Y10407D01*
G01X32222Y10446D01*
G01X32218Y10485D01*
G01X32214Y10524D01*
G01X32211Y10564D01*
G01X32209Y10603D01*
G01X32207Y10642D01*
G01X32205Y10681D01*
G01X32205Y10721D01*
G01X32204Y10760D01*
G04 draw reference designator for part S5*
G54D10*
G01X34972Y8554D02*
G01X35018Y8509D01*
G01X34904Y8577D02*
G01X34972Y8554D01*
G01X34813Y8577D02*
G01X34904Y8577D01*
G01X34813Y8577D02*
G01X34745Y8554D01*
G01X34745Y8554D02*
G01X34700Y8509D01*
G01X34700Y8509D02*
G01X34700Y8463D01*
G01X34700Y8463D02*
G01X34722Y8418D01*
G01X34722Y8418D02*
G01X34745Y8395D01*
G01X34745Y8395D02*
G01X34790Y8372D01*
G01X34790Y8372D02*
G01X34927Y8327D01*
G01X34927Y8327D02*
G01X34972Y8304D01*
G01X34972Y8304D02*
G01X34995Y8281D01*
G01X34995Y8281D02*
G01X35018Y8236D01*
G01X35018Y8236D02*
G01X35018Y8168D01*
G01X35018Y8168D02*
G01X34972Y8122D01*
G01X34972Y8122D02*
G01X34904Y8100D01*
G01X34813Y8100D02*
G01X34904Y8100D01*
G01X34745Y8122D02*
G01X34813Y8100D01*
G01X34700Y8168D02*
G01X34745Y8122D01*
G01X35245Y8577D02*
G01X35472Y8577D01*
G01X35245Y8577D02*
G01X35222Y8372D01*
G01X35245Y8395D02*
G01X35222Y8372D01*
G01X35313Y8418D02*
G01X35245Y8395D01*
G01X35381Y8418D02*
G01X35313Y8418D01*
G01X35381Y8418D02*
G01X35450Y8395D01*
G01X35450Y8395D02*
G01X35495Y8350D01*
G01X35495Y8350D02*
G01X35518Y8281D01*
G01X35518Y8281D02*
G01X35518Y8236D01*
G01X35518Y8236D02*
G01X35495Y8168D01*
G01X35495Y8168D02*
G01X35450Y8122D01*
G01X35450Y8122D02*
G01X35381Y8100D01*
G01X35313Y8100D02*
G01X35381Y8100D01*
G01X35245Y8122D02*
G01X35313Y8100D01*
G01X35222Y8145D02*
G01X35245Y8122D01*
G01X35200Y8190D02*
G01X35222Y8145D01*
G04 Draw part S4*
G04 draw part outline for part S4*
G54D11*
G01X26011Y8811D02*
G01X29988Y8811D01*
G01X29988Y8811D02*
G01X29988Y12788D01*
G01X29988Y12788D02*
G01X26011Y12788D01*
G01X26011Y12788D02*
G01X26011Y8811D01*
G54D12*
G01X28000Y10878D02*
G01X28078Y10800D01*
G01X28078Y10800D02*
G01X28000Y10721D01*
G01X28000Y10721D02*
G01X27921Y10800D01*
G01X27921Y10800D02*
G01X28000Y10878D01*
G01X25204Y10760D02*
G01X25204Y10800D01*
G01X25205Y10839D01*
G01X25207Y10878D01*
G01X25209Y10918D01*
G01X25211Y10957D01*
G01X25214Y10996D01*
G01X25218Y11036D01*
G01X25222Y11075D01*
G01X25226Y11114D01*
G01X25232Y11153D01*
G01X25237Y11192D01*
G01X25244Y11231D01*
G01X25250Y11270D01*
G01X25258Y11308D01*
G01X25266Y11347D01*
G01X25274Y11385D01*
G01X25283Y11424D01*
G01X25292Y11462D01*
G01X25303Y11500D01*
G01X25313Y11538D01*
G01X25324Y11576D01*
G01X25336Y11614D01*
G01X25348Y11651D01*
G01X25361Y11688D01*
G01X25374Y11726D01*
G01X25387Y11762D01*
G01X25402Y11799D01*
G01X25416Y11836D01*
G01X25431Y11872D01*
G01X25447Y11908D01*
G01X25463Y11944D01*
G01X25480Y11980D01*
G01X25497Y12015D01*
G01X25515Y12051D01*
G01X25533Y12086D01*
G01X25552Y12120D01*
G01X25571Y12155D01*
G01X25591Y12189D01*
G01X25611Y12223D01*
G01X25631Y12256D01*
G01X25652Y12290D01*
G01X25674Y12323D01*
G01X25696Y12355D01*
G01X25718Y12388D01*
G01X25741Y12420D01*
G01X25764Y12452D01*
G01X25788Y12483D01*
G01X25812Y12514D01*
G01X25837Y12545D01*
G01X25862Y12575D01*
G01X25887Y12606D01*
G01X25913Y12635D01*
G01X25939Y12665D01*
G01X25966Y12694D01*
G01X25993Y12722D01*
G01X26021Y12751D01*
G01X26048Y12778D01*
G01X26077Y12806D01*
G01X26105Y12833D01*
G01X26134Y12860D01*
G01X26164Y12886D01*
G01X26193Y12912D01*
G01X26224Y12937D01*
G01X26254Y12962D01*
G01X26285Y12987D01*
G01X26316Y13011D01*
G01X26347Y13035D01*
G01X26379Y13058D01*
G01X26411Y13081D01*
G01X26444Y13103D01*
G01X26476Y13125D01*
G01X26509Y13147D01*
G01X26543Y13168D01*
G01X26576Y13188D01*
G01X26610Y13208D01*
G01X26644Y13228D01*
G01X26679Y13247D01*
G01X26713Y13266D01*
G01X26748Y13284D01*
G01X26784Y13302D01*
G01X26819Y13319D01*
G01X26855Y13336D01*
G01X26891Y13352D01*
G01X26927Y13368D01*
G01X26963Y13383D01*
G01X27000Y13397D01*
G01X27037Y13412D01*
G01X27073Y13425D01*
G01X27111Y13438D01*
G01X27148Y13451D01*
G01X27185Y13463D01*
G01X27223Y13475D01*
G01X27261Y13486D01*
G01X27299Y13496D01*
G01X27337Y13507D01*
G01X27375Y13516D01*
G01X27414Y13525D01*
G01X27452Y13533D01*
G01X27491Y13541D01*
G01X27529Y13549D01*
G01X27568Y13555D01*
G01X27607Y13562D01*
G01X27646Y13567D01*
G01X27685Y13573D01*
G01X27724Y13577D01*
G01X27763Y13581D01*
G01X27803Y13585D01*
G01X27842Y13588D01*
G01X27881Y13590D01*
G01X27921Y13592D01*
G01X27960Y13594D01*
G01X27999Y13595D01*
G01X28039Y13595D01*
G01X28039Y13595D02*
G01X28078Y13594D01*
G01X28118Y13594D01*
G01X28157Y13592D01*
G01X28196Y13590D01*
G01X28235Y13588D01*
G01X28275Y13585D01*
G01X28314Y13581D01*
G01X28353Y13577D01*
G01X28392Y13572D01*
G01X28431Y13567D01*
G01X28470Y13561D01*
G01X28509Y13554D01*
G01X28548Y13547D01*
G01X28586Y13540D01*
G01X28625Y13532D01*
G01X28663Y13523D01*
G01X28701Y13514D01*
G01X28739Y13504D01*
G01X28777Y13494D01*
G01X28815Y13483D01*
G01X28853Y13472D01*
G01X28890Y13460D01*
G01X28928Y13447D01*
G01X28965Y13435D01*
G01X29002Y13421D01*
G01X29039Y13407D01*
G01X29075Y13392D01*
G01X29112Y13377D01*
G01X29148Y13362D01*
G01X29184Y13346D01*
G01X29219Y13329D01*
G01X29255Y13312D01*
G01X29290Y13294D01*
G01X29325Y13276D01*
G01X29360Y13258D01*
G01X29394Y13239D01*
G01X29428Y13219D01*
G01X29462Y13199D01*
G01X29496Y13178D01*
G01X29529Y13157D01*
G01X29562Y13136D01*
G01X29594Y13114D01*
G01X29627Y13091D01*
G01X29659Y13068D01*
G01X29690Y13045D01*
G01X29722Y13021D01*
G01X29753Y12997D01*
G01X29783Y12972D01*
G01X29814Y12947D01*
G01X29844Y12922D01*
G01X29873Y12896D01*
G01X29902Y12869D01*
G01X29931Y12842D01*
G01X29960Y12815D01*
G01X29988Y12788D01*
G01X30015Y12760D01*
G01X30042Y12731D01*
G01X30069Y12702D01*
G01X30096Y12673D01*
G01X30122Y12644D01*
G01X30147Y12614D01*
G01X30172Y12583D01*
G01X30197Y12553D01*
G01X30221Y12522D01*
G01X30245Y12490D01*
G01X30268Y12459D01*
G01X30291Y12427D01*
G01X30314Y12394D01*
G01X30336Y12362D01*
G01X30357Y12329D01*
G01X30378Y12296D01*
G01X30399Y12262D01*
G01X30419Y12228D01*
G01X30439Y12194D01*
G01X30458Y12160D01*
G01X30476Y12125D01*
G01X30494Y12090D01*
G01X30512Y12055D01*
G01X30529Y12019D01*
G01X30546Y11984D01*
G01X30562Y11948D01*
G01X30577Y11912D01*
G01X30592Y11875D01*
G01X30607Y11839D01*
G01X30621Y11802D01*
G01X30635Y11765D01*
G01X30647Y11728D01*
G01X30660Y11690D01*
G01X30672Y11653D01*
G01X30683Y11615D01*
G01X30694Y11577D01*
G01X30704Y11539D01*
G01X30714Y11501D01*
G01X30723Y11463D01*
G01X30732Y11425D01*
G01X30740Y11386D01*
G01X30747Y11348D01*
G01X30754Y11309D01*
G01X30761Y11270D01*
G01X30767Y11231D01*
G01X30772Y11192D01*
G01X30777Y11153D01*
G01X30781Y11114D01*
G01X30785Y11075D01*
G01X30788Y11035D01*
G01X30790Y10996D01*
G01X30792Y10957D01*
G01X30794Y10918D01*
G01X30794Y10878D01*
G01X30795Y10839D01*
G01X30795Y10839D02*
G01X30795Y10799D01*
G01X30794Y10760D01*
G01X30792Y10721D01*
G01X30790Y10681D01*
G01X30788Y10642D01*
G01X30785Y10603D01*
G01X30781Y10563D01*
G01X30777Y10524D01*
G01X30773Y10485D01*
G01X30767Y10446D01*
G01X30762Y10407D01*
G01X30755Y10368D01*
G01X30749Y10329D01*
G01X30741Y10291D01*
G01X30733Y10252D01*
G01X30725Y10214D01*
G01X30716Y10175D01*
G01X30707Y10137D01*
G01X30696Y10099D01*
G01X30686Y10061D01*
G01X30675Y10023D01*
G01X30663Y9985D01*
G01X30651Y9948D01*
G01X30638Y9911D01*
G01X30625Y9873D01*
G01X30612Y9837D01*
G01X30597Y9800D01*
G01X30583Y9763D01*
G01X30568Y9727D01*
G01X30552Y9691D01*
G01X30536Y9655D01*
G01X30519Y9619D01*
G01X30502Y9584D01*
G01X30484Y9548D01*
G01X30466Y9513D01*
G01X30447Y9479D01*
G01X30428Y9444D01*
G01X30408Y9410D01*
G01X30388Y9376D01*
G01X30368Y9343D01*
G01X30347Y9309D01*
G01X30325Y9276D01*
G01X30303Y9244D01*
G01X30281Y9211D01*
G01X30258Y9179D01*
G01X30235Y9147D01*
G01X30211Y9116D01*
G01X30187Y9085D01*
G01X30162Y9054D01*
G01X30137Y9024D01*
G01X30112Y8993D01*
G01X30086Y8964D01*
G01X30060Y8934D01*
G01X30033Y8905D01*
G01X30006Y8877D01*
G01X29978Y8848D01*
G01X29951Y8821D01*
G01X29922Y8793D01*
G01X29894Y8766D01*
G01X29865Y8739D01*
G01X29835Y8713D01*
G01X29806Y8687D01*
G01X29775Y8662D01*
G01X29745Y8637D01*
G01X29714Y8612D01*
G01X29683Y8588D01*
G01X29652Y8564D01*
G01X29620Y8541D01*
G01X29588Y8518D01*
G01X29555Y8496D01*
G01X29523Y8474D01*
G01X29490Y8452D01*
G01X29456Y8431D01*
G01X29423Y8411D01*
G01X29389Y8391D01*
G01X29355Y8371D01*
G01X29320Y8352D01*
G01X29286Y8333D01*
G01X29251Y8315D01*
G01X29215Y8297D01*
G01X29180Y8280D01*
G01X29144Y8263D01*
G01X29108Y8247D01*
G01X29072Y8231D01*
G01X29036Y8216D01*
G01X28999Y8202D01*
G01X28962Y8187D01*
G01X28926Y8174D01*
G01X28888Y8161D01*
G01X28851Y8148D01*
G01X28814Y8136D01*
G01X28776Y8124D01*
G01X28738Y8113D01*
G01X28700Y8103D01*
G01X28662Y8092D01*
G01X28624Y8083D01*
G01X28585Y8074D01*
G01X28547Y8066D01*
G01X28508Y8058D01*
G01X28470Y8050D01*
G01X28431Y8044D01*
G01X28392Y8037D01*
G01X28353Y8032D01*
G01X28314Y8026D01*
G01X28275Y8022D01*
G01X28236Y8018D01*
G01X28196Y8014D01*
G01X28157Y8011D01*
G01X28118Y8009D01*
G01X28078Y8007D01*
G01X28039Y8005D01*
G01X28000Y8004D01*
G01X27960Y8004D01*
G01X27960Y8004D02*
G01X27921Y8005D01*
G01X27881Y8005D01*
G01X27842Y8007D01*
G01X27803Y8009D01*
G01X27764Y8011D01*
G01X27724Y8014D01*
G01X27685Y8018D01*
G01X27646Y8022D01*
G01X27607Y8027D01*
G01X27568Y8032D01*
G01X27529Y8038D01*
G01X27490Y8045D01*
G01X27451Y8052D01*
G01X27413Y8059D01*
G01X27374Y8067D01*
G01X27336Y8076D01*
G01X27298Y8085D01*
G01X27260Y8095D01*
G01X27222Y8105D01*
G01X27184Y8116D01*
G01X27146Y8127D01*
G01X27109Y8139D01*
G01X27071Y8152D01*
G01X27034Y8164D01*
G01X26997Y8178D01*
G01X26960Y8192D01*
G01X26924Y8207D01*
G01X26887Y8222D01*
G01X26851Y8237D01*
G01X26815Y8253D01*
G01X26780Y8270D01*
G01X26744Y8287D01*
G01X26709Y8305D01*
G01X26674Y8323D01*
G01X26639Y8341D01*
G01X26605Y8360D01*
G01X26571Y8380D01*
G01X26537Y8400D01*
G01X26503Y8421D01*
G01X26470Y8442D01*
G01X26437Y8463D01*
G01X26405Y8485D01*
G01X26372Y8508D01*
G01X26340Y8531D01*
G01X26309Y8554D01*
G01X26277Y8578D01*
G01X26246Y8602D01*
G01X26216Y8627D01*
G01X26185Y8652D01*
G01X26155Y8677D01*
G01X26126Y8703D01*
G01X26097Y8730D01*
G01X26068Y8757D01*
G01X26039Y8784D01*
G01X26011Y8811D01*
G01X25984Y8839D01*
G01X25957Y8868D01*
G01X25930Y8897D01*
G01X25903Y8926D01*
G01X25877Y8955D01*
G01X25852Y8985D01*
G01X25827Y9016D01*
G01X25802Y9046D01*
G01X25778Y9077D01*
G01X25754Y9109D01*
G01X25731Y9140D01*
G01X25708Y9172D01*
G01X25685Y9205D01*
G01X25663Y9237D01*
G01X25642Y9270D01*
G01X25621Y9303D01*
G01X25600Y9337D01*
G01X25580Y9371D01*
G01X25560Y9405D01*
G01X25541Y9439D01*
G01X25523Y9474D01*
G01X25505Y9509D01*
G01X25487Y9544D01*
G01X25470Y9580D01*
G01X25453Y9615D01*
G01X25437Y9651D01*
G01X25422Y9687D01*
G01X25407Y9724D01*
G01X25392Y9760D01*
G01X25378Y9797D01*
G01X25364Y9834D01*
G01X25352Y9871D01*
G01X25339Y9909D01*
G01X25327Y9946D01*
G01X25316Y9984D01*
G01X25305Y10022D01*
G01X25295Y10060D01*
G01X25285Y10098D01*
G01X25276Y10136D01*
G01X25267Y10174D01*
G01X25259Y10213D01*
G01X25252Y10251D01*
G01X25245Y10290D01*
G01X25238Y10329D01*
G01X25232Y10368D01*
G01X25227Y10407D01*
G01X25222Y10446D01*
G01X25218Y10485D01*
G01X25214Y10524D01*
G01X25211Y10564D01*
G01X25209Y10603D01*
G01X25207Y10642D01*
G01X25205Y10681D01*
G01X25205Y10721D01*
G01X25204Y10760D01*
G04 draw reference designator for part S4*
G54D10*
G01X27872Y8554D02*
G01X27918Y8509D01*
G01X27804Y8577D02*
G01X27872Y8554D01*
G01X27713Y8577D02*
G01X27804Y8577D01*
G01X27713Y8577D02*
G01X27645Y8554D01*
G01X27645Y8554D02*
G01X27600Y8509D01*
G01X27600Y8509D02*
G01X27600Y8463D01*
G01X27600Y8463D02*
G01X27622Y8418D01*
G01X27622Y8418D02*
G01X27645Y8395D01*
G01X27645Y8395D02*
G01X27690Y8372D01*
G01X27690Y8372D02*
G01X27827Y8327D01*
G01X27827Y8327D02*
G01X27872Y8304D01*
G01X27872Y8304D02*
G01X27895Y8281D01*
G01X27895Y8281D02*
G01X27918Y8236D01*
G01X27918Y8236D02*
G01X27918Y8168D01*
G01X27918Y8168D02*
G01X27872Y8122D01*
G01X27872Y8122D02*
G01X27804Y8100D01*
G01X27713Y8100D02*
G01X27804Y8100D01*
G01X27645Y8122D02*
G01X27713Y8100D01*
G01X27600Y8168D02*
G01X27645Y8122D01*
G01X28327Y8577D02*
G01X28100Y8259D01*
G01X28440Y8259D02*
G01X28100Y8259D01*
G01X28327Y8577D02*
G01X28327Y8100D01*
G04 Draw part S6*
G04 draw part outline for part S6*
G54D11*
G01X40011Y8811D02*
G01X43988Y8811D01*
G01X43988Y8811D02*
G01X43988Y12788D01*
G01X43988Y12788D02*
G01X40011Y12788D01*
G01X40011Y12788D02*
G01X40011Y8811D01*
G54D12*
G01X42000Y10878D02*
G01X42078Y10800D01*
G01X42078Y10800D02*
G01X42000Y10721D01*
G01X42000Y10721D02*
G01X41921Y10800D01*
G01X41921Y10800D02*
G01X42000Y10878D01*
G01X39204Y10760D02*
G01X39204Y10800D01*
G01X39205Y10839D01*
G01X39207Y10878D01*
G01X39209Y10918D01*
G01X39211Y10957D01*
G01X39214Y10996D01*
G01X39218Y11036D01*
G01X39222Y11075D01*
G01X39226Y11114D01*
G01X39232Y11153D01*
G01X39237Y11192D01*
G01X39244Y11231D01*
G01X39250Y11270D01*
G01X39258Y11308D01*
G01X39266Y11347D01*
G01X39274Y11385D01*
G01X39283Y11424D01*
G01X39292Y11462D01*
G01X39303Y11500D01*
G01X39313Y11538D01*
G01X39324Y11576D01*
G01X39336Y11614D01*
G01X39348Y11651D01*
G01X39361Y11688D01*
G01X39374Y11726D01*
G01X39387Y11762D01*
G01X39402Y11799D01*
G01X39416Y11836D01*
G01X39431Y11872D01*
G01X39447Y11908D01*
G01X39463Y11944D01*
G01X39480Y11980D01*
G01X39497Y12015D01*
G01X39515Y12051D01*
G01X39533Y12086D01*
G01X39552Y12120D01*
G01X39571Y12155D01*
G01X39591Y12189D01*
G01X39611Y12223D01*
G01X39631Y12256D01*
G01X39652Y12290D01*
G01X39674Y12323D01*
G01X39696Y12355D01*
G01X39718Y12388D01*
G01X39741Y12420D01*
G01X39764Y12452D01*
G01X39788Y12483D01*
G01X39812Y12514D01*
G01X39837Y12545D01*
G01X39862Y12575D01*
G01X39887Y12606D01*
G01X39913Y12635D01*
G01X39939Y12665D01*
G01X39966Y12694D01*
G01X39993Y12722D01*
G01X40021Y12751D01*
G01X40048Y12778D01*
G01X40077Y12806D01*
G01X40105Y12833D01*
G01X40134Y12860D01*
G01X40164Y12886D01*
G01X40193Y12912D01*
G01X40224Y12937D01*
G01X40254Y12962D01*
G01X40285Y12987D01*
G01X40316Y13011D01*
G01X40347Y13035D01*
G01X40379Y13058D01*
G01X40411Y13081D01*
G01X40444Y13103D01*
G01X40476Y13125D01*
G01X40509Y13147D01*
G01X40543Y13168D01*
G01X40576Y13188D01*
G01X40610Y13208D01*
G01X40644Y13228D01*
G01X40679Y13247D01*
G01X40713Y13266D01*
G01X40748Y13284D01*
G01X40784Y13302D01*
G01X40819Y13319D01*
G01X40855Y13336D01*
G01X40891Y13352D01*
G01X40927Y13368D01*
G01X40963Y13383D01*
G01X41000Y13397D01*
G01X41037Y13412D01*
G01X41073Y13425D01*
G01X41111Y13438D01*
G01X41148Y13451D01*
G01X41185Y13463D01*
G01X41223Y13475D01*
G01X41261Y13486D01*
G01X41299Y13496D01*
G01X41337Y13507D01*
G01X41375Y13516D01*
G01X41414Y13525D01*
G01X41452Y13533D01*
G01X41491Y13541D01*
G01X41529Y13549D01*
G01X41568Y13555D01*
G01X41607Y13562D01*
G01X41646Y13567D01*
G01X41685Y13573D01*
G01X41724Y13577D01*
G01X41763Y13581D01*
G01X41803Y13585D01*
G01X41842Y13588D01*
G01X41881Y13590D01*
G01X41921Y13592D01*
G01X41960Y13594D01*
G01X41999Y13595D01*
G01X42039Y13595D01*
G01X42039Y13595D02*
G01X42078Y13594D01*
G01X42118Y13594D01*
G01X42157Y13592D01*
G01X42196Y13590D01*
G01X42235Y13588D01*
G01X42275Y13585D01*
G01X42314Y13581D01*
G01X42353Y13577D01*
G01X42392Y13572D01*
G01X42431Y13567D01*
G01X42470Y13561D01*
G01X42509Y13554D01*
G01X42548Y13547D01*
G01X42586Y13540D01*
G01X42625Y13532D01*
G01X42663Y13523D01*
G01X42701Y13514D01*
G01X42739Y13504D01*
G01X42777Y13494D01*
G01X42815Y13483D01*
G01X42853Y13472D01*
G01X42890Y13460D01*
G01X42928Y13447D01*
G01X42965Y13435D01*
G01X43002Y13421D01*
G01X43039Y13407D01*
G01X43075Y13392D01*
G01X43112Y13377D01*
G01X43148Y13362D01*
G01X43184Y13346D01*
G01X43219Y13329D01*
G01X43255Y13312D01*
G01X43290Y13294D01*
G01X43325Y13276D01*
G01X43360Y13258D01*
G01X43394Y13239D01*
G01X43428Y13219D01*
G01X43462Y13199D01*
G01X43496Y13178D01*
G01X43529Y13157D01*
G01X43562Y13136D01*
G01X43594Y13114D01*
G01X43627Y13091D01*
G01X43659Y13068D01*
G01X43690Y13045D01*
G01X43722Y13021D01*
G01X43753Y12997D01*
G01X43783Y12972D01*
G01X43814Y12947D01*
G01X43844Y12922D01*
G01X43873Y12896D01*
G01X43902Y12869D01*
G01X43931Y12842D01*
G01X43960Y12815D01*
G01X43988Y12788D01*
G01X44015Y12760D01*
G01X44042Y12731D01*
G01X44069Y12702D01*
G01X44096Y12673D01*
G01X44122Y12644D01*
G01X44147Y12614D01*
G01X44172Y12583D01*
G01X44197Y12553D01*
G01X44221Y12522D01*
G01X44245Y12490D01*
G01X44268Y12459D01*
G01X44291Y12427D01*
G01X44314Y12394D01*
G01X44336Y12362D01*
G01X44357Y12329D01*
G01X44378Y12296D01*
G01X44399Y12262D01*
G01X44419Y12228D01*
G01X44439Y12194D01*
G01X44458Y12160D01*
G01X44476Y12125D01*
G01X44494Y12090D01*
G01X44512Y12055D01*
G01X44529Y12019D01*
G01X44546Y11984D01*
G01X44562Y11948D01*
G01X44577Y11912D01*
G01X44592Y11875D01*
G01X44607Y11839D01*
G01X44621Y11802D01*
G01X44635Y11765D01*
G01X44647Y11728D01*
G01X44660Y11690D01*
G01X44672Y11653D01*
G01X44683Y11615D01*
G01X44694Y11577D01*
G01X44704Y11539D01*
G01X44714Y11501D01*
G01X44723Y11463D01*
G01X44732Y11425D01*
G01X44740Y11386D01*
G01X44747Y11348D01*
G01X44754Y11309D01*
G01X44761Y11270D01*
G01X44767Y11231D01*
G01X44772Y11192D01*
G01X44777Y11153D01*
G01X44781Y11114D01*
G01X44785Y11075D01*
G01X44788Y11035D01*
G01X44790Y10996D01*
G01X44792Y10957D01*
G01X44794Y10918D01*
G01X44794Y10878D01*
G01X44795Y10839D01*
G01X44795Y10839D02*
G01X44795Y10799D01*
G01X44794Y10760D01*
G01X44792Y10721D01*
G01X44790Y10681D01*
G01X44788Y10642D01*
G01X44785Y10603D01*
G01X44781Y10563D01*
G01X44777Y10524D01*
G01X44773Y10485D01*
G01X44767Y10446D01*
G01X44762Y10407D01*
G01X44755Y10368D01*
G01X44749Y10329D01*
G01X44741Y10291D01*
G01X44733Y10252D01*
G01X44725Y10214D01*
G01X44716Y10175D01*
G01X44707Y10137D01*
G01X44696Y10099D01*
G01X44686Y10061D01*
G01X44675Y10023D01*
G01X44663Y9985D01*
G01X44651Y9948D01*
G01X44638Y9911D01*
G01X44625Y9873D01*
G01X44612Y9837D01*
G01X44597Y9800D01*
G01X44583Y9763D01*
G01X44568Y9727D01*
G01X44552Y9691D01*
G01X44536Y9655D01*
G01X44519Y9619D01*
G01X44502Y9584D01*
G01X44484Y9548D01*
G01X44466Y9513D01*
G01X44447Y9479D01*
G01X44428Y9444D01*
G01X44408Y9410D01*
G01X44388Y9376D01*
G01X44368Y9343D01*
G01X44347Y9309D01*
G01X44325Y9276D01*
G01X44303Y9244D01*
G01X44281Y9211D01*
G01X44258Y9179D01*
G01X44235Y9147D01*
G01X44211Y9116D01*
G01X44187Y9085D01*
G01X44162Y9054D01*
G01X44137Y9024D01*
G01X44112Y8993D01*
G01X44086Y8964D01*
G01X44060Y8934D01*
G01X44033Y8905D01*
G01X44006Y8877D01*
G01X43978Y8848D01*
G01X43951Y8821D01*
G01X43922Y8793D01*
G01X43894Y8766D01*
G01X43865Y8739D01*
G01X43835Y8713D01*
G01X43806Y8687D01*
G01X43775Y8662D01*
G01X43745Y8637D01*
G01X43714Y8612D01*
G01X43683Y8588D01*
G01X43652Y8564D01*
G01X43620Y8541D01*
G01X43588Y8518D01*
G01X43555Y8496D01*
G01X43523Y8474D01*
G01X43490Y8452D01*
G01X43456Y8431D01*
G01X43423Y8411D01*
G01X43389Y8391D01*
G01X43355Y8371D01*
G01X43320Y8352D01*
G01X43286Y8333D01*
G01X43251Y8315D01*
G01X43215Y8297D01*
G01X43180Y8280D01*
G01X43144Y8263D01*
G01X43108Y8247D01*
G01X43072Y8231D01*
G01X43036Y8216D01*
G01X42999Y8202D01*
G01X42962Y8187D01*
G01X42926Y8174D01*
G01X42888Y8161D01*
G01X42851Y8148D01*
G01X42814Y8136D01*
G01X42776Y8124D01*
G01X42738Y8113D01*
G01X42700Y8103D01*
G01X42662Y8092D01*
G01X42624Y8083D01*
G01X42585Y8074D01*
G01X42547Y8066D01*
G01X42508Y8058D01*
G01X42470Y8050D01*
G01X42431Y8044D01*
G01X42392Y8037D01*
G01X42353Y8032D01*
G01X42314Y8026D01*
G01X42275Y8022D01*
G01X42236Y8018D01*
G01X42196Y8014D01*
G01X42157Y8011D01*
G01X42118Y8009D01*
G01X42078Y8007D01*
G01X42039Y8005D01*
G01X42000Y8004D01*
G01X41960Y8004D01*
G01X41960Y8004D02*
G01X41921Y8005D01*
G01X41881Y8005D01*
G01X41842Y8007D01*
G01X41803Y8009D01*
G01X41764Y8011D01*
G01X41724Y8014D01*
G01X41685Y8018D01*
G01X41646Y8022D01*
G01X41607Y8027D01*
G01X41568Y8032D01*
G01X41529Y8038D01*
G01X41490Y8045D01*
G01X41451Y8052D01*
G01X41413Y8059D01*
G01X41374Y8067D01*
G01X41336Y8076D01*
G01X41298Y8085D01*
G01X41260Y8095D01*
G01X41222Y8105D01*
G01X41184Y8116D01*
G01X41146Y8127D01*
G01X41109Y8139D01*
G01X41071Y8152D01*
G01X41034Y8164D01*
G01X40997Y8178D01*
G01X40960Y8192D01*
G01X40924Y8207D01*
G01X40887Y8222D01*
G01X40851Y8237D01*
G01X40815Y8253D01*
G01X40780Y8270D01*
G01X40744Y8287D01*
G01X40709Y8305D01*
G01X40674Y8323D01*
G01X40639Y8341D01*
G01X40605Y8360D01*
G01X40571Y8380D01*
G01X40537Y8400D01*
G01X40503Y8421D01*
G01X40470Y8442D01*
G01X40437Y8463D01*
G01X40405Y8485D01*
G01X40372Y8508D01*
G01X40340Y8531D01*
G01X40309Y8554D01*
G01X40277Y8578D01*
G01X40246Y8602D01*
G01X40216Y8627D01*
G01X40185Y8652D01*
G01X40155Y8677D01*
G01X40126Y8703D01*
G01X40097Y8730D01*
G01X40068Y8757D01*
G01X40039Y8784D01*
G01X40011Y8811D01*
G01X39984Y8839D01*
G01X39957Y8868D01*
G01X39930Y8897D01*
G01X39903Y8926D01*
G01X39877Y8955D01*
G01X39852Y8985D01*
G01X39827Y9016D01*
G01X39802Y9046D01*
G01X39778Y9077D01*
G01X39754Y9109D01*
G01X39731Y9140D01*
G01X39708Y9172D01*
G01X39685Y9205D01*
G01X39663Y9237D01*
G01X39642Y9270D01*
G01X39621Y9303D01*
G01X39600Y9337D01*
G01X39580Y9371D01*
G01X39560Y9405D01*
G01X39541Y9439D01*
G01X39523Y9474D01*
G01X39505Y9509D01*
G01X39487Y9544D01*
G01X39470Y9580D01*
G01X39453Y9615D01*
G01X39437Y9651D01*
G01X39422Y9687D01*
G01X39407Y9724D01*
G01X39392Y9760D01*
G01X39378Y9797D01*
G01X39364Y9834D01*
G01X39352Y9871D01*
G01X39339Y9909D01*
G01X39327Y9946D01*
G01X39316Y9984D01*
G01X39305Y10022D01*
G01X39295Y10060D01*
G01X39285Y10098D01*
G01X39276Y10136D01*
G01X39267Y10174D01*
G01X39259Y10213D01*
G01X39252Y10251D01*
G01X39245Y10290D01*
G01X39238Y10329D01*
G01X39232Y10368D01*
G01X39227Y10407D01*
G01X39222Y10446D01*
G01X39218Y10485D01*
G01X39214Y10524D01*
G01X39211Y10564D01*
G01X39209Y10603D01*
G01X39207Y10642D01*
G01X39205Y10681D01*
G01X39205Y10721D01*
G01X39204Y10760D01*
G04 draw reference designator for part S6*
G54D10*
G01X41772Y8554D02*
G01X41818Y8509D01*
G01X41704Y8577D02*
G01X41772Y8554D01*
G01X41613Y8577D02*
G01X41704Y8577D01*
G01X41613Y8577D02*
G01X41545Y8554D01*
G01X41545Y8554D02*
G01X41500Y8509D01*
G01X41500Y8509D02*
G01X41500Y8463D01*
G01X41500Y8463D02*
G01X41522Y8418D01*
G01X41522Y8418D02*
G01X41545Y8395D01*
G01X41545Y8395D02*
G01X41590Y8372D01*
G01X41590Y8372D02*
G01X41727Y8327D01*
G01X41727Y8327D02*
G01X41772Y8304D01*
G01X41772Y8304D02*
G01X41795Y8281D01*
G01X41795Y8281D02*
G01X41818Y8236D01*
G01X41818Y8236D02*
G01X41818Y8168D01*
G01X41818Y8168D02*
G01X41772Y8122D01*
G01X41772Y8122D02*
G01X41704Y8100D01*
G01X41613Y8100D02*
G01X41704Y8100D01*
G01X41545Y8122D02*
G01X41613Y8100D01*
G01X41500Y8168D02*
G01X41545Y8122D01*
G01X42250Y8554D02*
G01X42272Y8509D01*
G01X42181Y8577D02*
G01X42250Y8554D01*
G01X42136Y8577D02*
G01X42181Y8577D01*
G01X42136Y8577D02*
G01X42068Y8554D01*
G01X42068Y8554D02*
G01X42022Y8486D01*
G01X42022Y8486D02*
G01X42000Y8372D01*
G01X42000Y8372D02*
G01X42000Y8259D01*
G01X42000Y8259D02*
G01X42022Y8168D01*
G01X42022Y8168D02*
G01X42068Y8122D01*
G01X42068Y8122D02*
G01X42136Y8100D01*
G01X42159Y8100D02*
G01X42136Y8100D01*
G01X42227Y8122D02*
G01X42159Y8100D01*
G01X42272Y8168D02*
G01X42227Y8122D01*
G01X42295Y8236D02*
G01X42272Y8168D01*
G01X42295Y8259D02*
G01X42295Y8236D01*
G01X42272Y8327D02*
G01X42295Y8259D01*
G01X42227Y8372D02*
G01X42272Y8327D01*
G01X42159Y8395D02*
G01X42227Y8372D01*
G01X42136Y8395D02*
G01X42159Y8395D01*
G01X42136Y8395D02*
G01X42068Y8372D01*
G01X42068Y8372D02*
G01X42022Y8327D01*
G01X42022Y8327D02*
G01X42000Y8259D01*
G04 Draw part S7*
G04 draw part outline for part S7*
G54D11*
G01X47011Y8811D02*
G01X50988Y8811D01*
G01X50988Y8811D02*
G01X50988Y12788D01*
G01X50988Y12788D02*
G01X47011Y12788D01*
G01X47011Y12788D02*
G01X47011Y8811D01*
G54D12*
G01X49000Y10878D02*
G01X49078Y10800D01*
G01X49078Y10800D02*
G01X49000Y10721D01*
G01X49000Y10721D02*
G01X48921Y10800D01*
G01X48921Y10800D02*
G01X49000Y10878D01*
G01X46204Y10760D02*
G01X46204Y10800D01*
G01X46205Y10839D01*
G01X46207Y10878D01*
G01X46209Y10918D01*
G01X46211Y10957D01*
G01X46214Y10996D01*
G01X46218Y11036D01*
G01X46222Y11075D01*
G01X46226Y11114D01*
G01X46232Y11153D01*
G01X46237Y11192D01*
G01X46244Y11231D01*
G01X46250Y11270D01*
G01X46258Y11308D01*
G01X46266Y11347D01*
G01X46274Y11385D01*
G01X46283Y11424D01*
G01X46292Y11462D01*
G01X46303Y11500D01*
G01X46313Y11538D01*
G01X46324Y11576D01*
G01X46336Y11614D01*
G01X46348Y11651D01*
G01X46361Y11688D01*
G01X46374Y11726D01*
G01X46387Y11762D01*
G01X46402Y11799D01*
G01X46416Y11836D01*
G01X46431Y11872D01*
G01X46447Y11908D01*
G01X46463Y11944D01*
G01X46480Y11980D01*
G01X46497Y12015D01*
G01X46515Y12051D01*
G01X46533Y12086D01*
G01X46552Y12120D01*
G01X46571Y12155D01*
G01X46591Y12189D01*
G01X46611Y12223D01*
G01X46631Y12256D01*
G01X46652Y12290D01*
G01X46674Y12323D01*
G01X46696Y12355D01*
G01X46718Y12388D01*
G01X46741Y12420D01*
G01X46764Y12452D01*
G01X46788Y12483D01*
G01X46812Y12514D01*
G01X46837Y12545D01*
G01X46862Y12575D01*
G01X46887Y12606D01*
G01X46913Y12635D01*
G01X46939Y12665D01*
G01X46966Y12694D01*
G01X46993Y12722D01*
G01X47021Y12751D01*
G01X47048Y12778D01*
G01X47077Y12806D01*
G01X47105Y12833D01*
G01X47134Y12860D01*
G01X47164Y12886D01*
G01X47193Y12912D01*
G01X47224Y12937D01*
G01X47254Y12962D01*
G01X47285Y12987D01*
G01X47316Y13011D01*
G01X47347Y13035D01*
G01X47379Y13058D01*
G01X47411Y13081D01*
G01X47444Y13103D01*
G01X47476Y13125D01*
G01X47509Y13147D01*
G01X47543Y13168D01*
G01X47576Y13188D01*
G01X47610Y13208D01*
G01X47644Y13228D01*
G01X47679Y13247D01*
G01X47713Y13266D01*
G01X47748Y13284D01*
G01X47784Y13302D01*
G01X47819Y13319D01*
G01X47855Y13336D01*
G01X47891Y13352D01*
G01X47927Y13368D01*
G01X47963Y13383D01*
G01X48000Y13397D01*
G01X48037Y13412D01*
G01X48073Y13425D01*
G01X48111Y13438D01*
G01X48148Y13451D01*
G01X48185Y13463D01*
G01X48223Y13475D01*
G01X48261Y13486D01*
G01X48299Y13496D01*
G01X48337Y13507D01*
G01X48375Y13516D01*
G01X48414Y13525D01*
G01X48452Y13533D01*
G01X48491Y13541D01*
G01X48529Y13549D01*
G01X48568Y13555D01*
G01X48607Y13562D01*
G01X48646Y13567D01*
G01X48685Y13573D01*
G01X48724Y13577D01*
G01X48763Y13581D01*
G01X48803Y13585D01*
G01X48842Y13588D01*
G01X48881Y13590D01*
G01X48921Y13592D01*
G01X48960Y13594D01*
G01X48999Y13595D01*
G01X49039Y13595D01*
G01X49039Y13595D02*
G01X49078Y13594D01*
G01X49118Y13594D01*
G01X49157Y13592D01*
G01X49196Y13590D01*
G01X49235Y13588D01*
G01X49275Y13585D01*
G01X49314Y13581D01*
G01X49353Y13577D01*
G01X49392Y13572D01*
G01X49431Y13567D01*
G01X49470Y13561D01*
G01X49509Y13554D01*
G01X49548Y13547D01*
G01X49586Y13540D01*
G01X49625Y13532D01*
G01X49663Y13523D01*
G01X49701Y13514D01*
G01X49739Y13504D01*
G01X49777Y13494D01*
G01X49815Y13483D01*
G01X49853Y13472D01*
G01X49890Y13460D01*
G01X49928Y13447D01*
G01X49965Y13435D01*
G01X50002Y13421D01*
G01X50039Y13407D01*
G01X50075Y13392D01*
G01X50112Y13377D01*
G01X50148Y13362D01*
G01X50184Y13346D01*
G01X50219Y13329D01*
G01X50255Y13312D01*
G01X50290Y13294D01*
G01X50325Y13276D01*
G01X50360Y13258D01*
G01X50394Y13239D01*
G01X50428Y13219D01*
G01X50462Y13199D01*
G01X50496Y13178D01*
G01X50529Y13157D01*
G01X50562Y13136D01*
G01X50594Y13114D01*
G01X50627Y13091D01*
G01X50659Y13068D01*
G01X50690Y13045D01*
G01X50722Y13021D01*
G01X50753Y12997D01*
G01X50783Y12972D01*
G01X50814Y12947D01*
G01X50844Y12922D01*
G01X50873Y12896D01*
G01X50902Y12869D01*
G01X50931Y12842D01*
G01X50960Y12815D01*
G01X50988Y12788D01*
G01X51015Y12760D01*
G01X51042Y12731D01*
G01X51069Y12702D01*
G01X51096Y12673D01*
G01X51122Y12644D01*
G01X51147Y12614D01*
G01X51172Y12583D01*
G01X51197Y12553D01*
G01X51221Y12522D01*
G01X51245Y12490D01*
G01X51268Y12459D01*
G01X51291Y12427D01*
G01X51314Y12394D01*
G01X51336Y12362D01*
G01X51357Y12329D01*
G01X51378Y12296D01*
G01X51399Y12262D01*
G01X51419Y12228D01*
G01X51439Y12194D01*
G01X51458Y12160D01*
G01X51476Y12125D01*
G01X51494Y12090D01*
G01X51512Y12055D01*
G01X51529Y12019D01*
G01X51546Y11984D01*
G01X51562Y11948D01*
G01X51577Y11912D01*
G01X51592Y11875D01*
G01X51607Y11839D01*
G01X51621Y11802D01*
G01X51635Y11765D01*
G01X51647Y11728D01*
G01X51660Y11690D01*
G01X51672Y11653D01*
G01X51683Y11615D01*
G01X51694Y11577D01*
G01X51704Y11539D01*
G01X51714Y11501D01*
G01X51723Y11463D01*
G01X51732Y11425D01*
G01X51740Y11386D01*
G01X51747Y11348D01*
G01X51754Y11309D01*
G01X51761Y11270D01*
G01X51767Y11231D01*
G01X51772Y11192D01*
G01X51777Y11153D01*
G01X51781Y11114D01*
G01X51785Y11075D01*
G01X51788Y11035D01*
G01X51790Y10996D01*
G01X51792Y10957D01*
G01X51794Y10918D01*
G01X51794Y10878D01*
G01X51795Y10839D01*
G01X51795Y10839D02*
G01X51795Y10799D01*
G01X51794Y10760D01*
G01X51792Y10721D01*
G01X51790Y10681D01*
G01X51788Y10642D01*
G01X51785Y10603D01*
G01X51781Y10563D01*
G01X51777Y10524D01*
G01X51773Y10485D01*
G01X51767Y10446D01*
G01X51762Y10407D01*
G01X51755Y10368D01*
G01X51749Y10329D01*
G01X51741Y10291D01*
G01X51733Y10252D01*
G01X51725Y10214D01*
G01X51716Y10175D01*
G01X51707Y10137D01*
G01X51696Y10099D01*
G01X51686Y10061D01*
G01X51675Y10023D01*
G01X51663Y9985D01*
G01X51651Y9948D01*
G01X51638Y9911D01*
G01X51625Y9873D01*
G01X51612Y9837D01*
G01X51597Y9800D01*
G01X51583Y9763D01*
G01X51568Y9727D01*
G01X51552Y9691D01*
G01X51536Y9655D01*
G01X51519Y9619D01*
G01X51502Y9584D01*
G01X51484Y9548D01*
G01X51466Y9513D01*
G01X51447Y9479D01*
G01X51428Y9444D01*
G01X51408Y9410D01*
G01X51388Y9376D01*
G01X51368Y9343D01*
G01X51347Y9309D01*
G01X51325Y9276D01*
G01X51303Y9244D01*
G01X51281Y9211D01*
G01X51258Y9179D01*
G01X51235Y9147D01*
G01X51211Y9116D01*
G01X51187Y9085D01*
G01X51162Y9054D01*
G01X51137Y9024D01*
G01X51112Y8993D01*
G01X51086Y8964D01*
G01X51060Y8934D01*
G01X51033Y8905D01*
G01X51006Y8877D01*
G01X50978Y8848D01*
G01X50951Y8821D01*
G01X50922Y8793D01*
G01X50894Y8766D01*
G01X50865Y8739D01*
G01X50835Y8713D01*
G01X50806Y8687D01*
G01X50775Y8662D01*
G01X50745Y8637D01*
G01X50714Y8612D01*
G01X50683Y8588D01*
G01X50652Y8564D01*
G01X50620Y8541D01*
G01X50588Y8518D01*
G01X50555Y8496D01*
G01X50523Y8474D01*
G01X50490Y8452D01*
G01X50456Y8431D01*
G01X50423Y8411D01*
G01X50389Y8391D01*
G01X50355Y8371D01*
G01X50320Y8352D01*
G01X50286Y8333D01*
G01X50251Y8315D01*
G01X50215Y8297D01*
G01X50180Y8280D01*
G01X50144Y8263D01*
G01X50108Y8247D01*
G01X50072Y8231D01*
G01X50036Y8216D01*
G01X49999Y8202D01*
G01X49962Y8187D01*
G01X49926Y8174D01*
G01X49888Y8161D01*
G01X49851Y8148D01*
G01X49814Y8136D01*
G01X49776Y8124D01*
G01X49738Y8113D01*
G01X49700Y8103D01*
G01X49662Y8092D01*
G01X49624Y8083D01*
G01X49585Y8074D01*
G01X49547Y8066D01*
G01X49508Y8058D01*
G01X49470Y8050D01*
G01X49431Y8044D01*
G01X49392Y8037D01*
G01X49353Y8032D01*
G01X49314Y8026D01*
G01X49275Y8022D01*
G01X49236Y8018D01*
G01X49196Y8014D01*
G01X49157Y8011D01*
G01X49118Y8009D01*
G01X49078Y8007D01*
G01X49039Y8005D01*
G01X49000Y8004D01*
G01X48960Y8004D01*
G01X48960Y8004D02*
G01X48921Y8005D01*
G01X48881Y8005D01*
G01X48842Y8007D01*
G01X48803Y8009D01*
G01X48764Y8011D01*
G01X48724Y8014D01*
G01X48685Y8018D01*
G01X48646Y8022D01*
G01X48607Y8027D01*
G01X48568Y8032D01*
G01X48529Y8038D01*
G01X48490Y8045D01*
G01X48451Y8052D01*
G01X48413Y8059D01*
G01X48374Y8067D01*
G01X48336Y8076D01*
G01X48298Y8085D01*
G01X48260Y8095D01*
G01X48222Y8105D01*
G01X48184Y8116D01*
G01X48146Y8127D01*
G01X48109Y8139D01*
G01X48071Y8152D01*
G01X48034Y8164D01*
G01X47997Y8178D01*
G01X47960Y8192D01*
G01X47924Y8207D01*
G01X47887Y8222D01*
G01X47851Y8237D01*
G01X47815Y8253D01*
G01X47780Y8270D01*
G01X47744Y8287D01*
G01X47709Y8305D01*
G01X47674Y8323D01*
G01X47639Y8341D01*
G01X47605Y8360D01*
G01X47571Y8380D01*
G01X47537Y8400D01*
G01X47503Y8421D01*
G01X47470Y8442D01*
G01X47437Y8463D01*
G01X47405Y8485D01*
G01X47372Y8508D01*
G01X47340Y8531D01*
G01X47309Y8554D01*
G01X47277Y8578D01*
G01X47246Y8602D01*
G01X47216Y8627D01*
G01X47185Y8652D01*
G01X47155Y8677D01*
G01X47126Y8703D01*
G01X47097Y8730D01*
G01X47068Y8757D01*
G01X47039Y8784D01*
G01X47011Y8811D01*
G01X46984Y8839D01*
G01X46957Y8868D01*
G01X46930Y8897D01*
G01X46903Y8926D01*
G01X46877Y8955D01*
G01X46852Y8985D01*
G01X46827Y9016D01*
G01X46802Y9046D01*
G01X46778Y9077D01*
G01X46754Y9109D01*
G01X46731Y9140D01*
G01X46708Y9172D01*
G01X46685Y9205D01*
G01X46663Y9237D01*
G01X46642Y9270D01*
G01X46621Y9303D01*
G01X46600Y9337D01*
G01X46580Y9371D01*
G01X46560Y9405D01*
G01X46541Y9439D01*
G01X46523Y9474D01*
G01X46505Y9509D01*
G01X46487Y9544D01*
G01X46470Y9580D01*
G01X46453Y9615D01*
G01X46437Y9651D01*
G01X46422Y9687D01*
G01X46407Y9724D01*
G01X46392Y9760D01*
G01X46378Y9797D01*
G01X46364Y9834D01*
G01X46352Y9871D01*
G01X46339Y9909D01*
G01X46327Y9946D01*
G01X46316Y9984D01*
G01X46305Y10022D01*
G01X46295Y10060D01*
G01X46285Y10098D01*
G01X46276Y10136D01*
G01X46267Y10174D01*
G01X46259Y10213D01*
G01X46252Y10251D01*
G01X46245Y10290D01*
G01X46238Y10329D01*
G01X46232Y10368D01*
G01X46227Y10407D01*
G01X46222Y10446D01*
G01X46218Y10485D01*
G01X46214Y10524D01*
G01X46211Y10564D01*
G01X46209Y10603D01*
G01X46207Y10642D01*
G01X46205Y10681D01*
G01X46205Y10721D01*
G01X46204Y10760D01*
G04 draw reference designator for part S7*
G54D10*
G01X48772Y8554D02*
G01X48818Y8509D01*
G01X48704Y8577D02*
G01X48772Y8554D01*
G01X48613Y8577D02*
G01X48704Y8577D01*
G01X48613Y8577D02*
G01X48545Y8554D01*
G01X48545Y8554D02*
G01X48500Y8509D01*
G01X48500Y8509D02*
G01X48500Y8463D01*
G01X48500Y8463D02*
G01X48522Y8418D01*
G01X48522Y8418D02*
G01X48545Y8395D01*
G01X48545Y8395D02*
G01X48590Y8372D01*
G01X48590Y8372D02*
G01X48727Y8327D01*
G01X48727Y8327D02*
G01X48772Y8304D01*
G01X48772Y8304D02*
G01X48795Y8281D01*
G01X48795Y8281D02*
G01X48818Y8236D01*
G01X48818Y8236D02*
G01X48818Y8168D01*
G01X48818Y8168D02*
G01X48772Y8122D01*
G01X48772Y8122D02*
G01X48704Y8100D01*
G01X48613Y8100D02*
G01X48704Y8100D01*
G01X48545Y8122D02*
G01X48613Y8100D01*
G01X48500Y8168D02*
G01X48545Y8122D01*
G01X49318Y8577D02*
G01X49090Y8100D01*
G01X49318Y8577D02*
G01X49000Y8577D01*
G04 Draw part S8*
G04 draw part outline for part S8*
G54D11*
G01X54011Y8811D02*
G01X57988Y8811D01*
G01X57988Y8811D02*
G01X57988Y12788D01*
G01X57988Y12788D02*
G01X54011Y12788D01*
G01X54011Y12788D02*
G01X54011Y8811D01*
G54D12*
G01X56000Y10878D02*
G01X56078Y10800D01*
G01X56078Y10800D02*
G01X56000Y10721D01*
G01X56000Y10721D02*
G01X55921Y10800D01*
G01X55921Y10800D02*
G01X56000Y10878D01*
G01X53204Y10760D02*
G01X53204Y10800D01*
G01X53205Y10839D01*
G01X53207Y10878D01*
G01X53209Y10918D01*
G01X53211Y10957D01*
G01X53214Y10996D01*
G01X53218Y11036D01*
G01X53222Y11075D01*
G01X53226Y11114D01*
G01X53232Y11153D01*
G01X53237Y11192D01*
G01X53244Y11231D01*
G01X53250Y11270D01*
G01X53258Y11308D01*
G01X53266Y11347D01*
G01X53274Y11385D01*
G01X53283Y11424D01*
G01X53292Y11462D01*
G01X53303Y11500D01*
G01X53313Y11538D01*
G01X53324Y11576D01*
G01X53336Y11614D01*
G01X53348Y11651D01*
G01X53361Y11688D01*
G01X53374Y11726D01*
G01X53387Y11762D01*
G01X53402Y11799D01*
G01X53416Y11836D01*
G01X53431Y11872D01*
G01X53447Y11908D01*
G01X53463Y11944D01*
G01X53480Y11980D01*
G01X53497Y12015D01*
G01X53515Y12051D01*
G01X53533Y12086D01*
G01X53552Y12120D01*
G01X53571Y12155D01*
G01X53591Y12189D01*
G01X53611Y12223D01*
G01X53631Y12256D01*
G01X53652Y12290D01*
G01X53674Y12323D01*
G01X53696Y12355D01*
G01X53718Y12388D01*
G01X53741Y12420D01*
G01X53764Y12452D01*
G01X53788Y12483D01*
G01X53812Y12514D01*
G01X53837Y12545D01*
G01X53862Y12575D01*
G01X53887Y12606D01*
G01X53913Y12635D01*
G01X53939Y12665D01*
G01X53966Y12694D01*
G01X53993Y12722D01*
G01X54021Y12751D01*
G01X54048Y12778D01*
G01X54077Y12806D01*
G01X54105Y12833D01*
G01X54134Y12860D01*
G01X54164Y12886D01*
G01X54193Y12912D01*
G01X54224Y12937D01*
G01X54254Y12962D01*
G01X54285Y12987D01*
G01X54316Y13011D01*
G01X54347Y13035D01*
G01X54379Y13058D01*
G01X54411Y13081D01*
G01X54444Y13103D01*
G01X54476Y13125D01*
G01X54509Y13147D01*
G01X54543Y13168D01*
G01X54576Y13188D01*
G01X54610Y13208D01*
G01X54644Y13228D01*
G01X54679Y13247D01*
G01X54713Y13266D01*
G01X54748Y13284D01*
G01X54784Y13302D01*
G01X54819Y13319D01*
G01X54855Y13336D01*
G01X54891Y13352D01*
G01X54927Y13368D01*
G01X54963Y13383D01*
G01X55000Y13397D01*
G01X55037Y13412D01*
G01X55073Y13425D01*
G01X55111Y13438D01*
G01X55148Y13451D01*
G01X55185Y13463D01*
G01X55223Y13475D01*
G01X55261Y13486D01*
G01X55299Y13496D01*
G01X55337Y13507D01*
G01X55375Y13516D01*
G01X55414Y13525D01*
G01X55452Y13533D01*
G01X55491Y13541D01*
G01X55529Y13549D01*
G01X55568Y13555D01*
G01X55607Y13562D01*
G01X55646Y13567D01*
G01X55685Y13573D01*
G01X55724Y13577D01*
G01X55763Y13581D01*
G01X55803Y13585D01*
G01X55842Y13588D01*
G01X55881Y13590D01*
G01X55921Y13592D01*
G01X55960Y13594D01*
G01X55999Y13595D01*
G01X56039Y13595D01*
G01X56039Y13595D02*
G01X56078Y13594D01*
G01X56118Y13594D01*
G01X56157Y13592D01*
G01X56196Y13590D01*
G01X56235Y13588D01*
G01X56275Y13585D01*
G01X56314Y13581D01*
G01X56353Y13577D01*
G01X56392Y13572D01*
G01X56431Y13567D01*
G01X56470Y13561D01*
G01X56509Y13554D01*
G01X56548Y13547D01*
G01X56586Y13540D01*
G01X56625Y13532D01*
G01X56663Y13523D01*
G01X56701Y13514D01*
G01X56739Y13504D01*
G01X56777Y13494D01*
G01X56815Y13483D01*
G01X56853Y13472D01*
G01X56890Y13460D01*
G01X56928Y13447D01*
G01X56965Y13435D01*
G01X57002Y13421D01*
G01X57039Y13407D01*
G01X57075Y13392D01*
G01X57112Y13377D01*
G01X57148Y13362D01*
G01X57184Y13346D01*
G01X57219Y13329D01*
G01X57255Y13312D01*
G01X57290Y13294D01*
G01X57325Y13276D01*
G01X57360Y13258D01*
G01X57394Y13239D01*
G01X57428Y13219D01*
G01X57462Y13199D01*
G01X57496Y13178D01*
G01X57529Y13157D01*
G01X57562Y13136D01*
G01X57594Y13114D01*
G01X57627Y13091D01*
G01X57659Y13068D01*
G01X57690Y13045D01*
G01X57722Y13021D01*
G01X57753Y12997D01*
G01X57783Y12972D01*
G01X57814Y12947D01*
G01X57844Y12922D01*
G01X57873Y12896D01*
G01X57902Y12869D01*
G01X57931Y12842D01*
G01X57960Y12815D01*
G01X57988Y12788D01*
G01X58015Y12760D01*
G01X58042Y12731D01*
G01X58069Y12702D01*
G01X58096Y12673D01*
G01X58122Y12644D01*
G01X58147Y12614D01*
G01X58172Y12583D01*
G01X58197Y12553D01*
G01X58221Y12522D01*
G01X58245Y12490D01*
G01X58268Y12459D01*
G01X58291Y12427D01*
G01X58314Y12394D01*
G01X58336Y12362D01*
G01X58357Y12329D01*
G01X58378Y12296D01*
G01X58399Y12262D01*
G01X58419Y12228D01*
G01X58439Y12194D01*
G01X58458Y12160D01*
G01X58476Y12125D01*
G01X58494Y12090D01*
G01X58512Y12055D01*
G01X58529Y12019D01*
G01X58546Y11984D01*
G01X58562Y11948D01*
G01X58577Y11912D01*
G01X58592Y11875D01*
G01X58607Y11839D01*
G01X58621Y11802D01*
G01X58635Y11765D01*
G01X58647Y11728D01*
G01X58660Y11690D01*
G01X58672Y11653D01*
G01X58683Y11615D01*
G01X58694Y11577D01*
G01X58704Y11539D01*
G01X58714Y11501D01*
G01X58723Y11463D01*
G01X58732Y11425D01*
G01X58740Y11386D01*
G01X58747Y11348D01*
G01X58754Y11309D01*
G01X58761Y11270D01*
G01X58767Y11231D01*
G01X58772Y11192D01*
G01X58777Y11153D01*
G01X58781Y11114D01*
G01X58785Y11075D01*
G01X58788Y11035D01*
G01X58790Y10996D01*
G01X58792Y10957D01*
G01X58794Y10918D01*
G01X58794Y10878D01*
G01X58795Y10839D01*
G01X58795Y10839D02*
G01X58795Y10799D01*
G01X58794Y10760D01*
G01X58792Y10721D01*
G01X58790Y10681D01*
G01X58788Y10642D01*
G01X58785Y10603D01*
G01X58781Y10563D01*
G01X58777Y10524D01*
G01X58773Y10485D01*
G01X58767Y10446D01*
G01X58762Y10407D01*
G01X58755Y10368D01*
G01X58749Y10329D01*
G01X58741Y10291D01*
G01X58733Y10252D01*
G01X58725Y10214D01*
G01X58716Y10175D01*
G01X58707Y10137D01*
G01X58696Y10099D01*
G01X58686Y10061D01*
G01X58675Y10023D01*
G01X58663Y9985D01*
G01X58651Y9948D01*
G01X58638Y9911D01*
G01X58625Y9873D01*
G01X58612Y9837D01*
G01X58597Y9800D01*
G01X58583Y9763D01*
G01X58568Y9727D01*
G01X58552Y9691D01*
G01X58536Y9655D01*
G01X58519Y9619D01*
G01X58502Y9584D01*
G01X58484Y9548D01*
G01X58466Y9513D01*
G01X58447Y9479D01*
G01X58428Y9444D01*
G01X58408Y9410D01*
G01X58388Y9376D01*
G01X58368Y9343D01*
G01X58347Y9309D01*
G01X58325Y9276D01*
G01X58303Y9244D01*
G01X58281Y9211D01*
G01X58258Y9179D01*
G01X58235Y9147D01*
G01X58211Y9116D01*
G01X58187Y9085D01*
G01X58162Y9054D01*
G01X58137Y9024D01*
G01X58112Y8993D01*
G01X58086Y8964D01*
G01X58060Y8934D01*
G01X58033Y8905D01*
G01X58006Y8877D01*
G01X57978Y8848D01*
G01X57951Y8821D01*
G01X57922Y8793D01*
G01X57894Y8766D01*
G01X57865Y8739D01*
G01X57835Y8713D01*
G01X57806Y8687D01*
G01X57775Y8662D01*
G01X57745Y8637D01*
G01X57714Y8612D01*
G01X57683Y8588D01*
G01X57652Y8564D01*
G01X57620Y8541D01*
G01X57588Y8518D01*
G01X57555Y8496D01*
G01X57523Y8474D01*
G01X57490Y8452D01*
G01X57456Y8431D01*
G01X57423Y8411D01*
G01X57389Y8391D01*
G01X57355Y8371D01*
G01X57320Y8352D01*
G01X57286Y8333D01*
G01X57251Y8315D01*
G01X57215Y8297D01*
G01X57180Y8280D01*
G01X57144Y8263D01*
G01X57108Y8247D01*
G01X57072Y8231D01*
G01X57036Y8216D01*
G01X56999Y8202D01*
G01X56962Y8187D01*
G01X56926Y8174D01*
G01X56888Y8161D01*
G01X56851Y8148D01*
G01X56814Y8136D01*
G01X56776Y8124D01*
G01X56738Y8113D01*
G01X56700Y8103D01*
G01X56662Y8092D01*
G01X56624Y8083D01*
G01X56585Y8074D01*
G01X56547Y8066D01*
G01X56508Y8058D01*
G01X56470Y8050D01*
G01X56431Y8044D01*
G01X56392Y8037D01*
G01X56353Y8032D01*
G01X56314Y8026D01*
G01X56275Y8022D01*
G01X56236Y8018D01*
G01X56196Y8014D01*
G01X56157Y8011D01*
G01X56118Y8009D01*
G01X56078Y8007D01*
G01X56039Y8005D01*
G01X56000Y8004D01*
G01X55960Y8004D01*
G01X55960Y8004D02*
G01X55921Y8005D01*
G01X55881Y8005D01*
G01X55842Y8007D01*
G01X55803Y8009D01*
G01X55764Y8011D01*
G01X55724Y8014D01*
G01X55685Y8018D01*
G01X55646Y8022D01*
G01X55607Y8027D01*
G01X55568Y8032D01*
G01X55529Y8038D01*
G01X55490Y8045D01*
G01X55451Y8052D01*
G01X55413Y8059D01*
G01X55374Y8067D01*
G01X55336Y8076D01*
G01X55298Y8085D01*
G01X55260Y8095D01*
G01X55222Y8105D01*
G01X55184Y8116D01*
G01X55146Y8127D01*
G01X55109Y8139D01*
G01X55071Y8152D01*
G01X55034Y8164D01*
G01X54997Y8178D01*
G01X54960Y8192D01*
G01X54924Y8207D01*
G01X54887Y8222D01*
G01X54851Y8237D01*
G01X54815Y8253D01*
G01X54780Y8270D01*
G01X54744Y8287D01*
G01X54709Y8305D01*
G01X54674Y8323D01*
G01X54639Y8341D01*
G01X54605Y8360D01*
G01X54571Y8380D01*
G01X54537Y8400D01*
G01X54503Y8421D01*
G01X54470Y8442D01*
G01X54437Y8463D01*
G01X54405Y8485D01*
G01X54372Y8508D01*
G01X54340Y8531D01*
G01X54309Y8554D01*
G01X54277Y8578D01*
G01X54246Y8602D01*
G01X54216Y8627D01*
G01X54185Y8652D01*
G01X54155Y8677D01*
G01X54126Y8703D01*
G01X54097Y8730D01*
G01X54068Y8757D01*
G01X54039Y8784D01*
G01X54011Y8811D01*
G01X53984Y8839D01*
G01X53957Y8868D01*
G01X53930Y8897D01*
G01X53903Y8926D01*
G01X53877Y8955D01*
G01X53852Y8985D01*
G01X53827Y9016D01*
G01X53802Y9046D01*
G01X53778Y9077D01*
G01X53754Y9109D01*
G01X53731Y9140D01*
G01X53708Y9172D01*
G01X53685Y9205D01*
G01X53663Y9237D01*
G01X53642Y9270D01*
G01X53621Y9303D01*
G01X53600Y9337D01*
G01X53580Y9371D01*
G01X53560Y9405D01*
G01X53541Y9439D01*
G01X53523Y9474D01*
G01X53505Y9509D01*
G01X53487Y9544D01*
G01X53470Y9580D01*
G01X53453Y9615D01*
G01X53437Y9651D01*
G01X53422Y9687D01*
G01X53407Y9724D01*
G01X53392Y9760D01*
G01X53378Y9797D01*
G01X53364Y9834D01*
G01X53352Y9871D01*
G01X53339Y9909D01*
G01X53327Y9946D01*
G01X53316Y9984D01*
G01X53305Y10022D01*
G01X53295Y10060D01*
G01X53285Y10098D01*
G01X53276Y10136D01*
G01X53267Y10174D01*
G01X53259Y10213D01*
G01X53252Y10251D01*
G01X53245Y10290D01*
G01X53238Y10329D01*
G01X53232Y10368D01*
G01X53227Y10407D01*
G01X53222Y10446D01*
G01X53218Y10485D01*
G01X53214Y10524D01*
G01X53211Y10564D01*
G01X53209Y10603D01*
G01X53207Y10642D01*
G01X53205Y10681D01*
G01X53205Y10721D01*
G01X53204Y10760D01*
G04 draw reference designator for part S8*
G54D10*
G01X55972Y8554D02*
G01X56018Y8509D01*
G01X55904Y8577D02*
G01X55972Y8554D01*
G01X55813Y8577D02*
G01X55904Y8577D01*
G01X55813Y8577D02*
G01X55745Y8554D01*
G01X55745Y8554D02*
G01X55700Y8509D01*
G01X55700Y8509D02*
G01X55700Y8463D01*
G01X55700Y8463D02*
G01X55722Y8418D01*
G01X55722Y8418D02*
G01X55745Y8395D01*
G01X55745Y8395D02*
G01X55790Y8372D01*
G01X55790Y8372D02*
G01X55927Y8327D01*
G01X55927Y8327D02*
G01X55972Y8304D01*
G01X55972Y8304D02*
G01X55995Y8281D01*
G01X55995Y8281D02*
G01X56018Y8236D01*
G01X56018Y8236D02*
G01X56018Y8168D01*
G01X56018Y8168D02*
G01X55972Y8122D01*
G01X55972Y8122D02*
G01X55904Y8100D01*
G01X55813Y8100D02*
G01X55904Y8100D01*
G01X55745Y8122D02*
G01X55813Y8100D01*
G01X55700Y8168D02*
G01X55745Y8122D01*
G01X56313Y8577D02*
G01X56245Y8554D01*
G01X56245Y8554D02*
G01X56222Y8509D01*
G01X56222Y8509D02*
G01X56222Y8463D01*
G01X56222Y8463D02*
G01X56245Y8418D01*
G01X56245Y8418D02*
G01X56290Y8395D01*
G01X56290Y8395D02*
G01X56381Y8372D01*
G01X56381Y8372D02*
G01X56450Y8350D01*
G01X56450Y8350D02*
G01X56495Y8304D01*
G01X56495Y8304D02*
G01X56518Y8259D01*
G01X56518Y8259D02*
G01X56518Y8190D01*
G01X56518Y8190D02*
G01X56495Y8145D01*
G01X56495Y8145D02*
G01X56472Y8122D01*
G01X56472Y8122D02*
G01X56404Y8100D01*
G01X56313Y8100D02*
G01X56404Y8100D01*
G01X56245Y8122D02*
G01X56313Y8100D01*
G01X56222Y8145D02*
G01X56245Y8122D01*
G01X56200Y8190D02*
G01X56222Y8145D01*
G01X56200Y8259D02*
G01X56200Y8190D01*
G01X56222Y8304D02*
G01X56200Y8259D01*
G01X56268Y8350D02*
G01X56222Y8304D01*
G01X56336Y8372D02*
G01X56268Y8350D01*
G01X56427Y8395D02*
G01X56336Y8372D01*
G01X56472Y8418D02*
G01X56427Y8395D01*
G01X56495Y8463D02*
G01X56472Y8418D01*
G01X56495Y8509D02*
G01X56495Y8463D01*
G01X56472Y8554D02*
G01X56495Y8509D01*
G01X56404Y8577D02*
G01X56472Y8554D01*
G01X56313Y8577D02*
G01X56404Y8577D01*
G04 Draw part C4*
G04 Draw part C5*
G04 Draw part C8*
G04 Draw part R7*
G04 Draw part R8*
G04 Draw part R9*
G04 Draw part C9*
G04 Draw part D3*
G04 draw part outline for part D3*
G54D12*
G01X5996Y14496D02*
G01X8003Y14496D01*
G01X8003Y14496D02*
G01X8003Y16287D01*
G01X8003Y16287D02*
G01X7787Y16503D01*
G01X7787Y16503D02*
G01X5996Y16503D01*
G01X5996Y16503D02*
G01X5996Y14496D01*
G01X6921Y15500D02*
G01X7000Y15578D01*
G01X7000Y15578D02*
G01X7078Y15500D01*
G01X7078Y15500D02*
G01X7000Y15421D01*
G01X7000Y15421D02*
G01X6921Y15500D01*
G04 draw reference designator for part D3*
G54D10*
G01X4800Y16477D02*
G01X4800Y16000D01*
G01X4959Y16477D02*
G01X4800Y16477D01*
G01X4959Y16477D02*
G01X5027Y16454D01*
G01X5027Y16454D02*
G01X5072Y16409D01*
G01X5072Y16409D02*
G01X5095Y16363D01*
G01X5095Y16363D02*
G01X5118Y16295D01*
G01X5118Y16295D02*
G01X5118Y16181D01*
G01X5118Y16181D02*
G01X5095Y16113D01*
G01X5095Y16113D02*
G01X5072Y16068D01*
G01X5072Y16068D02*
G01X5027Y16022D01*
G01X5027Y16022D02*
G01X4959Y16000D01*
G01X4800Y16000D02*
G01X4959Y16000D01*
G01X5595Y16477D02*
G01X5345Y16477D01*
G01X5595Y16477D02*
G01X5459Y16295D01*
G01X5527Y16295D02*
G01X5459Y16295D01*
G01X5527Y16295D02*
G01X5572Y16272D01*
G01X5572Y16272D02*
G01X5595Y16250D01*
G01X5595Y16250D02*
G01X5618Y16181D01*
G01X5618Y16181D02*
G01X5618Y16136D01*
G01X5618Y16136D02*
G01X5595Y16068D01*
G01X5595Y16068D02*
G01X5550Y16022D01*
G01X5550Y16022D02*
G01X5481Y16000D01*
G01X5413Y16000D02*
G01X5481Y16000D01*
G01X5345Y16022D02*
G01X5413Y16000D01*
G01X5322Y16045D02*
G01X5345Y16022D01*
G01X5300Y16090D02*
G01X5322Y16045D01*
G04 Draw part D4*
G04 draw part outline for part D4*
G54D12*
G01X12996Y14496D02*
G01X15003Y14496D01*
G01X15003Y14496D02*
G01X15003Y16287D01*
G01X15003Y16287D02*
G01X14787Y16503D01*
G01X14787Y16503D02*
G01X12996Y16503D01*
G01X12996Y16503D02*
G01X12996Y14496D01*
G01X13921Y15500D02*
G01X14000Y15578D01*
G01X14000Y15578D02*
G01X14078Y15500D01*
G01X14078Y15500D02*
G01X14000Y15421D01*
G01X14000Y15421D02*
G01X13921Y15500D01*
G04 draw reference designator for part D4*
G54D10*
G01X11900Y16477D02*
G01X11900Y16000D01*
G01X12059Y16477D02*
G01X11900Y16477D01*
G01X12059Y16477D02*
G01X12127Y16454D01*
G01X12127Y16454D02*
G01X12172Y16409D01*
G01X12172Y16409D02*
G01X12195Y16363D01*
G01X12195Y16363D02*
G01X12218Y16295D01*
G01X12218Y16295D02*
G01X12218Y16181D01*
G01X12218Y16181D02*
G01X12195Y16113D01*
G01X12195Y16113D02*
G01X12172Y16068D01*
G01X12172Y16068D02*
G01X12127Y16022D01*
G01X12127Y16022D02*
G01X12059Y16000D01*
G01X11900Y16000D02*
G01X12059Y16000D01*
G01X12627Y16477D02*
G01X12400Y16159D01*
G01X12740Y16159D02*
G01X12400Y16159D01*
G01X12627Y16477D02*
G01X12627Y16000D01*
G04 Draw part D5*
G04 draw part outline for part D5*
G54D12*
G01X19996Y14496D02*
G01X22003Y14496D01*
G01X22003Y14496D02*
G01X22003Y16287D01*
G01X22003Y16287D02*
G01X21787Y16503D01*
G01X21787Y16503D02*
G01X19996Y16503D01*
G01X19996Y16503D02*
G01X19996Y14496D01*
G01X20921Y15500D02*
G01X21000Y15578D01*
G01X21000Y15578D02*
G01X21078Y15500D01*
G01X21078Y15500D02*
G01X21000Y15421D01*
G01X21000Y15421D02*
G01X20921Y15500D01*
G04 draw reference designator for part D5*
G54D10*
G01X18900Y16477D02*
G01X18900Y16000D01*
G01X19059Y16477D02*
G01X18900Y16477D01*
G01X19059Y16477D02*
G01X19127Y16454D01*
G01X19127Y16454D02*
G01X19172Y16409D01*
G01X19172Y16409D02*
G01X19195Y16363D01*
G01X19195Y16363D02*
G01X19218Y16295D01*
G01X19218Y16295D02*
G01X19218Y16181D01*
G01X19218Y16181D02*
G01X19195Y16113D01*
G01X19195Y16113D02*
G01X19172Y16068D01*
G01X19172Y16068D02*
G01X19127Y16022D01*
G01X19127Y16022D02*
G01X19059Y16000D01*
G01X18900Y16000D02*
G01X19059Y16000D01*
G01X19445Y16477D02*
G01X19672Y16477D01*
G01X19445Y16477D02*
G01X19422Y16272D01*
G01X19445Y16295D02*
G01X19422Y16272D01*
G01X19513Y16318D02*
G01X19445Y16295D01*
G01X19581Y16318D02*
G01X19513Y16318D01*
G01X19581Y16318D02*
G01X19650Y16295D01*
G01X19650Y16295D02*
G01X19695Y16250D01*
G01X19695Y16250D02*
G01X19718Y16181D01*
G01X19718Y16181D02*
G01X19718Y16136D01*
G01X19718Y16136D02*
G01X19695Y16068D01*
G01X19695Y16068D02*
G01X19650Y16022D01*
G01X19650Y16022D02*
G01X19581Y16000D01*
G01X19513Y16000D02*
G01X19581Y16000D01*
G01X19445Y16022D02*
G01X19513Y16000D01*
G01X19422Y16045D02*
G01X19445Y16022D01*
G01X19400Y16090D02*
G01X19422Y16045D01*
G04 Draw part D6*
G04 draw part outline for part D6*
G54D12*
G01X26996Y14496D02*
G01X29003Y14496D01*
G01X29003Y14496D02*
G01X29003Y16287D01*
G01X29003Y16287D02*
G01X28787Y16503D01*
G01X28787Y16503D02*
G01X26996Y16503D01*
G01X26996Y16503D02*
G01X26996Y14496D01*
G01X27921Y15500D02*
G01X28000Y15578D01*
G01X28000Y15578D02*
G01X28078Y15500D01*
G01X28078Y15500D02*
G01X28000Y15421D01*
G01X28000Y15421D02*
G01X27921Y15500D01*
G04 draw reference designator for part D6*
G54D10*
G01X26000Y16477D02*
G01X26000Y16000D01*
G01X26159Y16477D02*
G01X26000Y16477D01*
G01X26159Y16477D02*
G01X26227Y16454D01*
G01X26227Y16454D02*
G01X26272Y16409D01*
G01X26272Y16409D02*
G01X26295Y16363D01*
G01X26295Y16363D02*
G01X26318Y16295D01*
G01X26318Y16295D02*
G01X26318Y16181D01*
G01X26318Y16181D02*
G01X26295Y16113D01*
G01X26295Y16113D02*
G01X26272Y16068D01*
G01X26272Y16068D02*
G01X26227Y16022D01*
G01X26227Y16022D02*
G01X26159Y16000D01*
G01X26000Y16000D02*
G01X26159Y16000D01*
G01X26750Y16454D02*
G01X26772Y16409D01*
G01X26681Y16477D02*
G01X26750Y16454D01*
G01X26636Y16477D02*
G01X26681Y16477D01*
G01X26636Y16477D02*
G01X26568Y16454D01*
G01X26568Y16454D02*
G01X26522Y16386D01*
G01X26522Y16386D02*
G01X26500Y16272D01*
G01X26500Y16272D02*
G01X26500Y16159D01*
G01X26500Y16159D02*
G01X26522Y16068D01*
G01X26522Y16068D02*
G01X26568Y16022D01*
G01X26568Y16022D02*
G01X26636Y16000D01*
G01X26659Y16000D02*
G01X26636Y16000D01*
G01X26727Y16022D02*
G01X26659Y16000D01*
G01X26772Y16068D02*
G01X26727Y16022D01*
G01X26795Y16136D02*
G01X26772Y16068D01*
G01X26795Y16159D02*
G01X26795Y16136D01*
G01X26772Y16227D02*
G01X26795Y16159D01*
G01X26727Y16272D02*
G01X26772Y16227D01*
G01X26659Y16295D02*
G01X26727Y16272D01*
G01X26636Y16295D02*
G01X26659Y16295D01*
G01X26636Y16295D02*
G01X26568Y16272D01*
G01X26568Y16272D02*
G01X26522Y16227D01*
G01X26522Y16227D02*
G01X26500Y16159D01*
G04 Draw part D7*
G04 draw part outline for part D7*
G54D12*
G01X33996Y14496D02*
G01X36003Y14496D01*
G01X36003Y14496D02*
G01X36003Y16287D01*
G01X36003Y16287D02*
G01X35787Y16503D01*
G01X35787Y16503D02*
G01X33996Y16503D01*
G01X33996Y16503D02*
G01X33996Y14496D01*
G01X34921Y15500D02*
G01X35000Y15578D01*
G01X35000Y15578D02*
G01X35078Y15500D01*
G01X35078Y15500D02*
G01X35000Y15421D01*
G01X35000Y15421D02*
G01X34921Y15500D01*
G04 draw reference designator for part D7*
G54D10*
G01X32900Y16477D02*
G01X32900Y16000D01*
G01X33059Y16477D02*
G01X32900Y16477D01*
G01X33059Y16477D02*
G01X33127Y16454D01*
G01X33127Y16454D02*
G01X33172Y16409D01*
G01X33172Y16409D02*
G01X33195Y16363D01*
G01X33195Y16363D02*
G01X33218Y16295D01*
G01X33218Y16295D02*
G01X33218Y16181D01*
G01X33218Y16181D02*
G01X33195Y16113D01*
G01X33195Y16113D02*
G01X33172Y16068D01*
G01X33172Y16068D02*
G01X33127Y16022D01*
G01X33127Y16022D02*
G01X33059Y16000D01*
G01X32900Y16000D02*
G01X33059Y16000D01*
G01X33718Y16477D02*
G01X33490Y16000D01*
G01X33718Y16477D02*
G01X33400Y16477D01*
G04 Draw part D8*
G04 draw part outline for part D8*
G54D12*
G01X40996Y14496D02*
G01X43003Y14496D01*
G01X43003Y14496D02*
G01X43003Y16287D01*
G01X43003Y16287D02*
G01X42787Y16503D01*
G01X42787Y16503D02*
G01X40996Y16503D01*
G01X40996Y16503D02*
G01X40996Y14496D01*
G01X41921Y15500D02*
G01X42000Y15578D01*
G01X42000Y15578D02*
G01X42078Y15500D01*
G01X42078Y15500D02*
G01X42000Y15421D01*
G01X42000Y15421D02*
G01X41921Y15500D01*
G04 draw reference designator for part D8*
G54D10*
G01X40000Y16477D02*
G01X40000Y16000D01*
G01X40159Y16477D02*
G01X40000Y16477D01*
G01X40159Y16477D02*
G01X40227Y16454D01*
G01X40227Y16454D02*
G01X40272Y16409D01*
G01X40272Y16409D02*
G01X40295Y16363D01*
G01X40295Y16363D02*
G01X40318Y16295D01*
G01X40318Y16295D02*
G01X40318Y16181D01*
G01X40318Y16181D02*
G01X40295Y16113D01*
G01X40295Y16113D02*
G01X40272Y16068D01*
G01X40272Y16068D02*
G01X40227Y16022D01*
G01X40227Y16022D02*
G01X40159Y16000D01*
G01X40000Y16000D02*
G01X40159Y16000D01*
G01X40613Y16477D02*
G01X40545Y16454D01*
G01X40545Y16454D02*
G01X40522Y16409D01*
G01X40522Y16409D02*
G01X40522Y16363D01*
G01X40522Y16363D02*
G01X40545Y16318D01*
G01X40545Y16318D02*
G01X40590Y16295D01*
G01X40590Y16295D02*
G01X40681Y16272D01*
G01X40681Y16272D02*
G01X40750Y16250D01*
G01X40750Y16250D02*
G01X40795Y16204D01*
G01X40795Y16204D02*
G01X40818Y16159D01*
G01X40818Y16159D02*
G01X40818Y16090D01*
G01X40818Y16090D02*
G01X40795Y16045D01*
G01X40795Y16045D02*
G01X40772Y16022D01*
G01X40772Y16022D02*
G01X40704Y16000D01*
G01X40613Y16000D02*
G01X40704Y16000D01*
G01X40545Y16022D02*
G01X40613Y16000D01*
G01X40522Y16045D02*
G01X40545Y16022D01*
G01X40500Y16090D02*
G01X40522Y16045D01*
G01X40500Y16159D02*
G01X40500Y16090D01*
G01X40522Y16204D02*
G01X40500Y16159D01*
G01X40568Y16250D02*
G01X40522Y16204D01*
G01X40636Y16272D02*
G01X40568Y16250D01*
G01X40727Y16295D02*
G01X40636Y16272D01*
G01X40772Y16318D02*
G01X40727Y16295D01*
G01X40795Y16363D02*
G01X40772Y16318D01*
G01X40795Y16409D02*
G01X40795Y16363D01*
G01X40772Y16454D02*
G01X40795Y16409D01*
G01X40704Y16477D02*
G01X40772Y16454D01*
G01X40613Y16477D02*
G01X40704Y16477D01*
G04 Draw part D9*
G04 draw part outline for part D9*
G54D12*
G01X47996Y14496D02*
G01X50003Y14496D01*
G01X50003Y14496D02*
G01X50003Y16287D01*
G01X50003Y16287D02*
G01X49787Y16503D01*
G01X49787Y16503D02*
G01X47996Y16503D01*
G01X47996Y16503D02*
G01X47996Y14496D01*
G01X48921Y15500D02*
G01X49000Y15578D01*
G01X49000Y15578D02*
G01X49078Y15500D01*
G01X49078Y15500D02*
G01X49000Y15421D01*
G01X49000Y15421D02*
G01X48921Y15500D01*
G04 draw reference designator for part D9*
G54D10*
G01X47000Y16377D02*
G01X47000Y15900D01*
G01X47159Y16377D02*
G01X47000Y16377D01*
G01X47159Y16377D02*
G01X47227Y16354D01*
G01X47227Y16354D02*
G01X47272Y16309D01*
G01X47272Y16309D02*
G01X47295Y16263D01*
G01X47295Y16263D02*
G01X47318Y16195D01*
G01X47318Y16195D02*
G01X47318Y16081D01*
G01X47318Y16081D02*
G01X47295Y16013D01*
G01X47295Y16013D02*
G01X47272Y15968D01*
G01X47272Y15968D02*
G01X47227Y15922D01*
G01X47227Y15922D02*
G01X47159Y15900D01*
G01X47000Y15900D02*
G01X47159Y15900D01*
G01X47795Y16218D02*
G01X47772Y16150D01*
G01X47772Y16150D02*
G01X47727Y16104D01*
G01X47727Y16104D02*
G01X47659Y16081D01*
G01X47636Y16081D02*
G01X47659Y16081D01*
G01X47568Y16104D02*
G01X47636Y16081D01*
G01X47522Y16150D02*
G01X47568Y16104D01*
G01X47500Y16218D02*
G01X47522Y16150D01*
G01X47500Y16240D02*
G01X47500Y16218D01*
G01X47522Y16309D02*
G01X47500Y16240D01*
G01X47568Y16354D02*
G01X47522Y16309D01*
G01X47636Y16377D02*
G01X47568Y16354D01*
G01X47659Y16377D02*
G01X47636Y16377D01*
G01X47659Y16377D02*
G01X47727Y16354D01*
G01X47727Y16354D02*
G01X47772Y16309D01*
G01X47772Y16309D02*
G01X47795Y16218D01*
G01X47795Y16218D02*
G01X47795Y16104D01*
G01X47795Y16104D02*
G01X47772Y15990D01*
G01X47772Y15990D02*
G01X47727Y15922D01*
G01X47727Y15922D02*
G01X47659Y15900D01*
G01X47613Y15900D02*
G01X47659Y15900D01*
G01X47545Y15922D02*
G01X47613Y15900D01*
G01X47522Y15968D02*
G01X47545Y15922D01*
G04 Draw part D10*
G04 draw part outline for part D10*
G54D12*
G01X54996Y14496D02*
G01X57003Y14496D01*
G01X57003Y14496D02*
G01X57003Y16287D01*
G01X57003Y16287D02*
G01X56787Y16503D01*
G01X56787Y16503D02*
G01X54996Y16503D01*
G01X54996Y16503D02*
G01X54996Y14496D01*
G01X55921Y15500D02*
G01X56000Y15578D01*
G01X56000Y15578D02*
G01X56078Y15500D01*
G01X56078Y15500D02*
G01X56000Y15421D01*
G01X56000Y15421D02*
G01X55921Y15500D01*
G04 draw reference designator for part D10*
G54D10*
G01X53700Y16377D02*
G01X53700Y15900D01*
G01X53859Y16377D02*
G01X53700Y16377D01*
G01X53859Y16377D02*
G01X53927Y16354D01*
G01X53927Y16354D02*
G01X53972Y16309D01*
G01X53972Y16309D02*
G01X53995Y16263D01*
G01X53995Y16263D02*
G01X54018Y16195D01*
G01X54018Y16195D02*
G01X54018Y16081D01*
G01X54018Y16081D02*
G01X53995Y16013D01*
G01X53995Y16013D02*
G01X53972Y15968D01*
G01X53972Y15968D02*
G01X53927Y15922D01*
G01X53927Y15922D02*
G01X53859Y15900D01*
G01X53700Y15900D02*
G01X53859Y15900D01*
G01X54245Y16309D02*
G01X54200Y16286D01*
G01X54313Y16377D02*
G01X54245Y16309D01*
G01X54313Y16377D02*
G01X54313Y15900D01*
G01X54631Y16377D02*
G01X54563Y16354D01*
G01X54563Y16354D02*
G01X54518Y16286D01*
G01X54518Y16286D02*
G01X54495Y16172D01*
G01X54495Y16172D02*
G01X54495Y16104D01*
G01X54495Y16104D02*
G01X54518Y15990D01*
G01X54518Y15990D02*
G01X54563Y15922D01*
G01X54563Y15922D02*
G01X54631Y15900D01*
G01X54677Y15900D02*
G01X54631Y15900D01*
G01X54745Y15922D02*
G01X54677Y15900D01*
G01X54790Y15990D02*
G01X54745Y15922D01*
G01X54813Y16104D02*
G01X54790Y15990D01*
G01X54813Y16172D02*
G01X54813Y16104D01*
G01X54790Y16286D02*
G01X54813Y16172D01*
G01X54745Y16354D02*
G01X54790Y16286D01*
G01X54677Y16377D02*
G01X54745Y16354D01*
G01X54631Y16377D02*
G01X54677Y16377D01*
G04 Draw part U7*
G04 Draw part U8*
G04 Draw part U9*
G04 Draw part D1*
G04 Draw part J1*
G04 Draw part J2*
G04 Draw part J5*
G04 Draw part J3*
G04 Draw part U2*
G04 Draw part X1*
G04 Draw part U6*
G04 draw part outline for part U6*
G54D12*
G01X5507Y38380D02*
G01X31492Y38380D01*
G01X31492Y38380D02*
G01X31492Y26962D01*
G01X31492Y26962D02*
G01X5507Y26962D01*
G01X5507Y26962D02*
G01X5507Y38380D01*
G04 draw reference designator for part U6*
G54D11*
G01X17094Y27794D02*
G01X17094Y27453D01*
G01X17094Y27453D02*
G01X17117Y27385D01*
G01X17117Y27385D02*
G01X17162Y27340D01*
G01X17162Y27340D02*
G01X17230Y27317D01*
G01X17276Y27317D02*
G01X17230Y27317D01*
G01X17344Y27340D02*
G01X17276Y27317D01*
G01X17389Y27385D02*
G01X17344Y27340D01*
G01X17412Y27453D02*
G01X17389Y27385D01*
G01X17412Y27794D02*
G01X17412Y27453D01*
G01X17844Y27771D02*
G01X17867Y27726D01*
G01X17776Y27794D02*
G01X17844Y27771D01*
G01X17730Y27794D02*
G01X17776Y27794D01*
G01X17730Y27794D02*
G01X17662Y27771D01*
G01X17662Y27771D02*
G01X17617Y27703D01*
G01X17617Y27703D02*
G01X17594Y27590D01*
G01X17594Y27590D02*
G01X17594Y27476D01*
G01X17594Y27476D02*
G01X17617Y27385D01*
G01X17617Y27385D02*
G01X17662Y27340D01*
G01X17662Y27340D02*
G01X17730Y27317D01*
G01X17753Y27317D02*
G01X17730Y27317D01*
G01X17821Y27340D02*
G01X17753Y27317D01*
G01X17867Y27385D02*
G01X17821Y27340D01*
G01X17889Y27453D02*
G01X17867Y27385D01*
G01X17889Y27476D02*
G01X17889Y27453D01*
G01X17867Y27544D02*
G01X17889Y27476D01*
G01X17821Y27590D02*
G01X17867Y27544D01*
G01X17753Y27612D02*
G01X17821Y27590D01*
G01X17730Y27612D02*
G01X17753Y27612D01*
G01X17730Y27612D02*
G01X17662Y27590D01*
G01X17662Y27590D02*
G01X17617Y27544D01*
G01X17617Y27544D02*
G01X17594Y27476D01*
G04 Draw part C1*
G04 Draw part V1*
G04 Draw part S9*
G04 draw part outline for part S9*
G01X47488Y2811D02*
G01X47488Y6788D01*
G01X47488Y6788D02*
G01X43511Y6788D01*
G01X43511Y6788D02*
G01X43511Y2811D01*
G01X43511Y2811D02*
G01X47488Y2811D01*
G54D12*
G01X45421Y4800D02*
G01X45500Y4878D01*
G01X45500Y4878D02*
G01X45578Y4800D01*
G01X45578Y4800D02*
G01X45500Y4721D01*
G01X45500Y4721D02*
G01X45421Y4800D01*
G01X45539Y2004D02*
G01X45499Y2004D01*
G01X45460Y2005D01*
G01X45421Y2007D01*
G01X45381Y2009D01*
G01X45342Y2011D01*
G01X45303Y2014D01*
G01X45263Y2018D01*
G01X45224Y2022D01*
G01X45185Y2026D01*
G01X45146Y2032D01*
G01X45107Y2037D01*
G01X45068Y2044D01*
G01X45029Y2050D01*
G01X44991Y2058D01*
G01X44952Y2066D01*
G01X44914Y2074D01*
G01X44875Y2083D01*
G01X44837Y2092D01*
G01X44799Y2103D01*
G01X44761Y2113D01*
G01X44723Y2124D01*
G01X44685Y2136D01*
G01X44648Y2148D01*
G01X44611Y2161D01*
G01X44573Y2174D01*
G01X44537Y2187D01*
G01X44500Y2202D01*
G01X44463Y2216D01*
G01X44427Y2231D01*
G01X44391Y2247D01*
G01X44355Y2263D01*
G01X44319Y2280D01*
G01X44284Y2297D01*
G01X44248Y2315D01*
G01X44213Y2333D01*
G01X44179Y2352D01*
G01X44144Y2371D01*
G01X44110Y2391D01*
G01X44076Y2411D01*
G01X44043Y2431D01*
G01X44009Y2452D01*
G01X43976Y2474D01*
G01X43944Y2496D01*
G01X43911Y2518D01*
G01X43879Y2541D01*
G01X43847Y2564D01*
G01X43816Y2588D01*
G01X43785Y2612D01*
G01X43754Y2637D01*
G01X43724Y2662D01*
G01X43693Y2687D01*
G01X43664Y2713D01*
G01X43634Y2739D01*
G01X43605Y2766D01*
G01X43577Y2793D01*
G01X43548Y2821D01*
G01X43521Y2848D01*
G01X43493Y2877D01*
G01X43466Y2905D01*
G01X43439Y2934D01*
G01X43413Y2964D01*
G01X43387Y2993D01*
G01X43362Y3024D01*
G01X43337Y3054D01*
G01X43312Y3085D01*
G01X43288Y3116D01*
G01X43264Y3147D01*
G01X43241Y3179D01*
G01X43218Y3211D01*
G01X43196Y3244D01*
G01X43174Y3276D01*
G01X43152Y3309D01*
G01X43131Y3343D01*
G01X43111Y3376D01*
G01X43091Y3410D01*
G01X43071Y3444D01*
G01X43052Y3479D01*
G01X43033Y3513D01*
G01X43015Y3548D01*
G01X42997Y3584D01*
G01X42980Y3619D01*
G01X42963Y3655D01*
G01X42947Y3691D01*
G01X42931Y3727D01*
G01X42916Y3763D01*
G01X42902Y3800D01*
G01X42887Y3837D01*
G01X42874Y3873D01*
G01X42861Y3911D01*
G01X42848Y3948D01*
G01X42836Y3985D01*
G01X42824Y4023D01*
G01X42813Y4061D01*
G01X42803Y4099D01*
G01X42792Y4137D01*
G01X42783Y4175D01*
G01X42774Y4214D01*
G01X42766Y4252D01*
G01X42758Y4291D01*
G01X42750Y4329D01*
G01X42744Y4368D01*
G01X42737Y4407D01*
G01X42732Y4446D01*
G01X42726Y4485D01*
G01X42722Y4524D01*
G01X42718Y4563D01*
G01X42714Y4603D01*
G01X42711Y4642D01*
G01X42709Y4681D01*
G01X42707Y4721D01*
G01X42705Y4760D01*
G01X42704Y4799D01*
G01X42704Y4839D01*
G01X42704Y4839D02*
G01X42705Y4878D01*
G01X42705Y4918D01*
G01X42707Y4957D01*
G01X42709Y4996D01*
G01X42711Y5035D01*
G01X42714Y5075D01*
G01X42718Y5114D01*
G01X42722Y5153D01*
G01X42727Y5192D01*
G01X42732Y5231D01*
G01X42738Y5270D01*
G01X42745Y5309D01*
G01X42752Y5348D01*
G01X42759Y5386D01*
G01X42767Y5425D01*
G01X42776Y5463D01*
G01X42785Y5501D01*
G01X42795Y5539D01*
G01X42805Y5577D01*
G01X42816Y5615D01*
G01X42827Y5653D01*
G01X42839Y5690D01*
G01X42852Y5728D01*
G01X42864Y5765D01*
G01X42878Y5802D01*
G01X42892Y5839D01*
G01X42907Y5875D01*
G01X42922Y5912D01*
G01X42937Y5948D01*
G01X42953Y5984D01*
G01X42970Y6019D01*
G01X42987Y6055D01*
G01X43005Y6090D01*
G01X43023Y6125D01*
G01X43041Y6160D01*
G01X43060Y6194D01*
G01X43080Y6228D01*
G01X43100Y6262D01*
G01X43121Y6296D01*
G01X43142Y6329D01*
G01X43163Y6362D01*
G01X43185Y6394D01*
G01X43208Y6427D01*
G01X43231Y6459D01*
G01X43254Y6490D01*
G01X43278Y6522D01*
G01X43302Y6553D01*
G01X43327Y6583D01*
G01X43352Y6614D01*
G01X43377Y6644D01*
G01X43403Y6673D01*
G01X43430Y6702D01*
G01X43457Y6731D01*
G01X43484Y6760D01*
G01X43511Y6788D01*
G01X43539Y6815D01*
G01X43568Y6842D01*
G01X43597Y6869D01*
G01X43626Y6896D01*
G01X43655Y6922D01*
G01X43685Y6947D01*
G01X43716Y6972D01*
G01X43746Y6997D01*
G01X43777Y7021D01*
G01X43809Y7045D01*
G01X43840Y7068D01*
G01X43872Y7091D01*
G01X43905Y7114D01*
G01X43937Y7136D01*
G01X43970Y7157D01*
G01X44003Y7178D01*
G01X44037Y7199D01*
G01X44071Y7219D01*
G01X44105Y7239D01*
G01X44139Y7258D01*
G01X44174Y7276D01*
G01X44209Y7294D01*
G01X44244Y7312D01*
G01X44280Y7329D01*
G01X44315Y7346D01*
G01X44351Y7362D01*
G01X44387Y7377D01*
G01X44424Y7392D01*
G01X44460Y7407D01*
G01X44497Y7421D01*
G01X44534Y7435D01*
G01X44571Y7447D01*
G01X44609Y7460D01*
G01X44646Y7472D01*
G01X44684Y7483D01*
G01X44722Y7494D01*
G01X44760Y7504D01*
G01X44798Y7514D01*
G01X44836Y7523D01*
G01X44874Y7532D01*
G01X44913Y7540D01*
G01X44951Y7547D01*
G01X44990Y7554D01*
G01X45029Y7561D01*
G01X45068Y7567D01*
G01X45107Y7572D01*
G01X45146Y7577D01*
G01X45185Y7581D01*
G01X45224Y7585D01*
G01X45264Y7588D01*
G01X45303Y7590D01*
G01X45342Y7592D01*
G01X45381Y7594D01*
G01X45421Y7594D01*
G01X45460Y7595D01*
G01X45460Y7595D02*
G01X45500Y7595D01*
G01X45539Y7594D01*
G01X45578Y7592D01*
G01X45618Y7590D01*
G01X45657Y7588D01*
G01X45696Y7585D01*
G01X45736Y7581D01*
G01X45775Y7577D01*
G01X45814Y7573D01*
G01X45853Y7567D01*
G01X45892Y7562D01*
G01X45931Y7555D01*
G01X45970Y7549D01*
G01X46008Y7541D01*
G01X46047Y7533D01*
G01X46085Y7525D01*
G01X46124Y7516D01*
G01X46162Y7507D01*
G01X46200Y7496D01*
G01X46238Y7486D01*
G01X46276Y7475D01*
G01X46314Y7463D01*
G01X46351Y7451D01*
G01X46388Y7438D01*
G01X46426Y7425D01*
G01X46462Y7412D01*
G01X46499Y7397D01*
G01X46536Y7383D01*
G01X46572Y7368D01*
G01X46608Y7352D01*
G01X46644Y7336D01*
G01X46680Y7319D01*
G01X46715Y7302D01*
G01X46751Y7284D01*
G01X46786Y7266D01*
G01X46820Y7247D01*
G01X46855Y7228D01*
G01X46889Y7208D01*
G01X46923Y7188D01*
G01X46956Y7168D01*
G01X46990Y7147D01*
G01X47023Y7125D01*
G01X47055Y7103D01*
G01X47088Y7081D01*
G01X47120Y7058D01*
G01X47152Y7035D01*
G01X47183Y7011D01*
G01X47214Y6987D01*
G01X47245Y6962D01*
G01X47275Y6937D01*
G01X47306Y6912D01*
G01X47335Y6886D01*
G01X47365Y6860D01*
G01X47394Y6833D01*
G01X47422Y6806D01*
G01X47451Y6778D01*
G01X47478Y6751D01*
G01X47506Y6722D01*
G01X47533Y6694D01*
G01X47560Y6665D01*
G01X47586Y6635D01*
G01X47612Y6606D01*
G01X47637Y6575D01*
G01X47662Y6545D01*
G01X47687Y6514D01*
G01X47711Y6483D01*
G01X47735Y6452D01*
G01X47758Y6420D01*
G01X47781Y6388D01*
G01X47803Y6355D01*
G01X47825Y6323D01*
G01X47847Y6290D01*
G01X47868Y6256D01*
G01X47888Y6223D01*
G01X47908Y6189D01*
G01X47928Y6155D01*
G01X47947Y6120D01*
G01X47966Y6086D01*
G01X47984Y6051D01*
G01X48002Y6015D01*
G01X48019Y5980D01*
G01X48036Y5944D01*
G01X48052Y5908D01*
G01X48068Y5872D01*
G01X48083Y5836D01*
G01X48097Y5799D01*
G01X48112Y5762D01*
G01X48125Y5726D01*
G01X48138Y5688D01*
G01X48151Y5651D01*
G01X48163Y5614D01*
G01X48175Y5576D01*
G01X48186Y5538D01*
G01X48196Y5500D01*
G01X48207Y5462D01*
G01X48216Y5424D01*
G01X48225Y5385D01*
G01X48233Y5347D01*
G01X48241Y5308D01*
G01X48249Y5270D01*
G01X48255Y5231D01*
G01X48262Y5192D01*
G01X48267Y5153D01*
G01X48273Y5114D01*
G01X48277Y5075D01*
G01X48281Y5036D01*
G01X48285Y4996D01*
G01X48288Y4957D01*
G01X48290Y4918D01*
G01X48292Y4878D01*
G01X48294Y4839D01*
G01X48295Y4800D01*
G01X48295Y4760D01*
G01X48295Y4760D02*
G01X48294Y4721D01*
G01X48294Y4681D01*
G01X48292Y4642D01*
G01X48290Y4603D01*
G01X48288Y4564D01*
G01X48285Y4524D01*
G01X48281Y4485D01*
G01X48277Y4446D01*
G01X48272Y4407D01*
G01X48267Y4368D01*
G01X48261Y4329D01*
G01X48254Y4290D01*
G01X48247Y4251D01*
G01X48240Y4213D01*
G01X48232Y4174D01*
G01X48223Y4136D01*
G01X48214Y4098D01*
G01X48204Y4060D01*
G01X48194Y4022D01*
G01X48183Y3984D01*
G01X48172Y3946D01*
G01X48160Y3909D01*
G01X48147Y3871D01*
G01X48135Y3834D01*
G01X48121Y3797D01*
G01X48107Y3760D01*
G01X48092Y3724D01*
G01X48077Y3687D01*
G01X48062Y3651D01*
G01X48046Y3615D01*
G01X48029Y3580D01*
G01X48012Y3544D01*
G01X47994Y3509D01*
G01X47976Y3474D01*
G01X47958Y3439D01*
G01X47939Y3405D01*
G01X47919Y3371D01*
G01X47899Y3337D01*
G01X47878Y3303D01*
G01X47857Y3270D01*
G01X47836Y3237D01*
G01X47814Y3205D01*
G01X47791Y3172D01*
G01X47768Y3140D01*
G01X47745Y3109D01*
G01X47721Y3077D01*
G01X47697Y3046D01*
G01X47672Y3016D01*
G01X47647Y2985D01*
G01X47622Y2955D01*
G01X47596Y2926D01*
G01X47569Y2897D01*
G01X47542Y2868D01*
G01X47515Y2839D01*
G01X47488Y2811D01*
G01X47460Y2784D01*
G01X47431Y2757D01*
G01X47402Y2730D01*
G01X47373Y2703D01*
G01X47344Y2677D01*
G01X47314Y2652D01*
G01X47283Y2627D01*
G01X47253Y2602D01*
G01X47222Y2578D01*
G01X47190Y2554D01*
G01X47159Y2531D01*
G01X47127Y2508D01*
G01X47094Y2485D01*
G01X47062Y2463D01*
G01X47029Y2442D01*
G01X46996Y2421D01*
G01X46962Y2400D01*
G01X46928Y2380D01*
G01X46894Y2360D01*
G01X46860Y2341D01*
G01X46825Y2323D01*
G01X46790Y2305D01*
G01X46755Y2287D01*
G01X46719Y2270D01*
G01X46684Y2253D01*
G01X46648Y2237D01*
G01X46612Y2222D01*
G01X46575Y2207D01*
G01X46539Y2192D01*
G01X46502Y2178D01*
G01X46465Y2164D01*
G01X46428Y2152D01*
G01X46390Y2139D01*
G01X46353Y2127D01*
G01X46315Y2116D01*
G01X46277Y2105D01*
G01X46239Y2095D01*
G01X46201Y2085D01*
G01X46163Y2076D01*
G01X46125Y2067D01*
G01X46086Y2059D01*
G01X46048Y2052D01*
G01X46009Y2045D01*
G01X45970Y2038D01*
G01X45931Y2032D01*
G01X45892Y2027D01*
G01X45853Y2022D01*
G01X45814Y2018D01*
G01X45775Y2014D01*
G01X45735Y2011D01*
G01X45696Y2009D01*
G01X45657Y2007D01*
G01X45618Y2005D01*
G01X45578Y2005D01*
G01X45539Y2004D01*
G04 draw reference designator for part S9*
G54D10*
G01X45472Y2554D02*
G01X45518Y2509D01*
G01X45404Y2577D02*
G01X45472Y2554D01*
G01X45313Y2577D02*
G01X45404Y2577D01*
G01X45313Y2577D02*
G01X45245Y2554D01*
G01X45245Y2554D02*
G01X45200Y2509D01*
G01X45200Y2509D02*
G01X45200Y2463D01*
G01X45200Y2463D02*
G01X45222Y2418D01*
G01X45222Y2418D02*
G01X45245Y2395D01*
G01X45245Y2395D02*
G01X45290Y2372D01*
G01X45290Y2372D02*
G01X45427Y2327D01*
G01X45427Y2327D02*
G01X45472Y2304D01*
G01X45472Y2304D02*
G01X45495Y2281D01*
G01X45495Y2281D02*
G01X45518Y2236D01*
G01X45518Y2236D02*
G01X45518Y2168D01*
G01X45518Y2168D02*
G01X45472Y2122D01*
G01X45472Y2122D02*
G01X45404Y2100D01*
G01X45313Y2100D02*
G01X45404Y2100D01*
G01X45245Y2122D02*
G01X45313Y2100D01*
G01X45200Y2168D02*
G01X45245Y2122D01*
G01X45995Y2418D02*
G01X45972Y2350D01*
G01X45972Y2350D02*
G01X45927Y2304D01*
G01X45927Y2304D02*
G01X45859Y2281D01*
G01X45836Y2281D02*
G01X45859Y2281D01*
G01X45768Y2304D02*
G01X45836Y2281D01*
G01X45722Y2350D02*
G01X45768Y2304D01*
G01X45700Y2418D02*
G01X45722Y2350D01*
G01X45700Y2440D02*
G01X45700Y2418D01*
G01X45722Y2509D02*
G01X45700Y2440D01*
G01X45768Y2554D02*
G01X45722Y2509D01*
G01X45836Y2577D02*
G01X45768Y2554D01*
G01X45859Y2577D02*
G01X45836Y2577D01*
G01X45859Y2577D02*
G01X45927Y2554D01*
G01X45927Y2554D02*
G01X45972Y2509D01*
G01X45972Y2509D02*
G01X45995Y2418D01*
G01X45995Y2418D02*
G01X45995Y2304D01*
G01X45995Y2304D02*
G01X45972Y2190D01*
G01X45972Y2190D02*
G01X45927Y2122D01*
G01X45927Y2122D02*
G01X45859Y2100D01*
G01X45813Y2100D02*
G01X45859Y2100D01*
G01X45745Y2122D02*
G01X45813Y2100D01*
G01X45722Y2168D02*
G01X45745Y2122D01*
G04 Draw part C10*
G04 draw part outline for part Encl*
G04 draw part outline for part K1*
G04 draw part outline for part J6*
G04 draw part outline for part J7*
G04 draw part outline for part J4*
G04 draw part outline for part J8*
G04 draw part outline for part S10*
G04 draw part outline for part spacer1*
G04 draw part outline for part spacer2*
G04 draw part outline for part spacer3*
G04 draw part outline for part spacer4*
G04 draw part outline for part A1*
G04 draw part outline for part LP1*
G04 draw part outline for part LP2*
G04 draw part outline for part LP3*
G04 draw part outline for part LP4*
G04 draw part outline for part LP5*
G04 draw part outline for part LP6*
G04 draw part outline for part LP7*
G04 draw part outline for part LP8*
G04 draw part outline for part SE1*
G04 draw part outline for part cap1*
G04 draw part outline for part cap2*
G04 draw part outline for part J9*
G04 draw part outline for part cap6*
G04 draw part outline for part cap7*
G04 draw part outline for part cap3*
G04 draw part outline for part cap4*
G04 draw part outline for part cap8*
G04 draw part outline for part cap9*
G04 draw part outline for part cap5*
G04 draw part outline for part SE2*
G04 draw part outline for part SE3*
G04 draw part outline for part SE4*
G04 draw part outline for part SE5*
G04 draw part outline for part SE6*
G04 draw part outline for part SE7*
G04 draw part outline for part SE8*
G04 draw part outline for part SE9*

G04 Draw traces*

G04 Draw Text*
G54D12*
G01X5200Y6836D02*
G01X5200Y6200D01*
G01X5200Y6654D02*
G01X5336Y6790D01*
G01X5336Y6790D02*
G01X5427Y6836D01*
G01X5427Y6836D02*
G01X5563Y6836D01*
G01X5563Y6836D02*
G01X5654Y6790D01*
G01X5654Y6790D02*
G01X5700Y6654D01*
G01X5700Y6654D02*
G01X5700Y6200D01*
G01X5700Y6654D02*
G01X5836Y6790D01*
G01X5836Y6790D02*
G01X5927Y6836D01*
G01X5927Y6836D02*
G01X6063Y6836D01*
G01X6063Y6836D02*
G01X6154Y6790D01*
G01X6154Y6790D02*
G01X6200Y6654D01*
G01X6200Y6654D02*
G01X6200Y6200D01*
G01X6563Y7154D02*
G01X6563Y6200D01*
G01X6563Y6200D02*
G01X7109Y6200D01*
G01X8018Y6836D02*
G01X8018Y6200D01*
G01X8018Y6700D02*
G01X7927Y6790D01*
G01X7927Y6790D02*
G01X7836Y6836D01*
G01X7836Y6836D02*
G01X7699Y6836D01*
G01X7699Y6836D02*
G01X7609Y6790D01*
G01X7609Y6790D02*
G01X7518Y6700D01*
G01X7518Y6700D02*
G01X7472Y6563D01*
G01X7472Y6563D02*
G01X7472Y6472D01*
G01X7472Y6472D02*
G01X7518Y6336D01*
G01X7518Y6336D02*
G01X7609Y6245D01*
G01X7609Y6245D02*
G01X7699Y6200D01*
G01X7699Y6200D02*
G01X7836Y6200D01*
G01X7836Y6200D02*
G01X7927Y6245D01*
G01X7927Y6245D02*
G01X8018Y6336D01*
G01X8381Y6836D02*
G01X8381Y6381D01*
G01X8381Y6381D02*
G01X8427Y6245D01*
G01X8427Y6245D02*
G01X8518Y6200D01*
G01X8518Y6200D02*
G01X8654Y6200D01*
G01X8654Y6200D02*
G01X8745Y6245D01*
G01X8745Y6245D02*
G01X8881Y6381D01*
G01X8881Y6836D02*
G01X8881Y6200D01*
G01X9245Y6836D02*
G01X9245Y6200D01*
G01X9245Y6654D02*
G01X9381Y6790D01*
G01X9381Y6790D02*
G01X9472Y6836D01*
G01X9472Y6836D02*
G01X9609Y6836D01*
G01X9609Y6836D02*
G01X9699Y6790D01*
G01X9699Y6790D02*
G01X9745Y6654D01*
G01X9745Y6654D02*
G01X9745Y6200D01*
G01X10654Y6700D02*
G01X10563Y6790D01*
G01X10563Y6790D02*
G01X10472Y6836D01*
G01X10472Y6836D02*
G01X10336Y6836D01*
G01X10336Y6836D02*
G01X10245Y6790D01*
G01X10245Y6790D02*
G01X10154Y6700D01*
G01X10154Y6700D02*
G01X10109Y6563D01*
G01X10109Y6563D02*
G01X10109Y6472D01*
G01X10109Y6472D02*
G01X10154Y6336D01*
G01X10154Y6336D02*
G01X10245Y6245D01*
G01X10245Y6245D02*
G01X10336Y6200D01*
G01X10336Y6200D02*
G01X10472Y6200D01*
G01X10472Y6200D02*
G01X10563Y6245D01*
G01X10563Y6245D02*
G01X10654Y6336D01*
G01X11018Y7154D02*
G01X11018Y6200D01*
G01X11018Y6654D02*
G01X11154Y6790D01*
G01X11154Y6790D02*
G01X11245Y6836D01*
G01X11245Y6836D02*
G01X11381Y6836D01*
G01X11381Y6836D02*
G01X11472Y6790D01*
G01X11472Y6790D02*
G01X11518Y6654D01*
G01X11518Y6654D02*
G01X11518Y6200D01*
G01X12699Y7154D02*
G01X13199Y7154D01*
G01X13199Y7154D02*
G01X12927Y6790D01*
G01X12927Y6790D02*
G01X13063Y6790D01*
G01X13063Y6790D02*
G01X13154Y6745D01*
G01X13154Y6745D02*
G01X13199Y6700D01*
G01X13199Y6700D02*
G01X13245Y6563D01*
G01X13245Y6563D02*
G01X13245Y6472D01*
G01X13245Y6472D02*
G01X13199Y6336D01*
G01X13199Y6336D02*
G01X13109Y6245D01*
G01X13109Y6245D02*
G01X12972Y6200D01*
G01X12972Y6200D02*
G01X12836Y6200D01*
G01X12836Y6200D02*
G01X12699Y6245D01*
G01X12699Y6245D02*
G01X12654Y6290D01*
G01X12654Y6290D02*
G01X12609Y6381D01*
G01X13654Y6290D02*
G01X13609Y6245D01*
G01X13609Y6245D02*
G01X13654Y6200D01*
G01X13654Y6200D02*
G01X13699Y6245D01*
G01X13699Y6245D02*
G01X13654Y6290D01*
G01X14336Y7154D02*
G01X14199Y7109D01*
G01X14199Y7109D02*
G01X14109Y6972D01*
G01X14109Y6972D02*
G01X14063Y6745D01*
G01X14063Y6745D02*
G01X14063Y6609D01*
G01X14063Y6609D02*
G01X14109Y6381D01*
G01X14109Y6381D02*
G01X14199Y6245D01*
G01X14199Y6245D02*
G01X14336Y6200D01*
G01X14336Y6200D02*
G01X14427Y6200D01*
G01X14427Y6200D02*
G01X14563Y6245D01*
G01X14563Y6245D02*
G01X14654Y6381D01*
G01X14654Y6381D02*
G01X14699Y6609D01*
G01X14699Y6609D02*
G01X14699Y6745D01*
G01X14699Y6745D02*
G01X14654Y6972D01*
G01X14654Y6972D02*
G01X14563Y7109D01*
G01X14563Y7109D02*
G01X14427Y7154D01*
G01X14427Y7154D02*
G01X14336Y7154D01*
G01X16472Y6927D02*
G01X16427Y7018D01*
G01X16427Y7018D02*
G01X16336Y7109D01*
G01X16336Y7109D02*
G01X16245Y7154D01*
G01X16245Y7154D02*
G01X16063Y7154D01*
G01X16063Y7154D02*
G01X15972Y7109D01*
G01X15972Y7109D02*
G01X15881Y7018D01*
G01X15881Y7018D02*
G01X15836Y6927D01*
G01X15836Y6927D02*
G01X15790Y6790D01*
G01X15790Y6790D02*
G01X15790Y6563D01*
G01X15790Y6563D02*
G01X15836Y6427D01*
G01X15836Y6427D02*
G01X15881Y6336D01*
G01X15881Y6336D02*
G01X15972Y6245D01*
G01X15972Y6245D02*
G01X16063Y6200D01*
G01X16063Y6200D02*
G01X16245Y6200D01*
G01X16245Y6200D02*
G01X16336Y6245D01*
G01X16336Y6245D02*
G01X16427Y6336D01*
G01X16427Y6336D02*
G01X16472Y6427D01*
G01X17063Y6836D02*
G01X16972Y6790D01*
G01X16972Y6790D02*
G01X16881Y6700D01*
G01X16881Y6700D02*
G01X16836Y6563D01*
G01X16836Y6563D02*
G01X16836Y6472D01*
G01X16836Y6472D02*
G01X16881Y6336D01*
G01X16881Y6336D02*
G01X16972Y6245D01*
G01X16972Y6245D02*
G01X17063Y6200D01*
G01X17063Y6200D02*
G01X17199Y6200D01*
G01X17199Y6200D02*
G01X17290Y6245D01*
G01X17290Y6245D02*
G01X17381Y6336D01*
G01X17381Y6336D02*
G01X17427Y6472D01*
G01X17427Y6472D02*
G01X17427Y6563D01*
G01X17427Y6563D02*
G01X17381Y6700D01*
G01X17381Y6700D02*
G01X17290Y6790D01*
G01X17290Y6790D02*
G01X17199Y6836D01*
G01X17199Y6836D02*
G01X17063Y6836D01*
G01X17790Y6836D02*
G01X17790Y6200D01*
G01X17790Y6654D02*
G01X17927Y6790D01*
G01X17927Y6790D02*
G01X18018Y6836D01*
G01X18018Y6836D02*
G01X18154Y6836D01*
G01X18154Y6836D02*
G01X18245Y6790D01*
G01X18245Y6790D02*
G01X18290Y6654D01*
G01X18290Y6654D02*
G01X18290Y6200D01*
G01X18790Y7154D02*
G01X18790Y6381D01*
G01X18790Y6381D02*
G01X18836Y6245D01*
G01X18836Y6245D02*
G01X18927Y6200D01*
G01X18927Y6200D02*
G01X19018Y6200D01*
G01X18654Y6836D02*
G01X18972Y6836D01*
G01X19381Y6836D02*
G01X19381Y6200D01*
G01X19381Y6563D02*
G01X19427Y6700D01*
G01X19427Y6700D02*
G01X19518Y6790D01*
G01X19518Y6790D02*
G01X19609Y6836D01*
G01X19609Y6836D02*
G01X19745Y6836D01*
G01X20336Y6836D02*
G01X20245Y6790D01*
G01X20245Y6790D02*
G01X20154Y6700D01*
G01X20154Y6700D02*
G01X20109Y6563D01*
G01X20109Y6563D02*
G01X20109Y6472D01*
G01X20109Y6472D02*
G01X20154Y6336D01*
G01X20154Y6336D02*
G01X20245Y6245D01*
G01X20245Y6245D02*
G01X20336Y6200D01*
G01X20336Y6200D02*
G01X20472Y6200D01*
G01X20472Y6200D02*
G01X20563Y6245D01*
G01X20563Y6245D02*
G01X20654Y6336D01*
G01X20654Y6336D02*
G01X20699Y6472D01*
G01X20699Y6472D02*
G01X20699Y6563D01*
G01X20699Y6563D02*
G01X20654Y6700D01*
G01X20654Y6700D02*
G01X20563Y6790D01*
G01X20563Y6790D02*
G01X20472Y6836D01*
G01X20472Y6836D02*
G01X20336Y6836D01*
G01X21063Y7154D02*
G01X21063Y6200D01*
G01X21427Y7154D02*
G01X21427Y6200D01*
G01X21790Y6563D02*
G01X22336Y6563D01*
G01X22336Y6563D02*
G01X22336Y6654D01*
G01X22336Y6654D02*
G01X22290Y6745D01*
G01X22290Y6745D02*
G01X22245Y6790D01*
G01X22245Y6790D02*
G01X22154Y6836D01*
G01X22154Y6836D02*
G01X22018Y6836D01*
G01X22018Y6836D02*
G01X21927Y6790D01*
G01X21927Y6790D02*
G01X21836Y6700D01*
G01X21836Y6700D02*
G01X21790Y6563D01*
G01X21790Y6563D02*
G01X21790Y6472D01*
G01X21790Y6472D02*
G01X21836Y6336D01*
G01X21836Y6336D02*
G01X21927Y6245D01*
G01X21927Y6245D02*
G01X22018Y6200D01*
G01X22018Y6200D02*
G01X22154Y6200D01*
G01X22154Y6200D02*
G01X22245Y6245D01*
G01X22245Y6245D02*
G01X22336Y6336D01*
G01X22700Y6836D02*
G01X22700Y6200D01*
G01X22700Y6563D02*
G01X22745Y6700D01*
G01X22745Y6700D02*
G01X22836Y6790D01*
G01X22836Y6790D02*
G01X22927Y6836D01*
G01X22927Y6836D02*
G01X23063Y6836D01*
G01X24154Y6836D02*
G01X24154Y6200D01*
G01X24154Y6563D02*
G01X24199Y6700D01*
G01X24199Y6700D02*
G01X24290Y6790D01*
G01X24290Y6790D02*
G01X24381Y6836D01*
G01X24381Y6836D02*
G01X24518Y6836D01*
G01X25427Y7154D02*
G01X24972Y7154D01*
G01X24972Y7154D02*
G01X24927Y6745D01*
G01X24927Y6745D02*
G01X24972Y6790D01*
G01X24972Y6790D02*
G01X25109Y6836D01*
G01X25109Y6836D02*
G01X25245Y6836D01*
G01X25245Y6836D02*
G01X25381Y6790D01*
G01X25381Y6790D02*
G01X25472Y6700D01*
G01X25472Y6700D02*
G01X25518Y6563D01*
G01X25518Y6563D02*
G01X25518Y6472D01*
G01X25518Y6472D02*
G01X25472Y6336D01*
G01X25472Y6336D02*
G01X25381Y6245D01*
G01X25381Y6245D02*
G01X25245Y6200D01*
G01X25245Y6200D02*
G01X25109Y6200D01*
G01X25109Y6200D02*
G01X24972Y6245D01*
G01X24972Y6245D02*
G01X24927Y6290D01*
G01X24927Y6290D02*
G01X24881Y6381D01*
G54D10*
G01X5340Y5563D02*
G01X5318Y5609D01*
G01X5318Y5609D02*
G01X5272Y5654D01*
G01X5272Y5654D02*
G01X5227Y5677D01*
G01X5227Y5677D02*
G01X5136Y5677D01*
G01X5136Y5677D02*
G01X5090Y5654D01*
G01X5090Y5654D02*
G01X5045Y5609D01*
G01X5045Y5609D02*
G01X5022Y5563D01*
G01X5022Y5563D02*
G01X5000Y5495D01*
G01X5000Y5495D02*
G01X5000Y5381D01*
G01X5000Y5381D02*
G01X5022Y5313D01*
G01X5022Y5313D02*
G01X5045Y5268D01*
G01X5045Y5268D02*
G01X5090Y5222D01*
G01X5090Y5222D02*
G01X5136Y5200D01*
G01X5136Y5200D02*
G01X5227Y5200D01*
G01X5227Y5200D02*
G01X5272Y5222D01*
G01X5272Y5222D02*
G01X5318Y5268D01*
G01X5318Y5268D02*
G01X5340Y5313D01*
G01X5636Y5518D02*
G01X5590Y5495D01*
G01X5590Y5495D02*
G01X5545Y5450D01*
G01X5545Y5450D02*
G01X5522Y5381D01*
G01X5522Y5381D02*
G01X5522Y5336D01*
G01X5522Y5336D02*
G01X5545Y5268D01*
G01X5545Y5268D02*
G01X5590Y5222D01*
G01X5590Y5222D02*
G01X5636Y5200D01*
G01X5636Y5200D02*
G01X5704Y5200D01*
G01X5704Y5200D02*
G01X5749Y5222D01*
G01X5749Y5222D02*
G01X5795Y5268D01*
G01X5795Y5268D02*
G01X5818Y5336D01*
G01X5818Y5336D02*
G01X5818Y5381D01*
G01X5818Y5381D02*
G01X5795Y5450D01*
G01X5795Y5450D02*
G01X5749Y5495D01*
G01X5749Y5495D02*
G01X5704Y5518D01*
G01X5704Y5518D02*
G01X5636Y5518D01*
G01X6000Y5518D02*
G01X6000Y5040D01*
G01X6000Y5450D02*
G01X6045Y5495D01*
G01X6045Y5495D02*
G01X6090Y5518D01*
G01X6090Y5518D02*
G01X6159Y5518D01*
G01X6159Y5518D02*
G01X6204Y5495D01*
G01X6204Y5495D02*
G01X6250Y5450D01*
G01X6250Y5450D02*
G01X6272Y5381D01*
G01X6272Y5381D02*
G01X6272Y5336D01*
G01X6272Y5336D02*
G01X6250Y5268D01*
G01X6250Y5268D02*
G01X6204Y5222D01*
G01X6204Y5222D02*
G01X6159Y5200D01*
G01X6159Y5200D02*
G01X6090Y5200D01*
G01X6090Y5200D02*
G01X6045Y5222D01*
G01X6045Y5222D02*
G01X6000Y5268D01*
G01X6477Y5518D02*
G01X6613Y5200D01*
G01X6749Y5518D02*
G01X6613Y5200D01*
G01X6613Y5200D02*
G01X6568Y5109D01*
G01X6568Y5109D02*
G01X6522Y5063D01*
G01X6522Y5063D02*
G01X6477Y5040D01*
G01X6477Y5040D02*
G01X6454Y5040D01*
G01X6931Y5518D02*
G01X6931Y5200D01*
G01X6931Y5381D02*
G01X6954Y5450D01*
G01X6954Y5450D02*
G01X6999Y5495D01*
G01X6999Y5495D02*
G01X7045Y5518D01*
G01X7045Y5518D02*
G01X7113Y5518D01*
G01X7295Y5677D02*
G01X7318Y5654D01*
G01X7318Y5654D02*
G01X7340Y5677D01*
G01X7340Y5677D02*
G01X7318Y5700D01*
G01X7318Y5700D02*
G01X7295Y5677D01*
G01X7318Y5518D02*
G01X7318Y5200D01*
G01X7795Y5518D02*
G01X7795Y5154D01*
G01X7795Y5154D02*
G01X7772Y5086D01*
G01X7772Y5086D02*
G01X7749Y5063D01*
G01X7749Y5063D02*
G01X7704Y5040D01*
G01X7704Y5040D02*
G01X7636Y5040D01*
G01X7636Y5040D02*
G01X7590Y5063D01*
G01X7795Y5450D02*
G01X7749Y5495D01*
G01X7749Y5495D02*
G01X7704Y5518D01*
G01X7704Y5518D02*
G01X7636Y5518D01*
G01X7636Y5518D02*
G01X7590Y5495D01*
G01X7590Y5495D02*
G01X7545Y5450D01*
G01X7545Y5450D02*
G01X7522Y5381D01*
G01X7522Y5381D02*
G01X7522Y5336D01*
G01X7522Y5336D02*
G01X7545Y5268D01*
G01X7545Y5268D02*
G01X7590Y5222D01*
G01X7590Y5222D02*
G01X7636Y5200D01*
G01X7636Y5200D02*
G01X7704Y5200D01*
G01X7704Y5200D02*
G01X7749Y5222D01*
G01X7749Y5222D02*
G01X7795Y5268D01*
G01X7977Y5677D02*
G01X7977Y5200D01*
G01X7977Y5427D02*
G01X8045Y5495D01*
G01X8045Y5495D02*
G01X8090Y5518D01*
G01X8090Y5518D02*
G01X8159Y5518D01*
G01X8159Y5518D02*
G01X8204Y5495D01*
G01X8204Y5495D02*
G01X8227Y5427D01*
G01X8227Y5427D02*
G01X8227Y5200D01*
G01X8477Y5677D02*
G01X8477Y5290D01*
G01X8477Y5290D02*
G01X8499Y5222D01*
G01X8499Y5222D02*
G01X8545Y5200D01*
G01X8545Y5200D02*
G01X8590Y5200D01*
G01X8409Y5518D02*
G01X8568Y5518D01*
G01X9159Y5563D02*
G01X9159Y5586D01*
G01X9159Y5586D02*
G01X9181Y5631D01*
G01X9181Y5631D02*
G01X9204Y5654D01*
G01X9204Y5654D02*
G01X9249Y5677D01*
G01X9249Y5677D02*
G01X9340Y5677D01*
G01X9340Y5677D02*
G01X9386Y5654D01*
G01X9386Y5654D02*
G01X9409Y5631D01*
G01X9409Y5631D02*
G01X9431Y5586D01*
G01X9431Y5586D02*
G01X9431Y5540D01*
G01X9431Y5540D02*
G01X9409Y5495D01*
G01X9409Y5495D02*
G01X9363Y5427D01*
G01X9363Y5427D02*
G01X9136Y5200D01*
G01X9136Y5200D02*
G01X9454Y5200D01*
G01X9772Y5677D02*
G01X9704Y5654D01*
G01X9704Y5654D02*
G01X9659Y5586D01*
G01X9659Y5586D02*
G01X9636Y5472D01*
G01X9636Y5472D02*
G01X9636Y5404D01*
G01X9636Y5404D02*
G01X9659Y5290D01*
G01X9659Y5290D02*
G01X9704Y5222D01*
G01X9704Y5222D02*
G01X9772Y5200D01*
G01X9772Y5200D02*
G01X9818Y5200D01*
G01X9818Y5200D02*
G01X9886Y5222D01*
G01X9886Y5222D02*
G01X9931Y5290D01*
G01X9931Y5290D02*
G01X9954Y5404D01*
G01X9954Y5404D02*
G01X9954Y5472D01*
G01X9954Y5472D02*
G01X9931Y5586D01*
G01X9931Y5586D02*
G01X9886Y5654D01*
G01X9886Y5654D02*
G01X9818Y5677D01*
G01X9818Y5677D02*
G01X9772Y5677D01*
G01X10136Y5586D02*
G01X10181Y5609D01*
G01X10181Y5609D02*
G01X10249Y5677D01*
G01X10249Y5677D02*
G01X10249Y5200D01*
G01X10704Y5609D02*
G01X10681Y5654D01*
G01X10681Y5654D02*
G01X10613Y5677D01*
G01X10613Y5677D02*
G01X10568Y5677D01*
G01X10568Y5677D02*
G01X10499Y5654D01*
G01X10499Y5654D02*
G01X10454Y5586D01*
G01X10454Y5586D02*
G01X10431Y5472D01*
G01X10431Y5472D02*
G01X10431Y5359D01*
G01X10431Y5359D02*
G01X10454Y5268D01*
G01X10454Y5268D02*
G01X10499Y5222D01*
G01X10499Y5222D02*
G01X10568Y5200D01*
G01X10568Y5200D02*
G01X10590Y5200D01*
G01X10590Y5200D02*
G01X10659Y5222D01*
G01X10659Y5222D02*
G01X10704Y5268D01*
G01X10704Y5268D02*
G01X10727Y5336D01*
G01X10727Y5336D02*
G01X10727Y5359D01*
G01X10727Y5359D02*
G01X10704Y5427D01*
G01X10704Y5427D02*
G01X10659Y5472D01*
G01X10659Y5472D02*
G01X10590Y5495D01*
G01X10590Y5495D02*
G01X10568Y5495D01*
G01X10568Y5495D02*
G01X10499Y5472D01*
G01X10499Y5472D02*
G01X10454Y5427D01*
G01X10454Y5427D02*
G01X10431Y5359D01*
G01X11272Y5677D02*
G01X11272Y5200D01*
G01X11272Y5450D02*
G01X11318Y5495D01*
G01X11318Y5495D02*
G01X11363Y5518D01*
G01X11363Y5518D02*
G01X11431Y5518D01*
G01X11431Y5518D02*
G01X11477Y5495D01*
G01X11477Y5495D02*
G01X11522Y5450D01*
G01X11522Y5450D02*
G01X11545Y5381D01*
G01X11545Y5381D02*
G01X11545Y5336D01*
G01X11545Y5336D02*
G01X11522Y5268D01*
G01X11522Y5268D02*
G01X11477Y5222D01*
G01X11477Y5222D02*
G01X11431Y5200D01*
G01X11431Y5200D02*
G01X11363Y5200D01*
G01X11363Y5200D02*
G01X11318Y5222D01*
G01X11318Y5222D02*
G01X11272Y5268D01*
G01X11749Y5518D02*
G01X11886Y5200D01*
G01X12022Y5518D02*
G01X11886Y5200D01*
G01X11886Y5200D02*
G01X11840Y5109D01*
G01X11840Y5109D02*
G01X11795Y5063D01*
G01X11795Y5063D02*
G01X11749Y5040D01*
G01X11749Y5040D02*
G01X11727Y5040D01*
G01X12568Y5677D02*
G01X12681Y5200D01*
G01X12795Y5677D02*
G01X12681Y5200D01*
G01X12795Y5677D02*
G01X12909Y5200D01*
G01X13022Y5677D02*
G01X12909Y5200D01*
G01X13477Y5518D02*
G01X13477Y5200D01*
G01X13477Y5450D02*
G01X13431Y5495D01*
G01X13431Y5495D02*
G01X13386Y5518D01*
G01X13386Y5518D02*
G01X13318Y5518D01*
G01X13318Y5518D02*
G01X13272Y5495D01*
G01X13272Y5495D02*
G01X13227Y5450D01*
G01X13227Y5450D02*
G01X13204Y5381D01*
G01X13204Y5381D02*
G01X13204Y5336D01*
G01X13204Y5336D02*
G01X13227Y5268D01*
G01X13227Y5268D02*
G01X13272Y5222D01*
G01X13272Y5222D02*
G01X13318Y5200D01*
G01X13318Y5200D02*
G01X13386Y5200D01*
G01X13386Y5200D02*
G01X13431Y5222D01*
G01X13431Y5222D02*
G01X13477Y5268D01*
G01X13681Y5518D02*
G01X13818Y5200D01*
G01X13954Y5518D02*
G01X13818Y5200D01*
G01X13818Y5200D02*
G01X13772Y5109D01*
G01X13772Y5109D02*
G01X13727Y5063D01*
G01X13727Y5063D02*
G01X13681Y5040D01*
G01X13681Y5040D02*
G01X13659Y5040D01*
G01X14136Y5518D02*
G01X14136Y5200D01*
G01X14136Y5427D02*
G01X14204Y5495D01*
G01X14204Y5495D02*
G01X14249Y5518D01*
G01X14249Y5518D02*
G01X14318Y5518D01*
G01X14318Y5518D02*
G01X14363Y5495D01*
G01X14363Y5495D02*
G01X14386Y5427D01*
G01X14386Y5427D02*
G01X14386Y5200D01*
G01X14568Y5381D02*
G01X14840Y5381D01*
G01X14840Y5381D02*
G01X14840Y5427D01*
G01X14840Y5427D02*
G01X14818Y5472D01*
G01X14818Y5472D02*
G01X14795Y5495D01*
G01X14795Y5495D02*
G01X14749Y5518D01*
G01X14749Y5518D02*
G01X14681Y5518D01*
G01X14681Y5518D02*
G01X14636Y5495D01*
G01X14636Y5495D02*
G01X14590Y5450D01*
G01X14590Y5450D02*
G01X14568Y5381D01*
G01X14568Y5381D02*
G01X14568Y5336D01*
G01X14568Y5336D02*
G01X14590Y5268D01*
G01X14590Y5268D02*
G01X14636Y5222D01*
G01X14636Y5222D02*
G01X14681Y5200D01*
G01X14681Y5200D02*
G01X14749Y5200D01*
G01X14749Y5200D02*
G01X14795Y5222D01*
G01X14795Y5222D02*
G01X14840Y5268D01*
G01X15613Y5677D02*
G01X15613Y5313D01*
G01X15613Y5313D02*
G01X15590Y5245D01*
G01X15590Y5245D02*
G01X15568Y5222D01*
G01X15568Y5222D02*
G01X15522Y5200D01*
G01X15522Y5200D02*
G01X15477Y5200D01*
G01X15477Y5200D02*
G01X15431Y5222D01*
G01X15431Y5222D02*
G01X15409Y5245D01*
G01X15409Y5245D02*
G01X15386Y5313D01*
G01X15386Y5313D02*
G01X15386Y5359D01*
G01X15909Y5518D02*
G01X15863Y5495D01*
G01X15863Y5495D02*
G01X15818Y5450D01*
G01X15818Y5450D02*
G01X15795Y5381D01*
G01X15795Y5381D02*
G01X15795Y5336D01*
G01X15795Y5336D02*
G01X15818Y5268D01*
G01X15818Y5268D02*
G01X15863Y5222D01*
G01X15863Y5222D02*
G01X15909Y5200D01*
G01X15909Y5200D02*
G01X15977Y5200D01*
G01X15977Y5200D02*
G01X16022Y5222D01*
G01X16022Y5222D02*
G01X16068Y5268D01*
G01X16068Y5268D02*
G01X16090Y5336D01*
G01X16090Y5336D02*
G01X16090Y5381D01*
G01X16090Y5381D02*
G01X16068Y5450D01*
G01X16068Y5450D02*
G01X16022Y5495D01*
G01X16022Y5495D02*
G01X15977Y5518D01*
G01X15977Y5518D02*
G01X15909Y5518D01*
G01X16272Y5677D02*
G01X16272Y5200D01*
G01X16272Y5427D02*
G01X16340Y5495D01*
G01X16340Y5495D02*
G01X16386Y5518D01*
G01X16386Y5518D02*
G01X16454Y5518D01*
G01X16454Y5518D02*
G01X16499Y5495D01*
G01X16499Y5495D02*
G01X16522Y5427D01*
G01X16522Y5427D02*
G01X16522Y5200D01*
G01X16704Y5518D02*
G01X16704Y5200D01*
G01X16704Y5427D02*
G01X16772Y5495D01*
G01X16772Y5495D02*
G01X16818Y5518D01*
G01X16818Y5518D02*
G01X16886Y5518D01*
G01X16886Y5518D02*
G01X16931Y5495D01*
G01X16931Y5495D02*
G01X16954Y5427D01*
G01X16954Y5427D02*
G01X16954Y5200D01*
G01X17386Y5450D02*
G01X17363Y5495D01*
G01X17363Y5495D02*
G01X17295Y5518D01*
G01X17295Y5518D02*
G01X17227Y5518D01*
G01X17227Y5518D02*
G01X17159Y5495D01*
G01X17159Y5495D02*
G01X17136Y5450D01*
G01X17136Y5450D02*
G01X17159Y5404D01*
G01X17159Y5404D02*
G01X17204Y5381D01*
G01X17204Y5381D02*
G01X17318Y5359D01*
G01X17318Y5359D02*
G01X17363Y5336D01*
G01X17363Y5336D02*
G01X17386Y5290D01*
G01X17386Y5290D02*
G01X17386Y5268D01*
G01X17386Y5268D02*
G01X17363Y5222D01*
G01X17363Y5222D02*
G01X17295Y5200D01*
G01X17295Y5200D02*
G01X17227Y5200D01*
G01X17227Y5200D02*
G01X17159Y5222D01*
G01X17159Y5222D02*
G01X17136Y5268D01*
G01X17681Y5518D02*
G01X17636Y5495D01*
G01X17636Y5495D02*
G01X17590Y5450D01*
G01X17590Y5450D02*
G01X17568Y5381D01*
G01X17568Y5381D02*
G01X17568Y5336D01*
G01X17568Y5336D02*
G01X17590Y5268D01*
G01X17590Y5268D02*
G01X17636Y5222D01*
G01X17636Y5222D02*
G01X17681Y5200D01*
G01X17681Y5200D02*
G01X17749Y5200D01*
G01X17749Y5200D02*
G01X17795Y5222D01*
G01X17795Y5222D02*
G01X17840Y5268D01*
G01X17840Y5268D02*
G01X17863Y5336D01*
G01X17863Y5336D02*
G01X17863Y5381D01*
G01X17863Y5381D02*
G01X17840Y5450D01*
G01X17840Y5450D02*
G01X17795Y5495D01*
G01X17795Y5495D02*
G01X17749Y5518D01*
G01X17749Y5518D02*
G01X17681Y5518D01*
G01X18045Y5518D02*
G01X18045Y5200D01*
G01X18045Y5427D02*
G01X18113Y5495D01*
G01X18113Y5495D02*
G01X18159Y5518D01*
G01X18159Y5518D02*
G01X18227Y5518D01*
G01X18227Y5518D02*
G01X18272Y5495D01*
G01X18272Y5495D02*
G01X18295Y5427D01*
G01X18295Y5427D02*
G01X18295Y5200D01*
M00*
M02*
