G04 FreePCB version 1.359*
G04 C:\Users\waynej\Documents\GitHub\mlaunch\controller30\CAM\top_silk.grb*
G04 top silk layer *
G04 Scale: 100 percent, Rotated: No, Reflected: No *
%FSLAX24Y24*%
%MOIN*%
%LN top silk *%
G04 Rounded Rectangle Macro, params: W/2, H/2, R *
%AMRNDREC*
21,1,$1+$1,$2+$2-$3-$3,0,0,0*
21,1,$1+$1-$3-$3,$2+$2,0,0,0*
1,1,$3+$3,$1-$3,$2-$3*
1,1,$3+$3,$3-$1,$2-$3*
1,1,$3+$3,$1-$3,$3-$2*
1,1,$3+$3,$3-$1,$3-$2*%
G04 Rectangular Thermal Macro, params: W/2, H/2, T/2 *
%AMRECTHERM*
$4=$3/2*
21,1,$1-$3,$2-$3,0-$1/2-$4,0-$2/2-$4,0*
21,1,$1-$3,$2-$3,0-$1/2-$4,$2/2+$4,0*
21,1,$1-$3,$2-$3,$1/2+$4,0-$2/2-$4,0*
21,1,$1-$3,$2-$3,$1/2+$4,$2/2+$4,0*%
%ADD10C,0.005000*%
%ADD11C,0.007000*%
%ADD12C,0.010000*%
G90*
G70D02*

G04 Step and Repeat for panelization *

G04 ----------------------- Draw board outline (positive)*
%LPD*%
G54D10*
G01X3500Y1750D02*
G01X3499Y1789D01*
G01X3498Y1828D01*
G01X3496Y1867D01*
G01X3492Y1906D01*
G01X3488Y1945D01*
G01X3484Y1984D01*
G01X3478Y2023D01*
G01X3471Y2062D01*
G01X3464Y2101D01*
G01X3456Y2139D01*
G01X3446Y2177D01*
G01X3436Y2215D01*
G01X3426Y2253D01*
G01X3414Y2290D01*
G01X3401Y2327D01*
G01X3388Y2364D01*
G01X3374Y2401D01*
G01X3359Y2437D01*
G01X3343Y2473D01*
G01X3326Y2509D01*
G01X3309Y2544D01*
G01X3291Y2579D01*
G01X3272Y2613D01*
G01X3252Y2647D01*
G01X3231Y2681D01*
G01X3210Y2714D01*
G01X3188Y2746D01*
G01X3165Y2778D01*
G01X3142Y2810D01*
G01X3118Y2841D01*
G01X3093Y2871D01*
G01X3067Y2901D01*
G01X3041Y2930D01*
G01X3014Y2959D01*
G01X2987Y2987D01*
G01X2959Y3014D01*
G01X2930Y3041D01*
G01X2901Y3067D01*
G01X2871Y3093D01*
G01X2841Y3118D01*
G01X2810Y3142D01*
G01X2778Y3165D01*
G01X2746Y3188D01*
G01X2714Y3210D01*
G01X2681Y3231D01*
G01X2647Y3252D01*
G01X2613Y3272D01*
G01X2579Y3291D01*
G01X2544Y3309D01*
G01X2509Y3326D01*
G01X2473Y3343D01*
G01X2437Y3359D01*
G01X2401Y3374D01*
G01X2364Y3388D01*
G01X2327Y3401D01*
G01X2290Y3414D01*
G01X2253Y3426D01*
G01X2215Y3436D01*
G01X2177Y3446D01*
G01X2139Y3456D01*
G01X2101Y3464D01*
G01X2062Y3471D01*
G01X2023Y3478D01*
G01X1984Y3484D01*
G01X1945Y3488D01*
G01X1906Y3492D01*
G01X1867Y3496D01*
G01X1828Y3498D01*
G01X1789Y3499D01*
G01X1750Y3500D01*
G04 end of side 1*
G01X0Y3500D01*
G04 end of side 2*
G01X0Y41800D01*
G04 end of side 3*
G01X1750Y41800D01*
G04 end of side 4*
G01X1789Y41800D01*
G01X1828Y41801D01*
G01X1867Y41803D01*
G01X1906Y41807D01*
G01X1945Y41811D01*
G01X1984Y41815D01*
G01X2023Y41821D01*
G01X2062Y41828D01*
G01X2101Y41835D01*
G01X2139Y41843D01*
G01X2177Y41853D01*
G01X2215Y41863D01*
G01X2253Y41873D01*
G01X2290Y41885D01*
G01X2327Y41898D01*
G01X2364Y41911D01*
G01X2401Y41925D01*
G01X2437Y41940D01*
G01X2473Y41956D01*
G01X2509Y41973D01*
G01X2544Y41990D01*
G01X2579Y42008D01*
G01X2613Y42027D01*
G01X2647Y42047D01*
G01X2681Y42068D01*
G01X2714Y42089D01*
G01X2746Y42111D01*
G01X2778Y42134D01*
G01X2810Y42157D01*
G01X2841Y42181D01*
G01X2871Y42206D01*
G01X2901Y42232D01*
G01X2930Y42258D01*
G01X2959Y42285D01*
G01X2987Y42312D01*
G01X3014Y42340D01*
G01X3041Y42369D01*
G01X3067Y42398D01*
G01X3093Y42428D01*
G01X3118Y42458D01*
G01X3142Y42489D01*
G01X3165Y42521D01*
G01X3188Y42553D01*
G01X3210Y42585D01*
G01X3231Y42618D01*
G01X3252Y42652D01*
G01X3272Y42686D01*
G01X3291Y42720D01*
G01X3309Y42755D01*
G01X3326Y42790D01*
G01X3343Y42826D01*
G01X3359Y42862D01*
G01X3374Y42898D01*
G01X3388Y42935D01*
G01X3401Y42972D01*
G01X3414Y43009D01*
G01X3426Y43046D01*
G01X3436Y43084D01*
G01X3446Y43122D01*
G01X3456Y43160D01*
G01X3464Y43198D01*
G01X3471Y43237D01*
G01X3478Y43276D01*
G01X3484Y43315D01*
G01X3488Y43354D01*
G01X3492Y43393D01*
G01X3496Y43432D01*
G01X3498Y43471D01*
G01X3499Y43510D01*
G01X3500Y43550D01*
G04 end of side 5*
G01X3500Y45150D01*
G04 end of side 6*
G01X30000Y45150D01*
G04 end of side 7*
G01X30000Y43550D01*
G04 end of side 8*
G01X30000Y43512D01*
G01X30001Y43475D01*
G01X30004Y43437D01*
G01X30007Y43400D01*
G01X30012Y43362D01*
G01X30017Y43325D01*
G01X30023Y43288D01*
G01X30030Y43251D01*
G01X30038Y43214D01*
G01X30047Y43178D01*
G01X30057Y43141D01*
G01X30068Y43105D01*
G01X30080Y43069D01*
G01X30093Y43034D01*
G01X30107Y42998D01*
G01X30121Y42963D01*
G01X30137Y42929D01*
G01X30153Y42894D01*
G01X30170Y42860D01*
G01X30188Y42826D01*
G01X30207Y42793D01*
G01X30227Y42760D01*
G01X30248Y42728D01*
G01X30269Y42696D01*
G01X30292Y42664D01*
G01X30315Y42633D01*
G01X30339Y42603D01*
G01X30363Y42573D01*
G01X30389Y42544D01*
G01X30415Y42515D01*
G01X30442Y42486D01*
G01X30469Y42459D01*
G01X30498Y42431D01*
G01X30527Y42405D01*
G01X30556Y42379D01*
G01X30587Y42354D01*
G01X30618Y42329D01*
G01X30649Y42305D01*
G01X30681Y42282D01*
G01X30714Y42259D01*
G01X30748Y42238D01*
G01X30782Y42217D01*
G01X30816Y42196D01*
G01X30851Y42177D01*
G01X30886Y42158D01*
G01X30922Y42140D01*
G01X30959Y42122D01*
G01X30995Y42106D01*
G01X31033Y42090D01*
G01X31070Y42075D01*
G01X31108Y42061D01*
G01X31147Y42047D01*
G01X31185Y42035D01*
G01X31224Y42023D01*
G01X31264Y42012D01*
G01X31303Y42002D01*
G01X31343Y41993D01*
G01X31383Y41985D01*
G01X31423Y41978D01*
G01X31464Y41971D01*
G01X31504Y41965D01*
G01X31545Y41960D01*
G01X31586Y41957D01*
G01X31627Y41953D01*
G01X31667Y41951D01*
G01X31708Y41950D01*
G01X31750Y41950D01*
G04 end of side 9*
G01X31791Y41950D01*
G01X31832Y41951D01*
G01X31872Y41953D01*
G01X31913Y41957D01*
G01X31954Y41960D01*
G01X31995Y41965D01*
G01X32035Y41971D01*
G01X32076Y41978D01*
G01X32116Y41985D01*
G01X32156Y41993D01*
G01X32196Y42002D01*
G01X32235Y42012D01*
G01X32275Y42023D01*
G01X32314Y42035D01*
G01X32352Y42047D01*
G01X32391Y42061D01*
G01X32429Y42075D01*
G01X32466Y42090D01*
G01X32504Y42106D01*
G01X32540Y42122D01*
G01X32577Y42140D01*
G01X32613Y42158D01*
G01X32648Y42177D01*
G01X32683Y42196D01*
G01X32717Y42217D01*
G01X32751Y42238D01*
G01X32785Y42259D01*
G01X32818Y42282D01*
G01X32850Y42305D01*
G01X32881Y42329D01*
G01X32912Y42354D01*
G01X32943Y42379D01*
G01X32972Y42405D01*
G01X33001Y42431D01*
G01X33030Y42459D01*
G01X33057Y42486D01*
G01X33084Y42515D01*
G01X33110Y42544D01*
G01X33136Y42573D01*
G01X33160Y42603D01*
G01X33184Y42633D01*
G01X33207Y42664D01*
G01X33230Y42696D01*
G01X33251Y42728D01*
G01X33272Y42760D01*
G01X33292Y42793D01*
G01X33311Y42826D01*
G01X33329Y42860D01*
G01X33346Y42894D01*
G01X33362Y42929D01*
G01X33378Y42963D01*
G01X33392Y42998D01*
G01X33406Y43034D01*
G01X33419Y43069D01*
G01X33431Y43105D01*
G01X33442Y43141D01*
G01X33452Y43178D01*
G01X33461Y43214D01*
G01X33469Y43251D01*
G01X33476Y43288D01*
G01X33482Y43325D01*
G01X33487Y43362D01*
G01X33492Y43400D01*
G01X33495Y43437D01*
G01X33498Y43475D01*
G01X33499Y43512D01*
G01X33500Y43550D01*
G04 end of side 10*
G01X33500Y45150D01*
G04 end of side 11*
G01X60000Y45150D01*
G04 end of side 12*
G01X60000Y43550D01*
G04 end of side 13*
G01X60000Y43510D01*
G01X60001Y43471D01*
G01X60003Y43432D01*
G01X60007Y43393D01*
G01X60011Y43354D01*
G01X60015Y43315D01*
G01X60021Y43276D01*
G01X60028Y43237D01*
G01X60035Y43198D01*
G01X60043Y43160D01*
G01X60053Y43122D01*
G01X60063Y43084D01*
G01X60073Y43046D01*
G01X60085Y43009D01*
G01X60098Y42972D01*
G01X60111Y42935D01*
G01X60125Y42898D01*
G01X60140Y42862D01*
G01X60156Y42826D01*
G01X60173Y42790D01*
G01X60190Y42755D01*
G01X60208Y42720D01*
G01X60227Y42686D01*
G01X60247Y42652D01*
G01X60268Y42618D01*
G01X60289Y42585D01*
G01X60311Y42553D01*
G01X60334Y42521D01*
G01X60357Y42489D01*
G01X60381Y42458D01*
G01X60406Y42428D01*
G01X60432Y42398D01*
G01X60458Y42369D01*
G01X60485Y42340D01*
G01X60512Y42312D01*
G01X60540Y42285D01*
G01X60569Y42258D01*
G01X60598Y42232D01*
G01X60628Y42206D01*
G01X60658Y42181D01*
G01X60689Y42157D01*
G01X60721Y42134D01*
G01X60753Y42111D01*
G01X60785Y42089D01*
G01X60818Y42068D01*
G01X60852Y42047D01*
G01X60886Y42027D01*
G01X60920Y42008D01*
G01X60955Y41990D01*
G01X60990Y41973D01*
G01X61026Y41956D01*
G01X61062Y41940D01*
G01X61098Y41925D01*
G01X61135Y41911D01*
G01X61172Y41898D01*
G01X61209Y41885D01*
G01X61246Y41873D01*
G01X61284Y41863D01*
G01X61322Y41853D01*
G01X61360Y41843D01*
G01X61398Y41835D01*
G01X61437Y41828D01*
G01X61476Y41821D01*
G01X61515Y41815D01*
G01X61554Y41811D01*
G01X61593Y41807D01*
G01X61632Y41803D01*
G01X61671Y41801D01*
G01X61710Y41800D01*
G01X61750Y41800D01*
G04 end of side 14*
G01X63500Y41800D01*
G04 end of side 15*
G01X63500Y3500D01*
G04 end of side 16*
G01X61750Y3500D01*
G04 end of side 17*
G01X61710Y3499D01*
G01X61671Y3498D01*
G01X61632Y3496D01*
G01X61593Y3492D01*
G01X61554Y3488D01*
G01X61515Y3484D01*
G01X61476Y3478D01*
G01X61437Y3471D01*
G01X61398Y3464D01*
G01X61360Y3456D01*
G01X61322Y3446D01*
G01X61284Y3436D01*
G01X61246Y3426D01*
G01X61209Y3414D01*
G01X61172Y3401D01*
G01X61135Y3388D01*
G01X61098Y3374D01*
G01X61062Y3359D01*
G01X61026Y3343D01*
G01X60990Y3326D01*
G01X60955Y3309D01*
G01X60920Y3291D01*
G01X60886Y3272D01*
G01X60852Y3252D01*
G01X60818Y3231D01*
G01X60785Y3210D01*
G01X60753Y3188D01*
G01X60721Y3165D01*
G01X60689Y3142D01*
G01X60658Y3118D01*
G01X60628Y3093D01*
G01X60598Y3067D01*
G01X60569Y3041D01*
G01X60540Y3014D01*
G01X60512Y2987D01*
G01X60485Y2959D01*
G01X60458Y2930D01*
G01X60432Y2901D01*
G01X60406Y2871D01*
G01X60381Y2841D01*
G01X60357Y2810D01*
G01X60334Y2778D01*
G01X60311Y2746D01*
G01X60289Y2714D01*
G01X60268Y2681D01*
G01X60247Y2647D01*
G01X60227Y2613D01*
G01X60208Y2579D01*
G01X60190Y2544D01*
G01X60173Y2509D01*
G01X60156Y2473D01*
G01X60140Y2437D01*
G01X60125Y2401D01*
G01X60111Y2364D01*
G01X60098Y2327D01*
G01X60085Y2290D01*
G01X60073Y2253D01*
G01X60063Y2215D01*
G01X60053Y2177D01*
G01X60043Y2139D01*
G01X60035Y2101D01*
G01X60028Y2062D01*
G01X60021Y2023D01*
G01X60015Y1984D01*
G01X60011Y1945D01*
G01X60007Y1906D01*
G01X60003Y1867D01*
G01X60001Y1828D01*
G01X60000Y1789D01*
G01X60000Y1750D01*
G04 end of side 18*
G01X60000Y0D01*
G04 end of side 19*
G01X33500Y0D01*
G04 end of side 20*
G01X33500Y1750D01*
G04 end of side 21*
G01X33499Y1787D01*
G01X33498Y1824D01*
G01X33495Y1862D01*
G01X33492Y1899D01*
G01X33487Y1937D01*
G01X33482Y1974D01*
G01X33476Y2011D01*
G01X33469Y2048D01*
G01X33461Y2085D01*
G01X33452Y2121D01*
G01X33442Y2158D01*
G01X33431Y2194D01*
G01X33419Y2230D01*
G01X33406Y2265D01*
G01X33392Y2301D01*
G01X33378Y2336D01*
G01X33362Y2370D01*
G01X33346Y2405D01*
G01X33329Y2439D01*
G01X33311Y2473D01*
G01X33292Y2506D01*
G01X33272Y2539D01*
G01X33251Y2571D01*
G01X33230Y2603D01*
G01X33207Y2635D01*
G01X33184Y2666D01*
G01X33160Y2696D01*
G01X33136Y2726D01*
G01X33110Y2755D01*
G01X33084Y2784D01*
G01X33057Y2813D01*
G01X33030Y2840D01*
G01X33001Y2868D01*
G01X32972Y2894D01*
G01X32943Y2920D01*
G01X32912Y2945D01*
G01X32881Y2970D01*
G01X32850Y2994D01*
G01X32818Y3017D01*
G01X32785Y3040D01*
G01X32751Y3061D01*
G01X32717Y3082D01*
G01X32683Y3103D01*
G01X32648Y3122D01*
G01X32613Y3141D01*
G01X32577Y3159D01*
G01X32540Y3177D01*
G01X32504Y3193D01*
G01X32466Y3209D01*
G01X32429Y3224D01*
G01X32391Y3238D01*
G01X32352Y3252D01*
G01X32314Y3264D01*
G01X32275Y3276D01*
G01X32235Y3287D01*
G01X32196Y3297D01*
G01X32156Y3306D01*
G01X32116Y3314D01*
G01X32076Y3321D01*
G01X32035Y3328D01*
G01X31995Y3334D01*
G01X31954Y3339D01*
G01X31913Y3342D01*
G01X31872Y3346D01*
G01X31832Y3348D01*
G01X31791Y3349D01*
G01X31750Y3350D01*
G04 end of side 22*
G01X31708Y3349D01*
G01X31667Y3348D01*
G01X31627Y3346D01*
G01X31586Y3342D01*
G01X31545Y3339D01*
G01X31504Y3334D01*
G01X31464Y3328D01*
G01X31423Y3321D01*
G01X31383Y3314D01*
G01X31343Y3306D01*
G01X31303Y3297D01*
G01X31264Y3287D01*
G01X31224Y3276D01*
G01X31185Y3264D01*
G01X31147Y3252D01*
G01X31108Y3238D01*
G01X31070Y3224D01*
G01X31033Y3209D01*
G01X30995Y3193D01*
G01X30959Y3177D01*
G01X30922Y3159D01*
G01X30886Y3141D01*
G01X30851Y3122D01*
G01X30816Y3103D01*
G01X30782Y3082D01*
G01X30748Y3061D01*
G01X30714Y3040D01*
G01X30681Y3017D01*
G01X30649Y2994D01*
G01X30618Y2970D01*
G01X30587Y2945D01*
G01X30556Y2920D01*
G01X30527Y2894D01*
G01X30498Y2868D01*
G01X30469Y2840D01*
G01X30442Y2813D01*
G01X30415Y2784D01*
G01X30389Y2755D01*
G01X30363Y2726D01*
G01X30339Y2696D01*
G01X30315Y2666D01*
G01X30292Y2635D01*
G01X30269Y2603D01*
G01X30248Y2571D01*
G01X30227Y2539D01*
G01X30207Y2506D01*
G01X30188Y2473D01*
G01X30170Y2439D01*
G01X30153Y2405D01*
G01X30137Y2370D01*
G01X30121Y2336D01*
G01X30107Y2301D01*
G01X30093Y2265D01*
G01X30080Y2230D01*
G01X30068Y2194D01*
G01X30057Y2158D01*
G01X30047Y2121D01*
G01X30038Y2085D01*
G01X30030Y2048D01*
G01X30023Y2011D01*
G01X30017Y1974D01*
G01X30012Y1937D01*
G01X30007Y1899D01*
G01X30004Y1862D01*
G01X30001Y1824D01*
G01X30000Y1787D01*
G01X30000Y1750D01*
G04 end of side 23*
G01X30000Y0D01*
G04 end of side 24*
G01X3500Y0D01*
G04 end of side 25*
G01X3500Y1750D01*
G01X9250Y44700D02*
G01X9210Y44698D01*
G01X9171Y44695D01*
G01X9132Y44690D01*
G01X9094Y44683D01*
G01X9055Y44674D01*
G01X9018Y44663D01*
G01X8981Y44650D01*
G01X8944Y44635D01*
G01X8909Y44618D01*
G01X8874Y44599D01*
G01X8841Y44579D01*
G01X8809Y44556D01*
G01X8778Y44532D01*
G01X8748Y44507D01*
G01X8719Y44480D01*
G01X8692Y44451D01*
G01X8667Y44421D01*
G01X8643Y44390D01*
G01X8620Y44358D01*
G01X8600Y44324D01*
G01X8581Y44290D01*
G01X8564Y44255D01*
G01X8549Y44218D01*
G01X8536Y44181D01*
G01X8525Y44144D01*
G01X8516Y44105D01*
G01X8509Y44067D01*
G01X8504Y44028D01*
G01X8501Y43989D01*
G01X8500Y43950D01*
G04 end of side 1*
G01X8501Y43910D01*
G01X8504Y43871D01*
G01X8509Y43832D01*
G01X8516Y43794D01*
G01X8525Y43755D01*
G01X8536Y43718D01*
G01X8549Y43681D01*
G01X8564Y43644D01*
G01X8581Y43609D01*
G01X8600Y43574D01*
G01X8620Y43541D01*
G01X8643Y43509D01*
G01X8667Y43478D01*
G01X8692Y43448D01*
G01X8719Y43419D01*
G01X8748Y43392D01*
G01X8778Y43367D01*
G01X8809Y43343D01*
G01X8841Y43320D01*
G01X8875Y43300D01*
G01X8909Y43281D01*
G01X8944Y43264D01*
G01X8981Y43249D01*
G01X9018Y43236D01*
G01X9055Y43225D01*
G01X9094Y43216D01*
G01X9132Y43209D01*
G01X9171Y43204D01*
G01X9210Y43201D01*
G01X9250Y43200D01*
G04 end of side 2*
G01X9289Y43201D01*
G01X9328Y43204D01*
G01X9367Y43209D01*
G01X9405Y43216D01*
G01X9444Y43225D01*
G01X9481Y43236D01*
G01X9518Y43249D01*
G01X9555Y43264D01*
G01X9590Y43281D01*
G01X9625Y43300D01*
G01X9658Y43320D01*
G01X9690Y43343D01*
G01X9721Y43367D01*
G01X9751Y43392D01*
G01X9780Y43419D01*
G01X9807Y43448D01*
G01X9832Y43478D01*
G01X9856Y43509D01*
G01X9879Y43541D01*
G01X9899Y43575D01*
G01X9918Y43609D01*
G01X9935Y43644D01*
G01X9950Y43681D01*
G01X9963Y43718D01*
G01X9974Y43755D01*
G01X9983Y43794D01*
G01X9990Y43832D01*
G01X9995Y43871D01*
G01X9998Y43910D01*
G01X10000Y43950D01*
G04 end of side 3*
G01X9998Y43989D01*
G01X9995Y44028D01*
G01X9990Y44067D01*
G01X9983Y44105D01*
G01X9974Y44144D01*
G01X9963Y44181D01*
G01X9950Y44218D01*
G01X9935Y44255D01*
G01X9918Y44290D01*
G01X9899Y44325D01*
G01X9879Y44358D01*
G01X9856Y44390D01*
G01X9832Y44421D01*
G01X9807Y44451D01*
G01X9780Y44480D01*
G01X9751Y44507D01*
G01X9721Y44532D01*
G01X9690Y44556D01*
G01X9658Y44579D01*
G01X9624Y44599D01*
G01X9590Y44618D01*
G01X9555Y44635D01*
G01X9518Y44650D01*
G01X9481Y44663D01*
G01X9444Y44674D01*
G01X9405Y44683D01*
G01X9367Y44690D01*
G01X9328Y44695D01*
G01X9289Y44698D01*
G01X9250Y44700D01*
G01X25500Y44700D02*
G01X25460Y44698D01*
G01X25421Y44695D01*
G01X25382Y44690D01*
G01X25344Y44683D01*
G01X25305Y44674D01*
G01X25268Y44663D01*
G01X25231Y44650D01*
G01X25194Y44635D01*
G01X25159Y44618D01*
G01X25124Y44599D01*
G01X25091Y44579D01*
G01X25059Y44556D01*
G01X25028Y44532D01*
G01X24998Y44507D01*
G01X24969Y44480D01*
G01X24942Y44451D01*
G01X24917Y44421D01*
G01X24893Y44390D01*
G01X24870Y44358D01*
G01X24850Y44324D01*
G01X24831Y44290D01*
G01X24814Y44255D01*
G01X24799Y44218D01*
G01X24786Y44181D01*
G01X24775Y44144D01*
G01X24766Y44105D01*
G01X24759Y44067D01*
G01X24754Y44028D01*
G01X24751Y43989D01*
G01X24750Y43950D01*
G04 end of side 1*
G01X24751Y43910D01*
G01X24754Y43871D01*
G01X24759Y43832D01*
G01X24766Y43794D01*
G01X24775Y43755D01*
G01X24786Y43718D01*
G01X24799Y43681D01*
G01X24814Y43644D01*
G01X24831Y43609D01*
G01X24850Y43574D01*
G01X24870Y43541D01*
G01X24893Y43509D01*
G01X24917Y43478D01*
G01X24942Y43448D01*
G01X24969Y43419D01*
G01X24998Y43392D01*
G01X25028Y43367D01*
G01X25059Y43343D01*
G01X25091Y43320D01*
G01X25125Y43300D01*
G01X25159Y43281D01*
G01X25194Y43264D01*
G01X25231Y43249D01*
G01X25268Y43236D01*
G01X25305Y43225D01*
G01X25344Y43216D01*
G01X25382Y43209D01*
G01X25421Y43204D01*
G01X25460Y43201D01*
G01X25500Y43200D01*
G04 end of side 2*
G01X25539Y43201D01*
G01X25578Y43204D01*
G01X25617Y43209D01*
G01X25655Y43216D01*
G01X25694Y43225D01*
G01X25731Y43236D01*
G01X25768Y43249D01*
G01X25805Y43264D01*
G01X25840Y43281D01*
G01X25875Y43300D01*
G01X25908Y43320D01*
G01X25940Y43343D01*
G01X25971Y43367D01*
G01X26001Y43392D01*
G01X26030Y43419D01*
G01X26057Y43448D01*
G01X26082Y43478D01*
G01X26106Y43509D01*
G01X26129Y43541D01*
G01X26149Y43575D01*
G01X26168Y43609D01*
G01X26185Y43644D01*
G01X26200Y43681D01*
G01X26213Y43718D01*
G01X26224Y43755D01*
G01X26233Y43794D01*
G01X26240Y43832D01*
G01X26245Y43871D01*
G01X26248Y43910D01*
G01X26250Y43950D01*
G04 end of side 3*
G01X26248Y43989D01*
G01X26245Y44028D01*
G01X26240Y44067D01*
G01X26233Y44105D01*
G01X26224Y44144D01*
G01X26213Y44181D01*
G01X26200Y44218D01*
G01X26185Y44255D01*
G01X26168Y44290D01*
G01X26149Y44325D01*
G01X26129Y44358D01*
G01X26106Y44390D01*
G01X26082Y44421D01*
G01X26057Y44451D01*
G01X26030Y44480D01*
G01X26001Y44507D01*
G01X25971Y44532D01*
G01X25940Y44556D01*
G01X25908Y44579D01*
G01X25874Y44599D01*
G01X25840Y44618D01*
G01X25805Y44635D01*
G01X25768Y44650D01*
G01X25731Y44663D01*
G01X25694Y44674D01*
G01X25655Y44683D01*
G01X25617Y44690D01*
G01X25578Y44695D01*
G01X25539Y44698D01*
G01X25500Y44700D01*
G01X38000Y44700D02*
G01X37960Y44698D01*
G01X37921Y44695D01*
G01X37882Y44690D01*
G01X37844Y44683D01*
G01X37805Y44674D01*
G01X37768Y44663D01*
G01X37731Y44650D01*
G01X37694Y44635D01*
G01X37659Y44618D01*
G01X37624Y44599D01*
G01X37591Y44579D01*
G01X37559Y44556D01*
G01X37528Y44532D01*
G01X37498Y44507D01*
G01X37469Y44480D01*
G01X37442Y44451D01*
G01X37417Y44421D01*
G01X37393Y44390D01*
G01X37370Y44358D01*
G01X37350Y44324D01*
G01X37331Y44290D01*
G01X37314Y44255D01*
G01X37299Y44218D01*
G01X37286Y44181D01*
G01X37275Y44144D01*
G01X37266Y44105D01*
G01X37259Y44067D01*
G01X37254Y44028D01*
G01X37251Y43989D01*
G01X37250Y43950D01*
G04 end of side 1*
G01X37251Y43910D01*
G01X37254Y43871D01*
G01X37259Y43832D01*
G01X37266Y43794D01*
G01X37275Y43755D01*
G01X37286Y43718D01*
G01X37299Y43681D01*
G01X37314Y43644D01*
G01X37331Y43609D01*
G01X37350Y43574D01*
G01X37370Y43541D01*
G01X37393Y43509D01*
G01X37417Y43478D01*
G01X37442Y43448D01*
G01X37469Y43419D01*
G01X37498Y43392D01*
G01X37528Y43367D01*
G01X37559Y43343D01*
G01X37591Y43320D01*
G01X37625Y43300D01*
G01X37659Y43281D01*
G01X37694Y43264D01*
G01X37731Y43249D01*
G01X37768Y43236D01*
G01X37805Y43225D01*
G01X37844Y43216D01*
G01X37882Y43209D01*
G01X37921Y43204D01*
G01X37960Y43201D01*
G01X38000Y43200D01*
G04 end of side 2*
G01X38039Y43201D01*
G01X38078Y43204D01*
G01X38117Y43209D01*
G01X38155Y43216D01*
G01X38194Y43225D01*
G01X38231Y43236D01*
G01X38268Y43249D01*
G01X38305Y43264D01*
G01X38340Y43281D01*
G01X38375Y43300D01*
G01X38408Y43320D01*
G01X38440Y43343D01*
G01X38471Y43367D01*
G01X38501Y43392D01*
G01X38530Y43419D01*
G01X38557Y43448D01*
G01X38582Y43478D01*
G01X38606Y43509D01*
G01X38629Y43541D01*
G01X38649Y43575D01*
G01X38668Y43609D01*
G01X38685Y43644D01*
G01X38700Y43681D01*
G01X38713Y43718D01*
G01X38724Y43755D01*
G01X38733Y43794D01*
G01X38740Y43832D01*
G01X38745Y43871D01*
G01X38748Y43910D01*
G01X38750Y43950D01*
G04 end of side 3*
G01X38748Y43989D01*
G01X38745Y44028D01*
G01X38740Y44067D01*
G01X38733Y44105D01*
G01X38724Y44144D01*
G01X38713Y44181D01*
G01X38700Y44218D01*
G01X38685Y44255D01*
G01X38668Y44290D01*
G01X38649Y44325D01*
G01X38629Y44358D01*
G01X38606Y44390D01*
G01X38582Y44421D01*
G01X38557Y44451D01*
G01X38530Y44480D01*
G01X38501Y44507D01*
G01X38471Y44532D01*
G01X38440Y44556D01*
G01X38408Y44579D01*
G01X38374Y44599D01*
G01X38340Y44618D01*
G01X38305Y44635D01*
G01X38268Y44650D01*
G01X38231Y44663D01*
G01X38194Y44674D01*
G01X38155Y44683D01*
G01X38117Y44690D01*
G01X38078Y44695D01*
G01X38039Y44698D01*
G01X38000Y44700D01*
G01X54250Y44700D02*
G01X54210Y44698D01*
G01X54171Y44695D01*
G01X54132Y44690D01*
G01X54094Y44683D01*
G01X54055Y44674D01*
G01X54018Y44663D01*
G01X53981Y44650D01*
G01X53944Y44635D01*
G01X53909Y44618D01*
G01X53874Y44599D01*
G01X53841Y44579D01*
G01X53809Y44556D01*
G01X53778Y44532D01*
G01X53748Y44507D01*
G01X53719Y44480D01*
G01X53692Y44451D01*
G01X53667Y44421D01*
G01X53643Y44390D01*
G01X53620Y44358D01*
G01X53600Y44324D01*
G01X53581Y44290D01*
G01X53564Y44255D01*
G01X53549Y44218D01*
G01X53536Y44181D01*
G01X53525Y44144D01*
G01X53516Y44105D01*
G01X53509Y44067D01*
G01X53504Y44028D01*
G01X53501Y43989D01*
G01X53500Y43950D01*
G04 end of side 1*
G01X53501Y43910D01*
G01X53504Y43871D01*
G01X53509Y43832D01*
G01X53516Y43794D01*
G01X53525Y43755D01*
G01X53536Y43718D01*
G01X53549Y43681D01*
G01X53564Y43644D01*
G01X53581Y43609D01*
G01X53600Y43574D01*
G01X53620Y43541D01*
G01X53643Y43509D01*
G01X53667Y43478D01*
G01X53692Y43448D01*
G01X53719Y43419D01*
G01X53748Y43392D01*
G01X53778Y43367D01*
G01X53809Y43343D01*
G01X53841Y43320D01*
G01X53875Y43300D01*
G01X53909Y43281D01*
G01X53944Y43264D01*
G01X53981Y43249D01*
G01X54018Y43236D01*
G01X54055Y43225D01*
G01X54094Y43216D01*
G01X54132Y43209D01*
G01X54171Y43204D01*
G01X54210Y43201D01*
G01X54250Y43200D01*
G04 end of side 2*
G01X54289Y43201D01*
G01X54328Y43204D01*
G01X54367Y43209D01*
G01X54405Y43216D01*
G01X54444Y43225D01*
G01X54481Y43236D01*
G01X54518Y43249D01*
G01X54555Y43264D01*
G01X54590Y43281D01*
G01X54625Y43300D01*
G01X54658Y43320D01*
G01X54690Y43343D01*
G01X54721Y43367D01*
G01X54751Y43392D01*
G01X54780Y43419D01*
G01X54807Y43448D01*
G01X54832Y43478D01*
G01X54856Y43509D01*
G01X54879Y43541D01*
G01X54899Y43575D01*
G01X54918Y43609D01*
G01X54935Y43644D01*
G01X54950Y43681D01*
G01X54963Y43718D01*
G01X54974Y43755D01*
G01X54983Y43794D01*
G01X54990Y43832D01*
G01X54995Y43871D01*
G01X54998Y43910D01*
G01X55000Y43950D01*
G04 end of side 3*
G01X54998Y43989D01*
G01X54995Y44028D01*
G01X54990Y44067D01*
G01X54983Y44105D01*
G01X54974Y44144D01*
G01X54963Y44181D01*
G01X54950Y44218D01*
G01X54935Y44255D01*
G01X54918Y44290D01*
G01X54899Y44325D01*
G01X54879Y44358D01*
G01X54856Y44390D01*
G01X54832Y44421D01*
G01X54807Y44451D01*
G01X54780Y44480D01*
G01X54751Y44507D01*
G01X54721Y44532D01*
G01X54690Y44556D01*
G01X54658Y44579D01*
G01X54624Y44599D01*
G01X54590Y44618D01*
G01X54555Y44635D01*
G01X54518Y44650D01*
G01X54481Y44663D01*
G01X54444Y44674D01*
G01X54405Y44683D01*
G01X54367Y44690D01*
G01X54328Y44695D01*
G01X54289Y44698D01*
G01X54250Y44700D01*
G01X54250Y2800D02*
G01X54210Y2798D01*
G01X54171Y2795D01*
G01X54132Y2790D01*
G01X54094Y2783D01*
G01X54055Y2774D01*
G01X54018Y2763D01*
G01X53981Y2750D01*
G01X53944Y2735D01*
G01X53909Y2718D01*
G01X53874Y2699D01*
G01X53841Y2679D01*
G01X53809Y2656D01*
G01X53778Y2632D01*
G01X53748Y2607D01*
G01X53719Y2580D01*
G01X53692Y2551D01*
G01X53667Y2521D01*
G01X53643Y2490D01*
G01X53620Y2458D01*
G01X53600Y2424D01*
G01X53581Y2390D01*
G01X53564Y2355D01*
G01X53549Y2318D01*
G01X53536Y2281D01*
G01X53525Y2244D01*
G01X53516Y2205D01*
G01X53509Y2167D01*
G01X53504Y2128D01*
G01X53501Y2089D01*
G01X53500Y2050D01*
G04 end of side 1*
G01X53501Y2010D01*
G01X53504Y1971D01*
G01X53509Y1932D01*
G01X53516Y1894D01*
G01X53525Y1855D01*
G01X53536Y1818D01*
G01X53549Y1781D01*
G01X53564Y1744D01*
G01X53581Y1709D01*
G01X53600Y1674D01*
G01X53620Y1641D01*
G01X53643Y1609D01*
G01X53667Y1578D01*
G01X53692Y1548D01*
G01X53719Y1519D01*
G01X53748Y1492D01*
G01X53778Y1467D01*
G01X53809Y1443D01*
G01X53841Y1420D01*
G01X53875Y1400D01*
G01X53909Y1381D01*
G01X53944Y1364D01*
G01X53981Y1349D01*
G01X54018Y1336D01*
G01X54055Y1325D01*
G01X54094Y1316D01*
G01X54132Y1309D01*
G01X54171Y1304D01*
G01X54210Y1301D01*
G01X54250Y1300D01*
G04 end of side 2*
G01X54289Y1301D01*
G01X54328Y1304D01*
G01X54367Y1309D01*
G01X54405Y1316D01*
G01X54444Y1325D01*
G01X54481Y1336D01*
G01X54518Y1349D01*
G01X54555Y1364D01*
G01X54590Y1381D01*
G01X54625Y1400D01*
G01X54658Y1420D01*
G01X54690Y1443D01*
G01X54721Y1467D01*
G01X54751Y1492D01*
G01X54780Y1519D01*
G01X54807Y1548D01*
G01X54832Y1578D01*
G01X54856Y1609D01*
G01X54879Y1641D01*
G01X54899Y1675D01*
G01X54918Y1709D01*
G01X54935Y1744D01*
G01X54950Y1781D01*
G01X54963Y1818D01*
G01X54974Y1855D01*
G01X54983Y1894D01*
G01X54990Y1932D01*
G01X54995Y1971D01*
G01X54998Y2010D01*
G01X55000Y2050D01*
G04 end of side 3*
G01X54998Y2089D01*
G01X54995Y2128D01*
G01X54990Y2167D01*
G01X54983Y2205D01*
G01X54974Y2244D01*
G01X54963Y2281D01*
G01X54950Y2318D01*
G01X54935Y2355D01*
G01X54918Y2390D01*
G01X54899Y2425D01*
G01X54879Y2458D01*
G01X54856Y2490D01*
G01X54832Y2521D01*
G01X54807Y2551D01*
G01X54780Y2580D01*
G01X54751Y2607D01*
G01X54721Y2632D01*
G01X54690Y2656D01*
G01X54658Y2679D01*
G01X54624Y2699D01*
G01X54590Y2718D01*
G01X54555Y2735D01*
G01X54518Y2750D01*
G01X54481Y2763D01*
G01X54444Y2774D01*
G01X54405Y2783D01*
G01X54367Y2790D01*
G01X54328Y2795D01*
G01X54289Y2798D01*
G01X54250Y2800D01*
G01X38000Y2800D02*
G01X37960Y2798D01*
G01X37921Y2795D01*
G01X37882Y2790D01*
G01X37844Y2783D01*
G01X37805Y2774D01*
G01X37768Y2763D01*
G01X37731Y2750D01*
G01X37694Y2735D01*
G01X37659Y2718D01*
G01X37624Y2699D01*
G01X37591Y2679D01*
G01X37559Y2656D01*
G01X37528Y2632D01*
G01X37498Y2607D01*
G01X37469Y2580D01*
G01X37442Y2551D01*
G01X37417Y2521D01*
G01X37393Y2490D01*
G01X37370Y2458D01*
G01X37350Y2424D01*
G01X37331Y2390D01*
G01X37314Y2355D01*
G01X37299Y2318D01*
G01X37286Y2281D01*
G01X37275Y2244D01*
G01X37266Y2205D01*
G01X37259Y2167D01*
G01X37254Y2128D01*
G01X37251Y2089D01*
G01X37250Y2050D01*
G04 end of side 1*
G01X37251Y2010D01*
G01X37254Y1971D01*
G01X37259Y1932D01*
G01X37266Y1894D01*
G01X37275Y1855D01*
G01X37286Y1818D01*
G01X37299Y1781D01*
G01X37314Y1744D01*
G01X37331Y1709D01*
G01X37350Y1674D01*
G01X37370Y1641D01*
G01X37393Y1609D01*
G01X37417Y1578D01*
G01X37442Y1548D01*
G01X37469Y1519D01*
G01X37498Y1492D01*
G01X37528Y1467D01*
G01X37559Y1443D01*
G01X37591Y1420D01*
G01X37625Y1400D01*
G01X37659Y1381D01*
G01X37694Y1364D01*
G01X37731Y1349D01*
G01X37768Y1336D01*
G01X37805Y1325D01*
G01X37844Y1316D01*
G01X37882Y1309D01*
G01X37921Y1304D01*
G01X37960Y1301D01*
G01X38000Y1300D01*
G04 end of side 2*
G01X38039Y1301D01*
G01X38078Y1304D01*
G01X38117Y1309D01*
G01X38155Y1316D01*
G01X38194Y1325D01*
G01X38231Y1336D01*
G01X38268Y1349D01*
G01X38305Y1364D01*
G01X38340Y1381D01*
G01X38375Y1400D01*
G01X38408Y1420D01*
G01X38440Y1443D01*
G01X38471Y1467D01*
G01X38501Y1492D01*
G01X38530Y1519D01*
G01X38557Y1548D01*
G01X38582Y1578D01*
G01X38606Y1609D01*
G01X38629Y1641D01*
G01X38649Y1675D01*
G01X38668Y1709D01*
G01X38685Y1744D01*
G01X38700Y1781D01*
G01X38713Y1818D01*
G01X38724Y1855D01*
G01X38733Y1894D01*
G01X38740Y1932D01*
G01X38745Y1971D01*
G01X38748Y2010D01*
G01X38750Y2050D01*
G04 end of side 3*
G01X38748Y2089D01*
G01X38745Y2128D01*
G01X38740Y2167D01*
G01X38733Y2205D01*
G01X38724Y2244D01*
G01X38713Y2281D01*
G01X38700Y2318D01*
G01X38685Y2355D01*
G01X38668Y2390D01*
G01X38649Y2425D01*
G01X38629Y2458D01*
G01X38606Y2490D01*
G01X38582Y2521D01*
G01X38557Y2551D01*
G01X38530Y2580D01*
G01X38501Y2607D01*
G01X38471Y2632D01*
G01X38440Y2656D01*
G01X38408Y2679D01*
G01X38374Y2699D01*
G01X38340Y2718D01*
G01X38305Y2735D01*
G01X38268Y2750D01*
G01X38231Y2763D01*
G01X38194Y2774D01*
G01X38155Y2783D01*
G01X38117Y2790D01*
G01X38078Y2795D01*
G01X38039Y2798D01*
G01X38000Y2800D01*
G01X25500Y2800D02*
G01X25460Y2798D01*
G01X25421Y2795D01*
G01X25382Y2790D01*
G01X25344Y2783D01*
G01X25305Y2774D01*
G01X25268Y2763D01*
G01X25231Y2750D01*
G01X25194Y2735D01*
G01X25159Y2718D01*
G01X25124Y2699D01*
G01X25091Y2679D01*
G01X25059Y2656D01*
G01X25028Y2632D01*
G01X24998Y2607D01*
G01X24969Y2580D01*
G01X24942Y2551D01*
G01X24917Y2521D01*
G01X24893Y2490D01*
G01X24870Y2458D01*
G01X24850Y2424D01*
G01X24831Y2390D01*
G01X24814Y2355D01*
G01X24799Y2318D01*
G01X24786Y2281D01*
G01X24775Y2244D01*
G01X24766Y2205D01*
G01X24759Y2167D01*
G01X24754Y2128D01*
G01X24751Y2089D01*
G01X24750Y2050D01*
G04 end of side 1*
G01X24751Y2010D01*
G01X24754Y1971D01*
G01X24759Y1932D01*
G01X24766Y1894D01*
G01X24775Y1855D01*
G01X24786Y1818D01*
G01X24799Y1781D01*
G01X24814Y1744D01*
G01X24831Y1709D01*
G01X24850Y1674D01*
G01X24870Y1641D01*
G01X24893Y1609D01*
G01X24917Y1578D01*
G01X24942Y1548D01*
G01X24969Y1519D01*
G01X24998Y1492D01*
G01X25028Y1467D01*
G01X25059Y1443D01*
G01X25091Y1420D01*
G01X25125Y1400D01*
G01X25159Y1381D01*
G01X25194Y1364D01*
G01X25231Y1349D01*
G01X25268Y1336D01*
G01X25305Y1325D01*
G01X25344Y1316D01*
G01X25382Y1309D01*
G01X25421Y1304D01*
G01X25460Y1301D01*
G01X25500Y1300D01*
G04 end of side 2*
G01X25539Y1301D01*
G01X25578Y1304D01*
G01X25617Y1309D01*
G01X25655Y1316D01*
G01X25694Y1325D01*
G01X25731Y1336D01*
G01X25768Y1349D01*
G01X25805Y1364D01*
G01X25840Y1381D01*
G01X25875Y1400D01*
G01X25908Y1420D01*
G01X25940Y1443D01*
G01X25971Y1467D01*
G01X26001Y1492D01*
G01X26030Y1519D01*
G01X26057Y1548D01*
G01X26082Y1578D01*
G01X26106Y1609D01*
G01X26129Y1641D01*
G01X26149Y1675D01*
G01X26168Y1709D01*
G01X26185Y1744D01*
G01X26200Y1781D01*
G01X26213Y1818D01*
G01X26224Y1855D01*
G01X26233Y1894D01*
G01X26240Y1932D01*
G01X26245Y1971D01*
G01X26248Y2010D01*
G01X26250Y2050D01*
G04 end of side 3*
G01X26248Y2089D01*
G01X26245Y2128D01*
G01X26240Y2167D01*
G01X26233Y2205D01*
G01X26224Y2244D01*
G01X26213Y2281D01*
G01X26200Y2318D01*
G01X26185Y2355D01*
G01X26168Y2390D01*
G01X26149Y2425D01*
G01X26129Y2458D01*
G01X26106Y2490D01*
G01X26082Y2521D01*
G01X26057Y2551D01*
G01X26030Y2580D01*
G01X26001Y2607D01*
G01X25971Y2632D01*
G01X25940Y2656D01*
G01X25908Y2679D01*
G01X25874Y2699D01*
G01X25840Y2718D01*
G01X25805Y2735D01*
G01X25768Y2750D01*
G01X25731Y2763D01*
G01X25694Y2774D01*
G01X25655Y2783D01*
G01X25617Y2790D01*
G01X25578Y2795D01*
G01X25539Y2798D01*
G01X25500Y2800D01*
G01X9250Y2800D02*
G01X9210Y2798D01*
G01X9171Y2795D01*
G01X9132Y2790D01*
G01X9094Y2783D01*
G01X9055Y2774D01*
G01X9018Y2763D01*
G01X8981Y2750D01*
G01X8944Y2735D01*
G01X8909Y2718D01*
G01X8874Y2699D01*
G01X8841Y2679D01*
G01X8809Y2656D01*
G01X8778Y2632D01*
G01X8748Y2607D01*
G01X8719Y2580D01*
G01X8692Y2551D01*
G01X8667Y2521D01*
G01X8643Y2490D01*
G01X8620Y2458D01*
G01X8600Y2424D01*
G01X8581Y2390D01*
G01X8564Y2355D01*
G01X8549Y2318D01*
G01X8536Y2281D01*
G01X8525Y2244D01*
G01X8516Y2205D01*
G01X8509Y2167D01*
G01X8504Y2128D01*
G01X8501Y2089D01*
G01X8500Y2050D01*
G04 end of side 1*
G01X8501Y2010D01*
G01X8504Y1971D01*
G01X8509Y1932D01*
G01X8516Y1894D01*
G01X8525Y1855D01*
G01X8536Y1818D01*
G01X8549Y1781D01*
G01X8564Y1744D01*
G01X8581Y1709D01*
G01X8600Y1674D01*
G01X8620Y1641D01*
G01X8643Y1609D01*
G01X8667Y1578D01*
G01X8692Y1548D01*
G01X8719Y1519D01*
G01X8748Y1492D01*
G01X8778Y1467D01*
G01X8809Y1443D01*
G01X8841Y1420D01*
G01X8875Y1400D01*
G01X8909Y1381D01*
G01X8944Y1364D01*
G01X8981Y1349D01*
G01X9018Y1336D01*
G01X9055Y1325D01*
G01X9094Y1316D01*
G01X9132Y1309D01*
G01X9171Y1304D01*
G01X9210Y1301D01*
G01X9250Y1300D01*
G04 end of side 2*
G01X9289Y1301D01*
G01X9328Y1304D01*
G01X9367Y1309D01*
G01X9405Y1316D01*
G01X9444Y1325D01*
G01X9481Y1336D01*
G01X9518Y1349D01*
G01X9555Y1364D01*
G01X9590Y1381D01*
G01X9625Y1400D01*
G01X9658Y1420D01*
G01X9690Y1443D01*
G01X9721Y1467D01*
G01X9751Y1492D01*
G01X9780Y1519D01*
G01X9807Y1548D01*
G01X9832Y1578D01*
G01X9856Y1609D01*
G01X9879Y1641D01*
G01X9899Y1675D01*
G01X9918Y1709D01*
G01X9935Y1744D01*
G01X9950Y1781D01*
G01X9963Y1818D01*
G01X9974Y1855D01*
G01X9983Y1894D01*
G01X9990Y1932D01*
G01X9995Y1971D01*
G01X9998Y2010D01*
G01X10000Y2050D01*
G04 end of side 3*
G01X9998Y2089D01*
G01X9995Y2128D01*
G01X9990Y2167D01*
G01X9983Y2205D01*
G01X9974Y2244D01*
G01X9963Y2281D01*
G01X9950Y2318D01*
G01X9935Y2355D01*
G01X9918Y2390D01*
G01X9899Y2425D01*
G01X9879Y2458D01*
G01X9856Y2490D01*
G01X9832Y2521D01*
G01X9807Y2551D01*
G01X9780Y2580D01*
G01X9751Y2607D01*
G01X9721Y2632D01*
G01X9690Y2656D01*
G01X9658Y2679D01*
G01X9624Y2699D01*
G01X9590Y2718D01*
G01X9555Y2735D01*
G01X9518Y2750D01*
G01X9481Y2763D01*
G01X9444Y2774D01*
G01X9405Y2783D01*
G01X9367Y2790D01*
G01X9328Y2795D01*
G01X9289Y2798D01*
G01X9250Y2800D01*

G04 -------------- Draw Parts, Pads, Traces, Vias and Text (positive)*
%LPD*%
G04 Draw part U5*
G04 Draw part U3*
G04 Draw part C2*
G04 Draw part C3*
G04 Draw part U1*
G04 Draw part C6*
G04 Draw part C7*
G04 Draw part S1*
G04 draw part outline for part S1*
G54D11*
G01X5011Y8811D02*
G01X8988Y8811D01*
G01X8988Y8811D02*
G01X8988Y12788D01*
G01X8988Y12788D02*
G01X5011Y12788D01*
G01X5011Y12788D02*
G01X5011Y8811D01*
G54D12*
G01X7000Y12059D02*
G01X6960Y12059D01*
G01X6920Y12057D01*
G01X6881Y12054D01*
G01X6842Y12049D01*
G01X6802Y12044D01*
G01X6763Y12037D01*
G01X6725Y12029D01*
G01X6686Y12020D01*
G01X6648Y12009D01*
G01X6610Y11998D01*
G01X6573Y11985D01*
G01X6536Y11971D01*
G01X6499Y11956D01*
G01X6463Y11939D01*
G01X6428Y11922D01*
G01X6393Y11904D01*
G01X6358Y11884D01*
G01X6324Y11863D01*
G01X6291Y11841D01*
G01X6259Y11819D01*
G01X6227Y11795D01*
G01X6196Y11770D01*
G01X6166Y11745D01*
G01X6137Y11718D01*
G01X6109Y11690D01*
G01X6081Y11662D01*
G01X6054Y11633D01*
G01X6029Y11603D01*
G01X6004Y11572D01*
G01X5980Y11540D01*
G01X5958Y11508D01*
G01X5936Y11475D01*
G01X5915Y11441D01*
G01X5895Y11406D01*
G01X5877Y11371D01*
G01X5860Y11336D01*
G01X5843Y11300D01*
G01X5828Y11263D01*
G01X5814Y11226D01*
G01X5801Y11189D01*
G01X5790Y11151D01*
G01X5779Y11113D01*
G01X5770Y11074D01*
G01X5762Y11036D01*
G01X5755Y10997D01*
G01X5750Y10957D01*
G01X5745Y10918D01*
G01X5742Y10879D01*
G01X5740Y10839D01*
G01X5740Y10800D01*
G01X5740Y10800D02*
G01X5740Y10760D01*
G01X5742Y10720D01*
G01X5745Y10681D01*
G01X5750Y10642D01*
G01X5755Y10602D01*
G01X5762Y10563D01*
G01X5770Y10525D01*
G01X5779Y10486D01*
G01X5790Y10448D01*
G01X5801Y10410D01*
G01X5814Y10373D01*
G01X5828Y10336D01*
G01X5843Y10299D01*
G01X5860Y10263D01*
G01X5877Y10228D01*
G01X5895Y10193D01*
G01X5915Y10158D01*
G01X5936Y10124D01*
G01X5958Y10091D01*
G01X5980Y10059D01*
G01X6004Y10027D01*
G01X6029Y9996D01*
G01X6054Y9966D01*
G01X6081Y9937D01*
G01X6109Y9909D01*
G01X6137Y9881D01*
G01X6166Y9854D01*
G01X6196Y9829D01*
G01X6227Y9804D01*
G01X6259Y9780D01*
G01X6291Y9758D01*
G01X6324Y9736D01*
G01X6358Y9715D01*
G01X6393Y9695D01*
G01X6428Y9677D01*
G01X6463Y9660D01*
G01X6499Y9643D01*
G01X6536Y9628D01*
G01X6573Y9614D01*
G01X6610Y9601D01*
G01X6648Y9590D01*
G01X6686Y9579D01*
G01X6725Y9570D01*
G01X6763Y9562D01*
G01X6802Y9555D01*
G01X6842Y9550D01*
G01X6881Y9545D01*
G01X6920Y9542D01*
G01X6960Y9540D01*
G01X7000Y9540D01*
G01X7000Y9540D02*
G01X7039Y9540D01*
G01X7079Y9542D01*
G01X7118Y9545D01*
G01X7157Y9550D01*
G01X7197Y9555D01*
G01X7236Y9562D01*
G01X7274Y9570D01*
G01X7313Y9579D01*
G01X7351Y9590D01*
G01X7389Y9601D01*
G01X7426Y9614D01*
G01X7463Y9628D01*
G01X7500Y9643D01*
G01X7536Y9660D01*
G01X7571Y9677D01*
G01X7606Y9695D01*
G01X7641Y9715D01*
G01X7675Y9736D01*
G01X7708Y9758D01*
G01X7740Y9780D01*
G01X7772Y9804D01*
G01X7803Y9829D01*
G01X7833Y9854D01*
G01X7862Y9881D01*
G01X7890Y9909D01*
G01X7918Y9937D01*
G01X7945Y9966D01*
G01X7970Y9996D01*
G01X7995Y10027D01*
G01X8019Y10059D01*
G01X8041Y10091D01*
G01X8063Y10124D01*
G01X8084Y10158D01*
G01X8104Y10193D01*
G01X8122Y10228D01*
G01X8139Y10263D01*
G01X8156Y10299D01*
G01X8171Y10336D01*
G01X8185Y10373D01*
G01X8198Y10410D01*
G01X8209Y10448D01*
G01X8220Y10486D01*
G01X8229Y10525D01*
G01X8237Y10563D01*
G01X8244Y10602D01*
G01X8249Y10642D01*
G01X8254Y10681D01*
G01X8257Y10720D01*
G01X8259Y10760D01*
G01X8259Y10800D01*
G01X8259Y10800D02*
G01X8259Y10839D01*
G01X8257Y10879D01*
G01X8254Y10918D01*
G01X8249Y10957D01*
G01X8244Y10997D01*
G01X8237Y11036D01*
G01X8229Y11074D01*
G01X8220Y11113D01*
G01X8209Y11151D01*
G01X8198Y11189D01*
G01X8185Y11226D01*
G01X8171Y11263D01*
G01X8156Y11300D01*
G01X8139Y11336D01*
G01X8122Y11371D01*
G01X8104Y11406D01*
G01X8084Y11441D01*
G01X8063Y11475D01*
G01X8041Y11508D01*
G01X8019Y11540D01*
G01X7995Y11572D01*
G01X7970Y11603D01*
G01X7945Y11633D01*
G01X7918Y11662D01*
G01X7890Y11690D01*
G01X7862Y11718D01*
G01X7833Y11745D01*
G01X7803Y11770D01*
G01X7772Y11795D01*
G01X7740Y11819D01*
G01X7708Y11841D01*
G01X7675Y11863D01*
G01X7641Y11884D01*
G01X7606Y11904D01*
G01X7571Y11922D01*
G01X7536Y11939D01*
G01X7500Y11956D01*
G01X7463Y11971D01*
G01X7426Y11985D01*
G01X7389Y11998D01*
G01X7351Y12009D01*
G01X7313Y12020D01*
G01X7274Y12029D01*
G01X7236Y12037D01*
G01X7197Y12044D01*
G01X7157Y12049D01*
G01X7118Y12054D01*
G01X7079Y12057D01*
G01X7039Y12059D01*
G01X7000Y12059D01*
G01X7000Y12059D02*
G01X7000Y12059D01*
G01X7000Y10839D02*
G01X6960Y10800D01*
G01X6960Y10800D02*
G01X7000Y10760D01*
G01X7000Y10760D02*
G01X7039Y10800D01*
G01X7039Y10800D02*
G01X7000Y10839D01*
G04 draw reference designator for part S1*
G54D10*
G01X6972Y8554D02*
G01X7018Y8509D01*
G01X6904Y8577D02*
G01X6972Y8554D01*
G01X6813Y8577D02*
G01X6904Y8577D01*
G01X6813Y8577D02*
G01X6745Y8554D01*
G01X6745Y8554D02*
G01X6700Y8509D01*
G01X6700Y8509D02*
G01X6700Y8463D01*
G01X6700Y8463D02*
G01X6722Y8418D01*
G01X6722Y8418D02*
G01X6745Y8395D01*
G01X6745Y8395D02*
G01X6790Y8372D01*
G01X6790Y8372D02*
G01X6927Y8327D01*
G01X6927Y8327D02*
G01X6972Y8304D01*
G01X6972Y8304D02*
G01X6995Y8281D01*
G01X6995Y8281D02*
G01X7018Y8236D01*
G01X7018Y8236D02*
G01X7018Y8168D01*
G01X7018Y8168D02*
G01X6972Y8122D01*
G01X6972Y8122D02*
G01X6904Y8100D01*
G01X6813Y8100D02*
G01X6904Y8100D01*
G01X6745Y8122D02*
G01X6813Y8100D01*
G01X6700Y8168D02*
G01X6745Y8122D01*
G01X7245Y8509D02*
G01X7200Y8486D01*
G01X7313Y8577D02*
G01X7245Y8509D01*
G01X7313Y8577D02*
G01X7313Y8100D01*
G04 Draw part S2*
G04 draw part outline for part S2*
G54D11*
G01X12011Y8811D02*
G01X15988Y8811D01*
G01X15988Y8811D02*
G01X15988Y12788D01*
G01X15988Y12788D02*
G01X12011Y12788D01*
G01X12011Y12788D02*
G01X12011Y8811D01*
G54D12*
G01X14000Y12059D02*
G01X13960Y12059D01*
G01X13920Y12057D01*
G01X13881Y12054D01*
G01X13842Y12049D01*
G01X13802Y12044D01*
G01X13763Y12037D01*
G01X13725Y12029D01*
G01X13686Y12020D01*
G01X13648Y12009D01*
G01X13610Y11998D01*
G01X13573Y11985D01*
G01X13536Y11971D01*
G01X13499Y11956D01*
G01X13463Y11939D01*
G01X13428Y11922D01*
G01X13393Y11904D01*
G01X13358Y11884D01*
G01X13324Y11863D01*
G01X13291Y11841D01*
G01X13259Y11819D01*
G01X13227Y11795D01*
G01X13196Y11770D01*
G01X13166Y11745D01*
G01X13137Y11718D01*
G01X13109Y11690D01*
G01X13081Y11662D01*
G01X13054Y11633D01*
G01X13029Y11603D01*
G01X13004Y11572D01*
G01X12980Y11540D01*
G01X12958Y11508D01*
G01X12936Y11475D01*
G01X12915Y11441D01*
G01X12895Y11406D01*
G01X12877Y11371D01*
G01X12860Y11336D01*
G01X12843Y11300D01*
G01X12828Y11263D01*
G01X12814Y11226D01*
G01X12801Y11189D01*
G01X12790Y11151D01*
G01X12779Y11113D01*
G01X12770Y11074D01*
G01X12762Y11036D01*
G01X12755Y10997D01*
G01X12750Y10957D01*
G01X12745Y10918D01*
G01X12742Y10879D01*
G01X12740Y10839D01*
G01X12740Y10800D01*
G01X12740Y10800D02*
G01X12740Y10760D01*
G01X12742Y10720D01*
G01X12745Y10681D01*
G01X12750Y10642D01*
G01X12755Y10602D01*
G01X12762Y10563D01*
G01X12770Y10525D01*
G01X12779Y10486D01*
G01X12790Y10448D01*
G01X12801Y10410D01*
G01X12814Y10373D01*
G01X12828Y10336D01*
G01X12843Y10299D01*
G01X12860Y10263D01*
G01X12877Y10228D01*
G01X12895Y10193D01*
G01X12915Y10158D01*
G01X12936Y10124D01*
G01X12958Y10091D01*
G01X12980Y10059D01*
G01X13004Y10027D01*
G01X13029Y9996D01*
G01X13054Y9966D01*
G01X13081Y9937D01*
G01X13109Y9909D01*
G01X13137Y9881D01*
G01X13166Y9854D01*
G01X13196Y9829D01*
G01X13227Y9804D01*
G01X13259Y9780D01*
G01X13291Y9758D01*
G01X13324Y9736D01*
G01X13358Y9715D01*
G01X13393Y9695D01*
G01X13428Y9677D01*
G01X13463Y9660D01*
G01X13499Y9643D01*
G01X13536Y9628D01*
G01X13573Y9614D01*
G01X13610Y9601D01*
G01X13648Y9590D01*
G01X13686Y9579D01*
G01X13725Y9570D01*
G01X13763Y9562D01*
G01X13802Y9555D01*
G01X13842Y9550D01*
G01X13881Y9545D01*
G01X13920Y9542D01*
G01X13960Y9540D01*
G01X14000Y9540D01*
G01X14000Y9540D02*
G01X14039Y9540D01*
G01X14079Y9542D01*
G01X14118Y9545D01*
G01X14157Y9550D01*
G01X14197Y9555D01*
G01X14236Y9562D01*
G01X14274Y9570D01*
G01X14313Y9579D01*
G01X14351Y9590D01*
G01X14389Y9601D01*
G01X14426Y9614D01*
G01X14463Y9628D01*
G01X14500Y9643D01*
G01X14536Y9660D01*
G01X14571Y9677D01*
G01X14606Y9695D01*
G01X14641Y9715D01*
G01X14675Y9736D01*
G01X14708Y9758D01*
G01X14740Y9780D01*
G01X14772Y9804D01*
G01X14803Y9829D01*
G01X14833Y9854D01*
G01X14862Y9881D01*
G01X14890Y9909D01*
G01X14918Y9937D01*
G01X14945Y9966D01*
G01X14970Y9996D01*
G01X14995Y10027D01*
G01X15019Y10059D01*
G01X15041Y10091D01*
G01X15063Y10124D01*
G01X15084Y10158D01*
G01X15104Y10193D01*
G01X15122Y10228D01*
G01X15139Y10263D01*
G01X15156Y10299D01*
G01X15171Y10336D01*
G01X15185Y10373D01*
G01X15198Y10410D01*
G01X15209Y10448D01*
G01X15220Y10486D01*
G01X15229Y10525D01*
G01X15237Y10563D01*
G01X15244Y10602D01*
G01X15249Y10642D01*
G01X15254Y10681D01*
G01X15257Y10720D01*
G01X15259Y10760D01*
G01X15259Y10800D01*
G01X15259Y10800D02*
G01X15259Y10839D01*
G01X15257Y10879D01*
G01X15254Y10918D01*
G01X15249Y10957D01*
G01X15244Y10997D01*
G01X15237Y11036D01*
G01X15229Y11074D01*
G01X15220Y11113D01*
G01X15209Y11151D01*
G01X15198Y11189D01*
G01X15185Y11226D01*
G01X15171Y11263D01*
G01X15156Y11300D01*
G01X15139Y11336D01*
G01X15122Y11371D01*
G01X15104Y11406D01*
G01X15084Y11441D01*
G01X15063Y11475D01*
G01X15041Y11508D01*
G01X15019Y11540D01*
G01X14995Y11572D01*
G01X14970Y11603D01*
G01X14945Y11633D01*
G01X14918Y11662D01*
G01X14890Y11690D01*
G01X14862Y11718D01*
G01X14833Y11745D01*
G01X14803Y11770D01*
G01X14772Y11795D01*
G01X14740Y11819D01*
G01X14708Y11841D01*
G01X14675Y11863D01*
G01X14641Y11884D01*
G01X14606Y11904D01*
G01X14571Y11922D01*
G01X14536Y11939D01*
G01X14500Y11956D01*
G01X14463Y11971D01*
G01X14426Y11985D01*
G01X14389Y11998D01*
G01X14351Y12009D01*
G01X14313Y12020D01*
G01X14274Y12029D01*
G01X14236Y12037D01*
G01X14197Y12044D01*
G01X14157Y12049D01*
G01X14118Y12054D01*
G01X14079Y12057D01*
G01X14039Y12059D01*
G01X14000Y12059D01*
G01X14000Y12059D02*
G01X14000Y12059D01*
G01X14000Y10839D02*
G01X13960Y10800D01*
G01X13960Y10800D02*
G01X14000Y10760D01*
G01X14000Y10760D02*
G01X14039Y10800D01*
G01X14039Y10800D02*
G01X14000Y10839D01*
G04 draw reference designator for part S2*
G54D10*
G01X13872Y8554D02*
G01X13918Y8509D01*
G01X13804Y8577D02*
G01X13872Y8554D01*
G01X13713Y8577D02*
G01X13804Y8577D01*
G01X13713Y8577D02*
G01X13645Y8554D01*
G01X13645Y8554D02*
G01X13600Y8509D01*
G01X13600Y8509D02*
G01X13600Y8463D01*
G01X13600Y8463D02*
G01X13622Y8418D01*
G01X13622Y8418D02*
G01X13645Y8395D01*
G01X13645Y8395D02*
G01X13690Y8372D01*
G01X13690Y8372D02*
G01X13827Y8327D01*
G01X13827Y8327D02*
G01X13872Y8304D01*
G01X13872Y8304D02*
G01X13895Y8281D01*
G01X13895Y8281D02*
G01X13918Y8236D01*
G01X13918Y8236D02*
G01X13918Y8168D01*
G01X13918Y8168D02*
G01X13872Y8122D01*
G01X13872Y8122D02*
G01X13804Y8100D01*
G01X13713Y8100D02*
G01X13804Y8100D01*
G01X13645Y8122D02*
G01X13713Y8100D01*
G01X13600Y8168D02*
G01X13645Y8122D01*
G01X14122Y8486D02*
G01X14122Y8463D01*
G01X14145Y8531D02*
G01X14122Y8486D01*
G01X14168Y8554D02*
G01X14145Y8531D01*
G01X14213Y8577D02*
G01X14168Y8554D01*
G01X14304Y8577D02*
G01X14213Y8577D01*
G01X14304Y8577D02*
G01X14350Y8554D01*
G01X14350Y8554D02*
G01X14372Y8531D01*
G01X14372Y8531D02*
G01X14395Y8486D01*
G01X14395Y8486D02*
G01X14395Y8440D01*
G01X14395Y8440D02*
G01X14372Y8395D01*
G01X14372Y8395D02*
G01X14327Y8327D01*
G01X14327Y8327D02*
G01X14100Y8100D01*
G01X14418Y8100D02*
G01X14100Y8100D01*
G04 Draw part S3*
G04 draw part outline for part S3*
G54D11*
G01X19011Y8811D02*
G01X22988Y8811D01*
G01X22988Y8811D02*
G01X22988Y12788D01*
G01X22988Y12788D02*
G01X19011Y12788D01*
G01X19011Y12788D02*
G01X19011Y8811D01*
G54D12*
G01X21000Y12059D02*
G01X20960Y12059D01*
G01X20920Y12057D01*
G01X20881Y12054D01*
G01X20842Y12049D01*
G01X20802Y12044D01*
G01X20763Y12037D01*
G01X20725Y12029D01*
G01X20686Y12020D01*
G01X20648Y12009D01*
G01X20610Y11998D01*
G01X20573Y11985D01*
G01X20536Y11971D01*
G01X20499Y11956D01*
G01X20463Y11939D01*
G01X20428Y11922D01*
G01X20393Y11904D01*
G01X20358Y11884D01*
G01X20324Y11863D01*
G01X20291Y11841D01*
G01X20259Y11819D01*
G01X20227Y11795D01*
G01X20196Y11770D01*
G01X20166Y11745D01*
G01X20137Y11718D01*
G01X20109Y11690D01*
G01X20081Y11662D01*
G01X20054Y11633D01*
G01X20029Y11603D01*
G01X20004Y11572D01*
G01X19980Y11540D01*
G01X19958Y11508D01*
G01X19936Y11475D01*
G01X19915Y11441D01*
G01X19895Y11406D01*
G01X19877Y11371D01*
G01X19860Y11336D01*
G01X19843Y11300D01*
G01X19828Y11263D01*
G01X19814Y11226D01*
G01X19801Y11189D01*
G01X19790Y11151D01*
G01X19779Y11113D01*
G01X19770Y11074D01*
G01X19762Y11036D01*
G01X19755Y10997D01*
G01X19750Y10957D01*
G01X19745Y10918D01*
G01X19742Y10879D01*
G01X19740Y10839D01*
G01X19740Y10800D01*
G01X19740Y10800D02*
G01X19740Y10760D01*
G01X19742Y10720D01*
G01X19745Y10681D01*
G01X19750Y10642D01*
G01X19755Y10602D01*
G01X19762Y10563D01*
G01X19770Y10525D01*
G01X19779Y10486D01*
G01X19790Y10448D01*
G01X19801Y10410D01*
G01X19814Y10373D01*
G01X19828Y10336D01*
G01X19843Y10299D01*
G01X19860Y10263D01*
G01X19877Y10228D01*
G01X19895Y10193D01*
G01X19915Y10158D01*
G01X19936Y10124D01*
G01X19958Y10091D01*
G01X19980Y10059D01*
G01X20004Y10027D01*
G01X20029Y9996D01*
G01X20054Y9966D01*
G01X20081Y9937D01*
G01X20109Y9909D01*
G01X20137Y9881D01*
G01X20166Y9854D01*
G01X20196Y9829D01*
G01X20227Y9804D01*
G01X20259Y9780D01*
G01X20291Y9758D01*
G01X20324Y9736D01*
G01X20358Y9715D01*
G01X20393Y9695D01*
G01X20428Y9677D01*
G01X20463Y9660D01*
G01X20499Y9643D01*
G01X20536Y9628D01*
G01X20573Y9614D01*
G01X20610Y9601D01*
G01X20648Y9590D01*
G01X20686Y9579D01*
G01X20725Y9570D01*
G01X20763Y9562D01*
G01X20802Y9555D01*
G01X20842Y9550D01*
G01X20881Y9545D01*
G01X20920Y9542D01*
G01X20960Y9540D01*
G01X21000Y9540D01*
G01X21000Y9540D02*
G01X21039Y9540D01*
G01X21079Y9542D01*
G01X21118Y9545D01*
G01X21157Y9550D01*
G01X21197Y9555D01*
G01X21236Y9562D01*
G01X21274Y9570D01*
G01X21313Y9579D01*
G01X21351Y9590D01*
G01X21389Y9601D01*
G01X21426Y9614D01*
G01X21463Y9628D01*
G01X21500Y9643D01*
G01X21536Y9660D01*
G01X21571Y9677D01*
G01X21606Y9695D01*
G01X21641Y9715D01*
G01X21675Y9736D01*
G01X21708Y9758D01*
G01X21740Y9780D01*
G01X21772Y9804D01*
G01X21803Y9829D01*
G01X21833Y9854D01*
G01X21862Y9881D01*
G01X21890Y9909D01*
G01X21918Y9937D01*
G01X21945Y9966D01*
G01X21970Y9996D01*
G01X21995Y10027D01*
G01X22019Y10059D01*
G01X22041Y10091D01*
G01X22063Y10124D01*
G01X22084Y10158D01*
G01X22104Y10193D01*
G01X22122Y10228D01*
G01X22139Y10263D01*
G01X22156Y10299D01*
G01X22171Y10336D01*
G01X22185Y10373D01*
G01X22198Y10410D01*
G01X22209Y10448D01*
G01X22220Y10486D01*
G01X22229Y10525D01*
G01X22237Y10563D01*
G01X22244Y10602D01*
G01X22249Y10642D01*
G01X22254Y10681D01*
G01X22257Y10720D01*
G01X22259Y10760D01*
G01X22259Y10800D01*
G01X22259Y10800D02*
G01X22259Y10839D01*
G01X22257Y10879D01*
G01X22254Y10918D01*
G01X22249Y10957D01*
G01X22244Y10997D01*
G01X22237Y11036D01*
G01X22229Y11074D01*
G01X22220Y11113D01*
G01X22209Y11151D01*
G01X22198Y11189D01*
G01X22185Y11226D01*
G01X22171Y11263D01*
G01X22156Y11300D01*
G01X22139Y11336D01*
G01X22122Y11371D01*
G01X22104Y11406D01*
G01X22084Y11441D01*
G01X22063Y11475D01*
G01X22041Y11508D01*
G01X22019Y11540D01*
G01X21995Y11572D01*
G01X21970Y11603D01*
G01X21945Y11633D01*
G01X21918Y11662D01*
G01X21890Y11690D01*
G01X21862Y11718D01*
G01X21833Y11745D01*
G01X21803Y11770D01*
G01X21772Y11795D01*
G01X21740Y11819D01*
G01X21708Y11841D01*
G01X21675Y11863D01*
G01X21641Y11884D01*
G01X21606Y11904D01*
G01X21571Y11922D01*
G01X21536Y11939D01*
G01X21500Y11956D01*
G01X21463Y11971D01*
G01X21426Y11985D01*
G01X21389Y11998D01*
G01X21351Y12009D01*
G01X21313Y12020D01*
G01X21274Y12029D01*
G01X21236Y12037D01*
G01X21197Y12044D01*
G01X21157Y12049D01*
G01X21118Y12054D01*
G01X21079Y12057D01*
G01X21039Y12059D01*
G01X21000Y12059D01*
G01X21000Y12059D02*
G01X21000Y12059D01*
G01X21000Y10839D02*
G01X20960Y10800D01*
G01X20960Y10800D02*
G01X21000Y10760D01*
G01X21000Y10760D02*
G01X21039Y10800D01*
G01X21039Y10800D02*
G01X21000Y10839D01*
G04 draw reference designator for part S3*
G54D10*
G01X20872Y8554D02*
G01X20918Y8509D01*
G01X20804Y8577D02*
G01X20872Y8554D01*
G01X20713Y8577D02*
G01X20804Y8577D01*
G01X20713Y8577D02*
G01X20645Y8554D01*
G01X20645Y8554D02*
G01X20600Y8509D01*
G01X20600Y8509D02*
G01X20600Y8463D01*
G01X20600Y8463D02*
G01X20622Y8418D01*
G01X20622Y8418D02*
G01X20645Y8395D01*
G01X20645Y8395D02*
G01X20690Y8372D01*
G01X20690Y8372D02*
G01X20827Y8327D01*
G01X20827Y8327D02*
G01X20872Y8304D01*
G01X20872Y8304D02*
G01X20895Y8281D01*
G01X20895Y8281D02*
G01X20918Y8236D01*
G01X20918Y8236D02*
G01X20918Y8168D01*
G01X20918Y8168D02*
G01X20872Y8122D01*
G01X20872Y8122D02*
G01X20804Y8100D01*
G01X20713Y8100D02*
G01X20804Y8100D01*
G01X20645Y8122D02*
G01X20713Y8100D01*
G01X20600Y8168D02*
G01X20645Y8122D01*
G01X21395Y8577D02*
G01X21145Y8577D01*
G01X21395Y8577D02*
G01X21259Y8395D01*
G01X21327Y8395D02*
G01X21259Y8395D01*
G01X21327Y8395D02*
G01X21372Y8372D01*
G01X21372Y8372D02*
G01X21395Y8350D01*
G01X21395Y8350D02*
G01X21418Y8281D01*
G01X21418Y8281D02*
G01X21418Y8236D01*
G01X21418Y8236D02*
G01X21395Y8168D01*
G01X21395Y8168D02*
G01X21350Y8122D01*
G01X21350Y8122D02*
G01X21281Y8100D01*
G01X21213Y8100D02*
G01X21281Y8100D01*
G01X21145Y8122D02*
G01X21213Y8100D01*
G01X21122Y8145D02*
G01X21145Y8122D01*
G01X21100Y8190D02*
G01X21122Y8145D01*
G04 Draw part S5*
G04 draw part outline for part S5*
G54D11*
G01X33011Y8811D02*
G01X36988Y8811D01*
G01X36988Y8811D02*
G01X36988Y12788D01*
G01X36988Y12788D02*
G01X33011Y12788D01*
G01X33011Y12788D02*
G01X33011Y8811D01*
G54D12*
G01X35000Y12059D02*
G01X34960Y12059D01*
G01X34920Y12057D01*
G01X34881Y12054D01*
G01X34842Y12049D01*
G01X34802Y12044D01*
G01X34763Y12037D01*
G01X34725Y12029D01*
G01X34686Y12020D01*
G01X34648Y12009D01*
G01X34610Y11998D01*
G01X34573Y11985D01*
G01X34536Y11971D01*
G01X34499Y11956D01*
G01X34463Y11939D01*
G01X34428Y11922D01*
G01X34393Y11904D01*
G01X34358Y11884D01*
G01X34324Y11863D01*
G01X34291Y11841D01*
G01X34259Y11819D01*
G01X34227Y11795D01*
G01X34196Y11770D01*
G01X34166Y11745D01*
G01X34137Y11718D01*
G01X34109Y11690D01*
G01X34081Y11662D01*
G01X34054Y11633D01*
G01X34029Y11603D01*
G01X34004Y11572D01*
G01X33980Y11540D01*
G01X33958Y11508D01*
G01X33936Y11475D01*
G01X33915Y11441D01*
G01X33895Y11406D01*
G01X33877Y11371D01*
G01X33860Y11336D01*
G01X33843Y11300D01*
G01X33828Y11263D01*
G01X33814Y11226D01*
G01X33801Y11189D01*
G01X33790Y11151D01*
G01X33779Y11113D01*
G01X33770Y11074D01*
G01X33762Y11036D01*
G01X33755Y10997D01*
G01X33750Y10957D01*
G01X33745Y10918D01*
G01X33742Y10879D01*
G01X33740Y10839D01*
G01X33740Y10800D01*
G01X33740Y10800D02*
G01X33740Y10760D01*
G01X33742Y10720D01*
G01X33745Y10681D01*
G01X33750Y10642D01*
G01X33755Y10602D01*
G01X33762Y10563D01*
G01X33770Y10525D01*
G01X33779Y10486D01*
G01X33790Y10448D01*
G01X33801Y10410D01*
G01X33814Y10373D01*
G01X33828Y10336D01*
G01X33843Y10299D01*
G01X33860Y10263D01*
G01X33877Y10228D01*
G01X33895Y10193D01*
G01X33915Y10158D01*
G01X33936Y10124D01*
G01X33958Y10091D01*
G01X33980Y10059D01*
G01X34004Y10027D01*
G01X34029Y9996D01*
G01X34054Y9966D01*
G01X34081Y9937D01*
G01X34109Y9909D01*
G01X34137Y9881D01*
G01X34166Y9854D01*
G01X34196Y9829D01*
G01X34227Y9804D01*
G01X34259Y9780D01*
G01X34291Y9758D01*
G01X34324Y9736D01*
G01X34358Y9715D01*
G01X34393Y9695D01*
G01X34428Y9677D01*
G01X34463Y9660D01*
G01X34499Y9643D01*
G01X34536Y9628D01*
G01X34573Y9614D01*
G01X34610Y9601D01*
G01X34648Y9590D01*
G01X34686Y9579D01*
G01X34725Y9570D01*
G01X34763Y9562D01*
G01X34802Y9555D01*
G01X34842Y9550D01*
G01X34881Y9545D01*
G01X34920Y9542D01*
G01X34960Y9540D01*
G01X35000Y9540D01*
G01X35000Y9540D02*
G01X35039Y9540D01*
G01X35079Y9542D01*
G01X35118Y9545D01*
G01X35157Y9550D01*
G01X35197Y9555D01*
G01X35236Y9562D01*
G01X35274Y9570D01*
G01X35313Y9579D01*
G01X35351Y9590D01*
G01X35389Y9601D01*
G01X35426Y9614D01*
G01X35463Y9628D01*
G01X35500Y9643D01*
G01X35536Y9660D01*
G01X35571Y9677D01*
G01X35606Y9695D01*
G01X35641Y9715D01*
G01X35675Y9736D01*
G01X35708Y9758D01*
G01X35740Y9780D01*
G01X35772Y9804D01*
G01X35803Y9829D01*
G01X35833Y9854D01*
G01X35862Y9881D01*
G01X35890Y9909D01*
G01X35918Y9937D01*
G01X35945Y9966D01*
G01X35970Y9996D01*
G01X35995Y10027D01*
G01X36019Y10059D01*
G01X36041Y10091D01*
G01X36063Y10124D01*
G01X36084Y10158D01*
G01X36104Y10193D01*
G01X36122Y10228D01*
G01X36139Y10263D01*
G01X36156Y10299D01*
G01X36171Y10336D01*
G01X36185Y10373D01*
G01X36198Y10410D01*
G01X36209Y10448D01*
G01X36220Y10486D01*
G01X36229Y10525D01*
G01X36237Y10563D01*
G01X36244Y10602D01*
G01X36249Y10642D01*
G01X36254Y10681D01*
G01X36257Y10720D01*
G01X36259Y10760D01*
G01X36259Y10800D01*
G01X36259Y10800D02*
G01X36259Y10839D01*
G01X36257Y10879D01*
G01X36254Y10918D01*
G01X36249Y10957D01*
G01X36244Y10997D01*
G01X36237Y11036D01*
G01X36229Y11074D01*
G01X36220Y11113D01*
G01X36209Y11151D01*
G01X36198Y11189D01*
G01X36185Y11226D01*
G01X36171Y11263D01*
G01X36156Y11300D01*
G01X36139Y11336D01*
G01X36122Y11371D01*
G01X36104Y11406D01*
G01X36084Y11441D01*
G01X36063Y11475D01*
G01X36041Y11508D01*
G01X36019Y11540D01*
G01X35995Y11572D01*
G01X35970Y11603D01*
G01X35945Y11633D01*
G01X35918Y11662D01*
G01X35890Y11690D01*
G01X35862Y11718D01*
G01X35833Y11745D01*
G01X35803Y11770D01*
G01X35772Y11795D01*
G01X35740Y11819D01*
G01X35708Y11841D01*
G01X35675Y11863D01*
G01X35641Y11884D01*
G01X35606Y11904D01*
G01X35571Y11922D01*
G01X35536Y11939D01*
G01X35500Y11956D01*
G01X35463Y11971D01*
G01X35426Y11985D01*
G01X35389Y11998D01*
G01X35351Y12009D01*
G01X35313Y12020D01*
G01X35274Y12029D01*
G01X35236Y12037D01*
G01X35197Y12044D01*
G01X35157Y12049D01*
G01X35118Y12054D01*
G01X35079Y12057D01*
G01X35039Y12059D01*
G01X35000Y12059D01*
G01X35000Y12059D02*
G01X35000Y12059D01*
G01X35000Y10839D02*
G01X34960Y10800D01*
G01X34960Y10800D02*
G01X35000Y10760D01*
G01X35000Y10760D02*
G01X35039Y10800D01*
G01X35039Y10800D02*
G01X35000Y10839D01*
G04 draw reference designator for part S5*
G54D10*
G01X34972Y8554D02*
G01X35018Y8509D01*
G01X34904Y8577D02*
G01X34972Y8554D01*
G01X34813Y8577D02*
G01X34904Y8577D01*
G01X34813Y8577D02*
G01X34745Y8554D01*
G01X34745Y8554D02*
G01X34700Y8509D01*
G01X34700Y8509D02*
G01X34700Y8463D01*
G01X34700Y8463D02*
G01X34722Y8418D01*
G01X34722Y8418D02*
G01X34745Y8395D01*
G01X34745Y8395D02*
G01X34790Y8372D01*
G01X34790Y8372D02*
G01X34927Y8327D01*
G01X34927Y8327D02*
G01X34972Y8304D01*
G01X34972Y8304D02*
G01X34995Y8281D01*
G01X34995Y8281D02*
G01X35018Y8236D01*
G01X35018Y8236D02*
G01X35018Y8168D01*
G01X35018Y8168D02*
G01X34972Y8122D01*
G01X34972Y8122D02*
G01X34904Y8100D01*
G01X34813Y8100D02*
G01X34904Y8100D01*
G01X34745Y8122D02*
G01X34813Y8100D01*
G01X34700Y8168D02*
G01X34745Y8122D01*
G01X35245Y8577D02*
G01X35472Y8577D01*
G01X35245Y8577D02*
G01X35222Y8372D01*
G01X35245Y8395D02*
G01X35222Y8372D01*
G01X35313Y8418D02*
G01X35245Y8395D01*
G01X35381Y8418D02*
G01X35313Y8418D01*
G01X35381Y8418D02*
G01X35450Y8395D01*
G01X35450Y8395D02*
G01X35495Y8350D01*
G01X35495Y8350D02*
G01X35518Y8281D01*
G01X35518Y8281D02*
G01X35518Y8236D01*
G01X35518Y8236D02*
G01X35495Y8168D01*
G01X35495Y8168D02*
G01X35450Y8122D01*
G01X35450Y8122D02*
G01X35381Y8100D01*
G01X35313Y8100D02*
G01X35381Y8100D01*
G01X35245Y8122D02*
G01X35313Y8100D01*
G01X35222Y8145D02*
G01X35245Y8122D01*
G01X35200Y8190D02*
G01X35222Y8145D01*
G04 Draw part S4*
G04 draw part outline for part S4*
G54D11*
G01X26011Y8811D02*
G01X29988Y8811D01*
G01X29988Y8811D02*
G01X29988Y12788D01*
G01X29988Y12788D02*
G01X26011Y12788D01*
G01X26011Y12788D02*
G01X26011Y8811D01*
G54D12*
G01X28000Y12059D02*
G01X27960Y12059D01*
G01X27920Y12057D01*
G01X27881Y12054D01*
G01X27842Y12049D01*
G01X27802Y12044D01*
G01X27763Y12037D01*
G01X27725Y12029D01*
G01X27686Y12020D01*
G01X27648Y12009D01*
G01X27610Y11998D01*
G01X27573Y11985D01*
G01X27536Y11971D01*
G01X27499Y11956D01*
G01X27463Y11939D01*
G01X27428Y11922D01*
G01X27393Y11904D01*
G01X27358Y11884D01*
G01X27324Y11863D01*
G01X27291Y11841D01*
G01X27259Y11819D01*
G01X27227Y11795D01*
G01X27196Y11770D01*
G01X27166Y11745D01*
G01X27137Y11718D01*
G01X27109Y11690D01*
G01X27081Y11662D01*
G01X27054Y11633D01*
G01X27029Y11603D01*
G01X27004Y11572D01*
G01X26980Y11540D01*
G01X26958Y11508D01*
G01X26936Y11475D01*
G01X26915Y11441D01*
G01X26895Y11406D01*
G01X26877Y11371D01*
G01X26860Y11336D01*
G01X26843Y11300D01*
G01X26828Y11263D01*
G01X26814Y11226D01*
G01X26801Y11189D01*
G01X26790Y11151D01*
G01X26779Y11113D01*
G01X26770Y11074D01*
G01X26762Y11036D01*
G01X26755Y10997D01*
G01X26750Y10957D01*
G01X26745Y10918D01*
G01X26742Y10879D01*
G01X26740Y10839D01*
G01X26740Y10800D01*
G01X26740Y10800D02*
G01X26740Y10760D01*
G01X26742Y10720D01*
G01X26745Y10681D01*
G01X26750Y10642D01*
G01X26755Y10602D01*
G01X26762Y10563D01*
G01X26770Y10525D01*
G01X26779Y10486D01*
G01X26790Y10448D01*
G01X26801Y10410D01*
G01X26814Y10373D01*
G01X26828Y10336D01*
G01X26843Y10299D01*
G01X26860Y10263D01*
G01X26877Y10228D01*
G01X26895Y10193D01*
G01X26915Y10158D01*
G01X26936Y10124D01*
G01X26958Y10091D01*
G01X26980Y10059D01*
G01X27004Y10027D01*
G01X27029Y9996D01*
G01X27054Y9966D01*
G01X27081Y9937D01*
G01X27109Y9909D01*
G01X27137Y9881D01*
G01X27166Y9854D01*
G01X27196Y9829D01*
G01X27227Y9804D01*
G01X27259Y9780D01*
G01X27291Y9758D01*
G01X27324Y9736D01*
G01X27358Y9715D01*
G01X27393Y9695D01*
G01X27428Y9677D01*
G01X27463Y9660D01*
G01X27499Y9643D01*
G01X27536Y9628D01*
G01X27573Y9614D01*
G01X27610Y9601D01*
G01X27648Y9590D01*
G01X27686Y9579D01*
G01X27725Y9570D01*
G01X27763Y9562D01*
G01X27802Y9555D01*
G01X27842Y9550D01*
G01X27881Y9545D01*
G01X27920Y9542D01*
G01X27960Y9540D01*
G01X28000Y9540D01*
G01X28000Y9540D02*
G01X28039Y9540D01*
G01X28079Y9542D01*
G01X28118Y9545D01*
G01X28157Y9550D01*
G01X28197Y9555D01*
G01X28236Y9562D01*
G01X28274Y9570D01*
G01X28313Y9579D01*
G01X28351Y9590D01*
G01X28389Y9601D01*
G01X28426Y9614D01*
G01X28463Y9628D01*
G01X28500Y9643D01*
G01X28536Y9660D01*
G01X28571Y9677D01*
G01X28606Y9695D01*
G01X28641Y9715D01*
G01X28675Y9736D01*
G01X28708Y9758D01*
G01X28740Y9780D01*
G01X28772Y9804D01*
G01X28803Y9829D01*
G01X28833Y9854D01*
G01X28862Y9881D01*
G01X28890Y9909D01*
G01X28918Y9937D01*
G01X28945Y9966D01*
G01X28970Y9996D01*
G01X28995Y10027D01*
G01X29019Y10059D01*
G01X29041Y10091D01*
G01X29063Y10124D01*
G01X29084Y10158D01*
G01X29104Y10193D01*
G01X29122Y10228D01*
G01X29139Y10263D01*
G01X29156Y10299D01*
G01X29171Y10336D01*
G01X29185Y10373D01*
G01X29198Y10410D01*
G01X29209Y10448D01*
G01X29220Y10486D01*
G01X29229Y10525D01*
G01X29237Y10563D01*
G01X29244Y10602D01*
G01X29249Y10642D01*
G01X29254Y10681D01*
G01X29257Y10720D01*
G01X29259Y10760D01*
G01X29259Y10800D01*
G01X29259Y10800D02*
G01X29259Y10839D01*
G01X29257Y10879D01*
G01X29254Y10918D01*
G01X29249Y10957D01*
G01X29244Y10997D01*
G01X29237Y11036D01*
G01X29229Y11074D01*
G01X29220Y11113D01*
G01X29209Y11151D01*
G01X29198Y11189D01*
G01X29185Y11226D01*
G01X29171Y11263D01*
G01X29156Y11300D01*
G01X29139Y11336D01*
G01X29122Y11371D01*
G01X29104Y11406D01*
G01X29084Y11441D01*
G01X29063Y11475D01*
G01X29041Y11508D01*
G01X29019Y11540D01*
G01X28995Y11572D01*
G01X28970Y11603D01*
G01X28945Y11633D01*
G01X28918Y11662D01*
G01X28890Y11690D01*
G01X28862Y11718D01*
G01X28833Y11745D01*
G01X28803Y11770D01*
G01X28772Y11795D01*
G01X28740Y11819D01*
G01X28708Y11841D01*
G01X28675Y11863D01*
G01X28641Y11884D01*
G01X28606Y11904D01*
G01X28571Y11922D01*
G01X28536Y11939D01*
G01X28500Y11956D01*
G01X28463Y11971D01*
G01X28426Y11985D01*
G01X28389Y11998D01*
G01X28351Y12009D01*
G01X28313Y12020D01*
G01X28274Y12029D01*
G01X28236Y12037D01*
G01X28197Y12044D01*
G01X28157Y12049D01*
G01X28118Y12054D01*
G01X28079Y12057D01*
G01X28039Y12059D01*
G01X28000Y12059D01*
G01X28000Y12059D02*
G01X28000Y12059D01*
G01X28000Y10839D02*
G01X27960Y10800D01*
G01X27960Y10800D02*
G01X28000Y10760D01*
G01X28000Y10760D02*
G01X28039Y10800D01*
G01X28039Y10800D02*
G01X28000Y10839D01*
G04 draw reference designator for part S4*
G54D10*
G01X27872Y8554D02*
G01X27918Y8509D01*
G01X27804Y8577D02*
G01X27872Y8554D01*
G01X27713Y8577D02*
G01X27804Y8577D01*
G01X27713Y8577D02*
G01X27645Y8554D01*
G01X27645Y8554D02*
G01X27600Y8509D01*
G01X27600Y8509D02*
G01X27600Y8463D01*
G01X27600Y8463D02*
G01X27622Y8418D01*
G01X27622Y8418D02*
G01X27645Y8395D01*
G01X27645Y8395D02*
G01X27690Y8372D01*
G01X27690Y8372D02*
G01X27827Y8327D01*
G01X27827Y8327D02*
G01X27872Y8304D01*
G01X27872Y8304D02*
G01X27895Y8281D01*
G01X27895Y8281D02*
G01X27918Y8236D01*
G01X27918Y8236D02*
G01X27918Y8168D01*
G01X27918Y8168D02*
G01X27872Y8122D01*
G01X27872Y8122D02*
G01X27804Y8100D01*
G01X27713Y8100D02*
G01X27804Y8100D01*
G01X27645Y8122D02*
G01X27713Y8100D01*
G01X27600Y8168D02*
G01X27645Y8122D01*
G01X28327Y8577D02*
G01X28100Y8259D01*
G01X28440Y8259D02*
G01X28100Y8259D01*
G01X28327Y8577D02*
G01X28327Y8100D01*
G04 Draw part S6*
G04 draw part outline for part S6*
G54D11*
G01X40011Y8811D02*
G01X43988Y8811D01*
G01X43988Y8811D02*
G01X43988Y12788D01*
G01X43988Y12788D02*
G01X40011Y12788D01*
G01X40011Y12788D02*
G01X40011Y8811D01*
G54D12*
G01X42000Y12059D02*
G01X41960Y12059D01*
G01X41920Y12057D01*
G01X41881Y12054D01*
G01X41842Y12049D01*
G01X41802Y12044D01*
G01X41763Y12037D01*
G01X41725Y12029D01*
G01X41686Y12020D01*
G01X41648Y12009D01*
G01X41610Y11998D01*
G01X41573Y11985D01*
G01X41536Y11971D01*
G01X41499Y11956D01*
G01X41463Y11939D01*
G01X41428Y11922D01*
G01X41393Y11904D01*
G01X41358Y11884D01*
G01X41324Y11863D01*
G01X41291Y11841D01*
G01X41259Y11819D01*
G01X41227Y11795D01*
G01X41196Y11770D01*
G01X41166Y11745D01*
G01X41137Y11718D01*
G01X41109Y11690D01*
G01X41081Y11662D01*
G01X41054Y11633D01*
G01X41029Y11603D01*
G01X41004Y11572D01*
G01X40980Y11540D01*
G01X40958Y11508D01*
G01X40936Y11475D01*
G01X40915Y11441D01*
G01X40895Y11406D01*
G01X40877Y11371D01*
G01X40860Y11336D01*
G01X40843Y11300D01*
G01X40828Y11263D01*
G01X40814Y11226D01*
G01X40801Y11189D01*
G01X40790Y11151D01*
G01X40779Y11113D01*
G01X40770Y11074D01*
G01X40762Y11036D01*
G01X40755Y10997D01*
G01X40750Y10957D01*
G01X40745Y10918D01*
G01X40742Y10879D01*
G01X40740Y10839D01*
G01X40740Y10800D01*
G01X40740Y10800D02*
G01X40740Y10760D01*
G01X40742Y10720D01*
G01X40745Y10681D01*
G01X40750Y10642D01*
G01X40755Y10602D01*
G01X40762Y10563D01*
G01X40770Y10525D01*
G01X40779Y10486D01*
G01X40790Y10448D01*
G01X40801Y10410D01*
G01X40814Y10373D01*
G01X40828Y10336D01*
G01X40843Y10299D01*
G01X40860Y10263D01*
G01X40877Y10228D01*
G01X40895Y10193D01*
G01X40915Y10158D01*
G01X40936Y10124D01*
G01X40958Y10091D01*
G01X40980Y10059D01*
G01X41004Y10027D01*
G01X41029Y9996D01*
G01X41054Y9966D01*
G01X41081Y9937D01*
G01X41109Y9909D01*
G01X41137Y9881D01*
G01X41166Y9854D01*
G01X41196Y9829D01*
G01X41227Y9804D01*
G01X41259Y9780D01*
G01X41291Y9758D01*
G01X41324Y9736D01*
G01X41358Y9715D01*
G01X41393Y9695D01*
G01X41428Y9677D01*
G01X41463Y9660D01*
G01X41499Y9643D01*
G01X41536Y9628D01*
G01X41573Y9614D01*
G01X41610Y9601D01*
G01X41648Y9590D01*
G01X41686Y9579D01*
G01X41725Y9570D01*
G01X41763Y9562D01*
G01X41802Y9555D01*
G01X41842Y9550D01*
G01X41881Y9545D01*
G01X41920Y9542D01*
G01X41960Y9540D01*
G01X42000Y9540D01*
G01X42000Y9540D02*
G01X42039Y9540D01*
G01X42079Y9542D01*
G01X42118Y9545D01*
G01X42157Y9550D01*
G01X42197Y9555D01*
G01X42236Y9562D01*
G01X42274Y9570D01*
G01X42313Y9579D01*
G01X42351Y9590D01*
G01X42389Y9601D01*
G01X42426Y9614D01*
G01X42463Y9628D01*
G01X42500Y9643D01*
G01X42536Y9660D01*
G01X42571Y9677D01*
G01X42606Y9695D01*
G01X42641Y9715D01*
G01X42675Y9736D01*
G01X42708Y9758D01*
G01X42740Y9780D01*
G01X42772Y9804D01*
G01X42803Y9829D01*
G01X42833Y9854D01*
G01X42862Y9881D01*
G01X42890Y9909D01*
G01X42918Y9937D01*
G01X42945Y9966D01*
G01X42970Y9996D01*
G01X42995Y10027D01*
G01X43019Y10059D01*
G01X43041Y10091D01*
G01X43063Y10124D01*
G01X43084Y10158D01*
G01X43104Y10193D01*
G01X43122Y10228D01*
G01X43139Y10263D01*
G01X43156Y10299D01*
G01X43171Y10336D01*
G01X43185Y10373D01*
G01X43198Y10410D01*
G01X43209Y10448D01*
G01X43220Y10486D01*
G01X43229Y10525D01*
G01X43237Y10563D01*
G01X43244Y10602D01*
G01X43249Y10642D01*
G01X43254Y10681D01*
G01X43257Y10720D01*
G01X43259Y10760D01*
G01X43259Y10800D01*
G01X43259Y10800D02*
G01X43259Y10839D01*
G01X43257Y10879D01*
G01X43254Y10918D01*
G01X43249Y10957D01*
G01X43244Y10997D01*
G01X43237Y11036D01*
G01X43229Y11074D01*
G01X43220Y11113D01*
G01X43209Y11151D01*
G01X43198Y11189D01*
G01X43185Y11226D01*
G01X43171Y11263D01*
G01X43156Y11300D01*
G01X43139Y11336D01*
G01X43122Y11371D01*
G01X43104Y11406D01*
G01X43084Y11441D01*
G01X43063Y11475D01*
G01X43041Y11508D01*
G01X43019Y11540D01*
G01X42995Y11572D01*
G01X42970Y11603D01*
G01X42945Y11633D01*
G01X42918Y11662D01*
G01X42890Y11690D01*
G01X42862Y11718D01*
G01X42833Y11745D01*
G01X42803Y11770D01*
G01X42772Y11795D01*
G01X42740Y11819D01*
G01X42708Y11841D01*
G01X42675Y11863D01*
G01X42641Y11884D01*
G01X42606Y11904D01*
G01X42571Y11922D01*
G01X42536Y11939D01*
G01X42500Y11956D01*
G01X42463Y11971D01*
G01X42426Y11985D01*
G01X42389Y11998D01*
G01X42351Y12009D01*
G01X42313Y12020D01*
G01X42274Y12029D01*
G01X42236Y12037D01*
G01X42197Y12044D01*
G01X42157Y12049D01*
G01X42118Y12054D01*
G01X42079Y12057D01*
G01X42039Y12059D01*
G01X42000Y12059D01*
G01X42000Y12059D02*
G01X42000Y12059D01*
G01X42000Y10839D02*
G01X41960Y10800D01*
G01X41960Y10800D02*
G01X42000Y10760D01*
G01X42000Y10760D02*
G01X42039Y10800D01*
G01X42039Y10800D02*
G01X42000Y10839D01*
G04 draw reference designator for part S6*
G54D10*
G01X41772Y8554D02*
G01X41818Y8509D01*
G01X41704Y8577D02*
G01X41772Y8554D01*
G01X41613Y8577D02*
G01X41704Y8577D01*
G01X41613Y8577D02*
G01X41545Y8554D01*
G01X41545Y8554D02*
G01X41500Y8509D01*
G01X41500Y8509D02*
G01X41500Y8463D01*
G01X41500Y8463D02*
G01X41522Y8418D01*
G01X41522Y8418D02*
G01X41545Y8395D01*
G01X41545Y8395D02*
G01X41590Y8372D01*
G01X41590Y8372D02*
G01X41727Y8327D01*
G01X41727Y8327D02*
G01X41772Y8304D01*
G01X41772Y8304D02*
G01X41795Y8281D01*
G01X41795Y8281D02*
G01X41818Y8236D01*
G01X41818Y8236D02*
G01X41818Y8168D01*
G01X41818Y8168D02*
G01X41772Y8122D01*
G01X41772Y8122D02*
G01X41704Y8100D01*
G01X41613Y8100D02*
G01X41704Y8100D01*
G01X41545Y8122D02*
G01X41613Y8100D01*
G01X41500Y8168D02*
G01X41545Y8122D01*
G01X42250Y8554D02*
G01X42272Y8509D01*
G01X42181Y8577D02*
G01X42250Y8554D01*
G01X42136Y8577D02*
G01X42181Y8577D01*
G01X42136Y8577D02*
G01X42068Y8554D01*
G01X42068Y8554D02*
G01X42022Y8486D01*
G01X42022Y8486D02*
G01X42000Y8372D01*
G01X42000Y8372D02*
G01X42000Y8259D01*
G01X42000Y8259D02*
G01X42022Y8168D01*
G01X42022Y8168D02*
G01X42068Y8122D01*
G01X42068Y8122D02*
G01X42136Y8100D01*
G01X42159Y8100D02*
G01X42136Y8100D01*
G01X42227Y8122D02*
G01X42159Y8100D01*
G01X42272Y8168D02*
G01X42227Y8122D01*
G01X42295Y8236D02*
G01X42272Y8168D01*
G01X42295Y8259D02*
G01X42295Y8236D01*
G01X42272Y8327D02*
G01X42295Y8259D01*
G01X42227Y8372D02*
G01X42272Y8327D01*
G01X42159Y8395D02*
G01X42227Y8372D01*
G01X42136Y8395D02*
G01X42159Y8395D01*
G01X42136Y8395D02*
G01X42068Y8372D01*
G01X42068Y8372D02*
G01X42022Y8327D01*
G01X42022Y8327D02*
G01X42000Y8259D01*
G04 Draw part S7*
G04 draw part outline for part S7*
G54D11*
G01X47011Y8811D02*
G01X50988Y8811D01*
G01X50988Y8811D02*
G01X50988Y12788D01*
G01X50988Y12788D02*
G01X47011Y12788D01*
G01X47011Y12788D02*
G01X47011Y8811D01*
G54D12*
G01X49000Y12059D02*
G01X48960Y12059D01*
G01X48920Y12057D01*
G01X48881Y12054D01*
G01X48842Y12049D01*
G01X48802Y12044D01*
G01X48763Y12037D01*
G01X48725Y12029D01*
G01X48686Y12020D01*
G01X48648Y12009D01*
G01X48610Y11998D01*
G01X48573Y11985D01*
G01X48536Y11971D01*
G01X48499Y11956D01*
G01X48463Y11939D01*
G01X48428Y11922D01*
G01X48393Y11904D01*
G01X48358Y11884D01*
G01X48324Y11863D01*
G01X48291Y11841D01*
G01X48259Y11819D01*
G01X48227Y11795D01*
G01X48196Y11770D01*
G01X48166Y11745D01*
G01X48137Y11718D01*
G01X48109Y11690D01*
G01X48081Y11662D01*
G01X48054Y11633D01*
G01X48029Y11603D01*
G01X48004Y11572D01*
G01X47980Y11540D01*
G01X47958Y11508D01*
G01X47936Y11475D01*
G01X47915Y11441D01*
G01X47895Y11406D01*
G01X47877Y11371D01*
G01X47860Y11336D01*
G01X47843Y11300D01*
G01X47828Y11263D01*
G01X47814Y11226D01*
G01X47801Y11189D01*
G01X47790Y11151D01*
G01X47779Y11113D01*
G01X47770Y11074D01*
G01X47762Y11036D01*
G01X47755Y10997D01*
G01X47750Y10957D01*
G01X47745Y10918D01*
G01X47742Y10879D01*
G01X47740Y10839D01*
G01X47740Y10800D01*
G01X47740Y10800D02*
G01X47740Y10760D01*
G01X47742Y10720D01*
G01X47745Y10681D01*
G01X47750Y10642D01*
G01X47755Y10602D01*
G01X47762Y10563D01*
G01X47770Y10525D01*
G01X47779Y10486D01*
G01X47790Y10448D01*
G01X47801Y10410D01*
G01X47814Y10373D01*
G01X47828Y10336D01*
G01X47843Y10299D01*
G01X47860Y10263D01*
G01X47877Y10228D01*
G01X47895Y10193D01*
G01X47915Y10158D01*
G01X47936Y10124D01*
G01X47958Y10091D01*
G01X47980Y10059D01*
G01X48004Y10027D01*
G01X48029Y9996D01*
G01X48054Y9966D01*
G01X48081Y9937D01*
G01X48109Y9909D01*
G01X48137Y9881D01*
G01X48166Y9854D01*
G01X48196Y9829D01*
G01X48227Y9804D01*
G01X48259Y9780D01*
G01X48291Y9758D01*
G01X48324Y9736D01*
G01X48358Y9715D01*
G01X48393Y9695D01*
G01X48428Y9677D01*
G01X48463Y9660D01*
G01X48499Y9643D01*
G01X48536Y9628D01*
G01X48573Y9614D01*
G01X48610Y9601D01*
G01X48648Y9590D01*
G01X48686Y9579D01*
G01X48725Y9570D01*
G01X48763Y9562D01*
G01X48802Y9555D01*
G01X48842Y9550D01*
G01X48881Y9545D01*
G01X48920Y9542D01*
G01X48960Y9540D01*
G01X49000Y9540D01*
G01X49000Y9540D02*
G01X49039Y9540D01*
G01X49079Y9542D01*
G01X49118Y9545D01*
G01X49157Y9550D01*
G01X49197Y9555D01*
G01X49236Y9562D01*
G01X49274Y9570D01*
G01X49313Y9579D01*
G01X49351Y9590D01*
G01X49389Y9601D01*
G01X49426Y9614D01*
G01X49463Y9628D01*
G01X49500Y9643D01*
G01X49536Y9660D01*
G01X49571Y9677D01*
G01X49606Y9695D01*
G01X49641Y9715D01*
G01X49675Y9736D01*
G01X49708Y9758D01*
G01X49740Y9780D01*
G01X49772Y9804D01*
G01X49803Y9829D01*
G01X49833Y9854D01*
G01X49862Y9881D01*
G01X49890Y9909D01*
G01X49918Y9937D01*
G01X49945Y9966D01*
G01X49970Y9996D01*
G01X49995Y10027D01*
G01X50019Y10059D01*
G01X50041Y10091D01*
G01X50063Y10124D01*
G01X50084Y10158D01*
G01X50104Y10193D01*
G01X50122Y10228D01*
G01X50139Y10263D01*
G01X50156Y10299D01*
G01X50171Y10336D01*
G01X50185Y10373D01*
G01X50198Y10410D01*
G01X50209Y10448D01*
G01X50220Y10486D01*
G01X50229Y10525D01*
G01X50237Y10563D01*
G01X50244Y10602D01*
G01X50249Y10642D01*
G01X50254Y10681D01*
G01X50257Y10720D01*
G01X50259Y10760D01*
G01X50259Y10800D01*
G01X50259Y10800D02*
G01X50259Y10839D01*
G01X50257Y10879D01*
G01X50254Y10918D01*
G01X50249Y10957D01*
G01X50244Y10997D01*
G01X50237Y11036D01*
G01X50229Y11074D01*
G01X50220Y11113D01*
G01X50209Y11151D01*
G01X50198Y11189D01*
G01X50185Y11226D01*
G01X50171Y11263D01*
G01X50156Y11300D01*
G01X50139Y11336D01*
G01X50122Y11371D01*
G01X50104Y11406D01*
G01X50084Y11441D01*
G01X50063Y11475D01*
G01X50041Y11508D01*
G01X50019Y11540D01*
G01X49995Y11572D01*
G01X49970Y11603D01*
G01X49945Y11633D01*
G01X49918Y11662D01*
G01X49890Y11690D01*
G01X49862Y11718D01*
G01X49833Y11745D01*
G01X49803Y11770D01*
G01X49772Y11795D01*
G01X49740Y11819D01*
G01X49708Y11841D01*
G01X49675Y11863D01*
G01X49641Y11884D01*
G01X49606Y11904D01*
G01X49571Y11922D01*
G01X49536Y11939D01*
G01X49500Y11956D01*
G01X49463Y11971D01*
G01X49426Y11985D01*
G01X49389Y11998D01*
G01X49351Y12009D01*
G01X49313Y12020D01*
G01X49274Y12029D01*
G01X49236Y12037D01*
G01X49197Y12044D01*
G01X49157Y12049D01*
G01X49118Y12054D01*
G01X49079Y12057D01*
G01X49039Y12059D01*
G01X49000Y12059D01*
G01X49000Y12059D02*
G01X49000Y12059D01*
G01X49000Y10839D02*
G01X48960Y10800D01*
G01X48960Y10800D02*
G01X49000Y10760D01*
G01X49000Y10760D02*
G01X49039Y10800D01*
G01X49039Y10800D02*
G01X49000Y10839D01*
G04 draw reference designator for part S7*
G54D10*
G01X48772Y8554D02*
G01X48818Y8509D01*
G01X48704Y8577D02*
G01X48772Y8554D01*
G01X48613Y8577D02*
G01X48704Y8577D01*
G01X48613Y8577D02*
G01X48545Y8554D01*
G01X48545Y8554D02*
G01X48500Y8509D01*
G01X48500Y8509D02*
G01X48500Y8463D01*
G01X48500Y8463D02*
G01X48522Y8418D01*
G01X48522Y8418D02*
G01X48545Y8395D01*
G01X48545Y8395D02*
G01X48590Y8372D01*
G01X48590Y8372D02*
G01X48727Y8327D01*
G01X48727Y8327D02*
G01X48772Y8304D01*
G01X48772Y8304D02*
G01X48795Y8281D01*
G01X48795Y8281D02*
G01X48818Y8236D01*
G01X48818Y8236D02*
G01X48818Y8168D01*
G01X48818Y8168D02*
G01X48772Y8122D01*
G01X48772Y8122D02*
G01X48704Y8100D01*
G01X48613Y8100D02*
G01X48704Y8100D01*
G01X48545Y8122D02*
G01X48613Y8100D01*
G01X48500Y8168D02*
G01X48545Y8122D01*
G01X49318Y8577D02*
G01X49090Y8100D01*
G01X49318Y8577D02*
G01X49000Y8577D01*
G04 Draw part S8*
G04 draw part outline for part S8*
G54D11*
G01X54011Y8811D02*
G01X57988Y8811D01*
G01X57988Y8811D02*
G01X57988Y12788D01*
G01X57988Y12788D02*
G01X54011Y12788D01*
G01X54011Y12788D02*
G01X54011Y8811D01*
G54D12*
G01X56000Y12059D02*
G01X55960Y12059D01*
G01X55920Y12057D01*
G01X55881Y12054D01*
G01X55842Y12049D01*
G01X55802Y12044D01*
G01X55763Y12037D01*
G01X55725Y12029D01*
G01X55686Y12020D01*
G01X55648Y12009D01*
G01X55610Y11998D01*
G01X55573Y11985D01*
G01X55536Y11971D01*
G01X55499Y11956D01*
G01X55463Y11939D01*
G01X55428Y11922D01*
G01X55393Y11904D01*
G01X55358Y11884D01*
G01X55324Y11863D01*
G01X55291Y11841D01*
G01X55259Y11819D01*
G01X55227Y11795D01*
G01X55196Y11770D01*
G01X55166Y11745D01*
G01X55137Y11718D01*
G01X55109Y11690D01*
G01X55081Y11662D01*
G01X55054Y11633D01*
G01X55029Y11603D01*
G01X55004Y11572D01*
G01X54980Y11540D01*
G01X54958Y11508D01*
G01X54936Y11475D01*
G01X54915Y11441D01*
G01X54895Y11406D01*
G01X54877Y11371D01*
G01X54860Y11336D01*
G01X54843Y11300D01*
G01X54828Y11263D01*
G01X54814Y11226D01*
G01X54801Y11189D01*
G01X54790Y11151D01*
G01X54779Y11113D01*
G01X54770Y11074D01*
G01X54762Y11036D01*
G01X54755Y10997D01*
G01X54750Y10957D01*
G01X54745Y10918D01*
G01X54742Y10879D01*
G01X54740Y10839D01*
G01X54740Y10800D01*
G01X54740Y10800D02*
G01X54740Y10760D01*
G01X54742Y10720D01*
G01X54745Y10681D01*
G01X54750Y10642D01*
G01X54755Y10602D01*
G01X54762Y10563D01*
G01X54770Y10525D01*
G01X54779Y10486D01*
G01X54790Y10448D01*
G01X54801Y10410D01*
G01X54814Y10373D01*
G01X54828Y10336D01*
G01X54843Y10299D01*
G01X54860Y10263D01*
G01X54877Y10228D01*
G01X54895Y10193D01*
G01X54915Y10158D01*
G01X54936Y10124D01*
G01X54958Y10091D01*
G01X54980Y10059D01*
G01X55004Y10027D01*
G01X55029Y9996D01*
G01X55054Y9966D01*
G01X55081Y9937D01*
G01X55109Y9909D01*
G01X55137Y9881D01*
G01X55166Y9854D01*
G01X55196Y9829D01*
G01X55227Y9804D01*
G01X55259Y9780D01*
G01X55291Y9758D01*
G01X55324Y9736D01*
G01X55358Y9715D01*
G01X55393Y9695D01*
G01X55428Y9677D01*
G01X55463Y9660D01*
G01X55499Y9643D01*
G01X55536Y9628D01*
G01X55573Y9614D01*
G01X55610Y9601D01*
G01X55648Y9590D01*
G01X55686Y9579D01*
G01X55725Y9570D01*
G01X55763Y9562D01*
G01X55802Y9555D01*
G01X55842Y9550D01*
G01X55881Y9545D01*
G01X55920Y9542D01*
G01X55960Y9540D01*
G01X56000Y9540D01*
G01X56000Y9540D02*
G01X56039Y9540D01*
G01X56079Y9542D01*
G01X56118Y9545D01*
G01X56157Y9550D01*
G01X56197Y9555D01*
G01X56236Y9562D01*
G01X56274Y9570D01*
G01X56313Y9579D01*
G01X56351Y9590D01*
G01X56389Y9601D01*
G01X56426Y9614D01*
G01X56463Y9628D01*
G01X56500Y9643D01*
G01X56536Y9660D01*
G01X56571Y9677D01*
G01X56606Y9695D01*
G01X56641Y9715D01*
G01X56675Y9736D01*
G01X56708Y9758D01*
G01X56740Y9780D01*
G01X56772Y9804D01*
G01X56803Y9829D01*
G01X56833Y9854D01*
G01X56862Y9881D01*
G01X56890Y9909D01*
G01X56918Y9937D01*
G01X56945Y9966D01*
G01X56970Y9996D01*
G01X56995Y10027D01*
G01X57019Y10059D01*
G01X57041Y10091D01*
G01X57063Y10124D01*
G01X57084Y10158D01*
G01X57104Y10193D01*
G01X57122Y10228D01*
G01X57139Y10263D01*
G01X57156Y10299D01*
G01X57171Y10336D01*
G01X57185Y10373D01*
G01X57198Y10410D01*
G01X57209Y10448D01*
G01X57220Y10486D01*
G01X57229Y10525D01*
G01X57237Y10563D01*
G01X57244Y10602D01*
G01X57249Y10642D01*
G01X57254Y10681D01*
G01X57257Y10720D01*
G01X57259Y10760D01*
G01X57259Y10800D01*
G01X57259Y10800D02*
G01X57259Y10839D01*
G01X57257Y10879D01*
G01X57254Y10918D01*
G01X57249Y10957D01*
G01X57244Y10997D01*
G01X57237Y11036D01*
G01X57229Y11074D01*
G01X57220Y11113D01*
G01X57209Y11151D01*
G01X57198Y11189D01*
G01X57185Y11226D01*
G01X57171Y11263D01*
G01X57156Y11300D01*
G01X57139Y11336D01*
G01X57122Y11371D01*
G01X57104Y11406D01*
G01X57084Y11441D01*
G01X57063Y11475D01*
G01X57041Y11508D01*
G01X57019Y11540D01*
G01X56995Y11572D01*
G01X56970Y11603D01*
G01X56945Y11633D01*
G01X56918Y11662D01*
G01X56890Y11690D01*
G01X56862Y11718D01*
G01X56833Y11745D01*
G01X56803Y11770D01*
G01X56772Y11795D01*
G01X56740Y11819D01*
G01X56708Y11841D01*
G01X56675Y11863D01*
G01X56641Y11884D01*
G01X56606Y11904D01*
G01X56571Y11922D01*
G01X56536Y11939D01*
G01X56500Y11956D01*
G01X56463Y11971D01*
G01X56426Y11985D01*
G01X56389Y11998D01*
G01X56351Y12009D01*
G01X56313Y12020D01*
G01X56274Y12029D01*
G01X56236Y12037D01*
G01X56197Y12044D01*
G01X56157Y12049D01*
G01X56118Y12054D01*
G01X56079Y12057D01*
G01X56039Y12059D01*
G01X56000Y12059D01*
G01X56000Y12059D02*
G01X56000Y12059D01*
G01X56000Y10839D02*
G01X55960Y10800D01*
G01X55960Y10800D02*
G01X56000Y10760D01*
G01X56000Y10760D02*
G01X56039Y10800D01*
G01X56039Y10800D02*
G01X56000Y10839D01*
G04 draw reference designator for part S8*
G54D10*
G01X55972Y8554D02*
G01X56018Y8509D01*
G01X55904Y8577D02*
G01X55972Y8554D01*
G01X55813Y8577D02*
G01X55904Y8577D01*
G01X55813Y8577D02*
G01X55745Y8554D01*
G01X55745Y8554D02*
G01X55700Y8509D01*
G01X55700Y8509D02*
G01X55700Y8463D01*
G01X55700Y8463D02*
G01X55722Y8418D01*
G01X55722Y8418D02*
G01X55745Y8395D01*
G01X55745Y8395D02*
G01X55790Y8372D01*
G01X55790Y8372D02*
G01X55927Y8327D01*
G01X55927Y8327D02*
G01X55972Y8304D01*
G01X55972Y8304D02*
G01X55995Y8281D01*
G01X55995Y8281D02*
G01X56018Y8236D01*
G01X56018Y8236D02*
G01X56018Y8168D01*
G01X56018Y8168D02*
G01X55972Y8122D01*
G01X55972Y8122D02*
G01X55904Y8100D01*
G01X55813Y8100D02*
G01X55904Y8100D01*
G01X55745Y8122D02*
G01X55813Y8100D01*
G01X55700Y8168D02*
G01X55745Y8122D01*
G01X56313Y8577D02*
G01X56245Y8554D01*
G01X56245Y8554D02*
G01X56222Y8509D01*
G01X56222Y8509D02*
G01X56222Y8463D01*
G01X56222Y8463D02*
G01X56245Y8418D01*
G01X56245Y8418D02*
G01X56290Y8395D01*
G01X56290Y8395D02*
G01X56381Y8372D01*
G01X56381Y8372D02*
G01X56450Y8350D01*
G01X56450Y8350D02*
G01X56495Y8304D01*
G01X56495Y8304D02*
G01X56518Y8259D01*
G01X56518Y8259D02*
G01X56518Y8190D01*
G01X56518Y8190D02*
G01X56495Y8145D01*
G01X56495Y8145D02*
G01X56472Y8122D01*
G01X56472Y8122D02*
G01X56404Y8100D01*
G01X56313Y8100D02*
G01X56404Y8100D01*
G01X56245Y8122D02*
G01X56313Y8100D01*
G01X56222Y8145D02*
G01X56245Y8122D01*
G01X56200Y8190D02*
G01X56222Y8145D01*
G01X56200Y8259D02*
G01X56200Y8190D01*
G01X56222Y8304D02*
G01X56200Y8259D01*
G01X56268Y8350D02*
G01X56222Y8304D01*
G01X56336Y8372D02*
G01X56268Y8350D01*
G01X56427Y8395D02*
G01X56336Y8372D01*
G01X56472Y8418D02*
G01X56427Y8395D01*
G01X56495Y8463D02*
G01X56472Y8418D01*
G01X56495Y8509D02*
G01X56495Y8463D01*
G01X56472Y8554D02*
G01X56495Y8509D01*
G01X56404Y8577D02*
G01X56472Y8554D01*
G01X56313Y8577D02*
G01X56404Y8577D01*
G04 Draw part C4*
G04 Draw part C5*
G04 draw part outline for part C5*
G54D11*
G01X6333Y41588D02*
G01X4364Y41588D01*
G01X4364Y41588D02*
G01X4364Y42611D01*
G01X4364Y42611D02*
G01X6333Y42611D01*
G01X6333Y42611D02*
G01X6333Y41588D01*
G04 draw reference designator for part C5*
G01X7018Y42209D02*
G01X7040Y42163D01*
G01X6972Y42254D02*
G01X7018Y42209D01*
G01X6927Y42277D02*
G01X6972Y42254D01*
G01X6836Y42277D02*
G01X6927Y42277D01*
G01X6836Y42277D02*
G01X6790Y42254D01*
G01X6790Y42254D02*
G01X6745Y42209D01*
G01X6745Y42209D02*
G01X6722Y42163D01*
G01X6722Y42163D02*
G01X6700Y42095D01*
G01X6700Y42095D02*
G01X6700Y41981D01*
G01X6700Y41981D02*
G01X6722Y41913D01*
G01X6722Y41913D02*
G01X6745Y41868D01*
G01X6745Y41868D02*
G01X6790Y41822D01*
G01X6790Y41822D02*
G01X6836Y41800D01*
G01X6927Y41800D02*
G01X6836Y41800D01*
G01X6972Y41822D02*
G01X6927Y41800D01*
G01X7018Y41868D02*
G01X6972Y41822D01*
G01X7040Y41913D02*
G01X7018Y41868D01*
G01X7268Y42277D02*
G01X7495Y42277D01*
G01X7268Y42277D02*
G01X7245Y42072D01*
G01X7268Y42095D02*
G01X7245Y42072D01*
G01X7336Y42118D02*
G01X7268Y42095D01*
G01X7404Y42118D02*
G01X7336Y42118D01*
G01X7404Y42118D02*
G01X7472Y42095D01*
G01X7472Y42095D02*
G01X7518Y42050D01*
G01X7518Y42050D02*
G01X7540Y41981D01*
G01X7540Y41981D02*
G01X7540Y41936D01*
G01X7540Y41936D02*
G01X7518Y41868D01*
G01X7518Y41868D02*
G01X7472Y41822D01*
G01X7472Y41822D02*
G01X7404Y41800D01*
G01X7336Y41800D02*
G01X7404Y41800D01*
G01X7268Y41822D02*
G01X7336Y41800D01*
G01X7245Y41845D02*
G01X7268Y41822D01*
G01X7222Y41890D02*
G01X7245Y41845D01*
G04 Draw part R3*
G04 Draw part R4*
G04 Draw part R5*
G04 Draw part R6*
G04 Draw part C8*
G04 Draw part R7*
G04 Draw part R8*
G04 Draw part R9*
G04 Draw part C9*
G04 Draw part D3*
G04 draw part outline for part D3*
G54D12*
G01X5996Y14496D02*
G01X8003Y14496D01*
G01X8003Y14496D02*
G01X8003Y16287D01*
G01X8003Y16287D02*
G01X7787Y16503D01*
G01X7787Y16503D02*
G01X5996Y16503D01*
G01X5996Y16503D02*
G01X5996Y14496D01*
G01X7000Y15539D02*
G01X6960Y15500D01*
G01X6960Y15500D02*
G01X7000Y15460D01*
G01X7000Y15460D02*
G01X7039Y15500D01*
G01X7039Y15500D02*
G01X7000Y15539D01*
G04 draw reference designator for part D3*
G54D10*
G01X4800Y16477D02*
G01X4800Y16000D01*
G01X4959Y16477D02*
G01X4800Y16477D01*
G01X4959Y16477D02*
G01X5027Y16454D01*
G01X5027Y16454D02*
G01X5072Y16409D01*
G01X5072Y16409D02*
G01X5095Y16363D01*
G01X5095Y16363D02*
G01X5118Y16295D01*
G01X5118Y16295D02*
G01X5118Y16181D01*
G01X5118Y16181D02*
G01X5095Y16113D01*
G01X5095Y16113D02*
G01X5072Y16068D01*
G01X5072Y16068D02*
G01X5027Y16022D01*
G01X5027Y16022D02*
G01X4959Y16000D01*
G01X4800Y16000D02*
G01X4959Y16000D01*
G01X5595Y16477D02*
G01X5345Y16477D01*
G01X5595Y16477D02*
G01X5459Y16295D01*
G01X5527Y16295D02*
G01X5459Y16295D01*
G01X5527Y16295D02*
G01X5572Y16272D01*
G01X5572Y16272D02*
G01X5595Y16250D01*
G01X5595Y16250D02*
G01X5618Y16181D01*
G01X5618Y16181D02*
G01X5618Y16136D01*
G01X5618Y16136D02*
G01X5595Y16068D01*
G01X5595Y16068D02*
G01X5550Y16022D01*
G01X5550Y16022D02*
G01X5481Y16000D01*
G01X5413Y16000D02*
G01X5481Y16000D01*
G01X5345Y16022D02*
G01X5413Y16000D01*
G01X5322Y16045D02*
G01X5345Y16022D01*
G01X5300Y16090D02*
G01X5322Y16045D01*
G04 Draw part D4*
G04 draw part outline for part D4*
G54D12*
G01X12996Y14496D02*
G01X15003Y14496D01*
G01X15003Y14496D02*
G01X15003Y16287D01*
G01X15003Y16287D02*
G01X14787Y16503D01*
G01X14787Y16503D02*
G01X12996Y16503D01*
G01X12996Y16503D02*
G01X12996Y14496D01*
G01X14000Y15539D02*
G01X13960Y15500D01*
G01X13960Y15500D02*
G01X14000Y15460D01*
G01X14000Y15460D02*
G01X14039Y15500D01*
G01X14039Y15500D02*
G01X14000Y15539D01*
G04 draw reference designator for part D4*
G54D10*
G01X11900Y16477D02*
G01X11900Y16000D01*
G01X12059Y16477D02*
G01X11900Y16477D01*
G01X12059Y16477D02*
G01X12127Y16454D01*
G01X12127Y16454D02*
G01X12172Y16409D01*
G01X12172Y16409D02*
G01X12195Y16363D01*
G01X12195Y16363D02*
G01X12218Y16295D01*
G01X12218Y16295D02*
G01X12218Y16181D01*
G01X12218Y16181D02*
G01X12195Y16113D01*
G01X12195Y16113D02*
G01X12172Y16068D01*
G01X12172Y16068D02*
G01X12127Y16022D01*
G01X12127Y16022D02*
G01X12059Y16000D01*
G01X11900Y16000D02*
G01X12059Y16000D01*
G01X12627Y16477D02*
G01X12400Y16159D01*
G01X12740Y16159D02*
G01X12400Y16159D01*
G01X12627Y16477D02*
G01X12627Y16000D01*
G04 Draw part D5*
G04 draw part outline for part D5*
G54D12*
G01X19996Y14496D02*
G01X22003Y14496D01*
G01X22003Y14496D02*
G01X22003Y16287D01*
G01X22003Y16287D02*
G01X21787Y16503D01*
G01X21787Y16503D02*
G01X19996Y16503D01*
G01X19996Y16503D02*
G01X19996Y14496D01*
G01X21000Y15539D02*
G01X20960Y15500D01*
G01X20960Y15500D02*
G01X21000Y15460D01*
G01X21000Y15460D02*
G01X21039Y15500D01*
G01X21039Y15500D02*
G01X21000Y15539D01*
G04 draw reference designator for part D5*
G54D10*
G01X18900Y16477D02*
G01X18900Y16000D01*
G01X19059Y16477D02*
G01X18900Y16477D01*
G01X19059Y16477D02*
G01X19127Y16454D01*
G01X19127Y16454D02*
G01X19172Y16409D01*
G01X19172Y16409D02*
G01X19195Y16363D01*
G01X19195Y16363D02*
G01X19218Y16295D01*
G01X19218Y16295D02*
G01X19218Y16181D01*
G01X19218Y16181D02*
G01X19195Y16113D01*
G01X19195Y16113D02*
G01X19172Y16068D01*
G01X19172Y16068D02*
G01X19127Y16022D01*
G01X19127Y16022D02*
G01X19059Y16000D01*
G01X18900Y16000D02*
G01X19059Y16000D01*
G01X19445Y16477D02*
G01X19672Y16477D01*
G01X19445Y16477D02*
G01X19422Y16272D01*
G01X19445Y16295D02*
G01X19422Y16272D01*
G01X19513Y16318D02*
G01X19445Y16295D01*
G01X19581Y16318D02*
G01X19513Y16318D01*
G01X19581Y16318D02*
G01X19650Y16295D01*
G01X19650Y16295D02*
G01X19695Y16250D01*
G01X19695Y16250D02*
G01X19718Y16181D01*
G01X19718Y16181D02*
G01X19718Y16136D01*
G01X19718Y16136D02*
G01X19695Y16068D01*
G01X19695Y16068D02*
G01X19650Y16022D01*
G01X19650Y16022D02*
G01X19581Y16000D01*
G01X19513Y16000D02*
G01X19581Y16000D01*
G01X19445Y16022D02*
G01X19513Y16000D01*
G01X19422Y16045D02*
G01X19445Y16022D01*
G01X19400Y16090D02*
G01X19422Y16045D01*
G04 Draw part D6*
G04 draw part outline for part D6*
G54D12*
G01X26996Y14496D02*
G01X29003Y14496D01*
G01X29003Y14496D02*
G01X29003Y16287D01*
G01X29003Y16287D02*
G01X28787Y16503D01*
G01X28787Y16503D02*
G01X26996Y16503D01*
G01X26996Y16503D02*
G01X26996Y14496D01*
G01X28000Y15539D02*
G01X27960Y15500D01*
G01X27960Y15500D02*
G01X28000Y15460D01*
G01X28000Y15460D02*
G01X28039Y15500D01*
G01X28039Y15500D02*
G01X28000Y15539D01*
G04 draw reference designator for part D6*
G54D10*
G01X26000Y16477D02*
G01X26000Y16000D01*
G01X26159Y16477D02*
G01X26000Y16477D01*
G01X26159Y16477D02*
G01X26227Y16454D01*
G01X26227Y16454D02*
G01X26272Y16409D01*
G01X26272Y16409D02*
G01X26295Y16363D01*
G01X26295Y16363D02*
G01X26318Y16295D01*
G01X26318Y16295D02*
G01X26318Y16181D01*
G01X26318Y16181D02*
G01X26295Y16113D01*
G01X26295Y16113D02*
G01X26272Y16068D01*
G01X26272Y16068D02*
G01X26227Y16022D01*
G01X26227Y16022D02*
G01X26159Y16000D01*
G01X26000Y16000D02*
G01X26159Y16000D01*
G01X26750Y16454D02*
G01X26772Y16409D01*
G01X26681Y16477D02*
G01X26750Y16454D01*
G01X26636Y16477D02*
G01X26681Y16477D01*
G01X26636Y16477D02*
G01X26568Y16454D01*
G01X26568Y16454D02*
G01X26522Y16386D01*
G01X26522Y16386D02*
G01X26500Y16272D01*
G01X26500Y16272D02*
G01X26500Y16159D01*
G01X26500Y16159D02*
G01X26522Y16068D01*
G01X26522Y16068D02*
G01X26568Y16022D01*
G01X26568Y16022D02*
G01X26636Y16000D01*
G01X26659Y16000D02*
G01X26636Y16000D01*
G01X26727Y16022D02*
G01X26659Y16000D01*
G01X26772Y16068D02*
G01X26727Y16022D01*
G01X26795Y16136D02*
G01X26772Y16068D01*
G01X26795Y16159D02*
G01X26795Y16136D01*
G01X26772Y16227D02*
G01X26795Y16159D01*
G01X26727Y16272D02*
G01X26772Y16227D01*
G01X26659Y16295D02*
G01X26727Y16272D01*
G01X26636Y16295D02*
G01X26659Y16295D01*
G01X26636Y16295D02*
G01X26568Y16272D01*
G01X26568Y16272D02*
G01X26522Y16227D01*
G01X26522Y16227D02*
G01X26500Y16159D01*
G04 Draw part D7*
G04 draw part outline for part D7*
G54D12*
G01X33996Y14496D02*
G01X36003Y14496D01*
G01X36003Y14496D02*
G01X36003Y16287D01*
G01X36003Y16287D02*
G01X35787Y16503D01*
G01X35787Y16503D02*
G01X33996Y16503D01*
G01X33996Y16503D02*
G01X33996Y14496D01*
G01X35000Y15539D02*
G01X34960Y15500D01*
G01X34960Y15500D02*
G01X35000Y15460D01*
G01X35000Y15460D02*
G01X35039Y15500D01*
G01X35039Y15500D02*
G01X35000Y15539D01*
G04 draw reference designator for part D7*
G54D10*
G01X32900Y16477D02*
G01X32900Y16000D01*
G01X33059Y16477D02*
G01X32900Y16477D01*
G01X33059Y16477D02*
G01X33127Y16454D01*
G01X33127Y16454D02*
G01X33172Y16409D01*
G01X33172Y16409D02*
G01X33195Y16363D01*
G01X33195Y16363D02*
G01X33218Y16295D01*
G01X33218Y16295D02*
G01X33218Y16181D01*
G01X33218Y16181D02*
G01X33195Y16113D01*
G01X33195Y16113D02*
G01X33172Y16068D01*
G01X33172Y16068D02*
G01X33127Y16022D01*
G01X33127Y16022D02*
G01X33059Y16000D01*
G01X32900Y16000D02*
G01X33059Y16000D01*
G01X33718Y16477D02*
G01X33490Y16000D01*
G01X33718Y16477D02*
G01X33400Y16477D01*
G04 Draw part D8*
G04 draw part outline for part D8*
G54D12*
G01X40996Y14496D02*
G01X43003Y14496D01*
G01X43003Y14496D02*
G01X43003Y16287D01*
G01X43003Y16287D02*
G01X42787Y16503D01*
G01X42787Y16503D02*
G01X40996Y16503D01*
G01X40996Y16503D02*
G01X40996Y14496D01*
G01X42000Y15539D02*
G01X41960Y15500D01*
G01X41960Y15500D02*
G01X42000Y15460D01*
G01X42000Y15460D02*
G01X42039Y15500D01*
G01X42039Y15500D02*
G01X42000Y15539D01*
G04 draw reference designator for part D8*
G54D10*
G01X40000Y16477D02*
G01X40000Y16000D01*
G01X40159Y16477D02*
G01X40000Y16477D01*
G01X40159Y16477D02*
G01X40227Y16454D01*
G01X40227Y16454D02*
G01X40272Y16409D01*
G01X40272Y16409D02*
G01X40295Y16363D01*
G01X40295Y16363D02*
G01X40318Y16295D01*
G01X40318Y16295D02*
G01X40318Y16181D01*
G01X40318Y16181D02*
G01X40295Y16113D01*
G01X40295Y16113D02*
G01X40272Y16068D01*
G01X40272Y16068D02*
G01X40227Y16022D01*
G01X40227Y16022D02*
G01X40159Y16000D01*
G01X40000Y16000D02*
G01X40159Y16000D01*
G01X40613Y16477D02*
G01X40545Y16454D01*
G01X40545Y16454D02*
G01X40522Y16409D01*
G01X40522Y16409D02*
G01X40522Y16363D01*
G01X40522Y16363D02*
G01X40545Y16318D01*
G01X40545Y16318D02*
G01X40590Y16295D01*
G01X40590Y16295D02*
G01X40681Y16272D01*
G01X40681Y16272D02*
G01X40750Y16250D01*
G01X40750Y16250D02*
G01X40795Y16204D01*
G01X40795Y16204D02*
G01X40818Y16159D01*
G01X40818Y16159D02*
G01X40818Y16090D01*
G01X40818Y16090D02*
G01X40795Y16045D01*
G01X40795Y16045D02*
G01X40772Y16022D01*
G01X40772Y16022D02*
G01X40704Y16000D01*
G01X40613Y16000D02*
G01X40704Y16000D01*
G01X40545Y16022D02*
G01X40613Y16000D01*
G01X40522Y16045D02*
G01X40545Y16022D01*
G01X40500Y16090D02*
G01X40522Y16045D01*
G01X40500Y16159D02*
G01X40500Y16090D01*
G01X40522Y16204D02*
G01X40500Y16159D01*
G01X40568Y16250D02*
G01X40522Y16204D01*
G01X40636Y16272D02*
G01X40568Y16250D01*
G01X40727Y16295D02*
G01X40636Y16272D01*
G01X40772Y16318D02*
G01X40727Y16295D01*
G01X40795Y16363D02*
G01X40772Y16318D01*
G01X40795Y16409D02*
G01X40795Y16363D01*
G01X40772Y16454D02*
G01X40795Y16409D01*
G01X40704Y16477D02*
G01X40772Y16454D01*
G01X40613Y16477D02*
G01X40704Y16477D01*
G04 Draw part D9*
G04 draw part outline for part D9*
G54D12*
G01X47996Y14496D02*
G01X50003Y14496D01*
G01X50003Y14496D02*
G01X50003Y16287D01*
G01X50003Y16287D02*
G01X49787Y16503D01*
G01X49787Y16503D02*
G01X47996Y16503D01*
G01X47996Y16503D02*
G01X47996Y14496D01*
G01X49000Y15539D02*
G01X48960Y15500D01*
G01X48960Y15500D02*
G01X49000Y15460D01*
G01X49000Y15460D02*
G01X49039Y15500D01*
G01X49039Y15500D02*
G01X49000Y15539D01*
G04 draw reference designator for part D9*
G54D10*
G01X47000Y16377D02*
G01X47000Y15900D01*
G01X47159Y16377D02*
G01X47000Y16377D01*
G01X47159Y16377D02*
G01X47227Y16354D01*
G01X47227Y16354D02*
G01X47272Y16309D01*
G01X47272Y16309D02*
G01X47295Y16263D01*
G01X47295Y16263D02*
G01X47318Y16195D01*
G01X47318Y16195D02*
G01X47318Y16081D01*
G01X47318Y16081D02*
G01X47295Y16013D01*
G01X47295Y16013D02*
G01X47272Y15968D01*
G01X47272Y15968D02*
G01X47227Y15922D01*
G01X47227Y15922D02*
G01X47159Y15900D01*
G01X47000Y15900D02*
G01X47159Y15900D01*
G01X47795Y16218D02*
G01X47772Y16150D01*
G01X47772Y16150D02*
G01X47727Y16104D01*
G01X47727Y16104D02*
G01X47659Y16081D01*
G01X47636Y16081D02*
G01X47659Y16081D01*
G01X47568Y16104D02*
G01X47636Y16081D01*
G01X47522Y16150D02*
G01X47568Y16104D01*
G01X47500Y16218D02*
G01X47522Y16150D01*
G01X47500Y16240D02*
G01X47500Y16218D01*
G01X47522Y16309D02*
G01X47500Y16240D01*
G01X47568Y16354D02*
G01X47522Y16309D01*
G01X47636Y16377D02*
G01X47568Y16354D01*
G01X47659Y16377D02*
G01X47636Y16377D01*
G01X47659Y16377D02*
G01X47727Y16354D01*
G01X47727Y16354D02*
G01X47772Y16309D01*
G01X47772Y16309D02*
G01X47795Y16218D01*
G01X47795Y16218D02*
G01X47795Y16104D01*
G01X47795Y16104D02*
G01X47772Y15990D01*
G01X47772Y15990D02*
G01X47727Y15922D01*
G01X47727Y15922D02*
G01X47659Y15900D01*
G01X47613Y15900D02*
G01X47659Y15900D01*
G01X47545Y15922D02*
G01X47613Y15900D01*
G01X47522Y15968D02*
G01X47545Y15922D01*
G04 Draw part D10*
G04 draw part outline for part D10*
G54D12*
G01X54996Y14496D02*
G01X57003Y14496D01*
G01X57003Y14496D02*
G01X57003Y16287D01*
G01X57003Y16287D02*
G01X56787Y16503D01*
G01X56787Y16503D02*
G01X54996Y16503D01*
G01X54996Y16503D02*
G01X54996Y14496D01*
G01X56000Y15539D02*
G01X55960Y15500D01*
G01X55960Y15500D02*
G01X56000Y15460D01*
G01X56000Y15460D02*
G01X56039Y15500D01*
G01X56039Y15500D02*
G01X56000Y15539D01*
G04 draw reference designator for part D10*
G54D10*
G01X53700Y16377D02*
G01X53700Y15900D01*
G01X53859Y16377D02*
G01X53700Y16377D01*
G01X53859Y16377D02*
G01X53927Y16354D01*
G01X53927Y16354D02*
G01X53972Y16309D01*
G01X53972Y16309D02*
G01X53995Y16263D01*
G01X53995Y16263D02*
G01X54018Y16195D01*
G01X54018Y16195D02*
G01X54018Y16081D01*
G01X54018Y16081D02*
G01X53995Y16013D01*
G01X53995Y16013D02*
G01X53972Y15968D01*
G01X53972Y15968D02*
G01X53927Y15922D01*
G01X53927Y15922D02*
G01X53859Y15900D01*
G01X53700Y15900D02*
G01X53859Y15900D01*
G01X54245Y16309D02*
G01X54200Y16286D01*
G01X54313Y16377D02*
G01X54245Y16309D01*
G01X54313Y16377D02*
G01X54313Y15900D01*
G01X54631Y16377D02*
G01X54563Y16354D01*
G01X54563Y16354D02*
G01X54518Y16286D01*
G01X54518Y16286D02*
G01X54495Y16172D01*
G01X54495Y16172D02*
G01X54495Y16104D01*
G01X54495Y16104D02*
G01X54518Y15990D01*
G01X54518Y15990D02*
G01X54563Y15922D01*
G01X54563Y15922D02*
G01X54631Y15900D01*
G01X54677Y15900D02*
G01X54631Y15900D01*
G01X54745Y15922D02*
G01X54677Y15900D01*
G01X54790Y15990D02*
G01X54745Y15922D01*
G01X54813Y16104D02*
G01X54790Y15990D01*
G01X54813Y16172D02*
G01X54813Y16104D01*
G01X54790Y16286D02*
G01X54813Y16172D01*
G01X54745Y16354D02*
G01X54790Y16286D01*
G01X54677Y16377D02*
G01X54745Y16354D01*
G01X54631Y16377D02*
G01X54677Y16377D01*
G04 Draw part U7*
G04 Draw part U8*
G04 Draw part U9*
G04 Draw part D1*
G04 Draw part J1*
G04 Draw part J2*
G04 Draw part J5*
G04 Draw part J3*
G04 Draw part U2*
G04 Draw part X1*
G04 Draw part U6*
G04 draw part outline for part U6*
G54D12*
G01X2755Y41141D02*
G01X41338Y41141D01*
G01X41338Y41141D02*
G01X41338Y17519D01*
G01X41338Y17519D02*
G01X2755Y17519D01*
G01X2755Y17519D02*
G01X2755Y41141D01*
G01X6496Y24370D02*
G01X36811Y24370D01*
G01X36811Y24370D02*
G01X36811Y34291D01*
G01X36811Y34291D02*
G01X6496Y34291D01*
G01X6496Y34291D02*
G01X6496Y24370D01*
G04 draw reference designator for part U6*
G54D11*
G01X15787Y42052D02*
G01X15787Y41711D01*
G01X15787Y41711D02*
G01X15810Y41642D01*
G01X15810Y41642D02*
G01X15855Y41597D01*
G01X15855Y41597D02*
G01X15923Y41574D01*
G01X15969Y41574D02*
G01X15923Y41574D01*
G01X16037Y41597D02*
G01X15969Y41574D01*
G01X16082Y41642D02*
G01X16037Y41597D01*
G01X16105Y41711D02*
G01X16082Y41642D01*
G01X16105Y42052D02*
G01X16105Y41711D01*
G01X16537Y42029D02*
G01X16560Y41983D01*
G01X16469Y42052D02*
G01X16537Y42029D01*
G01X16423Y42052D02*
G01X16469Y42052D01*
G01X16423Y42052D02*
G01X16355Y42029D01*
G01X16355Y42029D02*
G01X16310Y41961D01*
G01X16310Y41961D02*
G01X16287Y41847D01*
G01X16287Y41847D02*
G01X16287Y41733D01*
G01X16287Y41733D02*
G01X16310Y41642D01*
G01X16310Y41642D02*
G01X16355Y41597D01*
G01X16355Y41597D02*
G01X16423Y41574D01*
G01X16446Y41574D02*
G01X16423Y41574D01*
G01X16514Y41597D02*
G01X16446Y41574D01*
G01X16560Y41642D02*
G01X16514Y41597D01*
G01X16582Y41711D02*
G01X16560Y41642D01*
G01X16582Y41733D02*
G01X16582Y41711D01*
G01X16560Y41802D02*
G01X16582Y41733D01*
G01X16514Y41847D02*
G01X16560Y41802D01*
G01X16446Y41870D02*
G01X16514Y41847D01*
G01X16423Y41870D02*
G01X16446Y41870D01*
G01X16423Y41870D02*
G01X16355Y41847D01*
G01X16355Y41847D02*
G01X16310Y41802D01*
G01X16310Y41802D02*
G01X16287Y41733D01*
G04 Draw part C1*
G04 Draw part Q1*
G04 Draw part V1*
G04 Draw part S9*
G04 draw part outline for part S9*
G01X47488Y2811D02*
G01X47488Y6788D01*
G01X47488Y6788D02*
G01X43511Y6788D01*
G01X43511Y6788D02*
G01X43511Y2811D01*
G01X43511Y2811D02*
G01X47488Y2811D01*
G54D12*
G01X44240Y4800D02*
G01X44240Y4760D01*
G01X44242Y4720D01*
G01X44245Y4681D01*
G01X44250Y4642D01*
G01X44255Y4602D01*
G01X44262Y4563D01*
G01X44270Y4525D01*
G01X44279Y4486D01*
G01X44290Y4448D01*
G01X44301Y4410D01*
G01X44314Y4373D01*
G01X44328Y4336D01*
G01X44343Y4299D01*
G01X44360Y4263D01*
G01X44377Y4228D01*
G01X44395Y4193D01*
G01X44415Y4158D01*
G01X44436Y4124D01*
G01X44458Y4091D01*
G01X44480Y4059D01*
G01X44504Y4027D01*
G01X44529Y3996D01*
G01X44554Y3966D01*
G01X44581Y3937D01*
G01X44609Y3909D01*
G01X44637Y3881D01*
G01X44666Y3854D01*
G01X44696Y3829D01*
G01X44727Y3804D01*
G01X44759Y3780D01*
G01X44791Y3758D01*
G01X44824Y3736D01*
G01X44858Y3715D01*
G01X44893Y3695D01*
G01X44928Y3677D01*
G01X44963Y3660D01*
G01X44999Y3643D01*
G01X45036Y3628D01*
G01X45073Y3614D01*
G01X45110Y3601D01*
G01X45148Y3590D01*
G01X45186Y3579D01*
G01X45225Y3570D01*
G01X45263Y3562D01*
G01X45302Y3555D01*
G01X45342Y3550D01*
G01X45381Y3545D01*
G01X45420Y3542D01*
G01X45460Y3540D01*
G01X45500Y3540D01*
G01X45500Y3540D02*
G01X45539Y3540D01*
G01X45579Y3542D01*
G01X45618Y3545D01*
G01X45657Y3550D01*
G01X45697Y3555D01*
G01X45736Y3562D01*
G01X45774Y3570D01*
G01X45813Y3579D01*
G01X45851Y3590D01*
G01X45889Y3601D01*
G01X45926Y3614D01*
G01X45963Y3628D01*
G01X46000Y3643D01*
G01X46036Y3660D01*
G01X46071Y3677D01*
G01X46106Y3695D01*
G01X46141Y3715D01*
G01X46175Y3736D01*
G01X46208Y3758D01*
G01X46240Y3780D01*
G01X46272Y3804D01*
G01X46303Y3829D01*
G01X46333Y3854D01*
G01X46362Y3881D01*
G01X46390Y3909D01*
G01X46418Y3937D01*
G01X46445Y3966D01*
G01X46470Y3996D01*
G01X46495Y4027D01*
G01X46519Y4059D01*
G01X46541Y4091D01*
G01X46563Y4124D01*
G01X46584Y4158D01*
G01X46604Y4193D01*
G01X46622Y4228D01*
G01X46639Y4263D01*
G01X46656Y4299D01*
G01X46671Y4336D01*
G01X46685Y4373D01*
G01X46698Y4410D01*
G01X46709Y4448D01*
G01X46720Y4486D01*
G01X46729Y4525D01*
G01X46737Y4563D01*
G01X46744Y4602D01*
G01X46749Y4642D01*
G01X46754Y4681D01*
G01X46757Y4720D01*
G01X46759Y4760D01*
G01X46759Y4800D01*
G01X46759Y4800D02*
G01X46759Y4839D01*
G01X46757Y4879D01*
G01X46754Y4918D01*
G01X46749Y4957D01*
G01X46744Y4997D01*
G01X46737Y5036D01*
G01X46729Y5074D01*
G01X46720Y5113D01*
G01X46709Y5151D01*
G01X46698Y5189D01*
G01X46685Y5226D01*
G01X46671Y5263D01*
G01X46656Y5300D01*
G01X46639Y5336D01*
G01X46622Y5371D01*
G01X46604Y5406D01*
G01X46584Y5441D01*
G01X46563Y5475D01*
G01X46541Y5508D01*
G01X46519Y5540D01*
G01X46495Y5572D01*
G01X46470Y5603D01*
G01X46445Y5633D01*
G01X46418Y5662D01*
G01X46390Y5690D01*
G01X46362Y5718D01*
G01X46333Y5745D01*
G01X46303Y5770D01*
G01X46272Y5795D01*
G01X46240Y5819D01*
G01X46208Y5841D01*
G01X46175Y5863D01*
G01X46141Y5884D01*
G01X46106Y5904D01*
G01X46071Y5922D01*
G01X46036Y5939D01*
G01X46000Y5956D01*
G01X45963Y5971D01*
G01X45926Y5985D01*
G01X45889Y5998D01*
G01X45851Y6009D01*
G01X45813Y6020D01*
G01X45774Y6029D01*
G01X45736Y6037D01*
G01X45697Y6044D01*
G01X45657Y6049D01*
G01X45618Y6054D01*
G01X45579Y6057D01*
G01X45539Y6059D01*
G01X45500Y6059D01*
G01X45500Y6059D02*
G01X45460Y6059D01*
G01X45420Y6057D01*
G01X45381Y6054D01*
G01X45342Y6049D01*
G01X45302Y6044D01*
G01X45263Y6037D01*
G01X45225Y6029D01*
G01X45186Y6020D01*
G01X45148Y6009D01*
G01X45110Y5998D01*
G01X45073Y5985D01*
G01X45036Y5971D01*
G01X44999Y5956D01*
G01X44963Y5939D01*
G01X44928Y5922D01*
G01X44893Y5904D01*
G01X44858Y5884D01*
G01X44824Y5863D01*
G01X44791Y5841D01*
G01X44759Y5819D01*
G01X44727Y5795D01*
G01X44696Y5770D01*
G01X44666Y5745D01*
G01X44637Y5718D01*
G01X44609Y5690D01*
G01X44581Y5662D01*
G01X44554Y5633D01*
G01X44529Y5603D01*
G01X44504Y5572D01*
G01X44480Y5540D01*
G01X44458Y5508D01*
G01X44436Y5475D01*
G01X44415Y5441D01*
G01X44395Y5406D01*
G01X44377Y5371D01*
G01X44360Y5336D01*
G01X44343Y5300D01*
G01X44328Y5263D01*
G01X44314Y5226D01*
G01X44301Y5189D01*
G01X44290Y5151D01*
G01X44279Y5113D01*
G01X44270Y5074D01*
G01X44262Y5036D01*
G01X44255Y4997D01*
G01X44250Y4957D01*
G01X44245Y4918D01*
G01X44242Y4879D01*
G01X44240Y4839D01*
G01X44240Y4800D01*
G01X44240Y4800D02*
G01X44240Y4800D01*
G01X45460Y4800D02*
G01X45500Y4760D01*
G01X45500Y4760D02*
G01X45539Y4800D01*
G01X45539Y4800D02*
G01X45500Y4839D01*
G01X45500Y4839D02*
G01X45460Y4800D01*
G04 draw reference designator for part S9*
G54D10*
G01X45472Y2554D02*
G01X45518Y2509D01*
G01X45404Y2577D02*
G01X45472Y2554D01*
G01X45313Y2577D02*
G01X45404Y2577D01*
G01X45313Y2577D02*
G01X45245Y2554D01*
G01X45245Y2554D02*
G01X45200Y2509D01*
G01X45200Y2509D02*
G01X45200Y2463D01*
G01X45200Y2463D02*
G01X45222Y2418D01*
G01X45222Y2418D02*
G01X45245Y2395D01*
G01X45245Y2395D02*
G01X45290Y2372D01*
G01X45290Y2372D02*
G01X45427Y2327D01*
G01X45427Y2327D02*
G01X45472Y2304D01*
G01X45472Y2304D02*
G01X45495Y2281D01*
G01X45495Y2281D02*
G01X45518Y2236D01*
G01X45518Y2236D02*
G01X45518Y2168D01*
G01X45518Y2168D02*
G01X45472Y2122D01*
G01X45472Y2122D02*
G01X45404Y2100D01*
G01X45313Y2100D02*
G01X45404Y2100D01*
G01X45245Y2122D02*
G01X45313Y2100D01*
G01X45200Y2168D02*
G01X45245Y2122D01*
G01X45995Y2418D02*
G01X45972Y2350D01*
G01X45972Y2350D02*
G01X45927Y2304D01*
G01X45927Y2304D02*
G01X45859Y2281D01*
G01X45836Y2281D02*
G01X45859Y2281D01*
G01X45768Y2304D02*
G01X45836Y2281D01*
G01X45722Y2350D02*
G01X45768Y2304D01*
G01X45700Y2418D02*
G01X45722Y2350D01*
G01X45700Y2440D02*
G01X45700Y2418D01*
G01X45722Y2509D02*
G01X45700Y2440D01*
G01X45768Y2554D02*
G01X45722Y2509D01*
G01X45836Y2577D02*
G01X45768Y2554D01*
G01X45859Y2577D02*
G01X45836Y2577D01*
G01X45859Y2577D02*
G01X45927Y2554D01*
G01X45927Y2554D02*
G01X45972Y2509D01*
G01X45972Y2509D02*
G01X45995Y2418D01*
G01X45995Y2418D02*
G01X45995Y2304D01*
G01X45995Y2304D02*
G01X45972Y2190D01*
G01X45972Y2190D02*
G01X45927Y2122D01*
G01X45927Y2122D02*
G01X45859Y2100D01*
G01X45813Y2100D02*
G01X45859Y2100D01*
G01X45745Y2122D02*
G01X45813Y2100D01*
G01X45722Y2168D02*
G01X45745Y2122D01*
G04 Draw part R10*
G04 draw part outline for part R10*
G54D11*
G01X4366Y43833D02*
G01X6335Y43833D01*
G01X6335Y43833D02*
G01X6335Y42966D01*
G01X6335Y42966D02*
G01X4366Y42966D01*
G01X4366Y42966D02*
G01X4366Y43833D01*
G04 draw reference designator for part R10*
G01X6700Y43577D02*
G01X6700Y43100D01*
G01X6904Y43577D02*
G01X6700Y43577D01*
G01X6904Y43577D02*
G01X6972Y43554D01*
G01X6972Y43554D02*
G01X6995Y43531D01*
G01X6995Y43531D02*
G01X7018Y43486D01*
G01X7018Y43486D02*
G01X7018Y43440D01*
G01X7018Y43440D02*
G01X6995Y43395D01*
G01X6995Y43395D02*
G01X6972Y43372D01*
G01X6972Y43372D02*
G01X6904Y43350D01*
G01X6700Y43350D02*
G01X6904Y43350D01*
G01X6859Y43350D02*
G01X7018Y43100D01*
G01X7245Y43509D02*
G01X7200Y43486D01*
G01X7313Y43577D02*
G01X7245Y43509D01*
G01X7313Y43577D02*
G01X7313Y43100D01*
G01X7631Y43577D02*
G01X7563Y43554D01*
G01X7563Y43554D02*
G01X7518Y43486D01*
G01X7518Y43486D02*
G01X7495Y43372D01*
G01X7495Y43372D02*
G01X7495Y43304D01*
G01X7495Y43304D02*
G01X7518Y43190D01*
G01X7518Y43190D02*
G01X7563Y43122D01*
G01X7563Y43122D02*
G01X7631Y43100D01*
G01X7677Y43100D02*
G01X7631Y43100D01*
G01X7745Y43122D02*
G01X7677Y43100D01*
G01X7790Y43190D02*
G01X7745Y43122D01*
G01X7813Y43304D02*
G01X7790Y43190D01*
G01X7813Y43372D02*
G01X7813Y43304D01*
G01X7790Y43486D02*
G01X7813Y43372D01*
G01X7745Y43554D02*
G01X7790Y43486D01*
G01X7677Y43577D02*
G01X7745Y43554D01*
G01X7631Y43577D02*
G01X7677Y43577D01*
G04 Draw part C10*
G04 draw part outline for part Encl*
G04 draw part outline for part K1*
G04 draw part outline for part J6*
G04 draw part outline for part J7*
G04 draw part outline for part S11*
G04 draw part outline for part S12*
G04 draw part outline for part S13*
G04 draw part outline for part S14*
G04 draw part outline for part S16*
G04 draw part outline for part S17*
G04 draw part outline for part S18*
G04 draw part outline for part S19*
G04 draw part outline for part S15*
G04 draw part outline for part J4*
G04 draw part outline for part J8*
G04 draw part outline for part S20*
G04 draw part outline for part spacer1*
G04 draw part outline for part spacer2*
G04 draw part outline for part spacer3*
G04 draw part outline for part spacer4*
G04 draw part outline for part A1*

G04 Draw traces*

G04 Draw Text*
G54D10*
G01X5340Y5563D02*
G01X5318Y5609D01*
G01X5318Y5609D02*
G01X5272Y5654D01*
G01X5272Y5654D02*
G01X5227Y5677D01*
G01X5227Y5677D02*
G01X5136Y5677D01*
G01X5136Y5677D02*
G01X5090Y5654D01*
G01X5090Y5654D02*
G01X5045Y5609D01*
G01X5045Y5609D02*
G01X5022Y5563D01*
G01X5022Y5563D02*
G01X5000Y5495D01*
G01X5000Y5495D02*
G01X5000Y5381D01*
G01X5000Y5381D02*
G01X5022Y5313D01*
G01X5022Y5313D02*
G01X5045Y5268D01*
G01X5045Y5268D02*
G01X5090Y5222D01*
G01X5090Y5222D02*
G01X5136Y5200D01*
G01X5136Y5200D02*
G01X5227Y5200D01*
G01X5227Y5200D02*
G01X5272Y5222D01*
G01X5272Y5222D02*
G01X5318Y5268D01*
G01X5318Y5268D02*
G01X5340Y5313D01*
G01X5636Y5518D02*
G01X5590Y5495D01*
G01X5590Y5495D02*
G01X5545Y5450D01*
G01X5545Y5450D02*
G01X5522Y5381D01*
G01X5522Y5381D02*
G01X5522Y5336D01*
G01X5522Y5336D02*
G01X5545Y5268D01*
G01X5545Y5268D02*
G01X5590Y5222D01*
G01X5590Y5222D02*
G01X5636Y5200D01*
G01X5636Y5200D02*
G01X5704Y5200D01*
G01X5704Y5200D02*
G01X5749Y5222D01*
G01X5749Y5222D02*
G01X5795Y5268D01*
G01X5795Y5268D02*
G01X5818Y5336D01*
G01X5818Y5336D02*
G01X5818Y5381D01*
G01X5818Y5381D02*
G01X5795Y5450D01*
G01X5795Y5450D02*
G01X5749Y5495D01*
G01X5749Y5495D02*
G01X5704Y5518D01*
G01X5704Y5518D02*
G01X5636Y5518D01*
G01X6000Y5518D02*
G01X6000Y5040D01*
G01X6000Y5450D02*
G01X6045Y5495D01*
G01X6045Y5495D02*
G01X6090Y5518D01*
G01X6090Y5518D02*
G01X6159Y5518D01*
G01X6159Y5518D02*
G01X6204Y5495D01*
G01X6204Y5495D02*
G01X6250Y5450D01*
G01X6250Y5450D02*
G01X6272Y5381D01*
G01X6272Y5381D02*
G01X6272Y5336D01*
G01X6272Y5336D02*
G01X6250Y5268D01*
G01X6250Y5268D02*
G01X6204Y5222D01*
G01X6204Y5222D02*
G01X6159Y5200D01*
G01X6159Y5200D02*
G01X6090Y5200D01*
G01X6090Y5200D02*
G01X6045Y5222D01*
G01X6045Y5222D02*
G01X6000Y5268D01*
G01X6477Y5518D02*
G01X6613Y5200D01*
G01X6749Y5518D02*
G01X6613Y5200D01*
G01X6613Y5200D02*
G01X6568Y5109D01*
G01X6568Y5109D02*
G01X6522Y5063D01*
G01X6522Y5063D02*
G01X6477Y5040D01*
G01X6477Y5040D02*
G01X6454Y5040D01*
G01X6931Y5518D02*
G01X6931Y5200D01*
G01X6931Y5381D02*
G01X6954Y5450D01*
G01X6954Y5450D02*
G01X6999Y5495D01*
G01X6999Y5495D02*
G01X7045Y5518D01*
G01X7045Y5518D02*
G01X7113Y5518D01*
G01X7295Y5677D02*
G01X7318Y5654D01*
G01X7318Y5654D02*
G01X7340Y5677D01*
G01X7340Y5677D02*
G01X7318Y5700D01*
G01X7318Y5700D02*
G01X7295Y5677D01*
G01X7318Y5518D02*
G01X7318Y5200D01*
G01X7795Y5518D02*
G01X7795Y5154D01*
G01X7795Y5154D02*
G01X7772Y5086D01*
G01X7772Y5086D02*
G01X7749Y5063D01*
G01X7749Y5063D02*
G01X7704Y5040D01*
G01X7704Y5040D02*
G01X7636Y5040D01*
G01X7636Y5040D02*
G01X7590Y5063D01*
G01X7795Y5450D02*
G01X7749Y5495D01*
G01X7749Y5495D02*
G01X7704Y5518D01*
G01X7704Y5518D02*
G01X7636Y5518D01*
G01X7636Y5518D02*
G01X7590Y5495D01*
G01X7590Y5495D02*
G01X7545Y5450D01*
G01X7545Y5450D02*
G01X7522Y5381D01*
G01X7522Y5381D02*
G01X7522Y5336D01*
G01X7522Y5336D02*
G01X7545Y5268D01*
G01X7545Y5268D02*
G01X7590Y5222D01*
G01X7590Y5222D02*
G01X7636Y5200D01*
G01X7636Y5200D02*
G01X7704Y5200D01*
G01X7704Y5200D02*
G01X7749Y5222D01*
G01X7749Y5222D02*
G01X7795Y5268D01*
G01X7977Y5677D02*
G01X7977Y5200D01*
G01X7977Y5427D02*
G01X8045Y5495D01*
G01X8045Y5495D02*
G01X8090Y5518D01*
G01X8090Y5518D02*
G01X8159Y5518D01*
G01X8159Y5518D02*
G01X8204Y5495D01*
G01X8204Y5495D02*
G01X8227Y5427D01*
G01X8227Y5427D02*
G01X8227Y5200D01*
G01X8477Y5677D02*
G01X8477Y5290D01*
G01X8477Y5290D02*
G01X8499Y5222D01*
G01X8499Y5222D02*
G01X8545Y5200D01*
G01X8545Y5200D02*
G01X8590Y5200D01*
G01X8409Y5518D02*
G01X8568Y5518D01*
G01X9159Y5563D02*
G01X9159Y5586D01*
G01X9159Y5586D02*
G01X9181Y5631D01*
G01X9181Y5631D02*
G01X9204Y5654D01*
G01X9204Y5654D02*
G01X9249Y5677D01*
G01X9249Y5677D02*
G01X9340Y5677D01*
G01X9340Y5677D02*
G01X9386Y5654D01*
G01X9386Y5654D02*
G01X9409Y5631D01*
G01X9409Y5631D02*
G01X9431Y5586D01*
G01X9431Y5586D02*
G01X9431Y5540D01*
G01X9431Y5540D02*
G01X9409Y5495D01*
G01X9409Y5495D02*
G01X9363Y5427D01*
G01X9363Y5427D02*
G01X9136Y5200D01*
G01X9136Y5200D02*
G01X9454Y5200D01*
G01X9772Y5677D02*
G01X9704Y5654D01*
G01X9704Y5654D02*
G01X9659Y5586D01*
G01X9659Y5586D02*
G01X9636Y5472D01*
G01X9636Y5472D02*
G01X9636Y5404D01*
G01X9636Y5404D02*
G01X9659Y5290D01*
G01X9659Y5290D02*
G01X9704Y5222D01*
G01X9704Y5222D02*
G01X9772Y5200D01*
G01X9772Y5200D02*
G01X9818Y5200D01*
G01X9818Y5200D02*
G01X9886Y5222D01*
G01X9886Y5222D02*
G01X9931Y5290D01*
G01X9931Y5290D02*
G01X9954Y5404D01*
G01X9954Y5404D02*
G01X9954Y5472D01*
G01X9954Y5472D02*
G01X9931Y5586D01*
G01X9931Y5586D02*
G01X9886Y5654D01*
G01X9886Y5654D02*
G01X9818Y5677D01*
G01X9818Y5677D02*
G01X9772Y5677D01*
G01X10136Y5586D02*
G01X10181Y5609D01*
G01X10181Y5609D02*
G01X10249Y5677D01*
G01X10249Y5677D02*
G01X10249Y5200D01*
G01X10659Y5677D02*
G01X10431Y5359D01*
G01X10431Y5359D02*
G01X10772Y5359D01*
G01X10659Y5677D02*
G01X10659Y5200D01*
G01X11318Y5677D02*
G01X11318Y5200D01*
G01X11318Y5450D02*
G01X11363Y5495D01*
G01X11363Y5495D02*
G01X11409Y5518D01*
G01X11409Y5518D02*
G01X11477Y5518D01*
G01X11477Y5518D02*
G01X11522Y5495D01*
G01X11522Y5495D02*
G01X11568Y5450D01*
G01X11568Y5450D02*
G01X11590Y5381D01*
G01X11590Y5381D02*
G01X11590Y5336D01*
G01X11590Y5336D02*
G01X11568Y5268D01*
G01X11568Y5268D02*
G01X11522Y5222D01*
G01X11522Y5222D02*
G01X11477Y5200D01*
G01X11477Y5200D02*
G01X11409Y5200D01*
G01X11409Y5200D02*
G01X11363Y5222D01*
G01X11363Y5222D02*
G01X11318Y5268D01*
G01X11795Y5518D02*
G01X11931Y5200D01*
G01X12068Y5518D02*
G01X11931Y5200D01*
G01X11931Y5200D02*
G01X11886Y5109D01*
G01X11886Y5109D02*
G01X11840Y5063D01*
G01X11840Y5063D02*
G01X11795Y5040D01*
G01X11795Y5040D02*
G01X11772Y5040D01*
G01X12613Y5677D02*
G01X12727Y5200D01*
G01X12840Y5677D02*
G01X12727Y5200D01*
G01X12840Y5677D02*
G01X12954Y5200D01*
G01X13068Y5677D02*
G01X12954Y5200D01*
G01X13522Y5518D02*
G01X13522Y5200D01*
G01X13522Y5450D02*
G01X13477Y5495D01*
G01X13477Y5495D02*
G01X13431Y5518D01*
G01X13431Y5518D02*
G01X13363Y5518D01*
G01X13363Y5518D02*
G01X13318Y5495D01*
G01X13318Y5495D02*
G01X13272Y5450D01*
G01X13272Y5450D02*
G01X13249Y5381D01*
G01X13249Y5381D02*
G01X13249Y5336D01*
G01X13249Y5336D02*
G01X13272Y5268D01*
G01X13272Y5268D02*
G01X13318Y5222D01*
G01X13318Y5222D02*
G01X13363Y5200D01*
G01X13363Y5200D02*
G01X13431Y5200D01*
G01X13431Y5200D02*
G01X13477Y5222D01*
G01X13477Y5222D02*
G01X13522Y5268D01*
G01X13727Y5518D02*
G01X13863Y5200D01*
G01X13999Y5518D02*
G01X13863Y5200D01*
G01X13863Y5200D02*
G01X13818Y5109D01*
G01X13818Y5109D02*
G01X13772Y5063D01*
G01X13772Y5063D02*
G01X13727Y5040D01*
G01X13727Y5040D02*
G01X13704Y5040D01*
G01X14181Y5518D02*
G01X14181Y5200D01*
G01X14181Y5427D02*
G01X14249Y5495D01*
G01X14249Y5495D02*
G01X14295Y5518D01*
G01X14295Y5518D02*
G01X14363Y5518D01*
G01X14363Y5518D02*
G01X14409Y5495D01*
G01X14409Y5495D02*
G01X14431Y5427D01*
G01X14431Y5427D02*
G01X14431Y5200D01*
G01X14613Y5381D02*
G01X14886Y5381D01*
G01X14886Y5381D02*
G01X14886Y5427D01*
G01X14886Y5427D02*
G01X14863Y5472D01*
G01X14863Y5472D02*
G01X14840Y5495D01*
G01X14840Y5495D02*
G01X14795Y5518D01*
G01X14795Y5518D02*
G01X14727Y5518D01*
G01X14727Y5518D02*
G01X14681Y5495D01*
G01X14681Y5495D02*
G01X14636Y5450D01*
G01X14636Y5450D02*
G01X14613Y5381D01*
G01X14613Y5381D02*
G01X14613Y5336D01*
G01X14613Y5336D02*
G01X14636Y5268D01*
G01X14636Y5268D02*
G01X14681Y5222D01*
G01X14681Y5222D02*
G01X14727Y5200D01*
G01X14727Y5200D02*
G01X14795Y5200D01*
G01X14795Y5200D02*
G01X14840Y5222D01*
G01X14840Y5222D02*
G01X14886Y5268D01*
G01X15659Y5677D02*
G01X15659Y5313D01*
G01X15659Y5313D02*
G01X15636Y5245D01*
G01X15636Y5245D02*
G01X15613Y5222D01*
G01X15613Y5222D02*
G01X15568Y5200D01*
G01X15568Y5200D02*
G01X15522Y5200D01*
G01X15522Y5200D02*
G01X15477Y5222D01*
G01X15477Y5222D02*
G01X15454Y5245D01*
G01X15454Y5245D02*
G01X15431Y5313D01*
G01X15431Y5313D02*
G01X15431Y5359D01*
G01X15954Y5518D02*
G01X15909Y5495D01*
G01X15909Y5495D02*
G01X15863Y5450D01*
G01X15863Y5450D02*
G01X15840Y5381D01*
G01X15840Y5381D02*
G01X15840Y5336D01*
G01X15840Y5336D02*
G01X15863Y5268D01*
G01X15863Y5268D02*
G01X15909Y5222D01*
G01X15909Y5222D02*
G01X15954Y5200D01*
G01X15954Y5200D02*
G01X16022Y5200D01*
G01X16022Y5200D02*
G01X16068Y5222D01*
G01X16068Y5222D02*
G01X16113Y5268D01*
G01X16113Y5268D02*
G01X16136Y5336D01*
G01X16136Y5336D02*
G01X16136Y5381D01*
G01X16136Y5381D02*
G01X16113Y5450D01*
G01X16113Y5450D02*
G01X16068Y5495D01*
G01X16068Y5495D02*
G01X16022Y5518D01*
G01X16022Y5518D02*
G01X15954Y5518D01*
G01X16318Y5677D02*
G01X16318Y5200D01*
G01X16318Y5427D02*
G01X16386Y5495D01*
G01X16386Y5495D02*
G01X16431Y5518D01*
G01X16431Y5518D02*
G01X16499Y5518D01*
G01X16499Y5518D02*
G01X16545Y5495D01*
G01X16545Y5495D02*
G01X16568Y5427D01*
G01X16568Y5427D02*
G01X16568Y5200D01*
G01X16749Y5518D02*
G01X16749Y5200D01*
G01X16749Y5427D02*
G01X16818Y5495D01*
G01X16818Y5495D02*
G01X16863Y5518D01*
G01X16863Y5518D02*
G01X16931Y5518D01*
G01X16931Y5518D02*
G01X16977Y5495D01*
G01X16977Y5495D02*
G01X16999Y5427D01*
G01X16999Y5427D02*
G01X16999Y5200D01*
G01X17431Y5450D02*
G01X17409Y5495D01*
G01X17409Y5495D02*
G01X17340Y5518D01*
G01X17340Y5518D02*
G01X17272Y5518D01*
G01X17272Y5518D02*
G01X17204Y5495D01*
G01X17204Y5495D02*
G01X17181Y5450D01*
G01X17181Y5450D02*
G01X17204Y5404D01*
G01X17204Y5404D02*
G01X17249Y5381D01*
G01X17249Y5381D02*
G01X17363Y5359D01*
G01X17363Y5359D02*
G01X17409Y5336D01*
G01X17409Y5336D02*
G01X17431Y5290D01*
G01X17431Y5290D02*
G01X17431Y5268D01*
G01X17431Y5268D02*
G01X17409Y5222D01*
G01X17409Y5222D02*
G01X17340Y5200D01*
G01X17340Y5200D02*
G01X17272Y5200D01*
G01X17272Y5200D02*
G01X17204Y5222D01*
G01X17204Y5222D02*
G01X17181Y5268D01*
G01X17727Y5518D02*
G01X17681Y5495D01*
G01X17681Y5495D02*
G01X17636Y5450D01*
G01X17636Y5450D02*
G01X17613Y5381D01*
G01X17613Y5381D02*
G01X17613Y5336D01*
G01X17613Y5336D02*
G01X17636Y5268D01*
G01X17636Y5268D02*
G01X17681Y5222D01*
G01X17681Y5222D02*
G01X17727Y5200D01*
G01X17727Y5200D02*
G01X17795Y5200D01*
G01X17795Y5200D02*
G01X17840Y5222D01*
G01X17840Y5222D02*
G01X17886Y5268D01*
G01X17886Y5268D02*
G01X17909Y5336D01*
G01X17909Y5336D02*
G01X17909Y5381D01*
G01X17909Y5381D02*
G01X17886Y5450D01*
G01X17886Y5450D02*
G01X17840Y5495D01*
G01X17840Y5495D02*
G01X17795Y5518D01*
G01X17795Y5518D02*
G01X17727Y5518D01*
G01X18090Y5518D02*
G01X18090Y5200D01*
G01X18090Y5427D02*
G01X18159Y5495D01*
G01X18159Y5495D02*
G01X18204Y5518D01*
G01X18204Y5518D02*
G01X18272Y5518D01*
G01X18272Y5518D02*
G01X18318Y5495D01*
G01X18318Y5495D02*
G01X18340Y5427D01*
G01X18340Y5427D02*
G01X18340Y5200D01*
G54D12*
G01X5200Y6836D02*
G01X5200Y6200D01*
G01X5200Y6654D02*
G01X5336Y6790D01*
G01X5336Y6790D02*
G01X5427Y6836D01*
G01X5427Y6836D02*
G01X5563Y6836D01*
G01X5563Y6836D02*
G01X5654Y6790D01*
G01X5654Y6790D02*
G01X5700Y6654D01*
G01X5700Y6654D02*
G01X5700Y6200D01*
G01X5700Y6654D02*
G01X5836Y6790D01*
G01X5836Y6790D02*
G01X5927Y6836D01*
G01X5927Y6836D02*
G01X6063Y6836D01*
G01X6063Y6836D02*
G01X6154Y6790D01*
G01X6154Y6790D02*
G01X6200Y6654D01*
G01X6200Y6654D02*
G01X6200Y6200D01*
G01X6563Y7154D02*
G01X6563Y6200D01*
G01X6563Y6200D02*
G01X7109Y6200D01*
G01X8018Y6836D02*
G01X8018Y6200D01*
G01X8018Y6700D02*
G01X7927Y6790D01*
G01X7927Y6790D02*
G01X7836Y6836D01*
G01X7836Y6836D02*
G01X7699Y6836D01*
G01X7699Y6836D02*
G01X7609Y6790D01*
G01X7609Y6790D02*
G01X7518Y6700D01*
G01X7518Y6700D02*
G01X7472Y6563D01*
G01X7472Y6563D02*
G01X7472Y6472D01*
G01X7472Y6472D02*
G01X7518Y6336D01*
G01X7518Y6336D02*
G01X7609Y6245D01*
G01X7609Y6245D02*
G01X7699Y6200D01*
G01X7699Y6200D02*
G01X7836Y6200D01*
G01X7836Y6200D02*
G01X7927Y6245D01*
G01X7927Y6245D02*
G01X8018Y6336D01*
G01X8381Y6836D02*
G01X8381Y6381D01*
G01X8381Y6381D02*
G01X8427Y6245D01*
G01X8427Y6245D02*
G01X8518Y6200D01*
G01X8518Y6200D02*
G01X8654Y6200D01*
G01X8654Y6200D02*
G01X8745Y6245D01*
G01X8745Y6245D02*
G01X8881Y6381D01*
G01X8881Y6836D02*
G01X8881Y6200D01*
G01X9245Y6836D02*
G01X9245Y6200D01*
G01X9245Y6654D02*
G01X9381Y6790D01*
G01X9381Y6790D02*
G01X9472Y6836D01*
G01X9472Y6836D02*
G01X9609Y6836D01*
G01X9609Y6836D02*
G01X9699Y6790D01*
G01X9699Y6790D02*
G01X9745Y6654D01*
G01X9745Y6654D02*
G01X9745Y6200D01*
G01X10654Y6700D02*
G01X10563Y6790D01*
G01X10563Y6790D02*
G01X10472Y6836D01*
G01X10472Y6836D02*
G01X10336Y6836D01*
G01X10336Y6836D02*
G01X10245Y6790D01*
G01X10245Y6790D02*
G01X10154Y6700D01*
G01X10154Y6700D02*
G01X10109Y6563D01*
G01X10109Y6563D02*
G01X10109Y6472D01*
G01X10109Y6472D02*
G01X10154Y6336D01*
G01X10154Y6336D02*
G01X10245Y6245D01*
G01X10245Y6245D02*
G01X10336Y6200D01*
G01X10336Y6200D02*
G01X10472Y6200D01*
G01X10472Y6200D02*
G01X10563Y6245D01*
G01X10563Y6245D02*
G01X10654Y6336D01*
G01X11018Y7154D02*
G01X11018Y6200D01*
G01X11018Y6654D02*
G01X11154Y6790D01*
G01X11154Y6790D02*
G01X11245Y6836D01*
G01X11245Y6836D02*
G01X11381Y6836D01*
G01X11381Y6836D02*
G01X11472Y6790D01*
G01X11472Y6790D02*
G01X11518Y6654D01*
G01X11518Y6654D02*
G01X11518Y6200D01*
G01X12699Y7154D02*
G01X13199Y7154D01*
G01X13199Y7154D02*
G01X12927Y6790D01*
G01X12927Y6790D02*
G01X13063Y6790D01*
G01X13063Y6790D02*
G01X13154Y6745D01*
G01X13154Y6745D02*
G01X13199Y6700D01*
G01X13199Y6700D02*
G01X13245Y6563D01*
G01X13245Y6563D02*
G01X13245Y6472D01*
G01X13245Y6472D02*
G01X13199Y6336D01*
G01X13199Y6336D02*
G01X13109Y6245D01*
G01X13109Y6245D02*
G01X12972Y6200D01*
G01X12972Y6200D02*
G01X12836Y6200D01*
G01X12836Y6200D02*
G01X12699Y6245D01*
G01X12699Y6245D02*
G01X12654Y6290D01*
G01X12654Y6290D02*
G01X12609Y6381D01*
G01X13654Y6290D02*
G01X13609Y6245D01*
G01X13609Y6245D02*
G01X13654Y6200D01*
G01X13654Y6200D02*
G01X13699Y6245D01*
G01X13699Y6245D02*
G01X13654Y6290D01*
G01X14336Y7154D02*
G01X14199Y7109D01*
G01X14199Y7109D02*
G01X14109Y6972D01*
G01X14109Y6972D02*
G01X14063Y6745D01*
G01X14063Y6745D02*
G01X14063Y6609D01*
G01X14063Y6609D02*
G01X14109Y6381D01*
G01X14109Y6381D02*
G01X14199Y6245D01*
G01X14199Y6245D02*
G01X14336Y6200D01*
G01X14336Y6200D02*
G01X14427Y6200D01*
G01X14427Y6200D02*
G01X14563Y6245D01*
G01X14563Y6245D02*
G01X14654Y6381D01*
G01X14654Y6381D02*
G01X14699Y6609D01*
G01X14699Y6609D02*
G01X14699Y6745D01*
G01X14699Y6745D02*
G01X14654Y6972D01*
G01X14654Y6972D02*
G01X14563Y7109D01*
G01X14563Y7109D02*
G01X14427Y7154D01*
G01X14427Y7154D02*
G01X14336Y7154D01*
G01X16472Y6927D02*
G01X16427Y7018D01*
G01X16427Y7018D02*
G01X16336Y7109D01*
G01X16336Y7109D02*
G01X16245Y7154D01*
G01X16245Y7154D02*
G01X16063Y7154D01*
G01X16063Y7154D02*
G01X15972Y7109D01*
G01X15972Y7109D02*
G01X15881Y7018D01*
G01X15881Y7018D02*
G01X15836Y6927D01*
G01X15836Y6927D02*
G01X15790Y6790D01*
G01X15790Y6790D02*
G01X15790Y6563D01*
G01X15790Y6563D02*
G01X15836Y6427D01*
G01X15836Y6427D02*
G01X15881Y6336D01*
G01X15881Y6336D02*
G01X15972Y6245D01*
G01X15972Y6245D02*
G01X16063Y6200D01*
G01X16063Y6200D02*
G01X16245Y6200D01*
G01X16245Y6200D02*
G01X16336Y6245D01*
G01X16336Y6245D02*
G01X16427Y6336D01*
G01X16427Y6336D02*
G01X16472Y6427D01*
G01X17063Y6836D02*
G01X16972Y6790D01*
G01X16972Y6790D02*
G01X16881Y6700D01*
G01X16881Y6700D02*
G01X16836Y6563D01*
G01X16836Y6563D02*
G01X16836Y6472D01*
G01X16836Y6472D02*
G01X16881Y6336D01*
G01X16881Y6336D02*
G01X16972Y6245D01*
G01X16972Y6245D02*
G01X17063Y6200D01*
G01X17063Y6200D02*
G01X17199Y6200D01*
G01X17199Y6200D02*
G01X17290Y6245D01*
G01X17290Y6245D02*
G01X17381Y6336D01*
G01X17381Y6336D02*
G01X17427Y6472D01*
G01X17427Y6472D02*
G01X17427Y6563D01*
G01X17427Y6563D02*
G01X17381Y6700D01*
G01X17381Y6700D02*
G01X17290Y6790D01*
G01X17290Y6790D02*
G01X17199Y6836D01*
G01X17199Y6836D02*
G01X17063Y6836D01*
G01X17790Y6836D02*
G01X17790Y6200D01*
G01X17790Y6654D02*
G01X17927Y6790D01*
G01X17927Y6790D02*
G01X18018Y6836D01*
G01X18018Y6836D02*
G01X18154Y6836D01*
G01X18154Y6836D02*
G01X18245Y6790D01*
G01X18245Y6790D02*
G01X18290Y6654D01*
G01X18290Y6654D02*
G01X18290Y6200D01*
G01X18790Y7154D02*
G01X18790Y6381D01*
G01X18790Y6381D02*
G01X18836Y6245D01*
G01X18836Y6245D02*
G01X18927Y6200D01*
G01X18927Y6200D02*
G01X19018Y6200D01*
G01X18654Y6836D02*
G01X18972Y6836D01*
G01X19381Y6836D02*
G01X19381Y6200D01*
G01X19381Y6563D02*
G01X19427Y6700D01*
G01X19427Y6700D02*
G01X19518Y6790D01*
G01X19518Y6790D02*
G01X19609Y6836D01*
G01X19609Y6836D02*
G01X19745Y6836D01*
G01X20336Y6836D02*
G01X20245Y6790D01*
G01X20245Y6790D02*
G01X20154Y6700D01*
G01X20154Y6700D02*
G01X20109Y6563D01*
G01X20109Y6563D02*
G01X20109Y6472D01*
G01X20109Y6472D02*
G01X20154Y6336D01*
G01X20154Y6336D02*
G01X20245Y6245D01*
G01X20245Y6245D02*
G01X20336Y6200D01*
G01X20336Y6200D02*
G01X20472Y6200D01*
G01X20472Y6200D02*
G01X20563Y6245D01*
G01X20563Y6245D02*
G01X20654Y6336D01*
G01X20654Y6336D02*
G01X20699Y6472D01*
G01X20699Y6472D02*
G01X20699Y6563D01*
G01X20699Y6563D02*
G01X20654Y6700D01*
G01X20654Y6700D02*
G01X20563Y6790D01*
G01X20563Y6790D02*
G01X20472Y6836D01*
G01X20472Y6836D02*
G01X20336Y6836D01*
G01X21063Y7154D02*
G01X21063Y6200D01*
G01X21427Y7154D02*
G01X21427Y6200D01*
G01X21790Y6563D02*
G01X22336Y6563D01*
G01X22336Y6563D02*
G01X22336Y6654D01*
G01X22336Y6654D02*
G01X22290Y6745D01*
G01X22290Y6745D02*
G01X22245Y6790D01*
G01X22245Y6790D02*
G01X22154Y6836D01*
G01X22154Y6836D02*
G01X22018Y6836D01*
G01X22018Y6836D02*
G01X21927Y6790D01*
G01X21927Y6790D02*
G01X21836Y6700D01*
G01X21836Y6700D02*
G01X21790Y6563D01*
G01X21790Y6563D02*
G01X21790Y6472D01*
G01X21790Y6472D02*
G01X21836Y6336D01*
G01X21836Y6336D02*
G01X21927Y6245D01*
G01X21927Y6245D02*
G01X22018Y6200D01*
G01X22018Y6200D02*
G01X22154Y6200D01*
G01X22154Y6200D02*
G01X22245Y6245D01*
G01X22245Y6245D02*
G01X22336Y6336D01*
G01X22700Y6836D02*
G01X22700Y6200D01*
G01X22700Y6563D02*
G01X22745Y6700D01*
G01X22745Y6700D02*
G01X22836Y6790D01*
G01X22836Y6790D02*
G01X22927Y6836D01*
G01X22927Y6836D02*
G01X23063Y6836D01*
G01X24154Y6836D02*
G01X24154Y6200D01*
G01X24154Y6563D02*
G01X24199Y6700D01*
G01X24199Y6700D02*
G01X24290Y6790D01*
G01X24290Y6790D02*
G01X24381Y6836D01*
G01X24381Y6836D02*
G01X24518Y6836D01*
G01X24927Y6927D02*
G01X24927Y6972D01*
G01X24927Y6972D02*
G01X24972Y7063D01*
G01X24972Y7063D02*
G01X25018Y7109D01*
G01X25018Y7109D02*
G01X25109Y7154D01*
G01X25109Y7154D02*
G01X25290Y7154D01*
G01X25290Y7154D02*
G01X25381Y7109D01*
G01X25381Y7109D02*
G01X25427Y7063D01*
G01X25427Y7063D02*
G01X25472Y6972D01*
G01X25472Y6972D02*
G01X25472Y6881D01*
G01X25472Y6881D02*
G01X25427Y6790D01*
G01X25427Y6790D02*
G01X25336Y6654D01*
G01X25336Y6654D02*
G01X24881Y6200D01*
G01X24881Y6200D02*
G01X25518Y6200D01*
M00*
M02*
