G04 FreePCB version 1.359*
G04 C:\Users\Wayne\Documents\GitHub\mlaunch\mGPS\CAM10478\bottom_silk.grb*
G04 bottom silk layer *
G04 Scale: 100 percent, Rotated: No, Reflected: No *
%FSLAX24Y24*%
%MOIN*%
%LN bottom silk *%
G04 Rounded Rectangle Macro, params: W/2, H/2, R *
%AMRNDREC*
21,1,$1+$1,$2+$2-$3-$3,0,0,0*
21,1,$1+$1-$3-$3,$2+$2,0,0,0*
1,1,$3+$3,$1-$3,$2-$3*
1,1,$3+$3,$3-$1,$2-$3*
1,1,$3+$3,$1-$3,$3-$2*
1,1,$3+$3,$3-$1,$3-$2*%
G04 Rectangular Thermal Macro, params: W/2, H/2, T/2 *
%AMRECTHERM*
$4=$3/2*
21,1,$1-$3,$2-$3,0-$1/2-$4,0-$2/2-$4,0*
21,1,$1-$3,$2-$3,0-$1/2-$4,$2/2+$4,0*
21,1,$1-$3,$2-$3,$1/2+$4,0-$2/2-$4,0*
21,1,$1-$3,$2-$3,$1/2+$4,$2/2+$4,0*%
%ADD10C,0.005000*%
%ADD11C,0.007000*%
%ADD12C,0.010000*%
G90*
G70D02*

G04 Step and Repeat for panelization *

G04 ----------------------- Draw board outline (positive)*
%LPD*%
G54D10*
G01X-11600Y8100D02*
G01X-11600Y-7900D01*
G04 end of side 1*
G01X12900Y-7900D01*
G04 end of side 2*
G01X12900Y8100D01*
G04 end of side 3*
G01X-11600Y8100D01*

G04 -------------- Draw Parts, Pads, Traces, Vias and Text (positive)*
%LPD*%
G04 Draw part U1*
G04 Draw part C1*
G04 Draw part C2*
G04 Draw part h1*
G04 Draw part h2*
G04 Draw part h3*
G04 Draw part h4*
G04 Draw part C3*
G04 Draw part L2*
G04 Draw part C4*
G04 Draw part C6*
G04 Draw part C5*
G04 Draw part C7*
G04 Draw part L1*
G04 Draw part L3*
G04 Draw part C8*
G04 Draw part U3*
G04 Draw part B1*
G04 draw part outline for part B1*
G54D11*
G01X8600Y4400D02*
G01X4200Y4400D01*
G01X4200Y4400D02*
G01X4200Y7600D01*
G01X4200Y7600D02*
G01X8600Y7600D01*
G01X8600Y7600D02*
G01X8600Y4400D01*
G54D12*
G01X-8250Y4400D02*
G01X-8250Y7600D01*
G01X-8250Y7600D02*
G01X-3850Y7600D01*
G01X-3850Y7600D02*
G01X-3850Y4400D01*
G01X-3850Y4400D02*
G01X-8250Y4400D01*
G04 draw reference designator for part B1*
G01X300Y6954D02*
G01X300Y6000D01*
G01X-109Y6954D02*
G01X300Y6954D01*
G01X-109Y6954D02*
G01X-245Y6909D01*
G01X-245Y6909D02*
G01X-290Y6863D01*
G01X-290Y6863D02*
G01X-336Y6772D01*
G01X-336Y6772D02*
G01X-336Y6681D01*
G01X-336Y6681D02*
G01X-290Y6590D01*
G01X-290Y6590D02*
G01X-245Y6545D01*
G01X-245Y6545D02*
G01X-109Y6500D01*
G01X-109Y6500D02*
G01X300Y6500D01*
G01X-109Y6500D02*
G01X-245Y6454D01*
G01X-245Y6454D02*
G01X-290Y6409D01*
G01X-290Y6409D02*
G01X-336Y6318D01*
G01X-336Y6318D02*
G01X-336Y6181D01*
G01X-336Y6181D02*
G01X-290Y6090D01*
G01X-290Y6090D02*
G01X-245Y6045D01*
G01X-245Y6045D02*
G01X-109Y6000D01*
G01X300Y6000D02*
G01X-109Y6000D01*
G01X-790Y6818D02*
G01X-700Y6772D01*
G01X-927Y6954D02*
G01X-790Y6818D01*
G01X-927Y6954D02*
G01X-927Y6000D01*
G04 Draw part U2*
G04 Draw part D1*
G04 Draw part R1*
G04 Draw part B2*
G04 draw part outline for part B2*
G54D11*
G01X-8250Y3600D02*
G01X-3850Y3600D01*
G01X-3850Y3600D02*
G01X-3850Y400D01*
G01X-3850Y400D02*
G01X-8250Y400D01*
G01X-8250Y400D02*
G01X-8250Y3600D01*
G54D12*
G01X8600Y3600D02*
G01X8600Y400D01*
G01X8600Y400D02*
G01X4200Y400D01*
G01X4200Y400D02*
G01X4200Y3600D01*
G01X4200Y3600D02*
G01X8600Y3600D01*
G04 draw reference designator for part B2*
G01X400Y2354D02*
G01X400Y1400D01*
G01X-9Y2354D02*
G01X400Y2354D01*
G01X-9Y2354D02*
G01X-145Y2309D01*
G01X-145Y2309D02*
G01X-190Y2263D01*
G01X-190Y2263D02*
G01X-236Y2172D01*
G01X-236Y2172D02*
G01X-236Y2081D01*
G01X-236Y2081D02*
G01X-190Y1990D01*
G01X-190Y1990D02*
G01X-145Y1945D01*
G01X-145Y1945D02*
G01X-9Y1900D01*
G01X-9Y1900D02*
G01X400Y1900D01*
G01X-9Y1900D02*
G01X-145Y1854D01*
G01X-145Y1854D02*
G01X-190Y1809D01*
G01X-190Y1809D02*
G01X-236Y1718D01*
G01X-236Y1718D02*
G01X-236Y1581D01*
G01X-236Y1581D02*
G01X-190Y1490D01*
G01X-190Y1490D02*
G01X-145Y1445D01*
G01X-145Y1445D02*
G01X-9Y1400D01*
G01X400Y1400D02*
G01X-9Y1400D01*
G01X-645Y2172D02*
G01X-645Y2127D01*
G01X-690Y2263D02*
G01X-645Y2172D01*
G01X-736Y2309D02*
G01X-690Y2263D01*
G01X-827Y2354D02*
G01X-736Y2309D01*
G01X-1009Y2354D02*
G01X-827Y2354D01*
G01X-1009Y2354D02*
G01X-1100Y2309D01*
G01X-1100Y2309D02*
G01X-1145Y2263D01*
G01X-1145Y2263D02*
G01X-1190Y2172D01*
G01X-1190Y2172D02*
G01X-1190Y2081D01*
G01X-1190Y2081D02*
G01X-1145Y1990D01*
G01X-1145Y1990D02*
G01X-1054Y1854D01*
G01X-1054Y1854D02*
G01X-600Y1400D01*
G01X-1236Y1400D02*
G01X-600Y1400D01*
G04 Draw part B3*
G04 draw part outline for part B3*
G54D11*
G01X8600Y-3600D02*
G01X4200Y-3600D01*
G01X4200Y-3600D02*
G01X4200Y-400D01*
G01X4200Y-400D02*
G01X8600Y-400D01*
G01X8600Y-400D02*
G01X8600Y-3600D01*
G54D12*
G01X-8250Y-3600D02*
G01X-8250Y-400D01*
G01X-8250Y-400D02*
G01X-3850Y-400D01*
G01X-3850Y-400D02*
G01X-3850Y-3600D01*
G01X-3850Y-3600D02*
G01X-8250Y-3600D01*
G04 draw reference designator for part B3*
G01X500Y-1545D02*
G01X500Y-2500D01*
G01X90Y-1545D02*
G01X500Y-1545D01*
G01X90Y-1545D02*
G01X-45Y-1590D01*
G01X-45Y-1590D02*
G01X-90Y-1636D01*
G01X-90Y-1636D02*
G01X-136Y-1727D01*
G01X-136Y-1727D02*
G01X-136Y-1818D01*
G01X-136Y-1818D02*
G01X-90Y-1909D01*
G01X-90Y-1909D02*
G01X-45Y-1954D01*
G01X-45Y-1954D02*
G01X90Y-2000D01*
G01X90Y-2000D02*
G01X500Y-2000D01*
G01X90Y-2000D02*
G01X-45Y-2045D01*
G01X-45Y-2045D02*
G01X-90Y-2090D01*
G01X-90Y-2090D02*
G01X-136Y-2181D01*
G01X-136Y-2181D02*
G01X-136Y-2318D01*
G01X-136Y-2318D02*
G01X-90Y-2409D01*
G01X-90Y-2409D02*
G01X-45Y-2454D01*
G01X-45Y-2454D02*
G01X90Y-2500D01*
G01X500Y-2500D02*
G01X90Y-2500D01*
G01X-1090Y-1545D02*
G01X-590Y-1545D01*
G01X-1090Y-1545D02*
G01X-818Y-1909D01*
G01X-954Y-1909D02*
G01X-818Y-1909D01*
G01X-954Y-1909D02*
G01X-1045Y-1954D01*
G01X-1045Y-1954D02*
G01X-1090Y-2000D01*
G01X-1090Y-2000D02*
G01X-1136Y-2136D01*
G01X-1136Y-2136D02*
G01X-1136Y-2227D01*
G01X-1136Y-2227D02*
G01X-1090Y-2363D01*
G01X-1090Y-2363D02*
G01X-1000Y-2454D01*
G01X-1000Y-2454D02*
G01X-863Y-2500D01*
G01X-727Y-2500D02*
G01X-863Y-2500D01*
G01X-590Y-2454D02*
G01X-727Y-2500D01*
G01X-545Y-2409D02*
G01X-590Y-2454D01*
G01X-500Y-2318D02*
G01X-545Y-2409D01*
G04 Draw part B4*
G04 draw part outline for part B4*
G54D11*
G01X-8250Y-4400D02*
G01X-3850Y-4400D01*
G01X-3850Y-4400D02*
G01X-3850Y-7600D01*
G01X-3850Y-7600D02*
G01X-8250Y-7600D01*
G01X-8250Y-7600D02*
G01X-8250Y-4400D01*
G54D12*
G01X8600Y-4400D02*
G01X8600Y-7600D01*
G01X8600Y-7600D02*
G01X4200Y-7600D01*
G01X4200Y-7600D02*
G01X4200Y-4400D01*
G01X4200Y-4400D02*
G01X8600Y-4400D01*
G04 draw reference designator for part B4*
G01X600Y-5545D02*
G01X600Y-6500D01*
G01X190Y-5545D02*
G01X600Y-5545D01*
G01X190Y-5545D02*
G01X54Y-5590D01*
G01X54Y-5590D02*
G01X9Y-5636D01*
G01X9Y-5636D02*
G01X-36Y-5727D01*
G01X-36Y-5727D02*
G01X-36Y-5818D01*
G01X-36Y-5818D02*
G01X9Y-5909D01*
G01X9Y-5909D02*
G01X54Y-5954D01*
G01X54Y-5954D02*
G01X190Y-6000D01*
G01X190Y-6000D02*
G01X600Y-6000D01*
G01X190Y-6000D02*
G01X54Y-6045D01*
G01X54Y-6045D02*
G01X9Y-6090D01*
G01X9Y-6090D02*
G01X-36Y-6181D01*
G01X-36Y-6181D02*
G01X-36Y-6318D01*
G01X-36Y-6318D02*
G01X9Y-6409D01*
G01X9Y-6409D02*
G01X54Y-6454D01*
G01X54Y-6454D02*
G01X190Y-6500D01*
G01X600Y-6500D02*
G01X190Y-6500D01*
G01X-854Y-5545D02*
G01X-400Y-6181D01*
G01X-1081Y-6181D02*
G01X-400Y-6181D01*
G01X-854Y-5545D02*
G01X-854Y-6500D01*

G04 Draw traces*

G04 Draw Text*
M00*
M02*
