;Holesize 1 =  125.0 PLATED MILS
;Holesize 2 =   60.0 PLATED MILS
;Holesize 3 =   29.0 PLATED MILS
M48
INCH,00.0000
T01C0.125
T02C0.060
T03C0.029
%
G05
G90
T01
X-022500Y017000
X-022500Y003000
X000000Y003000
X000000Y017000
T02
X-006000Y010000
X-014070Y010000
T03
X-017000Y006000
X-016220Y006000
X-015430Y006000
X-014637Y006000
X-013850Y006000
X-013062Y006000
X-012275Y006000
X-011488Y006000
X-010700Y006000
X-009913Y006000
X-009913Y014661
X-010700Y014661
X-011488Y014661
X-012275Y014661
X-013062Y014661
X-013850Y014661
X-014637Y014661
X-015425Y014661
X-016212Y014661
X-017000Y014660
M30
