;Holesize 1 =  125.0 PLATED MILS
;Holesize 2 =   29.0 PLATED MILS
;Holesize 3 =   14.0 PLATED MILS
M48
INCH,00.0000
T01C0.125
T02C0.029
T03C0.014
%
G05
G90
T01
X-010600Y007100
X-010600Y-006900
X011900Y-006900
X011900Y007100
T02
X-005100Y-003900
X-004320Y-003900
X-003530Y-003900
X-002737Y-003900
X-001950Y-003900
X-001162Y-003900
X-000375Y-003900
X000411Y-003900
X001199Y-003900
X001986Y-003900
X001986Y004761
X001199Y004761
X000411Y004761
X-000375Y004761
X-001162Y004761
X-001950Y004761
X-002737Y004761
X-003525Y004761
X-004312Y004761
X-005100Y004760
T03
X006850Y004803
M30
