G04 FreePCB version 1.359*
G04 C:\Users\waynej\Documents\GitHub\mlaunch\mGPS\CAM10478\top_solder_mask.grb*
G04 top solder mask layer *
G04 Scale: 100 percent, Rotated: No, Reflected: No *
%FSLAX24Y24*%
%MOIN*%
%LN top solder mask *%
G04 Rounded Rectangle Macro, params: W/2, H/2, R *
%AMRNDREC*
21,1,$1+$1,$2+$2-$3-$3,0,0,0*
21,1,$1+$1-$3-$3,$2+$2,0,0,0*
1,1,$3+$3,$1-$3,$2-$3*
1,1,$3+$3,$3-$1,$2-$3*
1,1,$3+$3,$1-$3,$3-$2*
1,1,$3+$3,$3-$1,$3-$2*%
G04 Rectangular Thermal Macro, params: W/2, H/2, T/2 *
%AMRECTHERM*
$4=$3/2*
21,1,$1-$3,$2-$3,0-$1/2-$4,0-$2/2-$4,0*
21,1,$1-$3,$2-$3,0-$1/2-$4,$2/2+$4,0*
21,1,$1-$3,$2-$3,$1/2+$4,0-$2/2-$4,0*
21,1,$1-$3,$2-$3,$1/2+$4,$2/2+$4,0*%
%ADD10C,0.005000*%
%ADD11R,0.071118X0.082929*%
%ADD12R,0.173480X0.082929*%
%ADD13R,0.212850X0.094740*%
%ADD14R,0.078992X0.094740*%
%ADD15C,0.141000*%
%ADD16R,0.094740X0.078992*%
%ADD17R,0.043559X0.094740*%
%ADD18R,0.094740X0.043559*%
%ADD19R,0.106000X0.106000*%
%ADD20R,0.066000X0.066000*%
G90*
G70D02*

G04 Step and Repeat for panelization *

G04 ----------------------- Draw board outline (positive)*
%LPD*%
G54D10*
G01X-23500Y18000D02*
G01X-23500Y2000D01*
G04 end of side 1*
G01X1000Y2000D01*
G04 end of side 2*
G01X1000Y18000D01*
G04 end of side 3*
G01X-23500Y18000D01*

G04 -------------- Draw Parts, Pads, Traces, Vias and Text (positive)*
%LPD*%
G04 Draw part U1*
G54D11*
G01X-2000Y7000D03*
G01X-2905Y7000D03*
G01X-3811Y7000D03*
G54D12*
G01X-2905Y4440D03*
G04 Draw part C1*
G54D13*
G01X-5035Y14000D03*
G01X-1964Y14000D03*
G04 Draw part C2*
G54D14*
G01X-3000Y10000D03*
G01X-1897Y10000D03*
G04 Draw part h1*
G54D15*
G01X-21000Y17000D03*
G04 Draw part h2*
G01X-21000Y3000D03*
G04 Draw part h3*
G01X0Y3000D03*
G04 Draw part h4*
G01X0Y17000D03*
G04 Draw part C3*
G54D16*
G01X-5000Y5000D03*
G01X-5000Y6102D03*
G04 Draw part L2*
G54D14*
G01X-21700Y7100D03*
G01X-20597Y7100D03*
G04 Draw part C4*
G54D16*
G01X-21700Y4800D03*
G01X-21700Y5902D03*
G04 Draw part C6*
G01X-20300Y4800D03*
G01X-20300Y5902D03*
G04 Draw part C5*
G54D14*
G01X-21000Y15400D03*
G01X-22102Y15400D03*
G04 Draw part C7*
G01X-21000Y13700D03*
G01X-22102Y13700D03*
G04 Draw part L1*
G01X-18700Y15400D03*
G01X-19802Y15400D03*
G04 Draw part L3*
G01X-18700Y13700D03*
G01X-19802Y13700D03*
G04 Draw part C8*
G54D16*
G01X-18800Y5900D03*
G01X-18800Y4797D03*
G04 Draw part U3*
G54D17*
G01X-23030Y8574D03*
G01X-22597Y8574D03*
G01X-22164Y8574D03*
G01X-21731Y8574D03*
G01X-21298Y8574D03*
G01X-20865Y8574D03*
G01X-20432Y8574D03*
G01X-19999Y8574D03*
G01X-19566Y8574D03*
G01X-19133Y8574D03*
G01X-18700Y8574D03*
G54D18*
G01X-18011Y9200D03*
G01X-18011Y9633D03*
G01X-18011Y10066D03*
G01X-18011Y10499D03*
G01X-18011Y10932D03*
G01X-18011Y11365D03*
G54D17*
G01X-18700Y11991D03*
G01X-19133Y11991D03*
G01X-19566Y11991D03*
G01X-19999Y11991D03*
G01X-20432Y11991D03*
G01X-20865Y11991D03*
G01X-21298Y11991D03*
G01X-21731Y11991D03*
G01X-22164Y11991D03*
G01X-22597Y11991D03*
G01X-23030Y11991D03*
G04 Draw part B1*
G54D19*
G01X-6000Y10000D03*
G01X-14070Y10000D03*
G04 Draw part U2*
G54D20*
G01X-17000Y6000D03*
G01X-16220Y6000D03*
G01X-15430Y6000D03*
G01X-14637Y6000D03*
G01X-13850Y6000D03*
G01X-13062Y6000D03*
G01X-12275Y6000D03*
G01X-11488Y6000D03*
G01X-10700Y6000D03*
G01X-9913Y6000D03*
G01X-9913Y14661D03*
G01X-10700Y14661D03*
G01X-11488Y14661D03*
G01X-12275Y14661D03*
G01X-13062Y14661D03*
G01X-13850Y14661D03*
G01X-14637Y14661D03*
G01X-15425Y14661D03*
G01X-16212Y14661D03*
G01X-17000Y14660D03*

G04 Draw traces*

G04 Draw Text*

G04 Draw solder mask cutouts*
G36*
G01X-4200Y6400D02*
G01X-1600Y6400D01*
G01X-1600Y5000D01*
G01X-4200Y5000D01*
G01X-4200Y6400D01*
G37*
M00*
M02*
