G04 FreePCB version 1.359*
G04 C:\Users\waynej\Documents\GitHub\mlaunch\mGPS\CAM10478\top_copper.grb*
G04 top copper layer *
G04 Scale: 100 percent, Rotated: No, Reflected: No *
%FSLAX24Y24*%
%MOIN*%
%LN top copper *%
G04 Rounded Rectangle Macro, params: W/2, H/2, R *
%AMRNDREC*
21,1,$1+$1,$2+$2-$3-$3,0,0,0*
21,1,$1+$1-$3-$3,$2+$2,0,0,0*
1,1,$3+$3,$1-$3,$2-$3*
1,1,$3+$3,$3-$1,$2-$3*
1,1,$3+$3,$1-$3,$3-$2*
1,1,$3+$3,$3-$1,$3-$2*%
G04 Rectangular Thermal Macro, params: W/2, H/2, T/2 *
%AMRECTHERM*
$4=$3/2*
21,1,$1-$3,$2-$3,0-$1/2-$4,0-$2/2-$4,0*
21,1,$1-$3,$2-$3,0-$1/2-$4,$2/2+$4,0*
21,1,$1-$3,$2-$3,$1/2+$4,0-$2/2-$4,0*
21,1,$1-$3,$2-$3,$1/2+$4,$2/2+$4,0*%
%ADD10C,0.005000*%
%ADD11R,0.075118X0.086929*%
%ADD12R,0.177480X0.086929*%
%ADD13R,0.216850X0.098740*%
%ADD14R,0.082992X0.098740*%
%ADD15C,0.155000*%
%ADD16R,0.098740X0.082992*%
%ADD17R,0.047559X0.098740*%
%ADD18R,0.098740X0.047559*%
%ADD19R,0.110000X0.110000*%
%ADD20RECTHERM,0.055000X0.055000X0.005000*%
%ADD21C,0.001000*%
%ADD22R,0.070000X0.070000*%
%ADD23RECTHERM,0.035000X0.035000X0.005000*%
%ADD24C,0.045000*%
%ADD25C,0.030000*%
%ADD26R,0.055118X0.066929*%
%ADD27R,0.157480X0.066929*%
%ADD28R,0.196850X0.078740*%
%ADD29R,0.062992X0.078740*%
%ADD30R,0.078740X0.062992*%
%ADD31R,0.027559X0.078740*%
%ADD32R,0.078740X0.027559*%
%ADD33R,0.090000X0.090000*%
%ADD34R,0.050000X0.050000*%
%ADD35C,0.025000*%
%ADD36C,0.010000*%
G90*
G70D02*

G04 Step and Repeat for panelization *

G04 ----------------------- Draw board outline (positive)*
%LPD*%
G54D10*
G01X-23500Y18000D02*
G01X-23500Y2000D01*
G04 end of side 1*
G01X1000Y2000D01*
G04 end of side 2*
G01X1000Y18000D01*
G04 end of side 3*
G01X-23500Y18000D01*

G04 ----------------------- Draw copper area (positive)*
G36*
G01X-787Y3582D02*
G01X-21338Y3582D01*
G01X-21338Y16417D01*
G01X-787Y16417D01*
G01X-787Y3582D01*
G37*

G04 -------------------- Draw copper area clearances (negative)*
%LPC*%

G04 Draw clearances for pads*
G54D11*
G01X-2000Y7000D03*
G01X-2905Y7000D03*
G01X-3811Y7000D03*
G54D12*
G01X-2905Y4440D03*
G54D13*
G01X-5035Y14000D03*
G01X-1964Y14000D03*
G54D14*
G01X-3000Y10000D03*
G01X-1897Y10000D03*
G54D15*
G01X-22500Y17000D03*
G01X-22500Y3000D03*
G01X0Y3000D03*
G01X0Y17000D03*
G54D16*
G01X-5000Y5000D03*
G01X-5000Y6102D03*
G54D14*
G01X-21700Y7100D03*
G01X-20597Y7100D03*
G54D16*
G01X-21700Y4800D03*
G01X-21700Y5902D03*
G01X-20300Y4800D03*
G01X-20300Y5902D03*
G54D14*
G01X-21000Y15400D03*
G01X-22102Y15400D03*
G01X-21000Y13700D03*
G01X-22102Y13700D03*
G01X-18700Y15400D03*
G01X-19802Y15400D03*
G01X-18700Y13700D03*
G01X-19802Y13700D03*
G54D16*
G01X-18800Y5900D03*
G01X-18800Y4797D03*
G54D17*
G01X-23030Y8574D03*
G01X-22597Y8574D03*
G01X-22164Y8574D03*
G01X-21731Y8574D03*
G01X-21298Y8574D03*
G01X-20865Y8574D03*
G01X-20432Y8574D03*
G01X-19999Y8574D03*
G01X-19566Y8574D03*
G01X-19133Y8574D03*
G01X-18700Y8574D03*
G54D18*
G01X-17991Y9200D03*
G01X-17991Y9633D03*
G01X-17991Y10066D03*
G01X-17991Y10499D03*
G01X-17991Y10932D03*
G01X-17991Y11365D03*
G54D17*
G01X-18700Y11991D03*
G01X-19133Y11991D03*
G01X-19566Y11991D03*
G01X-19999Y11991D03*
G01X-20432Y11991D03*
G01X-20865Y11991D03*
G01X-21298Y11991D03*
G01X-21731Y11991D03*
G01X-22164Y11991D03*
G01X-22597Y11991D03*
G01X-23030Y11991D03*
G54D19*
G01X-6000Y10000D03*
G54D20*
G01X-14070Y10000D03*
G54D21*
G54D22*
G01X-17000Y6000D03*
G01X-16220Y6000D03*
G01X-15430Y6000D03*
G01X-14637Y6000D03*
G01X-13850Y6000D03*
G01X-13062Y6000D03*
G01X-12275Y6000D03*
G01X-11488Y6000D03*
G01X-10700Y6000D03*
G54D23*
G01X-9913Y6000D03*
G54D21*
G54D22*
G01X-9913Y14661D03*
G01X-10700Y14661D03*
G01X-11488Y14661D03*
G01X-12275Y14661D03*
G01X-13062Y14661D03*
G01X-13850Y14661D03*
G01X-14637Y14661D03*
G01X-15425Y14661D03*
G01X-16212Y14661D03*
G01X-17000Y14660D03*

G04 Draw clearances for traces*
G54D24*
G01X-17000Y6000D02*
G01X-17000Y4400D01*
G01X-17000Y4400D02*
G01X-4000Y4400D01*
G01X-4000Y4400D02*
G01X-2905Y4440D01*
G01X-2905Y7000D02*
G01X-3000Y10000D01*
G01X-5000Y5000D02*
G01X-5000Y4400D01*
G01X-5000Y4400D02*
G01X-4959Y4440D01*
G01X-4959Y4440D02*
G01X-2905Y4440D01*
G01X-2905Y7000D02*
G01X-2905Y4440D01*
G01X-18800Y5900D02*
G01X-17000Y6000D01*
G01X-18800Y5900D02*
G01X-18800Y6910D01*
G01X-18800Y6910D02*
G01X-19881Y7992D01*
G01X-19881Y7992D02*
G01X-19881Y7992D01*
G01X-19881Y7992D02*
G01X-20000Y8110D01*
G01X-20000Y8110D02*
G01X-19999Y8574D01*
G54D25*
G01X-19802Y13700D02*
G01X-21000Y13700D01*
G01X-19802Y13700D02*
G01X-19802Y14449D01*
G01X-19802Y14449D02*
G01X-19251Y15000D01*
G01X-19251Y15000D02*
G01X-19251Y16181D01*
G01X-19251Y16181D02*
G01X-18070Y16181D01*
G01X-18070Y16181D02*
G01X-18070Y13740D01*
G01X-18070Y13740D02*
G01X-16299Y11968D01*
G01X-16299Y11968D02*
G01X-16220Y6000D01*
G01X-20300Y5902D02*
G01X-20597Y7100D01*
G01X-20597Y7100D02*
G01X-20590Y7755D01*
G01X-20590Y7755D02*
G01X-20865Y8030D01*
G01X-20865Y8030D02*
G01X-20865Y8574D01*
G01X-21000Y15400D02*
G01X-19802Y15400D01*
G01X-19802Y15400D02*
G01X-19802Y16180D01*
G01X-19802Y16180D02*
G01X-19803Y16614D01*
G01X-19803Y16614D02*
G01X-17795Y16614D01*
G01X-17795Y16614D02*
G01X-17795Y14094D01*
G01X-17795Y14094D02*
G01X-15511Y11811D01*
G01X-15511Y11811D02*
G01X-15430Y6000D01*
G01X-18700Y13700D02*
G01X-18700Y13228D01*
G01X-18700Y13228D02*
G01X-19566Y12362D01*
G01X-19566Y12362D02*
G01X-19566Y11991D01*
G01X-18700Y15400D02*
G01X-18661Y15157D01*
G01X-18661Y15157D02*
G01X-19291Y14527D01*
G01X-19291Y14527D02*
G01X-19291Y13149D01*
G01X-19291Y13149D02*
G01X-20000Y12440D01*
G01X-20000Y12440D02*
G01X-19999Y11991D01*
G01X-21700Y7100D02*
G01X-21700Y5902D01*
G01X-21731Y8574D02*
G01X-21731Y7914D01*
G01X-21731Y7914D02*
G01X-21732Y7913D01*
G01X-21732Y7913D02*
G01X-21692Y7874D01*
G01X-21692Y7874D02*
G01X-21700Y7100D01*
G54D24*
G01X-3811Y7000D02*
G01X-6000Y10000D01*
G01X-5035Y14000D02*
G01X-6000Y10000D01*

G04 Draw clearances for text*

G04 -------------- Draw Parts, Pads, Traces, Vias and Text (positive)*
%LPD*%
G04 Draw part U1*
G54D26*
G01X-2000Y7000D03*
G01X-2905Y7000D03*
G01X-3811Y7000D03*
G54D27*
G01X-2905Y4440D03*
G04 Draw part C1*
G54D28*
G01X-5035Y14000D03*
G01X-1964Y14000D03*
G04 Draw part C2*
G54D29*
G01X-3000Y10000D03*
G01X-1897Y10000D03*
G04 Draw part h1*
G04 Draw part h2*
G04 Draw part h3*
G04 Draw part h4*
G04 Draw part C3*
G54D30*
G01X-5000Y5000D03*
G01X-5000Y6102D03*
G04 Draw part L2*
G54D29*
G01X-21700Y7100D03*
G01X-20597Y7100D03*
G04 Draw part C4*
G54D30*
G01X-21700Y4800D03*
G01X-21700Y5902D03*
G04 Draw part C6*
G01X-20300Y4800D03*
G01X-20300Y5902D03*
G04 Draw part C5*
G54D29*
G01X-21000Y15400D03*
G01X-22102Y15400D03*
G04 Draw part C7*
G01X-21000Y13700D03*
G01X-22102Y13700D03*
G04 Draw part L1*
G01X-18700Y15400D03*
G01X-19802Y15400D03*
G04 Draw part L3*
G01X-18700Y13700D03*
G01X-19802Y13700D03*
G04 Draw part C8*
G54D30*
G01X-18800Y5900D03*
G01X-18800Y4797D03*
G04 Draw part U3*
G54D31*
G01X-23030Y8574D03*
G01X-22597Y8574D03*
G01X-22164Y8574D03*
G01X-21731Y8574D03*
G01X-21298Y8574D03*
G01X-20865Y8574D03*
G01X-20432Y8574D03*
G01X-19999Y8574D03*
G01X-19566Y8574D03*
G01X-19133Y8574D03*
G01X-18700Y8574D03*
G54D32*
G01X-17991Y9200D03*
G01X-17991Y9633D03*
G01X-17991Y10066D03*
G01X-17991Y10499D03*
G01X-17991Y10932D03*
G01X-17991Y11365D03*
G54D31*
G01X-18700Y11991D03*
G01X-19133Y11991D03*
G01X-19566Y11991D03*
G01X-19999Y11991D03*
G01X-20432Y11991D03*
G01X-20865Y11991D03*
G01X-21298Y11991D03*
G01X-21731Y11991D03*
G01X-22164Y11991D03*
G01X-22597Y11991D03*
G01X-23030Y11991D03*
G04 Draw part B1*
G54D33*
G01X-6000Y10000D03*
G01X-14070Y10000D03*
G04 Draw part U2*
G54D34*
G01X-17000Y6000D03*
G01X-16220Y6000D03*
G01X-15430Y6000D03*
G01X-14637Y6000D03*
G01X-13850Y6000D03*
G01X-13062Y6000D03*
G01X-12275Y6000D03*
G01X-11488Y6000D03*
G01X-10700Y6000D03*
G01X-9913Y6000D03*
G01X-9913Y14661D03*
G01X-10700Y14661D03*
G01X-11488Y14661D03*
G01X-12275Y14661D03*
G01X-13062Y14661D03*
G01X-13850Y14661D03*
G01X-14637Y14661D03*
G01X-15425Y14661D03*
G01X-16212Y14661D03*
G01X-17000Y14660D03*

G04 Draw traces*
G54D35*
G01X-17000Y6000D02*
G01X-17000Y4400D01*
G01X-17000Y4400D02*
G01X-4000Y4400D01*
G01X-4000Y4400D02*
G01X-2905Y4440D01*
G01X-2905Y7000D02*
G01X-3000Y10000D01*
G01X-5000Y5000D02*
G01X-5000Y4400D01*
G01X-5000Y4400D02*
G01X-4959Y4440D01*
G01X-4959Y4440D02*
G01X-2905Y4440D01*
G01X-2905Y7000D02*
G01X-2905Y4440D01*
G01X-18800Y5900D02*
G01X-17000Y6000D01*
G01X-18800Y5900D02*
G01X-18800Y6910D01*
G01X-18800Y6910D02*
G01X-19881Y7992D01*
G01X-19881Y7992D02*
G01X-19881Y7992D01*
G01X-19881Y7992D02*
G01X-20000Y8110D01*
G01X-20000Y8110D02*
G01X-19999Y8574D01*
G54D36*
G01X-19802Y13700D02*
G01X-21000Y13700D01*
G01X-19802Y13700D02*
G01X-19802Y14449D01*
G01X-19802Y14449D02*
G01X-19251Y15000D01*
G01X-19251Y15000D02*
G01X-19251Y16181D01*
G01X-19251Y16181D02*
G01X-18070Y16181D01*
G01X-18070Y16181D02*
G01X-18070Y13740D01*
G01X-18070Y13740D02*
G01X-16299Y11968D01*
G01X-16299Y11968D02*
G01X-16220Y6000D01*
G01X-20300Y5902D02*
G01X-20597Y7100D01*
G01X-20597Y7100D02*
G01X-20590Y7755D01*
G01X-20590Y7755D02*
G01X-20865Y8030D01*
G01X-20865Y8030D02*
G01X-20865Y8574D01*
G01X-21000Y15400D02*
G01X-19802Y15400D01*
G01X-19802Y15400D02*
G01X-19802Y16180D01*
G01X-19802Y16180D02*
G01X-19803Y16614D01*
G01X-19803Y16614D02*
G01X-17795Y16614D01*
G01X-17795Y16614D02*
G01X-17795Y14094D01*
G01X-17795Y14094D02*
G01X-15511Y11811D01*
G01X-15511Y11811D02*
G01X-15430Y6000D01*
G01X-18700Y13700D02*
G01X-18700Y13228D01*
G01X-18700Y13228D02*
G01X-19566Y12362D01*
G01X-19566Y12362D02*
G01X-19566Y11991D01*
G01X-18700Y15400D02*
G01X-18661Y15157D01*
G01X-18661Y15157D02*
G01X-19291Y14527D01*
G01X-19291Y14527D02*
G01X-19291Y13149D01*
G01X-19291Y13149D02*
G01X-20000Y12440D01*
G01X-20000Y12440D02*
G01X-19999Y11991D01*
G01X-21700Y7100D02*
G01X-21700Y5902D01*
G01X-21731Y8574D02*
G01X-21731Y7914D01*
G01X-21731Y7914D02*
G01X-21732Y7913D01*
G01X-21732Y7913D02*
G01X-21692Y7874D01*
G01X-21692Y7874D02*
G01X-21700Y7100D01*
G54D35*
G01X-1964Y14000D02*
G01X-2000Y15200D01*
G01X-2000Y15200D02*
G01X-6800Y15200D01*
G01X-6800Y15200D02*
G01X-8800Y13200D01*
G01X-8800Y13200D02*
G01X-8779Y6023D01*
G01X-8779Y6023D02*
G01X-9913Y6000D01*
G01X-1897Y10000D02*
G01X-2000Y7000D01*
G01X-5000Y6102D02*
G01X-9913Y6000D01*
G01X-5000Y6102D02*
G01X-9913Y6000D01*
G01X-5000Y6102D02*
G01X-9913Y6000D01*
G01X-5000Y6102D02*
G01X-9913Y6000D01*
G01X-5000Y6102D02*
G01X-9913Y6000D01*
G01X-5000Y6102D02*
G01X-9913Y6000D01*
G01X-22597Y11991D02*
G01X-22598Y12677D01*
G01X-22598Y12677D02*
G01X-21732Y12677D01*
G01X-21732Y12677D02*
G01X-21731Y11991D01*
G01X-20432Y11991D02*
G01X-20433Y11338D01*
G01X-20433Y11338D02*
G01X-19133Y11338D01*
G01X-19133Y11338D02*
G01X-19133Y11378D01*
G01X-19133Y11378D02*
G01X-19133Y11991D01*
G01X-1964Y14000D02*
G01X-2000Y12800D01*
G01X-2000Y12800D02*
G01X-2000Y7000D01*
G01X-22597Y8574D02*
G01X-23030Y8574D01*
G01X-22164Y8574D02*
G01X-22597Y8574D01*
G01X-19566Y8574D02*
G01X-19566Y9212D01*
G01X-19566Y9212D02*
G01X-20275Y9212D01*
G01X-20275Y9212D02*
G01X-20433Y9212D01*
G01X-20433Y9212D02*
G01X-20432Y9211D01*
G01X-20432Y9211D02*
G01X-20432Y8574D01*
G01X-20432Y8574D02*
G01X-20432Y9211D01*
G01X-20432Y9211D02*
G01X-20433Y9212D01*
G01X-20433Y9212D02*
G01X-20274Y9211D01*
G01X-20274Y9211D02*
G01X-20275Y9212D01*
G01X-20275Y9212D02*
G01X-21062Y9212D01*
G01X-21298Y8574D02*
G01X-21298Y9211D01*
G01X-21298Y9211D02*
G01X-21299Y9212D01*
G01X-21299Y9212D02*
G01X-21062Y9211D01*
G01X-21062Y9211D02*
G01X-21062Y9212D01*
G01X-21062Y9212D02*
G01X-21850Y9212D01*
G01X-21850Y9212D02*
G01X-22165Y9212D01*
G01X-22165Y9212D02*
G01X-22164Y8574D01*
G01X-20300Y4800D02*
G01X-21700Y4800D01*
G01X-20300Y4800D02*
G01X-18800Y4797D01*
G01X-20432Y8574D02*
G01X-20433Y8031D01*
G01X-20433Y8031D02*
G01X-20275Y7874D01*
G01X-20275Y7874D02*
G01X-20275Y7874D01*
G01X-20275Y7874D02*
G01X-19566Y7166D01*
G01X-19566Y7166D02*
G01X-19566Y4803D01*
G01X-19566Y4803D02*
G01X-19570Y4800D01*
G01X-19570Y4800D02*
G01X-20300Y4800D01*
G01X-22597Y11991D02*
G01X-22598Y12677D01*
G01X-22598Y12677D02*
G01X-22086Y12677D01*
G01X-22086Y12677D02*
G01X-22125Y12677D01*
G01X-22125Y12677D02*
G01X-22102Y13700D01*
G01X-22102Y13700D02*
G01X-22102Y15400D01*
G01X-9913Y6000D02*
G01X-9913Y7275D01*
G01X-9913Y7275D02*
G01X-10118Y7480D01*
G01X-10118Y7480D02*
G01X-11535Y7440D01*
G01X-11535Y7440D02*
G01X-14070Y9975D01*
G01X-14070Y9975D02*
G01X-14070Y10000D01*
G01X-18800Y4797D02*
G01X-18818Y3740D01*
G01X-18818Y3740D02*
G01X-944Y3740D01*
G01X-944Y3740D02*
G01X-944Y7007D01*
G01X-944Y7007D02*
G01X-2000Y7000D01*
G01X-21731Y11991D02*
G01X-21298Y11991D01*
G01X-21298Y11991D02*
G01X-20865Y11991D01*
G01X-20865Y11991D02*
G01X-20432Y11991D01*
G01X-17991Y11365D02*
G01X-17991Y10932D01*
G01X-17991Y10932D02*
G01X-17991Y10499D01*
G01X-19133Y11991D02*
G01X-19133Y11377D01*
G01X-19133Y11377D02*
G01X-19121Y11365D01*
G01X-19121Y11365D02*
G01X-17991Y11365D01*
G01X-19566Y8574D02*
G01X-19566Y10511D01*
G01X-19566Y10511D02*
G01X-19566Y10511D01*
G01X-19566Y10511D02*
G01X-17991Y10499D01*
G01X-23030Y11991D02*
G01X-22597Y11991D01*
G01X-3811Y7000D02*
G01X-6000Y10000D01*
G01X-5035Y14000D02*
G01X-6000Y10000D01*

G04 Draw Text*
M00*
M02*
