G04 FreePCB version 1.359*
G04 C:\Users\waynej\Documents\GitHub\mlaunch\pad30\CAM\bottom_silk.grb*
G04 bottom silk layer *
G04 Scale: 100 percent, Rotated: No, Reflected: No *
%FSLAX24Y24*%
%MOIN*%
%LN bottom silk *%
G04 Rounded Rectangle Macro, params: W/2, H/2, R *
%AMRNDREC*
21,1,$1+$1,$2+$2-$3-$3,0,0,0*
21,1,$1+$1-$3-$3,$2+$2,0,0,0*
1,1,$3+$3,$1-$3,$2-$3*
1,1,$3+$3,$3-$1,$2-$3*
1,1,$3+$3,$1-$3,$3-$2*
1,1,$3+$3,$3-$1,$3-$2*%
G04 Rectangular Thermal Macro, params: W/2, H/2, T/2 *
%AMRECTHERM*
$4=$3/2*
21,1,$1-$3,$2-$3,0-$1/2-$4,0-$2/2-$4,0*
21,1,$1-$3,$2-$3,0-$1/2-$4,$2/2+$4,0*
21,1,$1-$3,$2-$3,$1/2+$4,0-$2/2-$4,0*
21,1,$1-$3,$2-$3,$1/2+$4,$2/2+$4,0*%
%ADD10C,0.008000*%
%ADD11C,0.010000*%
G90*
G70D02*

G04 Step and Repeat for panelization *

G04 ----------------------- Draw board outline (positive)*
%LPD*%
G54D10*
G01X-13750Y13250D02*
G01X-13789Y13248D01*
G01X-13828Y13245D01*
G01X-13867Y13240D01*
G01X-13905Y13233D01*
G01X-13944Y13224D01*
G01X-13981Y13213D01*
G01X-14018Y13200D01*
G01X-14055Y13185D01*
G01X-14090Y13168D01*
G01X-14125Y13149D01*
G01X-14158Y13129D01*
G01X-14190Y13106D01*
G01X-14221Y13082D01*
G01X-14251Y13057D01*
G01X-14280Y13030D01*
G01X-14307Y13001D01*
G01X-14332Y12971D01*
G01X-14356Y12940D01*
G01X-14379Y12908D01*
G01X-14399Y12874D01*
G01X-14418Y12840D01*
G01X-14435Y12805D01*
G01X-14450Y12768D01*
G01X-14463Y12731D01*
G01X-14474Y12694D01*
G01X-14483Y12655D01*
G01X-14490Y12617D01*
G01X-14495Y12578D01*
G01X-14498Y12539D01*
G01X-14500Y12500D01*
G04 end of side 1*
G01X-14498Y12460D01*
G01X-14495Y12421D01*
G01X-14490Y12382D01*
G01X-14483Y12344D01*
G01X-14474Y12305D01*
G01X-14463Y12268D01*
G01X-14450Y12231D01*
G01X-14435Y12194D01*
G01X-14418Y12159D01*
G01X-14399Y12124D01*
G01X-14379Y12091D01*
G01X-14356Y12059D01*
G01X-14332Y12028D01*
G01X-14307Y11998D01*
G01X-14280Y11969D01*
G01X-14251Y11942D01*
G01X-14221Y11917D01*
G01X-14190Y11893D01*
G01X-14158Y11870D01*
G01X-14124Y11850D01*
G01X-14090Y11831D01*
G01X-14055Y11814D01*
G01X-14018Y11799D01*
G01X-13981Y11786D01*
G01X-13944Y11775D01*
G01X-13905Y11766D01*
G01X-13867Y11759D01*
G01X-13828Y11754D01*
G01X-13789Y11751D01*
G01X-13750Y11750D01*
G04 end of side 2*
G01X-13710Y11751D01*
G01X-13671Y11754D01*
G01X-13632Y11759D01*
G01X-13594Y11766D01*
G01X-13555Y11775D01*
G01X-13518Y11786D01*
G01X-13481Y11799D01*
G01X-13444Y11814D01*
G01X-13409Y11831D01*
G01X-13374Y11850D01*
G01X-13341Y11870D01*
G01X-13309Y11893D01*
G01X-13278Y11917D01*
G01X-13248Y11942D01*
G01X-13219Y11969D01*
G01X-13192Y11998D01*
G01X-13167Y12028D01*
G01X-13143Y12059D01*
G01X-13120Y12091D01*
G01X-13100Y12125D01*
G01X-13081Y12159D01*
G01X-13064Y12194D01*
G01X-13049Y12231D01*
G01X-13036Y12268D01*
G01X-13025Y12305D01*
G01X-13016Y12344D01*
G01X-13009Y12382D01*
G01X-13004Y12421D01*
G01X-13001Y12460D01*
G01X-13000Y12500D01*
G04 end of side 3*
G01X-13001Y12539D01*
G01X-13004Y12578D01*
G01X-13009Y12617D01*
G01X-13016Y12655D01*
G01X-13025Y12694D01*
G01X-13036Y12731D01*
G01X-13049Y12768D01*
G01X-13064Y12805D01*
G01X-13081Y12840D01*
G01X-13100Y12875D01*
G01X-13120Y12908D01*
G01X-13143Y12940D01*
G01X-13167Y12971D01*
G01X-13192Y13001D01*
G01X-13219Y13030D01*
G01X-13248Y13057D01*
G01X-13278Y13082D01*
G01X-13309Y13106D01*
G01X-13341Y13129D01*
G01X-13375Y13149D01*
G01X-13409Y13168D01*
G01X-13444Y13185D01*
G01X-13481Y13200D01*
G01X-13518Y13213D01*
G01X-13555Y13224D01*
G01X-13594Y13233D01*
G01X-13632Y13240D01*
G01X-13671Y13245D01*
G01X-13710Y13248D01*
G01X-13750Y13250D01*
G01X13750Y13250D02*
G01X13710Y13248D01*
G01X13671Y13245D01*
G01X13632Y13240D01*
G01X13594Y13233D01*
G01X13555Y13224D01*
G01X13518Y13213D01*
G01X13481Y13200D01*
G01X13444Y13185D01*
G01X13409Y13168D01*
G01X13374Y13149D01*
G01X13341Y13129D01*
G01X13309Y13106D01*
G01X13278Y13082D01*
G01X13248Y13057D01*
G01X13219Y13030D01*
G01X13192Y13001D01*
G01X13167Y12971D01*
G01X13143Y12940D01*
G01X13120Y12908D01*
G01X13100Y12874D01*
G01X13081Y12840D01*
G01X13064Y12805D01*
G01X13049Y12768D01*
G01X13036Y12731D01*
G01X13025Y12694D01*
G01X13016Y12655D01*
G01X13009Y12617D01*
G01X13004Y12578D01*
G01X13001Y12539D01*
G01X13000Y12500D01*
G04 end of side 1*
G01X13001Y12460D01*
G01X13004Y12421D01*
G01X13009Y12382D01*
G01X13016Y12344D01*
G01X13025Y12305D01*
G01X13036Y12268D01*
G01X13049Y12231D01*
G01X13064Y12194D01*
G01X13081Y12159D01*
G01X13100Y12124D01*
G01X13120Y12091D01*
G01X13143Y12059D01*
G01X13167Y12028D01*
G01X13192Y11998D01*
G01X13219Y11969D01*
G01X13248Y11942D01*
G01X13278Y11917D01*
G01X13309Y11893D01*
G01X13341Y11870D01*
G01X13375Y11850D01*
G01X13409Y11831D01*
G01X13444Y11814D01*
G01X13481Y11799D01*
G01X13518Y11786D01*
G01X13555Y11775D01*
G01X13594Y11766D01*
G01X13632Y11759D01*
G01X13671Y11754D01*
G01X13710Y11751D01*
G01X13750Y11750D01*
G04 end of side 2*
G01X13789Y11751D01*
G01X13828Y11754D01*
G01X13867Y11759D01*
G01X13905Y11766D01*
G01X13944Y11775D01*
G01X13981Y11786D01*
G01X14018Y11799D01*
G01X14055Y11814D01*
G01X14090Y11831D01*
G01X14125Y11850D01*
G01X14158Y11870D01*
G01X14190Y11893D01*
G01X14221Y11917D01*
G01X14251Y11942D01*
G01X14280Y11969D01*
G01X14307Y11998D01*
G01X14332Y12028D01*
G01X14356Y12059D01*
G01X14379Y12091D01*
G01X14399Y12125D01*
G01X14418Y12159D01*
G01X14435Y12194D01*
G01X14450Y12231D01*
G01X14463Y12268D01*
G01X14474Y12305D01*
G01X14483Y12344D01*
G01X14490Y12382D01*
G01X14495Y12421D01*
G01X14498Y12460D01*
G01X14500Y12500D01*
G04 end of side 3*
G01X14498Y12539D01*
G01X14495Y12578D01*
G01X14490Y12617D01*
G01X14483Y12655D01*
G01X14474Y12694D01*
G01X14463Y12731D01*
G01X14450Y12768D01*
G01X14435Y12805D01*
G01X14418Y12840D01*
G01X14399Y12875D01*
G01X14379Y12908D01*
G01X14356Y12940D01*
G01X14332Y12971D01*
G01X14307Y13001D01*
G01X14280Y13030D01*
G01X14251Y13057D01*
G01X14221Y13082D01*
G01X14190Y13106D01*
G01X14158Y13129D01*
G01X14124Y13149D01*
G01X14090Y13168D01*
G01X14055Y13185D01*
G01X14018Y13200D01*
G01X13981Y13213D01*
G01X13944Y13224D01*
G01X13905Y13233D01*
G01X13867Y13240D01*
G01X13828Y13245D01*
G01X13789Y13248D01*
G01X13750Y13250D01*
G01X13750Y-11750D02*
G01X13710Y-11751D01*
G01X13671Y-11754D01*
G01X13632Y-11759D01*
G01X13594Y-11766D01*
G01X13555Y-11775D01*
G01X13518Y-11786D01*
G01X13481Y-11799D01*
G01X13444Y-11814D01*
G01X13409Y-11831D01*
G01X13374Y-11850D01*
G01X13341Y-11870D01*
G01X13309Y-11893D01*
G01X13278Y-11917D01*
G01X13248Y-11942D01*
G01X13219Y-11969D01*
G01X13192Y-11998D01*
G01X13167Y-12028D01*
G01X13143Y-12059D01*
G01X13120Y-12091D01*
G01X13100Y-12125D01*
G01X13081Y-12159D01*
G01X13064Y-12194D01*
G01X13049Y-12231D01*
G01X13036Y-12268D01*
G01X13025Y-12305D01*
G01X13016Y-12344D01*
G01X13009Y-12382D01*
G01X13004Y-12421D01*
G01X13001Y-12460D01*
G01X13000Y-12500D01*
G04 end of side 1*
G01X13001Y-12539D01*
G01X13004Y-12578D01*
G01X13009Y-12617D01*
G01X13016Y-12655D01*
G01X13025Y-12694D01*
G01X13036Y-12731D01*
G01X13049Y-12768D01*
G01X13064Y-12805D01*
G01X13081Y-12840D01*
G01X13100Y-12875D01*
G01X13120Y-12908D01*
G01X13143Y-12940D01*
G01X13167Y-12971D01*
G01X13192Y-13001D01*
G01X13219Y-13030D01*
G01X13248Y-13057D01*
G01X13278Y-13082D01*
G01X13309Y-13106D01*
G01X13341Y-13129D01*
G01X13375Y-13149D01*
G01X13409Y-13168D01*
G01X13444Y-13185D01*
G01X13481Y-13200D01*
G01X13518Y-13213D01*
G01X13555Y-13224D01*
G01X13594Y-13233D01*
G01X13632Y-13240D01*
G01X13671Y-13245D01*
G01X13710Y-13248D01*
G01X13750Y-13250D01*
G04 end of side 2*
G01X13789Y-13248D01*
G01X13828Y-13245D01*
G01X13867Y-13240D01*
G01X13905Y-13233D01*
G01X13944Y-13224D01*
G01X13981Y-13213D01*
G01X14018Y-13200D01*
G01X14055Y-13185D01*
G01X14090Y-13168D01*
G01X14125Y-13149D01*
G01X14158Y-13129D01*
G01X14190Y-13106D01*
G01X14221Y-13082D01*
G01X14251Y-13057D01*
G01X14280Y-13030D01*
G01X14307Y-13001D01*
G01X14332Y-12971D01*
G01X14356Y-12940D01*
G01X14379Y-12908D01*
G01X14399Y-12874D01*
G01X14418Y-12840D01*
G01X14435Y-12805D01*
G01X14450Y-12768D01*
G01X14463Y-12731D01*
G01X14474Y-12694D01*
G01X14483Y-12655D01*
G01X14490Y-12617D01*
G01X14495Y-12578D01*
G01X14498Y-12539D01*
G01X14500Y-12500D01*
G04 end of side 3*
G01X14498Y-12460D01*
G01X14495Y-12421D01*
G01X14490Y-12382D01*
G01X14483Y-12344D01*
G01X14474Y-12305D01*
G01X14463Y-12268D01*
G01X14450Y-12231D01*
G01X14435Y-12194D01*
G01X14418Y-12159D01*
G01X14399Y-12124D01*
G01X14379Y-12091D01*
G01X14356Y-12059D01*
G01X14332Y-12028D01*
G01X14307Y-11998D01*
G01X14280Y-11969D01*
G01X14251Y-11942D01*
G01X14221Y-11917D01*
G01X14190Y-11893D01*
G01X14158Y-11870D01*
G01X14124Y-11850D01*
G01X14090Y-11831D01*
G01X14055Y-11814D01*
G01X14018Y-11799D01*
G01X13981Y-11786D01*
G01X13944Y-11775D01*
G01X13905Y-11766D01*
G01X13867Y-11759D01*
G01X13828Y-11754D01*
G01X13789Y-11751D01*
G01X13750Y-11750D01*
G01X-13750Y-11750D02*
G01X-13789Y-11751D01*
G01X-13828Y-11754D01*
G01X-13867Y-11759D01*
G01X-13905Y-11766D01*
G01X-13944Y-11775D01*
G01X-13981Y-11786D01*
G01X-14018Y-11799D01*
G01X-14055Y-11814D01*
G01X-14090Y-11831D01*
G01X-14125Y-11850D01*
G01X-14158Y-11870D01*
G01X-14190Y-11893D01*
G01X-14221Y-11917D01*
G01X-14251Y-11942D01*
G01X-14280Y-11969D01*
G01X-14307Y-11998D01*
G01X-14332Y-12028D01*
G01X-14356Y-12059D01*
G01X-14379Y-12091D01*
G01X-14399Y-12125D01*
G01X-14418Y-12159D01*
G01X-14435Y-12194D01*
G01X-14450Y-12231D01*
G01X-14463Y-12268D01*
G01X-14474Y-12305D01*
G01X-14483Y-12344D01*
G01X-14490Y-12382D01*
G01X-14495Y-12421D01*
G01X-14498Y-12460D01*
G01X-14500Y-12500D01*
G04 end of side 1*
G01X-14498Y-12539D01*
G01X-14495Y-12578D01*
G01X-14490Y-12617D01*
G01X-14483Y-12655D01*
G01X-14474Y-12694D01*
G01X-14463Y-12731D01*
G01X-14450Y-12768D01*
G01X-14435Y-12805D01*
G01X-14418Y-12840D01*
G01X-14399Y-12875D01*
G01X-14379Y-12908D01*
G01X-14356Y-12940D01*
G01X-14332Y-12971D01*
G01X-14307Y-13001D01*
G01X-14280Y-13030D01*
G01X-14251Y-13057D01*
G01X-14221Y-13082D01*
G01X-14190Y-13106D01*
G01X-14158Y-13129D01*
G01X-14124Y-13149D01*
G01X-14090Y-13168D01*
G01X-14055Y-13185D01*
G01X-14018Y-13200D01*
G01X-13981Y-13213D01*
G01X-13944Y-13224D01*
G01X-13905Y-13233D01*
G01X-13867Y-13240D01*
G01X-13828Y-13245D01*
G01X-13789Y-13248D01*
G01X-13750Y-13250D01*
G04 end of side 2*
G01X-13710Y-13248D01*
G01X-13671Y-13245D01*
G01X-13632Y-13240D01*
G01X-13594Y-13233D01*
G01X-13555Y-13224D01*
G01X-13518Y-13213D01*
G01X-13481Y-13200D01*
G01X-13444Y-13185D01*
G01X-13409Y-13168D01*
G01X-13374Y-13149D01*
G01X-13341Y-13129D01*
G01X-13309Y-13106D01*
G01X-13278Y-13082D01*
G01X-13248Y-13057D01*
G01X-13219Y-13030D01*
G01X-13192Y-13001D01*
G01X-13167Y-12971D01*
G01X-13143Y-12940D01*
G01X-13120Y-12908D01*
G01X-13100Y-12874D01*
G01X-13081Y-12840D01*
G01X-13064Y-12805D01*
G01X-13049Y-12768D01*
G01X-13036Y-12731D01*
G01X-13025Y-12694D01*
G01X-13016Y-12655D01*
G01X-13009Y-12617D01*
G01X-13004Y-12578D01*
G01X-13001Y-12539D01*
G01X-13000Y-12500D01*
G04 end of side 3*
G01X-13001Y-12460D01*
G01X-13004Y-12421D01*
G01X-13009Y-12382D01*
G01X-13016Y-12344D01*
G01X-13025Y-12305D01*
G01X-13036Y-12268D01*
G01X-13049Y-12231D01*
G01X-13064Y-12194D01*
G01X-13081Y-12159D01*
G01X-13100Y-12124D01*
G01X-13120Y-12091D01*
G01X-13143Y-12059D01*
G01X-13167Y-12028D01*
G01X-13192Y-11998D01*
G01X-13219Y-11969D01*
G01X-13248Y-11942D01*
G01X-13278Y-11917D01*
G01X-13309Y-11893D01*
G01X-13341Y-11870D01*
G01X-13375Y-11850D01*
G01X-13409Y-11831D01*
G01X-13444Y-11814D01*
G01X-13481Y-11799D01*
G01X-13518Y-11786D01*
G01X-13555Y-11775D01*
G01X-13594Y-11766D01*
G01X-13632Y-11759D01*
G01X-13671Y-11754D01*
G01X-13710Y-11751D01*
G01X-13750Y-11750D01*
G01X-22050Y12500D02*
G01X-22050Y12460D01*
G01X-22051Y12421D01*
G01X-22053Y12382D01*
G01X-22055Y12343D01*
G01X-22058Y12303D01*
G01X-22062Y12264D01*
G01X-22067Y12225D01*
G01X-22072Y12186D01*
G01X-22078Y12148D01*
G01X-22084Y12109D01*
G01X-22092Y12070D01*
G01X-22100Y12032D01*
G01X-22108Y11994D01*
G01X-22118Y11955D01*
G01X-22128Y11917D01*
G01X-22139Y11880D01*
G01X-22150Y11842D01*
G01X-22162Y11805D01*
G01X-22175Y11768D01*
G01X-22188Y11731D01*
G01X-22202Y11694D01*
G01X-22217Y11658D01*
G01X-22232Y11621D01*
G01X-22248Y11586D01*
G01X-22265Y11550D01*
G01X-22282Y11515D01*
G01X-22300Y11480D01*
G01X-22319Y11445D01*
G01X-22338Y11411D01*
G01X-22357Y11377D01*
G01X-22378Y11343D01*
G01X-22399Y11310D01*
G01X-22420Y11277D01*
G01X-22442Y11245D01*
G01X-22465Y11213D01*
G01X-22488Y11181D01*
G01X-22512Y11150D01*
G01X-22536Y11119D01*
G01X-22561Y11089D01*
G01X-22587Y11059D01*
G01X-22613Y11029D01*
G01X-22639Y11000D01*
G01X-22666Y10972D01*
G01X-22694Y10944D01*
G01X-22722Y10916D01*
G01X-22750Y10889D01*
G01X-22779Y10863D01*
G01X-22809Y10837D01*
G01X-22839Y10811D01*
G01X-22869Y10786D01*
G01X-22900Y10762D01*
G01X-22931Y10738D01*
G01X-22963Y10715D01*
G01X-22995Y10692D01*
G01X-23027Y10670D01*
G01X-23060Y10649D01*
G01X-23093Y10628D01*
G01X-23127Y10607D01*
G01X-23161Y10588D01*
G01X-23195Y10569D01*
G01X-23230Y10550D01*
G01X-23265Y10532D01*
G01X-23300Y10515D01*
G01X-23336Y10498D01*
G01X-23371Y10482D01*
G01X-23408Y10467D01*
G01X-23444Y10452D01*
G01X-23481Y10438D01*
G01X-23518Y10425D01*
G01X-23555Y10412D01*
G01X-23592Y10400D01*
G01X-23630Y10389D01*
G01X-23667Y10378D01*
G01X-23705Y10368D01*
G01X-23744Y10358D01*
G01X-23782Y10350D01*
G01X-23820Y10342D01*
G01X-23859Y10334D01*
G01X-23898Y10328D01*
G01X-23936Y10322D01*
G01X-23975Y10317D01*
G01X-24014Y10312D01*
G01X-24053Y10308D01*
G01X-24093Y10305D01*
G01X-24132Y10303D01*
G01X-24171Y10301D01*
G01X-24210Y10300D01*
G01X-24250Y10300D01*
G04 end of side 1*
G01X-25000Y10300D01*
G04 end of side 2*
G01X-25000Y-10300D01*
G04 end of side 3*
G01X-24250Y-10300D01*
G04 end of side 4*
G01X-24210Y-10300D01*
G01X-24171Y-10301D01*
G01X-24132Y-10303D01*
G01X-24093Y-10305D01*
G01X-24053Y-10308D01*
G01X-24014Y-10312D01*
G01X-23975Y-10317D01*
G01X-23936Y-10322D01*
G01X-23898Y-10328D01*
G01X-23859Y-10334D01*
G01X-23820Y-10342D01*
G01X-23782Y-10350D01*
G01X-23744Y-10358D01*
G01X-23705Y-10368D01*
G01X-23667Y-10378D01*
G01X-23630Y-10389D01*
G01X-23592Y-10400D01*
G01X-23555Y-10412D01*
G01X-23518Y-10425D01*
G01X-23481Y-10438D01*
G01X-23444Y-10452D01*
G01X-23408Y-10467D01*
G01X-23371Y-10482D01*
G01X-23336Y-10498D01*
G01X-23300Y-10515D01*
G01X-23265Y-10532D01*
G01X-23230Y-10550D01*
G01X-23195Y-10569D01*
G01X-23161Y-10588D01*
G01X-23127Y-10607D01*
G01X-23093Y-10628D01*
G01X-23060Y-10649D01*
G01X-23027Y-10670D01*
G01X-22995Y-10692D01*
G01X-22963Y-10715D01*
G01X-22931Y-10738D01*
G01X-22900Y-10762D01*
G01X-22869Y-10786D01*
G01X-22839Y-10811D01*
G01X-22809Y-10837D01*
G01X-22779Y-10863D01*
G01X-22750Y-10889D01*
G01X-22722Y-10916D01*
G01X-22694Y-10944D01*
G01X-22666Y-10972D01*
G01X-22639Y-11000D01*
G01X-22613Y-11029D01*
G01X-22587Y-11059D01*
G01X-22561Y-11089D01*
G01X-22536Y-11119D01*
G01X-22512Y-11150D01*
G01X-22488Y-11181D01*
G01X-22465Y-11213D01*
G01X-22442Y-11245D01*
G01X-22420Y-11277D01*
G01X-22399Y-11310D01*
G01X-22378Y-11343D01*
G01X-22357Y-11377D01*
G01X-22338Y-11411D01*
G01X-22319Y-11445D01*
G01X-22300Y-11480D01*
G01X-22282Y-11515D01*
G01X-22265Y-11550D01*
G01X-22248Y-11586D01*
G01X-22232Y-11621D01*
G01X-22217Y-11658D01*
G01X-22202Y-11694D01*
G01X-22188Y-11731D01*
G01X-22175Y-11768D01*
G01X-22162Y-11805D01*
G01X-22150Y-11842D01*
G01X-22139Y-11880D01*
G01X-22128Y-11917D01*
G01X-22118Y-11955D01*
G01X-22108Y-11994D01*
G01X-22100Y-12032D01*
G01X-22092Y-12070D01*
G01X-22084Y-12109D01*
G01X-22078Y-12148D01*
G01X-22072Y-12186D01*
G01X-22067Y-12225D01*
G01X-22062Y-12264D01*
G01X-22058Y-12303D01*
G01X-22055Y-12343D01*
G01X-22053Y-12382D01*
G01X-22051Y-12421D01*
G01X-22050Y-12460D01*
G01X-22050Y-12500D01*
G04 end of side 5*
G01X-22050Y-13750D01*
G04 end of side 6*
G01X22050Y-13750D01*
G04 end of side 7*
G01X22050Y-12500D01*
G04 end of side 8*
G01X22050Y-12460D01*
G01X22051Y-12421D01*
G01X22053Y-12382D01*
G01X22055Y-12343D01*
G01X22058Y-12303D01*
G01X22062Y-12264D01*
G01X22067Y-12225D01*
G01X22072Y-12186D01*
G01X22078Y-12148D01*
G01X22084Y-12109D01*
G01X22092Y-12070D01*
G01X22100Y-12032D01*
G01X22108Y-11994D01*
G01X22118Y-11955D01*
G01X22128Y-11917D01*
G01X22139Y-11880D01*
G01X22150Y-11842D01*
G01X22162Y-11805D01*
G01X22175Y-11768D01*
G01X22188Y-11731D01*
G01X22202Y-11694D01*
G01X22217Y-11658D01*
G01X22232Y-11621D01*
G01X22248Y-11586D01*
G01X22265Y-11550D01*
G01X22282Y-11515D01*
G01X22300Y-11480D01*
G01X22319Y-11445D01*
G01X22338Y-11411D01*
G01X22357Y-11377D01*
G01X22378Y-11343D01*
G01X22399Y-11310D01*
G01X22420Y-11277D01*
G01X22442Y-11245D01*
G01X22465Y-11213D01*
G01X22488Y-11181D01*
G01X22512Y-11150D01*
G01X22536Y-11119D01*
G01X22561Y-11089D01*
G01X22587Y-11059D01*
G01X22613Y-11029D01*
G01X22639Y-11000D01*
G01X22666Y-10972D01*
G01X22694Y-10944D01*
G01X22722Y-10916D01*
G01X22750Y-10889D01*
G01X22779Y-10863D01*
G01X22809Y-10837D01*
G01X22839Y-10811D01*
G01X22869Y-10786D01*
G01X22900Y-10762D01*
G01X22931Y-10738D01*
G01X22963Y-10715D01*
G01X22995Y-10692D01*
G01X23027Y-10670D01*
G01X23060Y-10649D01*
G01X23093Y-10628D01*
G01X23127Y-10607D01*
G01X23161Y-10588D01*
G01X23195Y-10569D01*
G01X23230Y-10550D01*
G01X23265Y-10532D01*
G01X23300Y-10515D01*
G01X23336Y-10498D01*
G01X23371Y-10482D01*
G01X23408Y-10467D01*
G01X23444Y-10452D01*
G01X23481Y-10438D01*
G01X23518Y-10425D01*
G01X23555Y-10412D01*
G01X23592Y-10400D01*
G01X23630Y-10389D01*
G01X23667Y-10378D01*
G01X23705Y-10368D01*
G01X23744Y-10358D01*
G01X23782Y-10350D01*
G01X23820Y-10342D01*
G01X23859Y-10334D01*
G01X23898Y-10328D01*
G01X23936Y-10322D01*
G01X23975Y-10317D01*
G01X24014Y-10312D01*
G01X24053Y-10308D01*
G01X24093Y-10305D01*
G01X24132Y-10303D01*
G01X24171Y-10301D01*
G01X24210Y-10300D01*
G01X24250Y-10300D01*
G04 end of side 9*
G01X25000Y-10300D01*
G04 end of side 10*
G01X25000Y10300D01*
G04 end of side 11*
G01X24250Y10300D01*
G04 end of side 12*
G01X24210Y10300D01*
G01X24171Y10301D01*
G01X24132Y10303D01*
G01X24093Y10305D01*
G01X24053Y10308D01*
G01X24014Y10312D01*
G01X23975Y10317D01*
G01X23936Y10322D01*
G01X23898Y10328D01*
G01X23859Y10334D01*
G01X23820Y10342D01*
G01X23782Y10350D01*
G01X23744Y10358D01*
G01X23705Y10368D01*
G01X23667Y10378D01*
G01X23630Y10389D01*
G01X23592Y10400D01*
G01X23555Y10412D01*
G01X23518Y10425D01*
G01X23481Y10438D01*
G01X23444Y10452D01*
G01X23408Y10467D01*
G01X23371Y10482D01*
G01X23336Y10498D01*
G01X23300Y10515D01*
G01X23265Y10532D01*
G01X23230Y10550D01*
G01X23195Y10569D01*
G01X23161Y10588D01*
G01X23127Y10607D01*
G01X23093Y10628D01*
G01X23060Y10649D01*
G01X23027Y10670D01*
G01X22995Y10692D01*
G01X22963Y10715D01*
G01X22931Y10738D01*
G01X22900Y10762D01*
G01X22869Y10786D01*
G01X22839Y10811D01*
G01X22809Y10837D01*
G01X22779Y10863D01*
G01X22750Y10889D01*
G01X22722Y10916D01*
G01X22694Y10944D01*
G01X22666Y10972D01*
G01X22639Y11000D01*
G01X22613Y11029D01*
G01X22587Y11059D01*
G01X22561Y11089D01*
G01X22536Y11119D01*
G01X22512Y11150D01*
G01X22488Y11181D01*
G01X22465Y11213D01*
G01X22442Y11245D01*
G01X22420Y11277D01*
G01X22399Y11310D01*
G01X22378Y11343D01*
G01X22357Y11377D01*
G01X22338Y11411D01*
G01X22319Y11445D01*
G01X22300Y11480D01*
G01X22282Y11515D01*
G01X22265Y11550D01*
G01X22248Y11586D01*
G01X22232Y11621D01*
G01X22217Y11658D01*
G01X22202Y11694D01*
G01X22188Y11731D01*
G01X22175Y11768D01*
G01X22162Y11805D01*
G01X22150Y11842D01*
G01X22139Y11880D01*
G01X22128Y11917D01*
G01X22118Y11955D01*
G01X22108Y11994D01*
G01X22100Y12032D01*
G01X22092Y12070D01*
G01X22084Y12109D01*
G01X22078Y12148D01*
G01X22072Y12186D01*
G01X22067Y12225D01*
G01X22062Y12264D01*
G01X22058Y12303D01*
G01X22055Y12343D01*
G01X22053Y12382D01*
G01X22051Y12421D01*
G01X22050Y12460D01*
G01X22050Y12500D01*
G04 end of side 13*
G01X22050Y13750D01*
G04 end of side 14*
G01X-22050Y13750D01*
G04 end of side 15*
G01X-22050Y12500D01*

G04 -------------- Draw Parts, Pads, Traces, Vias and Text (positive)*
%LPD*%
G04 Draw part U2*
G04 Draw part U1*
G04 Draw part X1*
G04 Draw part C1*
G04 Draw part C2*
G04 Draw part J3*
G04 Draw part C3*
G04 Draw part R2*
G04 Draw part R1*
G04 Draw part U3*
G04 Draw part U5*
G04 Draw part C5*
G04 Draw part C6*
G04 Draw part D1*
G04 Draw part R5*
G04 draw part outline for part R5*
G54D10*
G01X15533Y3833D02*
G01X13564Y3833D01*
G01X13564Y3833D02*
G01X13564Y2966D01*
G01X13564Y2966D02*
G01X15533Y2966D01*
G01X15533Y2966D02*
G01X15533Y3833D01*
G04 draw reference designator for part R5*
G01X13400Y3577D02*
G01X13400Y3100D01*
G01X13195Y3577D02*
G01X13400Y3577D01*
G01X13195Y3577D02*
G01X13127Y3554D01*
G01X13127Y3554D02*
G01X13104Y3531D01*
G01X13104Y3531D02*
G01X13081Y3486D01*
G01X13081Y3486D02*
G01X13081Y3440D01*
G01X13081Y3440D02*
G01X13104Y3395D01*
G01X13104Y3395D02*
G01X13127Y3372D01*
G01X13127Y3372D02*
G01X13195Y3350D01*
G01X13400Y3350D02*
G01X13195Y3350D01*
G01X13240Y3350D02*
G01X13081Y3100D01*
G01X12854Y3577D02*
G01X12627Y3577D01*
G01X12854Y3577D02*
G01X12877Y3372D01*
G01X12854Y3395D02*
G01X12877Y3372D01*
G01X12786Y3418D02*
G01X12854Y3395D01*
G01X12718Y3418D02*
G01X12786Y3418D01*
G01X12718Y3418D02*
G01X12650Y3395D01*
G01X12650Y3395D02*
G01X12604Y3350D01*
G01X12604Y3350D02*
G01X12581Y3281D01*
G01X12581Y3281D02*
G01X12581Y3236D01*
G01X12581Y3236D02*
G01X12604Y3168D01*
G01X12604Y3168D02*
G01X12650Y3122D01*
G01X12650Y3122D02*
G01X12718Y3100D01*
G01X12786Y3100D02*
G01X12718Y3100D01*
G01X12854Y3122D02*
G01X12786Y3100D01*
G01X12877Y3145D02*
G01X12854Y3122D01*
G01X12900Y3190D02*
G01X12877Y3145D01*
G04 Draw part R4*
G04 draw part outline for part R4*
G01X14133Y8333D02*
G01X12164Y8333D01*
G01X12164Y8333D02*
G01X12164Y7466D01*
G01X12164Y7466D02*
G01X14133Y7466D01*
G01X14133Y7466D02*
G01X14133Y8333D01*
G04 draw reference designator for part R4*
G01X12000Y8077D02*
G01X12000Y7600D01*
G01X11795Y8077D02*
G01X12000Y8077D01*
G01X11795Y8077D02*
G01X11727Y8054D01*
G01X11727Y8054D02*
G01X11704Y8031D01*
G01X11704Y8031D02*
G01X11681Y7986D01*
G01X11681Y7986D02*
G01X11681Y7940D01*
G01X11681Y7940D02*
G01X11704Y7895D01*
G01X11704Y7895D02*
G01X11727Y7872D01*
G01X11727Y7872D02*
G01X11795Y7850D01*
G01X12000Y7850D02*
G01X11795Y7850D01*
G01X11840Y7850D02*
G01X11681Y7600D01*
G01X11272Y8077D02*
G01X11500Y7759D01*
G01X11159Y7759D02*
G01X11500Y7759D01*
G01X11272Y8077D02*
G01X11272Y7600D01*
G04 Draw part R3*
G04 draw part outline for part R3*
G01X16566Y5433D02*
G01X16566Y3464D01*
G01X16566Y3464D02*
G01X17433Y3464D01*
G01X17433Y3464D02*
G01X17433Y5433D01*
G01X17433Y5433D02*
G01X16566Y5433D01*
G04 draw reference designator for part R3*
G01X17700Y6277D02*
G01X17700Y5800D01*
G01X17495Y6277D02*
G01X17700Y6277D01*
G01X17495Y6277D02*
G01X17427Y6254D01*
G01X17427Y6254D02*
G01X17404Y6231D01*
G01X17404Y6231D02*
G01X17381Y6186D01*
G01X17381Y6186D02*
G01X17381Y6140D01*
G01X17381Y6140D02*
G01X17404Y6095D01*
G01X17404Y6095D02*
G01X17427Y6072D01*
G01X17427Y6072D02*
G01X17495Y6050D01*
G01X17700Y6050D02*
G01X17495Y6050D01*
G01X17540Y6050D02*
G01X17381Y5800D01*
G01X16904Y6277D02*
G01X17154Y6277D01*
G01X16904Y6277D02*
G01X17040Y6095D01*
G01X16972Y6095D02*
G01X17040Y6095D01*
G01X16972Y6095D02*
G01X16927Y6072D01*
G01X16927Y6072D02*
G01X16904Y6050D01*
G01X16904Y6050D02*
G01X16881Y5981D01*
G01X16881Y5981D02*
G01X16881Y5936D01*
G01X16881Y5936D02*
G01X16904Y5868D01*
G01X16904Y5868D02*
G01X16950Y5822D01*
G01X16950Y5822D02*
G01X17018Y5800D01*
G01X17086Y5800D02*
G01X17018Y5800D01*
G01X17154Y5822D02*
G01X17086Y5800D01*
G01X17177Y5845D02*
G01X17154Y5822D01*
G01X17200Y5890D02*
G01X17177Y5845D01*
G04 Draw part R8*
G04 draw part outline for part R8*
G01X-18133Y2966D02*
G01X-16164Y2966D01*
G01X-16164Y2966D02*
G01X-16164Y3833D01*
G01X-16164Y3833D02*
G01X-18133Y3833D01*
G01X-18133Y3833D02*
G01X-18133Y2966D01*
G04 draw reference designator for part R8*
G01X-16700Y2777D02*
G01X-16700Y2300D01*
G01X-16904Y2777D02*
G01X-16700Y2777D01*
G01X-16904Y2777D02*
G01X-16972Y2754D01*
G01X-16972Y2754D02*
G01X-16995Y2731D01*
G01X-16995Y2731D02*
G01X-17018Y2686D01*
G01X-17018Y2686D02*
G01X-17018Y2640D01*
G01X-17018Y2640D02*
G01X-16995Y2595D01*
G01X-16995Y2595D02*
G01X-16972Y2572D01*
G01X-16972Y2572D02*
G01X-16904Y2550D01*
G01X-16700Y2550D02*
G01X-16904Y2550D01*
G01X-16859Y2550D02*
G01X-17018Y2300D01*
G01X-17313Y2777D02*
G01X-17245Y2754D01*
G01X-17245Y2754D02*
G01X-17222Y2709D01*
G01X-17222Y2709D02*
G01X-17222Y2663D01*
G01X-17222Y2663D02*
G01X-17245Y2618D01*
G01X-17245Y2618D02*
G01X-17290Y2595D01*
G01X-17290Y2595D02*
G01X-17381Y2572D01*
G01X-17381Y2572D02*
G01X-17450Y2550D01*
G01X-17450Y2550D02*
G01X-17495Y2504D01*
G01X-17495Y2504D02*
G01X-17518Y2459D01*
G01X-17518Y2459D02*
G01X-17518Y2390D01*
G01X-17518Y2390D02*
G01X-17495Y2345D01*
G01X-17495Y2345D02*
G01X-17472Y2322D01*
G01X-17472Y2322D02*
G01X-17404Y2300D01*
G01X-17313Y2300D02*
G01X-17404Y2300D01*
G01X-17245Y2322D02*
G01X-17313Y2300D01*
G01X-17222Y2345D02*
G01X-17245Y2322D01*
G01X-17200Y2390D02*
G01X-17222Y2345D01*
G01X-17200Y2459D02*
G01X-17200Y2390D01*
G01X-17222Y2504D02*
G01X-17200Y2459D01*
G01X-17268Y2550D02*
G01X-17222Y2504D01*
G01X-17336Y2572D02*
G01X-17268Y2550D01*
G01X-17427Y2595D02*
G01X-17336Y2572D01*
G01X-17472Y2618D02*
G01X-17427Y2595D01*
G01X-17495Y2663D02*
G01X-17472Y2618D01*
G01X-17495Y2709D02*
G01X-17495Y2663D01*
G01X-17472Y2754D02*
G01X-17495Y2709D01*
G01X-17404Y2777D02*
G01X-17472Y2754D01*
G01X-17313Y2777D02*
G01X-17404Y2777D01*
G04 Draw part R7*
G04 draw part outline for part R7*
G01X-19633Y7466D02*
G01X-17664Y7466D01*
G01X-17664Y7466D02*
G01X-17664Y8333D01*
G01X-17664Y8333D02*
G01X-19633Y8333D01*
G01X-19633Y8333D02*
G01X-19633Y7466D01*
G04 draw reference designator for part R7*
G01X-19800Y8177D02*
G01X-19800Y7700D01*
G01X-20004Y8177D02*
G01X-19800Y8177D01*
G01X-20004Y8177D02*
G01X-20072Y8154D01*
G01X-20072Y8154D02*
G01X-20095Y8131D01*
G01X-20095Y8131D02*
G01X-20118Y8086D01*
G01X-20118Y8086D02*
G01X-20118Y8040D01*
G01X-20118Y8040D02*
G01X-20095Y7995D01*
G01X-20095Y7995D02*
G01X-20072Y7972D01*
G01X-20072Y7972D02*
G01X-20004Y7950D01*
G01X-19800Y7950D02*
G01X-20004Y7950D01*
G01X-19959Y7950D02*
G01X-20118Y7700D01*
G01X-20618Y8177D02*
G01X-20390Y7700D01*
G01X-20618Y8177D02*
G01X-20300Y8177D01*
G04 Draw part R6*
G04 draw part outline for part R6*
G01X-17233Y6233D02*
G01X-17233Y4264D01*
G01X-17233Y4264D02*
G01X-16366Y4264D01*
G01X-16366Y4264D02*
G01X-16366Y6233D01*
G01X-16366Y6233D02*
G01X-17233Y6233D01*
G04 draw reference designator for part R6*
G01X-15300Y6277D02*
G01X-15300Y5800D01*
G01X-15504Y6277D02*
G01X-15300Y6277D01*
G01X-15504Y6277D02*
G01X-15572Y6254D01*
G01X-15572Y6254D02*
G01X-15595Y6231D01*
G01X-15595Y6231D02*
G01X-15618Y6186D01*
G01X-15618Y6186D02*
G01X-15618Y6140D01*
G01X-15618Y6140D02*
G01X-15595Y6095D01*
G01X-15595Y6095D02*
G01X-15572Y6072D01*
G01X-15572Y6072D02*
G01X-15504Y6050D01*
G01X-15300Y6050D02*
G01X-15504Y6050D01*
G01X-15459Y6050D02*
G01X-15618Y5800D01*
G01X-16050Y6254D02*
G01X-16072Y6209D01*
G01X-15981Y6277D02*
G01X-16050Y6254D01*
G01X-15936Y6277D02*
G01X-15981Y6277D01*
G01X-15936Y6277D02*
G01X-15868Y6254D01*
G01X-15868Y6254D02*
G01X-15822Y6186D01*
G01X-15822Y6186D02*
G01X-15800Y6072D01*
G01X-15800Y6072D02*
G01X-15800Y5959D01*
G01X-15800Y5959D02*
G01X-15822Y5868D01*
G01X-15822Y5868D02*
G01X-15868Y5822D01*
G01X-15868Y5822D02*
G01X-15936Y5800D01*
G01X-15959Y5800D02*
G01X-15936Y5800D01*
G01X-16027Y5822D02*
G01X-15959Y5800D01*
G01X-16072Y5868D02*
G01X-16027Y5822D01*
G01X-16095Y5936D02*
G01X-16072Y5868D01*
G01X-16095Y5959D02*
G01X-16095Y5936D01*
G01X-16072Y6027D02*
G01X-16095Y5959D01*
G01X-16027Y6072D02*
G01X-16072Y6027D01*
G01X-15959Y6095D02*
G01X-16027Y6072D01*
G01X-15936Y6095D02*
G01X-15959Y6095D01*
G01X-15936Y6095D02*
G01X-15868Y6072D01*
G01X-15868Y6072D02*
G01X-15822Y6027D01*
G01X-15822Y6027D02*
G01X-15800Y5959D01*
G04 Draw part B1*
G04 draw part outline for part B1*
G54D11*
G01X16900Y-1970D02*
G01X16860Y-1970D01*
G01X16821Y-1970D01*
G01X16782Y-1971D01*
G01X16742Y-1972D01*
G01X16703Y-1974D01*
G01X16664Y-1976D01*
G01X16624Y-1978D01*
G01X16585Y-1980D01*
G01X16546Y-1983D01*
G01X16507Y-1987D01*
G01X16468Y-1990D01*
G01X16429Y-1994D01*
G01X16390Y-1998D01*
G01X16350Y-2003D01*
G01X16311Y-2008D01*
G01X16273Y-2013D01*
G01X16234Y-2019D01*
G01X16195Y-2025D01*
G01X16156Y-2031D01*
G01X16117Y-2038D01*
G01X16078Y-2045D01*
G01X16040Y-2052D01*
G01X16001Y-2059D01*
G01X15963Y-2067D01*
G01X15924Y-2076D01*
G01X15886Y-2084D01*
G01X15848Y-2093D01*
G01X15810Y-2103D01*
G01X15771Y-2112D01*
G01X15733Y-2122D01*
G01X15695Y-2132D01*
G01X15658Y-2143D01*
G01X15620Y-2154D01*
G01X15582Y-2165D01*
G01X15545Y-2177D01*
G01X15507Y-2189D01*
G01X15470Y-2201D01*
G01X15433Y-2214D01*
G01X15395Y-2226D01*
G01X15358Y-2240D01*
G01X15321Y-2253D01*
G01X15285Y-2267D01*
G01X15248Y-2281D01*
G01X15211Y-2296D01*
G01X15175Y-2311D01*
G01X15139Y-2326D01*
G01X15103Y-2341D01*
G01X15067Y-2357D01*
G01X15031Y-2373D01*
G01X14995Y-2389D01*
G01X14959Y-2406D01*
G01X14924Y-2423D01*
G01X14889Y-2440D01*
G01X14853Y-2458D01*
G01X14818Y-2476D01*
G01X14784Y-2494D01*
G01X14749Y-2513D01*
G01X14714Y-2531D01*
G01X14680Y-2550D01*
G01X14646Y-2570D01*
G01X14612Y-2590D01*
G01X14578Y-2610D01*
G01X14544Y-2630D01*
G01X14511Y-2650D01*
G01X14478Y-2671D01*
G01X14444Y-2692D01*
G01X14411Y-2714D01*
G01X14379Y-2736D01*
G01X14346Y-2758D01*
G01X14314Y-2780D01*
G01X14282Y-2803D01*
G01X14250Y-2825D01*
G01X14218Y-2849D01*
G01X14186Y-2872D01*
G01X14155Y-2896D01*
G01X14124Y-2920D01*
G01X14093Y-2944D01*
G01X14062Y-2968D01*
G01X14031Y-2993D01*
G01X14001Y-3018D01*
G01X13971Y-3043D01*
G01X13941Y-3069D01*
G01X13911Y-3095D01*
G01X13882Y-3121D01*
G01X13853Y-3147D01*
G01X13824Y-3174D01*
G01X13795Y-3201D01*
G01X13767Y-3228D01*
G01X13738Y-3255D01*
G01X13710Y-3282D01*
G01X13682Y-3310D01*
G01X13655Y-3338D01*
G01X13628Y-3367D01*
G01X13601Y-3395D01*
G01X13574Y-3424D01*
G01X13547Y-3453D01*
G01X13521Y-3482D01*
G01X13495Y-3511D01*
G01X13469Y-3541D01*
G01X13443Y-3571D01*
G01X13418Y-3601D01*
G01X13393Y-3631D01*
G01X13368Y-3662D01*
G01X13344Y-3693D01*
G01X13320Y-3724D01*
G01X13296Y-3755D01*
G01X13272Y-3786D01*
G01X13249Y-3818D01*
G01X13225Y-3850D01*
G01X13203Y-3882D01*
G01X13180Y-3914D01*
G01X13158Y-3946D01*
G01X13136Y-3979D01*
G01X13114Y-4011D01*
G01X13092Y-4044D01*
G01X13071Y-4078D01*
G01X13050Y-4111D01*
G01X13030Y-4144D01*
G01X13010Y-4178D01*
G01X12990Y-4212D01*
G01X12970Y-4246D01*
G01X12950Y-4280D01*
G01X12931Y-4314D01*
G01X12913Y-4349D01*
G01X12894Y-4384D01*
G01X12876Y-4418D01*
G01X12858Y-4453D01*
G01X12840Y-4489D01*
G01X12823Y-4524D01*
G01X12806Y-4559D01*
G01X12789Y-4595D01*
G01X12773Y-4631D01*
G01X12757Y-4667D01*
G01X12741Y-4703D01*
G01X12726Y-4739D01*
G01X12711Y-4775D01*
G01X12696Y-4811D01*
G01X12681Y-4848D01*
G01X12667Y-4885D01*
G01X12653Y-4921D01*
G01X12640Y-4958D01*
G01X12626Y-4995D01*
G01X12614Y-5033D01*
G01X12601Y-5070D01*
G01X12589Y-5107D01*
G01X12577Y-5145D01*
G01X12565Y-5182D01*
G01X12554Y-5220D01*
G01X12543Y-5258D01*
G01X12532Y-5295D01*
G01X12522Y-5333D01*
G01X12512Y-5371D01*
G01X12503Y-5410D01*
G01X12493Y-5448D01*
G01X12484Y-5486D01*
G01X12476Y-5524D01*
G01X12467Y-5563D01*
G01X12459Y-5601D01*
G01X12452Y-5640D01*
G01X12445Y-5678D01*
G01X12438Y-5717D01*
G01X12431Y-5756D01*
G01X12425Y-5795D01*
G01X12419Y-5834D01*
G01X12413Y-5873D01*
G01X12408Y-5911D01*
G01X12403Y-5950D01*
G01X12398Y-5990D01*
G01X12394Y-6029D01*
G01X12390Y-6068D01*
G01X12387Y-6107D01*
G01X12383Y-6146D01*
G01X12380Y-6185D01*
G01X12378Y-6224D01*
G01X12376Y-6264D01*
G01X12374Y-6303D01*
G01X12372Y-6342D01*
G01X12371Y-6382D01*
G01X12370Y-6421D01*
G01X12370Y-6460D01*
G01X12370Y-6500D01*
G01X12370Y-6500D02*
G01X12370Y-6539D01*
G01X12370Y-6578D01*
G01X12371Y-6617D01*
G01X12372Y-6657D01*
G01X12374Y-6696D01*
G01X12376Y-6735D01*
G01X12378Y-6775D01*
G01X12380Y-6814D01*
G01X12383Y-6853D01*
G01X12387Y-6892D01*
G01X12390Y-6931D01*
G01X12394Y-6970D01*
G01X12398Y-7009D01*
G01X12403Y-7049D01*
G01X12408Y-7088D01*
G01X12413Y-7126D01*
G01X12419Y-7165D01*
G01X12425Y-7204D01*
G01X12431Y-7243D01*
G01X12438Y-7282D01*
G01X12445Y-7321D01*
G01X12452Y-7359D01*
G01X12459Y-7398D01*
G01X12467Y-7436D01*
G01X12476Y-7475D01*
G01X12484Y-7513D01*
G01X12493Y-7551D01*
G01X12503Y-7589D01*
G01X12512Y-7628D01*
G01X12522Y-7666D01*
G01X12532Y-7704D01*
G01X12543Y-7741D01*
G01X12554Y-7779D01*
G01X12565Y-7817D01*
G01X12577Y-7854D01*
G01X12589Y-7892D01*
G01X12601Y-7929D01*
G01X12614Y-7966D01*
G01X12626Y-8004D01*
G01X12640Y-8041D01*
G01X12653Y-8078D01*
G01X12667Y-8114D01*
G01X12681Y-8151D01*
G01X12696Y-8188D01*
G01X12711Y-8224D01*
G01X12726Y-8260D01*
G01X12741Y-8296D01*
G01X12757Y-8332D01*
G01X12773Y-8368D01*
G01X12789Y-8404D01*
G01X12806Y-8440D01*
G01X12823Y-8475D01*
G01X12840Y-8510D01*
G01X12858Y-8546D01*
G01X12876Y-8581D01*
G01X12894Y-8615D01*
G01X12913Y-8650D01*
G01X12931Y-8685D01*
G01X12950Y-8719D01*
G01X12970Y-8753D01*
G01X12990Y-8787D01*
G01X13010Y-8821D01*
G01X13030Y-8855D01*
G01X13050Y-8888D01*
G01X13071Y-8921D01*
G01X13092Y-8955D01*
G01X13114Y-8988D01*
G01X13136Y-9020D01*
G01X13158Y-9053D01*
G01X13180Y-9085D01*
G01X13203Y-9117D01*
G01X13225Y-9149D01*
G01X13249Y-9181D01*
G01X13272Y-9213D01*
G01X13296Y-9244D01*
G01X13320Y-9275D01*
G01X13344Y-9306D01*
G01X13368Y-9337D01*
G01X13393Y-9368D01*
G01X13418Y-9398D01*
G01X13443Y-9428D01*
G01X13469Y-9458D01*
G01X13495Y-9488D01*
G01X13521Y-9517D01*
G01X13547Y-9546D01*
G01X13574Y-9575D01*
G01X13601Y-9604D01*
G01X13628Y-9632D01*
G01X13655Y-9661D01*
G01X13682Y-9689D01*
G01X13710Y-9717D01*
G01X13738Y-9744D01*
G01X13767Y-9771D01*
G01X13795Y-9798D01*
G01X13824Y-9825D01*
G01X13853Y-9852D01*
G01X13882Y-9878D01*
G01X13911Y-9904D01*
G01X13941Y-9930D01*
G01X13971Y-9956D01*
G01X14001Y-9981D01*
G01X14031Y-10006D01*
G01X14062Y-10031D01*
G01X14093Y-10055D01*
G01X14124Y-10079D01*
G01X14155Y-10103D01*
G01X14186Y-10127D01*
G01X14218Y-10150D01*
G01X14250Y-10174D01*
G01X14282Y-10196D01*
G01X14314Y-10219D01*
G01X14346Y-10241D01*
G01X14379Y-10263D01*
G01X14411Y-10285D01*
G01X14444Y-10307D01*
G01X14478Y-10328D01*
G01X14511Y-10349D01*
G01X14544Y-10369D01*
G01X14578Y-10389D01*
G01X14612Y-10409D01*
G01X14646Y-10429D01*
G01X14680Y-10449D01*
G01X14714Y-10468D01*
G01X14749Y-10486D01*
G01X14784Y-10505D01*
G01X14818Y-10523D01*
G01X14853Y-10541D01*
G01X14889Y-10559D01*
G01X14924Y-10576D01*
G01X14959Y-10593D01*
G01X14995Y-10610D01*
G01X15031Y-10626D01*
G01X15067Y-10642D01*
G01X15103Y-10658D01*
G01X15139Y-10673D01*
G01X15175Y-10688D01*
G01X15211Y-10703D01*
G01X15248Y-10718D01*
G01X15285Y-10732D01*
G01X15321Y-10746D01*
G01X15358Y-10759D01*
G01X15395Y-10773D01*
G01X15433Y-10785D01*
G01X15470Y-10798D01*
G01X15507Y-10810D01*
G01X15545Y-10822D01*
G01X15582Y-10834D01*
G01X15620Y-10845D01*
G01X15658Y-10856D01*
G01X15695Y-10867D01*
G01X15733Y-10877D01*
G01X15771Y-10887D01*
G01X15810Y-10896D01*
G01X15848Y-10906D01*
G01X15886Y-10915D01*
G01X15924Y-10923D01*
G01X15963Y-10932D01*
G01X16001Y-10940D01*
G01X16040Y-10947D01*
G01X16078Y-10954D01*
G01X16117Y-10961D01*
G01X16156Y-10968D01*
G01X16195Y-10974D01*
G01X16234Y-10980D01*
G01X16273Y-10986D01*
G01X16311Y-10991D01*
G01X16350Y-10996D01*
G01X16390Y-11001D01*
G01X16429Y-11005D01*
G01X16468Y-11009D01*
G01X16507Y-11012D01*
G01X16546Y-11016D01*
G01X16585Y-11019D01*
G01X16624Y-11021D01*
G01X16664Y-11023D01*
G01X16703Y-11025D01*
G01X16742Y-11027D01*
G01X16782Y-11028D01*
G01X16821Y-11029D01*
G01X16860Y-11029D01*
G01X16900Y-11030D01*
G01X16900Y-11030D02*
G01X16939Y-11029D01*
G01X16978Y-11029D01*
G01X17017Y-11028D01*
G01X17057Y-11027D01*
G01X17096Y-11025D01*
G01X17135Y-11023D01*
G01X17175Y-11021D01*
G01X17214Y-11019D01*
G01X17253Y-11016D01*
G01X17292Y-11012D01*
G01X17331Y-11009D01*
G01X17370Y-11005D01*
G01X17409Y-11001D01*
G01X17449Y-10996D01*
G01X17488Y-10991D01*
G01X17526Y-10986D01*
G01X17565Y-10980D01*
G01X17604Y-10974D01*
G01X17643Y-10968D01*
G01X17682Y-10961D01*
G01X17721Y-10954D01*
G01X17759Y-10947D01*
G01X17798Y-10940D01*
G01X17836Y-10932D01*
G01X17875Y-10923D01*
G01X17913Y-10915D01*
G01X17951Y-10906D01*
G01X17989Y-10896D01*
G01X18028Y-10887D01*
G01X18066Y-10877D01*
G01X18104Y-10867D01*
G01X18141Y-10856D01*
G01X18179Y-10845D01*
G01X18217Y-10834D01*
G01X18254Y-10822D01*
G01X18292Y-10810D01*
G01X18329Y-10798D01*
G01X18366Y-10785D01*
G01X18404Y-10773D01*
G01X18441Y-10759D01*
G01X18478Y-10746D01*
G01X18514Y-10732D01*
G01X18551Y-10718D01*
G01X18588Y-10703D01*
G01X18624Y-10688D01*
G01X18660Y-10673D01*
G01X18696Y-10658D01*
G01X18732Y-10642D01*
G01X18768Y-10626D01*
G01X18804Y-10610D01*
G01X18840Y-10593D01*
G01X18875Y-10576D01*
G01X18910Y-10559D01*
G01X18946Y-10541D01*
G01X18981Y-10523D01*
G01X19015Y-10505D01*
G01X19050Y-10486D01*
G01X19085Y-10468D01*
G01X19119Y-10449D01*
G01X19153Y-10429D01*
G01X19187Y-10409D01*
G01X19221Y-10389D01*
G01X19255Y-10369D01*
G01X19288Y-10349D01*
G01X19321Y-10328D01*
G01X19355Y-10307D01*
G01X19388Y-10285D01*
G01X19420Y-10263D01*
G01X19453Y-10241D01*
G01X19485Y-10219D01*
G01X19517Y-10196D01*
G01X19549Y-10174D01*
G01X19581Y-10150D01*
G01X19613Y-10127D01*
G01X19644Y-10103D01*
G01X19675Y-10079D01*
G01X19706Y-10055D01*
G01X19737Y-10031D01*
G01X19768Y-10006D01*
G01X19798Y-9981D01*
G01X19828Y-9956D01*
G01X19858Y-9930D01*
G01X19888Y-9904D01*
G01X19917Y-9878D01*
G01X19946Y-9852D01*
G01X19975Y-9825D01*
G01X20004Y-9798D01*
G01X20032Y-9771D01*
G01X20061Y-9744D01*
G01X20089Y-9717D01*
G01X20117Y-9689D01*
G01X20144Y-9661D01*
G01X20171Y-9632D01*
G01X20198Y-9604D01*
G01X20225Y-9575D01*
G01X20252Y-9546D01*
G01X20278Y-9517D01*
G01X20304Y-9488D01*
G01X20330Y-9458D01*
G01X20356Y-9428D01*
G01X20381Y-9398D01*
G01X20406Y-9368D01*
G01X20431Y-9337D01*
G01X20455Y-9306D01*
G01X20479Y-9275D01*
G01X20503Y-9244D01*
G01X20527Y-9213D01*
G01X20550Y-9181D01*
G01X20574Y-9149D01*
G01X20596Y-9117D01*
G01X20619Y-9085D01*
G01X20641Y-9053D01*
G01X20663Y-9020D01*
G01X20685Y-8988D01*
G01X20707Y-8955D01*
G01X20728Y-8921D01*
G01X20749Y-8888D01*
G01X20769Y-8855D01*
G01X20789Y-8821D01*
G01X20809Y-8787D01*
G01X20829Y-8753D01*
G01X20849Y-8719D01*
G01X20868Y-8685D01*
G01X20886Y-8650D01*
G01X20905Y-8615D01*
G01X20923Y-8581D01*
G01X20941Y-8546D01*
G01X20959Y-8510D01*
G01X20976Y-8475D01*
G01X20993Y-8440D01*
G01X21010Y-8404D01*
G01X21026Y-8368D01*
G01X21042Y-8332D01*
G01X21058Y-8296D01*
G01X21073Y-8260D01*
G01X21088Y-8224D01*
G01X21103Y-8188D01*
G01X21118Y-8151D01*
G01X21132Y-8114D01*
G01X21146Y-8078D01*
G01X21159Y-8041D01*
G01X21173Y-8004D01*
G01X21185Y-7966D01*
G01X21198Y-7929D01*
G01X21210Y-7892D01*
G01X21222Y-7854D01*
G01X21234Y-7817D01*
G01X21245Y-7779D01*
G01X21256Y-7741D01*
G01X21267Y-7704D01*
G01X21277Y-7666D01*
G01X21287Y-7628D01*
G01X21296Y-7589D01*
G01X21306Y-7551D01*
G01X21315Y-7513D01*
G01X21323Y-7475D01*
G01X21332Y-7436D01*
G01X21340Y-7398D01*
G01X21347Y-7359D01*
G01X21354Y-7321D01*
G01X21361Y-7282D01*
G01X21368Y-7243D01*
G01X21374Y-7204D01*
G01X21380Y-7165D01*
G01X21386Y-7126D01*
G01X21391Y-7088D01*
G01X21396Y-7049D01*
G01X21401Y-7009D01*
G01X21405Y-6970D01*
G01X21409Y-6931D01*
G01X21412Y-6892D01*
G01X21416Y-6853D01*
G01X21419Y-6814D01*
G01X21421Y-6775D01*
G01X21423Y-6735D01*
G01X21425Y-6696D01*
G01X21427Y-6657D01*
G01X21428Y-6617D01*
G01X21429Y-6578D01*
G01X21429Y-6539D01*
G01X21430Y-6500D01*
G01X21430Y-6500D02*
G01X21429Y-6460D01*
G01X21429Y-6421D01*
G01X21428Y-6382D01*
G01X21427Y-6342D01*
G01X21425Y-6303D01*
G01X21423Y-6264D01*
G01X21421Y-6224D01*
G01X21419Y-6185D01*
G01X21416Y-6146D01*
G01X21412Y-6107D01*
G01X21409Y-6068D01*
G01X21405Y-6029D01*
G01X21401Y-5990D01*
G01X21396Y-5950D01*
G01X21391Y-5911D01*
G01X21386Y-5873D01*
G01X21380Y-5834D01*
G01X21374Y-5795D01*
G01X21368Y-5756D01*
G01X21361Y-5717D01*
G01X21354Y-5678D01*
G01X21347Y-5640D01*
G01X21340Y-5601D01*
G01X21332Y-5563D01*
G01X21323Y-5524D01*
G01X21315Y-5486D01*
G01X21306Y-5448D01*
G01X21296Y-5410D01*
G01X21287Y-5371D01*
G01X21277Y-5333D01*
G01X21267Y-5295D01*
G01X21256Y-5258D01*
G01X21245Y-5220D01*
G01X21234Y-5182D01*
G01X21222Y-5145D01*
G01X21210Y-5107D01*
G01X21198Y-5070D01*
G01X21185Y-5033D01*
G01X21173Y-4995D01*
G01X21159Y-4958D01*
G01X21146Y-4921D01*
G01X21132Y-4885D01*
G01X21118Y-4848D01*
G01X21103Y-4811D01*
G01X21088Y-4775D01*
G01X21073Y-4739D01*
G01X21058Y-4703D01*
G01X21042Y-4667D01*
G01X21026Y-4631D01*
G01X21010Y-4595D01*
G01X20993Y-4559D01*
G01X20976Y-4524D01*
G01X20959Y-4489D01*
G01X20941Y-4453D01*
G01X20923Y-4418D01*
G01X20905Y-4384D01*
G01X20886Y-4349D01*
G01X20868Y-4314D01*
G01X20849Y-4280D01*
G01X20829Y-4246D01*
G01X20809Y-4212D01*
G01X20789Y-4178D01*
G01X20769Y-4144D01*
G01X20749Y-4111D01*
G01X20728Y-4078D01*
G01X20707Y-4044D01*
G01X20685Y-4011D01*
G01X20663Y-3979D01*
G01X20641Y-3946D01*
G01X20619Y-3914D01*
G01X20596Y-3882D01*
G01X20574Y-3850D01*
G01X20550Y-3818D01*
G01X20527Y-3786D01*
G01X20503Y-3755D01*
G01X20479Y-3724D01*
G01X20455Y-3693D01*
G01X20431Y-3662D01*
G01X20406Y-3631D01*
G01X20381Y-3601D01*
G01X20356Y-3571D01*
G01X20330Y-3541D01*
G01X20304Y-3511D01*
G01X20278Y-3482D01*
G01X20252Y-3453D01*
G01X20225Y-3424D01*
G01X20198Y-3395D01*
G01X20171Y-3367D01*
G01X20144Y-3338D01*
G01X20117Y-3310D01*
G01X20089Y-3282D01*
G01X20061Y-3255D01*
G01X20032Y-3228D01*
G01X20004Y-3201D01*
G01X19975Y-3174D01*
G01X19946Y-3147D01*
G01X19917Y-3121D01*
G01X19888Y-3095D01*
G01X19858Y-3069D01*
G01X19828Y-3043D01*
G01X19798Y-3018D01*
G01X19768Y-2993D01*
G01X19737Y-2968D01*
G01X19706Y-2944D01*
G01X19675Y-2920D01*
G01X19644Y-2896D01*
G01X19613Y-2872D01*
G01X19581Y-2849D01*
G01X19549Y-2825D01*
G01X19517Y-2803D01*
G01X19485Y-2780D01*
G01X19453Y-2758D01*
G01X19420Y-2736D01*
G01X19388Y-2714D01*
G01X19355Y-2692D01*
G01X19321Y-2671D01*
G01X19288Y-2650D01*
G01X19255Y-2630D01*
G01X19221Y-2610D01*
G01X19187Y-2590D01*
G01X19153Y-2570D01*
G01X19119Y-2550D01*
G01X19085Y-2531D01*
G01X19050Y-2513D01*
G01X19015Y-2494D01*
G01X18981Y-2476D01*
G01X18946Y-2458D01*
G01X18910Y-2440D01*
G01X18875Y-2423D01*
G01X18840Y-2406D01*
G01X18804Y-2389D01*
G01X18768Y-2373D01*
G01X18732Y-2357D01*
G01X18696Y-2341D01*
G01X18660Y-2326D01*
G01X18624Y-2311D01*
G01X18588Y-2296D01*
G01X18551Y-2281D01*
G01X18514Y-2267D01*
G01X18478Y-2253D01*
G01X18441Y-2240D01*
G01X18404Y-2226D01*
G01X18366Y-2214D01*
G01X18329Y-2201D01*
G01X18292Y-2189D01*
G01X18254Y-2177D01*
G01X18217Y-2165D01*
G01X18179Y-2154D01*
G01X18141Y-2143D01*
G01X18104Y-2132D01*
G01X18066Y-2122D01*
G01X18028Y-2112D01*
G01X17989Y-2103D01*
G01X17951Y-2093D01*
G01X17913Y-2084D01*
G01X17875Y-2076D01*
G01X17836Y-2067D01*
G01X17798Y-2059D01*
G01X17759Y-2052D01*
G01X17721Y-2045D01*
G01X17682Y-2038D01*
G01X17643Y-2031D01*
G01X17604Y-2025D01*
G01X17565Y-2019D01*
G01X17526Y-2013D01*
G01X17488Y-2008D01*
G01X17449Y-2003D01*
G01X17409Y-1998D01*
G01X17370Y-1994D01*
G01X17331Y-1990D01*
G01X17292Y-1987D01*
G01X17253Y-1983D01*
G01X17214Y-1980D01*
G01X17175Y-1978D01*
G01X17135Y-1976D01*
G01X17096Y-1974D01*
G01X17057Y-1972D01*
G01X17017Y-1971D01*
G01X16978Y-1970D01*
G01X16939Y-1970D01*
G01X16900Y-1970D01*
G01X16900Y-5900D02*
G01X16939Y-5901D01*
G01X16978Y-5905D01*
G01X17017Y-5911D01*
G01X17055Y-5920D01*
G01X17092Y-5931D01*
G01X17129Y-5945D01*
G01X17165Y-5961D01*
G01X17199Y-5980D01*
G01X17233Y-6001D01*
G01X17265Y-6023D01*
G01X17295Y-6048D01*
G01X17324Y-6075D01*
G01X17351Y-6104D01*
G01X17376Y-6134D01*
G01X17398Y-6166D01*
G01X17419Y-6199D01*
G01X17438Y-6234D01*
G01X17454Y-6270D01*
G01X17468Y-6307D01*
G01X17479Y-6344D01*
G01X17488Y-6382D01*
G01X17494Y-6421D01*
G01X17498Y-6460D01*
G01X17500Y-6500D01*
G01X17500Y-6500D02*
G01X17498Y-6539D01*
G01X17494Y-6578D01*
G01X17488Y-6617D01*
G01X17479Y-6655D01*
G01X17468Y-6692D01*
G01X17454Y-6729D01*
G01X17438Y-6765D01*
G01X17419Y-6799D01*
G01X17398Y-6833D01*
G01X17376Y-6865D01*
G01X17351Y-6895D01*
G01X17324Y-6924D01*
G01X17295Y-6951D01*
G01X17265Y-6976D01*
G01X17233Y-6998D01*
G01X17200Y-7019D01*
G01X17165Y-7038D01*
G01X17129Y-7054D01*
G01X17092Y-7068D01*
G01X17055Y-7079D01*
G01X17017Y-7088D01*
G01X16978Y-7094D01*
G01X16939Y-7098D01*
G01X16900Y-7100D01*
G01X16900Y-7100D02*
G01X16860Y-7098D01*
G01X16821Y-7094D01*
G01X16782Y-7088D01*
G01X16744Y-7079D01*
G01X16707Y-7068D01*
G01X16670Y-7054D01*
G01X16634Y-7038D01*
G01X16600Y-7019D01*
G01X16566Y-6998D01*
G01X16534Y-6976D01*
G01X16504Y-6951D01*
G01X16475Y-6924D01*
G01X16448Y-6895D01*
G01X16423Y-6865D01*
G01X16401Y-6833D01*
G01X16380Y-6800D01*
G01X16361Y-6765D01*
G01X16345Y-6729D01*
G01X16331Y-6692D01*
G01X16320Y-6655D01*
G01X16311Y-6617D01*
G01X16305Y-6578D01*
G01X16301Y-6539D01*
G01X16300Y-6500D01*
G01X16300Y-6500D02*
G01X16301Y-6460D01*
G01X16305Y-6421D01*
G01X16311Y-6382D01*
G01X16320Y-6344D01*
G01X16331Y-6307D01*
G01X16345Y-6270D01*
G01X16361Y-6234D01*
G01X16380Y-6200D01*
G01X16401Y-6166D01*
G01X16423Y-6134D01*
G01X16448Y-6104D01*
G01X16475Y-6075D01*
G01X16504Y-6048D01*
G01X16534Y-6023D01*
G01X16566Y-6001D01*
G01X16599Y-5980D01*
G01X16634Y-5961D01*
G01X16670Y-5945D01*
G01X16707Y-5931D01*
G01X16744Y-5920D01*
G01X16782Y-5911D01*
G01X16821Y-5905D01*
G01X16860Y-5901D01*
G01X16900Y-5900D01*
G01X18584Y-9201D02*
G01X17766Y-9201D01*
G01X18175Y-8792D02*
G01X18175Y-9610D01*
G04 draw reference designator for part B1*
G01X20019Y-7838D02*
G01X19065Y-7838D01*
G01X20019Y-7429D02*
G01X20019Y-7838D01*
G01X20019Y-7429D02*
G01X19974Y-7293D01*
G01X19974Y-7293D02*
G01X19928Y-7247D01*
G01X19928Y-7247D02*
G01X19838Y-7202D01*
G01X19838Y-7202D02*
G01X19747Y-7202D01*
G01X19747Y-7202D02*
G01X19656Y-7247D01*
G01X19656Y-7247D02*
G01X19610Y-7293D01*
G01X19610Y-7293D02*
G01X19565Y-7429D01*
G01X19565Y-7429D02*
G01X19565Y-7838D01*
G01X19565Y-7429D02*
G01X19519Y-7293D01*
G01X19519Y-7293D02*
G01X19474Y-7247D01*
G01X19474Y-7247D02*
G01X19383Y-7202D01*
G01X19383Y-7202D02*
G01X19247Y-7202D01*
G01X19247Y-7202D02*
G01X19156Y-7247D01*
G01X19156Y-7247D02*
G01X19110Y-7293D01*
G01X19110Y-7293D02*
G01X19065Y-7429D01*
G01X19065Y-7838D02*
G01X19065Y-7429D01*
G01X19883Y-6747D02*
G01X19838Y-6838D01*
G01X20019Y-6611D02*
G01X19883Y-6747D01*
G01X20019Y-6611D02*
G01X19065Y-6611D01*
G04 Draw part J1*
G04 Draw part J2*
G04 Draw part F1*
G04 Draw part D2*
G04 draw part outline for part D2*
G01X11403Y6703D02*
G01X11403Y4696D01*
G01X11403Y4696D02*
G01X9612Y4696D01*
G01X9612Y4696D02*
G01X9396Y4912D01*
G01X9396Y4912D02*
G01X9396Y6703D01*
G01X9396Y6703D02*
G01X11403Y6703D01*
G01X10400Y5778D02*
G01X10321Y5700D01*
G01X10321Y5700D02*
G01X10400Y5621D01*
G01X10400Y5621D02*
G01X10478Y5700D01*
G01X10478Y5700D02*
G01X10400Y5778D01*
G04 draw reference designator for part D2*
G54D10*
G01X10800Y4377D02*
G01X10800Y3900D01*
G01X10640Y4377D02*
G01X10800Y4377D01*
G01X10640Y4377D02*
G01X10572Y4354D01*
G01X10572Y4354D02*
G01X10527Y4309D01*
G01X10527Y4309D02*
G01X10504Y4263D01*
G01X10504Y4263D02*
G01X10481Y4195D01*
G01X10481Y4195D02*
G01X10481Y4081D01*
G01X10481Y4081D02*
G01X10504Y4013D01*
G01X10504Y4013D02*
G01X10527Y3968D01*
G01X10527Y3968D02*
G01X10572Y3922D01*
G01X10572Y3922D02*
G01X10640Y3900D01*
G01X10800Y3900D02*
G01X10640Y3900D01*
G01X10277Y4286D02*
G01X10277Y4263D01*
G01X10254Y4331D02*
G01X10277Y4286D01*
G01X10231Y4354D02*
G01X10254Y4331D01*
G01X10186Y4377D02*
G01X10231Y4354D01*
G01X10095Y4377D02*
G01X10186Y4377D01*
G01X10095Y4377D02*
G01X10050Y4354D01*
G01X10050Y4354D02*
G01X10027Y4331D01*
G01X10027Y4331D02*
G01X10004Y4286D01*
G01X10004Y4286D02*
G01X10004Y4240D01*
G01X10004Y4240D02*
G01X10027Y4195D01*
G01X10027Y4195D02*
G01X10072Y4127D01*
G01X10072Y4127D02*
G01X10300Y3900D01*
G01X9981Y3900D02*
G01X10300Y3900D01*
G04 Draw part S1*
G04 draw part outline for part S1*
G01X12388Y-1988D02*
G01X8411Y-1988D01*
G01X8411Y-1988D02*
G01X8411Y1988D01*
G01X8411Y1988D02*
G01X12388Y1988D01*
G01X12388Y1988D02*
G01X12388Y-1988D01*
G54D11*
G01X10400Y78D02*
G01X10321Y0D01*
G01X10321Y0D02*
G01X10400Y-78D01*
G01X10400Y-78D02*
G01X10478Y0D01*
G01X10478Y0D02*
G01X10400Y78D01*
G04 draw reference designator for part S1*
G54D10*
G01X8054Y1272D02*
G01X8009Y1318D01*
G01X8077Y1204D02*
G01X8054Y1272D01*
G01X8077Y1113D02*
G01X8077Y1204D01*
G01X8077Y1113D02*
G01X8054Y1045D01*
G01X8054Y1045D02*
G01X8009Y1000D01*
G01X8009Y1000D02*
G01X7963Y1000D01*
G01X7963Y1000D02*
G01X7918Y1022D01*
G01X7918Y1022D02*
G01X7895Y1045D01*
G01X7895Y1045D02*
G01X7872Y1090D01*
G01X7872Y1090D02*
G01X7827Y1227D01*
G01X7827Y1227D02*
G01X7804Y1272D01*
G01X7804Y1272D02*
G01X7781Y1295D01*
G01X7781Y1295D02*
G01X7736Y1318D01*
G01X7736Y1318D02*
G01X7668Y1318D01*
G01X7668Y1318D02*
G01X7622Y1272D01*
G01X7622Y1272D02*
G01X7600Y1204D01*
G01X7600Y1113D02*
G01X7600Y1204D01*
G01X7622Y1045D02*
G01X7600Y1113D01*
G01X7668Y1000D02*
G01X7622Y1045D01*
G01X8009Y1545D02*
G01X7986Y1500D01*
G01X8077Y1613D02*
G01X8009Y1545D01*
G01X8077Y1613D02*
G01X7600Y1613D01*
G04 Draw part J5*
G04 Draw part J6*
G04 Draw part J9*
G04 Draw part J10*
G04 Draw part D3*
G04 draw part outline for part D3*
G54D11*
G01X-11503Y6703D02*
G01X-9496Y6703D01*
G01X-9496Y6703D02*
G01X-9496Y4912D01*
G01X-9496Y4912D02*
G01X-9712Y4696D01*
G01X-9712Y4696D02*
G01X-11503Y4696D01*
G01X-11503Y4696D02*
G01X-11503Y6703D01*
G01X-10578Y5700D02*
G01X-10500Y5621D01*
G01X-10500Y5621D02*
G01X-10421Y5700D01*
G01X-10421Y5700D02*
G01X-10500Y5778D01*
G01X-10500Y5778D02*
G01X-10578Y5700D01*
G04 draw reference designator for part D3*
G54D10*
G01X-10100Y4377D02*
G01X-10100Y3900D01*
G01X-10259Y4377D02*
G01X-10100Y4377D01*
G01X-10259Y4377D02*
G01X-10327Y4354D01*
G01X-10327Y4354D02*
G01X-10372Y4309D01*
G01X-10372Y4309D02*
G01X-10395Y4263D01*
G01X-10395Y4263D02*
G01X-10418Y4195D01*
G01X-10418Y4195D02*
G01X-10418Y4081D01*
G01X-10418Y4081D02*
G01X-10395Y4013D01*
G01X-10395Y4013D02*
G01X-10372Y3968D01*
G01X-10372Y3968D02*
G01X-10327Y3922D01*
G01X-10327Y3922D02*
G01X-10259Y3900D01*
G01X-10100Y3900D02*
G01X-10259Y3900D01*
G01X-10895Y4377D02*
G01X-10645Y4377D01*
G01X-10895Y4377D02*
G01X-10759Y4195D01*
G01X-10827Y4195D02*
G01X-10759Y4195D01*
G01X-10827Y4195D02*
G01X-10872Y4172D01*
G01X-10872Y4172D02*
G01X-10895Y4150D01*
G01X-10895Y4150D02*
G01X-10918Y4081D01*
G01X-10918Y4081D02*
G01X-10918Y4036D01*
G01X-10918Y4036D02*
G01X-10895Y3968D01*
G01X-10895Y3968D02*
G01X-10850Y3922D01*
G01X-10850Y3922D02*
G01X-10781Y3900D01*
G01X-10713Y3900D02*
G01X-10781Y3900D01*
G01X-10645Y3922D02*
G01X-10713Y3900D01*
G01X-10622Y3945D02*
G01X-10645Y3922D01*
G01X-10600Y3990D02*
G01X-10622Y3945D01*
G04 Draw part S2*
G04 draw part outline for part S2*
G01X-8511Y-1988D02*
G01X-12488Y-1988D01*
G01X-12488Y-1988D02*
G01X-12488Y1988D01*
G01X-12488Y1988D02*
G01X-8511Y1988D01*
G01X-8511Y1988D02*
G01X-8511Y-1988D01*
G54D11*
G01X-10500Y78D02*
G01X-10578Y0D01*
G01X-10578Y0D02*
G01X-10500Y-78D01*
G01X-10500Y-78D02*
G01X-10421Y0D01*
G01X-10421Y0D02*
G01X-10500Y78D01*
G04 draw reference designator for part S2*
G54D10*
G01X-12845Y1372D02*
G01X-12890Y1418D01*
G01X-12822Y1304D02*
G01X-12845Y1372D01*
G01X-12822Y1213D02*
G01X-12822Y1304D01*
G01X-12822Y1213D02*
G01X-12845Y1145D01*
G01X-12845Y1145D02*
G01X-12890Y1100D01*
G01X-12890Y1100D02*
G01X-12936Y1100D01*
G01X-12936Y1100D02*
G01X-12981Y1122D01*
G01X-12981Y1122D02*
G01X-13004Y1145D01*
G01X-13004Y1145D02*
G01X-13027Y1190D01*
G01X-13027Y1190D02*
G01X-13072Y1327D01*
G01X-13072Y1327D02*
G01X-13095Y1372D01*
G01X-13095Y1372D02*
G01X-13118Y1395D01*
G01X-13118Y1395D02*
G01X-13163Y1418D01*
G01X-13163Y1418D02*
G01X-13231Y1418D01*
G01X-13231Y1418D02*
G01X-13277Y1372D01*
G01X-13277Y1372D02*
G01X-13300Y1304D01*
G01X-13300Y1213D02*
G01X-13300Y1304D01*
G01X-13277Y1145D02*
G01X-13300Y1213D01*
G01X-13231Y1100D02*
G01X-13277Y1145D01*
G01X-12913Y1622D02*
G01X-12936Y1622D01*
G01X-12868Y1645D02*
G01X-12913Y1622D01*
G01X-12845Y1668D02*
G01X-12868Y1645D01*
G01X-12822Y1713D02*
G01X-12845Y1668D01*
G01X-12822Y1804D02*
G01X-12822Y1713D01*
G01X-12822Y1804D02*
G01X-12845Y1850D01*
G01X-12845Y1850D02*
G01X-12868Y1872D01*
G01X-12868Y1872D02*
G01X-12913Y1895D01*
G01X-12913Y1895D02*
G01X-12959Y1895D01*
G01X-12959Y1895D02*
G01X-13004Y1872D01*
G01X-13004Y1872D02*
G01X-13072Y1827D01*
G01X-13072Y1827D02*
G01X-13300Y1600D01*
G01X-13300Y1918D02*
G01X-13300Y1600D01*
G04 Draw part J7*
G04 Draw part J8*
G04 Draw part J11*
G04 Draw part J12*
G04 Draw part V1*
G04 Draw part V2*
G04 Draw part V3*
G04 Draw part R10*
G04 Draw part R9*
G04 Draw part J4*
G04 Draw part R13*
G04 Draw part R14*
G04 Draw part C7*
G04 Draw part R15*
G04 draw part outline for part R15*
G01X17966Y2566D02*
G01X19935Y2566D01*
G01X19935Y2566D02*
G01X19935Y3433D01*
G01X19935Y3433D02*
G01X17966Y3433D01*
G01X17966Y3433D02*
G01X17966Y2566D01*
G04 draw reference designator for part R15*
G01X19800Y2377D02*
G01X19800Y1900D01*
G01X19595Y2377D02*
G01X19800Y2377D01*
G01X19595Y2377D02*
G01X19527Y2354D01*
G01X19527Y2354D02*
G01X19504Y2331D01*
G01X19504Y2331D02*
G01X19481Y2286D01*
G01X19481Y2286D02*
G01X19481Y2240D01*
G01X19481Y2240D02*
G01X19504Y2195D01*
G01X19504Y2195D02*
G01X19527Y2172D01*
G01X19527Y2172D02*
G01X19595Y2150D01*
G01X19800Y2150D02*
G01X19595Y2150D01*
G01X19640Y2150D02*
G01X19481Y1900D01*
G01X19254Y2309D02*
G01X19300Y2286D01*
G01X19186Y2377D02*
G01X19254Y2309D01*
G01X19186Y2377D02*
G01X19186Y1900D01*
G01X18959Y2377D02*
G01X18731Y2377D01*
G01X18959Y2377D02*
G01X18981Y2172D01*
G01X18959Y2195D02*
G01X18981Y2172D01*
G01X18890Y2218D02*
G01X18959Y2195D01*
G01X18822Y2218D02*
G01X18890Y2218D01*
G01X18822Y2218D02*
G01X18754Y2195D01*
G01X18754Y2195D02*
G01X18709Y2150D01*
G01X18709Y2150D02*
G01X18686Y2081D01*
G01X18686Y2081D02*
G01X18686Y2036D01*
G01X18686Y2036D02*
G01X18709Y1968D01*
G01X18709Y1968D02*
G01X18754Y1922D01*
G01X18754Y1922D02*
G01X18822Y1900D01*
G01X18890Y1900D02*
G01X18822Y1900D01*
G01X18959Y1922D02*
G01X18890Y1900D01*
G01X18981Y1945D02*
G01X18959Y1922D01*
G01X19004Y1990D02*
G01X18981Y1945D01*
G04 Draw part R16*
G04 draw part outline for part R16*
G01X12166Y8566D02*
G01X14135Y8566D01*
G01X14135Y8566D02*
G01X14135Y9433D01*
G01X14135Y9433D02*
G01X12166Y9433D01*
G01X12166Y9433D02*
G01X12166Y8566D01*
G04 draw reference designator for part R16*
G01X13300Y10177D02*
G01X13300Y9700D01*
G01X13095Y10177D02*
G01X13300Y10177D01*
G01X13095Y10177D02*
G01X13027Y10154D01*
G01X13027Y10154D02*
G01X13004Y10131D01*
G01X13004Y10131D02*
G01X12981Y10086D01*
G01X12981Y10086D02*
G01X12981Y10040D01*
G01X12981Y10040D02*
G01X13004Y9995D01*
G01X13004Y9995D02*
G01X13027Y9972D01*
G01X13027Y9972D02*
G01X13095Y9950D01*
G01X13300Y9950D02*
G01X13095Y9950D01*
G01X13140Y9950D02*
G01X12981Y9700D01*
G01X12754Y10109D02*
G01X12800Y10086D01*
G01X12686Y10177D02*
G01X12754Y10109D01*
G01X12686Y10177D02*
G01X12686Y9700D01*
G01X12254Y10154D02*
G01X12231Y10109D01*
G01X12322Y10177D02*
G01X12254Y10154D01*
G01X12368Y10177D02*
G01X12322Y10177D01*
G01X12368Y10177D02*
G01X12436Y10154D01*
G01X12436Y10154D02*
G01X12481Y10086D01*
G01X12481Y10086D02*
G01X12504Y9972D01*
G01X12504Y9972D02*
G01X12504Y9859D01*
G01X12504Y9859D02*
G01X12481Y9768D01*
G01X12481Y9768D02*
G01X12436Y9722D01*
G01X12436Y9722D02*
G01X12368Y9700D01*
G01X12345Y9700D02*
G01X12368Y9700D01*
G01X12277Y9722D02*
G01X12345Y9700D01*
G01X12231Y9768D02*
G01X12277Y9722D01*
G01X12209Y9836D02*
G01X12231Y9768D01*
G01X12209Y9859D02*
G01X12209Y9836D01*
G01X12231Y9927D02*
G01X12209Y9859D01*
G01X12277Y9972D02*
G01X12231Y9927D01*
G01X12345Y9995D02*
G01X12277Y9972D01*
G01X12368Y9995D02*
G01X12345Y9995D01*
G01X12368Y9995D02*
G01X12436Y9972D01*
G01X12436Y9972D02*
G01X12481Y9927D01*
G01X12481Y9927D02*
G01X12504Y9859D01*
G04 Draw part R17*
G04 draw part outline for part R17*
G01X-7433Y4433D02*
G01X-7433Y2464D01*
G01X-7433Y2464D02*
G01X-6566Y2464D01*
G01X-6566Y2464D02*
G01X-6566Y4433D01*
G01X-6566Y4433D02*
G01X-7433Y4433D01*
G04 draw reference designator for part R17*
G01X-7177Y5800D02*
G01X-6700Y5800D01*
G01X-7177Y5595D02*
G01X-7177Y5800D01*
G01X-7177Y5595D02*
G01X-7154Y5527D01*
G01X-7154Y5527D02*
G01X-7131Y5504D01*
G01X-7131Y5504D02*
G01X-7086Y5481D01*
G01X-7086Y5481D02*
G01X-7040Y5481D01*
G01X-7040Y5481D02*
G01X-6995Y5504D01*
G01X-6995Y5504D02*
G01X-6972Y5527D01*
G01X-6972Y5527D02*
G01X-6950Y5595D01*
G01X-6950Y5800D02*
G01X-6950Y5595D01*
G01X-6950Y5640D02*
G01X-6700Y5481D01*
G01X-7109Y5254D02*
G01X-7086Y5300D01*
G01X-7177Y5186D02*
G01X-7109Y5254D01*
G01X-7177Y5186D02*
G01X-6700Y5186D01*
G01X-7177Y4686D02*
G01X-6700Y4913D01*
G01X-7177Y4686D02*
G01X-7177Y5004D01*
G04 Draw part R18*
G04 draw part outline for part R18*
G01X-17666Y9433D02*
G01X-19635Y9433D01*
G01X-19635Y9433D02*
G01X-19635Y8566D01*
G01X-19635Y8566D02*
G01X-17666Y8566D01*
G01X-17666Y8566D02*
G01X-17666Y9433D01*
G04 draw reference designator for part R18*
G01X-19900Y9377D02*
G01X-19900Y8900D01*
G01X-20104Y9377D02*
G01X-19900Y9377D01*
G01X-20104Y9377D02*
G01X-20172Y9354D01*
G01X-20172Y9354D02*
G01X-20195Y9331D01*
G01X-20195Y9331D02*
G01X-20218Y9286D01*
G01X-20218Y9286D02*
G01X-20218Y9240D01*
G01X-20218Y9240D02*
G01X-20195Y9195D01*
G01X-20195Y9195D02*
G01X-20172Y9172D01*
G01X-20172Y9172D02*
G01X-20104Y9150D01*
G01X-19900Y9150D02*
G01X-20104Y9150D01*
G01X-20059Y9150D02*
G01X-20218Y8900D01*
G01X-20445Y9309D02*
G01X-20400Y9286D01*
G01X-20513Y9377D02*
G01X-20445Y9309D01*
G01X-20513Y9377D02*
G01X-20513Y8900D01*
G01X-20809Y9377D02*
G01X-20740Y9354D01*
G01X-20740Y9354D02*
G01X-20718Y9309D01*
G01X-20718Y9309D02*
G01X-20718Y9263D01*
G01X-20718Y9263D02*
G01X-20740Y9218D01*
G01X-20740Y9218D02*
G01X-20786Y9195D01*
G01X-20786Y9195D02*
G01X-20877Y9172D01*
G01X-20877Y9172D02*
G01X-20945Y9150D01*
G01X-20945Y9150D02*
G01X-20990Y9104D01*
G01X-20990Y9104D02*
G01X-21013Y9059D01*
G01X-21013Y9059D02*
G01X-21013Y8990D01*
G01X-21013Y8990D02*
G01X-20990Y8945D01*
G01X-20990Y8945D02*
G01X-20968Y8922D01*
G01X-20968Y8922D02*
G01X-20900Y8900D01*
G01X-20809Y8900D02*
G01X-20900Y8900D01*
G01X-20740Y8922D02*
G01X-20809Y8900D01*
G01X-20718Y8945D02*
G01X-20740Y8922D01*
G01X-20695Y8990D02*
G01X-20718Y8945D01*
G01X-20695Y9059D02*
G01X-20695Y8990D01*
G01X-20718Y9104D02*
G01X-20695Y9059D01*
G01X-20763Y9150D02*
G01X-20718Y9104D01*
G01X-20831Y9172D02*
G01X-20763Y9150D01*
G01X-20922Y9195D02*
G01X-20831Y9172D01*
G01X-20968Y9218D02*
G01X-20922Y9195D01*
G01X-20990Y9263D02*
G01X-20968Y9218D01*
G01X-20990Y9309D02*
G01X-20990Y9263D01*
G01X-20968Y9354D02*
G01X-20990Y9309D01*
G01X-20900Y9377D02*
G01X-20968Y9354D01*
G01X-20809Y9377D02*
G01X-20900Y9377D01*
G04 Draw part C8*
G04 draw part outline for part C8*
G01X-10188Y-8833D02*
G01X-10188Y-6864D01*
G01X-10188Y-6864D02*
G01X-11211Y-6864D01*
G01X-11211Y-6864D02*
G01X-11211Y-8833D01*
G01X-11211Y-8833D02*
G01X-10188Y-8833D01*
G04 draw reference designator for part C8*
G01X-9476Y-8257D02*
G01X-9453Y-8212D01*
G01X-9521Y-8303D02*
G01X-9476Y-8257D01*
G01X-9567Y-8326D02*
G01X-9521Y-8303D01*
G01X-9658Y-8326D02*
G01X-9567Y-8326D01*
G01X-9658Y-8326D02*
G01X-9703Y-8303D01*
G01X-9703Y-8303D02*
G01X-9749Y-8257D01*
G01X-9749Y-8257D02*
G01X-9771Y-8212D01*
G01X-9771Y-8212D02*
G01X-9794Y-8144D01*
G01X-9794Y-8144D02*
G01X-9794Y-8030D01*
G01X-9794Y-8030D02*
G01X-9771Y-7962D01*
G01X-9771Y-7962D02*
G01X-9749Y-7917D01*
G01X-9749Y-7917D02*
G01X-9703Y-7871D01*
G01X-9703Y-7871D02*
G01X-9658Y-7848D01*
G01X-9567Y-7848D02*
G01X-9658Y-7848D01*
G01X-9521Y-7871D02*
G01X-9567Y-7848D01*
G01X-9476Y-7917D02*
G01X-9521Y-7871D01*
G01X-9453Y-7962D02*
G01X-9476Y-7917D01*
G01X-9158Y-8326D02*
G01X-9226Y-8303D01*
G01X-9226Y-8303D02*
G01X-9249Y-8257D01*
G01X-9249Y-8257D02*
G01X-9249Y-8212D01*
G01X-9249Y-8212D02*
G01X-9226Y-8167D01*
G01X-9226Y-8167D02*
G01X-9180Y-8144D01*
G01X-9180Y-8144D02*
G01X-9089Y-8121D01*
G01X-9089Y-8121D02*
G01X-9021Y-8098D01*
G01X-9021Y-8098D02*
G01X-8976Y-8053D01*
G01X-8976Y-8053D02*
G01X-8953Y-8007D01*
G01X-8953Y-8007D02*
G01X-8953Y-7939D01*
G01X-8953Y-7939D02*
G01X-8976Y-7894D01*
G01X-8976Y-7894D02*
G01X-8999Y-7871D01*
G01X-8999Y-7871D02*
G01X-9067Y-7848D01*
G01X-9158Y-7848D02*
G01X-9067Y-7848D01*
G01X-9226Y-7871D02*
G01X-9158Y-7848D01*
G01X-9249Y-7894D02*
G01X-9226Y-7871D01*
G01X-9271Y-7939D02*
G01X-9249Y-7894D01*
G01X-9271Y-8007D02*
G01X-9271Y-7939D01*
G01X-9249Y-8053D02*
G01X-9271Y-8007D01*
G01X-9203Y-8098D02*
G01X-9249Y-8053D01*
G01X-9135Y-8121D02*
G01X-9203Y-8098D01*
G01X-9044Y-8144D02*
G01X-9135Y-8121D01*
G01X-8999Y-8167D02*
G01X-9044Y-8144D01*
G01X-8976Y-8212D02*
G01X-8999Y-8167D01*
G01X-8976Y-8257D02*
G01X-8976Y-8212D01*
G01X-8999Y-8303D02*
G01X-8976Y-8257D01*
G01X-9067Y-8326D02*
G01X-8999Y-8303D01*
G01X-9158Y-8326D02*
G01X-9067Y-8326D01*
G04 Draw part C9*
G04 Draw part C10*
G04 Draw part C11*
G04 draw part outline for part C11*
G01X12166Y6188D02*
G01X14135Y6188D01*
G01X14135Y6188D02*
G01X14135Y7211D01*
G01X14135Y7211D02*
G01X12166Y7211D01*
G01X12166Y7211D02*
G01X12166Y6188D01*
G04 draw reference designator for part C11*
G01X14981Y6809D02*
G01X14959Y6763D01*
G01X15027Y6854D02*
G01X14981Y6809D01*
G01X15072Y6877D02*
G01X15027Y6854D01*
G01X15163Y6877D02*
G01X15072Y6877D01*
G01X15163Y6877D02*
G01X15209Y6854D01*
G01X15209Y6854D02*
G01X15254Y6809D01*
G01X15254Y6809D02*
G01X15277Y6763D01*
G01X15277Y6763D02*
G01X15300Y6695D01*
G01X15300Y6695D02*
G01X15300Y6581D01*
G01X15300Y6581D02*
G01X15277Y6513D01*
G01X15277Y6513D02*
G01X15254Y6468D01*
G01X15254Y6468D02*
G01X15209Y6422D01*
G01X15209Y6422D02*
G01X15163Y6400D01*
G01X15072Y6400D02*
G01X15163Y6400D01*
G01X15027Y6422D02*
G01X15072Y6400D01*
G01X14981Y6468D02*
G01X15027Y6422D01*
G01X14959Y6513D02*
G01X14981Y6468D01*
G01X14731Y6809D02*
G01X14777Y6786D01*
G01X14663Y6877D02*
G01X14731Y6809D01*
G01X14663Y6877D02*
G01X14663Y6400D01*
G01X14436Y6809D02*
G01X14481Y6786D01*
G01X14368Y6877D02*
G01X14436Y6809D01*
G01X14368Y6877D02*
G01X14368Y6400D01*
G04 Draw part C12*
G04 draw part outline for part C12*
G01X-17666Y7211D02*
G01X-19635Y7211D01*
G01X-19635Y7211D02*
G01X-19635Y6188D01*
G01X-19635Y6188D02*
G01X-17666Y6188D01*
G01X-17666Y6188D02*
G01X-17666Y7211D01*
G04 draw reference designator for part C12*
G01X-20118Y6809D02*
G01X-20140Y6763D01*
G01X-20072Y6854D02*
G01X-20118Y6809D01*
G01X-20027Y6877D02*
G01X-20072Y6854D01*
G01X-19936Y6877D02*
G01X-20027Y6877D01*
G01X-19936Y6877D02*
G01X-19890Y6854D01*
G01X-19890Y6854D02*
G01X-19845Y6809D01*
G01X-19845Y6809D02*
G01X-19822Y6763D01*
G01X-19822Y6763D02*
G01X-19800Y6695D01*
G01X-19800Y6695D02*
G01X-19800Y6581D01*
G01X-19800Y6581D02*
G01X-19822Y6513D01*
G01X-19822Y6513D02*
G01X-19845Y6468D01*
G01X-19845Y6468D02*
G01X-19890Y6422D01*
G01X-19890Y6422D02*
G01X-19936Y6400D01*
G01X-20027Y6400D02*
G01X-19936Y6400D01*
G01X-20072Y6422D02*
G01X-20027Y6400D01*
G01X-20118Y6468D02*
G01X-20072Y6422D01*
G01X-20140Y6513D02*
G01X-20118Y6468D01*
G01X-20368Y6809D02*
G01X-20322Y6786D01*
G01X-20436Y6877D02*
G01X-20368Y6809D01*
G01X-20436Y6877D02*
G01X-20436Y6400D01*
G01X-20640Y6786D02*
G01X-20640Y6763D01*
G01X-20663Y6831D02*
G01X-20640Y6786D01*
G01X-20686Y6854D02*
G01X-20663Y6831D01*
G01X-20731Y6877D02*
G01X-20686Y6854D01*
G01X-20822Y6877D02*
G01X-20731Y6877D01*
G01X-20822Y6877D02*
G01X-20868Y6854D01*
G01X-20868Y6854D02*
G01X-20890Y6831D01*
G01X-20890Y6831D02*
G01X-20913Y6786D01*
G01X-20913Y6786D02*
G01X-20913Y6740D01*
G01X-20913Y6740D02*
G01X-20890Y6695D01*
G01X-20890Y6695D02*
G01X-20845Y6627D01*
G01X-20845Y6627D02*
G01X-20618Y6400D01*
G01X-20936Y6400D02*
G01X-20618Y6400D01*

G04 Draw traces*

G04 Draw Text*
G01X-21918Y-2722D02*
G01X-21850Y-2745D01*
G01X-21850Y-2745D02*
G01X-21804Y-2813D01*
G01X-21804Y-2813D02*
G01X-21781Y-2927D01*
G01X-21781Y-2927D02*
G01X-21781Y-2995D01*
G01X-21781Y-2995D02*
G01X-21804Y-3109D01*
G01X-21804Y-3109D02*
G01X-21850Y-3177D01*
G01X-21850Y-3177D02*
G01X-21918Y-3200D01*
G01X-21918Y-3200D02*
G01X-21963Y-3200D01*
G01X-21963Y-3200D02*
G01X-22031Y-3177D01*
G01X-22031Y-3177D02*
G01X-22077Y-3109D01*
G01X-22077Y-3109D02*
G01X-22100Y-2995D01*
G01X-22100Y-2995D02*
G01X-22100Y-2927D01*
G01X-22100Y-2927D02*
G01X-22077Y-2813D01*
G01X-22077Y-2813D02*
G01X-22031Y-2745D01*
G01X-22031Y-2745D02*
G01X-21963Y-2722D01*
G01X-21963Y-2722D02*
G01X-21918Y-2722D01*
G01X-21304Y-2836D02*
G01X-21304Y-2813D01*
G01X-21304Y-2813D02*
G01X-21327Y-2768D01*
G01X-21327Y-2768D02*
G01X-21350Y-2745D01*
G01X-21350Y-2745D02*
G01X-21395Y-2722D01*
G01X-21395Y-2722D02*
G01X-21486Y-2722D01*
G01X-21486Y-2722D02*
G01X-21531Y-2745D01*
G01X-21531Y-2745D02*
G01X-21554Y-2768D01*
G01X-21554Y-2768D02*
G01X-21577Y-2813D01*
G01X-21577Y-2813D02*
G01X-21577Y-2859D01*
G01X-21577Y-2859D02*
G01X-21554Y-2904D01*
G01X-21554Y-2904D02*
G01X-21509Y-2972D01*
G01X-21509Y-2972D02*
G01X-21281Y-3200D01*
G01X-21281Y-3200D02*
G01X-21600Y-3200D01*
G01X-16954Y-2722D02*
G01X-16727Y-2722D01*
G01X-16727Y-2722D02*
G01X-16704Y-2927D01*
G01X-16704Y-2927D02*
G01X-16727Y-2904D01*
G01X-16727Y-2904D02*
G01X-16795Y-2881D01*
G01X-16795Y-2881D02*
G01X-16863Y-2881D01*
G01X-16863Y-2881D02*
G01X-16931Y-2904D01*
G01X-16931Y-2904D02*
G01X-16977Y-2950D01*
G01X-16977Y-2950D02*
G01X-17000Y-3018D01*
G01X-17000Y-3018D02*
G01X-17000Y-3063D01*
G01X-17000Y-3063D02*
G01X-16977Y-3131D01*
G01X-16977Y-3131D02*
G01X-16931Y-3177D01*
G01X-16931Y-3177D02*
G01X-16863Y-3200D01*
G01X-16863Y-3200D02*
G01X-16795Y-3200D01*
G01X-16795Y-3200D02*
G01X-16727Y-3177D01*
G01X-16727Y-3177D02*
G01X-16704Y-3154D01*
G01X-16704Y-3154D02*
G01X-16681Y-3109D01*
G01X-16386Y-2813D02*
G01X-16431Y-2790D01*
G01X-16431Y-2790D02*
G01X-16500Y-2722D01*
G01X-16500Y-2722D02*
G01X-16500Y-3200D01*
G01X-11918Y-2722D02*
G01X-11850Y-2745D01*
G01X-11850Y-2745D02*
G01X-11804Y-2813D01*
G01X-11804Y-2813D02*
G01X-11781Y-2927D01*
G01X-11781Y-2927D02*
G01X-11781Y-2995D01*
G01X-11781Y-2995D02*
G01X-11804Y-3109D01*
G01X-11804Y-3109D02*
G01X-11850Y-3177D01*
G01X-11850Y-3177D02*
G01X-11918Y-3200D01*
G01X-11918Y-3200D02*
G01X-11963Y-3200D01*
G01X-11963Y-3200D02*
G01X-12031Y-3177D01*
G01X-12031Y-3177D02*
G01X-12077Y-3109D01*
G01X-12077Y-3109D02*
G01X-12100Y-2995D01*
G01X-12100Y-2995D02*
G01X-12100Y-2927D01*
G01X-12100Y-2927D02*
G01X-12077Y-2813D01*
G01X-12077Y-2813D02*
G01X-12031Y-2745D01*
G01X-12031Y-2745D02*
G01X-11963Y-2722D01*
G01X-11963Y-2722D02*
G01X-11918Y-2722D01*
G01X-11486Y-2813D02*
G01X-11531Y-2790D01*
G01X-11531Y-2790D02*
G01X-11600Y-2722D01*
G01X-11600Y-2722D02*
G01X-11600Y-3200D01*
G01X-6854Y-2722D02*
G01X-6627Y-2722D01*
G01X-6627Y-2722D02*
G01X-6604Y-2927D01*
G01X-6604Y-2927D02*
G01X-6627Y-2904D01*
G01X-6627Y-2904D02*
G01X-6695Y-2881D01*
G01X-6695Y-2881D02*
G01X-6763Y-2881D01*
G01X-6763Y-2881D02*
G01X-6831Y-2904D01*
G01X-6831Y-2904D02*
G01X-6877Y-2950D01*
G01X-6877Y-2950D02*
G01X-6900Y-3018D01*
G01X-6900Y-3018D02*
G01X-6900Y-3063D01*
G01X-6900Y-3063D02*
G01X-6877Y-3131D01*
G01X-6877Y-3131D02*
G01X-6831Y-3177D01*
G01X-6831Y-3177D02*
G01X-6763Y-3200D01*
G01X-6763Y-3200D02*
G01X-6695Y-3200D01*
G01X-6695Y-3200D02*
G01X-6627Y-3177D01*
G01X-6627Y-3177D02*
G01X-6604Y-3154D01*
G01X-6604Y-3154D02*
G01X-6581Y-3109D01*
G01X-2586Y-2813D02*
G01X-2631Y-2790D01*
G01X-2631Y-2790D02*
G01X-2700Y-2722D01*
G01X-2700Y-2722D02*
G01X-2700Y-3200D01*
G01X-2918Y-10222D02*
G01X-2850Y-10245D01*
G01X-2850Y-10245D02*
G01X-2804Y-10313D01*
G01X-2804Y-10313D02*
G01X-2781Y-10427D01*
G01X-2781Y-10427D02*
G01X-2781Y-10495D01*
G01X-2781Y-10495D02*
G01X-2804Y-10609D01*
G01X-2804Y-10609D02*
G01X-2850Y-10677D01*
G01X-2850Y-10677D02*
G01X-2918Y-10700D01*
G01X-2918Y-10700D02*
G01X-2963Y-10700D01*
G01X-2963Y-10700D02*
G01X-3031Y-10677D01*
G01X-3031Y-10677D02*
G01X-3077Y-10609D01*
G01X-3077Y-10609D02*
G01X-3100Y-10495D01*
G01X-3100Y-10495D02*
G01X-3100Y-10427D01*
G01X-3100Y-10427D02*
G01X-3077Y-10313D01*
G01X-3077Y-10313D02*
G01X-3031Y-10245D01*
G01X-3031Y-10245D02*
G01X-2963Y-10222D01*
G01X-2963Y-10222D02*
G01X-2918Y-10222D01*
G01X-2486Y-10222D02*
G01X-2259Y-10540D01*
G01X-2259Y-10540D02*
G01X-2600Y-10540D01*
G01X-2486Y-10222D02*
G01X-2486Y-10700D01*
G01X-8154Y-10222D02*
G01X-7927Y-10222D01*
G01X-7927Y-10222D02*
G01X-7904Y-10427D01*
G01X-7904Y-10427D02*
G01X-7927Y-10404D01*
G01X-7927Y-10404D02*
G01X-7995Y-10381D01*
G01X-7995Y-10381D02*
G01X-8063Y-10381D01*
G01X-8063Y-10381D02*
G01X-8131Y-10404D01*
G01X-8131Y-10404D02*
G01X-8177Y-10450D01*
G01X-8177Y-10450D02*
G01X-8200Y-10518D01*
G01X-8200Y-10518D02*
G01X-8200Y-10563D01*
G01X-8200Y-10563D02*
G01X-8177Y-10631D01*
G01X-8177Y-10631D02*
G01X-8131Y-10677D01*
G01X-8131Y-10677D02*
G01X-8063Y-10700D01*
G01X-8063Y-10700D02*
G01X-7995Y-10700D01*
G01X-7995Y-10700D02*
G01X-7927Y-10677D01*
G01X-7927Y-10677D02*
G01X-7904Y-10654D01*
G01X-7904Y-10654D02*
G01X-7881Y-10609D01*
G01X-7427Y-10222D02*
G01X-7677Y-10222D01*
G01X-7677Y-10222D02*
G01X-7540Y-10404D01*
G01X-7540Y-10404D02*
G01X-7609Y-10404D01*
G01X-7609Y-10404D02*
G01X-7654Y-10427D01*
G01X-7654Y-10427D02*
G01X-7677Y-10450D01*
G01X-7677Y-10450D02*
G01X-7700Y-10518D01*
G01X-7700Y-10518D02*
G01X-7700Y-10563D01*
G01X-7700Y-10563D02*
G01X-7677Y-10631D01*
G01X-7677Y-10631D02*
G01X-7631Y-10677D01*
G01X-7631Y-10677D02*
G01X-7563Y-10700D01*
G01X-7563Y-10700D02*
G01X-7495Y-10700D01*
G01X-7495Y-10700D02*
G01X-7427Y-10677D01*
G01X-7427Y-10677D02*
G01X-7404Y-10654D01*
G01X-7404Y-10654D02*
G01X-7381Y-10609D01*
G01X-13018Y-10222D02*
G01X-12950Y-10245D01*
G01X-12950Y-10245D02*
G01X-12904Y-10313D01*
G01X-12904Y-10313D02*
G01X-12881Y-10427D01*
G01X-12881Y-10427D02*
G01X-12881Y-10495D01*
G01X-12881Y-10495D02*
G01X-12904Y-10609D01*
G01X-12904Y-10609D02*
G01X-12950Y-10677D01*
G01X-12950Y-10677D02*
G01X-13018Y-10700D01*
G01X-13018Y-10700D02*
G01X-13063Y-10700D01*
G01X-13063Y-10700D02*
G01X-13131Y-10677D01*
G01X-13131Y-10677D02*
G01X-13177Y-10609D01*
G01X-13177Y-10609D02*
G01X-13200Y-10495D01*
G01X-13200Y-10495D02*
G01X-13200Y-10427D01*
G01X-13200Y-10427D02*
G01X-13177Y-10313D01*
G01X-13177Y-10313D02*
G01X-13131Y-10245D01*
G01X-13131Y-10245D02*
G01X-13063Y-10222D01*
G01X-13063Y-10222D02*
G01X-13018Y-10222D01*
G01X-12427Y-10222D02*
G01X-12677Y-10222D01*
G01X-12677Y-10222D02*
G01X-12540Y-10404D01*
G01X-12540Y-10404D02*
G01X-12609Y-10404D01*
G01X-12609Y-10404D02*
G01X-12654Y-10427D01*
G01X-12654Y-10427D02*
G01X-12677Y-10450D01*
G01X-12677Y-10450D02*
G01X-12700Y-10518D01*
G01X-12700Y-10518D02*
G01X-12700Y-10563D01*
G01X-12700Y-10563D02*
G01X-12677Y-10631D01*
G01X-12677Y-10631D02*
G01X-12631Y-10677D01*
G01X-12631Y-10677D02*
G01X-12563Y-10700D01*
G01X-12563Y-10700D02*
G01X-12495Y-10700D01*
G01X-12495Y-10700D02*
G01X-12427Y-10677D01*
G01X-12427Y-10677D02*
G01X-12404Y-10654D01*
G01X-12404Y-10654D02*
G01X-12381Y-10609D01*
G01X-18154Y-10122D02*
G01X-17927Y-10122D01*
G01X-17927Y-10122D02*
G01X-17904Y-10327D01*
G01X-17904Y-10327D02*
G01X-17927Y-10304D01*
G01X-17927Y-10304D02*
G01X-17995Y-10281D01*
G01X-17995Y-10281D02*
G01X-18063Y-10281D01*
G01X-18063Y-10281D02*
G01X-18131Y-10304D01*
G01X-18131Y-10304D02*
G01X-18177Y-10350D01*
G01X-18177Y-10350D02*
G01X-18200Y-10418D01*
G01X-18200Y-10418D02*
G01X-18200Y-10463D01*
G01X-18200Y-10463D02*
G01X-18177Y-10531D01*
G01X-18177Y-10531D02*
G01X-18131Y-10577D01*
G01X-18131Y-10577D02*
G01X-18063Y-10600D01*
G01X-18063Y-10600D02*
G01X-17995Y-10600D01*
G01X-17995Y-10600D02*
G01X-17927Y-10577D01*
G01X-17927Y-10577D02*
G01X-17904Y-10554D01*
G01X-17904Y-10554D02*
G01X-17881Y-10509D01*
G01X-17404Y-10236D02*
G01X-17404Y-10213D01*
G01X-17404Y-10213D02*
G01X-17427Y-10168D01*
G01X-17427Y-10168D02*
G01X-17450Y-10145D01*
G01X-17450Y-10145D02*
G01X-17495Y-10122D01*
G01X-17495Y-10122D02*
G01X-17586Y-10122D01*
G01X-17586Y-10122D02*
G01X-17631Y-10145D01*
G01X-17631Y-10145D02*
G01X-17654Y-10168D01*
G01X-17654Y-10168D02*
G01X-17677Y-10213D01*
G01X-17677Y-10213D02*
G01X-17677Y-10259D01*
G01X-17677Y-10259D02*
G01X-17654Y-10304D01*
G01X-17654Y-10304D02*
G01X-17609Y-10372D01*
G01X-17609Y-10372D02*
G01X-17381Y-10600D01*
G01X-17381Y-10600D02*
G01X-17700Y-10600D01*
G01X-21986Y-10313D02*
G01X-22031Y-10290D01*
G01X-22031Y-10290D02*
G01X-22100Y-10222D01*
G01X-22100Y-10222D02*
G01X-22100Y-10700D01*
G01X-21509Y-10336D02*
G01X-21509Y-10313D01*
G01X-21509Y-10313D02*
G01X-21531Y-10268D01*
G01X-21531Y-10268D02*
G01X-21554Y-10245D01*
G01X-21554Y-10245D02*
G01X-21600Y-10222D01*
G01X-21600Y-10222D02*
G01X-21690Y-10222D01*
G01X-21690Y-10222D02*
G01X-21736Y-10245D01*
G01X-21736Y-10245D02*
G01X-21759Y-10268D01*
G01X-21759Y-10268D02*
G01X-21781Y-10313D01*
G01X-21781Y-10313D02*
G01X-21781Y-10359D01*
G01X-21781Y-10359D02*
G01X-21759Y-10404D01*
G01X-21759Y-10404D02*
G01X-21713Y-10472D01*
G01X-21713Y-10472D02*
G01X-21486Y-10700D01*
G01X-21486Y-10700D02*
G01X-21804Y-10700D01*
G54D11*
G01X-11809Y9227D02*
G01X-11809Y9272D01*
G01X-11809Y9272D02*
G01X-11854Y9363D01*
G01X-11854Y9363D02*
G01X-11900Y9409D01*
G01X-11900Y9409D02*
G01X-11990Y9454D01*
G01X-11990Y9454D02*
G01X-12172Y9454D01*
G01X-12172Y9454D02*
G01X-12263Y9409D01*
G01X-12263Y9409D02*
G01X-12309Y9363D01*
G01X-12309Y9363D02*
G01X-12354Y9272D01*
G01X-12354Y9272D02*
G01X-12354Y9181D01*
G01X-12354Y9181D02*
G01X-12309Y9090D01*
G01X-12309Y9090D02*
G01X-12218Y8954D01*
G01X-12218Y8954D02*
G01X-11763Y8500D01*
G01X-11763Y8500D02*
G01X-12400Y8500D01*
G01X-10763Y9454D02*
G01X-10763Y8500D01*
G01X-10763Y9454D02*
G01X-11081Y9454D01*
G01X-11081Y9454D02*
G01X-11218Y9409D01*
G01X-11218Y9409D02*
G01X-11309Y9318D01*
G01X-11309Y9318D02*
G01X-11354Y9227D01*
G01X-11354Y9227D02*
G01X-11400Y9090D01*
G01X-11400Y9090D02*
G01X-11400Y8863D01*
G01X-11400Y8863D02*
G01X-11354Y8727D01*
G01X-11354Y8727D02*
G01X-11309Y8636D01*
G01X-11309Y8636D02*
G01X-11218Y8545D01*
G01X-11218Y8545D02*
G01X-11081Y8500D01*
G01X-11081Y8500D02*
G01X-10763Y8500D01*
G01X-10036Y9454D02*
G01X-9672Y8500D01*
G01X-10036Y9454D02*
G01X-10400Y8500D01*
G01X-9809Y8818D02*
G01X-10263Y8818D01*
G01X-8672Y9454D02*
G01X-8672Y8500D01*
G01X-8672Y9454D02*
G01X-9081Y9454D01*
G01X-9081Y9454D02*
G01X-9218Y9409D01*
G01X-9218Y9409D02*
G01X-9263Y9363D01*
G01X-9263Y9363D02*
G01X-9309Y9272D01*
G01X-9309Y9272D02*
G01X-9309Y9136D01*
G01X-9309Y9136D02*
G01X-9263Y9045D01*
G01X-9263Y9045D02*
G01X-9218Y9000D01*
G01X-9218Y9000D02*
G01X-9081Y8954D01*
G01X-9081Y8954D02*
G01X-8672Y8954D01*
G01X8527Y9172D02*
G01X8436Y9218D01*
G01X8436Y9218D02*
G01X8300Y9354D01*
G01X8300Y9354D02*
G01X8300Y8400D01*
G01X9527Y9354D02*
G01X9527Y8400D01*
G01X9527Y9354D02*
G01X9209Y9354D01*
G01X9209Y9354D02*
G01X9072Y9309D01*
G01X9072Y9309D02*
G01X8981Y9218D01*
G01X8981Y9218D02*
G01X8936Y9127D01*
G01X8936Y9127D02*
G01X8890Y8990D01*
G01X8890Y8990D02*
G01X8890Y8763D01*
G01X8890Y8763D02*
G01X8936Y8627D01*
G01X8936Y8627D02*
G01X8981Y8536D01*
G01X8981Y8536D02*
G01X9072Y8445D01*
G01X9072Y8445D02*
G01X9209Y8400D01*
G01X9209Y8400D02*
G01X9527Y8400D01*
G01X10254Y9354D02*
G01X10618Y8400D01*
G01X10254Y9354D02*
G01X9890Y8400D01*
G01X10481Y8718D02*
G01X10027Y8718D01*
G01X11618Y9354D02*
G01X11618Y8400D01*
G01X11618Y9354D02*
G01X11209Y9354D01*
G01X11209Y9354D02*
G01X11072Y9309D01*
G01X11072Y9309D02*
G01X11027Y9263D01*
G01X11027Y9263D02*
G01X10981Y9172D01*
G01X10981Y9172D02*
G01X10981Y9036D01*
G01X10981Y9036D02*
G01X11027Y8945D01*
G01X11027Y8945D02*
G01X11072Y8900D01*
G01X11072Y8900D02*
G01X11209Y8854D01*
G01X11209Y8854D02*
G01X11618Y8854D01*
M00*
M02*
