;Holesize 1 =   28.0 PLATED MILS
;Holesize 2 =   29.0 PLATED MILS
;Holesize 3 =   35.0 PLATED MILS
;Holesize 4 =   55.0 PLATED MILS
;Holesize 5 =   10.0 PLATED MILS
;Holesize 6 =  100.0 PLATED MILS
;Holesize 7 =   20.0 PLATED MILS
;Holesize 8 =   30.0 PLATED MILS
;Holesize 9 =   92.0 PLATED MILS
;Holesize 10 =   83.0 PLATED MILS
;Holesize 11 =   40.0 PLATED MILS
;Holesize 12 =   14.0 PLATED MILS
M48
INCH,00.0000
T01C0.028
T02C0.029
T03C0.035
T04C0.055
T05C0.010
T06C0.100
T07C0.020
T08C0.030
T09C0.092
T10C0.083
T11C0.040
T12C0.014
%
G05
G90
T01
X-002750Y-003750
X-003750Y-003750
X-004750Y-003750
X-005750Y-003750
X-006750Y-003750
X-007750Y-003750
X-008750Y-003750
X-009750Y-003750
X-010750Y-003750
X-011750Y-003750
X-012750Y-003750
X-013750Y-003750
X-014750Y-003750
X-015750Y-003750
X-016750Y-003750
X-017750Y-003750
X-018750Y-003750
X-019750Y-003750
X-020750Y-003750
X-021750Y-003750
X-021750Y-009750
X-020750Y-009750
X-019750Y-009750
X-018750Y-009750
X-017750Y-009750
X-016750Y-009750
X-015750Y-009750
X-014750Y-009750
X-013750Y-009750
X-012750Y-009750
X-011750Y-009750
X-010750Y-009750
X-009750Y-009750
X-008750Y-009750
X-007750Y-009750
X-006750Y-009750
X-005750Y-009750
X-004750Y-009750
X-003750Y-009750
X-002750Y-009750
X-000500Y-006750
X000500Y-006750
X001500Y-006750
X002500Y-006750
X003500Y-006750
X004500Y-006750
X005500Y-006750
X006500Y-006750
X006500Y-003750
X005500Y-003750
X004500Y-003750
X003500Y-003750
X002500Y-003750
X001500Y-003750
X000500Y-003750
X-000500Y-003750
T02
X021500Y-002000
X020720Y-002000
X019930Y-002000
X019137Y-002000
X018350Y-002000
X017562Y-002000
X016775Y-002000
X015988Y-002000
X015200Y-002000
X014413Y-002000
X014413Y-010661
X015200Y-010661
X015988Y-010661
X016775Y-010661
X017562Y-010661
X018350Y-010661
X019137Y-010661
X019925Y-010661
X020712Y-010661
X021500Y-010660
T03
X-017850Y-011773
X-016350Y-011773
X016900Y-009450
X016900Y-003550
T04
X-008250Y012250
X-006250Y012250
X008250Y012250
X010250Y012250
X023500Y008000
X023500Y006000
X023500Y001500
X023500Y-000500
X-023500Y008000
X-023500Y006000
X-023500Y001500
X-023500Y-000500
T05
X-007250Y012250
X009250Y012250
X023500Y007000
X023500Y000500
X-023500Y007000
X-023500Y000500
T06
X-002820Y012250
X-000820Y012250
X000820Y012250
X002820Y012250
T07
X-001820Y012250
X001820Y012250
T08
X010500Y006700
X010500Y005700
X010500Y004700
X-010500Y006700
X-010500Y005700
X-010500Y004700
T09
X005500Y007740
X005500Y000690
X005500Y003840
X008820Y004000
X002180Y004000
X015700Y001260
X015700Y008310
X015700Y005160
X012380Y005000
X019020Y005000
X-005500Y007740
X-005500Y000690
X-005500Y003840
X-002180Y004000
X-008820Y004000
X-015700Y001260
X-015700Y008310
X-015700Y005160
X-019020Y005000
X-012380Y005000
T10
X008060Y006950
X002940Y001440
X013140Y002050
X018260Y007560
X-002940Y006950
X-008060Y001440
X-018260Y002050
X-013140Y007560
T11
X017600Y-012200
X018600Y-012200
X019600Y-012200
T12
X002150Y-003150
X007650Y-011050
X-001150Y-003150
X001950Y-012750
X-020146Y001260
X-012800Y-008000
X-011750Y-005500
X021500Y-000450
X-012400Y-012984
X-002100Y-012550
X-002100Y-013000
X-005500Y-013000
X-015750Y-012250
X-005750Y-006250
X002500Y-007800
X-006750Y-007800
X-008750Y-007200
X011054Y-000850
X-003750Y-000850
X-007750Y-002700
X-011083Y-002700
X-017600Y-013150
X001500Y-007500
X-007750Y-007500
X007600Y-002450
X-004750Y-002450
X-011800Y-007500
X006150Y-010000
X-009000Y-001800
X007150Y-001850
X006150Y-010000
X006150Y-010000
X-009000Y-001150
X-009000Y-001150
X007600Y-004200
X-009700Y-006750
X-006250Y-003100
X-002750Y000900
X-006750Y-002300
X-010500Y-002300
X-001700Y-009950
X-012100Y-012550
X-001700Y-009950
X-015750Y-005100
X007900Y-005100
X001500Y002700
X-000500Y-000300
X011550Y-001150
X-003250Y-001150
X007600Y-004800
X007900Y-004500
X-016300Y-008750
X-016300Y-004500
X-018250Y-005950
X-003750Y-005950
M30
