G04 FreePCB version 1.359*
G04 C:\Users\waynej\Documents\GitHub\mlaunch\pad30\CAM\top_silk.grb*
G04 top silk layer *
G04 Scale: 100 percent, Rotated: No, Reflected: No *
%FSLAX24Y24*%
%MOIN*%
%LN top silk *%
G04 Rounded Rectangle Macro, params: W/2, H/2, R *
%AMRNDREC*
21,1,$1+$1,$2+$2-$3-$3,0,0,0*
21,1,$1+$1-$3-$3,$2+$2,0,0,0*
1,1,$3+$3,$1-$3,$2-$3*
1,1,$3+$3,$3-$1,$2-$3*
1,1,$3+$3,$1-$3,$3-$2*
1,1,$3+$3,$3-$1,$3-$2*%
G04 Rectangular Thermal Macro, params: W/2, H/2, T/2 *
%AMRECTHERM*
$4=$3/2*
21,1,$1-$3,$2-$3,0-$1/2-$4,0-$2/2-$4,0*
21,1,$1-$3,$2-$3,0-$1/2-$4,$2/2+$4,0*
21,1,$1-$3,$2-$3,$1/2+$4,0-$2/2-$4,0*
21,1,$1-$3,$2-$3,$1/2+$4,$2/2+$4,0*%
%ADD10C,0.008000*%
%ADD11C,0.010000*%
G90*
G70D02*

G04 Step and Repeat for panelization *

G04 ----------------------- Draw board outline (positive)*
%LPD*%
G54D10*
G01X-22050Y12500D02*
G01X-22050Y12460D01*
G01X-22051Y12421D01*
G01X-22053Y12382D01*
G01X-22055Y12343D01*
G01X-22058Y12303D01*
G01X-22062Y12264D01*
G01X-22067Y12225D01*
G01X-22072Y12186D01*
G01X-22078Y12148D01*
G01X-22084Y12109D01*
G01X-22092Y12070D01*
G01X-22100Y12032D01*
G01X-22108Y11994D01*
G01X-22118Y11955D01*
G01X-22128Y11917D01*
G01X-22139Y11880D01*
G01X-22150Y11842D01*
G01X-22162Y11805D01*
G01X-22175Y11768D01*
G01X-22188Y11731D01*
G01X-22202Y11694D01*
G01X-22217Y11658D01*
G01X-22232Y11621D01*
G01X-22248Y11586D01*
G01X-22265Y11550D01*
G01X-22282Y11515D01*
G01X-22300Y11480D01*
G01X-22319Y11445D01*
G01X-22338Y11411D01*
G01X-22357Y11377D01*
G01X-22378Y11343D01*
G01X-22399Y11310D01*
G01X-22420Y11277D01*
G01X-22442Y11245D01*
G01X-22465Y11213D01*
G01X-22488Y11181D01*
G01X-22512Y11150D01*
G01X-22536Y11119D01*
G01X-22561Y11089D01*
G01X-22587Y11059D01*
G01X-22613Y11029D01*
G01X-22639Y11000D01*
G01X-22666Y10972D01*
G01X-22694Y10944D01*
G01X-22722Y10916D01*
G01X-22750Y10889D01*
G01X-22779Y10863D01*
G01X-22809Y10837D01*
G01X-22839Y10811D01*
G01X-22869Y10786D01*
G01X-22900Y10762D01*
G01X-22931Y10738D01*
G01X-22963Y10715D01*
G01X-22995Y10692D01*
G01X-23027Y10670D01*
G01X-23060Y10649D01*
G01X-23093Y10628D01*
G01X-23127Y10607D01*
G01X-23161Y10588D01*
G01X-23195Y10569D01*
G01X-23230Y10550D01*
G01X-23265Y10532D01*
G01X-23300Y10515D01*
G01X-23336Y10498D01*
G01X-23371Y10482D01*
G01X-23408Y10467D01*
G01X-23444Y10452D01*
G01X-23481Y10438D01*
G01X-23518Y10425D01*
G01X-23555Y10412D01*
G01X-23592Y10400D01*
G01X-23630Y10389D01*
G01X-23667Y10378D01*
G01X-23705Y10368D01*
G01X-23744Y10358D01*
G01X-23782Y10350D01*
G01X-23820Y10342D01*
G01X-23859Y10334D01*
G01X-23898Y10328D01*
G01X-23936Y10322D01*
G01X-23975Y10317D01*
G01X-24014Y10312D01*
G01X-24053Y10308D01*
G01X-24093Y10305D01*
G01X-24132Y10303D01*
G01X-24171Y10301D01*
G01X-24210Y10300D01*
G01X-24250Y10300D01*
G04 end of side 1*
G01X-25000Y10300D01*
G04 end of side 2*
G01X-25000Y-10300D01*
G04 end of side 3*
G01X-24250Y-10300D01*
G04 end of side 4*
G01X-24210Y-10300D01*
G01X-24171Y-10301D01*
G01X-24132Y-10303D01*
G01X-24093Y-10305D01*
G01X-24053Y-10308D01*
G01X-24014Y-10312D01*
G01X-23975Y-10317D01*
G01X-23936Y-10322D01*
G01X-23898Y-10328D01*
G01X-23859Y-10334D01*
G01X-23820Y-10342D01*
G01X-23782Y-10350D01*
G01X-23744Y-10358D01*
G01X-23705Y-10368D01*
G01X-23667Y-10378D01*
G01X-23630Y-10389D01*
G01X-23592Y-10400D01*
G01X-23555Y-10412D01*
G01X-23518Y-10425D01*
G01X-23481Y-10438D01*
G01X-23444Y-10452D01*
G01X-23408Y-10467D01*
G01X-23371Y-10482D01*
G01X-23336Y-10498D01*
G01X-23300Y-10515D01*
G01X-23265Y-10532D01*
G01X-23230Y-10550D01*
G01X-23195Y-10569D01*
G01X-23161Y-10588D01*
G01X-23127Y-10607D01*
G01X-23093Y-10628D01*
G01X-23060Y-10649D01*
G01X-23027Y-10670D01*
G01X-22995Y-10692D01*
G01X-22963Y-10715D01*
G01X-22931Y-10738D01*
G01X-22900Y-10762D01*
G01X-22869Y-10786D01*
G01X-22839Y-10811D01*
G01X-22809Y-10837D01*
G01X-22779Y-10863D01*
G01X-22750Y-10889D01*
G01X-22722Y-10916D01*
G01X-22694Y-10944D01*
G01X-22666Y-10972D01*
G01X-22639Y-11000D01*
G01X-22613Y-11029D01*
G01X-22587Y-11059D01*
G01X-22561Y-11089D01*
G01X-22536Y-11119D01*
G01X-22512Y-11150D01*
G01X-22488Y-11181D01*
G01X-22465Y-11213D01*
G01X-22442Y-11245D01*
G01X-22420Y-11277D01*
G01X-22399Y-11310D01*
G01X-22378Y-11343D01*
G01X-22357Y-11377D01*
G01X-22338Y-11411D01*
G01X-22319Y-11445D01*
G01X-22300Y-11480D01*
G01X-22282Y-11515D01*
G01X-22265Y-11550D01*
G01X-22248Y-11586D01*
G01X-22232Y-11621D01*
G01X-22217Y-11658D01*
G01X-22202Y-11694D01*
G01X-22188Y-11731D01*
G01X-22175Y-11768D01*
G01X-22162Y-11805D01*
G01X-22150Y-11842D01*
G01X-22139Y-11880D01*
G01X-22128Y-11917D01*
G01X-22118Y-11955D01*
G01X-22108Y-11994D01*
G01X-22100Y-12032D01*
G01X-22092Y-12070D01*
G01X-22084Y-12109D01*
G01X-22078Y-12148D01*
G01X-22072Y-12186D01*
G01X-22067Y-12225D01*
G01X-22062Y-12264D01*
G01X-22058Y-12303D01*
G01X-22055Y-12343D01*
G01X-22053Y-12382D01*
G01X-22051Y-12421D01*
G01X-22050Y-12460D01*
G01X-22050Y-12500D01*
G04 end of side 5*
G01X-22050Y-13750D01*
G04 end of side 6*
G01X-14500Y-13750D01*
G04 end of side 7*
G01X-14500Y-12500D01*
G04 end of side 8*
G01X-14498Y-12460D01*
G01X-14495Y-12421D01*
G01X-14490Y-12382D01*
G01X-14483Y-12344D01*
G01X-14474Y-12305D01*
G01X-14463Y-12268D01*
G01X-14450Y-12231D01*
G01X-14435Y-12194D01*
G01X-14418Y-12159D01*
G01X-14399Y-12125D01*
G01X-14379Y-12091D01*
G01X-14356Y-12059D01*
G01X-14332Y-12028D01*
G01X-14307Y-11998D01*
G01X-14280Y-11969D01*
G01X-14251Y-11942D01*
G01X-14221Y-11917D01*
G01X-14190Y-11893D01*
G01X-14158Y-11870D01*
G01X-14125Y-11850D01*
G01X-14090Y-11831D01*
G01X-14055Y-11814D01*
G01X-14018Y-11799D01*
G01X-13981Y-11786D01*
G01X-13944Y-11775D01*
G01X-13905Y-11766D01*
G01X-13867Y-11759D01*
G01X-13828Y-11754D01*
G01X-13789Y-11751D01*
G01X-13750Y-11750D01*
G04 end of side 9*
G01X-13710Y-11751D01*
G01X-13671Y-11754D01*
G01X-13632Y-11759D01*
G01X-13594Y-11766D01*
G01X-13555Y-11775D01*
G01X-13518Y-11786D01*
G01X-13481Y-11799D01*
G01X-13444Y-11814D01*
G01X-13409Y-11831D01*
G01X-13375Y-11850D01*
G01X-13341Y-11870D01*
G01X-13309Y-11893D01*
G01X-13278Y-11917D01*
G01X-13248Y-11942D01*
G01X-13219Y-11969D01*
G01X-13192Y-11998D01*
G01X-13167Y-12028D01*
G01X-13143Y-12059D01*
G01X-13120Y-12091D01*
G01X-13100Y-12124D01*
G01X-13081Y-12159D01*
G01X-13064Y-12194D01*
G01X-13049Y-12231D01*
G01X-13036Y-12268D01*
G01X-13025Y-12305D01*
G01X-13016Y-12344D01*
G01X-13009Y-12382D01*
G01X-13004Y-12421D01*
G01X-13001Y-12460D01*
G01X-13000Y-12500D01*
G04 end of side 10*
G01X-13000Y-13750D01*
G04 end of side 11*
G01X13000Y-13750D01*
G04 end of side 12*
G01X13000Y-12500D01*
G04 end of side 13*
G01X13001Y-12460D01*
G01X13004Y-12421D01*
G01X13009Y-12382D01*
G01X13016Y-12344D01*
G01X13025Y-12305D01*
G01X13036Y-12268D01*
G01X13049Y-12231D01*
G01X13064Y-12194D01*
G01X13081Y-12159D01*
G01X13100Y-12125D01*
G01X13120Y-12091D01*
G01X13143Y-12059D01*
G01X13167Y-12028D01*
G01X13192Y-11998D01*
G01X13219Y-11969D01*
G01X13248Y-11942D01*
G01X13278Y-11917D01*
G01X13309Y-11893D01*
G01X13341Y-11870D01*
G01X13374Y-11850D01*
G01X13409Y-11831D01*
G01X13444Y-11814D01*
G01X13481Y-11799D01*
G01X13518Y-11786D01*
G01X13555Y-11775D01*
G01X13594Y-11766D01*
G01X13632Y-11759D01*
G01X13671Y-11754D01*
G01X13710Y-11751D01*
G01X13750Y-11750D01*
G04 end of side 14*
G01X13789Y-11751D01*
G01X13828Y-11754D01*
G01X13867Y-11759D01*
G01X13905Y-11766D01*
G01X13944Y-11775D01*
G01X13981Y-11786D01*
G01X14018Y-11799D01*
G01X14055Y-11814D01*
G01X14090Y-11831D01*
G01X14124Y-11850D01*
G01X14158Y-11870D01*
G01X14190Y-11893D01*
G01X14221Y-11917D01*
G01X14251Y-11942D01*
G01X14280Y-11969D01*
G01X14307Y-11998D01*
G01X14332Y-12028D01*
G01X14356Y-12059D01*
G01X14379Y-12091D01*
G01X14399Y-12124D01*
G01X14418Y-12159D01*
G01X14435Y-12194D01*
G01X14450Y-12231D01*
G01X14463Y-12268D01*
G01X14474Y-12305D01*
G01X14483Y-12344D01*
G01X14490Y-12382D01*
G01X14495Y-12421D01*
G01X14498Y-12460D01*
G01X14500Y-12500D01*
G04 end of side 15*
G01X14500Y-13750D01*
G04 end of side 16*
G01X22050Y-13750D01*
G04 end of side 17*
G01X22050Y-12500D01*
G04 end of side 18*
G01X22050Y-12460D01*
G01X22051Y-12421D01*
G01X22053Y-12382D01*
G01X22055Y-12343D01*
G01X22058Y-12303D01*
G01X22062Y-12264D01*
G01X22067Y-12225D01*
G01X22072Y-12186D01*
G01X22078Y-12148D01*
G01X22084Y-12109D01*
G01X22092Y-12070D01*
G01X22100Y-12032D01*
G01X22108Y-11994D01*
G01X22118Y-11955D01*
G01X22128Y-11917D01*
G01X22139Y-11880D01*
G01X22150Y-11842D01*
G01X22162Y-11805D01*
G01X22175Y-11768D01*
G01X22188Y-11731D01*
G01X22202Y-11694D01*
G01X22217Y-11658D01*
G01X22232Y-11621D01*
G01X22248Y-11586D01*
G01X22265Y-11550D01*
G01X22282Y-11515D01*
G01X22300Y-11480D01*
G01X22319Y-11445D01*
G01X22338Y-11411D01*
G01X22357Y-11377D01*
G01X22378Y-11343D01*
G01X22399Y-11310D01*
G01X22420Y-11277D01*
G01X22442Y-11245D01*
G01X22465Y-11213D01*
G01X22488Y-11181D01*
G01X22512Y-11150D01*
G01X22536Y-11119D01*
G01X22561Y-11089D01*
G01X22587Y-11059D01*
G01X22613Y-11029D01*
G01X22639Y-11000D01*
G01X22666Y-10972D01*
G01X22694Y-10944D01*
G01X22722Y-10916D01*
G01X22750Y-10889D01*
G01X22779Y-10863D01*
G01X22809Y-10837D01*
G01X22839Y-10811D01*
G01X22869Y-10786D01*
G01X22900Y-10762D01*
G01X22931Y-10738D01*
G01X22963Y-10715D01*
G01X22995Y-10692D01*
G01X23027Y-10670D01*
G01X23060Y-10649D01*
G01X23093Y-10628D01*
G01X23127Y-10607D01*
G01X23161Y-10588D01*
G01X23195Y-10569D01*
G01X23230Y-10550D01*
G01X23265Y-10532D01*
G01X23300Y-10515D01*
G01X23336Y-10498D01*
G01X23371Y-10482D01*
G01X23408Y-10467D01*
G01X23444Y-10452D01*
G01X23481Y-10438D01*
G01X23518Y-10425D01*
G01X23555Y-10412D01*
G01X23592Y-10400D01*
G01X23630Y-10389D01*
G01X23667Y-10378D01*
G01X23705Y-10368D01*
G01X23744Y-10358D01*
G01X23782Y-10350D01*
G01X23820Y-10342D01*
G01X23859Y-10334D01*
G01X23898Y-10328D01*
G01X23936Y-10322D01*
G01X23975Y-10317D01*
G01X24014Y-10312D01*
G01X24053Y-10308D01*
G01X24093Y-10305D01*
G01X24132Y-10303D01*
G01X24171Y-10301D01*
G01X24210Y-10300D01*
G01X24250Y-10300D01*
G04 end of side 19*
G01X25000Y-10300D01*
G04 end of side 20*
G01X25000Y10300D01*
G04 end of side 21*
G01X24250Y10300D01*
G04 end of side 22*
G01X24210Y10300D01*
G01X24171Y10301D01*
G01X24132Y10303D01*
G01X24093Y10305D01*
G01X24053Y10308D01*
G01X24014Y10312D01*
G01X23975Y10317D01*
G01X23936Y10322D01*
G01X23898Y10328D01*
G01X23859Y10334D01*
G01X23820Y10342D01*
G01X23782Y10350D01*
G01X23744Y10358D01*
G01X23705Y10368D01*
G01X23667Y10378D01*
G01X23630Y10389D01*
G01X23592Y10400D01*
G01X23555Y10412D01*
G01X23518Y10425D01*
G01X23481Y10438D01*
G01X23444Y10452D01*
G01X23408Y10467D01*
G01X23371Y10482D01*
G01X23336Y10498D01*
G01X23300Y10515D01*
G01X23265Y10532D01*
G01X23230Y10550D01*
G01X23195Y10569D01*
G01X23161Y10588D01*
G01X23127Y10607D01*
G01X23093Y10628D01*
G01X23060Y10649D01*
G01X23027Y10670D01*
G01X22995Y10692D01*
G01X22963Y10715D01*
G01X22931Y10738D01*
G01X22900Y10762D01*
G01X22869Y10786D01*
G01X22839Y10811D01*
G01X22809Y10837D01*
G01X22779Y10863D01*
G01X22750Y10889D01*
G01X22722Y10916D01*
G01X22694Y10944D01*
G01X22666Y10972D01*
G01X22639Y11000D01*
G01X22613Y11029D01*
G01X22587Y11059D01*
G01X22561Y11089D01*
G01X22536Y11119D01*
G01X22512Y11150D01*
G01X22488Y11181D01*
G01X22465Y11213D01*
G01X22442Y11245D01*
G01X22420Y11277D01*
G01X22399Y11310D01*
G01X22378Y11343D01*
G01X22357Y11377D01*
G01X22338Y11411D01*
G01X22319Y11445D01*
G01X22300Y11480D01*
G01X22282Y11515D01*
G01X22265Y11550D01*
G01X22248Y11586D01*
G01X22232Y11621D01*
G01X22217Y11658D01*
G01X22202Y11694D01*
G01X22188Y11731D01*
G01X22175Y11768D01*
G01X22162Y11805D01*
G01X22150Y11842D01*
G01X22139Y11880D01*
G01X22128Y11917D01*
G01X22118Y11955D01*
G01X22108Y11994D01*
G01X22100Y12032D01*
G01X22092Y12070D01*
G01X22084Y12109D01*
G01X22078Y12148D01*
G01X22072Y12186D01*
G01X22067Y12225D01*
G01X22062Y12264D01*
G01X22058Y12303D01*
G01X22055Y12343D01*
G01X22053Y12382D01*
G01X22051Y12421D01*
G01X22050Y12460D01*
G01X22050Y12500D01*
G04 end of side 23*
G01X22050Y13750D01*
G04 end of side 24*
G01X14500Y13750D01*
G04 end of side 25*
G01X14500Y12500D01*
G04 end of side 26*
G01X14498Y12460D01*
G01X14495Y12421D01*
G01X14490Y12382D01*
G01X14483Y12344D01*
G01X14474Y12305D01*
G01X14463Y12268D01*
G01X14450Y12231D01*
G01X14435Y12194D01*
G01X14418Y12159D01*
G01X14399Y12125D01*
G01X14379Y12091D01*
G01X14356Y12059D01*
G01X14332Y12028D01*
G01X14307Y11998D01*
G01X14280Y11969D01*
G01X14251Y11942D01*
G01X14221Y11917D01*
G01X14190Y11893D01*
G01X14158Y11870D01*
G01X14125Y11850D01*
G01X14090Y11831D01*
G01X14055Y11814D01*
G01X14018Y11799D01*
G01X13981Y11786D01*
G01X13944Y11775D01*
G01X13905Y11766D01*
G01X13867Y11759D01*
G01X13828Y11754D01*
G01X13789Y11751D01*
G01X13750Y11750D01*
G04 end of side 27*
G01X13710Y11751D01*
G01X13671Y11754D01*
G01X13632Y11759D01*
G01X13594Y11766D01*
G01X13555Y11775D01*
G01X13518Y11786D01*
G01X13481Y11799D01*
G01X13444Y11814D01*
G01X13409Y11831D01*
G01X13375Y11850D01*
G01X13341Y11870D01*
G01X13309Y11893D01*
G01X13278Y11917D01*
G01X13248Y11942D01*
G01X13219Y11969D01*
G01X13192Y11998D01*
G01X13167Y12028D01*
G01X13143Y12059D01*
G01X13120Y12091D01*
G01X13100Y12124D01*
G01X13081Y12159D01*
G01X13064Y12194D01*
G01X13049Y12231D01*
G01X13036Y12268D01*
G01X13025Y12305D01*
G01X13016Y12344D01*
G01X13009Y12382D01*
G01X13004Y12421D01*
G01X13001Y12460D01*
G01X13000Y12500D01*
G04 end of side 28*
G01X13000Y13750D01*
G04 end of side 29*
G01X-13000Y13750D01*
G04 end of side 30*
G01X-13000Y12500D01*
G04 end of side 31*
G01X-13001Y12460D01*
G01X-13004Y12421D01*
G01X-13009Y12382D01*
G01X-13016Y12344D01*
G01X-13025Y12305D01*
G01X-13036Y12268D01*
G01X-13049Y12231D01*
G01X-13064Y12194D01*
G01X-13081Y12159D01*
G01X-13100Y12125D01*
G01X-13120Y12091D01*
G01X-13143Y12059D01*
G01X-13167Y12028D01*
G01X-13192Y11998D01*
G01X-13219Y11969D01*
G01X-13248Y11942D01*
G01X-13278Y11917D01*
G01X-13309Y11893D01*
G01X-13341Y11870D01*
G01X-13374Y11850D01*
G01X-13409Y11831D01*
G01X-13444Y11814D01*
G01X-13481Y11799D01*
G01X-13518Y11786D01*
G01X-13555Y11775D01*
G01X-13594Y11766D01*
G01X-13632Y11759D01*
G01X-13671Y11754D01*
G01X-13710Y11751D01*
G01X-13750Y11750D01*
G04 end of side 32*
G01X-13789Y11751D01*
G01X-13828Y11754D01*
G01X-13867Y11759D01*
G01X-13905Y11766D01*
G01X-13944Y11775D01*
G01X-13981Y11786D01*
G01X-14018Y11799D01*
G01X-14055Y11814D01*
G01X-14090Y11831D01*
G01X-14124Y11850D01*
G01X-14158Y11870D01*
G01X-14190Y11893D01*
G01X-14221Y11917D01*
G01X-14251Y11942D01*
G01X-14280Y11969D01*
G01X-14307Y11998D01*
G01X-14332Y12028D01*
G01X-14356Y12059D01*
G01X-14379Y12091D01*
G01X-14399Y12124D01*
G01X-14418Y12159D01*
G01X-14435Y12194D01*
G01X-14450Y12231D01*
G01X-14463Y12268D01*
G01X-14474Y12305D01*
G01X-14483Y12344D01*
G01X-14490Y12382D01*
G01X-14495Y12421D01*
G01X-14498Y12460D01*
G01X-14500Y12500D01*
G04 end of side 33*
G01X-14500Y13750D01*
G04 end of side 34*
G01X-22050Y13750D01*
G04 end of side 35*
G01X-22050Y12500D01*

G04 -------------- Draw Parts, Pads, Traces, Vias and Text (positive)*
%LPD*%
G04 Draw part U2*
G04 draw part outline for part U2*
G54D10*
G01X-2250Y-4250D02*
G01X-22250Y-4250D01*
G01X-22250Y-4250D02*
G01X-22250Y-9250D01*
G01X-22250Y-9250D02*
G01X-2250Y-9250D01*
G01X-2250Y-9250D02*
G01X-2250Y-4250D01*
G01X-2250Y-6250D02*
G01X-2750Y-6250D01*
G01X-2750Y-6250D02*
G01X-2750Y-7250D01*
G01X-2750Y-7250D02*
G01X-2250Y-7250D01*
G01X-2250Y-7250D02*
G01X-2250Y-6250D01*
G04 draw reference designator for part U2*
G01X-23500Y-8522D02*
G01X-23500Y-8863D01*
G01X-23500Y-8863D02*
G01X-23477Y-8931D01*
G01X-23477Y-8931D02*
G01X-23431Y-8977D01*
G01X-23431Y-8977D02*
G01X-23363Y-9000D01*
G01X-23318Y-9000D02*
G01X-23363Y-9000D01*
G01X-23250Y-8977D02*
G01X-23318Y-9000D01*
G01X-23204Y-8931D02*
G01X-23250Y-8977D01*
G01X-23181Y-8863D02*
G01X-23204Y-8931D01*
G01X-23181Y-8522D02*
G01X-23181Y-8863D01*
G01X-22977Y-8613D02*
G01X-22977Y-8636D01*
G01X-22954Y-8568D02*
G01X-22977Y-8613D01*
G01X-22931Y-8545D02*
G01X-22954Y-8568D01*
G01X-22886Y-8522D02*
G01X-22931Y-8545D01*
G01X-22795Y-8522D02*
G01X-22886Y-8522D01*
G01X-22795Y-8522D02*
G01X-22750Y-8545D01*
G01X-22750Y-8545D02*
G01X-22727Y-8568D01*
G01X-22727Y-8568D02*
G01X-22704Y-8613D01*
G01X-22704Y-8613D02*
G01X-22704Y-8659D01*
G01X-22704Y-8659D02*
G01X-22727Y-8704D01*
G01X-22727Y-8704D02*
G01X-22772Y-8772D01*
G01X-22772Y-8772D02*
G01X-23000Y-9000D01*
G01X-22681Y-9000D02*
G01X-23000Y-9000D01*
G04 Draw part U1*
G04 draw part outline for part U1*
G01X21893Y-1606D02*
G01X10870Y-1606D01*
G01X10870Y-1606D02*
G01X10870Y-11055D01*
G01X10870Y-11055D02*
G01X21893Y-11055D01*
G01X21893Y-11055D02*
G01X24540Y-8205D01*
G01X24540Y-8205D02*
G01X24540Y-4455D01*
G01X24540Y-4455D02*
G01X21893Y-1606D01*
G54D11*
G01X24540Y-4455D02*
G01X25190Y-4455D01*
G01X25190Y-4455D02*
G01X25190Y-8205D01*
G01X25190Y-8205D02*
G01X24540Y-8205D01*
G01X24540Y-8205D02*
G01X24540Y-4455D01*
G04 draw reference designator for part U1*
G54D10*
G01X22500Y-5922D02*
G01X22500Y-6263D01*
G01X22500Y-6263D02*
G01X22522Y-6331D01*
G01X22522Y-6331D02*
G01X22568Y-6377D01*
G01X22568Y-6377D02*
G01X22636Y-6400D01*
G01X22681Y-6400D02*
G01X22636Y-6400D01*
G01X22750Y-6377D02*
G01X22681Y-6400D01*
G01X22795Y-6331D02*
G01X22750Y-6377D01*
G01X22818Y-6263D02*
G01X22795Y-6331D01*
G01X22818Y-5922D02*
G01X22818Y-6263D01*
G01X23045Y-5990D02*
G01X23000Y-6013D01*
G01X23113Y-5922D02*
G01X23045Y-5990D01*
G01X23113Y-5922D02*
G01X23113Y-6400D01*
G04 Draw part X1*
G04 draw part outline for part X1*
G54D11*
G01X-20040Y-1409D02*
G01X-20039Y-1375D01*
G01X-20034Y-1341D01*
G01X-20027Y-1307D01*
G01X-20016Y-1274D01*
G01X-20003Y-1243D01*
G01X-19987Y-1212D01*
G01X-19969Y-1183D01*
G01X-19948Y-1156D01*
G01X-19925Y-1131D01*
G01X-19899Y-1107D01*
G01X-19872Y-1086D01*
G01X-19843Y-1068D01*
G01X-19813Y-1052D01*
G01X-19781Y-1039D01*
G01X-19748Y-1029D01*
G01X-19715Y-1021D01*
G01X-19681Y-1017D01*
G01X-19646Y-1015D01*
G01X-19646Y-1015D02*
G01X-15709Y-1015D01*
G01X-15709Y-1015D02*
G01X-15675Y-1017D01*
G01X-15641Y-1021D01*
G01X-15607Y-1029D01*
G01X-15575Y-1039D01*
G01X-15543Y-1052D01*
G01X-15512Y-1068D01*
G01X-15484Y-1086D01*
G01X-15456Y-1107D01*
G01X-15431Y-1131D01*
G01X-15408Y-1156D01*
G01X-15387Y-1183D01*
G01X-15368Y-1212D01*
G01X-15353Y-1243D01*
G01X-15339Y-1274D01*
G01X-15329Y-1307D01*
G01X-15322Y-1341D01*
G01X-15317Y-1375D01*
G01X-15316Y-1409D01*
G01X-20040Y-2590D02*
G01X-20039Y-2624D01*
G01X-20034Y-2658D01*
G01X-20027Y-2692D01*
G01X-20016Y-2725D01*
G01X-20003Y-2756D01*
G01X-19987Y-2787D01*
G01X-19969Y-2816D01*
G01X-19948Y-2843D01*
G01X-19925Y-2868D01*
G01X-19899Y-2892D01*
G01X-19872Y-2913D01*
G01X-19843Y-2931D01*
G01X-19813Y-2947D01*
G01X-19781Y-2960D01*
G01X-19748Y-2970D01*
G01X-19715Y-2978D01*
G01X-19681Y-2982D01*
G01X-19646Y-2984D01*
G01X-19646Y-2984D02*
G01X-15709Y-2984D01*
G01X-15709Y-2984D02*
G01X-15675Y-2982D01*
G01X-15641Y-2978D01*
G01X-15607Y-2970D01*
G01X-15575Y-2960D01*
G01X-15543Y-2947D01*
G01X-15512Y-2931D01*
G01X-15484Y-2913D01*
G01X-15456Y-2892D01*
G01X-15431Y-2868D01*
G01X-15408Y-2843D01*
G01X-15387Y-2816D01*
G01X-15368Y-2787D01*
G01X-15353Y-2756D01*
G01X-15339Y-2725D01*
G01X-15329Y-2692D01*
G01X-15322Y-2658D01*
G01X-15317Y-2624D01*
G01X-15316Y-2590D01*
G04 draw reference designator for part X1*
G01X-19400Y-424D02*
G01X-19149Y-800D01*
G01X-19149Y-424D02*
G01X-19400Y-800D01*
G01X-18970Y-477D02*
G01X-19006Y-495D01*
G01X-18916Y-424D02*
G01X-18970Y-477D01*
G01X-18916Y-424D02*
G01X-18916Y-800D01*
G04 Draw part C1*
G04 draw part outline for part C1*
G54D10*
G01X-21188Y-766D02*
G01X-21188Y-2735D01*
G01X-21188Y-2735D02*
G01X-22211Y-2735D01*
G01X-22211Y-2735D02*
G01X-22211Y-766D01*
G01X-22211Y-766D02*
G01X-21188Y-766D01*
G04 draw reference designator for part C1*
G01X-21909Y-181D02*
G01X-21863Y-159D01*
G01X-21954Y-227D02*
G01X-21909Y-181D01*
G01X-21977Y-272D02*
G01X-21954Y-227D01*
G01X-21977Y-363D02*
G01X-21977Y-272D01*
G01X-21977Y-363D02*
G01X-21954Y-409D01*
G01X-21954Y-409D02*
G01X-21909Y-454D01*
G01X-21909Y-454D02*
G01X-21863Y-477D01*
G01X-21863Y-477D02*
G01X-21795Y-500D01*
G01X-21795Y-500D02*
G01X-21681Y-500D01*
G01X-21681Y-500D02*
G01X-21613Y-477D01*
G01X-21613Y-477D02*
G01X-21568Y-454D01*
G01X-21568Y-454D02*
G01X-21522Y-409D01*
G01X-21522Y-409D02*
G01X-21500Y-363D01*
G01X-21500Y-272D02*
G01X-21500Y-363D01*
G01X-21522Y-227D02*
G01X-21500Y-272D01*
G01X-21568Y-181D02*
G01X-21522Y-227D01*
G01X-21613Y-159D02*
G01X-21568Y-181D01*
G01X-21909Y68D02*
G01X-21886Y22D01*
G01X-21977Y136D02*
G01X-21909Y68D01*
G01X-21977Y136D02*
G01X-21500Y136D01*
G04 Draw part C2*
G04 draw part outline for part C2*
G01X-13961Y-2683D02*
G01X-13961Y-714D01*
G01X-13961Y-714D02*
G01X-12938Y-714D01*
G01X-12938Y-714D02*
G01X-12938Y-2683D01*
G01X-12938Y-2683D02*
G01X-13961Y-2683D01*
G04 draw reference designator for part C2*
G01X-13609Y-181D02*
G01X-13563Y-159D01*
G01X-13654Y-227D02*
G01X-13609Y-181D01*
G01X-13677Y-272D02*
G01X-13654Y-227D01*
G01X-13677Y-363D02*
G01X-13677Y-272D01*
G01X-13677Y-363D02*
G01X-13654Y-409D01*
G01X-13654Y-409D02*
G01X-13609Y-454D01*
G01X-13609Y-454D02*
G01X-13563Y-477D01*
G01X-13563Y-477D02*
G01X-13495Y-500D01*
G01X-13495Y-500D02*
G01X-13381Y-500D01*
G01X-13381Y-500D02*
G01X-13313Y-477D01*
G01X-13313Y-477D02*
G01X-13268Y-454D01*
G01X-13268Y-454D02*
G01X-13222Y-409D01*
G01X-13222Y-409D02*
G01X-13200Y-363D01*
G01X-13200Y-272D02*
G01X-13200Y-363D01*
G01X-13222Y-227D02*
G01X-13200Y-272D01*
G01X-13268Y-181D02*
G01X-13222Y-227D01*
G01X-13313Y-159D02*
G01X-13268Y-181D01*
G01X-13586Y45D02*
G01X-13563Y45D01*
G01X-13631Y68D02*
G01X-13586Y45D01*
G01X-13654Y90D02*
G01X-13631Y68D01*
G01X-13677Y136D02*
G01X-13654Y90D01*
G01X-13677Y227D02*
G01X-13677Y136D01*
G01X-13677Y227D02*
G01X-13654Y272D01*
G01X-13654Y272D02*
G01X-13631Y295D01*
G01X-13631Y295D02*
G01X-13586Y318D01*
G01X-13586Y318D02*
G01X-13540Y318D01*
G01X-13540Y318D02*
G01X-13495Y295D01*
G01X-13495Y295D02*
G01X-13427Y250D01*
G01X-13427Y250D02*
G01X-13200Y22D01*
G01X-13200Y340D02*
G01X-13200Y22D01*
G04 Draw part J3*
G04 draw part outline for part J3*
G54D11*
G01X-16394Y-11212D02*
G01X-16348Y-11166D01*
G01X-16348Y-11166D02*
G01X-16394Y-11121D01*
G01X-16439Y-11166D02*
G01X-16394Y-11121D01*
G01X-16394Y-11212D02*
G01X-16439Y-11166D01*
G04 draw reference designator for part J3*
G54D10*
G01X-20472Y-11422D02*
G01X-20472Y-11786D01*
G01X-20472Y-11786D02*
G01X-20495Y-11854D01*
G01X-20495Y-11854D02*
G01X-20518Y-11877D01*
G01X-20518Y-11877D02*
G01X-20563Y-11900D01*
G01X-20609Y-11900D02*
G01X-20563Y-11900D01*
G01X-20654Y-11877D02*
G01X-20609Y-11900D01*
G01X-20677Y-11854D02*
G01X-20654Y-11877D01*
G01X-20700Y-11786D02*
G01X-20677Y-11854D01*
G01X-20700Y-11740D02*
G01X-20700Y-11786D01*
G01X-19995Y-11422D02*
G01X-20245Y-11422D01*
G01X-19995Y-11422D02*
G01X-20131Y-11604D01*
G01X-20063Y-11604D02*
G01X-20131Y-11604D01*
G01X-20063Y-11604D02*
G01X-20018Y-11627D01*
G01X-20018Y-11627D02*
G01X-19995Y-11650D01*
G01X-19995Y-11650D02*
G01X-19972Y-11718D01*
G01X-19972Y-11718D02*
G01X-19972Y-11763D01*
G01X-19972Y-11763D02*
G01X-19995Y-11831D01*
G01X-19995Y-11831D02*
G01X-20040Y-11877D01*
G01X-20040Y-11877D02*
G01X-20109Y-11900D01*
G01X-20177Y-11900D02*
G01X-20109Y-11900D01*
G01X-20245Y-11877D02*
G01X-20177Y-11900D01*
G01X-20268Y-11854D02*
G01X-20245Y-11877D01*
G01X-20290Y-11809D02*
G01X-20268Y-11854D01*
G04 Draw part C3*
G04 draw part outline for part C3*
G01X-24261Y-7433D02*
G01X-24261Y-5464D01*
G01X-24261Y-5464D02*
G01X-23238Y-5464D01*
G01X-23238Y-5464D02*
G01X-23238Y-7433D01*
G01X-23238Y-7433D02*
G01X-24261Y-7433D01*
G04 draw reference designator for part C3*
G01X-23590Y-4718D02*
G01X-23636Y-4740D01*
G01X-23545Y-4672D02*
G01X-23590Y-4718D01*
G01X-23522Y-4627D02*
G01X-23545Y-4672D01*
G01X-23522Y-4536D02*
G01X-23522Y-4627D01*
G01X-23522Y-4536D02*
G01X-23545Y-4490D01*
G01X-23545Y-4490D02*
G01X-23590Y-4445D01*
G01X-23590Y-4445D02*
G01X-23636Y-4422D01*
G01X-23636Y-4422D02*
G01X-23704Y-4400D01*
G01X-23704Y-4400D02*
G01X-23818Y-4400D01*
G01X-23818Y-4400D02*
G01X-23886Y-4422D01*
G01X-23886Y-4422D02*
G01X-23931Y-4445D01*
G01X-23931Y-4445D02*
G01X-23977Y-4490D01*
G01X-23977Y-4490D02*
G01X-24000Y-4536D01*
G01X-24000Y-4627D02*
G01X-24000Y-4536D01*
G01X-23977Y-4672D02*
G01X-24000Y-4627D01*
G01X-23931Y-4718D02*
G01X-23977Y-4672D01*
G01X-23886Y-4740D02*
G01X-23931Y-4718D01*
G01X-23522Y-5218D02*
G01X-23522Y-4968D01*
G01X-23522Y-5218D02*
G01X-23704Y-5081D01*
G01X-23704Y-5150D02*
G01X-23704Y-5081D01*
G01X-23704Y-5150D02*
G01X-23727Y-5195D01*
G01X-23727Y-5195D02*
G01X-23750Y-5218D01*
G01X-23750Y-5218D02*
G01X-23818Y-5240D01*
G01X-23818Y-5240D02*
G01X-23863Y-5240D01*
G01X-23863Y-5240D02*
G01X-23931Y-5218D01*
G01X-23931Y-5218D02*
G01X-23977Y-5172D01*
G01X-23977Y-5172D02*
G01X-24000Y-5104D01*
G01X-24000Y-5036D02*
G01X-24000Y-5104D01*
G01X-23977Y-4968D02*
G01X-24000Y-5036D01*
G01X-23954Y-4945D02*
G01X-23977Y-4968D01*
G01X-23909Y-4922D02*
G01X-23954Y-4945D01*
G04 Draw part R2*
G04 draw part outline for part R2*
G01X-7133Y-12833D02*
G01X-7133Y-10864D01*
G01X-7133Y-10864D02*
G01X-6266Y-10864D01*
G01X-6266Y-10864D02*
G01X-6266Y-12833D01*
G01X-6266Y-12833D02*
G01X-7133Y-12833D01*
G04 draw reference designator for part R2*
G01X-7100Y-13024D02*
G01X-7100Y-13400D01*
G01X-6938Y-13024D02*
G01X-7100Y-13024D01*
G01X-6938Y-13024D02*
G01X-6885Y-13042D01*
G01X-6885Y-13042D02*
G01X-6867Y-13059D01*
G01X-6867Y-13059D02*
G01X-6849Y-13095D01*
G01X-6849Y-13095D02*
G01X-6849Y-13131D01*
G01X-6849Y-13131D02*
G01X-6867Y-13167D01*
G01X-6867Y-13167D02*
G01X-6885Y-13185D01*
G01X-6885Y-13185D02*
G01X-6938Y-13203D01*
G01X-7100Y-13203D02*
G01X-6938Y-13203D01*
G01X-6974Y-13203D02*
G01X-6849Y-13400D01*
G01X-6688Y-13095D02*
G01X-6688Y-13113D01*
G01X-6670Y-13059D02*
G01X-6688Y-13095D01*
G01X-6652Y-13042D02*
G01X-6670Y-13059D01*
G01X-6616Y-13024D02*
G01X-6652Y-13042D01*
G01X-6545Y-13024D02*
G01X-6616Y-13024D01*
G01X-6545Y-13024D02*
G01X-6509Y-13042D01*
G01X-6509Y-13042D02*
G01X-6491Y-13059D01*
G01X-6491Y-13059D02*
G01X-6473Y-13095D01*
G01X-6473Y-13095D02*
G01X-6473Y-13131D01*
G01X-6473Y-13131D02*
G01X-6491Y-13167D01*
G01X-6491Y-13167D02*
G01X-6527Y-13221D01*
G01X-6527Y-13221D02*
G01X-6706Y-13400D01*
G01X-6455Y-13400D02*
G01X-6706Y-13400D01*
G04 Draw part R1*
G04 draw part outline for part R1*
G01X-2566Y-10866D02*
G01X-2566Y-12835D01*
G01X-2566Y-12835D02*
G01X-3433Y-12835D01*
G01X-3433Y-12835D02*
G01X-3433Y-10866D01*
G01X-3433Y-10866D02*
G01X-2566Y-10866D01*
G04 draw reference designator for part R1*
G01X-3200Y-13024D02*
G01X-3200Y-13400D01*
G01X-3038Y-13024D02*
G01X-3200Y-13024D01*
G01X-3038Y-13024D02*
G01X-2985Y-13042D01*
G01X-2985Y-13042D02*
G01X-2967Y-13059D01*
G01X-2967Y-13059D02*
G01X-2949Y-13095D01*
G01X-2949Y-13095D02*
G01X-2949Y-13131D01*
G01X-2949Y-13131D02*
G01X-2967Y-13167D01*
G01X-2967Y-13167D02*
G01X-2985Y-13185D01*
G01X-2985Y-13185D02*
G01X-3038Y-13203D01*
G01X-3200Y-13203D02*
G01X-3038Y-13203D01*
G01X-3074Y-13203D02*
G01X-2949Y-13400D01*
G01X-2770Y-13077D02*
G01X-2806Y-13095D01*
G01X-2716Y-13024D02*
G01X-2770Y-13077D01*
G01X-2716Y-13024D02*
G01X-2716Y-13400D01*
G04 Draw part U3*
G04 draw part outline for part U3*
G01X-1000Y-6250D02*
G01X7000Y-6250D01*
G01X7000Y-6250D02*
G01X7000Y-4250D01*
G01X7000Y-4250D02*
G01X-1000Y-4250D01*
G01X-1000Y-4250D02*
G01X-1000Y-6250D01*
G01X-1000Y-5750D02*
G01X-500Y-5750D01*
G01X-500Y-5750D02*
G01X-500Y-4750D01*
G01X-500Y-4750D02*
G01X-1000Y-4750D01*
G01X-1000Y-4750D02*
G01X-1000Y-5750D01*
G04 draw reference designator for part U3*
G01X1700Y-2722D02*
G01X1700Y-3063D01*
G01X1700Y-3063D02*
G01X1722Y-3131D01*
G01X1722Y-3131D02*
G01X1768Y-3177D01*
G01X1768Y-3177D02*
G01X1836Y-3200D01*
G01X1881Y-3200D02*
G01X1836Y-3200D01*
G01X1950Y-3177D02*
G01X1881Y-3200D01*
G01X1995Y-3131D02*
G01X1950Y-3177D01*
G01X2018Y-3063D02*
G01X1995Y-3131D01*
G01X2018Y-2722D02*
G01X2018Y-3063D01*
G01X2495Y-2722D02*
G01X2245Y-2722D01*
G01X2495Y-2722D02*
G01X2359Y-2904D01*
G01X2427Y-2904D02*
G01X2359Y-2904D01*
G01X2427Y-2904D02*
G01X2472Y-2927D01*
G01X2472Y-2927D02*
G01X2495Y-2950D01*
G01X2495Y-2950D02*
G01X2518Y-3018D01*
G01X2518Y-3018D02*
G01X2518Y-3063D01*
G01X2518Y-3063D02*
G01X2495Y-3131D01*
G01X2495Y-3131D02*
G01X2450Y-3177D01*
G01X2450Y-3177D02*
G01X2381Y-3200D01*
G01X2313Y-3200D02*
G01X2381Y-3200D01*
G01X2245Y-3177D02*
G01X2313Y-3200D01*
G01X2222Y-3154D02*
G01X2245Y-3177D01*
G01X2200Y-3109D02*
G01X2222Y-3154D01*
G04 Draw part U5*
G04 draw part outline for part U5*
G01X8860Y-8875D02*
G01X8860Y-11435D01*
G01X8860Y-11435D02*
G01X10238Y-11435D01*
G01X10238Y-11435D02*
G01X10238Y-8875D01*
G01X10238Y-8875D02*
G01X8860Y-8875D01*
G04 draw reference designator for part U5*
G01X9977Y-11600D02*
G01X9636Y-11600D01*
G01X9636Y-11600D02*
G01X9568Y-11622D01*
G01X9568Y-11622D02*
G01X9522Y-11668D01*
G01X9522Y-11668D02*
G01X9500Y-11736D01*
G01X9500Y-11781D02*
G01X9500Y-11736D01*
G01X9522Y-11850D02*
G01X9500Y-11781D01*
G01X9568Y-11895D02*
G01X9522Y-11850D01*
G01X9636Y-11918D02*
G01X9568Y-11895D01*
G01X9977Y-11918D02*
G01X9636Y-11918D01*
G01X9977Y-12145D02*
G01X9977Y-12372D01*
G01X9977Y-12145D02*
G01X9772Y-12122D01*
G01X9795Y-12145D02*
G01X9772Y-12122D01*
G01X9818Y-12213D02*
G01X9795Y-12145D01*
G01X9818Y-12281D02*
G01X9818Y-12213D01*
G01X9818Y-12281D02*
G01X9795Y-12350D01*
G01X9795Y-12350D02*
G01X9750Y-12395D01*
G01X9750Y-12395D02*
G01X9681Y-12418D01*
G01X9681Y-12418D02*
G01X9636Y-12418D01*
G01X9636Y-12418D02*
G01X9568Y-12395D01*
G01X9568Y-12395D02*
G01X9522Y-12350D01*
G01X9522Y-12350D02*
G01X9500Y-12281D01*
G01X9500Y-12213D02*
G01X9500Y-12281D01*
G01X9522Y-12145D02*
G01X9500Y-12213D01*
G01X9545Y-12122D02*
G01X9522Y-12145D01*
G01X9590Y-12100D02*
G01X9545Y-12122D01*
G04 Draw part C5*
G04 draw part outline for part C5*
G01X5853Y-12553D02*
G01X2546Y-12553D01*
G01X2546Y-12553D02*
G01X2546Y-9246D01*
G01X2546Y-9246D02*
G01X5853Y-9246D01*
G01X5853Y-9246D02*
G01X5853Y-12553D01*
G54D11*
G01X2751Y-8868D02*
G01X3570Y-8868D01*
G04 draw reference designator for part C5*
G54D10*
G01X5018Y-8590D02*
G01X5040Y-8636D01*
G01X4972Y-8545D02*
G01X5018Y-8590D01*
G01X4927Y-8522D02*
G01X4972Y-8545D01*
G01X4836Y-8522D02*
G01X4927Y-8522D01*
G01X4836Y-8522D02*
G01X4790Y-8545D01*
G01X4790Y-8545D02*
G01X4745Y-8590D01*
G01X4745Y-8590D02*
G01X4722Y-8636D01*
G01X4722Y-8636D02*
G01X4700Y-8704D01*
G01X4700Y-8704D02*
G01X4700Y-8818D01*
G01X4700Y-8818D02*
G01X4722Y-8886D01*
G01X4722Y-8886D02*
G01X4745Y-8931D01*
G01X4745Y-8931D02*
G01X4790Y-8977D01*
G01X4790Y-8977D02*
G01X4836Y-9000D01*
G01X4927Y-9000D02*
G01X4836Y-9000D01*
G01X4972Y-8977D02*
G01X4927Y-9000D01*
G01X5018Y-8931D02*
G01X4972Y-8977D01*
G01X5040Y-8886D02*
G01X5018Y-8931D01*
G01X5268Y-8522D02*
G01X5495Y-8522D01*
G01X5268Y-8522D02*
G01X5245Y-8727D01*
G01X5268Y-8704D02*
G01X5245Y-8727D01*
G01X5336Y-8681D02*
G01X5268Y-8704D01*
G01X5404Y-8681D02*
G01X5336Y-8681D01*
G01X5404Y-8681D02*
G01X5472Y-8704D01*
G01X5472Y-8704D02*
G01X5518Y-8750D01*
G01X5518Y-8750D02*
G01X5540Y-8818D01*
G01X5540Y-8818D02*
G01X5540Y-8863D01*
G01X5540Y-8863D02*
G01X5518Y-8931D01*
G01X5518Y-8931D02*
G01X5472Y-8977D01*
G01X5472Y-8977D02*
G01X5404Y-9000D01*
G01X5336Y-9000D02*
G01X5404Y-9000D01*
G01X5268Y-8977D02*
G01X5336Y-9000D01*
G01X5245Y-8954D02*
G01X5268Y-8977D01*
G01X5222Y-8909D02*
G01X5245Y-8954D01*
G04 Draw part C6*
G04 draw part outline for part C6*
G01X7211Y-9766D02*
G01X7211Y-11735D01*
G01X7211Y-11735D02*
G01X6188Y-11735D01*
G01X6188Y-11735D02*
G01X6188Y-9766D01*
G01X6188Y-9766D02*
G01X7211Y-9766D01*
G04 draw reference designator for part C6*
G01X6618Y-11990D02*
G01X6640Y-12036D01*
G01X6572Y-11945D02*
G01X6618Y-11990D01*
G01X6527Y-11922D02*
G01X6572Y-11945D01*
G01X6436Y-11922D02*
G01X6527Y-11922D01*
G01X6436Y-11922D02*
G01X6390Y-11945D01*
G01X6390Y-11945D02*
G01X6345Y-11990D01*
G01X6345Y-11990D02*
G01X6322Y-12036D01*
G01X6322Y-12036D02*
G01X6300Y-12104D01*
G01X6300Y-12104D02*
G01X6300Y-12218D01*
G01X6300Y-12218D02*
G01X6322Y-12286D01*
G01X6322Y-12286D02*
G01X6345Y-12331D01*
G01X6345Y-12331D02*
G01X6390Y-12377D01*
G01X6390Y-12377D02*
G01X6436Y-12400D01*
G01X6527Y-12400D02*
G01X6436Y-12400D01*
G01X6572Y-12377D02*
G01X6527Y-12400D01*
G01X6618Y-12331D02*
G01X6572Y-12377D01*
G01X6640Y-12286D02*
G01X6618Y-12331D01*
G01X7072Y-11945D02*
G01X7095Y-11990D01*
G01X7004Y-11922D02*
G01X7072Y-11945D01*
G01X6959Y-11922D02*
G01X7004Y-11922D01*
G01X6959Y-11922D02*
G01X6890Y-11945D01*
G01X6890Y-11945D02*
G01X6845Y-12013D01*
G01X6845Y-12013D02*
G01X6822Y-12127D01*
G01X6822Y-12127D02*
G01X6822Y-12240D01*
G01X6822Y-12240D02*
G01X6845Y-12331D01*
G01X6845Y-12331D02*
G01X6890Y-12377D01*
G01X6890Y-12377D02*
G01X6959Y-12400D01*
G01X6981Y-12400D02*
G01X6959Y-12400D01*
G01X7050Y-12377D02*
G01X6981Y-12400D01*
G01X7095Y-12331D02*
G01X7050Y-12377D01*
G01X7118Y-12263D02*
G01X7095Y-12331D01*
G01X7118Y-12240D02*
G01X7118Y-12263D01*
G01X7095Y-12172D02*
G01X7118Y-12240D01*
G01X7050Y-12127D02*
G01X7095Y-12172D01*
G01X6981Y-12104D02*
G01X7050Y-12127D01*
G01X6959Y-12104D02*
G01X6981Y-12104D01*
G01X6959Y-12104D02*
G01X6890Y-12127D01*
G01X6890Y-12127D02*
G01X6845Y-12172D01*
G01X6845Y-12172D02*
G01X6822Y-12240D01*
G04 Draw part D1*
G04 draw part outline for part D1*
G01X-914Y-10500D02*
G01X-914Y-12551D01*
G01X-914Y-12551D02*
G01X35Y-12547D01*
G01X35Y-12547D02*
G01X35Y-12232D01*
G01X35Y-12232D02*
G01X468Y-12232D01*
G01X468Y-12232D02*
G01X468Y-12547D01*
G01X468Y-12547D02*
G01X1354Y-12551D01*
G01X1354Y-12551D02*
G01X1354Y-10500D01*
G01X1354Y-10500D02*
G01X-914Y-10500D01*
G01X2089Y-13220D02*
G01X1767Y-13220D01*
G01X1928Y-13381D02*
G01X1928Y-13059D01*
G04 draw reference designator for part D1*
G01X0Y-9622D02*
G01X0Y-10100D01*
G01X159Y-9622D02*
G01X0Y-9622D01*
G01X159Y-9622D02*
G01X227Y-9645D01*
G01X227Y-9645D02*
G01X272Y-9690D01*
G01X272Y-9690D02*
G01X295Y-9736D01*
G01X295Y-9736D02*
G01X318Y-9804D01*
G01X318Y-9804D02*
G01X318Y-9918D01*
G01X318Y-9918D02*
G01X295Y-9986D01*
G01X295Y-9986D02*
G01X272Y-10031D01*
G01X272Y-10031D02*
G01X227Y-10077D01*
G01X227Y-10077D02*
G01X159Y-10100D01*
G01X0Y-10100D02*
G01X159Y-10100D01*
G01X545Y-9690D02*
G01X500Y-9713D01*
G01X613Y-9622D02*
G01X545Y-9690D01*
G01X613Y-9622D02*
G01X613Y-10100D01*
G04 Draw part R5*
G04 Draw part R4*
G04 Draw part R3*
G04 Draw part R8*
G04 Draw part R7*
G04 Draw part R6*
G04 Draw part B1*
G04 Draw part J1*
G04 draw part outline for part J1*
G04 draw reference designator for part J1*
G01X-9372Y12577D02*
G01X-9372Y12213D01*
G01X-9372Y12213D02*
G01X-9395Y12145D01*
G01X-9395Y12145D02*
G01X-9418Y12122D01*
G01X-9418Y12122D02*
G01X-9463Y12100D01*
G01X-9509Y12100D02*
G01X-9463Y12100D01*
G01X-9554Y12122D02*
G01X-9509Y12100D01*
G01X-9577Y12145D02*
G01X-9554Y12122D01*
G01X-9600Y12213D02*
G01X-9577Y12145D01*
G01X-9600Y12259D02*
G01X-9600Y12213D01*
G01X-9145Y12509D02*
G01X-9190Y12486D01*
G01X-9077Y12577D02*
G01X-9145Y12509D01*
G01X-9077Y12577D02*
G01X-9077Y12100D01*
G04 Draw part J2*
G04 draw part outline for part J2*
G04 draw reference designator for part J2*
G01X11227Y12577D02*
G01X11227Y12213D01*
G01X11227Y12213D02*
G01X11204Y12145D01*
G01X11204Y12145D02*
G01X11181Y12122D01*
G01X11181Y12122D02*
G01X11136Y12100D01*
G01X11090Y12100D02*
G01X11136Y12100D01*
G01X11045Y12122D02*
G01X11090Y12100D01*
G01X11022Y12145D02*
G01X11045Y12122D01*
G01X11000Y12213D02*
G01X11022Y12145D01*
G01X11000Y12259D02*
G01X11000Y12213D01*
G01X11431Y12486D02*
G01X11431Y12463D01*
G01X11454Y12531D02*
G01X11431Y12486D01*
G01X11477Y12554D02*
G01X11454Y12531D01*
G01X11522Y12577D02*
G01X11477Y12554D01*
G01X11613Y12577D02*
G01X11522Y12577D01*
G01X11613Y12577D02*
G01X11659Y12554D01*
G01X11659Y12554D02*
G01X11681Y12531D01*
G01X11681Y12531D02*
G01X11704Y12486D01*
G01X11704Y12486D02*
G01X11704Y12440D01*
G01X11704Y12440D02*
G01X11681Y12395D01*
G01X11681Y12395D02*
G01X11636Y12327D01*
G01X11636Y12327D02*
G01X11409Y12100D01*
G01X11727Y12100D02*
G01X11409Y12100D01*
G04 Draw part F1*
G04 draw part outline for part F1*
G04 draw reference designator for part F1*
G01X-300Y13577D02*
G01X-300Y13100D01*
G01X-4Y13577D02*
G01X-300Y13577D01*
G01X-118Y13350D02*
G01X-300Y13350D01*
G01X222Y13509D02*
G01X177Y13486D01*
G01X290Y13577D02*
G01X222Y13509D01*
G01X290Y13577D02*
G01X290Y13100D01*
G04 Draw part D2*
G04 Draw part S1*
G04 Draw part J5*
G04 draw part outline for part J5*
G04 draw reference designator for part J5*
G01X23677Y9472D02*
G01X23313Y9472D01*
G01X23313Y9472D02*
G01X23245Y9495D01*
G01X23245Y9495D02*
G01X23222Y9518D01*
G01X23222Y9518D02*
G01X23200Y9563D01*
G01X23200Y9609D02*
G01X23200Y9563D01*
G01X23222Y9654D02*
G01X23200Y9609D01*
G01X23245Y9677D02*
G01X23222Y9654D01*
G01X23313Y9700D02*
G01X23245Y9677D01*
G01X23359Y9700D02*
G01X23313Y9700D01*
G01X23677Y9245D02*
G01X23677Y9018D01*
G01X23677Y9245D02*
G01X23472Y9268D01*
G01X23495Y9245D02*
G01X23472Y9268D01*
G01X23518Y9177D02*
G01X23495Y9245D01*
G01X23518Y9109D02*
G01X23518Y9177D01*
G01X23518Y9109D02*
G01X23495Y9040D01*
G01X23495Y9040D02*
G01X23450Y8995D01*
G01X23450Y8995D02*
G01X23381Y8972D01*
G01X23381Y8972D02*
G01X23336Y8972D01*
G01X23336Y8972D02*
G01X23268Y8995D01*
G01X23268Y8995D02*
G01X23222Y9040D01*
G01X23222Y9040D02*
G01X23200Y9109D01*
G01X23200Y9177D02*
G01X23200Y9109D01*
G01X23222Y9245D02*
G01X23200Y9177D01*
G01X23245Y9268D02*
G01X23222Y9245D01*
G01X23290Y9290D02*
G01X23245Y9268D01*
G04 Draw part J6*
G04 draw part outline for part J6*
G04 draw reference designator for part J6*
G01X24177Y-1427D02*
G01X23813Y-1427D01*
G01X23813Y-1427D02*
G01X23745Y-1404D01*
G01X23745Y-1404D02*
G01X23722Y-1381D01*
G01X23722Y-1381D02*
G01X23700Y-1336D01*
G01X23700Y-1290D02*
G01X23700Y-1336D01*
G01X23722Y-1245D02*
G01X23700Y-1290D01*
G01X23745Y-1222D02*
G01X23722Y-1245D01*
G01X23813Y-1200D02*
G01X23745Y-1222D01*
G01X23859Y-1200D02*
G01X23813Y-1200D01*
G01X24154Y-1859D02*
G01X24109Y-1881D01*
G01X24177Y-1790D02*
G01X24154Y-1859D01*
G01X24177Y-1745D02*
G01X24177Y-1790D01*
G01X24177Y-1745D02*
G01X24154Y-1677D01*
G01X24154Y-1677D02*
G01X24086Y-1631D01*
G01X24086Y-1631D02*
G01X23972Y-1609D01*
G01X23972Y-1609D02*
G01X23859Y-1609D01*
G01X23859Y-1609D02*
G01X23768Y-1631D01*
G01X23768Y-1631D02*
G01X23722Y-1677D01*
G01X23722Y-1677D02*
G01X23700Y-1745D01*
G01X23700Y-1768D02*
G01X23700Y-1745D01*
G01X23722Y-1836D02*
G01X23700Y-1768D01*
G01X23768Y-1881D02*
G01X23722Y-1836D01*
G01X23836Y-1904D02*
G01X23768Y-1881D01*
G01X23859Y-1904D02*
G01X23836Y-1904D01*
G01X23927Y-1881D02*
G01X23859Y-1904D01*
G01X23972Y-1836D02*
G01X23927Y-1881D01*
G01X23995Y-1768D02*
G01X23972Y-1836D01*
G01X23995Y-1745D02*
G01X23995Y-1768D01*
G01X23995Y-1745D02*
G01X23972Y-1677D01*
G01X23972Y-1677D02*
G01X23927Y-1631D01*
G01X23927Y-1631D02*
G01X23859Y-1609D01*
G04 Draw part J9*
G04 draw part outline for part J9*
G54D11*
G01X7500Y-700D02*
G01X7500Y2000D01*
G01X7500Y2000D02*
G01X10200Y2000D01*
G01X10200Y2000D02*
G01X10224Y5968D01*
G01X10224Y5968D02*
G01X7000Y9700D01*
G01X7000Y9700D02*
G01X4000Y9700D01*
G01X4000Y9700D02*
G01X4000Y6000D01*
G01X4000Y6000D02*
G01X775Y5968D01*
G01X775Y5968D02*
G01X775Y2031D01*
G01X775Y2031D02*
G01X3500Y-700D01*
G01X3500Y-700D02*
G01X7500Y-700D01*
G01X10200Y2000D02*
G01X7500Y2000D01*
G01X7500Y2000D02*
G01X7500Y-700D01*
G01X800Y2000D02*
G01X3500Y2000D01*
G01X3500Y2000D02*
G01X3500Y-700D01*
G01X800Y2000D02*
G01X3500Y-700D01*
G01X800Y6000D02*
G01X4000Y6000D01*
G01X4000Y6000D02*
G01X4000Y9700D01*
G01X4000Y9700D02*
G01X7000Y9700D01*
G01X7000Y9700D02*
G01X7000Y6000D01*
G01X7000Y6000D02*
G01X10200Y6000D01*
G01X10200Y6000D02*
G01X7000Y9700D01*
G04 Draw part J10*
G04 draw part outline for part J10*
G01X13700Y9700D02*
G01X13700Y7000D01*
G01X13700Y7000D02*
G01X11000Y7000D01*
G01X11000Y7000D02*
G01X10975Y3031D01*
G01X10975Y3031D02*
G01X14200Y-700D01*
G01X14200Y-700D02*
G01X17200Y-700D01*
G01X17200Y-700D02*
G01X17200Y3000D01*
G01X17200Y3000D02*
G01X20424Y3031D01*
G01X20424Y3031D02*
G01X20424Y6968D01*
G01X20424Y6968D02*
G01X17700Y9700D01*
G01X17700Y9700D02*
G01X13700Y9700D01*
G01X11000Y7000D02*
G01X13700Y7000D01*
G01X13700Y7000D02*
G01X13700Y9700D01*
G01X20400Y7000D02*
G01X17700Y7000D01*
G01X17700Y7000D02*
G01X17700Y9700D01*
G01X20400Y7000D02*
G01X17700Y9700D01*
G01X20400Y3000D02*
G01X17200Y3000D01*
G01X17200Y3000D02*
G01X17200Y-700D01*
G01X17200Y-700D02*
G01X14200Y-700D01*
G01X14200Y-700D02*
G01X14200Y3000D01*
G01X14200Y3000D02*
G01X11000Y3000D01*
G01X11000Y3000D02*
G01X14200Y-700D01*
G04 Draw part D3*
G04 Draw part S2*
G04 Draw part J7*
G04 draw part outline for part J7*
G04 draw reference designator for part J7*
G54D10*
G01X-23222Y9372D02*
G01X-23586Y9372D01*
G01X-23586Y9372D02*
G01X-23654Y9395D01*
G01X-23654Y9395D02*
G01X-23677Y9418D01*
G01X-23677Y9418D02*
G01X-23700Y9463D01*
G01X-23700Y9509D02*
G01X-23700Y9463D01*
G01X-23677Y9554D02*
G01X-23700Y9509D01*
G01X-23654Y9577D02*
G01X-23677Y9554D01*
G01X-23586Y9600D02*
G01X-23654Y9577D01*
G01X-23540Y9600D02*
G01X-23586Y9600D01*
G01X-23222Y8872D02*
G01X-23700Y9100D01*
G01X-23222Y8872D02*
G01X-23222Y9190D01*
G04 Draw part J8*
G04 draw part outline for part J8*
G04 draw reference designator for part J8*
G01X-23322Y-1427D02*
G01X-23686Y-1427D01*
G01X-23686Y-1427D02*
G01X-23754Y-1404D01*
G01X-23754Y-1404D02*
G01X-23777Y-1381D01*
G01X-23777Y-1381D02*
G01X-23800Y-1336D01*
G01X-23800Y-1290D02*
G01X-23800Y-1336D01*
G01X-23777Y-1245D02*
G01X-23800Y-1290D01*
G01X-23754Y-1222D02*
G01X-23777Y-1245D01*
G01X-23686Y-1200D02*
G01X-23754Y-1222D01*
G01X-23640Y-1200D02*
G01X-23686Y-1200D01*
G01X-23322Y-1722D02*
G01X-23345Y-1654D01*
G01X-23345Y-1654D02*
G01X-23390Y-1631D01*
G01X-23390Y-1631D02*
G01X-23436Y-1631D01*
G01X-23436Y-1631D02*
G01X-23481Y-1654D01*
G01X-23481Y-1654D02*
G01X-23504Y-1700D01*
G01X-23504Y-1700D02*
G01X-23527Y-1790D01*
G01X-23527Y-1790D02*
G01X-23550Y-1859D01*
G01X-23550Y-1859D02*
G01X-23595Y-1904D01*
G01X-23595Y-1904D02*
G01X-23640Y-1927D01*
G01X-23640Y-1927D02*
G01X-23709Y-1927D01*
G01X-23709Y-1927D02*
G01X-23754Y-1904D01*
G01X-23754Y-1904D02*
G01X-23777Y-1881D01*
G01X-23777Y-1881D02*
G01X-23800Y-1813D01*
G01X-23800Y-1722D02*
G01X-23800Y-1813D01*
G01X-23777Y-1654D02*
G01X-23800Y-1722D01*
G01X-23754Y-1631D02*
G01X-23777Y-1654D01*
G01X-23709Y-1609D02*
G01X-23754Y-1631D01*
G01X-23640Y-1609D02*
G01X-23709Y-1609D01*
G01X-23595Y-1631D02*
G01X-23640Y-1609D01*
G01X-23550Y-1677D02*
G01X-23595Y-1631D01*
G01X-23527Y-1745D02*
G01X-23550Y-1677D01*
G01X-23504Y-1836D02*
G01X-23527Y-1745D01*
G01X-23481Y-1881D02*
G01X-23504Y-1836D01*
G01X-23436Y-1904D02*
G01X-23481Y-1881D01*
G01X-23390Y-1904D02*
G01X-23436Y-1904D01*
G01X-23345Y-1881D02*
G01X-23390Y-1904D01*
G01X-23322Y-1813D02*
G01X-23345Y-1881D01*
G01X-23322Y-1722D02*
G01X-23322Y-1813D01*
G04 Draw part J11*
G04 draw part outline for part J11*
G54D11*
G01X-3500Y-700D02*
G01X-3500Y2000D01*
G01X-3500Y2000D02*
G01X-800Y2000D01*
G01X-800Y2000D02*
G01X-775Y5968D01*
G01X-775Y5968D02*
G01X-4000Y9700D01*
G01X-4000Y9700D02*
G01X-7000Y9700D01*
G01X-7000Y9700D02*
G01X-7000Y6000D01*
G01X-7000Y6000D02*
G01X-10224Y5968D01*
G01X-10224Y5968D02*
G01X-10224Y2031D01*
G01X-10224Y2031D02*
G01X-7500Y-700D01*
G01X-7500Y-700D02*
G01X-3500Y-700D01*
G01X-800Y2000D02*
G01X-3500Y2000D01*
G01X-3500Y2000D02*
G01X-3500Y-700D01*
G01X-10200Y2000D02*
G01X-7500Y2000D01*
G01X-7500Y2000D02*
G01X-7500Y-700D01*
G01X-10200Y2000D02*
G01X-7500Y-700D01*
G01X-10200Y6000D02*
G01X-7000Y6000D01*
G01X-7000Y6000D02*
G01X-7000Y9700D01*
G01X-7000Y9700D02*
G01X-4000Y9700D01*
G01X-4000Y9700D02*
G01X-4000Y6000D01*
G01X-4000Y6000D02*
G01X-800Y6000D01*
G01X-800Y6000D02*
G01X-4000Y9700D01*
G04 Draw part J12*
G04 draw part outline for part J12*
G01X-17700Y9700D02*
G01X-17700Y7000D01*
G01X-17700Y7000D02*
G01X-20400Y7000D01*
G01X-20400Y7000D02*
G01X-20424Y3031D01*
G01X-20424Y3031D02*
G01X-17200Y-700D01*
G01X-17200Y-700D02*
G01X-14200Y-700D01*
G01X-14200Y-700D02*
G01X-14200Y3000D01*
G01X-14200Y3000D02*
G01X-10975Y3031D01*
G01X-10975Y3031D02*
G01X-10975Y6968D01*
G01X-10975Y6968D02*
G01X-13700Y9700D01*
G01X-13700Y9700D02*
G01X-17700Y9700D01*
G01X-20400Y7000D02*
G01X-17700Y7000D01*
G01X-17700Y7000D02*
G01X-17700Y9700D01*
G01X-11000Y7000D02*
G01X-13700Y7000D01*
G01X-13700Y7000D02*
G01X-13700Y9700D01*
G01X-11000Y7000D02*
G01X-13700Y9700D01*
G01X-11000Y3000D02*
G01X-14200Y3000D01*
G01X-14200Y3000D02*
G01X-14200Y-700D01*
G01X-14200Y-700D02*
G01X-17200Y-700D01*
G01X-17200Y-700D02*
G01X-17200Y3000D01*
G01X-17200Y3000D02*
G01X-20400Y3000D01*
G01X-20400Y3000D02*
G01X-17200Y-700D01*
G04 Draw part V1*
G04 draw part outline for part V1*
G54D10*
G01X6533Y11788D02*
G01X4564Y11788D01*
G01X4564Y11788D02*
G01X4564Y12811D01*
G01X4564Y12811D02*
G01X6533Y12811D01*
G01X6533Y12811D02*
G01X6533Y11788D01*
G04 draw reference designator for part V1*
G01X5300Y13477D02*
G01X5481Y13000D01*
G01X5663Y13477D02*
G01X5481Y13000D01*
G01X5890Y13409D02*
G01X5845Y13386D01*
G01X5959Y13477D02*
G01X5890Y13409D01*
G01X5959Y13477D02*
G01X5959Y13000D01*
G04 Draw part V2*
G04 draw part outline for part V2*
G01X22988Y2666D02*
G01X22988Y4635D01*
G01X22988Y4635D02*
G01X24011Y4635D01*
G01X24011Y4635D02*
G01X24011Y2666D01*
G01X24011Y2666D02*
G01X22988Y2666D01*
G04 draw reference designator for part V2*
G01X22677Y4100D02*
G01X22200Y3918D01*
G01X22677Y3736D02*
G01X22200Y3918D01*
G01X22586Y3531D02*
G01X22563Y3531D01*
G01X22631Y3509D02*
G01X22586Y3531D01*
G01X22654Y3486D02*
G01X22631Y3509D01*
G01X22677Y3440D02*
G01X22654Y3486D01*
G01X22677Y3350D02*
G01X22677Y3440D01*
G01X22677Y3350D02*
G01X22654Y3304D01*
G01X22654Y3304D02*
G01X22631Y3281D01*
G01X22631Y3281D02*
G01X22586Y3259D01*
G01X22586Y3259D02*
G01X22540Y3259D01*
G01X22540Y3259D02*
G01X22495Y3281D01*
G01X22495Y3281D02*
G01X22427Y3327D01*
G01X22427Y3327D02*
G01X22200Y3554D01*
G01X22200Y3236D02*
G01X22200Y3554D01*
G04 Draw part V3*
G04 draw part outline for part V3*
G01X-24011Y2766D02*
G01X-24011Y4735D01*
G01X-24011Y4735D02*
G01X-22988Y4735D01*
G01X-22988Y4735D02*
G01X-22988Y2766D01*
G01X-22988Y2766D02*
G01X-24011Y2766D01*
G04 draw reference designator for part V3*
G01X-22322Y4200D02*
G01X-22800Y4018D01*
G01X-22322Y3836D02*
G01X-22800Y4018D01*
G01X-22322Y3359D02*
G01X-22322Y3609D01*
G01X-22322Y3359D02*
G01X-22504Y3495D01*
G01X-22504Y3427D02*
G01X-22504Y3495D01*
G01X-22504Y3427D02*
G01X-22527Y3381D01*
G01X-22527Y3381D02*
G01X-22550Y3359D01*
G01X-22550Y3359D02*
G01X-22618Y3336D01*
G01X-22618Y3336D02*
G01X-22663Y3336D01*
G01X-22663Y3336D02*
G01X-22731Y3359D01*
G01X-22731Y3359D02*
G01X-22777Y3404D01*
G01X-22777Y3404D02*
G01X-22800Y3472D01*
G01X-22800Y3540D02*
G01X-22800Y3472D01*
G01X-22777Y3609D02*
G01X-22800Y3540D01*
G01X-22754Y3631D02*
G01X-22777Y3609D01*
G01X-22709Y3654D02*
G01X-22754Y3631D01*
G04 Draw part R10*
G04 draw part outline for part R10*
G01X-11833Y-12833D02*
G01X-11833Y-10864D01*
G01X-11833Y-10864D02*
G01X-10966Y-10864D01*
G01X-10966Y-10864D02*
G01X-10966Y-12833D01*
G01X-10966Y-12833D02*
G01X-11833Y-12833D01*
G04 draw reference designator for part R10*
G01X-11800Y-13024D02*
G01X-11800Y-13400D01*
G01X-11638Y-13024D02*
G01X-11800Y-13024D01*
G01X-11638Y-13024D02*
G01X-11585Y-13042D01*
G01X-11585Y-13042D02*
G01X-11567Y-13059D01*
G01X-11567Y-13059D02*
G01X-11549Y-13095D01*
G01X-11549Y-13095D02*
G01X-11549Y-13131D01*
G01X-11549Y-13131D02*
G01X-11567Y-13167D01*
G01X-11567Y-13167D02*
G01X-11585Y-13185D01*
G01X-11585Y-13185D02*
G01X-11638Y-13203D01*
G01X-11800Y-13203D02*
G01X-11638Y-13203D01*
G01X-11674Y-13203D02*
G01X-11549Y-13400D01*
G01X-11370Y-13077D02*
G01X-11406Y-13095D01*
G01X-11316Y-13024D02*
G01X-11370Y-13077D01*
G01X-11316Y-13024D02*
G01X-11316Y-13400D01*
G01X-11066Y-13024D02*
G01X-11119Y-13042D01*
G01X-11119Y-13042D02*
G01X-11155Y-13095D01*
G01X-11155Y-13095D02*
G01X-11173Y-13185D01*
G01X-11173Y-13185D02*
G01X-11173Y-13238D01*
G01X-11173Y-13238D02*
G01X-11155Y-13328D01*
G01X-11155Y-13328D02*
G01X-11119Y-13382D01*
G01X-11119Y-13382D02*
G01X-11066Y-13400D01*
G01X-11030Y-13400D02*
G01X-11066Y-13400D01*
G01X-10976Y-13382D02*
G01X-11030Y-13400D01*
G01X-10941Y-13328D02*
G01X-10976Y-13382D01*
G01X-10923Y-13238D02*
G01X-10941Y-13328D01*
G01X-10923Y-13185D02*
G01X-10923Y-13238D01*
G01X-10941Y-13095D02*
G01X-10923Y-13185D01*
G01X-10976Y-13042D02*
G01X-10941Y-13095D01*
G01X-11030Y-13024D02*
G01X-10976Y-13042D01*
G01X-11066Y-13024D02*
G01X-11030Y-13024D01*
G04 Draw part R9*
G04 draw part outline for part R9*
G01X-7366Y-10866D02*
G01X-7366Y-12835D01*
G01X-7366Y-12835D02*
G01X-8233Y-12835D01*
G01X-8233Y-12835D02*
G01X-8233Y-10866D01*
G01X-8233Y-10866D02*
G01X-7366Y-10866D01*
G04 draw reference designator for part R9*
G01X-8200Y-13024D02*
G01X-8200Y-13400D01*
G01X-8038Y-13024D02*
G01X-8200Y-13024D01*
G01X-8038Y-13024D02*
G01X-7985Y-13042D01*
G01X-7985Y-13042D02*
G01X-7967Y-13059D01*
G01X-7967Y-13059D02*
G01X-7949Y-13095D01*
G01X-7949Y-13095D02*
G01X-7949Y-13131D01*
G01X-7949Y-13131D02*
G01X-7967Y-13167D01*
G01X-7967Y-13167D02*
G01X-7985Y-13185D01*
G01X-7985Y-13185D02*
G01X-8038Y-13203D01*
G01X-8200Y-13203D02*
G01X-8038Y-13203D01*
G01X-8074Y-13203D02*
G01X-7949Y-13400D01*
G01X-7573Y-13149D02*
G01X-7591Y-13203D01*
G01X-7591Y-13203D02*
G01X-7627Y-13238D01*
G01X-7627Y-13238D02*
G01X-7681Y-13256D01*
G01X-7698Y-13256D02*
G01X-7681Y-13256D01*
G01X-7752Y-13238D02*
G01X-7698Y-13256D01*
G01X-7788Y-13203D02*
G01X-7752Y-13238D01*
G01X-7806Y-13149D02*
G01X-7788Y-13203D01*
G01X-7806Y-13131D02*
G01X-7806Y-13149D01*
G01X-7788Y-13077D02*
G01X-7806Y-13131D01*
G01X-7752Y-13042D02*
G01X-7788Y-13077D01*
G01X-7698Y-13024D02*
G01X-7752Y-13042D01*
G01X-7681Y-13024D02*
G01X-7698Y-13024D01*
G01X-7681Y-13024D02*
G01X-7627Y-13042D01*
G01X-7627Y-13042D02*
G01X-7591Y-13077D01*
G01X-7591Y-13077D02*
G01X-7573Y-13149D01*
G01X-7573Y-13149D02*
G01X-7573Y-13238D01*
G01X-7573Y-13238D02*
G01X-7591Y-13328D01*
G01X-7591Y-13328D02*
G01X-7627Y-13382D01*
G01X-7627Y-13382D02*
G01X-7681Y-13400D01*
G01X-7716Y-13400D02*
G01X-7681Y-13400D01*
G01X-7770Y-13382D02*
G01X-7716Y-13400D01*
G01X-7788Y-13346D02*
G01X-7770Y-13382D01*
G04 Draw part J4*
G04 draw part outline for part J4*
G54D11*
G01X20100Y-11700D02*
G01X17100Y-11700D01*
G01X17100Y-11700D02*
G01X17100Y-12700D01*
G01X17100Y-12700D02*
G01X20100Y-12700D01*
G01X20100Y-12700D02*
G01X20100Y-11700D01*
G04 draw reference designator for part J4*
G54D10*
G01X21077Y-12427D02*
G01X20713Y-12427D01*
G01X20713Y-12427D02*
G01X20645Y-12404D01*
G01X20645Y-12404D02*
G01X20622Y-12381D01*
G01X20622Y-12381D02*
G01X20600Y-12336D01*
G01X20600Y-12290D02*
G01X20600Y-12336D01*
G01X20622Y-12245D02*
G01X20600Y-12290D01*
G01X20645Y-12222D02*
G01X20622Y-12245D01*
G01X20713Y-12200D02*
G01X20645Y-12222D01*
G01X20759Y-12200D02*
G01X20713Y-12200D01*
G01X21077Y-12836D02*
G01X20759Y-12609D01*
G01X20759Y-12950D02*
G01X20759Y-12609D01*
G01X21077Y-12836D02*
G01X20600Y-12836D01*
G04 Draw part R13*
G04 draw part outline for part R13*
G01X-5066Y-10866D02*
G01X-5066Y-12835D01*
G01X-5066Y-12835D02*
G01X-5933Y-12835D01*
G01X-5933Y-12835D02*
G01X-5933Y-10866D01*
G01X-5933Y-10866D02*
G01X-5066Y-10866D01*
G04 draw reference designator for part R13*
G01X-5900Y-13024D02*
G01X-5900Y-13400D01*
G01X-5738Y-13024D02*
G01X-5900Y-13024D01*
G01X-5738Y-13024D02*
G01X-5685Y-13042D01*
G01X-5685Y-13042D02*
G01X-5667Y-13059D01*
G01X-5667Y-13059D02*
G01X-5649Y-13095D01*
G01X-5649Y-13095D02*
G01X-5649Y-13131D01*
G01X-5649Y-13131D02*
G01X-5667Y-13167D01*
G01X-5667Y-13167D02*
G01X-5685Y-13185D01*
G01X-5685Y-13185D02*
G01X-5738Y-13203D01*
G01X-5900Y-13203D02*
G01X-5738Y-13203D01*
G01X-5774Y-13203D02*
G01X-5649Y-13400D01*
G01X-5470Y-13077D02*
G01X-5506Y-13095D01*
G01X-5416Y-13024D02*
G01X-5470Y-13077D01*
G01X-5416Y-13024D02*
G01X-5416Y-13400D01*
G01X-5041Y-13024D02*
G01X-5237Y-13024D01*
G01X-5041Y-13024D02*
G01X-5148Y-13167D01*
G01X-5094Y-13167D02*
G01X-5148Y-13167D01*
G01X-5094Y-13167D02*
G01X-5058Y-13185D01*
G01X-5058Y-13185D02*
G01X-5041Y-13203D01*
G01X-5041Y-13203D02*
G01X-5023Y-13256D01*
G01X-5023Y-13256D02*
G01X-5023Y-13292D01*
G01X-5023Y-13292D02*
G01X-5041Y-13346D01*
G01X-5041Y-13346D02*
G01X-5076Y-13382D01*
G01X-5076Y-13382D02*
G01X-5130Y-13400D01*
G01X-5184Y-13400D02*
G01X-5130Y-13400D01*
G01X-5237Y-13382D02*
G01X-5184Y-13400D01*
G01X-5255Y-13364D02*
G01X-5237Y-13382D01*
G01X-5273Y-13328D02*
G01X-5255Y-13364D01*
G04 Draw part R14*
G04 draw part outline for part R14*
G01X-9766Y-10866D02*
G01X-9766Y-12835D01*
G01X-9766Y-12835D02*
G01X-10633Y-12835D01*
G01X-10633Y-12835D02*
G01X-10633Y-10866D01*
G01X-10633Y-10866D02*
G01X-9766Y-10866D01*
G04 draw reference designator for part R14*
G01X-10600Y-13024D02*
G01X-10600Y-13400D01*
G01X-10438Y-13024D02*
G01X-10600Y-13024D01*
G01X-10438Y-13024D02*
G01X-10385Y-13042D01*
G01X-10385Y-13042D02*
G01X-10367Y-13059D01*
G01X-10367Y-13059D02*
G01X-10349Y-13095D01*
G01X-10349Y-13095D02*
G01X-10349Y-13131D01*
G01X-10349Y-13131D02*
G01X-10367Y-13167D01*
G01X-10367Y-13167D02*
G01X-10385Y-13185D01*
G01X-10385Y-13185D02*
G01X-10438Y-13203D01*
G01X-10600Y-13203D02*
G01X-10438Y-13203D01*
G01X-10474Y-13203D02*
G01X-10349Y-13400D01*
G01X-10170Y-13077D02*
G01X-10206Y-13095D01*
G01X-10116Y-13024D02*
G01X-10170Y-13077D01*
G01X-10116Y-13024D02*
G01X-10116Y-13400D01*
G01X-9794Y-13024D02*
G01X-9973Y-13274D01*
G01X-9705Y-13274D02*
G01X-9973Y-13274D01*
G01X-9794Y-13024D02*
G01X-9794Y-13400D01*
G04 Draw part C7*
G04 draw part outline for part C7*
G01X20833Y188D02*
G01X18864Y188D01*
G01X18864Y188D02*
G01X18864Y1211D01*
G01X18864Y1211D02*
G01X20833Y1211D01*
G01X20833Y1211D02*
G01X20833Y188D01*
G04 draw reference designator for part C7*
G01X19718Y-90D02*
G01X19740Y-136D01*
G01X19672Y-45D02*
G01X19718Y-90D01*
G01X19627Y-22D02*
G01X19672Y-45D01*
G01X19536Y-22D02*
G01X19627Y-22D01*
G01X19536Y-22D02*
G01X19490Y-45D01*
G01X19490Y-45D02*
G01X19445Y-90D01*
G01X19445Y-90D02*
G01X19422Y-136D01*
G01X19422Y-136D02*
G01X19400Y-204D01*
G01X19400Y-204D02*
G01X19400Y-318D01*
G01X19400Y-318D02*
G01X19422Y-386D01*
G01X19422Y-386D02*
G01X19445Y-431D01*
G01X19445Y-431D02*
G01X19490Y-477D01*
G01X19490Y-477D02*
G01X19536Y-500D01*
G01X19627Y-500D02*
G01X19536Y-500D01*
G01X19672Y-477D02*
G01X19627Y-500D01*
G01X19718Y-431D02*
G01X19672Y-477D01*
G01X19740Y-386D02*
G01X19718Y-431D01*
G01X20240Y-22D02*
G01X20013Y-500D01*
G01X20240Y-22D02*
G01X19922Y-22D01*
G04 Draw part R15*
G04 Draw part R16*
G04 Draw part R17*
G04 Draw part R18*
G04 Draw part C8*
G04 Draw part C9*
G04 draw part outline for part C9*
G01X-4711Y-12833D02*
G01X-4711Y-10864D01*
G01X-4711Y-10864D02*
G01X-3688Y-10864D01*
G01X-3688Y-10864D02*
G01X-3688Y-12833D01*
G01X-3688Y-12833D02*
G01X-4711Y-12833D01*
G04 draw reference designator for part C9*
G01X-4249Y-13077D02*
G01X-4231Y-13113D01*
G01X-4285Y-13042D02*
G01X-4249Y-13077D01*
G01X-4321Y-13024D02*
G01X-4285Y-13042D01*
G01X-4392Y-13024D02*
G01X-4321Y-13024D01*
G01X-4392Y-13024D02*
G01X-4428Y-13042D01*
G01X-4428Y-13042D02*
G01X-4464Y-13077D01*
G01X-4464Y-13077D02*
G01X-4482Y-13113D01*
G01X-4482Y-13113D02*
G01X-4500Y-13167D01*
G01X-4500Y-13167D02*
G01X-4500Y-13256D01*
G01X-4500Y-13256D02*
G01X-4482Y-13310D01*
G01X-4482Y-13310D02*
G01X-4464Y-13346D01*
G01X-4464Y-13346D02*
G01X-4428Y-13382D01*
G01X-4428Y-13382D02*
G01X-4392Y-13400D01*
G01X-4321Y-13400D02*
G01X-4392Y-13400D01*
G01X-4285Y-13382D02*
G01X-4321Y-13400D01*
G01X-4249Y-13346D02*
G01X-4285Y-13382D01*
G01X-4231Y-13310D02*
G01X-4249Y-13346D01*
G01X-3855Y-13149D02*
G01X-3873Y-13203D01*
G01X-3873Y-13203D02*
G01X-3909Y-13238D01*
G01X-3909Y-13238D02*
G01X-3963Y-13256D01*
G01X-3981Y-13256D02*
G01X-3963Y-13256D01*
G01X-4034Y-13238D02*
G01X-3981Y-13256D01*
G01X-4070Y-13203D02*
G01X-4034Y-13238D01*
G01X-4088Y-13149D02*
G01X-4070Y-13203D01*
G01X-4088Y-13131D02*
G01X-4088Y-13149D01*
G01X-4070Y-13077D02*
G01X-4088Y-13131D01*
G01X-4034Y-13042D02*
G01X-4070Y-13077D01*
G01X-3981Y-13024D02*
G01X-4034Y-13042D01*
G01X-3963Y-13024D02*
G01X-3981Y-13024D01*
G01X-3963Y-13024D02*
G01X-3909Y-13042D01*
G01X-3909Y-13042D02*
G01X-3873Y-13077D01*
G01X-3873Y-13077D02*
G01X-3855Y-13149D01*
G01X-3855Y-13149D02*
G01X-3855Y-13238D01*
G01X-3855Y-13238D02*
G01X-3873Y-13328D01*
G01X-3873Y-13328D02*
G01X-3909Y-13382D01*
G01X-3909Y-13382D02*
G01X-3963Y-13400D01*
G01X-3998Y-13400D02*
G01X-3963Y-13400D01*
G01X-4052Y-13382D02*
G01X-3998Y-13400D01*
G01X-4070Y-13346D02*
G01X-4052Y-13382D01*
G04 Draw part C10*
G04 draw part outline for part C10*
G01X-9511Y-12833D02*
G01X-9511Y-10864D01*
G01X-9511Y-10864D02*
G01X-8488Y-10864D01*
G01X-8488Y-10864D02*
G01X-8488Y-12833D01*
G01X-8488Y-12833D02*
G01X-9511Y-12833D01*
G04 draw reference designator for part C10*
G01X-9149Y-13077D02*
G01X-9131Y-13113D01*
G01X-9185Y-13042D02*
G01X-9149Y-13077D01*
G01X-9221Y-13024D02*
G01X-9185Y-13042D01*
G01X-9292Y-13024D02*
G01X-9221Y-13024D01*
G01X-9292Y-13024D02*
G01X-9328Y-13042D01*
G01X-9328Y-13042D02*
G01X-9364Y-13077D01*
G01X-9364Y-13077D02*
G01X-9382Y-13113D01*
G01X-9382Y-13113D02*
G01X-9400Y-13167D01*
G01X-9400Y-13167D02*
G01X-9400Y-13256D01*
G01X-9400Y-13256D02*
G01X-9382Y-13310D01*
G01X-9382Y-13310D02*
G01X-9364Y-13346D01*
G01X-9364Y-13346D02*
G01X-9328Y-13382D01*
G01X-9328Y-13382D02*
G01X-9292Y-13400D01*
G01X-9221Y-13400D02*
G01X-9292Y-13400D01*
G01X-9185Y-13382D02*
G01X-9221Y-13400D01*
G01X-9149Y-13346D02*
G01X-9185Y-13382D01*
G01X-9131Y-13310D02*
G01X-9149Y-13346D01*
G01X-8952Y-13077D02*
G01X-8988Y-13095D01*
G01X-8898Y-13024D02*
G01X-8952Y-13077D01*
G01X-8898Y-13024D02*
G01X-8898Y-13400D01*
G01X-8648Y-13024D02*
G01X-8702Y-13042D01*
G01X-8702Y-13042D02*
G01X-8737Y-13095D01*
G01X-8737Y-13095D02*
G01X-8755Y-13185D01*
G01X-8755Y-13185D02*
G01X-8755Y-13238D01*
G01X-8755Y-13238D02*
G01X-8737Y-13328D01*
G01X-8737Y-13328D02*
G01X-8702Y-13382D01*
G01X-8702Y-13382D02*
G01X-8648Y-13400D01*
G01X-8612Y-13400D02*
G01X-8648Y-13400D01*
G01X-8558Y-13382D02*
G01X-8612Y-13400D01*
G01X-8523Y-13328D02*
G01X-8558Y-13382D01*
G01X-8505Y-13238D02*
G01X-8523Y-13328D01*
G01X-8505Y-13185D02*
G01X-8505Y-13238D01*
G01X-8523Y-13095D02*
G01X-8505Y-13185D01*
G01X-8558Y-13042D02*
G01X-8523Y-13095D01*
G01X-8612Y-13024D02*
G01X-8558Y-13042D01*
G01X-8648Y-13024D02*
G01X-8612Y-13024D01*
G04 Draw part C11*
G04 Draw part C12*
G04 draw part outline for part J13*
G04 draw part outline for part J14*
G04 draw part outline for part K1*
G04 draw part outline for part K2*
G04 draw part outline for part K3*
G04 draw part outline for part K4*
G04 draw part outline for part E1*
G04 draw part outline for part j15*
G04 draw part outline for part J16*
G04 draw part outline for part J17*
G04 draw part outline for part J18*
G04 draw part outline for part LED*
G04 draw part outline for part Banana*
G04 draw part outline for part A1*
G04 draw part outline for part QD1*
G04 draw part outline for part QD2*
G04 draw part outline for part QD3*
G04 draw part outline for part QD4*
G04 draw part outline for part QD5*
G04 draw part outline for part QD6*
G04 draw part outline for part SE1*
G04 draw part outline for part SE2*
G04 draw part outline for part cap1*
G04 draw part outline for part cap2*

G04 Draw traces*

G04 Draw Text*
G01X-2700Y-2813D02*
G01X-2654Y-2790D01*
G01X-2654Y-2790D02*
G01X-2586Y-2722D01*
G01X-2586Y-2722D02*
G01X-2586Y-3200D01*
G01X-6627Y-2722D02*
G01X-6854Y-2722D01*
G01X-6854Y-2722D02*
G01X-6877Y-2927D01*
G01X-6877Y-2927D02*
G01X-6854Y-2904D01*
G01X-6854Y-2904D02*
G01X-6786Y-2881D01*
G01X-6786Y-2881D02*
G01X-6718Y-2881D01*
G01X-6718Y-2881D02*
G01X-6650Y-2904D01*
G01X-6650Y-2904D02*
G01X-6604Y-2950D01*
G01X-6604Y-2950D02*
G01X-6581Y-3018D01*
G01X-6581Y-3018D02*
G01X-6581Y-3063D01*
G01X-6581Y-3063D02*
G01X-6604Y-3131D01*
G01X-6604Y-3131D02*
G01X-6650Y-3177D01*
G01X-6650Y-3177D02*
G01X-6718Y-3200D01*
G01X-6718Y-3200D02*
G01X-6786Y-3200D01*
G01X-6786Y-3200D02*
G01X-6854Y-3177D01*
G01X-6854Y-3177D02*
G01X-6877Y-3154D01*
G01X-6877Y-3154D02*
G01X-6900Y-3109D01*
G01X-12100Y-2813D02*
G01X-12054Y-2790D01*
G01X-12054Y-2790D02*
G01X-11986Y-2722D01*
G01X-11986Y-2722D02*
G01X-11986Y-3200D01*
G01X-11668Y-2722D02*
G01X-11736Y-2745D01*
G01X-11736Y-2745D02*
G01X-11781Y-2813D01*
G01X-11781Y-2813D02*
G01X-11804Y-2927D01*
G01X-11804Y-2927D02*
G01X-11804Y-2995D01*
G01X-11804Y-2995D02*
G01X-11781Y-3109D01*
G01X-11781Y-3109D02*
G01X-11736Y-3177D01*
G01X-11736Y-3177D02*
G01X-11668Y-3200D01*
G01X-11668Y-3200D02*
G01X-11622Y-3200D01*
G01X-11622Y-3200D02*
G01X-11554Y-3177D01*
G01X-11554Y-3177D02*
G01X-11509Y-3109D01*
G01X-11509Y-3109D02*
G01X-11486Y-2995D01*
G01X-11486Y-2995D02*
G01X-11486Y-2927D01*
G01X-11486Y-2927D02*
G01X-11509Y-2813D01*
G01X-11509Y-2813D02*
G01X-11554Y-2745D01*
G01X-11554Y-2745D02*
G01X-11622Y-2722D01*
G01X-11622Y-2722D02*
G01X-11668Y-2722D01*
G01X-17000Y-2813D02*
G01X-16954Y-2790D01*
G01X-16954Y-2790D02*
G01X-16886Y-2722D01*
G01X-16886Y-2722D02*
G01X-16886Y-3200D01*
G01X-16431Y-2722D02*
G01X-16659Y-2722D01*
G01X-16659Y-2722D02*
G01X-16681Y-2927D01*
G01X-16681Y-2927D02*
G01X-16659Y-2904D01*
G01X-16659Y-2904D02*
G01X-16590Y-2881D01*
G01X-16590Y-2881D02*
G01X-16522Y-2881D01*
G01X-16522Y-2881D02*
G01X-16454Y-2904D01*
G01X-16454Y-2904D02*
G01X-16409Y-2950D01*
G01X-16409Y-2950D02*
G01X-16386Y-3018D01*
G01X-16386Y-3018D02*
G01X-16386Y-3063D01*
G01X-16386Y-3063D02*
G01X-16409Y-3131D01*
G01X-16409Y-3131D02*
G01X-16454Y-3177D01*
G01X-16454Y-3177D02*
G01X-16522Y-3200D01*
G01X-16522Y-3200D02*
G01X-16590Y-3200D01*
G01X-16590Y-3200D02*
G01X-16659Y-3177D01*
G01X-16659Y-3177D02*
G01X-16681Y-3154D01*
G01X-16681Y-3154D02*
G01X-16704Y-3109D01*
G01X-22077Y-2836D02*
G01X-22077Y-2813D01*
G01X-22077Y-2813D02*
G01X-22054Y-2768D01*
G01X-22054Y-2768D02*
G01X-22031Y-2745D01*
G01X-22031Y-2745D02*
G01X-21986Y-2722D01*
G01X-21986Y-2722D02*
G01X-21895Y-2722D01*
G01X-21895Y-2722D02*
G01X-21850Y-2745D01*
G01X-21850Y-2745D02*
G01X-21827Y-2768D01*
G01X-21827Y-2768D02*
G01X-21804Y-2813D01*
G01X-21804Y-2813D02*
G01X-21804Y-2859D01*
G01X-21804Y-2859D02*
G01X-21827Y-2904D01*
G01X-21827Y-2904D02*
G01X-21872Y-2972D01*
G01X-21872Y-2972D02*
G01X-22100Y-3200D01*
G01X-22100Y-3200D02*
G01X-21781Y-3200D01*
G01X-21463Y-2722D02*
G01X-21531Y-2745D01*
G01X-21531Y-2745D02*
G01X-21577Y-2813D01*
G01X-21577Y-2813D02*
G01X-21600Y-2927D01*
G01X-21600Y-2927D02*
G01X-21600Y-2995D01*
G01X-21600Y-2995D02*
G01X-21577Y-3109D01*
G01X-21577Y-3109D02*
G01X-21531Y-3177D01*
G01X-21531Y-3177D02*
G01X-21463Y-3200D01*
G01X-21463Y-3200D02*
G01X-21418Y-3200D01*
G01X-21418Y-3200D02*
G01X-21350Y-3177D01*
G01X-21350Y-3177D02*
G01X-21304Y-3109D01*
G01X-21304Y-3109D02*
G01X-21281Y-2995D01*
G01X-21281Y-2995D02*
G01X-21281Y-2927D01*
G01X-21281Y-2927D02*
G01X-21304Y-2813D01*
G01X-21304Y-2813D02*
G01X-21350Y-2745D01*
G01X-21350Y-2745D02*
G01X-21418Y-2722D01*
G01X-21418Y-2722D02*
G01X-21463Y-2722D01*
G01X-22077Y-10336D02*
G01X-22077Y-10313D01*
G01X-22077Y-10313D02*
G01X-22054Y-10268D01*
G01X-22054Y-10268D02*
G01X-22031Y-10245D01*
G01X-22031Y-10245D02*
G01X-21986Y-10222D01*
G01X-21986Y-10222D02*
G01X-21895Y-10222D01*
G01X-21895Y-10222D02*
G01X-21850Y-10245D01*
G01X-21850Y-10245D02*
G01X-21827Y-10268D01*
G01X-21827Y-10268D02*
G01X-21804Y-10313D01*
G01X-21804Y-10313D02*
G01X-21804Y-10359D01*
G01X-21804Y-10359D02*
G01X-21827Y-10404D01*
G01X-21827Y-10404D02*
G01X-21872Y-10472D01*
G01X-21872Y-10472D02*
G01X-22100Y-10700D01*
G01X-22100Y-10700D02*
G01X-21781Y-10700D01*
G01X-21600Y-10313D02*
G01X-21554Y-10290D01*
G01X-21554Y-10290D02*
G01X-21486Y-10222D01*
G01X-21486Y-10222D02*
G01X-21486Y-10700D01*
G01X-18177Y-10236D02*
G01X-18177Y-10213D01*
G01X-18177Y-10213D02*
G01X-18154Y-10168D01*
G01X-18154Y-10168D02*
G01X-18131Y-10145D01*
G01X-18131Y-10145D02*
G01X-18086Y-10122D01*
G01X-18086Y-10122D02*
G01X-17995Y-10122D01*
G01X-17995Y-10122D02*
G01X-17950Y-10145D01*
G01X-17950Y-10145D02*
G01X-17927Y-10168D01*
G01X-17927Y-10168D02*
G01X-17904Y-10213D01*
G01X-17904Y-10213D02*
G01X-17904Y-10259D01*
G01X-17904Y-10259D02*
G01X-17927Y-10304D01*
G01X-17927Y-10304D02*
G01X-17972Y-10372D01*
G01X-17972Y-10372D02*
G01X-18200Y-10600D01*
G01X-18200Y-10600D02*
G01X-17881Y-10600D01*
G01X-17427Y-10122D02*
G01X-17654Y-10122D01*
G01X-17654Y-10122D02*
G01X-17677Y-10327D01*
G01X-17677Y-10327D02*
G01X-17654Y-10304D01*
G01X-17654Y-10304D02*
G01X-17586Y-10281D01*
G01X-17586Y-10281D02*
G01X-17518Y-10281D01*
G01X-17518Y-10281D02*
G01X-17450Y-10304D01*
G01X-17450Y-10304D02*
G01X-17404Y-10350D01*
G01X-17404Y-10350D02*
G01X-17381Y-10418D01*
G01X-17381Y-10418D02*
G01X-17381Y-10463D01*
G01X-17381Y-10463D02*
G01X-17404Y-10531D01*
G01X-17404Y-10531D02*
G01X-17450Y-10577D01*
G01X-17450Y-10577D02*
G01X-17518Y-10600D01*
G01X-17518Y-10600D02*
G01X-17586Y-10600D01*
G01X-17586Y-10600D02*
G01X-17654Y-10577D01*
G01X-17654Y-10577D02*
G01X-17677Y-10554D01*
G01X-17677Y-10554D02*
G01X-17700Y-10509D01*
G01X-13154Y-10222D02*
G01X-12904Y-10222D01*
G01X-12904Y-10222D02*
G01X-13040Y-10404D01*
G01X-13040Y-10404D02*
G01X-12972Y-10404D01*
G01X-12972Y-10404D02*
G01X-12927Y-10427D01*
G01X-12927Y-10427D02*
G01X-12904Y-10450D01*
G01X-12904Y-10450D02*
G01X-12881Y-10518D01*
G01X-12881Y-10518D02*
G01X-12881Y-10563D01*
G01X-12881Y-10563D02*
G01X-12904Y-10631D01*
G01X-12904Y-10631D02*
G01X-12950Y-10677D01*
G01X-12950Y-10677D02*
G01X-13018Y-10700D01*
G01X-13018Y-10700D02*
G01X-13086Y-10700D01*
G01X-13086Y-10700D02*
G01X-13154Y-10677D01*
G01X-13154Y-10677D02*
G01X-13177Y-10654D01*
G01X-13177Y-10654D02*
G01X-13200Y-10609D01*
G01X-12563Y-10222D02*
G01X-12631Y-10245D01*
G01X-12631Y-10245D02*
G01X-12677Y-10313D01*
G01X-12677Y-10313D02*
G01X-12700Y-10427D01*
G01X-12700Y-10427D02*
G01X-12700Y-10495D01*
G01X-12700Y-10495D02*
G01X-12677Y-10609D01*
G01X-12677Y-10609D02*
G01X-12631Y-10677D01*
G01X-12631Y-10677D02*
G01X-12563Y-10700D01*
G01X-12563Y-10700D02*
G01X-12518Y-10700D01*
G01X-12518Y-10700D02*
G01X-12450Y-10677D01*
G01X-12450Y-10677D02*
G01X-12404Y-10609D01*
G01X-12404Y-10609D02*
G01X-12381Y-10495D01*
G01X-12381Y-10495D02*
G01X-12381Y-10427D01*
G01X-12381Y-10427D02*
G01X-12404Y-10313D01*
G01X-12404Y-10313D02*
G01X-12450Y-10245D01*
G01X-12450Y-10245D02*
G01X-12518Y-10222D01*
G01X-12518Y-10222D02*
G01X-12563Y-10222D01*
G01X-8154Y-10222D02*
G01X-7904Y-10222D01*
G01X-7904Y-10222D02*
G01X-8040Y-10404D01*
G01X-8040Y-10404D02*
G01X-7972Y-10404D01*
G01X-7972Y-10404D02*
G01X-7927Y-10427D01*
G01X-7927Y-10427D02*
G01X-7904Y-10450D01*
G01X-7904Y-10450D02*
G01X-7881Y-10518D01*
G01X-7881Y-10518D02*
G01X-7881Y-10563D01*
G01X-7881Y-10563D02*
G01X-7904Y-10631D01*
G01X-7904Y-10631D02*
G01X-7950Y-10677D01*
G01X-7950Y-10677D02*
G01X-8018Y-10700D01*
G01X-8018Y-10700D02*
G01X-8086Y-10700D01*
G01X-8086Y-10700D02*
G01X-8154Y-10677D01*
G01X-8154Y-10677D02*
G01X-8177Y-10654D01*
G01X-8177Y-10654D02*
G01X-8200Y-10609D01*
G01X-7427Y-10222D02*
G01X-7654Y-10222D01*
G01X-7654Y-10222D02*
G01X-7677Y-10427D01*
G01X-7677Y-10427D02*
G01X-7654Y-10404D01*
G01X-7654Y-10404D02*
G01X-7586Y-10381D01*
G01X-7586Y-10381D02*
G01X-7518Y-10381D01*
G01X-7518Y-10381D02*
G01X-7450Y-10404D01*
G01X-7450Y-10404D02*
G01X-7404Y-10450D01*
G01X-7404Y-10450D02*
G01X-7381Y-10518D01*
G01X-7381Y-10518D02*
G01X-7381Y-10563D01*
G01X-7381Y-10563D02*
G01X-7404Y-10631D01*
G01X-7404Y-10631D02*
G01X-7450Y-10677D01*
G01X-7450Y-10677D02*
G01X-7518Y-10700D01*
G01X-7518Y-10700D02*
G01X-7586Y-10700D01*
G01X-7586Y-10700D02*
G01X-7654Y-10677D01*
G01X-7654Y-10677D02*
G01X-7677Y-10654D01*
G01X-7677Y-10654D02*
G01X-7700Y-10609D01*
G01X-2872Y-10222D02*
G01X-3100Y-10540D01*
G01X-3100Y-10540D02*
G01X-2759Y-10540D01*
G01X-2872Y-10222D02*
G01X-2872Y-10700D01*
G01X-2440Y-10222D02*
G01X-2509Y-10245D01*
G01X-2509Y-10245D02*
G01X-2554Y-10313D01*
G01X-2554Y-10313D02*
G01X-2577Y-10427D01*
G01X-2577Y-10427D02*
G01X-2577Y-10495D01*
G01X-2577Y-10495D02*
G01X-2554Y-10609D01*
G01X-2554Y-10609D02*
G01X-2509Y-10677D01*
G01X-2509Y-10677D02*
G01X-2440Y-10700D01*
G01X-2440Y-10700D02*
G01X-2395Y-10700D01*
G01X-2395Y-10700D02*
G01X-2327Y-10677D01*
G01X-2327Y-10677D02*
G01X-2281Y-10609D01*
G01X-2281Y-10609D02*
G01X-2259Y-10495D01*
G01X-2259Y-10495D02*
G01X-2259Y-10427D01*
G01X-2259Y-10427D02*
G01X-2281Y-10313D01*
G01X-2281Y-10313D02*
G01X-2327Y-10245D01*
G01X-2327Y-10245D02*
G01X-2395Y-10222D01*
G01X-2395Y-10222D02*
G01X-2440Y-10222D01*
G54D11*
G01X-18400Y10636D02*
G01X-18400Y10000D01*
G01X-18400Y10454D02*
G01X-18263Y10590D01*
G01X-18263Y10590D02*
G01X-18172Y10636D01*
G01X-18172Y10636D02*
G01X-18036Y10636D01*
G01X-18036Y10636D02*
G01X-17945Y10590D01*
G01X-17945Y10590D02*
G01X-17900Y10454D01*
G01X-17900Y10454D02*
G01X-17900Y10000D01*
G01X-17900Y10454D02*
G01X-17763Y10590D01*
G01X-17763Y10590D02*
G01X-17672Y10636D01*
G01X-17672Y10636D02*
G01X-17536Y10636D01*
G01X-17536Y10636D02*
G01X-17445Y10590D01*
G01X-17445Y10590D02*
G01X-17400Y10454D01*
G01X-17400Y10454D02*
G01X-17400Y10000D01*
G01X-17036Y10954D02*
G01X-17036Y10000D01*
G01X-17036Y10000D02*
G01X-16490Y10000D01*
G01X-15581Y10636D02*
G01X-15581Y10000D01*
G01X-15581Y10500D02*
G01X-15672Y10590D01*
G01X-15672Y10590D02*
G01X-15763Y10636D01*
G01X-15763Y10636D02*
G01X-15900Y10636D01*
G01X-15900Y10636D02*
G01X-15990Y10590D01*
G01X-15990Y10590D02*
G01X-16081Y10500D01*
G01X-16081Y10500D02*
G01X-16127Y10363D01*
G01X-16127Y10363D02*
G01X-16127Y10272D01*
G01X-16127Y10272D02*
G01X-16081Y10136D01*
G01X-16081Y10136D02*
G01X-15990Y10045D01*
G01X-15990Y10045D02*
G01X-15900Y10000D01*
G01X-15900Y10000D02*
G01X-15763Y10000D01*
G01X-15763Y10000D02*
G01X-15672Y10045D01*
G01X-15672Y10045D02*
G01X-15581Y10136D01*
G01X-15218Y10636D02*
G01X-15218Y10181D01*
G01X-15218Y10181D02*
G01X-15172Y10045D01*
G01X-15172Y10045D02*
G01X-15081Y10000D01*
G01X-15081Y10000D02*
G01X-14945Y10000D01*
G01X-14945Y10000D02*
G01X-14854Y10045D01*
G01X-14854Y10045D02*
G01X-14718Y10181D01*
G01X-14718Y10636D02*
G01X-14718Y10000D01*
G01X-14354Y10636D02*
G01X-14354Y10000D01*
G01X-14354Y10454D02*
G01X-14218Y10590D01*
G01X-14218Y10590D02*
G01X-14127Y10636D01*
G01X-14127Y10636D02*
G01X-13990Y10636D01*
G01X-13990Y10636D02*
G01X-13900Y10590D01*
G01X-13900Y10590D02*
G01X-13854Y10454D01*
G01X-13854Y10454D02*
G01X-13854Y10000D01*
G01X-12945Y10500D02*
G01X-13036Y10590D01*
G01X-13036Y10590D02*
G01X-13127Y10636D01*
G01X-13127Y10636D02*
G01X-13263Y10636D01*
G01X-13263Y10636D02*
G01X-13354Y10590D01*
G01X-13354Y10590D02*
G01X-13445Y10500D01*
G01X-13445Y10500D02*
G01X-13490Y10363D01*
G01X-13490Y10363D02*
G01X-13490Y10272D01*
G01X-13490Y10272D02*
G01X-13445Y10136D01*
G01X-13445Y10136D02*
G01X-13354Y10045D01*
G01X-13354Y10045D02*
G01X-13263Y10000D01*
G01X-13263Y10000D02*
G01X-13127Y10000D01*
G01X-13127Y10000D02*
G01X-13036Y10045D01*
G01X-13036Y10045D02*
G01X-12945Y10136D01*
G01X-12581Y10954D02*
G01X-12581Y10000D01*
G01X-12581Y10454D02*
G01X-12445Y10590D01*
G01X-12445Y10590D02*
G01X-12354Y10636D01*
G01X-12354Y10636D02*
G01X-12218Y10636D01*
G01X-12218Y10636D02*
G01X-12127Y10590D01*
G01X-12127Y10590D02*
G01X-12081Y10454D01*
G01X-12081Y10454D02*
G01X-12081Y10000D01*
G01X-10900Y10954D02*
G01X-10400Y10954D01*
G01X-10400Y10954D02*
G01X-10672Y10590D01*
G01X-10672Y10590D02*
G01X-10536Y10590D01*
G01X-10536Y10590D02*
G01X-10445Y10545D01*
G01X-10445Y10545D02*
G01X-10400Y10500D01*
G01X-10400Y10500D02*
G01X-10354Y10363D01*
G01X-10354Y10363D02*
G01X-10354Y10272D01*
G01X-10354Y10272D02*
G01X-10400Y10136D01*
G01X-10400Y10136D02*
G01X-10490Y10045D01*
G01X-10490Y10045D02*
G01X-10627Y10000D01*
G01X-10627Y10000D02*
G01X-10763Y10000D01*
G01X-10763Y10000D02*
G01X-10900Y10045D01*
G01X-10900Y10045D02*
G01X-10945Y10090D01*
G01X-10945Y10090D02*
G01X-10990Y10181D01*
G01X-9945Y10090D02*
G01X-9990Y10045D01*
G01X-9990Y10045D02*
G01X-9945Y10000D01*
G01X-9945Y10000D02*
G01X-9900Y10045D01*
G01X-9900Y10045D02*
G01X-9945Y10090D01*
G01X-9263Y10954D02*
G01X-9400Y10909D01*
G01X-9400Y10909D02*
G01X-9490Y10772D01*
G01X-9490Y10772D02*
G01X-9536Y10545D01*
G01X-9536Y10545D02*
G01X-9536Y10409D01*
G01X-9536Y10409D02*
G01X-9490Y10181D01*
G01X-9490Y10181D02*
G01X-9400Y10045D01*
G01X-9400Y10045D02*
G01X-9263Y10000D01*
G01X-9263Y10000D02*
G01X-9172Y10000D01*
G01X-9172Y10000D02*
G01X-9036Y10045D01*
G01X-9036Y10045D02*
G01X-8945Y10181D01*
G01X-8945Y10181D02*
G01X-8900Y10409D01*
G01X-8900Y10409D02*
G01X-8900Y10545D01*
G01X-8900Y10545D02*
G01X-8945Y10772D01*
G01X-8945Y10772D02*
G01X-9036Y10909D01*
G01X-9036Y10909D02*
G01X-9172Y10954D01*
G01X-9172Y10954D02*
G01X-9263Y10954D01*
G01X-7809Y10954D02*
G01X-7809Y10000D01*
G01X-7809Y10954D02*
G01X-7400Y10954D01*
G01X-7400Y10954D02*
G01X-7263Y10909D01*
G01X-7263Y10909D02*
G01X-7218Y10863D01*
G01X-7218Y10863D02*
G01X-7172Y10772D01*
G01X-7172Y10772D02*
G01X-7172Y10636D01*
G01X-7172Y10636D02*
G01X-7218Y10545D01*
G01X-7218Y10545D02*
G01X-7263Y10500D01*
G01X-7263Y10500D02*
G01X-7400Y10454D01*
G01X-7400Y10454D02*
G01X-7809Y10454D01*
G01X-6263Y10636D02*
G01X-6263Y10000D01*
G01X-6263Y10500D02*
G01X-6354Y10590D01*
G01X-6354Y10590D02*
G01X-6445Y10636D01*
G01X-6445Y10636D02*
G01X-6581Y10636D01*
G01X-6581Y10636D02*
G01X-6672Y10590D01*
G01X-6672Y10590D02*
G01X-6763Y10500D01*
G01X-6763Y10500D02*
G01X-6809Y10363D01*
G01X-6809Y10363D02*
G01X-6809Y10272D01*
G01X-6809Y10272D02*
G01X-6763Y10136D01*
G01X-6763Y10136D02*
G01X-6672Y10045D01*
G01X-6672Y10045D02*
G01X-6581Y10000D01*
G01X-6581Y10000D02*
G01X-6445Y10000D01*
G01X-6445Y10000D02*
G01X-6354Y10045D01*
G01X-6354Y10045D02*
G01X-6263Y10136D01*
G01X-5354Y10954D02*
G01X-5354Y10000D01*
G01X-5354Y10500D02*
G01X-5445Y10590D01*
G01X-5445Y10590D02*
G01X-5536Y10636D01*
G01X-5536Y10636D02*
G01X-5672Y10636D01*
G01X-5672Y10636D02*
G01X-5763Y10590D01*
G01X-5763Y10590D02*
G01X-5854Y10500D01*
G01X-5854Y10500D02*
G01X-5900Y10363D01*
G01X-5900Y10363D02*
G01X-5900Y10272D01*
G01X-5900Y10272D02*
G01X-5854Y10136D01*
G01X-5854Y10136D02*
G01X-5763Y10045D01*
G01X-5763Y10045D02*
G01X-5672Y10000D01*
G01X-5672Y10000D02*
G01X-5536Y10000D01*
G01X-5536Y10000D02*
G01X-5445Y10045D01*
G01X-5445Y10045D02*
G01X-5354Y10136D01*
G01X-12400Y9454D02*
G01X-12400Y8500D01*
G01X-12400Y9454D02*
G01X-11990Y9454D01*
G01X-11990Y9454D02*
G01X-11854Y9409D01*
G01X-11854Y9409D02*
G01X-11809Y9363D01*
G01X-11809Y9363D02*
G01X-11763Y9272D01*
G01X-11763Y9272D02*
G01X-11763Y9136D01*
G01X-11763Y9136D02*
G01X-11809Y9045D01*
G01X-11809Y9045D02*
G01X-11854Y9000D01*
G01X-11854Y9000D02*
G01X-11990Y8954D01*
G01X-11990Y8954D02*
G01X-12400Y8954D01*
G01X-11036Y9454D02*
G01X-11400Y8500D01*
G01X-11036Y9454D02*
G01X-10672Y8500D01*
G01X-11263Y8818D02*
G01X-10809Y8818D01*
G01X-10309Y9454D02*
G01X-10309Y8500D01*
G01X-10309Y9454D02*
G01X-9990Y9454D01*
G01X-9990Y9454D02*
G01X-9854Y9409D01*
G01X-9854Y9409D02*
G01X-9763Y9318D01*
G01X-9763Y9318D02*
G01X-9718Y9227D01*
G01X-9718Y9227D02*
G01X-9672Y9090D01*
G01X-9672Y9090D02*
G01X-9672Y8863D01*
G01X-9672Y8863D02*
G01X-9718Y8727D01*
G01X-9718Y8727D02*
G01X-9763Y8636D01*
G01X-9763Y8636D02*
G01X-9854Y8545D01*
G01X-9854Y8545D02*
G01X-9990Y8500D01*
G01X-9990Y8500D02*
G01X-10309Y8500D01*
G01X-9263Y9227D02*
G01X-9263Y9272D01*
G01X-9263Y9272D02*
G01X-9218Y9363D01*
G01X-9218Y9363D02*
G01X-9172Y9409D01*
G01X-9172Y9409D02*
G01X-9081Y9454D01*
G01X-9081Y9454D02*
G01X-8900Y9454D01*
G01X-8900Y9454D02*
G01X-8809Y9409D01*
G01X-8809Y9409D02*
G01X-8763Y9363D01*
G01X-8763Y9363D02*
G01X-8718Y9272D01*
G01X-8718Y9272D02*
G01X-8718Y9181D01*
G01X-8718Y9181D02*
G01X-8763Y9090D01*
G01X-8763Y9090D02*
G01X-8854Y8954D01*
G01X-8854Y8954D02*
G01X-9309Y8500D01*
G01X-9309Y8500D02*
G01X-8672Y8500D01*
G01X8200Y9354D02*
G01X8200Y8400D01*
G01X8200Y9354D02*
G01X8609Y9354D01*
G01X8609Y9354D02*
G01X8745Y9309D01*
G01X8745Y9309D02*
G01X8790Y9263D01*
G01X8790Y9263D02*
G01X8836Y9172D01*
G01X8836Y9172D02*
G01X8836Y9036D01*
G01X8836Y9036D02*
G01X8790Y8945D01*
G01X8790Y8945D02*
G01X8745Y8900D01*
G01X8745Y8900D02*
G01X8609Y8854D01*
G01X8609Y8854D02*
G01X8200Y8854D01*
G01X9563Y9354D02*
G01X9200Y8400D01*
G01X9563Y9354D02*
G01X9927Y8400D01*
G01X9336Y8718D02*
G01X9790Y8718D01*
G01X10290Y9354D02*
G01X10290Y8400D01*
G01X10290Y9354D02*
G01X10609Y9354D01*
G01X10609Y9354D02*
G01X10745Y9309D01*
G01X10745Y9309D02*
G01X10836Y9218D01*
G01X10836Y9218D02*
G01X10881Y9127D01*
G01X10881Y9127D02*
G01X10927Y8990D01*
G01X10927Y8990D02*
G01X10927Y8763D01*
G01X10927Y8763D02*
G01X10881Y8627D01*
G01X10881Y8627D02*
G01X10836Y8536D01*
G01X10836Y8536D02*
G01X10745Y8445D01*
G01X10745Y8445D02*
G01X10609Y8400D01*
G01X10609Y8400D02*
G01X10290Y8400D01*
G01X11290Y9172D02*
G01X11381Y9218D01*
G01X11381Y9218D02*
G01X11518Y9354D01*
G01X11518Y9354D02*
G01X11518Y8400D01*
G01X5040Y10663D02*
G01X5018Y10709D01*
G01X5018Y10709D02*
G01X4972Y10754D01*
G01X4972Y10754D02*
G01X4927Y10777D01*
G01X4927Y10777D02*
G01X4836Y10777D01*
G01X4836Y10777D02*
G01X4790Y10754D01*
G01X4790Y10754D02*
G01X4745Y10709D01*
G01X4745Y10709D02*
G01X4722Y10663D01*
G01X4722Y10663D02*
G01X4700Y10595D01*
G01X4700Y10595D02*
G01X4700Y10481D01*
G01X4700Y10481D02*
G01X4722Y10413D01*
G01X4722Y10413D02*
G01X4745Y10368D01*
G01X4745Y10368D02*
G01X4790Y10322D01*
G01X4790Y10322D02*
G01X4836Y10300D01*
G01X4836Y10300D02*
G01X4927Y10300D01*
G01X4927Y10300D02*
G01X4972Y10322D01*
G01X4972Y10322D02*
G01X5018Y10368D01*
G01X5018Y10368D02*
G01X5040Y10413D01*
G01X5336Y10618D02*
G01X5290Y10595D01*
G01X5290Y10595D02*
G01X5245Y10550D01*
G01X5245Y10550D02*
G01X5222Y10481D01*
G01X5222Y10481D02*
G01X5222Y10436D01*
G01X5222Y10436D02*
G01X5245Y10368D01*
G01X5245Y10368D02*
G01X5290Y10322D01*
G01X5290Y10322D02*
G01X5336Y10300D01*
G01X5336Y10300D02*
G01X5404Y10300D01*
G01X5404Y10300D02*
G01X5449Y10322D01*
G01X5449Y10322D02*
G01X5495Y10368D01*
G01X5495Y10368D02*
G01X5518Y10436D01*
G01X5518Y10436D02*
G01X5518Y10481D01*
G01X5518Y10481D02*
G01X5495Y10550D01*
G01X5495Y10550D02*
G01X5449Y10595D01*
G01X5449Y10595D02*
G01X5404Y10618D01*
G01X5404Y10618D02*
G01X5336Y10618D01*
G01X5700Y10618D02*
G01X5700Y10140D01*
G01X5700Y10550D02*
G01X5745Y10595D01*
G01X5745Y10595D02*
G01X5790Y10618D01*
G01X5790Y10618D02*
G01X5859Y10618D01*
G01X5859Y10618D02*
G01X5904Y10595D01*
G01X5904Y10595D02*
G01X5950Y10550D01*
G01X5950Y10550D02*
G01X5972Y10481D01*
G01X5972Y10481D02*
G01X5972Y10436D01*
G01X5972Y10436D02*
G01X5950Y10368D01*
G01X5950Y10368D02*
G01X5904Y10322D01*
G01X5904Y10322D02*
G01X5859Y10300D01*
G01X5859Y10300D02*
G01X5790Y10300D01*
G01X5790Y10300D02*
G01X5745Y10322D01*
G01X5745Y10322D02*
G01X5700Y10368D01*
G01X6177Y10618D02*
G01X6313Y10300D01*
G01X6449Y10618D02*
G01X6313Y10300D01*
G01X6313Y10300D02*
G01X6268Y10209D01*
G01X6268Y10209D02*
G01X6222Y10163D01*
G01X6222Y10163D02*
G01X6177Y10140D01*
G01X6177Y10140D02*
G01X6154Y10140D01*
G01X6631Y10618D02*
G01X6631Y10300D01*
G01X6631Y10481D02*
G01X6654Y10550D01*
G01X6654Y10550D02*
G01X6699Y10595D01*
G01X6699Y10595D02*
G01X6745Y10618D01*
G01X6745Y10618D02*
G01X6813Y10618D01*
G01X6995Y10777D02*
G01X7018Y10754D01*
G01X7018Y10754D02*
G01X7040Y10777D01*
G01X7040Y10777D02*
G01X7018Y10800D01*
G01X7018Y10800D02*
G01X6995Y10777D01*
G01X7018Y10618D02*
G01X7018Y10300D01*
G01X7495Y10618D02*
G01X7495Y10254D01*
G01X7495Y10254D02*
G01X7472Y10186D01*
G01X7472Y10186D02*
G01X7449Y10163D01*
G01X7449Y10163D02*
G01X7404Y10140D01*
G01X7404Y10140D02*
G01X7336Y10140D01*
G01X7336Y10140D02*
G01X7290Y10163D01*
G01X7495Y10550D02*
G01X7449Y10595D01*
G01X7449Y10595D02*
G01X7404Y10618D01*
G01X7404Y10618D02*
G01X7336Y10618D01*
G01X7336Y10618D02*
G01X7290Y10595D01*
G01X7290Y10595D02*
G01X7245Y10550D01*
G01X7245Y10550D02*
G01X7222Y10481D01*
G01X7222Y10481D02*
G01X7222Y10436D01*
G01X7222Y10436D02*
G01X7245Y10368D01*
G01X7245Y10368D02*
G01X7290Y10322D01*
G01X7290Y10322D02*
G01X7336Y10300D01*
G01X7336Y10300D02*
G01X7404Y10300D01*
G01X7404Y10300D02*
G01X7449Y10322D01*
G01X7449Y10322D02*
G01X7495Y10368D01*
G01X7677Y10777D02*
G01X7677Y10300D01*
G01X7677Y10527D02*
G01X7745Y10595D01*
G01X7745Y10595D02*
G01X7790Y10618D01*
G01X7790Y10618D02*
G01X7859Y10618D01*
G01X7859Y10618D02*
G01X7904Y10595D01*
G01X7904Y10595D02*
G01X7927Y10527D01*
G01X7927Y10527D02*
G01X7927Y10300D01*
G01X8177Y10777D02*
G01X8177Y10390D01*
G01X8177Y10390D02*
G01X8199Y10322D01*
G01X8199Y10322D02*
G01X8245Y10300D01*
G01X8245Y10300D02*
G01X8290Y10300D01*
G01X8109Y10618D02*
G01X8268Y10618D01*
G01X8859Y10663D02*
G01X8859Y10686D01*
G01X8859Y10686D02*
G01X8881Y10731D01*
G01X8881Y10731D02*
G01X8904Y10754D01*
G01X8904Y10754D02*
G01X8949Y10777D01*
G01X8949Y10777D02*
G01X9040Y10777D01*
G01X9040Y10777D02*
G01X9086Y10754D01*
G01X9086Y10754D02*
G01X9109Y10731D01*
G01X9109Y10731D02*
G01X9131Y10686D01*
G01X9131Y10686D02*
G01X9131Y10640D01*
G01X9131Y10640D02*
G01X9109Y10595D01*
G01X9109Y10595D02*
G01X9063Y10527D01*
G01X9063Y10527D02*
G01X8836Y10300D01*
G01X8836Y10300D02*
G01X9154Y10300D01*
G01X9472Y10777D02*
G01X9404Y10754D01*
G01X9404Y10754D02*
G01X9359Y10686D01*
G01X9359Y10686D02*
G01X9336Y10572D01*
G01X9336Y10572D02*
G01X9336Y10504D01*
G01X9336Y10504D02*
G01X9359Y10390D01*
G01X9359Y10390D02*
G01X9404Y10322D01*
G01X9404Y10322D02*
G01X9472Y10300D01*
G01X9472Y10300D02*
G01X9518Y10300D01*
G01X9518Y10300D02*
G01X9586Y10322D01*
G01X9586Y10322D02*
G01X9631Y10390D01*
G01X9631Y10390D02*
G01X9654Y10504D01*
G01X9654Y10504D02*
G01X9654Y10572D01*
G01X9654Y10572D02*
G01X9631Y10686D01*
G01X9631Y10686D02*
G01X9586Y10754D01*
G01X9586Y10754D02*
G01X9518Y10777D01*
G01X9518Y10777D02*
G01X9472Y10777D01*
G01X9836Y10686D02*
G01X9881Y10709D01*
G01X9881Y10709D02*
G01X9949Y10777D01*
G01X9949Y10777D02*
G01X9949Y10300D01*
G01X10404Y10777D02*
G01X10177Y10777D01*
G01X10177Y10777D02*
G01X10154Y10572D01*
G01X10154Y10572D02*
G01X10177Y10595D01*
G01X10177Y10595D02*
G01X10245Y10618D01*
G01X10245Y10618D02*
G01X10313Y10618D01*
G01X10313Y10618D02*
G01X10381Y10595D01*
G01X10381Y10595D02*
G01X10427Y10550D01*
G01X10427Y10550D02*
G01X10449Y10481D01*
G01X10449Y10481D02*
G01X10449Y10436D01*
G01X10449Y10436D02*
G01X10427Y10368D01*
G01X10427Y10368D02*
G01X10381Y10322D01*
G01X10381Y10322D02*
G01X10313Y10300D01*
G01X10313Y10300D02*
G01X10245Y10300D01*
G01X10245Y10300D02*
G01X10177Y10322D01*
G01X10177Y10322D02*
G01X10154Y10345D01*
G01X10154Y10345D02*
G01X10131Y10390D01*
G01X10995Y10777D02*
G01X10995Y10300D01*
G01X10995Y10550D02*
G01X11040Y10595D01*
G01X11040Y10595D02*
G01X11086Y10618D01*
G01X11086Y10618D02*
G01X11154Y10618D01*
G01X11154Y10618D02*
G01X11199Y10595D01*
G01X11199Y10595D02*
G01X11245Y10550D01*
G01X11245Y10550D02*
G01X11268Y10481D01*
G01X11268Y10481D02*
G01X11268Y10436D01*
G01X11268Y10436D02*
G01X11245Y10368D01*
G01X11245Y10368D02*
G01X11199Y10322D01*
G01X11199Y10322D02*
G01X11154Y10300D01*
G01X11154Y10300D02*
G01X11086Y10300D01*
G01X11086Y10300D02*
G01X11040Y10322D01*
G01X11040Y10322D02*
G01X10995Y10368D01*
G01X11472Y10618D02*
G01X11609Y10300D01*
G01X11745Y10618D02*
G01X11609Y10300D01*
G01X11609Y10300D02*
G01X11563Y10209D01*
G01X11563Y10209D02*
G01X11518Y10163D01*
G01X11518Y10163D02*
G01X11472Y10140D01*
G01X11472Y10140D02*
G01X11449Y10140D01*
G01X12290Y10777D02*
G01X12404Y10300D01*
G01X12518Y10777D02*
G01X12404Y10300D01*
G01X12518Y10777D02*
G01X12631Y10300D01*
G01X12745Y10777D02*
G01X12631Y10300D01*
G01X13199Y10618D02*
G01X13199Y10300D01*
G01X13199Y10550D02*
G01X13154Y10595D01*
G01X13154Y10595D02*
G01X13109Y10618D01*
G01X13109Y10618D02*
G01X13040Y10618D01*
G01X13040Y10618D02*
G01X12995Y10595D01*
G01X12995Y10595D02*
G01X12949Y10550D01*
G01X12949Y10550D02*
G01X12927Y10481D01*
G01X12927Y10481D02*
G01X12927Y10436D01*
G01X12927Y10436D02*
G01X12949Y10368D01*
G01X12949Y10368D02*
G01X12995Y10322D01*
G01X12995Y10322D02*
G01X13040Y10300D01*
G01X13040Y10300D02*
G01X13109Y10300D01*
G01X13109Y10300D02*
G01X13154Y10322D01*
G01X13154Y10322D02*
G01X13199Y10368D01*
G01X13404Y10618D02*
G01X13540Y10300D01*
G01X13677Y10618D02*
G01X13540Y10300D01*
G01X13540Y10300D02*
G01X13495Y10209D01*
G01X13495Y10209D02*
G01X13449Y10163D01*
G01X13449Y10163D02*
G01X13404Y10140D01*
G01X13404Y10140D02*
G01X13381Y10140D01*
G01X13859Y10618D02*
G01X13859Y10300D01*
G01X13859Y10527D02*
G01X13927Y10595D01*
G01X13927Y10595D02*
G01X13972Y10618D01*
G01X13972Y10618D02*
G01X14040Y10618D01*
G01X14040Y10618D02*
G01X14086Y10595D01*
G01X14086Y10595D02*
G01X14109Y10527D01*
G01X14109Y10527D02*
G01X14109Y10300D01*
G01X14290Y10481D02*
G01X14563Y10481D01*
G01X14563Y10481D02*
G01X14563Y10527D01*
G01X14563Y10527D02*
G01X14540Y10572D01*
G01X14540Y10572D02*
G01X14518Y10595D01*
G01X14518Y10595D02*
G01X14472Y10618D01*
G01X14472Y10618D02*
G01X14404Y10618D01*
G01X14404Y10618D02*
G01X14359Y10595D01*
G01X14359Y10595D02*
G01X14313Y10550D01*
G01X14313Y10550D02*
G01X14290Y10481D01*
G01X14290Y10481D02*
G01X14290Y10436D01*
G01X14290Y10436D02*
G01X14313Y10368D01*
G01X14313Y10368D02*
G01X14359Y10322D01*
G01X14359Y10322D02*
G01X14404Y10300D01*
G01X14404Y10300D02*
G01X14472Y10300D01*
G01X14472Y10300D02*
G01X14518Y10322D01*
G01X14518Y10322D02*
G01X14563Y10368D01*
G01X15336Y10777D02*
G01X15336Y10413D01*
G01X15336Y10413D02*
G01X15313Y10345D01*
G01X15313Y10345D02*
G01X15290Y10322D01*
G01X15290Y10322D02*
G01X15245Y10300D01*
G01X15245Y10300D02*
G01X15199Y10300D01*
G01X15199Y10300D02*
G01X15154Y10322D01*
G01X15154Y10322D02*
G01X15131Y10345D01*
G01X15131Y10345D02*
G01X15109Y10413D01*
G01X15109Y10413D02*
G01X15109Y10459D01*
G01X15631Y10618D02*
G01X15586Y10595D01*
G01X15586Y10595D02*
G01X15540Y10550D01*
G01X15540Y10550D02*
G01X15518Y10481D01*
G01X15518Y10481D02*
G01X15518Y10436D01*
G01X15518Y10436D02*
G01X15540Y10368D01*
G01X15540Y10368D02*
G01X15586Y10322D01*
G01X15586Y10322D02*
G01X15631Y10300D01*
G01X15631Y10300D02*
G01X15699Y10300D01*
G01X15699Y10300D02*
G01X15745Y10322D01*
G01X15745Y10322D02*
G01X15790Y10368D01*
G01X15790Y10368D02*
G01X15813Y10436D01*
G01X15813Y10436D02*
G01X15813Y10481D01*
G01X15813Y10481D02*
G01X15790Y10550D01*
G01X15790Y10550D02*
G01X15745Y10595D01*
G01X15745Y10595D02*
G01X15699Y10618D01*
G01X15699Y10618D02*
G01X15631Y10618D01*
G01X15995Y10777D02*
G01X15995Y10300D01*
G01X15995Y10527D02*
G01X16063Y10595D01*
G01X16063Y10595D02*
G01X16109Y10618D01*
G01X16109Y10618D02*
G01X16177Y10618D01*
G01X16177Y10618D02*
G01X16222Y10595D01*
G01X16222Y10595D02*
G01X16245Y10527D01*
G01X16245Y10527D02*
G01X16245Y10300D01*
G01X16427Y10618D02*
G01X16427Y10300D01*
G01X16427Y10527D02*
G01X16495Y10595D01*
G01X16495Y10595D02*
G01X16540Y10618D01*
G01X16540Y10618D02*
G01X16609Y10618D01*
G01X16609Y10618D02*
G01X16654Y10595D01*
G01X16654Y10595D02*
G01X16677Y10527D01*
G01X16677Y10527D02*
G01X16677Y10300D01*
G01X17109Y10550D02*
G01X17086Y10595D01*
G01X17086Y10595D02*
G01X17018Y10618D01*
G01X17018Y10618D02*
G01X16949Y10618D01*
G01X16949Y10618D02*
G01X16881Y10595D01*
G01X16881Y10595D02*
G01X16859Y10550D01*
G01X16859Y10550D02*
G01X16881Y10504D01*
G01X16881Y10504D02*
G01X16927Y10481D01*
G01X16927Y10481D02*
G01X17040Y10459D01*
G01X17040Y10459D02*
G01X17086Y10436D01*
G01X17086Y10436D02*
G01X17109Y10390D01*
G01X17109Y10390D02*
G01X17109Y10368D01*
G01X17109Y10368D02*
G01X17086Y10322D01*
G01X17086Y10322D02*
G01X17018Y10300D01*
G01X17018Y10300D02*
G01X16949Y10300D01*
G01X16949Y10300D02*
G01X16881Y10322D01*
G01X16881Y10322D02*
G01X16859Y10368D01*
G01X17404Y10618D02*
G01X17359Y10595D01*
G01X17359Y10595D02*
G01X17313Y10550D01*
G01X17313Y10550D02*
G01X17290Y10481D01*
G01X17290Y10481D02*
G01X17290Y10436D01*
G01X17290Y10436D02*
G01X17313Y10368D01*
G01X17313Y10368D02*
G01X17359Y10322D01*
G01X17359Y10322D02*
G01X17404Y10300D01*
G01X17404Y10300D02*
G01X17472Y10300D01*
G01X17472Y10300D02*
G01X17518Y10322D01*
G01X17518Y10322D02*
G01X17563Y10368D01*
G01X17563Y10368D02*
G01X17586Y10436D01*
G01X17586Y10436D02*
G01X17586Y10481D01*
G01X17586Y10481D02*
G01X17563Y10550D01*
G01X17563Y10550D02*
G01X17518Y10595D01*
G01X17518Y10595D02*
G01X17472Y10618D01*
G01X17472Y10618D02*
G01X17404Y10618D01*
G01X17768Y10618D02*
G01X17768Y10300D01*
G01X17768Y10527D02*
G01X17836Y10595D01*
G01X17836Y10595D02*
G01X17881Y10618D01*
G01X17881Y10618D02*
G01X17949Y10618D01*
G01X17949Y10618D02*
G01X17995Y10595D01*
G01X17995Y10595D02*
G01X18018Y10527D01*
G01X18018Y10527D02*
G01X18018Y10300D01*
G54D10*
G01X-4700Y10477D02*
G01X-4700Y10000D01*
G01X-4700Y10477D02*
G01X-4495Y10477D01*
G01X-4495Y10477D02*
G01X-4427Y10454D01*
G01X-4427Y10454D02*
G01X-4404Y10431D01*
G01X-4404Y10431D02*
G01X-4381Y10386D01*
G01X-4381Y10386D02*
G01X-4381Y10340D01*
G01X-4381Y10340D02*
G01X-4404Y10295D01*
G01X-4404Y10295D02*
G01X-4427Y10272D01*
G01X-4427Y10272D02*
G01X-4495Y10250D01*
G01X-4495Y10250D02*
G01X-4700Y10250D01*
G01X-4540Y10250D02*
G01X-4381Y10000D01*
G01X-4200Y10181D02*
G01X-3927Y10181D01*
G01X-3927Y10181D02*
G01X-3927Y10227D01*
G01X-3927Y10227D02*
G01X-3950Y10272D01*
G01X-3950Y10272D02*
G01X-3972Y10295D01*
G01X-3972Y10295D02*
G01X-4018Y10318D01*
G01X-4018Y10318D02*
G01X-4086Y10318D01*
G01X-4086Y10318D02*
G01X-4131Y10295D01*
G01X-4131Y10295D02*
G01X-4177Y10250D01*
G01X-4177Y10250D02*
G01X-4200Y10181D01*
G01X-4200Y10181D02*
G01X-4200Y10136D01*
G01X-4200Y10136D02*
G01X-4177Y10068D01*
G01X-4177Y10068D02*
G01X-4131Y10022D01*
G01X-4131Y10022D02*
G01X-4086Y10000D01*
G01X-4086Y10000D02*
G01X-4018Y10000D01*
G01X-4018Y10000D02*
G01X-3972Y10022D01*
G01X-3972Y10022D02*
G01X-3927Y10068D01*
G01X-3745Y10318D02*
G01X-3609Y10000D01*
G01X-3472Y10318D02*
G01X-3609Y10000D01*
G01X-3290Y10477D02*
G01X-3268Y10454D01*
G01X-3268Y10454D02*
G01X-3245Y10477D01*
G01X-3245Y10477D02*
G01X-3268Y10500D01*
G01X-3268Y10500D02*
G01X-3290Y10477D01*
G01X-3268Y10318D02*
G01X-3268Y10000D01*
G01X-2813Y10250D02*
G01X-2836Y10295D01*
G01X-2836Y10295D02*
G01X-2904Y10318D01*
G01X-2904Y10318D02*
G01X-2972Y10318D01*
G01X-2972Y10318D02*
G01X-3040Y10295D01*
G01X-3040Y10295D02*
G01X-3063Y10250D01*
G01X-3063Y10250D02*
G01X-3040Y10204D01*
G01X-3040Y10204D02*
G01X-2995Y10181D01*
G01X-2995Y10181D02*
G01X-2881Y10159D01*
G01X-2881Y10159D02*
G01X-2836Y10136D01*
G01X-2836Y10136D02*
G01X-2813Y10090D01*
G01X-2813Y10090D02*
G01X-2813Y10068D01*
G01X-2813Y10068D02*
G01X-2836Y10022D01*
G01X-2836Y10022D02*
G01X-2904Y10000D01*
G01X-2904Y10000D02*
G01X-2972Y10000D01*
G01X-2972Y10000D02*
G01X-3040Y10022D01*
G01X-3040Y10022D02*
G01X-3063Y10068D01*
G01X-2631Y10477D02*
G01X-2609Y10454D01*
G01X-2609Y10454D02*
G01X-2586Y10477D01*
G01X-2586Y10477D02*
G01X-2609Y10500D01*
G01X-2609Y10500D02*
G01X-2631Y10477D01*
G01X-2609Y10318D02*
G01X-2609Y10000D01*
G01X-2290Y10318D02*
G01X-2336Y10295D01*
G01X-2336Y10295D02*
G01X-2381Y10250D01*
G01X-2381Y10250D02*
G01X-2404Y10181D01*
G01X-2404Y10181D02*
G01X-2404Y10136D01*
G01X-2404Y10136D02*
G01X-2381Y10068D01*
G01X-2381Y10068D02*
G01X-2336Y10022D01*
G01X-2336Y10022D02*
G01X-2290Y10000D01*
G01X-2290Y10000D02*
G01X-2222Y10000D01*
G01X-2222Y10000D02*
G01X-2177Y10022D01*
G01X-2177Y10022D02*
G01X-2131Y10068D01*
G01X-2131Y10068D02*
G01X-2109Y10136D01*
G01X-2109Y10136D02*
G01X-2109Y10181D01*
G01X-2109Y10181D02*
G01X-2131Y10250D01*
G01X-2131Y10250D02*
G01X-2177Y10295D01*
G01X-2177Y10295D02*
G01X-2222Y10318D01*
G01X-2222Y10318D02*
G01X-2290Y10318D01*
G01X-1927Y10318D02*
G01X-1927Y10000D01*
G01X-1927Y10227D02*
G01X-1859Y10295D01*
G01X-1859Y10295D02*
G01X-1813Y10318D01*
G01X-1813Y10318D02*
G01X-1745Y10318D01*
G01X-1745Y10318D02*
G01X-1700Y10295D01*
G01X-1700Y10295D02*
G01X-1677Y10227D01*
G01X-1677Y10227D02*
G01X-1677Y10000D01*
G01X-859Y10477D02*
G01X-1086Y10477D01*
G01X-1086Y10477D02*
G01X-1109Y10272D01*
G01X-1109Y10272D02*
G01X-1086Y10295D01*
G01X-1086Y10295D02*
G01X-1018Y10318D01*
G01X-1018Y10318D02*
G01X-950Y10318D01*
G01X-950Y10318D02*
G01X-881Y10295D01*
G01X-881Y10295D02*
G01X-836Y10250D01*
G01X-836Y10250D02*
G01X-813Y10181D01*
G01X-813Y10181D02*
G01X-813Y10136D01*
G01X-813Y10136D02*
G01X-836Y10068D01*
G01X-836Y10068D02*
G01X-881Y10022D01*
G01X-881Y10022D02*
G01X-950Y10000D01*
G01X-950Y10000D02*
G01X-1018Y10000D01*
G01X-1018Y10000D02*
G01X-1086Y10022D01*
G01X-1086Y10022D02*
G01X-1109Y10045D01*
G01X-1109Y10045D02*
G01X-1131Y10090D01*
M00*
M02*
