G04 FreePCB version 1.359*
G04 C:\Users\Wayne\Documents\GitHub\mlaunch\mGPS\CAM\bottom_silk.grb*
G04 bottom silk layer *
G04 Scale: 100 percent, Rotated: No, Reflected: No *
%FSLAX24Y24*%
%MOIN*%
%LN bottom silk *%
G04 Rounded Rectangle Macro, params: W/2, H/2, R *
%AMRNDREC*
21,1,$1+$1,$2+$2-$3-$3,0,0,0*
21,1,$1+$1-$3-$3,$2+$2,0,0,0*
1,1,$3+$3,$1-$3,$2-$3*
1,1,$3+$3,$3-$1,$2-$3*
1,1,$3+$3,$1-$3,$3-$2*
1,1,$3+$3,$3-$1,$3-$2*%
G04 Rectangular Thermal Macro, params: W/2, H/2, T/2 *
%AMRECTHERM*
$4=$3/2*
21,1,$1-$3,$2-$3,0-$1/2-$4,0-$2/2-$4,0*
21,1,$1-$3,$2-$3,0-$1/2-$4,$2/2+$4,0*
21,1,$1-$3,$2-$3,$1/2+$4,0-$2/2-$4,0*
21,1,$1-$3,$2-$3,$1/2+$4,$2/2+$4,0*%
%ADD10C,0.005000*%
%ADD11C,0.010000*%
G90*
G70D02*

G04 Step and Repeat for panelization *

G04 ----------------------- Draw board outline (positive)*
%LPD*%
G54D10*
G01X-23000Y18000D02*
G01X-23000Y2000D01*
G04 end of side 1*
G01X1000Y2000D01*
G04 end of side 2*
G01X1000Y18000D01*
G04 end of side 3*
G01X-23000Y18000D01*

G04 -------------- Draw Parts, Pads, Traces, Vias and Text (positive)*
%LPD*%
G04 Draw part U1*
G04 Draw part U2*
G04 Draw part C1*
G04 Draw part C2*
G04 Draw part J2*
G04 Draw part B1*
G04 draw part outline for part B1*
G54D11*
G01X-6530Y10000D02*
G01X-6530Y9960D01*
G01X-6530Y9921D01*
G01X-6531Y9881D01*
G01X-6532Y9842D01*
G01X-6533Y9802D01*
G01X-6535Y9763D01*
G01X-6536Y9724D01*
G01X-6539Y9684D01*
G01X-6541Y9645D01*
G01X-6544Y9606D01*
G01X-6547Y9566D01*
G01X-6550Y9527D01*
G01X-6553Y9488D01*
G01X-6557Y9449D01*
G01X-6561Y9409D01*
G01X-6566Y9370D01*
G01X-6570Y9331D01*
G01X-6575Y9292D01*
G01X-6581Y9253D01*
G01X-6586Y9214D01*
G01X-6592Y9175D01*
G01X-6598Y9136D01*
G01X-6604Y9097D01*
G01X-6611Y9058D01*
G01X-6618Y9019D01*
G01X-6625Y8981D01*
G01X-6633Y8942D01*
G01X-6640Y8903D01*
G01X-6648Y8865D01*
G01X-6657Y8826D01*
G01X-6665Y8788D01*
G01X-6674Y8749D01*
G01X-6683Y8711D01*
G01X-6693Y8673D01*
G01X-6703Y8635D01*
G01X-6713Y8596D01*
G01X-6723Y8558D01*
G01X-6733Y8520D01*
G01X-6744Y8483D01*
G01X-6755Y8445D01*
G01X-6766Y8407D01*
G01X-6778Y8369D01*
G01X-6790Y8332D01*
G01X-6802Y8294D01*
G01X-6815Y8257D01*
G01X-6827Y8219D01*
G01X-6840Y8182D01*
G01X-6853Y8145D01*
G01X-6867Y8108D01*
G01X-6881Y8071D01*
G01X-6895Y8034D01*
G01X-6909Y7998D01*
G01X-6924Y7961D01*
G01X-6938Y7924D01*
G01X-6953Y7888D01*
G01X-6969Y7852D01*
G01X-6984Y7816D01*
G01X-7000Y7779D01*
G01X-7016Y7743D01*
G01X-7033Y7708D01*
G01X-7049Y7672D01*
G01X-7066Y7636D01*
G01X-7083Y7601D01*
G01X-7101Y7565D01*
G01X-7119Y7530D01*
G01X-7136Y7495D01*
G01X-7155Y7460D01*
G01X-7173Y7425D01*
G01X-7192Y7391D01*
G01X-7211Y7356D01*
G01X-7230Y7322D01*
G01X-7249Y7287D01*
G01X-7269Y7253D01*
G01X-7289Y7219D01*
G01X-7309Y7185D01*
G01X-7329Y7152D01*
G01X-7350Y7118D01*
G01X-7371Y7085D01*
G01X-7392Y7051D01*
G01X-7413Y7018D01*
G01X-7435Y6985D01*
G01X-7457Y6952D01*
G01X-7479Y6920D01*
G01X-7501Y6887D01*
G01X-7524Y6855D01*
G01X-7547Y6823D01*
G01X-7570Y6791D01*
G01X-7593Y6759D01*
G01X-7616Y6727D01*
G01X-7640Y6696D01*
G01X-7664Y6664D01*
G01X-7688Y6633D01*
G01X-7712Y6602D01*
G01X-7737Y6571D01*
G01X-7762Y6541D01*
G01X-7787Y6510D01*
G01X-7812Y6480D01*
G01X-7838Y6450D01*
G01X-7863Y6420D01*
G01X-7889Y6390D01*
G01X-7915Y6361D01*
G01X-7942Y6332D01*
G01X-7968Y6302D01*
G01X-7995Y6273D01*
G01X-8022Y6245D01*
G01X-8049Y6216D01*
G01X-8076Y6188D01*
G01X-8104Y6160D01*
G01X-8132Y6132D01*
G01X-8160Y6104D01*
G01X-8188Y6076D01*
G01X-8216Y6049D01*
G01X-8245Y6022D01*
G01X-8273Y5995D01*
G01X-8302Y5968D01*
G01X-8332Y5942D01*
G01X-8361Y5915D01*
G01X-8390Y5889D01*
G01X-8420Y5863D01*
G01X-8450Y5838D01*
G01X-8480Y5812D01*
G01X-8510Y5787D01*
G01X-8541Y5762D01*
G01X-8571Y5737D01*
G01X-8602Y5712D01*
G01X-8633Y5688D01*
G01X-8664Y5664D01*
G01X-8696Y5640D01*
G01X-8727Y5616D01*
G01X-8759Y5593D01*
G01X-8791Y5570D01*
G01X-8823Y5547D01*
G01X-8855Y5524D01*
G01X-8887Y5501D01*
G01X-8920Y5479D01*
G01X-8952Y5457D01*
G01X-8985Y5435D01*
G01X-9018Y5413D01*
G01X-9051Y5392D01*
G01X-9085Y5371D01*
G01X-9118Y5350D01*
G01X-9152Y5329D01*
G01X-9185Y5309D01*
G01X-9219Y5289D01*
G01X-9253Y5269D01*
G01X-9287Y5249D01*
G01X-9322Y5230D01*
G01X-9356Y5211D01*
G01X-9391Y5192D01*
G01X-9425Y5173D01*
G01X-9460Y5155D01*
G01X-9495Y5136D01*
G01X-9530Y5119D01*
G01X-9565Y5101D01*
G01X-9601Y5083D01*
G01X-9636Y5066D01*
G01X-9672Y5049D01*
G01X-9708Y5033D01*
G01X-9743Y5016D01*
G01X-9779Y5000D01*
G01X-9816Y4984D01*
G01X-9852Y4969D01*
G01X-9888Y4953D01*
G01X-9924Y4938D01*
G01X-9961Y4924D01*
G01X-9998Y4909D01*
G01X-10034Y4895D01*
G01X-10071Y4881D01*
G01X-10108Y4867D01*
G01X-10145Y4853D01*
G01X-10182Y4840D01*
G01X-10219Y4827D01*
G01X-10257Y4815D01*
G01X-10294Y4802D01*
G01X-10332Y4790D01*
G01X-10369Y4778D01*
G01X-10407Y4766D01*
G01X-10445Y4755D01*
G01X-10483Y4744D01*
G01X-10520Y4733D01*
G01X-10558Y4723D01*
G01X-10596Y4713D01*
G01X-10635Y4703D01*
G01X-10673Y4693D01*
G01X-10711Y4683D01*
G01X-10749Y4674D01*
G01X-10788Y4665D01*
G01X-10826Y4657D01*
G01X-10865Y4648D01*
G01X-10903Y4640D01*
G01X-10942Y4633D01*
G01X-10981Y4625D01*
G01X-11019Y4618D01*
G01X-11058Y4611D01*
G01X-11097Y4604D01*
G01X-11136Y4598D01*
G01X-11175Y4592D01*
G01X-11214Y4586D01*
G01X-11253Y4581D01*
G01X-11292Y4575D01*
G01X-11331Y4570D01*
G01X-11370Y4566D01*
G01X-11409Y4561D01*
G01X-11449Y4557D01*
G01X-11488Y4553D01*
G01X-11527Y4550D01*
G01X-11566Y4547D01*
G01X-11606Y4544D01*
G01X-11645Y4541D01*
G01X-11684Y4539D01*
G01X-11724Y4536D01*
G01X-11763Y4535D01*
G01X-11802Y4533D01*
G01X-11842Y4532D01*
G01X-11881Y4531D01*
G01X-11921Y4530D01*
G01X-11960Y4530D01*
G01X-12000Y4530D01*
G01X-12000Y4530D02*
G01X-12039Y4530D01*
G01X-12078Y4530D01*
G01X-12118Y4531D01*
G01X-12157Y4532D01*
G01X-12197Y4533D01*
G01X-12236Y4535D01*
G01X-12275Y4536D01*
G01X-12315Y4539D01*
G01X-12354Y4541D01*
G01X-12393Y4544D01*
G01X-12433Y4547D01*
G01X-12472Y4550D01*
G01X-12511Y4553D01*
G01X-12550Y4557D01*
G01X-12590Y4561D01*
G01X-12629Y4566D01*
G01X-12668Y4570D01*
G01X-12707Y4575D01*
G01X-12746Y4581D01*
G01X-12785Y4586D01*
G01X-12824Y4592D01*
G01X-12863Y4598D01*
G01X-12902Y4604D01*
G01X-12941Y4611D01*
G01X-12980Y4618D01*
G01X-13018Y4625D01*
G01X-13057Y4633D01*
G01X-13096Y4640D01*
G01X-13134Y4648D01*
G01X-13173Y4657D01*
G01X-13211Y4665D01*
G01X-13250Y4674D01*
G01X-13288Y4683D01*
G01X-13326Y4693D01*
G01X-13364Y4703D01*
G01X-13403Y4713D01*
G01X-13441Y4723D01*
G01X-13479Y4733D01*
G01X-13516Y4744D01*
G01X-13554Y4755D01*
G01X-13592Y4766D01*
G01X-13630Y4778D01*
G01X-13667Y4790D01*
G01X-13705Y4802D01*
G01X-13742Y4815D01*
G01X-13780Y4827D01*
G01X-13817Y4840D01*
G01X-13854Y4853D01*
G01X-13891Y4867D01*
G01X-13928Y4881D01*
G01X-13965Y4895D01*
G01X-14001Y4909D01*
G01X-14038Y4924D01*
G01X-14075Y4938D01*
G01X-14111Y4953D01*
G01X-14147Y4969D01*
G01X-14183Y4984D01*
G01X-14220Y5000D01*
G01X-14256Y5016D01*
G01X-14291Y5033D01*
G01X-14327Y5049D01*
G01X-14363Y5066D01*
G01X-14398Y5083D01*
G01X-14434Y5101D01*
G01X-14469Y5119D01*
G01X-14504Y5136D01*
G01X-14539Y5155D01*
G01X-14574Y5173D01*
G01X-14608Y5192D01*
G01X-14643Y5211D01*
G01X-14677Y5230D01*
G01X-14712Y5249D01*
G01X-14746Y5269D01*
G01X-14780Y5289D01*
G01X-14814Y5309D01*
G01X-14847Y5329D01*
G01X-14881Y5350D01*
G01X-14914Y5371D01*
G01X-14948Y5392D01*
G01X-14981Y5413D01*
G01X-15014Y5435D01*
G01X-15047Y5457D01*
G01X-15079Y5479D01*
G01X-15112Y5501D01*
G01X-15144Y5524D01*
G01X-15176Y5547D01*
G01X-15208Y5570D01*
G01X-15240Y5593D01*
G01X-15272Y5616D01*
G01X-15303Y5640D01*
G01X-15335Y5664D01*
G01X-15366Y5688D01*
G01X-15397Y5712D01*
G01X-15428Y5737D01*
G01X-15458Y5762D01*
G01X-15489Y5787D01*
G01X-15519Y5812D01*
G01X-15549Y5838D01*
G01X-15579Y5863D01*
G01X-15609Y5889D01*
G01X-15638Y5915D01*
G01X-15667Y5942D01*
G01X-15697Y5968D01*
G01X-15726Y5995D01*
G01X-15754Y6022D01*
G01X-15783Y6049D01*
G01X-15811Y6076D01*
G01X-15839Y6104D01*
G01X-15867Y6132D01*
G01X-15895Y6160D01*
G01X-15923Y6188D01*
G01X-15950Y6216D01*
G01X-15977Y6245D01*
G01X-16004Y6273D01*
G01X-16031Y6302D01*
G01X-16057Y6332D01*
G01X-16084Y6361D01*
G01X-16110Y6390D01*
G01X-16136Y6420D01*
G01X-16161Y6450D01*
G01X-16187Y6480D01*
G01X-16212Y6510D01*
G01X-16237Y6541D01*
G01X-16262Y6571D01*
G01X-16287Y6602D01*
G01X-16311Y6633D01*
G01X-16335Y6664D01*
G01X-16359Y6696D01*
G01X-16383Y6727D01*
G01X-16406Y6759D01*
G01X-16429Y6791D01*
G01X-16452Y6823D01*
G01X-16475Y6855D01*
G01X-16498Y6887D01*
G01X-16520Y6920D01*
G01X-16542Y6952D01*
G01X-16564Y6985D01*
G01X-16586Y7018D01*
G01X-16607Y7051D01*
G01X-16628Y7085D01*
G01X-16649Y7118D01*
G01X-16670Y7152D01*
G01X-16690Y7185D01*
G01X-16710Y7219D01*
G01X-16730Y7253D01*
G01X-16750Y7287D01*
G01X-16769Y7322D01*
G01X-16788Y7356D01*
G01X-16807Y7391D01*
G01X-16826Y7425D01*
G01X-16844Y7460D01*
G01X-16863Y7495D01*
G01X-16880Y7530D01*
G01X-16898Y7565D01*
G01X-16916Y7601D01*
G01X-16933Y7636D01*
G01X-16950Y7672D01*
G01X-16966Y7708D01*
G01X-16983Y7743D01*
G01X-16999Y7779D01*
G01X-17015Y7816D01*
G01X-17030Y7852D01*
G01X-17046Y7888D01*
G01X-17061Y7924D01*
G01X-17075Y7961D01*
G01X-17090Y7998D01*
G01X-17104Y8034D01*
G01X-17118Y8071D01*
G01X-17132Y8108D01*
G01X-17146Y8145D01*
G01X-17159Y8182D01*
G01X-17172Y8219D01*
G01X-17184Y8257D01*
G01X-17197Y8294D01*
G01X-17209Y8332D01*
G01X-17221Y8369D01*
G01X-17233Y8407D01*
G01X-17244Y8445D01*
G01X-17255Y8483D01*
G01X-17266Y8520D01*
G01X-17276Y8558D01*
G01X-17286Y8596D01*
G01X-17296Y8635D01*
G01X-17306Y8673D01*
G01X-17316Y8711D01*
G01X-17325Y8749D01*
G01X-17334Y8788D01*
G01X-17342Y8826D01*
G01X-17351Y8865D01*
G01X-17359Y8903D01*
G01X-17366Y8942D01*
G01X-17374Y8981D01*
G01X-17381Y9019D01*
G01X-17388Y9058D01*
G01X-17395Y9097D01*
G01X-17401Y9136D01*
G01X-17407Y9175D01*
G01X-17413Y9214D01*
G01X-17418Y9253D01*
G01X-17424Y9292D01*
G01X-17429Y9331D01*
G01X-17433Y9370D01*
G01X-17438Y9409D01*
G01X-17442Y9449D01*
G01X-17446Y9488D01*
G01X-17449Y9527D01*
G01X-17452Y9566D01*
G01X-17455Y9606D01*
G01X-17458Y9645D01*
G01X-17460Y9684D01*
G01X-17463Y9724D01*
G01X-17464Y9763D01*
G01X-17466Y9802D01*
G01X-17467Y9842D01*
G01X-17468Y9881D01*
G01X-17469Y9921D01*
G01X-17469Y9960D01*
G01X-17470Y10000D01*
G01X-17470Y10000D02*
G01X-17469Y10039D01*
G01X-17469Y10078D01*
G01X-17468Y10118D01*
G01X-17467Y10157D01*
G01X-17466Y10197D01*
G01X-17464Y10236D01*
G01X-17463Y10275D01*
G01X-17460Y10315D01*
G01X-17458Y10354D01*
G01X-17455Y10393D01*
G01X-17452Y10433D01*
G01X-17449Y10472D01*
G01X-17446Y10511D01*
G01X-17442Y10550D01*
G01X-17438Y10590D01*
G01X-17433Y10629D01*
G01X-17429Y10668D01*
G01X-17424Y10707D01*
G01X-17418Y10746D01*
G01X-17413Y10785D01*
G01X-17407Y10824D01*
G01X-17401Y10863D01*
G01X-17395Y10902D01*
G01X-17388Y10941D01*
G01X-17381Y10980D01*
G01X-17374Y11018D01*
G01X-17366Y11057D01*
G01X-17359Y11096D01*
G01X-17351Y11134D01*
G01X-17342Y11173D01*
G01X-17334Y11211D01*
G01X-17325Y11250D01*
G01X-17316Y11288D01*
G01X-17306Y11326D01*
G01X-17296Y11364D01*
G01X-17286Y11403D01*
G01X-17276Y11441D01*
G01X-17266Y11479D01*
G01X-17255Y11516D01*
G01X-17244Y11554D01*
G01X-17233Y11592D01*
G01X-17221Y11630D01*
G01X-17209Y11667D01*
G01X-17197Y11705D01*
G01X-17184Y11742D01*
G01X-17172Y11780D01*
G01X-17159Y11817D01*
G01X-17146Y11854D01*
G01X-17132Y11891D01*
G01X-17118Y11928D01*
G01X-17104Y11965D01*
G01X-17090Y12001D01*
G01X-17075Y12038D01*
G01X-17061Y12075D01*
G01X-17046Y12111D01*
G01X-17030Y12147D01*
G01X-17015Y12183D01*
G01X-16999Y12220D01*
G01X-16983Y12256D01*
G01X-16966Y12291D01*
G01X-16950Y12327D01*
G01X-16933Y12363D01*
G01X-16916Y12398D01*
G01X-16898Y12434D01*
G01X-16880Y12469D01*
G01X-16863Y12504D01*
G01X-16844Y12539D01*
G01X-16826Y12574D01*
G01X-16807Y12608D01*
G01X-16788Y12643D01*
G01X-16769Y12677D01*
G01X-16750Y12712D01*
G01X-16730Y12746D01*
G01X-16710Y12780D01*
G01X-16690Y12814D01*
G01X-16670Y12847D01*
G01X-16649Y12881D01*
G01X-16628Y12914D01*
G01X-16607Y12948D01*
G01X-16586Y12981D01*
G01X-16564Y13014D01*
G01X-16542Y13047D01*
G01X-16520Y13079D01*
G01X-16498Y13112D01*
G01X-16475Y13144D01*
G01X-16452Y13176D01*
G01X-16429Y13208D01*
G01X-16406Y13240D01*
G01X-16383Y13272D01*
G01X-16359Y13303D01*
G01X-16335Y13335D01*
G01X-16311Y13366D01*
G01X-16287Y13397D01*
G01X-16262Y13428D01*
G01X-16237Y13458D01*
G01X-16212Y13489D01*
G01X-16187Y13519D01*
G01X-16161Y13549D01*
G01X-16136Y13579D01*
G01X-16110Y13609D01*
G01X-16084Y13638D01*
G01X-16057Y13667D01*
G01X-16031Y13697D01*
G01X-16004Y13726D01*
G01X-15977Y13754D01*
G01X-15950Y13783D01*
G01X-15923Y13811D01*
G01X-15895Y13839D01*
G01X-15867Y13867D01*
G01X-15839Y13895D01*
G01X-15811Y13923D01*
G01X-15783Y13950D01*
G01X-15754Y13977D01*
G01X-15726Y14004D01*
G01X-15697Y14031D01*
G01X-15667Y14057D01*
G01X-15638Y14084D01*
G01X-15609Y14110D01*
G01X-15579Y14136D01*
G01X-15549Y14161D01*
G01X-15519Y14187D01*
G01X-15489Y14212D01*
G01X-15458Y14237D01*
G01X-15428Y14262D01*
G01X-15397Y14287D01*
G01X-15366Y14311D01*
G01X-15335Y14335D01*
G01X-15303Y14359D01*
G01X-15272Y14383D01*
G01X-15240Y14406D01*
G01X-15208Y14429D01*
G01X-15176Y14452D01*
G01X-15144Y14475D01*
G01X-15112Y14498D01*
G01X-15079Y14520D01*
G01X-15047Y14542D01*
G01X-15014Y14564D01*
G01X-14981Y14586D01*
G01X-14948Y14607D01*
G01X-14914Y14628D01*
G01X-14881Y14649D01*
G01X-14847Y14670D01*
G01X-14814Y14690D01*
G01X-14780Y14710D01*
G01X-14746Y14730D01*
G01X-14712Y14750D01*
G01X-14677Y14769D01*
G01X-14643Y14788D01*
G01X-14608Y14807D01*
G01X-14574Y14826D01*
G01X-14539Y14844D01*
G01X-14504Y14863D01*
G01X-14469Y14880D01*
G01X-14434Y14898D01*
G01X-14398Y14916D01*
G01X-14363Y14933D01*
G01X-14327Y14950D01*
G01X-14291Y14966D01*
G01X-14256Y14983D01*
G01X-14220Y14999D01*
G01X-14183Y15015D01*
G01X-14147Y15030D01*
G01X-14111Y15046D01*
G01X-14075Y15061D01*
G01X-14038Y15075D01*
G01X-14001Y15090D01*
G01X-13965Y15104D01*
G01X-13928Y15118D01*
G01X-13891Y15132D01*
G01X-13854Y15146D01*
G01X-13817Y15159D01*
G01X-13780Y15172D01*
G01X-13742Y15184D01*
G01X-13705Y15197D01*
G01X-13667Y15209D01*
G01X-13630Y15221D01*
G01X-13592Y15233D01*
G01X-13554Y15244D01*
G01X-13516Y15255D01*
G01X-13479Y15266D01*
G01X-13441Y15276D01*
G01X-13403Y15286D01*
G01X-13364Y15296D01*
G01X-13326Y15306D01*
G01X-13288Y15316D01*
G01X-13250Y15325D01*
G01X-13211Y15334D01*
G01X-13173Y15342D01*
G01X-13134Y15351D01*
G01X-13096Y15359D01*
G01X-13057Y15366D01*
G01X-13018Y15374D01*
G01X-12980Y15381D01*
G01X-12941Y15388D01*
G01X-12902Y15395D01*
G01X-12863Y15401D01*
G01X-12824Y15407D01*
G01X-12785Y15413D01*
G01X-12746Y15418D01*
G01X-12707Y15424D01*
G01X-12668Y15429D01*
G01X-12629Y15433D01*
G01X-12590Y15438D01*
G01X-12550Y15442D01*
G01X-12511Y15446D01*
G01X-12472Y15449D01*
G01X-12433Y15452D01*
G01X-12393Y15455D01*
G01X-12354Y15458D01*
G01X-12315Y15460D01*
G01X-12275Y15463D01*
G01X-12236Y15464D01*
G01X-12197Y15466D01*
G01X-12157Y15467D01*
G01X-12118Y15468D01*
G01X-12078Y15469D01*
G01X-12039Y15469D01*
G01X-12000Y15470D01*
G01X-12000Y15470D02*
G01X-11960Y15469D01*
G01X-11921Y15469D01*
G01X-11881Y15468D01*
G01X-11842Y15467D01*
G01X-11802Y15466D01*
G01X-11763Y15464D01*
G01X-11724Y15463D01*
G01X-11684Y15460D01*
G01X-11645Y15458D01*
G01X-11606Y15455D01*
G01X-11566Y15452D01*
G01X-11527Y15449D01*
G01X-11488Y15446D01*
G01X-11449Y15442D01*
G01X-11409Y15438D01*
G01X-11370Y15433D01*
G01X-11331Y15429D01*
G01X-11292Y15424D01*
G01X-11253Y15418D01*
G01X-11214Y15413D01*
G01X-11175Y15407D01*
G01X-11136Y15401D01*
G01X-11097Y15395D01*
G01X-11058Y15388D01*
G01X-11019Y15381D01*
G01X-10981Y15374D01*
G01X-10942Y15366D01*
G01X-10903Y15359D01*
G01X-10865Y15351D01*
G01X-10826Y15342D01*
G01X-10788Y15334D01*
G01X-10749Y15325D01*
G01X-10711Y15316D01*
G01X-10673Y15306D01*
G01X-10635Y15296D01*
G01X-10596Y15286D01*
G01X-10558Y15276D01*
G01X-10520Y15266D01*
G01X-10483Y15255D01*
G01X-10445Y15244D01*
G01X-10407Y15233D01*
G01X-10369Y15221D01*
G01X-10332Y15209D01*
G01X-10294Y15197D01*
G01X-10257Y15184D01*
G01X-10219Y15172D01*
G01X-10182Y15159D01*
G01X-10145Y15146D01*
G01X-10108Y15132D01*
G01X-10071Y15118D01*
G01X-10034Y15104D01*
G01X-9998Y15090D01*
G01X-9961Y15075D01*
G01X-9924Y15061D01*
G01X-9888Y15046D01*
G01X-9852Y15030D01*
G01X-9816Y15015D01*
G01X-9779Y14999D01*
G01X-9743Y14983D01*
G01X-9708Y14966D01*
G01X-9672Y14950D01*
G01X-9636Y14933D01*
G01X-9601Y14916D01*
G01X-9565Y14898D01*
G01X-9530Y14880D01*
G01X-9495Y14863D01*
G01X-9460Y14844D01*
G01X-9425Y14826D01*
G01X-9391Y14807D01*
G01X-9356Y14788D01*
G01X-9322Y14769D01*
G01X-9287Y14750D01*
G01X-9253Y14730D01*
G01X-9219Y14710D01*
G01X-9185Y14690D01*
G01X-9152Y14670D01*
G01X-9118Y14649D01*
G01X-9085Y14628D01*
G01X-9051Y14607D01*
G01X-9018Y14586D01*
G01X-8985Y14564D01*
G01X-8952Y14542D01*
G01X-8920Y14520D01*
G01X-8887Y14498D01*
G01X-8855Y14475D01*
G01X-8823Y14452D01*
G01X-8791Y14429D01*
G01X-8759Y14406D01*
G01X-8727Y14383D01*
G01X-8696Y14359D01*
G01X-8664Y14335D01*
G01X-8633Y14311D01*
G01X-8602Y14287D01*
G01X-8571Y14262D01*
G01X-8541Y14237D01*
G01X-8510Y14212D01*
G01X-8480Y14187D01*
G01X-8450Y14161D01*
G01X-8420Y14136D01*
G01X-8390Y14110D01*
G01X-8361Y14084D01*
G01X-8332Y14057D01*
G01X-8302Y14031D01*
G01X-8273Y14004D01*
G01X-8245Y13977D01*
G01X-8216Y13950D01*
G01X-8188Y13923D01*
G01X-8160Y13895D01*
G01X-8132Y13867D01*
G01X-8104Y13839D01*
G01X-8076Y13811D01*
G01X-8049Y13783D01*
G01X-8022Y13754D01*
G01X-7995Y13726D01*
G01X-7968Y13697D01*
G01X-7942Y13667D01*
G01X-7915Y13638D01*
G01X-7889Y13609D01*
G01X-7863Y13579D01*
G01X-7838Y13549D01*
G01X-7812Y13519D01*
G01X-7787Y13489D01*
G01X-7762Y13458D01*
G01X-7737Y13428D01*
G01X-7712Y13397D01*
G01X-7688Y13366D01*
G01X-7664Y13335D01*
G01X-7640Y13303D01*
G01X-7616Y13272D01*
G01X-7593Y13240D01*
G01X-7570Y13208D01*
G01X-7547Y13176D01*
G01X-7524Y13144D01*
G01X-7501Y13112D01*
G01X-7479Y13079D01*
G01X-7457Y13047D01*
G01X-7435Y13014D01*
G01X-7413Y12981D01*
G01X-7392Y12948D01*
G01X-7371Y12914D01*
G01X-7350Y12881D01*
G01X-7329Y12847D01*
G01X-7309Y12814D01*
G01X-7289Y12780D01*
G01X-7269Y12746D01*
G01X-7249Y12712D01*
G01X-7230Y12677D01*
G01X-7211Y12643D01*
G01X-7192Y12608D01*
G01X-7173Y12574D01*
G01X-7155Y12539D01*
G01X-7136Y12504D01*
G01X-7119Y12469D01*
G01X-7101Y12434D01*
G01X-7083Y12398D01*
G01X-7066Y12363D01*
G01X-7049Y12327D01*
G01X-7033Y12291D01*
G01X-7016Y12256D01*
G01X-7000Y12220D01*
G01X-6984Y12183D01*
G01X-6969Y12147D01*
G01X-6953Y12111D01*
G01X-6938Y12075D01*
G01X-6924Y12038D01*
G01X-6909Y12001D01*
G01X-6895Y11965D01*
G01X-6881Y11928D01*
G01X-6867Y11891D01*
G01X-6853Y11854D01*
G01X-6840Y11817D01*
G01X-6827Y11780D01*
G01X-6815Y11742D01*
G01X-6802Y11705D01*
G01X-6790Y11667D01*
G01X-6778Y11630D01*
G01X-6766Y11592D01*
G01X-6755Y11554D01*
G01X-6744Y11516D01*
G01X-6733Y11479D01*
G01X-6723Y11441D01*
G01X-6713Y11403D01*
G01X-6703Y11364D01*
G01X-6693Y11326D01*
G01X-6683Y11288D01*
G01X-6674Y11250D01*
G01X-6665Y11211D01*
G01X-6657Y11173D01*
G01X-6648Y11134D01*
G01X-6640Y11096D01*
G01X-6633Y11057D01*
G01X-6625Y11018D01*
G01X-6618Y10980D01*
G01X-6611Y10941D01*
G01X-6604Y10902D01*
G01X-6598Y10863D01*
G01X-6592Y10824D01*
G01X-6586Y10785D01*
G01X-6581Y10746D01*
G01X-6575Y10707D01*
G01X-6570Y10668D01*
G01X-6566Y10629D01*
G01X-6561Y10590D01*
G01X-6557Y10550D01*
G01X-6553Y10511D01*
G01X-6550Y10472D01*
G01X-6547Y10433D01*
G01X-6544Y10393D01*
G01X-6541Y10354D01*
G01X-6539Y10315D01*
G01X-6536Y10275D01*
G01X-6535Y10236D01*
G01X-6533Y10197D01*
G01X-6532Y10157D01*
G01X-6531Y10118D01*
G01X-6530Y10078D01*
G01X-6530Y10039D01*
G01X-6530Y10000D01*
G01X-6530Y9370D02*
G01X-5270Y9370D01*
G01X-5270Y9370D02*
G01X-5270Y10630D01*
G01X-5270Y10630D02*
G01X-6530Y10630D01*
G01X-6530Y10630D02*
G01X-6530Y9370D01*
G04 draw reference designator for part B1*
G01X-9000Y4045D02*
G01X-9000Y5000D01*
G01X-8590Y4045D02*
G01X-9000Y4045D01*
G01X-8590Y4045D02*
G01X-8454Y4090D01*
G01X-8454Y4090D02*
G01X-8409Y4136D01*
G01X-8409Y4136D02*
G01X-8363Y4227D01*
G01X-8363Y4227D02*
G01X-8363Y4318D01*
G01X-8363Y4318D02*
G01X-8409Y4409D01*
G01X-8409Y4409D02*
G01X-8454Y4454D01*
G01X-8454Y4454D02*
G01X-8590Y4500D01*
G01X-8590Y4500D02*
G01X-9000Y4500D01*
G01X-8590Y4500D02*
G01X-8454Y4545D01*
G01X-8454Y4545D02*
G01X-8409Y4590D01*
G01X-8409Y4590D02*
G01X-8363Y4681D01*
G01X-8363Y4681D02*
G01X-8363Y4818D01*
G01X-8363Y4818D02*
G01X-8409Y4909D01*
G01X-8409Y4909D02*
G01X-8454Y4954D01*
G01X-8454Y4954D02*
G01X-8590Y5000D01*
G01X-9000Y5000D02*
G01X-8590Y5000D01*
G01X-7909Y4181D02*
G01X-8000Y4227D01*
G01X-7772Y4045D02*
G01X-7909Y4181D01*
G01X-7772Y4045D02*
G01X-7772Y5000D01*
G04 Draw part h1*
G04 Draw part h2*
G04 Draw part h3*
G04 Draw part h4*
G04 Draw part C3*

G04 Draw traces*

G04 Draw Text*
M00*
M02*
