G04 FreePCB version 1.359*
G04 C:\Users\waynej\Documents\GitHub\mlaunch\mGPS\CAM\bottom_silk.grb*
G04 bottom silk layer *
G04 Scale: 100 percent, Rotated: No, Reflected: No *
%FSLAX24Y24*%
%MOIN*%
%LN bottom silk *%
G04 Rounded Rectangle Macro, params: W/2, H/2, R *
%AMRNDREC*
21,1,$1+$1,$2+$2-$3-$3,0,0,0*
21,1,$1+$1-$3-$3,$2+$2,0,0,0*
1,1,$3+$3,$1-$3,$2-$3*
1,1,$3+$3,$3-$1,$2-$3*
1,1,$3+$3,$1-$3,$3-$2*
1,1,$3+$3,$3-$1,$3-$2*%
G04 Rectangular Thermal Macro, params: W/2, H/2, T/2 *
%AMRECTHERM*
$4=$3/2*
21,1,$1-$3,$2-$3,0-$1/2-$4,0-$2/2-$4,0*
21,1,$1-$3,$2-$3,0-$1/2-$4,$2/2+$4,0*
21,1,$1-$3,$2-$3,$1/2+$4,0-$2/2-$4,0*
21,1,$1-$3,$2-$3,$1/2+$4,$2/2+$4,0*%
%ADD10C,0.005000*%
%ADD11C,0.007000*%
%ADD12C,0.010000*%
G90*
G70D02*

G04 Step and Repeat for panelization *

G04 ----------------------- Draw board outline (positive)*
%LPD*%
G54D10*
G01X29000Y-42047D02*
G01X29003Y-11366D01*
G04 end of side 1*
G01X26299Y-11366D01*
G04 end of side 2*
G01X26259Y-11365D01*
G01X26219Y-11363D01*
G01X26180Y-11360D01*
G01X26140Y-11356D01*
G01X26100Y-11351D01*
G01X26061Y-11344D01*
G01X26022Y-11337D01*
G01X25983Y-11328D01*
G01X25945Y-11318D01*
G01X25907Y-11307D01*
G01X25869Y-11295D01*
G01X25831Y-11281D01*
G01X25794Y-11267D01*
G01X25758Y-11251D01*
G01X25721Y-11235D01*
G01X25686Y-11217D01*
G01X25651Y-11198D01*
G01X25616Y-11179D01*
G01X25582Y-11158D01*
G01X25549Y-11136D01*
G01X25516Y-11113D01*
G01X25484Y-11089D01*
G01X25453Y-11065D01*
G01X25422Y-11039D01*
G01X25393Y-11013D01*
G01X25364Y-10985D01*
G01X25335Y-10957D01*
G01X25308Y-10928D01*
G01X25282Y-10898D01*
G01X25256Y-10868D01*
G01X25232Y-10836D01*
G01X25208Y-10804D01*
G01X25185Y-10771D01*
G01X25163Y-10738D01*
G01X25143Y-10704D01*
G01X25123Y-10669D01*
G01X25104Y-10634D01*
G01X25087Y-10598D01*
G01X25070Y-10562D01*
G01X25055Y-10525D01*
G01X25040Y-10488D01*
G01X25027Y-10450D01*
G01X25015Y-10412D01*
G01X25004Y-10374D01*
G01X24994Y-10335D01*
G01X24985Y-10297D01*
G01X24977Y-10257D01*
G01X24971Y-10218D01*
G01X24966Y-10178D01*
G01X24961Y-10139D01*
G01X24959Y-10099D01*
G01X24957Y-10059D01*
G01X24956Y-10019D01*
G04 end of side 3*
G01X24957Y-9980D01*
G01X24958Y-9940D01*
G01X24961Y-9901D01*
G01X24965Y-9861D01*
G01X24970Y-9822D01*
G01X24977Y-9783D01*
G01X24984Y-9745D01*
G01X24992Y-9706D01*
G01X25002Y-9668D01*
G01X25013Y-9630D01*
G01X25024Y-9592D01*
G01X25037Y-9555D01*
G01X25051Y-9518D01*
G01X25066Y-9481D01*
G01X25082Y-9445D01*
G01X25099Y-9410D01*
G01X25117Y-9375D01*
G01X25136Y-9340D01*
G01X25156Y-9306D01*
G01X25177Y-9273D01*
G01X25199Y-9240D01*
G01X25222Y-9208D01*
G01X25246Y-9177D01*
G01X25270Y-9146D01*
G01X25296Y-9116D01*
G01X25322Y-9087D01*
G01X25349Y-9059D01*
G01X25377Y-9031D01*
G01X25406Y-9005D01*
G01X25436Y-8979D01*
G01X25466Y-8954D01*
G01X25497Y-8930D01*
G01X25529Y-8907D01*
G01X25561Y-8884D01*
G01X25594Y-8863D01*
G01X25627Y-8843D01*
G01X25662Y-8824D01*
G01X25696Y-8805D01*
G01X25731Y-8788D01*
G01X25767Y-8772D01*
G01X25803Y-8757D01*
G01X25840Y-8743D01*
G01X25876Y-8730D01*
G01X25914Y-8718D01*
G01X25951Y-8707D01*
G01X25989Y-8698D01*
G01X26027Y-8689D01*
G01X26066Y-8682D01*
G01X26104Y-8675D01*
G01X26143Y-8670D01*
G01X26182Y-8666D01*
G01X26221Y-8663D01*
G01X26260Y-8661D01*
G01X26299Y-8661D01*
G04 end of side 4*
G01X27753Y-8673D01*
G04 end of side 5*
G01X27753Y0D01*
G04 end of side 6*
G01X1250Y0D01*
G04 end of side 7*
G01X1250Y-8673D01*
G04 end of side 8*
G01X2700Y-8673D01*
G04 end of side 9*
G01X2740Y-8673D01*
G01X2780Y-8675D01*
G01X2820Y-8678D01*
G01X2860Y-8682D01*
G01X2899Y-8687D01*
G01X2938Y-8694D01*
G01X2978Y-8702D01*
G01X3017Y-8710D01*
G01X3055Y-8720D01*
G01X3094Y-8731D01*
G01X3132Y-8744D01*
G01X3169Y-8757D01*
G01X3206Y-8771D01*
G01X3243Y-8787D01*
G01X3279Y-8804D01*
G01X3315Y-8821D01*
G01X3350Y-8840D01*
G01X3385Y-8860D01*
G01X3419Y-8881D01*
G01X3452Y-8902D01*
G01X3485Y-8925D01*
G01X3517Y-8949D01*
G01X3549Y-8974D01*
G01X3579Y-8999D01*
G01X3609Y-9026D01*
G01X3638Y-9053D01*
G01X3666Y-9081D01*
G01X3694Y-9110D01*
G01X3720Y-9140D01*
G01X3746Y-9171D01*
G01X3771Y-9202D01*
G01X3794Y-9234D01*
G01X3817Y-9267D01*
G01X3839Y-9300D01*
G01X3860Y-9334D01*
G01X3879Y-9369D01*
G01X3898Y-9404D01*
G01X3916Y-9440D01*
G01X3932Y-9476D01*
G01X3948Y-9513D01*
G01X3962Y-9550D01*
G01X3976Y-9588D01*
G01X3988Y-9626D01*
G01X3999Y-9664D01*
G01X4009Y-9703D01*
G01X4018Y-9742D01*
G01X4026Y-9781D01*
G01X4032Y-9820D01*
G01X4037Y-9860D01*
G01X4041Y-9900D01*
G01X4044Y-9939D01*
G01X4046Y-9979D01*
G01X4047Y-10019D01*
G04 end of side 10*
G01X4046Y-10059D01*
G01X4044Y-10099D01*
G01X4041Y-10139D01*
G01X4037Y-10178D01*
G01X4032Y-10218D01*
G01X4026Y-10257D01*
G01X4018Y-10297D01*
G01X4009Y-10335D01*
G01X3999Y-10374D01*
G01X3988Y-10412D01*
G01X3976Y-10450D01*
G01X3962Y-10488D01*
G01X3948Y-10525D01*
G01X3932Y-10562D01*
G01X3916Y-10598D01*
G01X3898Y-10634D01*
G01X3879Y-10669D01*
G01X3860Y-10704D01*
G01X3839Y-10738D01*
G01X3817Y-10771D01*
G01X3794Y-10804D01*
G01X3771Y-10836D01*
G01X3746Y-10868D01*
G01X3720Y-10898D01*
G01X3694Y-10928D01*
G01X3666Y-10957D01*
G01X3638Y-10985D01*
G01X3609Y-11013D01*
G01X3579Y-11039D01*
G01X3549Y-11065D01*
G01X3517Y-11089D01*
G01X3485Y-11113D01*
G01X3452Y-11136D01*
G01X3419Y-11158D01*
G01X3385Y-11179D01*
G01X3350Y-11198D01*
G01X3315Y-11217D01*
G01X3279Y-11235D01*
G01X3243Y-11251D01*
G01X3206Y-11267D01*
G01X3169Y-11281D01*
G01X3132Y-11295D01*
G01X3094Y-11307D01*
G01X3055Y-11318D01*
G01X3017Y-11328D01*
G01X2978Y-11337D01*
G01X2938Y-11344D01*
G01X2899Y-11351D01*
G01X2860Y-11356D01*
G01X2820Y-11360D01*
G01X2780Y-11363D01*
G01X2740Y-11365D01*
G01X2700Y-11366D01*
G04 end of side 11*
G01X0Y-11366D01*
G04 end of side 12*
G01X0Y-42047D01*
G04 end of side 13*
G01X29000Y-42047D01*

G04 -------------- Draw Parts, Pads, Traces, Vias and Text (positive)*
%LPD*%
G04 Draw part J1*
G04 Draw part J2*
G04 Draw part D1*
G04 Draw part V1*
G04 Draw part C1*
G04 Draw part U3*
G04 Draw part C3*
G04 Draw part U1*
G04 draw part outline for part U1*
G54D11*
G01X22547Y-27059D02*
G01X2547Y-27059D01*
G01X2547Y-27059D02*
G01X2547Y-22059D01*
G01X2547Y-22059D02*
G01X22547Y-22059D01*
G01X22547Y-22059D02*
G01X22547Y-27059D01*
G01X22547Y-25059D02*
G01X22047Y-25059D01*
G01X22047Y-25059D02*
G01X22047Y-24059D01*
G01X22047Y-24059D02*
G01X22547Y-24059D01*
G01X22547Y-24059D02*
G01X22547Y-25059D01*
G04 draw reference designator for part U1*
G01X23774Y-24559D02*
G01X23433Y-24559D01*
G01X23433Y-24559D02*
G01X23365Y-24536D01*
G01X23365Y-24536D02*
G01X23319Y-24490D01*
G01X23319Y-24490D02*
G01X23297Y-24422D01*
G01X23297Y-24377D02*
G01X23297Y-24422D01*
G01X23319Y-24309D02*
G01X23297Y-24377D01*
G01X23365Y-24263D02*
G01X23319Y-24309D01*
G01X23433Y-24240D02*
G01X23365Y-24263D01*
G01X23774Y-24240D02*
G01X23433Y-24240D01*
G01X23706Y-24013D02*
G01X23683Y-24059D01*
G01X23774Y-23945D02*
G01X23706Y-24013D01*
G01X23774Y-23945D02*
G01X23297Y-23945D01*
G04 Draw part X1*
G04 Draw part C6*
G04 Draw part C7*
G04 Draw part J5*
G04 Draw part C4*
G04 Draw part C5*
G04 Draw part J4*
G04 Draw part U2*
G04 Draw part C8*
G04 Draw part C10*
G04 Draw part U6*
G04 draw part outline for part U6*
G54D12*
G01X27492Y-22559D02*
G01X1507Y-22559D01*
G01X1507Y-22559D02*
G01X1507Y-33976D01*
G01X1507Y-33976D02*
G01X27492Y-33976D01*
G01X27492Y-33976D02*
G01X27492Y-22559D01*
G01X27492Y-19039D02*
G01X1507Y-19039D01*
G01X1507Y-19039D02*
G01X1507Y-36039D01*
G01X1507Y-36039D02*
G01X27492Y-36039D01*
G01X27492Y-36039D02*
G01X27492Y-19039D01*
G04 draw reference designator for part U6*
G54D10*
G01X27362Y-36530D02*
G01X27362Y-36871D01*
G01X27362Y-36871D02*
G01X27339Y-36939D01*
G01X27339Y-36939D02*
G01X27294Y-36985D01*
G01X27294Y-36985D02*
G01X27225Y-37007D01*
G01X27180Y-37007D02*
G01X27225Y-37007D01*
G01X27112Y-36985D02*
G01X27180Y-37007D01*
G01X27066Y-36939D02*
G01X27112Y-36985D01*
G01X27044Y-36871D02*
G01X27066Y-36939D01*
G01X27044Y-36530D02*
G01X27044Y-36871D01*
G01X26612Y-36553D02*
G01X26589Y-36598D01*
G01X26680Y-36530D02*
G01X26612Y-36553D01*
G01X26725Y-36530D02*
G01X26680Y-36530D01*
G01X26725Y-36530D02*
G01X26794Y-36553D01*
G01X26794Y-36553D02*
G01X26839Y-36621D01*
G01X26839Y-36621D02*
G01X26862Y-36735D01*
G01X26862Y-36735D02*
G01X26862Y-36848D01*
G01X26862Y-36848D02*
G01X26839Y-36939D01*
G01X26839Y-36939D02*
G01X26794Y-36985D01*
G01X26794Y-36985D02*
G01X26725Y-37007D01*
G01X26703Y-37007D02*
G01X26725Y-37007D01*
G01X26634Y-36985D02*
G01X26703Y-37007D01*
G01X26589Y-36939D02*
G01X26634Y-36985D01*
G01X26566Y-36871D02*
G01X26589Y-36939D01*
G01X26566Y-36848D02*
G01X26566Y-36871D01*
G01X26589Y-36780D02*
G01X26566Y-36848D01*
G01X26634Y-36735D02*
G01X26589Y-36780D01*
G01X26703Y-36712D02*
G01X26634Y-36735D01*
G01X26725Y-36712D02*
G01X26703Y-36712D01*
G01X26725Y-36712D02*
G01X26794Y-36735D01*
G01X26794Y-36735D02*
G01X26839Y-36780D01*
G01X26839Y-36780D02*
G01X26862Y-36848D01*
G04 Draw part S1*
G04 Draw part TP2*
G04 Draw part TP1*

G04 Draw traces*

G04 Draw Text*
M00*
M02*
