;Holesize 1 =   40.0 PLATED MILS
;Holesize 2 =   28.0 PLATED MILS
;Holesize 3 =   35.0 PLATED MILS
;Holesize 4 =   29.0 PLATED MILS
;Holesize 5 =   62.0 PLATED MILS
;Holesize 6 =  129.0 PLATED MILS
M48
INCH,00.0000
T01C0.040
T02C0.028
T03C0.035
T04C0.029
T05C0.062
T06C0.129
%
G05
G90
T01
X024409Y-001181
X025409Y-001181
X021259Y-001181
X022259Y-001181
X001771Y-012992
X002771Y-012992
X003771Y-012992
X004771Y-012992
X005771Y-012992
X006771Y-012992
X002362Y-007086
X002362Y-006086
X002362Y-005086
X002362Y-003149
X002362Y-002149
X002362Y-001149
T02
X022047Y-027559
X021047Y-027559
X020047Y-027559
X019047Y-027559
X018047Y-027559
X017047Y-027559
X016047Y-027559
X015047Y-027559
X014047Y-027559
X013047Y-027559
X012047Y-027559
X011047Y-027559
X010047Y-027559
X009047Y-027559
X008047Y-027559
X007047Y-027559
X006047Y-027559
X005047Y-027559
X004047Y-027559
X003047Y-027559
X003047Y-021559
X004047Y-021559
X005047Y-021559
X006047Y-021559
X007047Y-021559
X008047Y-021559
X009047Y-021559
X010047Y-021559
X011047Y-021559
X012047Y-021559
X013047Y-021559
X014047Y-021559
X015047Y-021559
X016047Y-021559
X017047Y-021559
X018047Y-021559
X019047Y-021559
X020047Y-021559
X021047Y-021559
X022047Y-021559
X025000Y-035039
X024000Y-035039
X023000Y-035039
X022000Y-035039
X021000Y-035039
X020000Y-035039
X019000Y-035039
X018000Y-035039
X017000Y-035039
X016000Y-035039
X015000Y-035039
X014000Y-035039
X013000Y-035039
X012000Y-035039
X011000Y-035039
X010000Y-035039
X009000Y-035039
X008000Y-035039
X007000Y-035039
X006000Y-035039
X005000Y-035039
X004000Y-035039
X004000Y-020039
X005000Y-020039
X006000Y-020039
X007000Y-020039
X008000Y-020039
X009000Y-020039
X010000Y-020039
X011000Y-020039
X012000Y-020039
X013000Y-020039
X014000Y-020039
X015000Y-020039
X016000Y-020039
X017000Y-020039
X018000Y-020039
X019000Y-020039
X020000Y-020039
X021000Y-020039
X022000Y-020039
X023000Y-020039
X024000Y-020039
X025000Y-020039
T03
X003188Y-015801
X003188Y-017301
T04
X010236Y-004724
X010236Y-005504
X010236Y-006294
X010236Y-007086
X010236Y-007874
X010236Y-008661
X010236Y-009448
X010236Y-010236
X010236Y-011023
X010236Y-011811
X018897Y-011811
X018897Y-011023
X018897Y-010236
X018897Y-009448
X018897Y-008661
X018897Y-007874
X018897Y-007086
X018897Y-006299
X018897Y-005511
X018896Y-004724
T05
X014173Y-040157
X016535Y-037795
T06
X013976Y-036811
X016732Y-036811
X015354Y-041141
M30
