G04 FreePCB version 1.359*
G04 C:\Users\Wayne\Documents\GitHub\mlaunch\mGPS\CAM\top_copper.grb*
G04 top copper layer *
G04 Scale: 100 percent, Rotated: No, Reflected: No *
%FSLAX24Y24*%
%MOIN*%
%LN top copper *%
G04 Rounded Rectangle Macro, params: W/2, H/2, R *
%AMRNDREC*
21,1,$1+$1,$2+$2-$3-$3,0,0,0*
21,1,$1+$1-$3-$3,$2+$2,0,0,0*
1,1,$3+$3,$1-$3,$2-$3*
1,1,$3+$3,$3-$1,$2-$3*
1,1,$3+$3,$1-$3,$3-$2*
1,1,$3+$3,$3-$1,$3-$2*%
G04 Rectangular Thermal Macro, params: W/2, H/2, T/2 *
%AMRECTHERM*
$4=$3/2*
21,1,$1-$3,$2-$3,0-$1/2-$4,0-$2/2-$4,0*
21,1,$1-$3,$2-$3,0-$1/2-$4,$2/2+$4,0*
21,1,$1-$3,$2-$3,$1/2+$4,0-$2/2-$4,0*
21,1,$1-$3,$2-$3,$1/2+$4,$2/2+$4,0*%
%ADD10C,0.005000*%
%ADD11R,0.075118X0.086929*%
%ADD12R,0.177480X0.086929*%
%ADD13R,0.070000X0.070000*%
%ADD14RECTHERM,0.035000X0.035000X0.005000*%
%ADD15C,0.001000*%
%ADD16R,0.216850X0.098740*%
%ADD17R,0.082992X0.098740*%
%ADD18R,0.080000X0.080000*%
%ADD19C,0.080000*%
%ADD20R,0.110000X0.110000*%
%ADD21RECTHERM,0.055000X0.055000X0.005000*%
%ADD22C,0.155000*%
%ADD23R,0.098740X0.082992*%
%ADD24C,0.045000*%
%ADD25C,0.048000*%
%ADD26C,0.030000*%
%ADD27R,0.055118X0.066929*%
%ADD28R,0.157480X0.066929*%
%ADD29R,0.050000X0.050000*%
%ADD30R,0.196850X0.078740*%
%ADD31R,0.062992X0.078740*%
%ADD32R,0.060000X0.060000*%
%ADD33C,0.060000*%
%ADD34R,0.090000X0.090000*%
%ADD35R,0.078740X0.062992*%
%ADD36C,0.025000*%
%ADD37C,0.010000*%
%ADD38C,0.028000*%
G90*
G70D02*

G04 Step and Repeat for panelization *

G04 ----------------------- Draw board outline (positive)*
%LPD*%
G54D10*
G01X-23000Y18000D02*
G01X-23000Y2000D01*
G04 end of side 1*
G01X1000Y2000D01*
G04 end of side 2*
G01X1000Y18000D01*
G04 end of side 3*
G01X-23000Y18000D01*

G04 ----------------------- Draw copper area (positive)*
G36*
G01X-800Y3600D02*
G01X-17600Y3600D01*
G01X-17600Y16400D01*
G01X-800Y16400D01*
G01X-800Y3600D01*
G37*

G04 -------------------- Draw copper area clearances (negative)*
%LPC*%

G04 Draw clearances for pads*
G54D11*
G01X-2000Y7000D03*
G01X-2905Y7000D03*
G01X-3811Y7000D03*
G54D12*
G01X-2905Y4440D03*
G54D13*
G01X-17000Y6000D03*
G01X-16220Y6000D03*
G01X-15430Y6000D03*
G01X-14637Y6000D03*
G01X-13850Y6000D03*
G01X-13062Y6000D03*
G01X-12275Y6000D03*
G01X-11488Y6000D03*
G01X-10700Y6000D03*
G54D14*
G01X-9913Y6000D03*
G54D15*
G54D13*
G01X-9913Y14661D03*
G01X-10700Y14661D03*
G01X-11488Y14661D03*
G01X-12275Y14661D03*
G01X-13062Y14661D03*
G01X-13850Y14661D03*
G01X-14637Y14661D03*
G01X-15425Y14661D03*
G01X-16212Y14661D03*
G01X-17000Y14660D03*
G54D16*
G01X-5035Y14000D03*
G01X-1964Y14000D03*
G54D17*
G01X-3000Y10000D03*
G01X-1897Y10000D03*
G54D18*
G01X-22000Y8000D03*
G54D19*
G01X-22000Y9000D03*
G01X-22000Y10000D03*
G01X-22000Y11000D03*
G01X-22000Y12000D03*
G01X-22000Y13000D03*
G54D20*
G01X-6000Y10000D03*
G54D21*
G01X-14070Y10000D03*
G54D15*
G54D22*
G01X-21000Y17000D03*
G01X-21000Y3000D03*
G01X0Y3000D03*
G01X0Y17000D03*
G54D23*
G01X-5000Y5000D03*
G01X-5000Y6102D03*

G04 Draw clearances for traces*
G54D24*
G01X-17000Y6000D02*
G01X-17000Y4400D01*
G01X-17000Y4400D02*
G01X-4000Y4400D01*
G01X-4000Y4400D02*
G01X-2905Y4440D01*
G01X-2905Y7000D02*
G01X-3000Y10000D01*
G01X-5000Y5000D02*
G01X-5000Y4400D01*
G01X-5000Y4400D02*
G01X-4959Y4440D01*
G01X-4959Y4440D02*
G01X-2905Y4440D01*
G01X-2905Y7000D02*
G01X-2905Y4440D01*
G54D25*
G01X-16200Y11000D03*
G54D26*
G01X-22000Y11000D02*
G01X-16200Y11000D01*
G54D25*
G01X-15400Y10000D03*
G54D26*
G01X-22000Y10000D02*
G01X-15400Y10000D01*
G54D24*
G01X-3811Y7000D02*
G01X-6000Y10000D01*
G01X-5035Y14000D02*
G01X-6000Y10000D01*

G04 Draw clearances for text*

G04 -------------- Draw Parts, Pads, Traces, Vias and Text (positive)*
%LPD*%
G04 Draw part U1*
G54D27*
G01X-2000Y7000D03*
G01X-2905Y7000D03*
G01X-3811Y7000D03*
G54D28*
G01X-2905Y4440D03*
G04 Draw part U2*
G54D29*
G01X-17000Y6000D03*
G01X-16220Y6000D03*
G01X-15430Y6000D03*
G01X-14637Y6000D03*
G01X-13850Y6000D03*
G01X-13062Y6000D03*
G01X-12275Y6000D03*
G01X-11488Y6000D03*
G01X-10700Y6000D03*
G01X-9913Y6000D03*
G01X-9913Y14661D03*
G01X-10700Y14661D03*
G01X-11488Y14661D03*
G01X-12275Y14661D03*
G01X-13062Y14661D03*
G01X-13850Y14661D03*
G01X-14637Y14661D03*
G01X-15425Y14661D03*
G01X-16212Y14661D03*
G01X-17000Y14660D03*
G04 Draw part C1*
G54D30*
G01X-5035Y14000D03*
G01X-1964Y14000D03*
G04 Draw part C2*
G54D31*
G01X-3000Y10000D03*
G01X-1897Y10000D03*
G04 Draw part J2*
G54D32*
G01X-22000Y8000D03*
G54D33*
G01X-22000Y9000D03*
G01X-22000Y10000D03*
G01X-22000Y11000D03*
G01X-22000Y12000D03*
G01X-22000Y13000D03*
G04 Draw part B1*
G54D34*
G01X-6000Y10000D03*
G01X-14070Y10000D03*
G04 Draw part h1*
G04 Draw part h2*
G04 Draw part h3*
G04 Draw part h4*
G04 Draw part C3*
G54D35*
G01X-5000Y5000D03*
G01X-5000Y6102D03*

G04 Draw traces*
G54D36*
G01X-17000Y6000D02*
G01X-17000Y4400D01*
G01X-17000Y4400D02*
G01X-4000Y4400D01*
G01X-4000Y4400D02*
G01X-2905Y4440D01*
G01X-2905Y7000D02*
G01X-3000Y10000D01*
G01X-5000Y5000D02*
G01X-5000Y4400D01*
G01X-5000Y4400D02*
G01X-4959Y4440D01*
G01X-4959Y4440D02*
G01X-2905Y4440D01*
G01X-2905Y7000D02*
G01X-2905Y4440D01*
G54D37*
G01X-22000Y11000D02*
G01X-16200Y11000D01*
G54D38*
G01X-16200Y11000D03*
G54D37*
G01X-22000Y10000D02*
G01X-15400Y10000D01*
G54D38*
G01X-15400Y10000D03*
G54D36*
G01X-1964Y14000D02*
G01X-2000Y15200D01*
G01X-2000Y15200D02*
G01X-6800Y15200D01*
G01X-6800Y15200D02*
G01X-8800Y13200D01*
G01X-8800Y13200D02*
G01X-8800Y6000D01*
G01X-8800Y6000D02*
G01X-9913Y6000D01*
G01X-22000Y8000D02*
G01X-16000Y8000D01*
G01X-16000Y8000D02*
G01X-14070Y10000D01*
G01X-1897Y10000D02*
G01X-2000Y7000D01*
G01X-5000Y6102D02*
G01X-9913Y6000D01*
G01X-5000Y6102D02*
G01X-9913Y6000D01*
G01X-5000Y6102D02*
G01X-9913Y6000D01*
G01X-5000Y6102D02*
G01X-9600Y6000D01*
G01X-9600Y6000D02*
G01X-9913Y6000D01*
G01X-5000Y6102D02*
G01X-9897Y6102D01*
G01X-9897Y6102D02*
G01X-10000Y6000D01*
G01X-10000Y6000D02*
G01X-9913Y6000D01*
G01X-5000Y6102D02*
G01X-9297Y6102D01*
G01X-9297Y6102D02*
G01X-9400Y6000D01*
G01X-9400Y6000D02*
G01X-9913Y6000D01*
G01X-3811Y7000D02*
G01X-6000Y10000D01*
G01X-5035Y14000D02*
G01X-6000Y10000D01*

G04 Draw Text*
M00*
M02*
