G04 FreePCB version 1.359*
G04 C:\Users\Wayne\Documents\GitHub\mlaunch\mGPS\CAM\top_silk.grb*
G04 top silk layer *
G04 Scale: 100 percent, Rotated: No, Reflected: No *
%FSLAX24Y24*%
%MOIN*%
%LN top silk *%
G04 Rounded Rectangle Macro, params: W/2, H/2, R *
%AMRNDREC*
21,1,$1+$1,$2+$2-$3-$3,0,0,0*
21,1,$1+$1-$3-$3,$2+$2,0,0,0*
1,1,$3+$3,$1-$3,$2-$3*
1,1,$3+$3,$3-$1,$2-$3*
1,1,$3+$3,$1-$3,$3-$2*
1,1,$3+$3,$3-$1,$3-$2*%
G04 Rectangular Thermal Macro, params: W/2, H/2, T/2 *
%AMRECTHERM*
$4=$3/2*
21,1,$1-$3,$2-$3,0-$1/2-$4,0-$2/2-$4,0*
21,1,$1-$3,$2-$3,0-$1/2-$4,$2/2+$4,0*
21,1,$1-$3,$2-$3,$1/2+$4,0-$2/2-$4,0*
21,1,$1-$3,$2-$3,$1/2+$4,$2/2+$4,0*%
%ADD10C,0.005000*%
%ADD11C,0.007000*%
%ADD12C,0.010000*%
G90*
G70D02*

G04 Step and Repeat for panelization *

G04 ----------------------- Draw board outline (positive)*
%LPD*%
G54D10*
G01X-23000Y18000D02*
G01X-23000Y2000D01*
G04 end of side 1*
G01X1000Y2000D01*
G04 end of side 2*
G01X1000Y18000D01*
G04 end of side 3*
G01X-23000Y18000D01*

G04 -------------- Draw Parts, Pads, Traces, Vias and Text (positive)*
%LPD*%
G04 Draw part U1*
G04 draw part outline for part U1*
G54D11*
G01X-1625Y6389D02*
G01X-4185Y6389D01*
G01X-4185Y6389D02*
G01X-4185Y5011D01*
G01X-4185Y5011D02*
G01X-1625Y5011D01*
G01X-1625Y5011D02*
G01X-1625Y6389D01*
G04 draw reference designator for part U1*
G01X-1000Y5477D02*
G01X-1000Y5136D01*
G01X-1000Y5136D02*
G01X-977Y5068D01*
G01X-977Y5068D02*
G01X-931Y5022D01*
G01X-931Y5022D02*
G01X-863Y5000D01*
G01X-818Y5000D02*
G01X-863Y5000D01*
G01X-750Y5022D02*
G01X-818Y5000D01*
G01X-704Y5068D02*
G01X-750Y5022D01*
G01X-681Y5136D02*
G01X-704Y5068D01*
G01X-681Y5477D02*
G01X-681Y5136D01*
G01X-454Y5409D02*
G01X-500Y5386D01*
G01X-386Y5477D02*
G01X-454Y5409D01*
G01X-386Y5477D02*
G01X-386Y5000D01*
G04 Draw part U2*
G04 draw part outline for part U2*
G01X-17393Y5606D02*
G01X-6370Y5606D01*
G01X-6370Y5606D02*
G01X-6370Y15055D01*
G01X-6370Y15055D02*
G01X-17393Y15055D01*
G01X-17393Y15055D02*
G01X-20040Y12205D01*
G01X-20040Y12205D02*
G01X-20040Y8455D01*
G01X-20040Y8455D02*
G01X-17393Y5606D01*
G54D12*
G01X-20040Y8455D02*
G01X-20690Y8455D01*
G01X-20690Y8455D02*
G01X-20690Y12205D01*
G01X-20690Y12205D02*
G01X-20040Y12205D01*
G01X-20040Y12205D02*
G01X-20040Y8455D01*
G04 draw reference designator for part U2*
G54D10*
G01X-19840Y13948D02*
G01X-19840Y13607D01*
G01X-19840Y13607D02*
G01X-19817Y13539D01*
G01X-19817Y13539D02*
G01X-19771Y13494D01*
G01X-19771Y13494D02*
G01X-19703Y13471D01*
G01X-19658Y13471D02*
G01X-19703Y13471D01*
G01X-19590Y13494D02*
G01X-19658Y13471D01*
G01X-19544Y13539D02*
G01X-19590Y13494D01*
G01X-19521Y13607D02*
G01X-19544Y13539D01*
G01X-19521Y13948D02*
G01X-19521Y13607D01*
G01X-19317Y13857D02*
G01X-19317Y13834D01*
G01X-19294Y13903D02*
G01X-19317Y13857D01*
G01X-19271Y13925D02*
G01X-19294Y13903D01*
G01X-19226Y13948D02*
G01X-19271Y13925D01*
G01X-19135Y13948D02*
G01X-19226Y13948D01*
G01X-19135Y13948D02*
G01X-19090Y13925D01*
G01X-19090Y13925D02*
G01X-19067Y13903D01*
G01X-19067Y13903D02*
G01X-19044Y13857D01*
G01X-19044Y13857D02*
G01X-19044Y13812D01*
G01X-19044Y13812D02*
G01X-19067Y13766D01*
G01X-19067Y13766D02*
G01X-19112Y13698D01*
G01X-19112Y13698D02*
G01X-19340Y13471D01*
G01X-19021Y13471D02*
G01X-19340Y13471D01*
G04 Draw part C1*
G04 draw part outline for part C1*
G54D11*
G01X-1846Y15653D02*
G01X-1846Y12346D01*
G01X-1846Y12346D02*
G01X-5153Y12346D01*
G01X-5153Y12346D02*
G01X-5153Y15653D01*
G01X-5153Y15653D02*
G01X-1846Y15653D01*
G54D12*
G01X-5531Y12551D02*
G01X-5531Y13370D01*
G04 draw reference designator for part C1*
G54D10*
G01X-1090Y15681D02*
G01X-1136Y15659D01*
G01X-1045Y15727D02*
G01X-1090Y15681D01*
G01X-1022Y15772D02*
G01X-1045Y15727D01*
G01X-1022Y15863D02*
G01X-1022Y15772D01*
G01X-1022Y15863D02*
G01X-1045Y15909D01*
G01X-1045Y15909D02*
G01X-1090Y15954D01*
G01X-1090Y15954D02*
G01X-1136Y15977D01*
G01X-1136Y15977D02*
G01X-1204Y16000D01*
G01X-1204Y16000D02*
G01X-1318Y16000D01*
G01X-1318Y16000D02*
G01X-1386Y15977D01*
G01X-1386Y15977D02*
G01X-1431Y15954D01*
G01X-1431Y15954D02*
G01X-1477Y15909D01*
G01X-1477Y15909D02*
G01X-1500Y15863D01*
G01X-1500Y15772D02*
G01X-1500Y15863D01*
G01X-1477Y15727D02*
G01X-1500Y15772D01*
G01X-1431Y15681D02*
G01X-1477Y15727D01*
G01X-1386Y15659D02*
G01X-1431Y15681D01*
G01X-1090Y15431D02*
G01X-1113Y15477D01*
G01X-1022Y15363D02*
G01X-1090Y15431D01*
G01X-1022Y15363D02*
G01X-1500Y15363D01*
G04 Draw part C2*
G04 draw part outline for part C2*
G54D11*
G01X-3433Y10511D02*
G01X-1464Y10511D01*
G01X-1464Y10511D02*
G01X-1464Y9488D01*
G01X-1464Y9488D02*
G01X-3433Y9488D01*
G01X-3433Y9488D02*
G01X-3433Y10511D01*
G04 draw reference designator for part C2*
G01X-2130Y11314D02*
G01X-2107Y11269D01*
G01X-2176Y11360D02*
G01X-2130Y11314D01*
G01X-2221Y11382D02*
G01X-2176Y11360D01*
G01X-2312Y11382D02*
G01X-2221Y11382D01*
G01X-2312Y11382D02*
G01X-2357Y11360D01*
G01X-2357Y11360D02*
G01X-2403Y11314D01*
G01X-2403Y11314D02*
G01X-2426Y11269D01*
G01X-2426Y11269D02*
G01X-2448Y11200D01*
G01X-2448Y11200D02*
G01X-2448Y11087D01*
G01X-2448Y11087D02*
G01X-2426Y11019D01*
G01X-2426Y11019D02*
G01X-2403Y10973D01*
G01X-2403Y10973D02*
G01X-2357Y10928D01*
G01X-2357Y10928D02*
G01X-2312Y10905D01*
G01X-2221Y10905D02*
G01X-2312Y10905D01*
G01X-2176Y10928D02*
G01X-2221Y10905D01*
G01X-2130Y10973D02*
G01X-2176Y10928D01*
G01X-2107Y11019D02*
G01X-2130Y10973D01*
G01X-1903Y11291D02*
G01X-1903Y11269D01*
G01X-1880Y11337D02*
G01X-1903Y11291D01*
G01X-1857Y11360D02*
G01X-1880Y11337D01*
G01X-1812Y11382D02*
G01X-1857Y11360D01*
G01X-1721Y11382D02*
G01X-1812Y11382D01*
G01X-1721Y11382D02*
G01X-1676Y11360D01*
G01X-1676Y11360D02*
G01X-1653Y11337D01*
G01X-1653Y11337D02*
G01X-1630Y11291D01*
G01X-1630Y11291D02*
G01X-1630Y11246D01*
G01X-1630Y11246D02*
G01X-1653Y11200D01*
G01X-1653Y11200D02*
G01X-1698Y11132D01*
G01X-1698Y11132D02*
G01X-1926Y10905D01*
G01X-1607Y10905D02*
G01X-1926Y10905D01*
G04 Draw part J2*
G04 draw part outline for part J2*
G01X-22500Y7500D02*
G01X-22500Y13500D01*
G01X-22500Y13500D02*
G01X-21500Y13500D01*
G01X-21500Y13500D02*
G01X-21500Y7500D01*
G01X-21500Y7500D02*
G01X-22500Y7500D01*
G04 draw reference designator for part J2*
G01X-22477Y14227D02*
G01X-22113Y14227D01*
G01X-22113Y14227D02*
G01X-22045Y14204D01*
G01X-22045Y14204D02*
G01X-22022Y14181D01*
G01X-22022Y14181D02*
G01X-22000Y14136D01*
G01X-22000Y14090D02*
G01X-22000Y14136D01*
G01X-22022Y14045D02*
G01X-22000Y14090D01*
G01X-22045Y14022D02*
G01X-22022Y14045D01*
G01X-22113Y14000D02*
G01X-22045Y14022D01*
G01X-22159Y14000D02*
G01X-22113Y14000D01*
G01X-22386Y14431D02*
G01X-22363Y14431D01*
G01X-22431Y14454D02*
G01X-22386Y14431D01*
G01X-22454Y14477D02*
G01X-22431Y14454D01*
G01X-22477Y14522D02*
G01X-22454Y14477D01*
G01X-22477Y14613D02*
G01X-22477Y14522D01*
G01X-22477Y14613D02*
G01X-22454Y14659D01*
G01X-22454Y14659D02*
G01X-22431Y14681D01*
G01X-22431Y14681D02*
G01X-22386Y14704D01*
G01X-22386Y14704D02*
G01X-22340Y14704D01*
G01X-22340Y14704D02*
G01X-22295Y14681D01*
G01X-22295Y14681D02*
G01X-22227Y14636D01*
G01X-22227Y14636D02*
G01X-22000Y14409D01*
G01X-22000Y14727D02*
G01X-22000Y14409D01*
G04 Draw part B1*
G04 Draw part h1*
G04 draw part outline for part h1*
G04 Draw part h2*
G04 draw part outline for part h2*
G04 Draw part h3*
G04 draw part outline for part h3*
G04 Draw part h4*
G04 draw part outline for part h4*
G04 draw part outline for part U3*
G04 draw part outline for part x1*
G04 draw part outline for part x2*
G04 Draw part C3*
G04 draw part outline for part C3*
G01X-5511Y4566D02*
G01X-5511Y6535D01*
G01X-5511Y6535D02*
G01X-4488Y6535D01*
G01X-4488Y6535D02*
G01X-4488Y4566D01*
G01X-4488Y4566D02*
G01X-5511Y4566D01*
G04 draw reference designator for part C3*
G01X-5681Y7409D02*
G01X-5659Y7363D01*
G01X-5727Y7454D02*
G01X-5681Y7409D01*
G01X-5772Y7477D02*
G01X-5727Y7454D01*
G01X-5863Y7477D02*
G01X-5772Y7477D01*
G01X-5863Y7477D02*
G01X-5909Y7454D01*
G01X-5909Y7454D02*
G01X-5954Y7409D01*
G01X-5954Y7409D02*
G01X-5977Y7363D01*
G01X-5977Y7363D02*
G01X-6000Y7295D01*
G01X-6000Y7295D02*
G01X-6000Y7181D01*
G01X-6000Y7181D02*
G01X-5977Y7113D01*
G01X-5977Y7113D02*
G01X-5954Y7068D01*
G01X-5954Y7068D02*
G01X-5909Y7022D01*
G01X-5909Y7022D02*
G01X-5863Y7000D01*
G01X-5772Y7000D02*
G01X-5863Y7000D01*
G01X-5727Y7022D02*
G01X-5772Y7000D01*
G01X-5681Y7068D02*
G01X-5727Y7022D01*
G01X-5659Y7113D02*
G01X-5681Y7068D01*
G01X-5181Y7477D02*
G01X-5431Y7477D01*
G01X-5181Y7477D02*
G01X-5318Y7295D01*
G01X-5250Y7295D02*
G01X-5318Y7295D01*
G01X-5250Y7295D02*
G01X-5204Y7272D01*
G01X-5204Y7272D02*
G01X-5181Y7250D01*
G01X-5181Y7250D02*
G01X-5159Y7181D01*
G01X-5159Y7181D02*
G01X-5159Y7136D01*
G01X-5159Y7136D02*
G01X-5181Y7068D01*
G01X-5181Y7068D02*
G01X-5227Y7022D01*
G01X-5227Y7022D02*
G01X-5295Y7000D01*
G01X-5363Y7000D02*
G01X-5295Y7000D01*
G01X-5431Y7022D02*
G01X-5363Y7000D01*
G01X-5454Y7045D02*
G01X-5431Y7022D01*
G01X-5477Y7090D02*
G01X-5454Y7045D01*

G04 Draw traces*

G04 Draw Text*
M00*
M02*
