G04 FreePCB version 1.359*
G04 C:\Users\waynej\Documents\GitHub\mlaunch\mGPS\CAM\top_silk.grb*
G04 top silk layer *
G04 Scale: 100 percent, Rotated: No, Reflected: No *
%FSLAX24Y24*%
%MOIN*%
%LN top silk *%
G04 Rounded Rectangle Macro, params: W/2, H/2, R *
%AMRNDREC*
21,1,$1+$1,$2+$2-$3-$3,0,0,0*
21,1,$1+$1-$3-$3,$2+$2,0,0,0*
1,1,$3+$3,$1-$3,$2-$3*
1,1,$3+$3,$3-$1,$2-$3*
1,1,$3+$3,$1-$3,$3-$2*
1,1,$3+$3,$3-$1,$3-$2*%
G04 Rectangular Thermal Macro, params: W/2, H/2, T/2 *
%AMRECTHERM*
$4=$3/2*
21,1,$1-$3,$2-$3,0-$1/2-$4,0-$2/2-$4,0*
21,1,$1-$3,$2-$3,0-$1/2-$4,$2/2+$4,0*
21,1,$1-$3,$2-$3,$1/2+$4,0-$2/2-$4,0*
21,1,$1-$3,$2-$3,$1/2+$4,$2/2+$4,0*%
%ADD10C,0.005000*%
%ADD11C,0.010000*%
%ADD12C,0.007000*%
G90*
G70D02*

G04 Step and Repeat for panelization *

G04 ----------------------- Draw board outline (positive)*
%LPD*%
G54D10*
G01X29000Y-42047D02*
G01X29003Y-11366D01*
G04 end of side 1*
G01X26299Y-11366D01*
G04 end of side 2*
G01X26259Y-11365D01*
G01X26219Y-11363D01*
G01X26180Y-11360D01*
G01X26140Y-11356D01*
G01X26100Y-11351D01*
G01X26061Y-11344D01*
G01X26022Y-11337D01*
G01X25983Y-11328D01*
G01X25945Y-11318D01*
G01X25907Y-11307D01*
G01X25869Y-11295D01*
G01X25831Y-11281D01*
G01X25794Y-11267D01*
G01X25758Y-11251D01*
G01X25721Y-11235D01*
G01X25686Y-11217D01*
G01X25651Y-11198D01*
G01X25616Y-11179D01*
G01X25582Y-11158D01*
G01X25549Y-11136D01*
G01X25516Y-11113D01*
G01X25484Y-11089D01*
G01X25453Y-11065D01*
G01X25422Y-11039D01*
G01X25393Y-11013D01*
G01X25364Y-10985D01*
G01X25335Y-10957D01*
G01X25308Y-10928D01*
G01X25282Y-10898D01*
G01X25256Y-10868D01*
G01X25232Y-10836D01*
G01X25208Y-10804D01*
G01X25185Y-10771D01*
G01X25163Y-10738D01*
G01X25143Y-10704D01*
G01X25123Y-10669D01*
G01X25104Y-10634D01*
G01X25087Y-10598D01*
G01X25070Y-10562D01*
G01X25055Y-10525D01*
G01X25040Y-10488D01*
G01X25027Y-10450D01*
G01X25015Y-10412D01*
G01X25004Y-10374D01*
G01X24994Y-10335D01*
G01X24985Y-10297D01*
G01X24977Y-10257D01*
G01X24971Y-10218D01*
G01X24966Y-10178D01*
G01X24961Y-10139D01*
G01X24959Y-10099D01*
G01X24957Y-10059D01*
G01X24956Y-10019D01*
G04 end of side 3*
G01X24957Y-9980D01*
G01X24958Y-9940D01*
G01X24961Y-9901D01*
G01X24965Y-9861D01*
G01X24970Y-9822D01*
G01X24977Y-9783D01*
G01X24984Y-9745D01*
G01X24992Y-9706D01*
G01X25002Y-9668D01*
G01X25013Y-9630D01*
G01X25024Y-9592D01*
G01X25037Y-9555D01*
G01X25051Y-9518D01*
G01X25066Y-9481D01*
G01X25082Y-9445D01*
G01X25099Y-9410D01*
G01X25117Y-9375D01*
G01X25136Y-9340D01*
G01X25156Y-9306D01*
G01X25177Y-9273D01*
G01X25199Y-9240D01*
G01X25222Y-9208D01*
G01X25246Y-9177D01*
G01X25270Y-9146D01*
G01X25296Y-9116D01*
G01X25322Y-9087D01*
G01X25349Y-9059D01*
G01X25377Y-9031D01*
G01X25406Y-9005D01*
G01X25436Y-8979D01*
G01X25466Y-8954D01*
G01X25497Y-8930D01*
G01X25529Y-8907D01*
G01X25561Y-8884D01*
G01X25594Y-8863D01*
G01X25627Y-8843D01*
G01X25662Y-8824D01*
G01X25696Y-8805D01*
G01X25731Y-8788D01*
G01X25767Y-8772D01*
G01X25803Y-8757D01*
G01X25840Y-8743D01*
G01X25876Y-8730D01*
G01X25914Y-8718D01*
G01X25951Y-8707D01*
G01X25989Y-8698D01*
G01X26027Y-8689D01*
G01X26066Y-8682D01*
G01X26104Y-8675D01*
G01X26143Y-8670D01*
G01X26182Y-8666D01*
G01X26221Y-8663D01*
G01X26260Y-8661D01*
G01X26299Y-8661D01*
G04 end of side 4*
G01X27753Y-8673D01*
G04 end of side 5*
G01X27753Y0D01*
G04 end of side 6*
G01X1250Y0D01*
G04 end of side 7*
G01X1250Y-8673D01*
G04 end of side 8*
G01X2700Y-8673D01*
G04 end of side 9*
G01X2740Y-8673D01*
G01X2780Y-8675D01*
G01X2820Y-8678D01*
G01X2860Y-8682D01*
G01X2899Y-8687D01*
G01X2938Y-8694D01*
G01X2978Y-8702D01*
G01X3017Y-8710D01*
G01X3055Y-8720D01*
G01X3094Y-8731D01*
G01X3132Y-8744D01*
G01X3169Y-8757D01*
G01X3206Y-8771D01*
G01X3243Y-8787D01*
G01X3279Y-8804D01*
G01X3315Y-8821D01*
G01X3350Y-8840D01*
G01X3385Y-8860D01*
G01X3419Y-8881D01*
G01X3452Y-8902D01*
G01X3485Y-8925D01*
G01X3517Y-8949D01*
G01X3549Y-8974D01*
G01X3579Y-8999D01*
G01X3609Y-9026D01*
G01X3638Y-9053D01*
G01X3666Y-9081D01*
G01X3694Y-9110D01*
G01X3720Y-9140D01*
G01X3746Y-9171D01*
G01X3771Y-9202D01*
G01X3794Y-9234D01*
G01X3817Y-9267D01*
G01X3839Y-9300D01*
G01X3860Y-9334D01*
G01X3879Y-9369D01*
G01X3898Y-9404D01*
G01X3916Y-9440D01*
G01X3932Y-9476D01*
G01X3948Y-9513D01*
G01X3962Y-9550D01*
G01X3976Y-9588D01*
G01X3988Y-9626D01*
G01X3999Y-9664D01*
G01X4009Y-9703D01*
G01X4018Y-9742D01*
G01X4026Y-9781D01*
G01X4032Y-9820D01*
G01X4037Y-9860D01*
G01X4041Y-9900D01*
G01X4044Y-9939D01*
G01X4046Y-9979D01*
G01X4047Y-10019D01*
G04 end of side 10*
G01X4046Y-10059D01*
G01X4044Y-10099D01*
G01X4041Y-10139D01*
G01X4037Y-10178D01*
G01X4032Y-10218D01*
G01X4026Y-10257D01*
G01X4018Y-10297D01*
G01X4009Y-10335D01*
G01X3999Y-10374D01*
G01X3988Y-10412D01*
G01X3976Y-10450D01*
G01X3962Y-10488D01*
G01X3948Y-10525D01*
G01X3932Y-10562D01*
G01X3916Y-10598D01*
G01X3898Y-10634D01*
G01X3879Y-10669D01*
G01X3860Y-10704D01*
G01X3839Y-10738D01*
G01X3817Y-10771D01*
G01X3794Y-10804D01*
G01X3771Y-10836D01*
G01X3746Y-10868D01*
G01X3720Y-10898D01*
G01X3694Y-10928D01*
G01X3666Y-10957D01*
G01X3638Y-10985D01*
G01X3609Y-11013D01*
G01X3579Y-11039D01*
G01X3549Y-11065D01*
G01X3517Y-11089D01*
G01X3485Y-11113D01*
G01X3452Y-11136D01*
G01X3419Y-11158D01*
G01X3385Y-11179D01*
G01X3350Y-11198D01*
G01X3315Y-11217D01*
G01X3279Y-11235D01*
G01X3243Y-11251D01*
G01X3206Y-11267D01*
G01X3169Y-11281D01*
G01X3132Y-11295D01*
G01X3094Y-11307D01*
G01X3055Y-11318D01*
G01X3017Y-11328D01*
G01X2978Y-11337D01*
G01X2938Y-11344D01*
G01X2899Y-11351D01*
G01X2860Y-11356D01*
G01X2820Y-11360D01*
G01X2780Y-11363D01*
G01X2740Y-11365D01*
G01X2700Y-11366D01*
G04 end of side 11*
G01X0Y-11366D01*
G04 end of side 12*
G01X0Y-42047D01*
G04 end of side 13*
G01X29000Y-42047D01*

G04 -------------- Draw Parts, Pads, Traces, Vias and Text (positive)*
%LPD*%
G04 Draw part J1*
G04 draw part outline for part J1*
G54D11*
G01X25909Y-681D02*
G01X23909Y-681D01*
G01X23909Y-681D02*
G01X23909Y-1681D01*
G01X23909Y-1681D02*
G01X25909Y-1681D01*
G01X25909Y-1681D02*
G01X25909Y-681D01*
G04 draw reference designator for part J1*
G54D12*
G01X26686Y-808D02*
G01X26323Y-808D01*
G01X26323Y-808D02*
G01X26254Y-785D01*
G01X26254Y-785D02*
G01X26232Y-762D01*
G01X26232Y-762D02*
G01X26209Y-717D01*
G01X26209Y-672D02*
G01X26209Y-717D01*
G01X26232Y-626D02*
G01X26209Y-672D01*
G01X26254Y-603D02*
G01X26232Y-626D01*
G01X26323Y-581D02*
G01X26254Y-603D01*
G01X26368Y-581D02*
G01X26323Y-581D01*
G01X26618Y-1035D02*
G01X26595Y-990D01*
G01X26686Y-1103D02*
G01X26618Y-1035D01*
G01X26686Y-1103D02*
G01X26209Y-1103D01*
G04 Draw part J2*
G04 draw part outline for part J2*
G54D11*
G01X22759Y-681D02*
G01X20759Y-681D01*
G01X20759Y-681D02*
G01X20759Y-1681D01*
G01X20759Y-1681D02*
G01X22759Y-1681D01*
G01X22759Y-1681D02*
G01X22759Y-681D01*
G04 draw reference designator for part J2*
G54D12*
G01X23537Y-808D02*
G01X23173Y-808D01*
G01X23173Y-808D02*
G01X23105Y-785D01*
G01X23105Y-785D02*
G01X23082Y-762D01*
G01X23082Y-762D02*
G01X23059Y-717D01*
G01X23059Y-672D02*
G01X23059Y-717D01*
G01X23082Y-626D02*
G01X23059Y-672D01*
G01X23105Y-603D02*
G01X23082Y-626D01*
G01X23173Y-581D02*
G01X23105Y-603D01*
G01X23218Y-581D02*
G01X23173Y-581D01*
G01X23446Y-1012D02*
G01X23423Y-1012D01*
G01X23491Y-1035D02*
G01X23446Y-1012D01*
G01X23514Y-1058D02*
G01X23491Y-1035D01*
G01X23537Y-1103D02*
G01X23514Y-1058D01*
G01X23537Y-1194D02*
G01X23537Y-1103D01*
G01X23537Y-1194D02*
G01X23514Y-1240D01*
G01X23514Y-1240D02*
G01X23491Y-1262D01*
G01X23491Y-1262D02*
G01X23446Y-1285D01*
G01X23446Y-1285D02*
G01X23400Y-1285D01*
G01X23400Y-1285D02*
G01X23355Y-1262D01*
G01X23355Y-1262D02*
G01X23287Y-1217D01*
G01X23287Y-1217D02*
G01X23059Y-990D01*
G01X23059Y-1308D02*
G01X23059Y-990D01*
G04 Draw part D1*
G04 draw part outline for part D1*
G01X24409Y-3341D02*
G01X22358Y-3341D01*
G01X22358Y-3341D02*
G01X22362Y-4291D01*
G01X22362Y-4291D02*
G01X22677Y-4291D01*
G01X22677Y-4291D02*
G01X22677Y-4724D01*
G01X22677Y-4724D02*
G01X22362Y-4724D01*
G01X22362Y-4724D02*
G01X22358Y-5610D01*
G01X22358Y-5610D02*
G01X24409Y-5610D01*
G01X24409Y-5610D02*
G01X24409Y-3341D01*
G54D10*
G01X21689Y-6345D02*
G01X21689Y-6023D01*
G01X21528Y-6184D02*
G01X21850Y-6184D01*
G04 draw reference designator for part D1*
G01X26409Y-5233D02*
G01X26409Y-4755D01*
G01X26250Y-5233D02*
G01X26409Y-5233D01*
G01X26250Y-5233D02*
G01X26182Y-5210D01*
G01X26182Y-5210D02*
G01X26136Y-5164D01*
G01X26136Y-5164D02*
G01X26113Y-5119D01*
G01X26113Y-5119D02*
G01X26091Y-5051D01*
G01X26091Y-5051D02*
G01X26091Y-4937D01*
G01X26091Y-4937D02*
G01X26113Y-4869D01*
G01X26113Y-4869D02*
G01X26136Y-4824D01*
G01X26136Y-4824D02*
G01X26182Y-4778D01*
G01X26182Y-4778D02*
G01X26250Y-4755D01*
G01X26409Y-4755D02*
G01X26250Y-4755D01*
G01X25863Y-5164D02*
G01X25909Y-5142D01*
G01X25795Y-5233D02*
G01X25863Y-5164D01*
G01X25795Y-5233D02*
G01X25795Y-4755D01*
G04 Draw part V1*
G04 draw part outline for part V1*
G54D12*
G01X23661Y-8385D02*
G01X21692Y-8385D01*
G01X21692Y-8385D02*
G01X21692Y-7362D01*
G01X21692Y-7362D02*
G01X23661Y-7362D01*
G01X23661Y-7362D02*
G01X23661Y-8385D01*
G04 draw reference designator for part V1*
G01X22677Y-9256D02*
G01X22495Y-8779D01*
G01X22313Y-9256D02*
G01X22495Y-8779D01*
G01X22086Y-9188D02*
G01X22131Y-9165D01*
G01X22018Y-9256D02*
G01X22086Y-9188D01*
G01X22018Y-9256D02*
G01X22018Y-8779D01*
G04 Draw part C1*
G04 draw part outline for part C1*
G01X24330Y-12519D02*
G01X27637Y-12519D01*
G01X27637Y-12519D02*
G01X27637Y-15826D01*
G01X27637Y-15826D02*
G01X24330Y-15826D01*
G01X24330Y-15826D02*
G01X24330Y-12519D01*
G54D11*
G01X27432Y-16205D02*
G01X26614Y-16205D01*
G04 draw reference designator for part C1*
G54D10*
G01X22759Y-12543D02*
G01X22781Y-12589D01*
G01X22713Y-12498D02*
G01X22759Y-12543D01*
G01X22668Y-12475D02*
G01X22713Y-12498D01*
G01X22577Y-12475D02*
G01X22668Y-12475D01*
G01X22577Y-12475D02*
G01X22531Y-12498D01*
G01X22531Y-12498D02*
G01X22486Y-12543D01*
G01X22486Y-12543D02*
G01X22463Y-12589D01*
G01X22463Y-12589D02*
G01X22440Y-12657D01*
G01X22440Y-12657D02*
G01X22440Y-12770D01*
G01X22440Y-12770D02*
G01X22463Y-12839D01*
G01X22463Y-12839D02*
G01X22486Y-12884D01*
G01X22486Y-12884D02*
G01X22531Y-12930D01*
G01X22531Y-12930D02*
G01X22577Y-12952D01*
G01X22668Y-12952D02*
G01X22577Y-12952D01*
G01X22713Y-12930D02*
G01X22668Y-12952D01*
G01X22759Y-12884D02*
G01X22713Y-12930D01*
G01X22781Y-12839D02*
G01X22759Y-12884D01*
G01X23009Y-12543D02*
G01X22963Y-12566D01*
G01X23077Y-12475D02*
G01X23009Y-12543D01*
G01X23077Y-12475D02*
G01X23077Y-12952D01*
G04 Draw part U3*
G04 draw part outline for part U3*
G54D12*
G01X22814Y-15570D02*
G01X20255Y-15570D01*
G01X20255Y-15570D02*
G01X20255Y-16948D01*
G01X20255Y-16948D02*
G01X22814Y-16948D01*
G01X22814Y-16948D02*
G01X22814Y-15570D01*
G04 draw reference designator for part U3*
G01X21535Y-18981D02*
G01X21535Y-18640D01*
G01X21535Y-18640D02*
G01X21512Y-18572D01*
G01X21512Y-18572D02*
G01X21467Y-18526D01*
G01X21467Y-18526D02*
G01X21399Y-18503D01*
G01X21353Y-18503D02*
G01X21399Y-18503D01*
G01X21285Y-18526D02*
G01X21353Y-18503D01*
G01X21239Y-18572D02*
G01X21285Y-18526D01*
G01X21217Y-18640D02*
G01X21239Y-18572D01*
G01X21217Y-18981D02*
G01X21217Y-18640D01*
G01X20739Y-18981D02*
G01X20989Y-18981D01*
G01X20739Y-18981D02*
G01X20876Y-18799D01*
G01X20808Y-18799D02*
G01X20876Y-18799D01*
G01X20808Y-18799D02*
G01X20762Y-18776D01*
G01X20762Y-18776D02*
G01X20739Y-18753D01*
G01X20739Y-18753D02*
G01X20717Y-18685D01*
G01X20717Y-18685D02*
G01X20717Y-18640D01*
G01X20717Y-18640D02*
G01X20739Y-18572D01*
G01X20739Y-18572D02*
G01X20785Y-18526D01*
G01X20785Y-18526D02*
G01X20853Y-18503D01*
G01X20921Y-18503D02*
G01X20853Y-18503D01*
G01X20989Y-18526D02*
G01X20921Y-18503D01*
G01X21012Y-18549D02*
G01X20989Y-18526D01*
G01X21035Y-18594D02*
G01X21012Y-18549D01*
G04 Draw part C3*
G04 draw part outline for part C3*
G01X20826Y-12480D02*
G01X22795Y-12480D01*
G01X22795Y-12480D02*
G01X22795Y-13503D01*
G01X22795Y-13503D02*
G01X20826Y-13503D01*
G01X20826Y-13503D02*
G01X20826Y-12480D01*
G04 draw reference designator for part C3*
G01X22129Y-11677D02*
G01X22151Y-11722D01*
G01X22083Y-11632D02*
G01X22129Y-11677D01*
G01X22038Y-11609D02*
G01X22083Y-11632D01*
G01X21947Y-11609D02*
G01X22038Y-11609D01*
G01X21947Y-11609D02*
G01X21901Y-11632D01*
G01X21901Y-11632D02*
G01X21856Y-11677D01*
G01X21856Y-11677D02*
G01X21833Y-11722D01*
G01X21833Y-11722D02*
G01X21811Y-11791D01*
G01X21811Y-11791D02*
G01X21811Y-11904D01*
G01X21811Y-11904D02*
G01X21833Y-11972D01*
G01X21833Y-11972D02*
G01X21856Y-12018D01*
G01X21856Y-12018D02*
G01X21901Y-12063D01*
G01X21901Y-12063D02*
G01X21947Y-12086D01*
G01X22038Y-12086D02*
G01X21947Y-12086D01*
G01X22083Y-12063D02*
G01X22038Y-12086D01*
G01X22129Y-12018D02*
G01X22083Y-12063D01*
G01X22151Y-11972D02*
G01X22129Y-12018D01*
G01X22629Y-11609D02*
G01X22379Y-11609D01*
G01X22629Y-11609D02*
G01X22492Y-11791D01*
G01X22561Y-11791D02*
G01X22492Y-11791D01*
G01X22561Y-11791D02*
G01X22606Y-11813D01*
G01X22606Y-11813D02*
G01X22629Y-11836D01*
G01X22629Y-11836D02*
G01X22651Y-11904D01*
G01X22651Y-11904D02*
G01X22651Y-11950D01*
G01X22651Y-11950D02*
G01X22629Y-12018D01*
G01X22629Y-12018D02*
G01X22583Y-12063D01*
G01X22583Y-12063D02*
G01X22515Y-12086D01*
G01X22447Y-12086D02*
G01X22515Y-12086D01*
G01X22379Y-12063D02*
G01X22447Y-12086D01*
G01X22356Y-12041D02*
G01X22379Y-12063D01*
G01X22333Y-11995D02*
G01X22356Y-12041D01*
G04 Draw part U1*
G04 Draw part X1*
G04 draw part outline for part X1*
G54D11*
G01X4921Y-29527D02*
G01X4922Y-29493D01*
G01X4927Y-29459D01*
G01X4934Y-29425D01*
G01X4945Y-29392D01*
G01X4958Y-29361D01*
G01X4974Y-29330D01*
G01X4992Y-29301D01*
G01X5013Y-29274D01*
G01X5036Y-29249D01*
G01X5061Y-29225D01*
G01X5089Y-29205D01*
G01X5118Y-29186D01*
G01X5148Y-29170D01*
G01X5180Y-29157D01*
G01X5213Y-29147D01*
G01X5246Y-29139D01*
G01X5280Y-29135D01*
G01X5314Y-29133D01*
G01X5314Y-29133D02*
G01X9251Y-29133D01*
G01X9251Y-29133D02*
G01X9286Y-29135D01*
G01X9320Y-29139D01*
G01X9353Y-29147D01*
G01X9386Y-29157D01*
G01X9418Y-29170D01*
G01X9448Y-29186D01*
G01X9477Y-29205D01*
G01X9505Y-29225D01*
G01X9530Y-29249D01*
G01X9553Y-29274D01*
G01X9574Y-29301D01*
G01X9592Y-29330D01*
G01X9608Y-29361D01*
G01X9621Y-29392D01*
G01X9632Y-29425D01*
G01X9639Y-29459D01*
G01X9644Y-29493D01*
G01X9645Y-29527D01*
G01X4921Y-30708D02*
G01X4922Y-30742D01*
G01X4927Y-30777D01*
G01X4934Y-30810D01*
G01X4945Y-30843D01*
G01X4958Y-30875D01*
G01X4974Y-30905D01*
G01X4992Y-30934D01*
G01X5013Y-30961D01*
G01X5036Y-30987D01*
G01X5061Y-31010D01*
G01X5089Y-31031D01*
G01X5118Y-31049D01*
G01X5148Y-31065D01*
G01X5180Y-31078D01*
G01X5213Y-31088D01*
G01X5246Y-31096D01*
G01X5280Y-31100D01*
G01X5314Y-31102D01*
G01X5314Y-31102D02*
G01X9251Y-31102D01*
G01X9251Y-31102D02*
G01X9286Y-31100D01*
G01X9320Y-31096D01*
G01X9353Y-31088D01*
G01X9386Y-31078D01*
G01X9418Y-31065D01*
G01X9448Y-31049D01*
G01X9477Y-31031D01*
G01X9505Y-31010D01*
G01X9530Y-30987D01*
G01X9553Y-30961D01*
G01X9574Y-30934D01*
G01X9592Y-30905D01*
G01X9608Y-30875D01*
G01X9621Y-30843D01*
G01X9632Y-30810D01*
G01X9639Y-30777D01*
G01X9644Y-30742D01*
G01X9645Y-30708D01*
G04 draw reference designator for part X1*
G01X6102Y-28167D02*
G01X6352Y-28543D01*
G01X6352Y-28167D02*
G01X6102Y-28543D01*
G01X6531Y-28221D02*
G01X6496Y-28239D01*
G01X6585Y-28167D02*
G01X6531Y-28221D01*
G01X6585Y-28167D02*
G01X6585Y-28543D01*
G04 Draw part C6*
G04 draw part outline for part C6*
G54D12*
G01X7125Y-32992D02*
G01X5157Y-32992D01*
G01X5157Y-32992D02*
G01X5157Y-31968D01*
G01X5157Y-31968D02*
G01X7125Y-31968D01*
G01X7125Y-31968D02*
G01X7125Y-32992D01*
G04 draw reference designator for part C6*
G01X5823Y-33794D02*
G01X5800Y-33749D01*
G01X5869Y-33840D02*
G01X5823Y-33794D01*
G01X5914Y-33863D02*
G01X5869Y-33840D01*
G01X6005Y-33863D02*
G01X5914Y-33863D01*
G01X6005Y-33863D02*
G01X6050Y-33840D01*
G01X6050Y-33840D02*
G01X6096Y-33794D01*
G01X6096Y-33794D02*
G01X6119Y-33749D01*
G01X6119Y-33749D02*
G01X6141Y-33681D01*
G01X6141Y-33681D02*
G01X6141Y-33567D01*
G01X6141Y-33567D02*
G01X6119Y-33499D01*
G01X6119Y-33499D02*
G01X6096Y-33454D01*
G01X6096Y-33454D02*
G01X6050Y-33408D01*
G01X6050Y-33408D02*
G01X6005Y-33385D01*
G01X5914Y-33385D02*
G01X6005Y-33385D01*
G01X5869Y-33408D02*
G01X5914Y-33385D01*
G01X5823Y-33454D02*
G01X5869Y-33408D01*
G01X5800Y-33499D02*
G01X5823Y-33454D01*
G01X5369Y-33840D02*
G01X5346Y-33794D01*
G01X5437Y-33863D02*
G01X5369Y-33840D01*
G01X5482Y-33863D02*
G01X5437Y-33863D01*
G01X5482Y-33863D02*
G01X5550Y-33840D01*
G01X5550Y-33840D02*
G01X5596Y-33772D01*
G01X5596Y-33772D02*
G01X5619Y-33658D01*
G01X5619Y-33658D02*
G01X5619Y-33544D01*
G01X5619Y-33544D02*
G01X5596Y-33454D01*
G01X5596Y-33454D02*
G01X5550Y-33408D01*
G01X5550Y-33408D02*
G01X5482Y-33385D01*
G01X5459Y-33385D02*
G01X5482Y-33385D01*
G01X5391Y-33408D02*
G01X5459Y-33385D01*
G01X5346Y-33454D02*
G01X5391Y-33408D01*
G01X5323Y-33522D02*
G01X5346Y-33454D01*
G01X5323Y-33544D02*
G01X5323Y-33522D01*
G01X5346Y-33613D02*
G01X5323Y-33544D01*
G01X5391Y-33658D02*
G01X5346Y-33613D01*
G01X5459Y-33681D02*
G01X5391Y-33658D01*
G01X5482Y-33681D02*
G01X5459Y-33681D01*
G01X5482Y-33681D02*
G01X5550Y-33658D01*
G01X5550Y-33658D02*
G01X5596Y-33613D01*
G01X5596Y-33613D02*
G01X5619Y-33544D01*
G04 Draw part C7*
G04 draw part outline for part C7*
G01X8031Y-31968D02*
G01X10000Y-31968D01*
G01X10000Y-31968D02*
G01X10000Y-32992D01*
G01X10000Y-32992D02*
G01X8031Y-32992D01*
G01X8031Y-32992D02*
G01X8031Y-31968D01*
G04 draw reference designator for part C7*
G01X9333Y-31165D02*
G01X9356Y-31211D01*
G01X9288Y-31120D02*
G01X9333Y-31165D01*
G01X9243Y-31097D02*
G01X9288Y-31120D01*
G01X9152Y-31097D02*
G01X9243Y-31097D01*
G01X9152Y-31097D02*
G01X9106Y-31120D01*
G01X9106Y-31120D02*
G01X9061Y-31165D01*
G01X9061Y-31165D02*
G01X9038Y-31211D01*
G01X9038Y-31211D02*
G01X9015Y-31279D01*
G01X9015Y-31279D02*
G01X9015Y-31392D01*
G01X9015Y-31392D02*
G01X9038Y-31461D01*
G01X9038Y-31461D02*
G01X9061Y-31506D01*
G01X9061Y-31506D02*
G01X9106Y-31552D01*
G01X9106Y-31552D02*
G01X9152Y-31574D01*
G01X9243Y-31574D02*
G01X9152Y-31574D01*
G01X9288Y-31552D02*
G01X9243Y-31574D01*
G01X9333Y-31506D02*
G01X9288Y-31552D01*
G01X9356Y-31461D02*
G01X9333Y-31506D01*
G01X9856Y-31097D02*
G01X9629Y-31574D01*
G01X9856Y-31097D02*
G01X9538Y-31097D01*
G04 Draw part J5*
G04 draw part outline for part J5*
G54D11*
G01X2374Y-15045D02*
G01X2328Y-15000D01*
G01X2328Y-15000D02*
G01X2283Y-15045D01*
G01X2328Y-15090D02*
G01X2283Y-15045D01*
G01X2374Y-15045D02*
G01X2328Y-15090D01*
G04 draw reference designator for part J5*
G54D10*
G01X3469Y-18101D02*
G01X3105Y-18101D01*
G01X3105Y-18101D02*
G01X3037Y-18078D01*
G01X3037Y-18078D02*
G01X3014Y-18055D01*
G01X3014Y-18055D02*
G01X2992Y-18010D01*
G01X2992Y-17964D02*
G01X2992Y-18010D01*
G01X3014Y-17919D02*
G01X2992Y-17964D01*
G01X3037Y-17896D02*
G01X3014Y-17919D01*
G01X3105Y-17874D02*
G01X3037Y-17896D01*
G01X3151Y-17874D02*
G01X3105Y-17874D01*
G01X3469Y-18328D02*
G01X3469Y-18555D01*
G01X3469Y-18328D02*
G01X3264Y-18305D01*
G01X3287Y-18328D02*
G01X3264Y-18305D01*
G01X3310Y-18396D02*
G01X3287Y-18328D01*
G01X3310Y-18464D02*
G01X3310Y-18396D01*
G01X3310Y-18464D02*
G01X3287Y-18533D01*
G01X3287Y-18533D02*
G01X3242Y-18578D01*
G01X3242Y-18578D02*
G01X3173Y-18601D01*
G01X3173Y-18601D02*
G01X3128Y-18601D01*
G01X3128Y-18601D02*
G01X3060Y-18578D01*
G01X3060Y-18578D02*
G01X3014Y-18533D01*
G01X3014Y-18533D02*
G01X2992Y-18464D01*
G01X2992Y-18396D02*
G01X2992Y-18464D01*
G01X3014Y-18328D02*
G01X2992Y-18396D01*
G01X3037Y-18305D02*
G01X3014Y-18328D01*
G01X3083Y-18283D02*
G01X3037Y-18305D01*
G04 Draw part C4*
G04 draw part outline for part C4*
G54D12*
G01X3464Y-30275D02*
G01X3464Y-32244D01*
G01X3464Y-32244D02*
G01X2440Y-32244D01*
G01X2440Y-32244D02*
G01X2440Y-30275D01*
G01X2440Y-30275D02*
G01X3464Y-30275D01*
G04 draw reference designator for part C4*
G01X4267Y-31578D02*
G01X4221Y-31600D01*
G01X4312Y-31532D02*
G01X4267Y-31578D01*
G01X4335Y-31487D02*
G01X4312Y-31532D01*
G01X4335Y-31396D02*
G01X4335Y-31487D01*
G01X4335Y-31396D02*
G01X4312Y-31350D01*
G01X4312Y-31350D02*
G01X4267Y-31305D01*
G01X4267Y-31305D02*
G01X4221Y-31282D01*
G01X4221Y-31282D02*
G01X4153Y-31259D01*
G01X4153Y-31259D02*
G01X4040Y-31259D01*
G01X4040Y-31259D02*
G01X3971Y-31282D01*
G01X3971Y-31282D02*
G01X3926Y-31305D01*
G01X3926Y-31305D02*
G01X3880Y-31350D01*
G01X3880Y-31350D02*
G01X3858Y-31396D01*
G01X3858Y-31487D02*
G01X3858Y-31396D01*
G01X3880Y-31532D02*
G01X3858Y-31487D01*
G01X3926Y-31578D02*
G01X3880Y-31532D01*
G01X3971Y-31600D02*
G01X3926Y-31578D01*
G01X4335Y-32009D02*
G01X4017Y-31782D01*
G01X4017Y-32123D02*
G01X4017Y-31782D01*
G01X4335Y-32009D02*
G01X3858Y-32009D01*
G04 Draw part C5*
G04 draw part outline for part C5*
G01X17755Y-17440D02*
G01X15787Y-17440D01*
G01X15787Y-17440D02*
G01X15787Y-16417D01*
G01X15787Y-16417D02*
G01X17755Y-16417D01*
G01X17755Y-16417D02*
G01X17755Y-17440D01*
G04 draw reference designator for part C5*
G01X16453Y-18243D02*
G01X16430Y-18198D01*
G01X16498Y-18289D02*
G01X16453Y-18243D01*
G01X16544Y-18311D02*
G01X16498Y-18289D01*
G01X16635Y-18311D02*
G01X16544Y-18311D01*
G01X16635Y-18311D02*
G01X16680Y-18289D01*
G01X16680Y-18289D02*
G01X16726Y-18243D01*
G01X16726Y-18243D02*
G01X16748Y-18198D01*
G01X16748Y-18198D02*
G01X16771Y-18130D01*
G01X16771Y-18130D02*
G01X16771Y-18016D01*
G01X16771Y-18016D02*
G01X16748Y-17948D01*
G01X16748Y-17948D02*
G01X16726Y-17902D01*
G01X16726Y-17902D02*
G01X16680Y-17857D01*
G01X16680Y-17857D02*
G01X16635Y-17834D01*
G01X16544Y-17834D02*
G01X16635Y-17834D01*
G01X16498Y-17857D02*
G01X16544Y-17834D01*
G01X16453Y-17902D02*
G01X16498Y-17857D01*
G01X16430Y-17948D02*
G01X16453Y-17902D01*
G01X16203Y-18311D02*
G01X15976Y-18311D01*
G01X16203Y-18311D02*
G01X16226Y-18107D01*
G01X16203Y-18130D02*
G01X16226Y-18107D01*
G01X16135Y-18152D02*
G01X16203Y-18130D01*
G01X16067Y-18152D02*
G01X16135Y-18152D01*
G01X16067Y-18152D02*
G01X15998Y-18130D01*
G01X15998Y-18130D02*
G01X15953Y-18084D01*
G01X15953Y-18084D02*
G01X15930Y-18016D01*
G01X15930Y-18016D02*
G01X15930Y-17971D01*
G01X15930Y-17971D02*
G01X15953Y-17902D01*
G01X15953Y-17902D02*
G01X15998Y-17857D01*
G01X15998Y-17857D02*
G01X16067Y-17834D01*
G01X16135Y-17834D02*
G01X16067Y-17834D01*
G01X16203Y-17857D02*
G01X16135Y-17834D01*
G01X16226Y-17880D02*
G01X16203Y-17857D01*
G01X16248Y-17925D02*
G01X16226Y-17880D01*
G04 Draw part J4*
G04 draw part outline for part J4*
G01X1271Y-12492D02*
G01X7271Y-12492D01*
G01X7271Y-12492D02*
G01X7271Y-13492D01*
G01X7271Y-13492D02*
G01X1271Y-13492D01*
G01X1271Y-13492D02*
G01X1271Y-12492D01*
G04 draw reference designator for part J4*
G01X4498Y-11514D02*
G01X4498Y-11878D01*
G01X4498Y-11878D02*
G01X4476Y-11946D01*
G01X4476Y-11946D02*
G01X4453Y-11969D01*
G01X4453Y-11969D02*
G01X4408Y-11992D01*
G01X4362Y-11992D02*
G01X4408Y-11992D01*
G01X4317Y-11969D02*
G01X4362Y-11992D01*
G01X4294Y-11946D02*
G01X4317Y-11969D01*
G01X4271Y-11878D02*
G01X4294Y-11946D01*
G01X4271Y-11833D02*
G01X4271Y-11878D01*
G01X4908Y-11514D02*
G01X4680Y-11833D01*
G01X5021Y-11833D02*
G01X4680Y-11833D01*
G01X4908Y-11514D02*
G01X4908Y-11992D01*
G04 Draw part U2*
G04 draw part outline for part U2*
G01X9842Y-4330D02*
G01X9842Y-15354D01*
G01X9842Y-15354D02*
G01X19291Y-15354D01*
G01X19291Y-15354D02*
G01X19291Y-4330D01*
G01X19291Y-4330D02*
G01X16441Y-1684D01*
G01X16441Y-1684D02*
G01X12691Y-1684D01*
G01X12691Y-1684D02*
G01X9842Y-4330D01*
G54D11*
G01X12691Y-1684D02*
G01X12691Y-1034D01*
G01X12691Y-1034D02*
G01X16441Y-1034D01*
G01X16441Y-1034D02*
G01X16441Y-1684D01*
G01X16441Y-1684D02*
G01X12691Y-1684D01*
G04 draw reference designator for part U2*
G54D10*
G01X12713Y-5724D02*
G01X12372Y-5724D01*
G01X12372Y-5724D02*
G01X12304Y-5747D01*
G01X12304Y-5747D02*
G01X12258Y-5792D01*
G01X12258Y-5792D02*
G01X12236Y-5860D01*
G01X12236Y-5906D02*
G01X12236Y-5860D01*
G01X12258Y-5974D02*
G01X12236Y-5906D01*
G01X12304Y-6019D02*
G01X12258Y-5974D01*
G01X12372Y-6042D02*
G01X12304Y-6019D01*
G01X12713Y-6042D02*
G01X12372Y-6042D01*
G01X12622Y-6247D02*
G01X12599Y-6247D01*
G01X12668Y-6269D02*
G01X12622Y-6247D01*
G01X12690Y-6292D02*
G01X12668Y-6269D01*
G01X12713Y-6338D02*
G01X12690Y-6292D01*
G01X12713Y-6428D02*
G01X12713Y-6338D01*
G01X12713Y-6428D02*
G01X12690Y-6474D01*
G01X12690Y-6474D02*
G01X12668Y-6497D01*
G01X12668Y-6497D02*
G01X12622Y-6519D01*
G01X12622Y-6519D02*
G01X12577Y-6519D01*
G01X12577Y-6519D02*
G01X12531Y-6497D01*
G01X12531Y-6497D02*
G01X12463Y-6451D01*
G01X12463Y-6451D02*
G01X12236Y-6224D01*
G01X12236Y-6542D02*
G01X12236Y-6224D01*
G04 Draw part C8*
G04 draw part outline for part C8*
G54D12*
G01X6417Y-9015D02*
G01X6417Y-10984D01*
G01X6417Y-10984D02*
G01X5393Y-10984D01*
G01X5393Y-10984D02*
G01X5393Y-9015D01*
G01X5393Y-9015D02*
G01X6417Y-9015D01*
G04 draw reference designator for part C8*
G01X7220Y-10318D02*
G01X7174Y-10340D01*
G01X7265Y-10272D02*
G01X7220Y-10318D01*
G01X7288Y-10227D02*
G01X7265Y-10272D01*
G01X7288Y-10136D02*
G01X7288Y-10227D01*
G01X7288Y-10136D02*
G01X7265Y-10090D01*
G01X7265Y-10090D02*
G01X7220Y-10045D01*
G01X7220Y-10045D02*
G01X7174Y-10022D01*
G01X7174Y-10022D02*
G01X7106Y-10000D01*
G01X7106Y-10000D02*
G01X6992Y-10000D01*
G01X6992Y-10000D02*
G01X6924Y-10022D01*
G01X6924Y-10022D02*
G01X6879Y-10045D01*
G01X6879Y-10045D02*
G01X6833Y-10090D01*
G01X6833Y-10090D02*
G01X6811Y-10136D01*
G01X6811Y-10227D02*
G01X6811Y-10136D01*
G01X6833Y-10272D02*
G01X6811Y-10227D01*
G01X6879Y-10318D02*
G01X6833Y-10272D01*
G01X6924Y-10340D02*
G01X6879Y-10318D01*
G01X7288Y-10636D02*
G01X7265Y-10568D01*
G01X7265Y-10568D02*
G01X7220Y-10545D01*
G01X7220Y-10545D02*
G01X7174Y-10545D01*
G01X7174Y-10545D02*
G01X7129Y-10568D01*
G01X7129Y-10568D02*
G01X7106Y-10613D01*
G01X7106Y-10613D02*
G01X7083Y-10704D01*
G01X7083Y-10704D02*
G01X7061Y-10772D01*
G01X7061Y-10772D02*
G01X7015Y-10818D01*
G01X7015Y-10818D02*
G01X6970Y-10840D01*
G01X6970Y-10840D02*
G01X6901Y-10840D01*
G01X6901Y-10840D02*
G01X6856Y-10818D01*
G01X6856Y-10818D02*
G01X6833Y-10795D01*
G01X6833Y-10795D02*
G01X6811Y-10727D01*
G01X6811Y-10636D02*
G01X6811Y-10727D01*
G01X6833Y-10568D02*
G01X6811Y-10636D01*
G01X6856Y-10545D02*
G01X6833Y-10568D01*
G01X6901Y-10522D02*
G01X6856Y-10545D01*
G01X6970Y-10522D02*
G01X6901Y-10522D01*
G01X7015Y-10545D02*
G01X6970Y-10522D01*
G01X7061Y-10590D02*
G01X7015Y-10545D01*
G01X7083Y-10659D02*
G01X7061Y-10590D01*
G01X7106Y-10750D02*
G01X7083Y-10659D01*
G01X7129Y-10795D02*
G01X7106Y-10750D01*
G01X7174Y-10818D02*
G01X7129Y-10795D01*
G01X7220Y-10818D02*
G01X7174Y-10818D01*
G01X7265Y-10795D02*
G01X7220Y-10818D01*
G01X7288Y-10727D02*
G01X7265Y-10795D01*
G01X7288Y-10636D02*
G01X7288Y-10727D01*
G04 Draw part C10*
G04 draw part outline for part C10*
G01X8385Y-9015D02*
G01X8385Y-10984D01*
G01X8385Y-10984D02*
G01X7362Y-10984D01*
G01X7362Y-10984D02*
G01X7362Y-9015D01*
G01X7362Y-9015D02*
G01X8385Y-9015D01*
G04 draw reference designator for part C10*
G01X9188Y-10318D02*
G01X9143Y-10340D01*
G01X9234Y-10272D02*
G01X9188Y-10318D01*
G01X9256Y-10227D02*
G01X9234Y-10272D01*
G01X9256Y-10136D02*
G01X9256Y-10227D01*
G01X9256Y-10136D02*
G01X9234Y-10090D01*
G01X9234Y-10090D02*
G01X9188Y-10045D01*
G01X9188Y-10045D02*
G01X9143Y-10022D01*
G01X9143Y-10022D02*
G01X9074Y-10000D01*
G01X9074Y-10000D02*
G01X8961Y-10000D01*
G01X8961Y-10000D02*
G01X8893Y-10022D01*
G01X8893Y-10022D02*
G01X8847Y-10045D01*
G01X8847Y-10045D02*
G01X8802Y-10090D01*
G01X8802Y-10090D02*
G01X8779Y-10136D01*
G01X8779Y-10227D02*
G01X8779Y-10136D01*
G01X8802Y-10272D02*
G01X8779Y-10227D01*
G01X8847Y-10318D02*
G01X8802Y-10272D01*
G01X8893Y-10340D02*
G01X8847Y-10318D01*
G01X9188Y-10568D02*
G01X9165Y-10522D01*
G01X9256Y-10636D02*
G01X9188Y-10568D01*
G01X9256Y-10636D02*
G01X8779Y-10636D01*
G01X9256Y-10954D02*
G01X9234Y-10886D01*
G01X9234Y-10886D02*
G01X9165Y-10840D01*
G01X9165Y-10840D02*
G01X9052Y-10818D01*
G01X9052Y-10818D02*
G01X8984Y-10818D01*
G01X8984Y-10818D02*
G01X8870Y-10840D01*
G01X8870Y-10840D02*
G01X8802Y-10886D01*
G01X8802Y-10886D02*
G01X8779Y-10954D01*
G01X8779Y-11000D02*
G01X8779Y-10954D01*
G01X8802Y-11068D02*
G01X8779Y-11000D01*
G01X8870Y-11113D02*
G01X8802Y-11068D01*
G01X8984Y-11136D02*
G01X8870Y-11113D01*
G01X9052Y-11136D02*
G01X8984Y-11136D01*
G01X9165Y-11113D02*
G01X9052Y-11136D01*
G01X9234Y-11068D02*
G01X9165Y-11113D01*
G01X9256Y-11000D02*
G01X9234Y-11068D01*
G01X9256Y-10954D02*
G01X9256Y-11000D01*
G04 Draw part U6*
G04 Draw part S1*
G04 draw part outline for part S1*
G01X13681Y-37401D02*
G01X13681Y-40551D01*
G01X13681Y-40551D02*
G01X17027Y-40551D01*
G01X17027Y-40551D02*
G01X17027Y-37401D01*
G01X17027Y-37401D02*
G01X15846Y-37401D01*
G01X15846Y-37401D02*
G01X15846Y-37795D01*
G01X15846Y-37795D02*
G01X14862Y-37795D01*
G01X14862Y-37795D02*
G01X14862Y-37401D01*
G01X14862Y-37401D02*
G01X13681Y-37401D01*
G04 draw reference designator for part S1*
G54D10*
G01X17383Y-40823D02*
G01X17338Y-40869D01*
G01X17406Y-40755D02*
G01X17383Y-40823D01*
G01X17406Y-40664D02*
G01X17406Y-40755D01*
G01X17406Y-40664D02*
G01X17383Y-40596D01*
G01X17383Y-40596D02*
G01X17338Y-40551D01*
G01X17338Y-40551D02*
G01X17292Y-40551D01*
G01X17292Y-40551D02*
G01X17247Y-40573D01*
G01X17247Y-40573D02*
G01X17224Y-40596D01*
G01X17224Y-40596D02*
G01X17201Y-40642D01*
G01X17201Y-40642D02*
G01X17156Y-40778D01*
G01X17156Y-40778D02*
G01X17133Y-40823D01*
G01X17133Y-40823D02*
G01X17110Y-40846D01*
G01X17110Y-40846D02*
G01X17065Y-40869D01*
G01X17065Y-40869D02*
G01X16997Y-40869D01*
G01X16997Y-40869D02*
G01X16951Y-40823D01*
G01X16951Y-40823D02*
G01X16929Y-40755D01*
G01X16929Y-40664D02*
G01X16929Y-40755D01*
G01X16951Y-40596D02*
G01X16929Y-40664D01*
G01X16997Y-40551D02*
G01X16951Y-40596D01*
G01X17338Y-41096D02*
G01X17315Y-41051D01*
G01X17406Y-41164D02*
G01X17338Y-41096D01*
G01X17406Y-41164D02*
G01X16929Y-41164D01*
G04 Draw part TP2*
G04 draw part outline for part TP2*
G54D11*
G01X1862Y-4586D02*
G01X1862Y-7586D01*
G01X1862Y-7586D02*
G01X2862Y-7586D01*
G01X2862Y-7586D02*
G01X2862Y-4586D01*
G01X2862Y-4586D02*
G01X1862Y-4586D01*
G04 draw reference designator for part TP2*
G54D12*
G01X3308Y-4640D02*
G01X3308Y-5118D01*
G01X3467Y-4640D02*
G01X3149Y-4640D01*
G01X3649Y-4640D02*
G01X3649Y-5118D01*
G01X3854Y-4640D02*
G01X3649Y-4640D01*
G01X3854Y-4640D02*
G01X3922Y-4663D01*
G01X3922Y-4663D02*
G01X3945Y-4686D01*
G01X3945Y-4686D02*
G01X3967Y-4731D01*
G01X3967Y-4731D02*
G01X3967Y-4799D01*
G01X3967Y-4799D02*
G01X3945Y-4845D01*
G01X3945Y-4845D02*
G01X3922Y-4868D01*
G01X3922Y-4868D02*
G01X3854Y-4890D01*
G01X3649Y-4890D02*
G01X3854Y-4890D01*
G01X4172Y-4731D02*
G01X4172Y-4754D01*
G01X4195Y-4686D02*
G01X4172Y-4731D01*
G01X4217Y-4663D02*
G01X4195Y-4686D01*
G01X4263Y-4640D02*
G01X4217Y-4663D01*
G01X4354Y-4640D02*
G01X4263Y-4640D01*
G01X4354Y-4640D02*
G01X4399Y-4663D01*
G01X4399Y-4663D02*
G01X4422Y-4686D01*
G01X4422Y-4686D02*
G01X4445Y-4731D01*
G01X4445Y-4731D02*
G01X4445Y-4777D01*
G01X4445Y-4777D02*
G01X4422Y-4822D01*
G01X4422Y-4822D02*
G01X4376Y-4890D01*
G01X4376Y-4890D02*
G01X4149Y-5118D01*
G01X4467Y-5118D02*
G01X4149Y-5118D01*
G04 Draw part TP1*
G04 draw part outline for part TP1*
G54D11*
G01X1862Y-649D02*
G01X1862Y-3649D01*
G01X1862Y-3649D02*
G01X2862Y-3649D01*
G01X2862Y-3649D02*
G01X2862Y-649D01*
G01X2862Y-649D02*
G01X1862Y-649D01*
G04 draw reference designator for part TP1*
G54D12*
G01X3308Y-703D02*
G01X3308Y-1181D01*
G01X3467Y-703D02*
G01X3149Y-703D01*
G01X3649Y-703D02*
G01X3649Y-1181D01*
G01X3854Y-703D02*
G01X3649Y-703D01*
G01X3854Y-703D02*
G01X3922Y-726D01*
G01X3922Y-726D02*
G01X3945Y-749D01*
G01X3945Y-749D02*
G01X3967Y-794D01*
G01X3967Y-794D02*
G01X3967Y-862D01*
G01X3967Y-862D02*
G01X3945Y-908D01*
G01X3945Y-908D02*
G01X3922Y-931D01*
G01X3922Y-931D02*
G01X3854Y-953D01*
G01X3649Y-953D02*
G01X3854Y-953D01*
G01X4195Y-772D02*
G01X4149Y-794D01*
G01X4263Y-703D02*
G01X4195Y-772D01*
G01X4263Y-703D02*
G01X4263Y-1181D01*
G04 draw part outline for part Encl*
G04 draw part outline for part K1*
G04 draw part outline for part J6*
G04 draw part outline for part J7*
G04 draw part outline for part J8*
G04 draw part outline for part J9*
G04 draw part outline for part S10*
G04 draw part outline for part spacer1*
G04 draw part outline for part spacer2*
G04 draw part outline for part spacer3*
G04 draw part outline for part spacer4*
G04 draw part outline for part A1*

G04 Draw traces*

G04 Draw Text*
M00*
M02*
