;Holesize 1 =   40.0 PLATED MILS
;Holesize 2 =   28.0 PLATED MILS
;Holesize 3 =   35.0 PLATED MILS
;Holesize 4 =   29.0 PLATED MILS
;Holesize 5 =   43.0 PLATED MILS
;Holesize 6 =   14.0 PLATED MILS
M48
INCH,00.0000
T01C0.040
T02C0.028
T03C0.035
T04C0.029
T05C0.043
T06C0.014
%
G05
G90
T01
X027800Y-040900
X026800Y-040900
X020700Y-001100
X021700Y-001100
X022700Y-001100
X004100Y-006900
X003100Y-006900
X002100Y-006900
T02
X022000Y-021400
X021000Y-021400
X020000Y-021400
X019000Y-021400
X018000Y-021400
X017000Y-021400
X016000Y-021400
X015000Y-021400
X014000Y-021400
X013000Y-021400
X012000Y-021400
X011000Y-021400
X010000Y-021400
X009000Y-021400
X008000Y-021400
X007000Y-021400
X006000Y-021400
X005000Y-021400
X004000Y-021400
X003000Y-021400
X003000Y-027400
X004000Y-027400
X005000Y-027400
X006000Y-027400
X007000Y-027400
X008000Y-027400
X009000Y-027400
X010000Y-027400
X011000Y-027400
X012000Y-027400
X013000Y-027400
X014000Y-027400
X015000Y-027400
X016000Y-027400
X017000Y-027400
X018000Y-027400
X019000Y-027400
X020000Y-027400
X021000Y-027400
X022000Y-027400
X025000Y-032900
X024000Y-032900
X023000Y-032900
X022000Y-032900
X021000Y-032900
X020000Y-032900
X019000Y-032900
X018000Y-032900
X017000Y-032900
X016000Y-032900
X015000Y-032900
X014000Y-032900
X013000Y-032900
X012000Y-032900
X011000Y-032900
X010000Y-032900
X009000Y-032900
X008000Y-032900
X007000Y-032900
X006000Y-032900
X005000Y-032900
X004000Y-032900
X004000Y-017900
X005000Y-017900
X006000Y-017900
X007000Y-017900
X008000Y-017900
X009000Y-017900
X010000Y-017900
X011000Y-017900
X012000Y-017900
X013000Y-017900
X014000Y-017900
X015000Y-017900
X016000Y-017900
X017000Y-017900
X018000Y-017900
X019000Y-017900
X020000Y-017900
X021000Y-017900
X022000Y-017900
X023000Y-017900
X024000Y-017900
X025000Y-017900
T03
X005350Y-030173
X006850Y-030173
T04
X007000Y-004000
X007000Y-004780
X007000Y-005570
X007000Y-006362
X007000Y-007149
X007000Y-007937
X007000Y-008724
X007000Y-009511
X007000Y-010299
X007000Y-011086
X015661Y-011086
X015661Y-010299
X015661Y-009511
X015661Y-008724
X015661Y-007937
X015661Y-007149
X015661Y-006362
X015661Y-005574
X015661Y-004787
X015660Y-004000
T05
X002000Y-004900
X004000Y-004900
X025000Y-003800
X026000Y-003800
X027000Y-003800
X025000Y-001800
X027000Y-001800
T06
X022600Y-022050
X024000Y-022650
X011000Y-022650
X028200Y-040400
X010500Y-025200
X005600Y-028550
X011900Y-028550
X016800Y-007400
X016800Y-016850
X024150Y-006850
X024500Y-020500
X024150Y-006900
X023000Y-022350
X010000Y-022350
X004850Y-015100
X021500Y-015100
X022700Y-006400
X004600Y-029350
X001800Y-022050
X001800Y-026200
X001800Y-022050
X003150Y-014300
X016400Y-013850
X016400Y-008900
X006450Y-020750
X025000Y-022900
X013550Y-022900
X006100Y-028200
X013500Y-014350
M30
