G04 FreePCB version 1.359*
G04 C:\Users\waynej\Documents\GitHub\mlaunch\mGPS\CAM-receiver-a2235\top_silk.grb*
G04 top silk layer *
G04 Scale: 100 percent, Rotated: No, Reflected: No *
%FSLAX24Y24*%
%MOIN*%
%LN top silk *%
G04 Rounded Rectangle Macro, params: W/2, H/2, R *
%AMRNDREC*
21,1,$1+$1,$2+$2-$3-$3,0,0,0*
21,1,$1+$1-$3-$3,$2+$2,0,0,0*
1,1,$3+$3,$1-$3,$2-$3*
1,1,$3+$3,$3-$1,$2-$3*
1,1,$3+$3,$1-$3,$3-$2*
1,1,$3+$3,$3-$1,$3-$2*%
G04 Rectangular Thermal Macro, params: W/2, H/2, T/2 *
%AMRECTHERM*
$4=$3/2*
21,1,$1-$3,$2-$3,0-$1/2-$4,0-$2/2-$4,0*
21,1,$1-$3,$2-$3,0-$1/2-$4,$2/2+$4,0*
21,1,$1-$3,$2-$3,$1/2+$4,0-$2/2-$4,0*
21,1,$1-$3,$2-$3,$1/2+$4,$2/2+$4,0*%
%ADD10C,0.005000*%
%ADD11C,0.010000*%
%ADD12C,0.007000*%
G90*
G70D02*

G04 Step and Repeat for panelization *

G04 ----------------------- Draw board outline (positive)*
%LPD*%
G54D10*
G01X29000Y-42047D02*
G01X29003Y-11366D01*
G04 end of side 1*
G01X26299Y-11366D01*
G04 end of side 2*
G01X26259Y-11365D01*
G01X26219Y-11363D01*
G01X26180Y-11360D01*
G01X26140Y-11356D01*
G01X26100Y-11351D01*
G01X26061Y-11344D01*
G01X26022Y-11337D01*
G01X25983Y-11328D01*
G01X25945Y-11318D01*
G01X25907Y-11307D01*
G01X25869Y-11295D01*
G01X25831Y-11281D01*
G01X25794Y-11267D01*
G01X25758Y-11251D01*
G01X25721Y-11235D01*
G01X25686Y-11217D01*
G01X25651Y-11198D01*
G01X25616Y-11179D01*
G01X25582Y-11158D01*
G01X25549Y-11136D01*
G01X25516Y-11113D01*
G01X25484Y-11089D01*
G01X25453Y-11065D01*
G01X25422Y-11039D01*
G01X25393Y-11013D01*
G01X25364Y-10985D01*
G01X25335Y-10957D01*
G01X25308Y-10928D01*
G01X25282Y-10898D01*
G01X25256Y-10868D01*
G01X25232Y-10836D01*
G01X25208Y-10804D01*
G01X25185Y-10771D01*
G01X25163Y-10738D01*
G01X25143Y-10704D01*
G01X25123Y-10669D01*
G01X25104Y-10634D01*
G01X25087Y-10598D01*
G01X25070Y-10562D01*
G01X25055Y-10525D01*
G01X25040Y-10488D01*
G01X25027Y-10450D01*
G01X25015Y-10412D01*
G01X25004Y-10374D01*
G01X24994Y-10335D01*
G01X24985Y-10297D01*
G01X24977Y-10257D01*
G01X24971Y-10218D01*
G01X24966Y-10178D01*
G01X24961Y-10139D01*
G01X24959Y-10099D01*
G01X24957Y-10059D01*
G01X24956Y-10019D01*
G04 end of side 3*
G01X24957Y-9980D01*
G01X24958Y-9940D01*
G01X24961Y-9901D01*
G01X24965Y-9861D01*
G01X24970Y-9822D01*
G01X24977Y-9783D01*
G01X24984Y-9745D01*
G01X24992Y-9706D01*
G01X25002Y-9668D01*
G01X25013Y-9630D01*
G01X25024Y-9592D01*
G01X25037Y-9555D01*
G01X25051Y-9518D01*
G01X25066Y-9481D01*
G01X25082Y-9445D01*
G01X25099Y-9410D01*
G01X25117Y-9375D01*
G01X25136Y-9340D01*
G01X25156Y-9306D01*
G01X25177Y-9273D01*
G01X25199Y-9240D01*
G01X25222Y-9208D01*
G01X25246Y-9177D01*
G01X25270Y-9146D01*
G01X25296Y-9116D01*
G01X25322Y-9087D01*
G01X25349Y-9059D01*
G01X25377Y-9031D01*
G01X25406Y-9005D01*
G01X25436Y-8979D01*
G01X25466Y-8954D01*
G01X25497Y-8930D01*
G01X25529Y-8907D01*
G01X25561Y-8884D01*
G01X25594Y-8863D01*
G01X25627Y-8843D01*
G01X25662Y-8824D01*
G01X25696Y-8805D01*
G01X25731Y-8788D01*
G01X25767Y-8772D01*
G01X25803Y-8757D01*
G01X25840Y-8743D01*
G01X25876Y-8730D01*
G01X25914Y-8718D01*
G01X25951Y-8707D01*
G01X25989Y-8698D01*
G01X26027Y-8689D01*
G01X26066Y-8682D01*
G01X26104Y-8675D01*
G01X26143Y-8670D01*
G01X26182Y-8666D01*
G01X26221Y-8663D01*
G01X26260Y-8661D01*
G01X26299Y-8661D01*
G04 end of side 4*
G01X27753Y-8673D01*
G04 end of side 5*
G01X27753Y0D01*
G04 end of side 6*
G01X1250Y0D01*
G04 end of side 7*
G01X1250Y-8673D01*
G04 end of side 8*
G01X2700Y-8673D01*
G04 end of side 9*
G01X2740Y-8673D01*
G01X2780Y-8675D01*
G01X2820Y-8678D01*
G01X2860Y-8682D01*
G01X2899Y-8687D01*
G01X2938Y-8694D01*
G01X2978Y-8702D01*
G01X3017Y-8710D01*
G01X3055Y-8720D01*
G01X3094Y-8731D01*
G01X3132Y-8744D01*
G01X3169Y-8757D01*
G01X3206Y-8771D01*
G01X3243Y-8787D01*
G01X3279Y-8804D01*
G01X3315Y-8821D01*
G01X3350Y-8840D01*
G01X3385Y-8860D01*
G01X3419Y-8881D01*
G01X3452Y-8902D01*
G01X3485Y-8925D01*
G01X3517Y-8949D01*
G01X3549Y-8974D01*
G01X3579Y-8999D01*
G01X3609Y-9026D01*
G01X3638Y-9053D01*
G01X3666Y-9081D01*
G01X3694Y-9110D01*
G01X3720Y-9140D01*
G01X3746Y-9171D01*
G01X3771Y-9202D01*
G01X3794Y-9234D01*
G01X3817Y-9267D01*
G01X3839Y-9300D01*
G01X3860Y-9334D01*
G01X3879Y-9369D01*
G01X3898Y-9404D01*
G01X3916Y-9440D01*
G01X3932Y-9476D01*
G01X3948Y-9513D01*
G01X3962Y-9550D01*
G01X3976Y-9588D01*
G01X3988Y-9626D01*
G01X3999Y-9664D01*
G01X4009Y-9703D01*
G01X4018Y-9742D01*
G01X4026Y-9781D01*
G01X4032Y-9820D01*
G01X4037Y-9860D01*
G01X4041Y-9900D01*
G01X4044Y-9939D01*
G01X4046Y-9979D01*
G01X4047Y-10019D01*
G04 end of side 10*
G01X4046Y-10059D01*
G01X4044Y-10099D01*
G01X4041Y-10139D01*
G01X4037Y-10178D01*
G01X4032Y-10218D01*
G01X4026Y-10257D01*
G01X4018Y-10297D01*
G01X4009Y-10335D01*
G01X3999Y-10374D01*
G01X3988Y-10412D01*
G01X3976Y-10450D01*
G01X3962Y-10488D01*
G01X3948Y-10525D01*
G01X3932Y-10562D01*
G01X3916Y-10598D01*
G01X3898Y-10634D01*
G01X3879Y-10669D01*
G01X3860Y-10704D01*
G01X3839Y-10738D01*
G01X3817Y-10771D01*
G01X3794Y-10804D01*
G01X3771Y-10836D01*
G01X3746Y-10868D01*
G01X3720Y-10898D01*
G01X3694Y-10928D01*
G01X3666Y-10957D01*
G01X3638Y-10985D01*
G01X3609Y-11013D01*
G01X3579Y-11039D01*
G01X3549Y-11065D01*
G01X3517Y-11089D01*
G01X3485Y-11113D01*
G01X3452Y-11136D01*
G01X3419Y-11158D01*
G01X3385Y-11179D01*
G01X3350Y-11198D01*
G01X3315Y-11217D01*
G01X3279Y-11235D01*
G01X3243Y-11251D01*
G01X3206Y-11267D01*
G01X3169Y-11281D01*
G01X3132Y-11295D01*
G01X3094Y-11307D01*
G01X3055Y-11318D01*
G01X3017Y-11328D01*
G01X2978Y-11337D01*
G01X2938Y-11344D01*
G01X2899Y-11351D01*
G01X2860Y-11356D01*
G01X2820Y-11360D01*
G01X2780Y-11363D01*
G01X2740Y-11365D01*
G01X2700Y-11366D01*
G04 end of side 11*
G01X0Y-11366D01*
G04 end of side 12*
G01X0Y-42047D01*
G04 end of side 13*
G01X29000Y-42047D01*
G01X4809Y-4523D02*
G01X4810Y-4563D01*
G01X4814Y-4602D01*
G01X4820Y-4641D01*
G01X4828Y-4680D01*
G01X4839Y-4718D01*
G01X4853Y-4755D01*
G01X4869Y-4791D01*
G01X4886Y-4827D01*
G01X4907Y-4861D01*
G01X4929Y-4893D01*
G01X4953Y-4925D01*
G01X4979Y-4954D01*
G01X5007Y-4982D01*
G01X5037Y-5008D01*
G01X5068Y-5033D01*
G01X5101Y-5055D01*
G01X5135Y-5075D01*
G01X5170Y-5093D01*
G01X5207Y-5109D01*
G01X5244Y-5122D01*
G01X5282Y-5133D01*
G01X5320Y-5142D01*
G01X5360Y-5148D01*
G01X5399Y-5152D01*
G01X5438Y-5153D01*
G04 end of side 1*
G01X5478Y-5152D01*
G01X5517Y-5148D01*
G01X5557Y-5142D01*
G01X5595Y-5133D01*
G01X5633Y-5122D01*
G01X5670Y-5109D01*
G01X5707Y-5093D01*
G01X5742Y-5075D01*
G01X5776Y-5055D01*
G01X5809Y-5033D01*
G01X5840Y-5008D01*
G01X5870Y-4982D01*
G01X5898Y-4954D01*
G01X5924Y-4925D01*
G01X5948Y-4893D01*
G01X5970Y-4861D01*
G01X5990Y-4827D01*
G01X6008Y-4791D01*
G01X6024Y-4755D01*
G01X6038Y-4718D01*
G01X6049Y-4680D01*
G01X6057Y-4641D01*
G01X6063Y-4602D01*
G01X6067Y-4563D01*
G01X6068Y-4523D01*
G04 end of side 2*
G01X6067Y-4484D01*
G01X6063Y-4444D01*
G01X6057Y-4405D01*
G01X6049Y-4366D01*
G01X6038Y-4328D01*
G01X6024Y-4291D01*
G01X6008Y-4255D01*
G01X5990Y-4220D01*
G01X5970Y-4186D01*
G01X5948Y-4153D01*
G01X5924Y-4122D01*
G01X5898Y-4092D01*
G01X5870Y-4064D01*
G01X5840Y-4038D01*
G01X5809Y-4014D01*
G01X5776Y-3991D01*
G01X5742Y-3971D01*
G01X5707Y-3953D01*
G01X5670Y-3937D01*
G01X5633Y-3924D01*
G01X5595Y-3913D01*
G01X5557Y-3904D01*
G01X5517Y-3898D01*
G01X5478Y-3894D01*
G01X5438Y-3893D01*
G04 end of side 3*
G01X5399Y-3894D01*
G01X5360Y-3898D01*
G01X5320Y-3904D01*
G01X5282Y-3913D01*
G01X5244Y-3924D01*
G01X5207Y-3937D01*
G01X5170Y-3953D01*
G01X5135Y-3971D01*
G01X5101Y-3991D01*
G01X5068Y-4014D01*
G01X5037Y-4038D01*
G01X5007Y-4064D01*
G01X4979Y-4092D01*
G01X4953Y-4122D01*
G01X4929Y-4153D01*
G01X4907Y-4186D01*
G01X4886Y-4220D01*
G01X4869Y-4255D01*
G01X4853Y-4291D01*
G01X4839Y-4328D01*
G01X4828Y-4366D01*
G01X4820Y-4405D01*
G01X4814Y-4444D01*
G01X4810Y-4484D01*
G01X4809Y-4523D01*
G01X23564Y-5153D02*
G01X23525Y-5152D01*
G01X23486Y-5148D01*
G01X23446Y-5142D01*
G01X23408Y-5133D01*
G01X23370Y-5122D01*
G01X23333Y-5109D01*
G01X23296Y-5093D01*
G01X23261Y-5075D01*
G01X23227Y-5055D01*
G01X23194Y-5033D01*
G01X23163Y-5008D01*
G01X23133Y-4982D01*
G01X23105Y-4954D01*
G01X23079Y-4925D01*
G01X23055Y-4893D01*
G01X23033Y-4861D01*
G01X23012Y-4827D01*
G01X22994Y-4791D01*
G01X22979Y-4755D01*
G01X22965Y-4718D01*
G01X22954Y-4680D01*
G01X22946Y-4641D01*
G01X22940Y-4602D01*
G01X22936Y-4563D01*
G01X22935Y-4523D01*
G04 end of side 1*
G01X22936Y-4484D01*
G01X22940Y-4444D01*
G01X22946Y-4405D01*
G01X22954Y-4366D01*
G01X22965Y-4328D01*
G01X22979Y-4291D01*
G01X22994Y-4255D01*
G01X23012Y-4220D01*
G01X23033Y-4186D01*
G01X23055Y-4153D01*
G01X23079Y-4122D01*
G01X23105Y-4092D01*
G01X23133Y-4064D01*
G01X23163Y-4038D01*
G01X23194Y-4014D01*
G01X23227Y-3991D01*
G01X23261Y-3971D01*
G01X23296Y-3953D01*
G01X23333Y-3937D01*
G01X23370Y-3924D01*
G01X23408Y-3913D01*
G01X23446Y-3904D01*
G01X23486Y-3898D01*
G01X23525Y-3894D01*
G01X23564Y-3893D01*
G04 end of side 2*
G01X23604Y-3894D01*
G01X23643Y-3898D01*
G01X23682Y-3904D01*
G01X23721Y-3913D01*
G01X23759Y-3924D01*
G01X23796Y-3937D01*
G01X23833Y-3953D01*
G01X23868Y-3971D01*
G01X23902Y-3991D01*
G01X23935Y-4014D01*
G01X23966Y-4038D01*
G01X23996Y-4064D01*
G01X24024Y-4092D01*
G01X24050Y-4122D01*
G01X24074Y-4153D01*
G01X24096Y-4186D01*
G01X24116Y-4220D01*
G01X24134Y-4255D01*
G01X24150Y-4291D01*
G01X24164Y-4328D01*
G01X24175Y-4366D01*
G01X24183Y-4405D01*
G01X24189Y-4444D01*
G01X24193Y-4484D01*
G01X24194Y-4523D01*
G04 end of side 3*
G01X24193Y-4563D01*
G01X24189Y-4602D01*
G01X24183Y-4641D01*
G01X24175Y-4680D01*
G01X24164Y-4718D01*
G01X24150Y-4755D01*
G01X24134Y-4791D01*
G01X24116Y-4827D01*
G01X24096Y-4861D01*
G01X24074Y-4893D01*
G01X24050Y-4925D01*
G01X24024Y-4954D01*
G01X23996Y-4982D01*
G01X23966Y-5008D01*
G01X23935Y-5033D01*
G01X23902Y-5055D01*
G01X23868Y-5075D01*
G01X23833Y-5093D01*
G01X23796Y-5109D01*
G01X23759Y-5122D01*
G01X23721Y-5133D01*
G01X23682Y-5142D01*
G01X23643Y-5148D01*
G01X23604Y-5152D01*
G01X23564Y-5153D01*
G01X2149Y-17019D02*
G01X2110Y-17018D01*
G01X2070Y-17014D01*
G01X2031Y-17008D01*
G01X1992Y-16999D01*
G01X1954Y-16988D01*
G01X1917Y-16975D01*
G01X1881Y-16959D01*
G01X1846Y-16941D01*
G01X1812Y-16921D01*
G01X1779Y-16899D01*
G01X1748Y-16875D01*
G01X1718Y-16848D01*
G01X1690Y-16820D01*
G01X1664Y-16791D01*
G01X1639Y-16760D01*
G01X1617Y-16727D01*
G01X1597Y-16693D01*
G01X1579Y-16657D01*
G01X1563Y-16621D01*
G01X1550Y-16584D01*
G01X1539Y-16546D01*
G01X1530Y-16507D01*
G01X1524Y-16468D01*
G01X1520Y-16429D01*
G01X1519Y-16389D01*
G04 end of side 1*
G01X1520Y-16350D01*
G01X1524Y-16310D01*
G01X1530Y-16271D01*
G01X1539Y-16233D01*
G01X1550Y-16195D01*
G01X1563Y-16157D01*
G01X1579Y-16121D01*
G01X1597Y-16086D01*
G01X1617Y-16052D01*
G01X1639Y-16019D01*
G01X1664Y-15988D01*
G01X1690Y-15958D01*
G01X1718Y-15930D01*
G01X1748Y-15904D01*
G01X1779Y-15880D01*
G01X1812Y-15857D01*
G01X1846Y-15837D01*
G01X1881Y-15819D01*
G01X1917Y-15804D01*
G01X1954Y-15790D01*
G01X1992Y-15779D01*
G01X2031Y-15771D01*
G01X2070Y-15764D01*
G01X2110Y-15761D01*
G01X2149Y-15759D01*
G04 end of side 2*
G01X2189Y-15761D01*
G01X2228Y-15764D01*
G01X2267Y-15771D01*
G01X2306Y-15779D01*
G01X2344Y-15790D01*
G01X2381Y-15804D01*
G01X2417Y-15819D01*
G01X2453Y-15837D01*
G01X2487Y-15857D01*
G01X2519Y-15880D01*
G01X2551Y-15904D01*
G01X2580Y-15930D01*
G01X2608Y-15958D01*
G01X2634Y-15988D01*
G01X2659Y-16019D01*
G01X2681Y-16052D01*
G01X2701Y-16086D01*
G01X2719Y-16121D01*
G01X2735Y-16157D01*
G01X2748Y-16195D01*
G01X2759Y-16233D01*
G01X2768Y-16271D01*
G01X2774Y-16310D01*
G01X2778Y-16350D01*
G01X2779Y-16389D01*
G04 end of side 3*
G01X2778Y-16429D01*
G01X2774Y-16468D01*
G01X2768Y-16507D01*
G01X2759Y-16546D01*
G01X2748Y-16584D01*
G01X2735Y-16621D01*
G01X2719Y-16657D01*
G01X2701Y-16693D01*
G01X2681Y-16727D01*
G01X2659Y-16760D01*
G01X2634Y-16791D01*
G01X2608Y-16820D01*
G01X2580Y-16848D01*
G01X2551Y-16875D01*
G01X2519Y-16899D01*
G01X2487Y-16921D01*
G01X2453Y-16941D01*
G01X2417Y-16959D01*
G01X2381Y-16975D01*
G01X2344Y-16988D01*
G01X2306Y-16999D01*
G01X2267Y-17008D01*
G01X2228Y-17014D01*
G01X2189Y-17018D01*
G01X2149Y-17019D01*
G01X26854Y-17019D02*
G01X26814Y-17018D01*
G01X26775Y-17014D01*
G01X26736Y-17008D01*
G01X26697Y-16999D01*
G01X26659Y-16988D01*
G01X26622Y-16975D01*
G01X26586Y-16959D01*
G01X26550Y-16941D01*
G01X26516Y-16921D01*
G01X26484Y-16899D01*
G01X26452Y-16875D01*
G01X26423Y-16848D01*
G01X26395Y-16820D01*
G01X26368Y-16791D01*
G01X26344Y-16760D01*
G01X26322Y-16727D01*
G01X26302Y-16693D01*
G01X26284Y-16657D01*
G01X26268Y-16621D01*
G01X26255Y-16584D01*
G01X26244Y-16546D01*
G01X26235Y-16507D01*
G01X26229Y-16468D01*
G01X26225Y-16429D01*
G01X26224Y-16389D01*
G04 end of side 1*
G01X26225Y-16350D01*
G01X26229Y-16310D01*
G01X26235Y-16271D01*
G01X26244Y-16233D01*
G01X26255Y-16195D01*
G01X26268Y-16157D01*
G01X26284Y-16121D01*
G01X26302Y-16086D01*
G01X26322Y-16052D01*
G01X26344Y-16019D01*
G01X26368Y-15988D01*
G01X26395Y-15958D01*
G01X26423Y-15930D01*
G01X26452Y-15904D01*
G01X26484Y-15880D01*
G01X26516Y-15857D01*
G01X26550Y-15837D01*
G01X26586Y-15819D01*
G01X26622Y-15804D01*
G01X26659Y-15790D01*
G01X26697Y-15779D01*
G01X26736Y-15771D01*
G01X26775Y-15764D01*
G01X26814Y-15761D01*
G01X26854Y-15759D01*
G04 end of side 2*
G01X26893Y-15761D01*
G01X26933Y-15764D01*
G01X26972Y-15771D01*
G01X27010Y-15779D01*
G01X27048Y-15790D01*
G01X27086Y-15804D01*
G01X27122Y-15819D01*
G01X27157Y-15837D01*
G01X27191Y-15857D01*
G01X27224Y-15880D01*
G01X27255Y-15904D01*
G01X27285Y-15930D01*
G01X27313Y-15958D01*
G01X27339Y-15988D01*
G01X27363Y-16019D01*
G01X27386Y-16052D01*
G01X27406Y-16086D01*
G01X27424Y-16121D01*
G01X27440Y-16157D01*
G01X27453Y-16195D01*
G01X27464Y-16233D01*
G01X27473Y-16271D01*
G01X27479Y-16310D01*
G01X27483Y-16350D01*
G01X27484Y-16389D01*
G04 end of side 3*
G01X27483Y-16429D01*
G01X27479Y-16468D01*
G01X27473Y-16507D01*
G01X27464Y-16546D01*
G01X27453Y-16584D01*
G01X27440Y-16621D01*
G01X27424Y-16657D01*
G01X27406Y-16693D01*
G01X27386Y-16727D01*
G01X27363Y-16760D01*
G01X27339Y-16791D01*
G01X27313Y-16820D01*
G01X27285Y-16848D01*
G01X27255Y-16875D01*
G01X27224Y-16899D01*
G01X27191Y-16921D01*
G01X27157Y-16941D01*
G01X27122Y-16959D01*
G01X27086Y-16975D01*
G01X27048Y-16988D01*
G01X27010Y-16999D01*
G01X26972Y-17008D01*
G01X26933Y-17014D01*
G01X26893Y-17018D01*
G01X26854Y-17019D01*
G01X2149Y-35086D02*
G01X2110Y-35085D01*
G01X2070Y-35081D01*
G01X2031Y-35075D01*
G01X1992Y-35066D01*
G01X1954Y-35055D01*
G01X1917Y-35042D01*
G01X1881Y-35026D01*
G01X1846Y-35008D01*
G01X1812Y-34988D01*
G01X1779Y-34966D01*
G01X1748Y-34942D01*
G01X1718Y-34915D01*
G01X1690Y-34887D01*
G01X1664Y-34858D01*
G01X1639Y-34826D01*
G01X1617Y-34794D01*
G01X1597Y-34760D01*
G01X1579Y-34724D01*
G01X1563Y-34688D01*
G01X1550Y-34651D01*
G01X1539Y-34613D01*
G01X1530Y-34574D01*
G01X1524Y-34535D01*
G01X1520Y-34496D01*
G01X1519Y-34456D01*
G04 end of side 1*
G01X1520Y-34417D01*
G01X1524Y-34377D01*
G01X1530Y-34338D01*
G01X1539Y-34300D01*
G01X1550Y-34262D01*
G01X1563Y-34224D01*
G01X1579Y-34188D01*
G01X1597Y-34153D01*
G01X1617Y-34119D01*
G01X1639Y-34086D01*
G01X1664Y-34055D01*
G01X1690Y-34025D01*
G01X1718Y-33997D01*
G01X1748Y-33971D01*
G01X1779Y-33947D01*
G01X1812Y-33924D01*
G01X1846Y-33904D01*
G01X1881Y-33886D01*
G01X1917Y-33871D01*
G01X1954Y-33857D01*
G01X1992Y-33846D01*
G01X2031Y-33837D01*
G01X2070Y-33831D01*
G01X2110Y-33828D01*
G01X2149Y-33826D01*
G04 end of side 2*
G01X2189Y-33828D01*
G01X2228Y-33831D01*
G01X2267Y-33837D01*
G01X2306Y-33846D01*
G01X2344Y-33857D01*
G01X2381Y-33871D01*
G01X2417Y-33886D01*
G01X2453Y-33904D01*
G01X2487Y-33924D01*
G01X2519Y-33947D01*
G01X2551Y-33971D01*
G01X2580Y-33997D01*
G01X2608Y-34025D01*
G01X2634Y-34055D01*
G01X2659Y-34086D01*
G01X2681Y-34119D01*
G01X2701Y-34153D01*
G01X2719Y-34188D01*
G01X2735Y-34224D01*
G01X2748Y-34262D01*
G01X2759Y-34300D01*
G01X2768Y-34338D01*
G01X2774Y-34377D01*
G01X2778Y-34417D01*
G01X2779Y-34456D01*
G04 end of side 3*
G01X2778Y-34496D01*
G01X2774Y-34535D01*
G01X2768Y-34574D01*
G01X2759Y-34613D01*
G01X2748Y-34651D01*
G01X2735Y-34688D01*
G01X2719Y-34724D01*
G01X2701Y-34760D01*
G01X2681Y-34794D01*
G01X2659Y-34826D01*
G01X2634Y-34858D01*
G01X2608Y-34887D01*
G01X2580Y-34915D01*
G01X2551Y-34942D01*
G01X2519Y-34966D01*
G01X2487Y-34988D01*
G01X2453Y-35008D01*
G01X2417Y-35026D01*
G01X2381Y-35042D01*
G01X2344Y-35055D01*
G01X2306Y-35066D01*
G01X2267Y-35075D01*
G01X2228Y-35081D01*
G01X2189Y-35085D01*
G01X2149Y-35086D01*
G01X26854Y-35086D02*
G01X26893Y-35085D01*
G01X26933Y-35081D01*
G01X26972Y-35075D01*
G01X27010Y-35066D01*
G01X27048Y-35055D01*
G01X27086Y-35042D01*
G01X27122Y-35026D01*
G01X27157Y-35008D01*
G01X27191Y-34988D01*
G01X27224Y-34966D01*
G01X27255Y-34942D01*
G01X27285Y-34915D01*
G01X27313Y-34887D01*
G01X27339Y-34858D01*
G01X27363Y-34826D01*
G01X27386Y-34794D01*
G01X27406Y-34760D01*
G01X27424Y-34724D01*
G01X27440Y-34688D01*
G01X27453Y-34651D01*
G01X27464Y-34613D01*
G01X27473Y-34574D01*
G01X27479Y-34535D01*
G01X27483Y-34496D01*
G01X27484Y-34456D01*
G04 end of side 1*
G01X27483Y-34417D01*
G01X27479Y-34377D01*
G01X27473Y-34338D01*
G01X27464Y-34300D01*
G01X27453Y-34262D01*
G01X27440Y-34224D01*
G01X27424Y-34188D01*
G01X27406Y-34153D01*
G01X27386Y-34119D01*
G01X27363Y-34086D01*
G01X27339Y-34055D01*
G01X27313Y-34025D01*
G01X27285Y-33997D01*
G01X27255Y-33971D01*
G01X27224Y-33947D01*
G01X27191Y-33924D01*
G01X27157Y-33904D01*
G01X27122Y-33886D01*
G01X27086Y-33871D01*
G01X27048Y-33857D01*
G01X27010Y-33846D01*
G01X26972Y-33837D01*
G01X26933Y-33831D01*
G01X26893Y-33828D01*
G01X26854Y-33826D01*
G04 end of side 2*
G01X26814Y-33828D01*
G01X26775Y-33831D01*
G01X26736Y-33837D01*
G01X26697Y-33846D01*
G01X26659Y-33857D01*
G01X26622Y-33871D01*
G01X26586Y-33886D01*
G01X26550Y-33904D01*
G01X26516Y-33924D01*
G01X26484Y-33947D01*
G01X26452Y-33971D01*
G01X26423Y-33997D01*
G01X26395Y-34025D01*
G01X26368Y-34055D01*
G01X26344Y-34086D01*
G01X26322Y-34119D01*
G01X26302Y-34153D01*
G01X26284Y-34188D01*
G01X26268Y-34224D01*
G01X26255Y-34262D01*
G01X26244Y-34300D01*
G01X26235Y-34338D01*
G01X26229Y-34377D01*
G01X26225Y-34417D01*
G01X26224Y-34456D01*
G04 end of side 3*
G01X26225Y-34496D01*
G01X26229Y-34535D01*
G01X26235Y-34574D01*
G01X26244Y-34613D01*
G01X26255Y-34651D01*
G01X26268Y-34688D01*
G01X26284Y-34724D01*
G01X26302Y-34760D01*
G01X26322Y-34794D01*
G01X26344Y-34826D01*
G01X26368Y-34858D01*
G01X26395Y-34887D01*
G01X26423Y-34915D01*
G01X26452Y-34942D01*
G01X26484Y-34966D01*
G01X26516Y-34988D01*
G01X26550Y-35008D01*
G01X26586Y-35026D01*
G01X26622Y-35042D01*
G01X26659Y-35055D01*
G01X26697Y-35066D01*
G01X26736Y-35075D01*
G01X26775Y-35081D01*
G01X26814Y-35085D01*
G01X26854Y-35086D01*

G04 -------------- Draw Parts, Pads, Traces, Vias and Text (positive)*
%LPD*%
G04 Draw part J1*
G04 draw part outline for part J1*
G54D11*
G01X26300Y-41400D02*
G01X28300Y-41400D01*
G01X28300Y-41400D02*
G01X28300Y-40400D01*
G01X28300Y-40400D02*
G01X26300Y-40400D01*
G01X26300Y-40400D02*
G01X26300Y-41400D01*
G04 draw reference designator for part J1*
G54D12*
G01X25522Y-41272D02*
G01X25886Y-41272D01*
G01X25886Y-41272D02*
G01X25954Y-41295D01*
G01X25954Y-41295D02*
G01X25977Y-41318D01*
G01X25977Y-41318D02*
G01X26000Y-41363D01*
G01X26000Y-41409D02*
G01X26000Y-41363D01*
G01X25977Y-41454D02*
G01X26000Y-41409D01*
G01X25954Y-41477D02*
G01X25977Y-41454D01*
G01X25886Y-41500D02*
G01X25954Y-41477D01*
G01X25840Y-41500D02*
G01X25886Y-41500D01*
G01X25590Y-41045D02*
G01X25613Y-41090D01*
G01X25522Y-40977D02*
G01X25590Y-41045D01*
G01X25522Y-40977D02*
G01X26000Y-40977D01*
G04 Draw part D1*
G04 draw part outline for part D1*
G01X23114Y-37800D02*
G01X23114Y-35748D01*
G01X23114Y-35748D02*
G01X22164Y-35752D01*
G01X22164Y-35752D02*
G01X22164Y-36067D01*
G01X22164Y-36067D02*
G01X21731Y-36067D01*
G01X21731Y-36067D02*
G01X21731Y-35752D01*
G01X21731Y-35752D02*
G01X20845Y-35748D01*
G01X20845Y-35748D02*
G01X20845Y-37800D01*
G01X20845Y-37800D02*
G01X23114Y-37800D01*
G54D10*
G01X20110Y-35079D02*
G01X20432Y-35079D01*
G01X20271Y-34918D02*
G01X20271Y-35240D01*
G04 draw reference designator for part D1*
G01X21222Y-39800D02*
G01X21700Y-39800D01*
G01X21222Y-39640D02*
G01X21222Y-39800D01*
G01X21222Y-39640D02*
G01X21245Y-39572D01*
G01X21245Y-39572D02*
G01X21290Y-39527D01*
G01X21290Y-39527D02*
G01X21336Y-39504D01*
G01X21336Y-39504D02*
G01X21404Y-39481D01*
G01X21404Y-39481D02*
G01X21518Y-39481D01*
G01X21518Y-39481D02*
G01X21586Y-39504D01*
G01X21586Y-39504D02*
G01X21631Y-39527D01*
G01X21631Y-39527D02*
G01X21677Y-39572D01*
G01X21677Y-39572D02*
G01X21700Y-39640D01*
G01X21700Y-39800D02*
G01X21700Y-39640D01*
G01X21290Y-39254D02*
G01X21313Y-39300D01*
G01X21222Y-39186D02*
G01X21290Y-39254D01*
G01X21222Y-39186D02*
G01X21700Y-39186D01*
G04 Draw part V1*
G04 draw part outline for part V1*
G54D12*
G01X25888Y-37633D02*
G01X25888Y-35664D01*
G01X25888Y-35664D02*
G01X26911Y-35664D01*
G01X26911Y-35664D02*
G01X26911Y-37633D01*
G01X26911Y-37633D02*
G01X25888Y-37633D01*
G04 draw reference designator for part V1*
G01X25017Y-36648D02*
G01X25494Y-36467D01*
G01X25017Y-36285D02*
G01X25494Y-36467D01*
G01X25085Y-36057D02*
G01X25108Y-36103D01*
G01X25017Y-35989D02*
G01X25085Y-36057D01*
G01X25017Y-35989D02*
G01X25494Y-35989D01*
G04 Draw part C1*
G04 draw part outline for part C1*
G01X18153Y-38653D02*
G01X14846Y-38653D01*
G01X14846Y-38653D02*
G01X14846Y-35346D01*
G01X14846Y-35346D02*
G01X18153Y-35346D01*
G01X18153Y-35346D02*
G01X18153Y-38653D01*
G54D11*
G01X15051Y-34968D02*
G01X15870Y-34968D01*
G04 draw reference designator for part C1*
G54D10*
G01X19725Y-38629D02*
G01X19702Y-38584D01*
G01X19770Y-38675D02*
G01X19725Y-38629D01*
G01X19816Y-38697D02*
G01X19770Y-38675D01*
G01X19906Y-38697D02*
G01X19816Y-38697D01*
G01X19906Y-38697D02*
G01X19952Y-38675D01*
G01X19952Y-38675D02*
G01X19997Y-38629D01*
G01X19997Y-38629D02*
G01X20020Y-38584D01*
G01X20020Y-38584D02*
G01X20043Y-38515D01*
G01X20043Y-38515D02*
G01X20043Y-38402D01*
G01X20043Y-38402D02*
G01X20020Y-38334D01*
G01X20020Y-38334D02*
G01X19997Y-38288D01*
G01X19997Y-38288D02*
G01X19952Y-38243D01*
G01X19952Y-38243D02*
G01X19906Y-38220D01*
G01X19816Y-38220D02*
G01X19906Y-38220D01*
G01X19770Y-38243D02*
G01X19816Y-38220D01*
G01X19725Y-38288D02*
G01X19770Y-38243D01*
G01X19702Y-38334D02*
G01X19725Y-38288D01*
G01X19475Y-38629D02*
G01X19520Y-38606D01*
G01X19406Y-38697D02*
G01X19475Y-38629D01*
G01X19406Y-38697D02*
G01X19406Y-38220D01*
G04 Draw part U3*
G04 draw part outline for part U3*
G54D12*
G01X10389Y-38074D02*
G01X10389Y-35514D01*
G01X10389Y-35514D02*
G01X9011Y-35514D01*
G01X9011Y-35514D02*
G01X9011Y-38074D01*
G01X9011Y-38074D02*
G01X10389Y-38074D01*
G04 draw reference designator for part U3*
G01X6979Y-36794D02*
G01X7320Y-36794D01*
G01X7320Y-36794D02*
G01X7388Y-36771D01*
G01X7388Y-36771D02*
G01X7433Y-36726D01*
G01X7433Y-36726D02*
G01X7456Y-36658D01*
G01X7456Y-36612D02*
G01X7456Y-36658D01*
G01X7433Y-36544D02*
G01X7456Y-36612D01*
G01X7388Y-36499D02*
G01X7433Y-36544D01*
G01X7320Y-36476D02*
G01X7388Y-36499D01*
G01X6979Y-36476D02*
G01X7320Y-36476D01*
G01X6979Y-35999D02*
G01X6979Y-36249D01*
G01X6979Y-35999D02*
G01X7161Y-36135D01*
G01X7161Y-36067D02*
G01X7161Y-36135D01*
G01X7161Y-36067D02*
G01X7183Y-36021D01*
G01X7183Y-36021D02*
G01X7206Y-35999D01*
G01X7206Y-35999D02*
G01X7274Y-35976D01*
G01X7274Y-35976D02*
G01X7320Y-35976D01*
G01X7320Y-35976D02*
G01X7388Y-35999D01*
G01X7388Y-35999D02*
G01X7433Y-36044D01*
G01X7433Y-36044D02*
G01X7456Y-36112D01*
G01X7456Y-36180D02*
G01X7456Y-36112D01*
G01X7433Y-36249D02*
G01X7456Y-36180D01*
G01X7411Y-36271D02*
G01X7433Y-36249D01*
G01X7365Y-36294D02*
G01X7411Y-36271D01*
G04 Draw part C3*
G04 draw part outline for part C3*
G01X13611Y-36466D02*
G01X13611Y-38435D01*
G01X13611Y-38435D02*
G01X12588Y-38435D01*
G01X12588Y-38435D02*
G01X12588Y-36466D01*
G01X12588Y-36466D02*
G01X13611Y-36466D01*
G04 draw reference designator for part C3*
G01X14414Y-37769D02*
G01X14369Y-37792D01*
G01X14460Y-37723D02*
G01X14414Y-37769D01*
G01X14482Y-37678D02*
G01X14460Y-37723D01*
G01X14482Y-37587D02*
G01X14482Y-37678D01*
G01X14482Y-37587D02*
G01X14460Y-37542D01*
G01X14460Y-37542D02*
G01X14414Y-37496D01*
G01X14414Y-37496D02*
G01X14369Y-37473D01*
G01X14369Y-37473D02*
G01X14300Y-37451D01*
G01X14300Y-37451D02*
G01X14187Y-37451D01*
G01X14187Y-37451D02*
G01X14119Y-37473D01*
G01X14119Y-37473D02*
G01X14073Y-37496D01*
G01X14073Y-37496D02*
G01X14028Y-37542D01*
G01X14028Y-37542D02*
G01X14005Y-37587D01*
G01X14005Y-37678D02*
G01X14005Y-37587D01*
G01X14028Y-37723D02*
G01X14005Y-37678D01*
G01X14073Y-37769D02*
G01X14028Y-37723D01*
G01X14119Y-37792D02*
G01X14073Y-37769D01*
G01X14482Y-38269D02*
G01X14482Y-38019D01*
G01X14482Y-38269D02*
G01X14300Y-38132D01*
G01X14300Y-38201D02*
G01X14300Y-38132D01*
G01X14300Y-38201D02*
G01X14278Y-38246D01*
G01X14278Y-38246D02*
G01X14255Y-38269D01*
G01X14255Y-38269D02*
G01X14187Y-38292D01*
G01X14187Y-38292D02*
G01X14141Y-38292D01*
G01X14141Y-38292D02*
G01X14073Y-38269D01*
G01X14073Y-38269D02*
G01X14028Y-38223D01*
G01X14028Y-38223D02*
G01X14005Y-38155D01*
G01X14005Y-38087D02*
G01X14005Y-38155D01*
G01X14028Y-38019D02*
G01X14005Y-38087D01*
G01X14050Y-37996D02*
G01X14028Y-38019D01*
G01X14096Y-37973D02*
G01X14050Y-37996D01*
G04 Draw part U1*
G04 draw part outline for part U1*
G01X22500Y-21900D02*
G01X2500Y-21900D01*
G01X2500Y-21900D02*
G01X2500Y-26900D01*
G01X2500Y-26900D02*
G01X22500Y-26900D01*
G01X22500Y-26900D02*
G01X22500Y-21900D01*
G01X22500Y-23900D02*
G01X22000Y-23900D01*
G01X22000Y-23900D02*
G01X22000Y-24900D01*
G01X22000Y-24900D02*
G01X22500Y-24900D01*
G01X22500Y-24900D02*
G01X22500Y-23900D01*
G04 draw reference designator for part U1*
G01X23727Y-24400D02*
G01X23386Y-24400D01*
G01X23386Y-24400D02*
G01X23318Y-24422D01*
G01X23318Y-24422D02*
G01X23272Y-24468D01*
G01X23272Y-24468D02*
G01X23250Y-24536D01*
G01X23250Y-24581D02*
G01X23250Y-24536D01*
G01X23272Y-24650D02*
G01X23250Y-24581D01*
G01X23318Y-24695D02*
G01X23272Y-24650D01*
G01X23386Y-24718D02*
G01X23318Y-24695D01*
G01X23727Y-24718D02*
G01X23386Y-24718D01*
G01X23659Y-24945D02*
G01X23636Y-24900D01*
G01X23727Y-25013D02*
G01X23659Y-24945D01*
G01X23727Y-25013D02*
G01X23250Y-25013D01*
G04 Draw part X1*
G04 draw part outline for part X1*
G54D11*
G01X4009Y-15409D02*
G01X4010Y-15375D01*
G01X4015Y-15341D01*
G01X4022Y-15307D01*
G01X4033Y-15274D01*
G01X4046Y-15243D01*
G01X4062Y-15212D01*
G01X4080Y-15183D01*
G01X4101Y-15156D01*
G01X4124Y-15131D01*
G01X4150Y-15107D01*
G01X4177Y-15086D01*
G01X4206Y-15068D01*
G01X4236Y-15052D01*
G01X4268Y-15039D01*
G01X4301Y-15029D01*
G01X4334Y-15021D01*
G01X4368Y-15017D01*
G01X4403Y-15015D01*
G01X4403Y-15015D02*
G01X8340Y-15015D01*
G01X8340Y-15015D02*
G01X8374Y-15017D01*
G01X8408Y-15021D01*
G01X8442Y-15029D01*
G01X8474Y-15039D01*
G01X8506Y-15052D01*
G01X8537Y-15068D01*
G01X8565Y-15086D01*
G01X8593Y-15107D01*
G01X8618Y-15131D01*
G01X8641Y-15156D01*
G01X8662Y-15183D01*
G01X8681Y-15212D01*
G01X8696Y-15243D01*
G01X8710Y-15274D01*
G01X8720Y-15307D01*
G01X8727Y-15341D01*
G01X8732Y-15375D01*
G01X8733Y-15409D01*
G01X4009Y-16590D02*
G01X4010Y-16624D01*
G01X4015Y-16658D01*
G01X4022Y-16692D01*
G01X4033Y-16725D01*
G01X4046Y-16756D01*
G01X4062Y-16787D01*
G01X4080Y-16816D01*
G01X4101Y-16843D01*
G01X4124Y-16868D01*
G01X4150Y-16892D01*
G01X4177Y-16913D01*
G01X4206Y-16931D01*
G01X4236Y-16947D01*
G01X4268Y-16960D01*
G01X4301Y-16970D01*
G01X4334Y-16978D01*
G01X4368Y-16982D01*
G01X4403Y-16984D01*
G01X4403Y-16984D02*
G01X8340Y-16984D01*
G01X8340Y-16984D02*
G01X8374Y-16982D01*
G01X8408Y-16978D01*
G01X8442Y-16970D01*
G01X8474Y-16960D01*
G01X8506Y-16947D01*
G01X8537Y-16931D01*
G01X8565Y-16913D01*
G01X8593Y-16892D01*
G01X8618Y-16868D01*
G01X8641Y-16843D01*
G01X8662Y-16816D01*
G01X8681Y-16787D01*
G01X8696Y-16756D01*
G01X8710Y-16725D01*
G01X8720Y-16692D01*
G01X8727Y-16658D01*
G01X8732Y-16624D01*
G01X8733Y-16590D01*
G04 draw reference designator for part X1*
G01X5190Y-14049D02*
G01X5441Y-14425D01*
G01X5441Y-14049D02*
G01X5190Y-14425D01*
G01X5620Y-14103D02*
G01X5584Y-14120D01*
G01X5673Y-14049D02*
G01X5620Y-14103D01*
G01X5673Y-14049D02*
G01X5673Y-14425D01*
G04 Draw part C6*
G04 draw part outline for part C6*
G54D12*
G01X5933Y-19911D02*
G01X3964Y-19911D01*
G01X3964Y-19911D02*
G01X3964Y-18888D01*
G01X3964Y-18888D02*
G01X5933Y-18888D01*
G01X5933Y-18888D02*
G01X5933Y-19911D01*
G04 draw reference designator for part C6*
G01X4630Y-20714D02*
G01X4607Y-20669D01*
G01X4676Y-20760D02*
G01X4630Y-20714D01*
G01X4721Y-20782D02*
G01X4676Y-20760D01*
G01X4812Y-20782D02*
G01X4721Y-20782D01*
G01X4812Y-20782D02*
G01X4857Y-20760D01*
G01X4857Y-20760D02*
G01X4903Y-20714D01*
G01X4903Y-20714D02*
G01X4926Y-20669D01*
G01X4926Y-20669D02*
G01X4948Y-20600D01*
G01X4948Y-20600D02*
G01X4948Y-20487D01*
G01X4948Y-20487D02*
G01X4926Y-20419D01*
G01X4926Y-20419D02*
G01X4903Y-20373D01*
G01X4903Y-20373D02*
G01X4857Y-20328D01*
G01X4857Y-20328D02*
G01X4812Y-20305D01*
G01X4721Y-20305D02*
G01X4812Y-20305D01*
G01X4676Y-20328D02*
G01X4721Y-20305D01*
G01X4630Y-20373D02*
G01X4676Y-20328D01*
G01X4607Y-20419D02*
G01X4630Y-20373D01*
G01X4176Y-20760D02*
G01X4153Y-20714D01*
G01X4244Y-20782D02*
G01X4176Y-20760D01*
G01X4289Y-20782D02*
G01X4244Y-20782D01*
G01X4289Y-20782D02*
G01X4357Y-20760D01*
G01X4357Y-20760D02*
G01X4403Y-20691D01*
G01X4403Y-20691D02*
G01X4426Y-20578D01*
G01X4426Y-20578D02*
G01X4426Y-20464D01*
G01X4426Y-20464D02*
G01X4403Y-20373D01*
G01X4403Y-20373D02*
G01X4357Y-20328D01*
G01X4357Y-20328D02*
G01X4289Y-20305D01*
G01X4267Y-20305D02*
G01X4289Y-20305D01*
G01X4198Y-20328D02*
G01X4267Y-20305D01*
G01X4153Y-20373D02*
G01X4198Y-20328D01*
G01X4130Y-20441D02*
G01X4153Y-20373D01*
G01X4130Y-20464D02*
G01X4130Y-20441D01*
G01X4153Y-20532D02*
G01X4130Y-20464D01*
G01X4198Y-20578D02*
G01X4153Y-20532D01*
G01X4267Y-20600D02*
G01X4198Y-20578D01*
G01X4289Y-20600D02*
G01X4267Y-20600D01*
G01X4289Y-20600D02*
G01X4357Y-20578D01*
G01X4357Y-20578D02*
G01X4403Y-20532D01*
G01X4403Y-20532D02*
G01X4426Y-20464D01*
G04 Draw part C7*
G04 draw part outline for part C7*
G01X7166Y-18888D02*
G01X9135Y-18888D01*
G01X9135Y-18888D02*
G01X9135Y-19911D01*
G01X9135Y-19911D02*
G01X7166Y-19911D01*
G01X7166Y-19911D02*
G01X7166Y-18888D01*
G04 draw reference designator for part C7*
G01X8469Y-18085D02*
G01X8492Y-18130D01*
G01X8423Y-18039D02*
G01X8469Y-18085D01*
G01X8378Y-18017D02*
G01X8423Y-18039D01*
G01X8287Y-18017D02*
G01X8378Y-18017D01*
G01X8287Y-18017D02*
G01X8242Y-18039D01*
G01X8242Y-18039D02*
G01X8196Y-18085D01*
G01X8196Y-18085D02*
G01X8173Y-18130D01*
G01X8173Y-18130D02*
G01X8151Y-18199D01*
G01X8151Y-18199D02*
G01X8151Y-18312D01*
G01X8151Y-18312D02*
G01X8173Y-18380D01*
G01X8173Y-18380D02*
G01X8196Y-18426D01*
G01X8196Y-18426D02*
G01X8242Y-18471D01*
G01X8242Y-18471D02*
G01X8287Y-18494D01*
G01X8378Y-18494D02*
G01X8287Y-18494D01*
G01X8423Y-18471D02*
G01X8378Y-18494D01*
G01X8469Y-18426D02*
G01X8423Y-18471D01*
G01X8492Y-18380D02*
G01X8469Y-18426D01*
G01X8992Y-18017D02*
G01X8764Y-18494D01*
G01X8992Y-18017D02*
G01X8673Y-18017D01*
G04 Draw part J5*
G04 draw part outline for part J5*
G54D11*
G01X4594Y-30987D02*
G01X4548Y-31033D01*
G01X4548Y-31033D02*
G01X4594Y-31078D01*
G01X4639Y-31033D02*
G01X4594Y-31078D01*
G01X4594Y-30987D02*
G01X4639Y-31033D01*
G04 draw reference designator for part J5*
G54D10*
G01X7650Y-29892D02*
G01X7650Y-30256D01*
G01X7650Y-30256D02*
G01X7627Y-30324D01*
G01X7627Y-30324D02*
G01X7604Y-30347D01*
G01X7604Y-30347D02*
G01X7559Y-30370D01*
G01X7513Y-30370D02*
G01X7559Y-30370D01*
G01X7468Y-30347D02*
G01X7513Y-30370D01*
G01X7445Y-30324D02*
G01X7468Y-30347D01*
G01X7422Y-30256D02*
G01X7445Y-30324D01*
G01X7422Y-30210D02*
G01X7422Y-30256D01*
G01X7877Y-29892D02*
G01X8104Y-29892D01*
G01X7877Y-29892D02*
G01X7854Y-30097D01*
G01X7877Y-30074D02*
G01X7854Y-30097D01*
G01X7945Y-30051D02*
G01X7877Y-30074D01*
G01X8013Y-30051D02*
G01X7945Y-30051D01*
G01X8013Y-30051D02*
G01X8081Y-30074D01*
G01X8081Y-30074D02*
G01X8127Y-30120D01*
G01X8127Y-30120D02*
G01X8150Y-30188D01*
G01X8150Y-30188D02*
G01X8150Y-30233D01*
G01X8150Y-30233D02*
G01X8127Y-30301D01*
G01X8127Y-30301D02*
G01X8081Y-30347D01*
G01X8081Y-30347D02*
G01X8013Y-30370D01*
G01X7945Y-30370D02*
G01X8013Y-30370D01*
G01X7877Y-30347D02*
G01X7945Y-30370D01*
G01X7854Y-30324D02*
G01X7877Y-30347D01*
G01X7831Y-30279D02*
G01X7854Y-30324D01*
G04 Draw part C4*
G04 draw part outline for part C4*
G54D12*
G01X12333Y-30211D02*
G01X10364Y-30211D01*
G01X10364Y-30211D02*
G01X10364Y-29188D01*
G01X10364Y-29188D02*
G01X12333Y-29188D01*
G01X12333Y-29188D02*
G01X12333Y-30211D01*
G04 draw reference designator for part C4*
G01X11030Y-31014D02*
G01X11007Y-30969D01*
G01X11076Y-31060D02*
G01X11030Y-31014D01*
G01X11121Y-31082D02*
G01X11076Y-31060D01*
G01X11212Y-31082D02*
G01X11121Y-31082D01*
G01X11212Y-31082D02*
G01X11257Y-31060D01*
G01X11257Y-31060D02*
G01X11303Y-31014D01*
G01X11303Y-31014D02*
G01X11326Y-30969D01*
G01X11326Y-30969D02*
G01X11348Y-30900D01*
G01X11348Y-30900D02*
G01X11348Y-30787D01*
G01X11348Y-30787D02*
G01X11326Y-30719D01*
G01X11326Y-30719D02*
G01X11303Y-30673D01*
G01X11303Y-30673D02*
G01X11257Y-30628D01*
G01X11257Y-30628D02*
G01X11212Y-30605D01*
G01X11121Y-30605D02*
G01X11212Y-30605D01*
G01X11076Y-30628D02*
G01X11121Y-30605D01*
G01X11030Y-30673D02*
G01X11076Y-30628D01*
G01X11007Y-30719D02*
G01X11030Y-30673D01*
G01X10598Y-31082D02*
G01X10826Y-30764D01*
G01X10485Y-30764D02*
G01X10826Y-30764D01*
G01X10598Y-31082D02*
G01X10598Y-30605D01*
G04 Draw part C5*
G04 draw part outline for part C5*
G01X11766Y-18988D02*
G01X13735Y-18988D01*
G01X13735Y-18988D02*
G01X13735Y-20011D01*
G01X13735Y-20011D02*
G01X11766Y-20011D01*
G01X11766Y-20011D02*
G01X11766Y-18988D01*
G04 draw reference designator for part C5*
G01X13069Y-18185D02*
G01X13092Y-18230D01*
G01X13023Y-18139D02*
G01X13069Y-18185D01*
G01X12978Y-18117D02*
G01X13023Y-18139D01*
G01X12887Y-18117D02*
G01X12978Y-18117D01*
G01X12887Y-18117D02*
G01X12842Y-18139D01*
G01X12842Y-18139D02*
G01X12796Y-18185D01*
G01X12796Y-18185D02*
G01X12773Y-18230D01*
G01X12773Y-18230D02*
G01X12751Y-18299D01*
G01X12751Y-18299D02*
G01X12751Y-18412D01*
G01X12751Y-18412D02*
G01X12773Y-18480D01*
G01X12773Y-18480D02*
G01X12796Y-18526D01*
G01X12796Y-18526D02*
G01X12842Y-18571D01*
G01X12842Y-18571D02*
G01X12887Y-18594D01*
G01X12978Y-18594D02*
G01X12887Y-18594D01*
G01X13023Y-18571D02*
G01X12978Y-18594D01*
G01X13069Y-18526D02*
G01X13023Y-18571D01*
G01X13092Y-18480D02*
G01X13069Y-18526D01*
G01X13319Y-18117D02*
G01X13546Y-18117D01*
G01X13319Y-18117D02*
G01X13296Y-18321D01*
G01X13319Y-18299D02*
G01X13296Y-18321D01*
G01X13387Y-18276D02*
G01X13319Y-18299D01*
G01X13455Y-18276D02*
G01X13387Y-18276D01*
G01X13455Y-18276D02*
G01X13523Y-18299D01*
G01X13523Y-18299D02*
G01X13569Y-18344D01*
G01X13569Y-18344D02*
G01X13592Y-18412D01*
G01X13592Y-18412D02*
G01X13592Y-18458D01*
G01X13592Y-18458D02*
G01X13569Y-18526D01*
G01X13569Y-18526D02*
G01X13523Y-18571D01*
G01X13523Y-18571D02*
G01X13455Y-18594D01*
G01X13387Y-18594D02*
G01X13455Y-18594D01*
G01X13319Y-18571D02*
G01X13387Y-18594D01*
G01X13296Y-18549D02*
G01X13319Y-18571D01*
G01X13273Y-18503D02*
G01X13296Y-18549D01*
G04 Draw part U2*
G04 draw part outline for part U2*
G01X6606Y-3606D02*
G01X6606Y-14629D01*
G01X6606Y-14629D02*
G01X16055Y-14629D01*
G01X16055Y-14629D02*
G01X16055Y-3606D01*
G01X16055Y-3606D02*
G01X13205Y-960D01*
G01X13205Y-960D02*
G01X9455Y-960D01*
G01X9455Y-960D02*
G01X6606Y-3606D01*
G54D11*
G01X9455Y-960D02*
G01X9455Y-310D01*
G01X9455Y-310D02*
G01X13205Y-310D01*
G01X13205Y-310D02*
G01X13205Y-960D01*
G01X13205Y-960D02*
G01X9455Y-960D01*
G04 draw reference designator for part U2*
G54D10*
G01X9477Y-5000D02*
G01X9136Y-5000D01*
G01X9136Y-5000D02*
G01X9068Y-5022D01*
G01X9068Y-5022D02*
G01X9022Y-5068D01*
G01X9022Y-5068D02*
G01X9000Y-5136D01*
G01X9000Y-5181D02*
G01X9000Y-5136D01*
G01X9022Y-5250D02*
G01X9000Y-5181D01*
G01X9068Y-5295D02*
G01X9022Y-5250D01*
G01X9136Y-5318D02*
G01X9068Y-5295D01*
G01X9477Y-5318D02*
G01X9136Y-5318D01*
G01X9386Y-5522D02*
G01X9363Y-5522D01*
G01X9431Y-5545D02*
G01X9386Y-5522D01*
G01X9454Y-5568D02*
G01X9431Y-5545D01*
G01X9477Y-5613D02*
G01X9454Y-5568D01*
G01X9477Y-5704D02*
G01X9477Y-5613D01*
G01X9477Y-5704D02*
G01X9454Y-5750D01*
G01X9454Y-5750D02*
G01X9431Y-5772D01*
G01X9431Y-5772D02*
G01X9386Y-5795D01*
G01X9386Y-5795D02*
G01X9340Y-5795D01*
G01X9340Y-5795D02*
G01X9295Y-5772D01*
G01X9295Y-5772D02*
G01X9227Y-5727D01*
G01X9227Y-5727D02*
G01X9000Y-5500D01*
G01X9000Y-5818D02*
G01X9000Y-5500D01*
G04 Draw part C8*
G04 draw part outline for part C8*
G54D12*
G01X1717Y-12015D02*
G01X1717Y-13984D01*
G01X1717Y-13984D02*
G01X693Y-13984D01*
G01X693Y-13984D02*
G01X693Y-12015D01*
G01X693Y-12015D02*
G01X1717Y-12015D01*
G04 draw reference designator for part C8*
G01X2520Y-13318D02*
G01X2474Y-13340D01*
G01X2565Y-13272D02*
G01X2520Y-13318D01*
G01X2588Y-13227D02*
G01X2565Y-13272D01*
G01X2588Y-13136D02*
G01X2588Y-13227D01*
G01X2588Y-13136D02*
G01X2565Y-13090D01*
G01X2565Y-13090D02*
G01X2520Y-13045D01*
G01X2520Y-13045D02*
G01X2474Y-13022D01*
G01X2474Y-13022D02*
G01X2406Y-13000D01*
G01X2406Y-13000D02*
G01X2292Y-13000D01*
G01X2292Y-13000D02*
G01X2224Y-13022D01*
G01X2224Y-13022D02*
G01X2179Y-13045D01*
G01X2179Y-13045D02*
G01X2133Y-13090D01*
G01X2133Y-13090D02*
G01X2111Y-13136D01*
G01X2111Y-13227D02*
G01X2111Y-13136D01*
G01X2133Y-13272D02*
G01X2111Y-13227D01*
G01X2179Y-13318D02*
G01X2133Y-13272D01*
G01X2224Y-13340D02*
G01X2179Y-13318D01*
G01X2588Y-13636D02*
G01X2565Y-13568D01*
G01X2565Y-13568D02*
G01X2520Y-13545D01*
G01X2520Y-13545D02*
G01X2474Y-13545D01*
G01X2474Y-13545D02*
G01X2429Y-13568D01*
G01X2429Y-13568D02*
G01X2406Y-13613D01*
G01X2406Y-13613D02*
G01X2383Y-13704D01*
G01X2383Y-13704D02*
G01X2361Y-13772D01*
G01X2361Y-13772D02*
G01X2315Y-13818D01*
G01X2315Y-13818D02*
G01X2270Y-13840D01*
G01X2270Y-13840D02*
G01X2201Y-13840D01*
G01X2201Y-13840D02*
G01X2156Y-13818D01*
G01X2156Y-13818D02*
G01X2133Y-13795D01*
G01X2133Y-13795D02*
G01X2111Y-13727D01*
G01X2111Y-13636D02*
G01X2111Y-13727D01*
G01X2133Y-13568D02*
G01X2111Y-13636D01*
G01X2156Y-13545D02*
G01X2133Y-13568D01*
G01X2201Y-13522D02*
G01X2156Y-13545D01*
G01X2270Y-13522D02*
G01X2201Y-13522D01*
G01X2315Y-13545D02*
G01X2270Y-13522D01*
G01X2361Y-13590D02*
G01X2315Y-13545D01*
G01X2383Y-13659D02*
G01X2361Y-13590D01*
G01X2406Y-13750D02*
G01X2383Y-13659D01*
G01X2429Y-13795D02*
G01X2406Y-13750D01*
G01X2474Y-13818D02*
G01X2429Y-13795D01*
G01X2520Y-13818D02*
G01X2474Y-13818D01*
G01X2565Y-13795D02*
G01X2520Y-13818D01*
G01X2588Y-13727D02*
G01X2565Y-13795D01*
G01X2588Y-13636D02*
G01X2588Y-13727D01*
G04 Draw part C10*
G04 draw part outline for part C10*
G01X3685Y-12015D02*
G01X3685Y-13984D01*
G01X3685Y-13984D02*
G01X2662Y-13984D01*
G01X2662Y-13984D02*
G01X2662Y-12015D01*
G01X2662Y-12015D02*
G01X3685Y-12015D01*
G04 draw reference designator for part C10*
G01X4488Y-13318D02*
G01X4443Y-13340D01*
G01X4534Y-13272D02*
G01X4488Y-13318D01*
G01X4556Y-13227D02*
G01X4534Y-13272D01*
G01X4556Y-13136D02*
G01X4556Y-13227D01*
G01X4556Y-13136D02*
G01X4534Y-13090D01*
G01X4534Y-13090D02*
G01X4488Y-13045D01*
G01X4488Y-13045D02*
G01X4443Y-13022D01*
G01X4443Y-13022D02*
G01X4374Y-13000D01*
G01X4374Y-13000D02*
G01X4261Y-13000D01*
G01X4261Y-13000D02*
G01X4193Y-13022D01*
G01X4193Y-13022D02*
G01X4147Y-13045D01*
G01X4147Y-13045D02*
G01X4102Y-13090D01*
G01X4102Y-13090D02*
G01X4079Y-13136D01*
G01X4079Y-13227D02*
G01X4079Y-13136D01*
G01X4102Y-13272D02*
G01X4079Y-13227D01*
G01X4147Y-13318D02*
G01X4102Y-13272D01*
G01X4193Y-13340D02*
G01X4147Y-13318D01*
G01X4488Y-13568D02*
G01X4465Y-13522D01*
G01X4556Y-13636D02*
G01X4488Y-13568D01*
G01X4556Y-13636D02*
G01X4079Y-13636D01*
G01X4556Y-13954D02*
G01X4534Y-13886D01*
G01X4534Y-13886D02*
G01X4465Y-13840D01*
G01X4465Y-13840D02*
G01X4352Y-13818D01*
G01X4352Y-13818D02*
G01X4284Y-13818D01*
G01X4284Y-13818D02*
G01X4170Y-13840D01*
G01X4170Y-13840D02*
G01X4102Y-13886D01*
G01X4102Y-13886D02*
G01X4079Y-13954D01*
G01X4079Y-14000D02*
G01X4079Y-13954D01*
G01X4102Y-14068D02*
G01X4079Y-14000D01*
G01X4170Y-14113D02*
G01X4102Y-14068D01*
G01X4284Y-14136D02*
G01X4170Y-14113D01*
G01X4352Y-14136D02*
G01X4284Y-14136D01*
G01X4465Y-14113D02*
G01X4352Y-14136D01*
G01X4534Y-14068D02*
G01X4465Y-14113D01*
G01X4556Y-14000D02*
G01X4534Y-14068D01*
G01X4556Y-13954D02*
G01X4556Y-14000D01*
G04 Draw part U6*
G04 Draw part TP2*
G04 draw part outline for part TP2*
G54D11*
G01X23200Y-600D02*
G01X20200Y-600D01*
G01X20200Y-600D02*
G01X20200Y-1600D01*
G01X20200Y-1600D02*
G01X23200Y-1600D01*
G01X23200Y-1600D02*
G01X23200Y-600D01*
G04 draw reference designator for part TP2*
G54D12*
G01X23145Y-2046D02*
G01X22668Y-2046D01*
G01X23145Y-2205D02*
G01X23145Y-1887D01*
G01X23145Y-2387D02*
G01X22668Y-2387D01*
G01X23145Y-2591D02*
G01X23145Y-2387D01*
G01X23145Y-2591D02*
G01X23123Y-2660D01*
G01X23123Y-2660D02*
G01X23100Y-2682D01*
G01X23100Y-2682D02*
G01X23054Y-2705D01*
G01X23054Y-2705D02*
G01X22986Y-2705D01*
G01X22986Y-2705D02*
G01X22941Y-2682D01*
G01X22941Y-2682D02*
G01X22918Y-2660D01*
G01X22918Y-2660D02*
G01X22895Y-2591D01*
G01X22895Y-2387D02*
G01X22895Y-2591D01*
G01X23054Y-2910D02*
G01X23032Y-2910D01*
G01X23100Y-2932D02*
G01X23054Y-2910D01*
G01X23123Y-2955D02*
G01X23100Y-2932D01*
G01X23145Y-3001D02*
G01X23123Y-2955D01*
G01X23145Y-3091D02*
G01X23145Y-3001D01*
G01X23145Y-3091D02*
G01X23123Y-3137D01*
G01X23123Y-3137D02*
G01X23100Y-3160D01*
G01X23100Y-3160D02*
G01X23054Y-3182D01*
G01X23054Y-3182D02*
G01X23009Y-3182D01*
G01X23009Y-3182D02*
G01X22963Y-3160D01*
G01X22963Y-3160D02*
G01X22895Y-3114D01*
G01X22895Y-3114D02*
G01X22668Y-2887D01*
G01X22668Y-3205D02*
G01X22668Y-2887D01*
G04 Draw part TP1*
G04 draw part outline for part TP1*
G54D11*
G01X1600Y-7400D02*
G01X4600Y-7400D01*
G01X4600Y-7400D02*
G01X4600Y-6400D01*
G01X4600Y-6400D02*
G01X1600Y-6400D01*
G01X1600Y-6400D02*
G01X1600Y-7400D01*
G04 draw reference designator for part TP1*
G54D12*
G01X1654Y-5953D02*
G01X2131Y-5953D01*
G01X1654Y-5794D02*
G01X1654Y-6112D01*
G01X1654Y-5612D02*
G01X2131Y-5612D01*
G01X1654Y-5408D02*
G01X1654Y-5612D01*
G01X1654Y-5408D02*
G01X1676Y-5339D01*
G01X1676Y-5339D02*
G01X1699Y-5317D01*
G01X1699Y-5317D02*
G01X1745Y-5294D01*
G01X1745Y-5294D02*
G01X1813Y-5294D01*
G01X1813Y-5294D02*
G01X1858Y-5317D01*
G01X1858Y-5317D02*
G01X1881Y-5339D01*
G01X1881Y-5339D02*
G01X1904Y-5408D01*
G01X1904Y-5612D02*
G01X1904Y-5408D01*
G01X1722Y-5067D02*
G01X1745Y-5112D01*
G01X1654Y-4998D02*
G01X1722Y-5067D01*
G01X1654Y-4998D02*
G01X2131Y-4998D01*
G04 Draw part S2*
G04 draw part outline for part S2*
G01X1400Y-5280D02*
G01X4600Y-5280D01*
G01X4600Y-5280D02*
G01X4600Y-175D01*
G01X4600Y-175D02*
G01X1400Y-175D01*
G01X1400Y-175D02*
G01X1400Y-5280D01*
G04 draw reference designator for part S2*
G54D10*
G01X3772Y-4445D02*
G01X3818Y-4490D01*
G01X3704Y-4422D02*
G01X3772Y-4445D01*
G01X3613Y-4422D02*
G01X3704Y-4422D01*
G01X3613Y-4422D02*
G01X3545Y-4445D01*
G01X3545Y-4445D02*
G01X3500Y-4490D01*
G01X3500Y-4490D02*
G01X3500Y-4536D01*
G01X3500Y-4536D02*
G01X3522Y-4581D01*
G01X3522Y-4581D02*
G01X3545Y-4604D01*
G01X3545Y-4604D02*
G01X3590Y-4627D01*
G01X3590Y-4627D02*
G01X3727Y-4672D01*
G01X3727Y-4672D02*
G01X3772Y-4695D01*
G01X3772Y-4695D02*
G01X3795Y-4718D01*
G01X3795Y-4718D02*
G01X3818Y-4763D01*
G01X3818Y-4763D02*
G01X3818Y-4831D01*
G01X3818Y-4831D02*
G01X3772Y-4877D01*
G01X3772Y-4877D02*
G01X3704Y-4900D01*
G01X3613Y-4900D02*
G01X3704Y-4900D01*
G01X3545Y-4877D02*
G01X3613Y-4900D01*
G01X3500Y-4831D02*
G01X3545Y-4877D01*
G01X4022Y-4513D02*
G01X4022Y-4536D01*
G01X4045Y-4468D02*
G01X4022Y-4513D01*
G01X4068Y-4445D02*
G01X4045Y-4468D01*
G01X4113Y-4422D02*
G01X4068Y-4445D01*
G01X4204Y-4422D02*
G01X4113Y-4422D01*
G01X4204Y-4422D02*
G01X4250Y-4445D01*
G01X4250Y-4445D02*
G01X4272Y-4468D01*
G01X4272Y-4468D02*
G01X4295Y-4513D01*
G01X4295Y-4513D02*
G01X4295Y-4559D01*
G01X4295Y-4559D02*
G01X4272Y-4604D01*
G01X4272Y-4604D02*
G01X4227Y-4672D01*
G01X4227Y-4672D02*
G01X4000Y-4900D01*
G01X4318Y-4900D02*
G01X4000Y-4900D01*
G04 Draw part S1*
G04 draw part outline for part S1*
G54D12*
G01X24400Y-4180D02*
G01X27600Y-4180D01*
G01X27600Y-4180D02*
G01X27600Y-220D01*
G01X27600Y-220D02*
G01X24400Y-220D01*
G01X24400Y-220D02*
G01X24400Y-4180D01*
G04 draw reference designator for part S1*
G54D10*
G01X26772Y-3345D02*
G01X26818Y-3390D01*
G01X26704Y-3322D02*
G01X26772Y-3345D01*
G01X26613Y-3322D02*
G01X26704Y-3322D01*
G01X26613Y-3322D02*
G01X26545Y-3345D01*
G01X26545Y-3345D02*
G01X26500Y-3390D01*
G01X26500Y-3390D02*
G01X26500Y-3436D01*
G01X26500Y-3436D02*
G01X26522Y-3481D01*
G01X26522Y-3481D02*
G01X26545Y-3504D01*
G01X26545Y-3504D02*
G01X26590Y-3527D01*
G01X26590Y-3527D02*
G01X26727Y-3572D01*
G01X26727Y-3572D02*
G01X26772Y-3595D01*
G01X26772Y-3595D02*
G01X26795Y-3618D01*
G01X26795Y-3618D02*
G01X26818Y-3663D01*
G01X26818Y-3663D02*
G01X26818Y-3731D01*
G01X26818Y-3731D02*
G01X26772Y-3777D01*
G01X26772Y-3777D02*
G01X26704Y-3800D01*
G01X26613Y-3800D02*
G01X26704Y-3800D01*
G01X26545Y-3777D02*
G01X26613Y-3800D01*
G01X26500Y-3731D02*
G01X26545Y-3777D01*
G01X27045Y-3390D02*
G01X27000Y-3413D01*
G01X27113Y-3322D02*
G01X27045Y-3390D01*
G01X27113Y-3322D02*
G01X27113Y-3800D01*
G04 Draw part U4*
G04 draw part outline for part U4*
G54D12*
G01X18145Y-6400D02*
G01X18145Y-12400D01*
G01X18145Y-12400D02*
G01X22761Y-12400D01*
G01X22761Y-12400D02*
G01X22761Y-6400D01*
G01X22761Y-6400D02*
G01X20962Y-6400D01*
G01X20962Y-6400D02*
G01X20962Y-6525D01*
G01X20962Y-6525D02*
G01X19944Y-6525D01*
G01X19944Y-6525D02*
G01X19944Y-6400D01*
G01X19944Y-6400D02*
G01X18145Y-6400D01*
G04 draw reference designator for part U4*
G54D10*
G01X18377Y-6900D02*
G01X18036Y-6900D01*
G01X18036Y-6900D02*
G01X17968Y-6922D01*
G01X17968Y-6922D02*
G01X17922Y-6968D01*
G01X17922Y-6968D02*
G01X17900Y-7036D01*
G01X17900Y-7081D02*
G01X17900Y-7036D01*
G01X17922Y-7150D02*
G01X17900Y-7081D01*
G01X17968Y-7195D02*
G01X17922Y-7150D01*
G01X18036Y-7218D02*
G01X17968Y-7195D01*
G01X18377Y-7218D02*
G01X18036Y-7218D01*
G01X18377Y-7627D02*
G01X18059Y-7400D01*
G01X18059Y-7740D02*
G01X18059Y-7400D01*
G01X18377Y-7627D02*
G01X17900Y-7627D01*
G04 Draw part R3*
G04 draw part outline for part R3*
G54D12*
G01X17466Y-13666D02*
G01X19435Y-13666D01*
G01X19435Y-13666D02*
G01X19435Y-14533D01*
G01X19435Y-14533D02*
G01X17466Y-14533D01*
G01X17466Y-14533D02*
G01X17466Y-13666D01*
G04 draw reference designator for part R3*
G01X18451Y-12795D02*
G01X18451Y-13273D01*
G01X18655Y-12795D02*
G01X18451Y-12795D01*
G01X18655Y-12795D02*
G01X18723Y-12818D01*
G01X18723Y-12818D02*
G01X18746Y-12841D01*
G01X18746Y-12841D02*
G01X18769Y-12886D01*
G01X18769Y-12886D02*
G01X18769Y-12932D01*
G01X18769Y-12932D02*
G01X18746Y-12977D01*
G01X18746Y-12977D02*
G01X18723Y-13000D01*
G01X18723Y-13000D02*
G01X18655Y-13023D01*
G01X18451Y-13023D02*
G01X18655Y-13023D01*
G01X18610Y-13023D02*
G01X18769Y-13273D01*
G01X19246Y-12795D02*
G01X18996Y-12795D01*
G01X19246Y-12795D02*
G01X19110Y-12977D01*
G01X19178Y-12977D02*
G01X19110Y-12977D01*
G01X19178Y-12977D02*
G01X19223Y-13000D01*
G01X19223Y-13000D02*
G01X19246Y-13023D01*
G01X19246Y-13023D02*
G01X19269Y-13091D01*
G01X19269Y-13091D02*
G01X19269Y-13136D01*
G01X19269Y-13136D02*
G01X19246Y-13205D01*
G01X19246Y-13205D02*
G01X19201Y-13250D01*
G01X19201Y-13250D02*
G01X19132Y-13273D01*
G01X19064Y-13273D02*
G01X19132Y-13273D01*
G01X18996Y-13250D02*
G01X19064Y-13273D01*
G01X18973Y-13227D02*
G01X18996Y-13250D01*
G01X18951Y-13182D02*
G01X18973Y-13227D01*
G04 Draw part R1*
G04 draw part outline for part R1*
G01X20866Y-13666D02*
G01X22835Y-13666D01*
G01X22835Y-13666D02*
G01X22835Y-14533D01*
G01X22835Y-14533D02*
G01X20866Y-14533D01*
G01X20866Y-14533D02*
G01X20866Y-13666D01*
G04 draw reference designator for part R1*
G01X21851Y-12795D02*
G01X21851Y-13273D01*
G01X22055Y-12795D02*
G01X21851Y-12795D01*
G01X22055Y-12795D02*
G01X22123Y-12818D01*
G01X22123Y-12818D02*
G01X22146Y-12841D01*
G01X22146Y-12841D02*
G01X22169Y-12886D01*
G01X22169Y-12886D02*
G01X22169Y-12932D01*
G01X22169Y-12932D02*
G01X22146Y-12977D01*
G01X22146Y-12977D02*
G01X22123Y-13000D01*
G01X22123Y-13000D02*
G01X22055Y-13023D01*
G01X21851Y-13023D02*
G01X22055Y-13023D01*
G01X22010Y-13023D02*
G01X22169Y-13273D01*
G01X22396Y-12864D02*
G01X22351Y-12886D01*
G01X22464Y-12795D02*
G01X22396Y-12864D01*
G01X22464Y-12795D02*
G01X22464Y-13273D01*
G04 Draw part R2*
G04 draw part outline for part R2*
G01X25533Y-14633D02*
G01X23564Y-14633D01*
G01X23564Y-14633D02*
G01X23564Y-13766D01*
G01X23564Y-13766D02*
G01X25533Y-13766D01*
G01X25533Y-13766D02*
G01X25533Y-14633D01*
G04 draw reference designator for part R2*
G01X24300Y-12822D02*
G01X24300Y-13300D01*
G01X24504Y-12822D02*
G01X24300Y-12822D01*
G01X24504Y-12822D02*
G01X24572Y-12845D01*
G01X24572Y-12845D02*
G01X24595Y-12868D01*
G01X24595Y-12868D02*
G01X24618Y-12913D01*
G01X24618Y-12913D02*
G01X24618Y-12959D01*
G01X24618Y-12959D02*
G01X24595Y-13004D01*
G01X24595Y-13004D02*
G01X24572Y-13027D01*
G01X24572Y-13027D02*
G01X24504Y-13050D01*
G01X24300Y-13050D02*
G01X24504Y-13050D01*
G01X24459Y-13050D02*
G01X24618Y-13300D01*
G01X24822Y-12913D02*
G01X24822Y-12936D01*
G01X24845Y-12868D02*
G01X24822Y-12913D01*
G01X24868Y-12845D02*
G01X24845Y-12868D01*
G01X24913Y-12822D02*
G01X24868Y-12845D01*
G01X25004Y-12822D02*
G01X24913Y-12822D01*
G01X25004Y-12822D02*
G01X25050Y-12845D01*
G01X25050Y-12845D02*
G01X25072Y-12868D01*
G01X25072Y-12868D02*
G01X25095Y-12913D01*
G01X25095Y-12913D02*
G01X25095Y-12959D01*
G01X25095Y-12959D02*
G01X25072Y-13004D01*
G01X25072Y-13004D02*
G01X25027Y-13072D01*
G01X25027Y-13072D02*
G01X24800Y-13300D01*
G01X25118Y-13300D02*
G01X24800Y-13300D01*
G04 draw part outline for part Encl*
G04 draw part outline for part K1*
G04 draw part outline for part J6*
G04 draw part outline for part J7*
G04 draw part outline for part J8*
G04 draw part outline for part J9*
G04 draw part outline for part S10*
G04 draw part outline for part spacer1*
G04 draw part outline for part spacer2*
G04 draw part outline for part spacer3*
G04 draw part outline for part spacer4*
G04 draw part outline for part A1*

G04 Draw traces*

G04 Draw Text*
M00*
M02*
