;Holesize 1 =  125.0 PLATED MILS
;Holesize 2 =   29.0 PLATED MILS
;Holesize 3 =   40.0 PLATED MILS
;Holesize 4 =   90.0 PLATED MILS
;Holesize 5 =   14.0 PLATED MILS
M48
INCH,00.0000
T01C0.125
T02C0.029
T03C0.040
T04C0.090
T05C0.014
%
G05
G90
T01
X-005000Y-007500
X005000Y-007500
X005000Y007500
X-005000Y007500
T02
X-012250Y-004250
X-011470Y-004250
X-010680Y-004250
X-009887Y-004250
X-009100Y-004250
X-008312Y-004250
X-007525Y-004250
X-006738Y-004250
X-005950Y-004250
X-005163Y-004250
X-005163Y004411
X-005950Y004411
X-006738Y004411
X-007525Y004411
X-008312Y004411
X-009100Y004411
X-009887Y004411
X-010675Y004411
X-011462Y004411
X-012250Y004410
T03
X015000Y-002500
X015000Y002500
T04
X010440Y-004370
X-000180Y-004370
X005130Y004430
T05
X-002850Y-008650
X-011050Y000650
X-011050Y-001950
X-010250Y002350
X-009761Y002189
X-009250Y-000850
X-015800Y004500
M30
