G04 FreePCB version 1.359*
G04 D:\Users\wayne\Documents\GitHub\mlaunch\mGPS\CAM-A2235r2\top_copper.grb*
G04 top copper layer *
G04 Scale: 100 percent, Rotated: No, Reflected: No *
%FSLAX24Y24*%
%MOIN*%
%LN top copper *%
G04 Rounded Rectangle Macro, params: W/2, H/2, R *
%AMRNDREC*
21,1,$1+$1,$2+$2-$3-$3,0,0,0*
21,1,$1+$1-$3-$3,$2+$2,0,0,0*
1,1,$3+$3,$1-$3,$2-$3*
1,1,$3+$3,$3-$1,$2-$3*
1,1,$3+$3,$1-$3,$3-$2*
1,1,$3+$3,$3-$1,$3-$2*%
G04 Rectangular Thermal Macro, params: W/2, H/2, T/2 *
%AMRECTHERM*
$4=$3/2*
21,1,$1-$3,$2-$3,0-$1/2-$4,0-$2/2-$4,0*
21,1,$1-$3,$2-$3,0-$1/2-$4,$2/2+$4,0*
21,1,$1-$3,$2-$3,$1/2+$4,0-$2/2-$4,0*
21,1,$1-$3,$2-$3,$1/2+$4,$2/2+$4,0*%
%ADD10C,0.005000*%
%ADD11R,0.216850X0.098740*%
%ADD12C,0.155000*%
%ADD13R,0.082992X0.098740*%
%ADD14R,0.070000X0.070000*%
%ADD15RECTHERM,0.035000X0.035000X0.005000*%
%ADD16C,0.001000*%
%ADD17R,0.098740X0.082992*%
%AMTHERM18*7,0,0,0.090000,0.070000,0.010000,45.0*%
%ADD18THERM18*%
%ADD19C,0.090000*%
%ADD20C,0.120000*%
%ADD21R,0.124331X0.088898*%
%ADD22R,0.098740X0.216850*%
%ADD23R,0.059370X0.059370*%
%ADD24R,0.232598X0.173543*%
%ADD25R,0.153858X0.059370*%
%ADD26C,0.045000*%
%ADD27C,0.048000*%
%ADD28C,0.030000*%
%AMTHERM29*7,0,0,0.048000,0.028000,0.010000,45.0*%
%ADD29THERM29*%
%ADD30R,0.196850X0.078740*%
%ADD31R,0.062992X0.078740*%
%ADD32R,0.050000X0.050000*%
%ADD33R,0.078740X0.062992*%
%ADD34C,0.070000*%
%ADD35R,0.104331X0.068898*%
%ADD36R,0.078740X0.196850*%
%ADD37R,0.039370X0.039370*%
%ADD38R,0.212598X0.153543*%
%ADD39R,0.133858X0.039370*%
%ADD40R,0.338583X0.421260*%
%ADD41C,0.025000*%
%ADD42C,0.028000*%
%ADD43C,0.010000*%
G90*
G70D02*

G04 Step and Repeat for panelization *

G04 ----------------------- Draw board outline (positive)*
%LPD*%
G54D10*
G01X-14250Y5905D02*
G01X-16200Y5905D01*
G04 end of side 1*
G01X-16200Y-5905D01*
G04 end of side 2*
G01X-14250Y-5905D01*
G04 end of side 3*
G01X-14201Y-5905D01*
G01X-14153Y-5906D01*
G01X-14104Y-5908D01*
G01X-14056Y-5910D01*
G01X-14007Y-5913D01*
G01X-13959Y-5916D01*
G01X-13911Y-5920D01*
G01X-13863Y-5924D01*
G01X-13815Y-5929D01*
G01X-13768Y-5935D01*
G01X-13720Y-5941D01*
G01X-13673Y-5948D01*
G01X-13626Y-5955D01*
G01X-13579Y-5963D01*
G01X-13532Y-5972D01*
G01X-13486Y-5981D01*
G01X-13440Y-5991D01*
G01X-13394Y-6001D01*
G01X-13349Y-6012D01*
G01X-13304Y-6023D01*
G01X-13259Y-6035D01*
G01X-13215Y-6048D01*
G01X-13171Y-6061D01*
G01X-13128Y-6075D01*
G01X-13084Y-6089D01*
G01X-13042Y-6103D01*
G01X-13000Y-6119D01*
G01X-12958Y-6134D01*
G01X-12916Y-6151D01*
G01X-12876Y-6167D01*
G01X-12835Y-6185D01*
G01X-12796Y-6202D01*
G01X-12757Y-6221D01*
G01X-12718Y-6239D01*
G01X-12680Y-6258D01*
G01X-12643Y-6278D01*
G01X-12606Y-6298D01*
G01X-12569Y-6319D01*
G01X-12534Y-6340D01*
G01X-12499Y-6361D01*
G01X-12465Y-6383D01*
G01X-12431Y-6405D01*
G01X-12398Y-6428D01*
G01X-12366Y-6451D01*
G01X-12334Y-6475D01*
G01X-12304Y-6498D01*
G01X-12274Y-6523D01*
G01X-12244Y-6547D01*
G01X-12216Y-6572D01*
G01X-12188Y-6598D01*
G01X-12161Y-6623D01*
G01X-12135Y-6649D01*
G01X-12109Y-6676D01*
G01X-12084Y-6702D01*
G01X-12061Y-6729D01*
G01X-12038Y-6756D01*
G01X-12015Y-6784D01*
G01X-11994Y-6812D01*
G01X-11974Y-6840D01*
G01X-11954Y-6868D01*
G01X-11935Y-6896D01*
G01X-11917Y-6925D01*
G01X-11900Y-6954D01*
G01X-11884Y-6983D01*
G01X-11869Y-7013D01*
G01X-11855Y-7042D01*
G01X-11841Y-7072D01*
G01X-11829Y-7102D01*
G01X-11817Y-7132D01*
G01X-11806Y-7162D01*
G01X-11796Y-7192D01*
G01X-11787Y-7223D01*
G01X-11780Y-7253D01*
G01X-11772Y-7284D01*
G01X-11766Y-7314D01*
G01X-11761Y-7345D01*
G01X-11757Y-7376D01*
G01X-11754Y-7407D01*
G01X-11751Y-7438D01*
G01X-11750Y-7469D01*
G01X-11750Y-7500D01*
G04 end of side 4*
G01X-11750Y-9380D01*
G04 end of side 5*
G01X11750Y-9380D01*
G04 end of side 6*
G01X11750Y-7500D01*
G04 end of side 7*
G01X11750Y-7469D01*
G01X11751Y-7438D01*
G01X11754Y-7407D01*
G01X11757Y-7376D01*
G01X11761Y-7345D01*
G01X11766Y-7314D01*
G01X11772Y-7284D01*
G01X11780Y-7253D01*
G01X11787Y-7223D01*
G01X11796Y-7192D01*
G01X11806Y-7162D01*
G01X11817Y-7132D01*
G01X11829Y-7102D01*
G01X11841Y-7072D01*
G01X11855Y-7042D01*
G01X11869Y-7013D01*
G01X11884Y-6983D01*
G01X11900Y-6954D01*
G01X11917Y-6925D01*
G01X11935Y-6896D01*
G01X11954Y-6868D01*
G01X11974Y-6840D01*
G01X11994Y-6812D01*
G01X12015Y-6784D01*
G01X12038Y-6756D01*
G01X12061Y-6729D01*
G01X12084Y-6702D01*
G01X12109Y-6676D01*
G01X12135Y-6649D01*
G01X12161Y-6623D01*
G01X12188Y-6598D01*
G01X12216Y-6572D01*
G01X12244Y-6547D01*
G01X12274Y-6523D01*
G01X12304Y-6498D01*
G01X12334Y-6475D01*
G01X12366Y-6451D01*
G01X12398Y-6428D01*
G01X12431Y-6405D01*
G01X12465Y-6383D01*
G01X12499Y-6361D01*
G01X12534Y-6340D01*
G01X12569Y-6319D01*
G01X12606Y-6298D01*
G01X12643Y-6278D01*
G01X12680Y-6258D01*
G01X12718Y-6239D01*
G01X12757Y-6221D01*
G01X12796Y-6202D01*
G01X12835Y-6185D01*
G01X12876Y-6167D01*
G01X12916Y-6151D01*
G01X12958Y-6134D01*
G01X12999Y-6119D01*
G01X13042Y-6103D01*
G01X13084Y-6089D01*
G01X13128Y-6075D01*
G01X13171Y-6061D01*
G01X13215Y-6048D01*
G01X13259Y-6035D01*
G01X13304Y-6023D01*
G01X13349Y-6012D01*
G01X13394Y-6001D01*
G01X13440Y-5991D01*
G01X13486Y-5981D01*
G01X13532Y-5972D01*
G01X13579Y-5963D01*
G01X13626Y-5955D01*
G01X13673Y-5948D01*
G01X13720Y-5941D01*
G01X13768Y-5935D01*
G01X13815Y-5929D01*
G01X13863Y-5924D01*
G01X13911Y-5920D01*
G01X13959Y-5916D01*
G01X14007Y-5913D01*
G01X14056Y-5910D01*
G01X14104Y-5908D01*
G01X14153Y-5906D01*
G01X14201Y-5905D01*
G01X14250Y-5905D01*
G04 end of side 8*
G01X16200Y-5905D01*
G04 end of side 9*
G01X16200Y5905D01*
G04 end of side 10*
G01X14250Y5905D01*
G04 end of side 11*
G01X14201Y5905D01*
G01X14153Y5906D01*
G01X14104Y5908D01*
G01X14056Y5910D01*
G01X14007Y5913D01*
G01X13959Y5916D01*
G01X13911Y5920D01*
G01X13863Y5924D01*
G01X13815Y5929D01*
G01X13768Y5935D01*
G01X13720Y5941D01*
G01X13673Y5948D01*
G01X13626Y5955D01*
G01X13579Y5963D01*
G01X13532Y5972D01*
G01X13486Y5981D01*
G01X13440Y5991D01*
G01X13394Y6001D01*
G01X13349Y6012D01*
G01X13304Y6023D01*
G01X13259Y6035D01*
G01X13215Y6048D01*
G01X13171Y6061D01*
G01X13128Y6075D01*
G01X13084Y6089D01*
G01X13042Y6103D01*
G01X13000Y6119D01*
G01X12958Y6134D01*
G01X12916Y6151D01*
G01X12876Y6167D01*
G01X12835Y6185D01*
G01X12796Y6202D01*
G01X12757Y6221D01*
G01X12718Y6239D01*
G01X12680Y6258D01*
G01X12643Y6278D01*
G01X12606Y6298D01*
G01X12569Y6319D01*
G01X12534Y6340D01*
G01X12499Y6361D01*
G01X12465Y6383D01*
G01X12431Y6405D01*
G01X12398Y6428D01*
G01X12366Y6451D01*
G01X12334Y6475D01*
G01X12304Y6498D01*
G01X12274Y6523D01*
G01X12244Y6547D01*
G01X12216Y6572D01*
G01X12188Y6598D01*
G01X12161Y6623D01*
G01X12135Y6649D01*
G01X12109Y6676D01*
G01X12084Y6702D01*
G01X12061Y6729D01*
G01X12038Y6756D01*
G01X12015Y6784D01*
G01X11994Y6812D01*
G01X11974Y6840D01*
G01X11954Y6868D01*
G01X11935Y6896D01*
G01X11917Y6925D01*
G01X11900Y6954D01*
G01X11884Y6983D01*
G01X11869Y7013D01*
G01X11855Y7042D01*
G01X11841Y7072D01*
G01X11829Y7102D01*
G01X11817Y7132D01*
G01X11806Y7162D01*
G01X11796Y7192D01*
G01X11787Y7223D01*
G01X11780Y7253D01*
G01X11772Y7284D01*
G01X11766Y7314D01*
G01X11761Y7345D01*
G01X11757Y7376D01*
G01X11754Y7407D01*
G01X11751Y7438D01*
G01X11750Y7469D01*
G01X11750Y7500D01*
G04 end of side 12*
G01X11750Y9380D01*
G04 end of side 13*
G01X-11750Y9380D01*
G04 end of side 14*
G01X-11750Y7500D01*
G04 end of side 15*
G01X-11750Y7469D01*
G01X-11751Y7438D01*
G01X-11754Y7407D01*
G01X-11757Y7376D01*
G01X-11761Y7345D01*
G01X-11766Y7314D01*
G01X-11772Y7284D01*
G01X-11780Y7253D01*
G01X-11787Y7223D01*
G01X-11796Y7192D01*
G01X-11806Y7162D01*
G01X-11817Y7132D01*
G01X-11829Y7102D01*
G01X-11841Y7072D01*
G01X-11855Y7042D01*
G01X-11869Y7013D01*
G01X-11884Y6983D01*
G01X-11900Y6954D01*
G01X-11917Y6925D01*
G01X-11935Y6896D01*
G01X-11954Y6868D01*
G01X-11974Y6840D01*
G01X-11994Y6812D01*
G01X-12015Y6784D01*
G01X-12038Y6756D01*
G01X-12061Y6729D01*
G01X-12084Y6702D01*
G01X-12109Y6676D01*
G01X-12135Y6649D01*
G01X-12161Y6623D01*
G01X-12188Y6598D01*
G01X-12216Y6572D01*
G01X-12244Y6547D01*
G01X-12274Y6523D01*
G01X-12304Y6498D01*
G01X-12334Y6475D01*
G01X-12366Y6451D01*
G01X-12398Y6428D01*
G01X-12431Y6405D01*
G01X-12465Y6383D01*
G01X-12499Y6361D01*
G01X-12534Y6340D01*
G01X-12569Y6319D01*
G01X-12606Y6298D01*
G01X-12643Y6278D01*
G01X-12680Y6258D01*
G01X-12718Y6239D01*
G01X-12757Y6221D01*
G01X-12796Y6202D01*
G01X-12835Y6185D01*
G01X-12876Y6167D01*
G01X-12916Y6151D01*
G01X-12958Y6134D01*
G01X-12999Y6119D01*
G01X-13042Y6103D01*
G01X-13084Y6089D01*
G01X-13128Y6075D01*
G01X-13171Y6061D01*
G01X-13215Y6048D01*
G01X-13259Y6035D01*
G01X-13304Y6023D01*
G01X-13349Y6012D01*
G01X-13394Y6001D01*
G01X-13440Y5991D01*
G01X-13486Y5981D01*
G01X-13532Y5972D01*
G01X-13579Y5963D01*
G01X-13626Y5955D01*
G01X-13673Y5948D01*
G01X-13720Y5941D01*
G01X-13768Y5935D01*
G01X-13815Y5929D01*
G01X-13863Y5924D01*
G01X-13911Y5920D01*
G01X-13959Y5916D01*
G01X-14007Y5913D01*
G01X-14056Y5910D01*
G01X-14104Y5908D01*
G01X-14153Y5906D01*
G01X-14201Y5905D01*
G01X-14250Y5905D01*

G04 ----------------------- Draw copper area (positive)*
G36*
G01X11600Y5700D02*
G01X15950Y5700D01*
G01X15950Y-5700D01*
G01X11600Y-5700D01*
G01X11600Y-9200D01*
G01X-11550Y-9200D01*
G01X-11550Y9200D01*
G01X11600Y9200D01*
G01X11600Y5700D01*
G37*

G04 -------------------- Draw copper area clearances (negative)*
%LPC*%

G04 Draw clearances for pads*
G54D11*
G01X10285Y5500D03*
G01X7214Y5500D03*
G54D12*
G01X-5000Y-7500D03*
G01X5000Y-7500D03*
G01X5000Y7500D03*
G54D13*
G01X-9000Y-7000D03*
G01X-7897Y-7000D03*
G54D14*
G01X-12250Y-4250D03*
G01X-11470Y-4250D03*
G01X-10680Y-4250D03*
G01X-9887Y-4250D03*
G01X-9100Y-4250D03*
G01X-8312Y-4250D03*
G01X-7525Y-4250D03*
G01X-6738Y-4250D03*
G01X-5950Y-4250D03*
G54D15*
G01X-5163Y-4250D03*
G54D16*
G54D14*
G01X-5163Y4411D03*
G01X-5950Y4411D03*
G01X-6738Y4411D03*
G01X-7525Y4411D03*
G01X-8312Y4411D03*
G01X-9100Y4411D03*
G01X-9887Y4411D03*
G01X-10675Y4411D03*
G01X-11462Y4411D03*
G01X-12250Y4410D03*
G54D12*
G01X-5000Y7500D03*
G54D17*
G01X15000Y-500D03*
G01X15000Y602D03*
G54D18*
G01X15000Y-2500D03*
G54D16*
G54D19*
G01X15000Y2500D03*
G54D20*
G01X10440Y-4370D03*
G01X-180Y-4370D03*
G01X5130Y4430D03*
G54D21*
G01X15000Y4500D03*
G01X13307Y4500D03*
G54D22*
G01X3750Y-4779D03*
G01X3750Y-2220D03*
G54D23*
G01X5250Y500D03*
G01X5250Y1779D03*
G54D24*
G01X1250Y7196D03*
G01X1250Y2984D03*
G54D25*
G01X7750Y500D03*
G01X7750Y-169D03*
G01X7750Y-838D03*
G01X7750Y-1507D03*
G01X7750Y-2177D03*
G54D16*

G04 Draw clearances for traces*
G54D26*
G01X-12250Y-4250D02*
G01X-12250Y-5200D01*
G01X-12250Y-5200D02*
G01X-10800Y-5200D01*
G01X-10800Y-5200D02*
G01X-9000Y-7000D01*
G01X3750Y-4779D02*
G01X5650Y-4800D01*
G01X5650Y-4800D02*
G01X5650Y-2250D01*
G01X5650Y-2250D02*
G01X6392Y-1507D01*
G01X6392Y-1507D02*
G01X7750Y-1507D01*
G01X1250Y2984D02*
G01X1250Y-3550D01*
G01X1250Y-3550D02*
G01X2500Y-4800D01*
G01X2500Y-4800D02*
G01X3750Y-4779D01*
G01X-9000Y-7000D02*
G01X-9000Y-8650D01*
G01X-9000Y-8650D02*
G01X1600Y-8650D01*
G01X1600Y-8650D02*
G01X3750Y-6500D01*
G01X3750Y-6500D02*
G01X3750Y-4779D01*
G54D27*
G01X-2850Y-8650D03*
G54D26*
G01X-2850Y-8650D02*
G01X-9000Y-8650D01*
G01X-9000Y-8650D02*
G01X-9000Y-7000D01*
G54D27*
G01X-11050Y650D03*
G01X-11050Y-1950D03*
G54D28*
G01X-11050Y650D02*
G01X-11050Y-1950D01*
G54D27*
G01X-10250Y2350D03*
G54D28*
G01X-10250Y2350D02*
G01X-11470Y1130D01*
G01X-11470Y1130D02*
G01X-11470Y-4250D01*
G54D27*
G01X-9761Y2189D03*
G54D28*
G01X-9761Y2189D02*
G01X-10680Y1270D01*
G01X-10680Y1270D02*
G01X-10680Y-4250D01*
G54D26*
G01X5250Y1779D02*
G01X5970Y1779D01*
G01X5970Y1779D02*
G01X6250Y1500D01*
G01X6250Y1500D02*
G01X6250Y250D01*
G01X6250Y250D02*
G01X6650Y-150D01*
G01X6650Y-150D02*
G01X7750Y-169D01*
G01X1250Y7196D02*
G01X4000Y5800D01*
G01X4000Y5800D02*
G01X4000Y1800D01*
G01X4000Y1800D02*
G01X5250Y1779D01*
G54D29*
G01X-9250Y-850D03*
G54D27*
G01X-15800Y4500D03*
G54D26*
G01X15000Y602D02*
G01X15000Y2500D01*
G01X15000Y2500D02*
G01X15000Y4500D01*
G01X7750Y500D02*
G01X7214Y5500D01*
G01X13307Y4500D02*
G01X13307Y4542D01*
G01X13307Y4542D02*
G01X11000Y6850D01*
G01X11000Y6850D02*
G01X7200Y6850D01*
G01X7200Y6850D02*
G01X7214Y5500D01*

G04 Draw clearances for text*

G04 -------------- Draw Parts, Pads, Traces, Vias and Text (positive)*
%LPD*%
G04 Draw part C1*
G54D30*
G01X10285Y5500D03*
G01X7214Y5500D03*
G04 Draw part h2*
G04 Draw part h3*
G04 Draw part h4*
G04 Draw part C3*
G54D31*
G01X-9000Y-7000D03*
G01X-7897Y-7000D03*
G04 Draw part U2*
G54D32*
G01X-12250Y-4250D03*
G01X-11470Y-4250D03*
G01X-10680Y-4250D03*
G01X-9887Y-4250D03*
G01X-9100Y-4250D03*
G01X-8312Y-4250D03*
G01X-7525Y-4250D03*
G01X-6738Y-4250D03*
G01X-5950Y-4250D03*
G01X-5163Y-4250D03*
G01X-5163Y4411D03*
G01X-5950Y4411D03*
G01X-6738Y4411D03*
G01X-7525Y4411D03*
G01X-8312Y4411D03*
G01X-9100Y4411D03*
G01X-9887Y4411D03*
G01X-10675Y4411D03*
G01X-11462Y4411D03*
G01X-12250Y4410D03*
G04 Draw part R3*
G04 Draw part R1*
G04 Draw part R2*
G04 Draw part U3*
G04 Draw part h1*
G04 Draw part V1*
G54D33*
G01X15000Y-500D03*
G01X15000Y602D03*
G04 Draw part B1*
G54D34*
G01X15000Y-2500D03*
G01X15000Y2500D03*
G04 Draw part D1*
G54D35*
G01X15000Y4500D03*
G01X13307Y4500D03*
G04 Draw part C2*
G54D36*
G01X3750Y-4779D03*
G01X3750Y-2220D03*
G04 Draw part D2*
G54D37*
G01X5250Y500D03*
G01X5250Y1779D03*
G04 Draw part L1*
G54D38*
G01X1250Y7196D03*
G01X1250Y2984D03*
G04 Draw part U1*
G54D39*
G01X7750Y500D03*
G01X7750Y-169D03*
G01X7750Y-838D03*
G01X7750Y-1507D03*
G01X7750Y-2177D03*
G54D40*
G01X11923Y-838D03*

G04 Draw traces*
G54D41*
G01X-12250Y-4250D02*
G01X-12250Y-5200D01*
G01X-12250Y-5200D02*
G01X-10800Y-5200D01*
G01X-10800Y-5200D02*
G01X-9000Y-7000D01*
G01X3750Y-4779D02*
G01X5650Y-4800D01*
G01X5650Y-4800D02*
G01X5650Y-2250D01*
G01X5650Y-2250D02*
G01X6392Y-1507D01*
G01X6392Y-1507D02*
G01X7750Y-1507D01*
G01X1250Y2984D02*
G01X1250Y-3550D01*
G01X1250Y-3550D02*
G01X2500Y-4800D01*
G01X2500Y-4800D02*
G01X3750Y-4779D01*
G01X-9000Y-7000D02*
G01X-9000Y-8650D01*
G01X-9000Y-8650D02*
G01X1600Y-8650D01*
G01X1600Y-8650D02*
G01X3750Y-6500D01*
G01X3750Y-6500D02*
G01X3750Y-4779D01*
G54D42*
G01X-2850Y-8650D03*
G54D41*
G01X-2850Y-8650D02*
G01X-9000Y-8650D01*
G01X-9000Y-8650D02*
G01X-9000Y-7000D01*
G54D42*
G01X-11050Y650D03*
G54D43*
G01X-11050Y650D02*
G01X-11050Y-1950D01*
G54D42*
G01X-11050Y-1950D03*
G01X-10250Y2350D03*
G54D43*
G01X-10250Y2350D02*
G01X-11470Y1130D01*
G01X-11470Y1130D02*
G01X-11470Y-4250D01*
G54D42*
G01X-9761Y2189D03*
G54D43*
G01X-9761Y2189D02*
G01X-10680Y1270D01*
G01X-10680Y1270D02*
G01X-10680Y-4250D01*
G54D41*
G01X5250Y1779D02*
G01X5970Y1779D01*
G01X5970Y1779D02*
G01X6250Y1500D01*
G01X6250Y1500D02*
G01X6250Y250D01*
G01X6250Y250D02*
G01X6650Y-150D01*
G01X6650Y-150D02*
G01X7750Y-169D01*
G01X1250Y7196D02*
G01X4000Y5800D01*
G01X4000Y5800D02*
G01X4000Y1800D01*
G01X4000Y1800D02*
G01X5250Y1779D01*
G01X-7897Y-7000D02*
G01X-7900Y-5200D01*
G01X-7900Y-5200D02*
G01X-5150Y-5200D01*
G01X-5150Y-5200D02*
G01X-5163Y-5186D01*
G01X-5163Y-5186D02*
G01X-5163Y-4250D01*
G54D42*
G01X-9250Y-850D03*
G54D41*
G01X-9250Y-850D02*
G01X-5150Y-850D01*
G01X-5150Y-850D02*
G01X-5163Y-4250D01*
G54D42*
G01X-15800Y4500D03*
G54D41*
G01X-15800Y4500D02*
G01X-15800Y3350D01*
G01X-15800Y3350D02*
G01X-5150Y3350D01*
G01X-5150Y3350D02*
G01X-5150Y-850D01*
G01X-5150Y-850D02*
G01X-5163Y-4250D01*
G01X15000Y-2500D02*
G01X15000Y-500D01*
G01X7750Y-838D02*
G01X9388Y-838D01*
G01X9388Y-838D02*
G01X9400Y-850D01*
G01X9400Y-850D02*
G01X9400Y-2200D01*
G01X9400Y-2200D02*
G01X7750Y-2177D01*
G01X11923Y-838D02*
G01X15000Y-500D01*
G01X11923Y-838D02*
G01X7750Y-838D01*
G01X11923Y-838D02*
G01X10285Y5500D01*
G01X7750Y-838D02*
G01X5250Y-850D01*
G01X5250Y-850D02*
G01X5250Y500D01*
G01X5250Y500D02*
G01X5250Y-850D01*
G01X5250Y-850D02*
G01X3750Y-2220D01*
G01X3750Y-2220D02*
G01X3750Y-150D01*
G01X3750Y-150D02*
G01X3100Y500D01*
G01X3100Y500D02*
G01X3100Y4950D01*
G01X3100Y4950D02*
G01X-3400Y4950D01*
G01X-3400Y4950D02*
G01X-4900Y3350D01*
G01X-4900Y3350D02*
G01X-5150Y3350D01*
G01X-5150Y3350D02*
G01X-5163Y-4250D01*
G01X15000Y602D02*
G01X15000Y2500D01*
G01X15000Y2500D02*
G01X15000Y4500D01*
G01X7750Y500D02*
G01X7214Y5500D01*
G01X13307Y4500D02*
G01X13307Y4542D01*
G01X13307Y4542D02*
G01X11000Y6850D01*
G01X11000Y6850D02*
G01X7200Y6850D01*
G01X7200Y6850D02*
G01X7214Y5500D01*

G04 Draw Text*
M00*
M02*
