;Holesize 1 =   29.0 PLATED MILS
;Holesize 2 =   40.0 PLATED MILS
;Holesize 3 =  125.0 PLATED MILS
;Holesize 4 =   14.0 PLATED MILS
M48
INCH,00.0000
T01C0.029
T02C0.040
T03C0.125
T04C0.014
%
G05
G90
T01
X-006000Y-004000
X-005220Y-004000
X-004430Y-004000
X-003637Y-004000
X-002850Y-004000
X-002062Y-004000
X-001275Y-004000
X-000488Y-004000
X000299Y-004000
X001086Y-004000
X001086Y004661
X000299Y004661
X-000488Y004661
X-001275Y004661
X-002062Y004661
X-002850Y004661
X-003637Y004661
X-004425Y004661
X-005212Y004661
X-006000Y004660
T02
X-011000Y-002000
X-011000Y-001000
X-011000Y000000
X-011000Y001000
X-011000Y002000
X-011000Y003000
T03
X-010000Y007000
X-010000Y-007000
X011000Y-007000
X011000Y007000
T04
X-003600Y001000
X-003000Y000000
X-011000Y-004001
X004400Y004200
M30
