G04 FreePCB version 1.359*
G04 C:\Users\Wayne\Documents\GitHub\mlaunch\mGPS\CAM-mGPS2\top_copper.grb*
G04 top copper layer *
G04 Scale: 100 percent, Rotated: No, Reflected: No *
%FSLAX24Y24*%
%MOIN*%
%LN top copper *%
G04 Rounded Rectangle Macro, params: W/2, H/2, R *
%AMRNDREC*
21,1,$1+$1,$2+$2-$3-$3,0,0,0*
21,1,$1+$1-$3-$3,$2+$2,0,0,0*
1,1,$3+$3,$1-$3,$2-$3*
1,1,$3+$3,$3-$1,$2-$3*
1,1,$3+$3,$1-$3,$3-$2*
1,1,$3+$3,$3-$1,$3-$2*%
G04 Rectangular Thermal Macro, params: W/2, H/2, T/2 *
%AMRECTHERM*
$4=$3/2*
21,1,$1-$3,$2-$3,0-$1/2-$4,0-$2/2-$4,0*
21,1,$1-$3,$2-$3,0-$1/2-$4,$2/2+$4,0*
21,1,$1-$3,$2-$3,$1/2+$4,0-$2/2-$4,0*
21,1,$1-$3,$2-$3,$1/2+$4,$2/2+$4,0*%
%ADD10C,0.005000*%
%ADD11R,0.075118X0.086929*%
%ADD12R,0.177480X0.086929*%
%ADD13RECTHERM,0.035000X0.035000X0.005000*%
%ADD14C,0.001000*%
%ADD15R,0.070000X0.070000*%
%ADD16R,0.216850X0.098740*%
%ADD17R,0.082992X0.098740*%
%ADD18R,0.080000X0.080000*%
%ADD19C,0.080000*%
%ADD20C,0.155000*%
%ADD21R,0.098740X0.082992*%
%ADD22C,0.048000*%
%ADD23C,0.030000*%
%ADD24C,0.045000*%
%ADD25R,0.055118X0.066929*%
%ADD26R,0.157480X0.066929*%
%ADD27R,0.050000X0.050000*%
%ADD28R,0.196850X0.078740*%
%ADD29R,0.062992X0.078740*%
%ADD30R,0.060000X0.060000*%
%ADD31C,0.060000*%
%ADD32R,0.078740X0.062992*%
%ADD33C,0.025000*%
%ADD34C,0.010000*%
%ADD35C,0.028000*%
G90*
G70D02*

G04 Step and Repeat for panelization *

G04 ----------------------- Draw board outline (positive)*
%LPD*%
G54D10*
G01X-12000Y8000D02*
G01X-12000Y-8000D01*
G04 end of side 1*
G01X12000Y-8000D01*
G04 end of side 2*
G01X12000Y8000D01*
G04 end of side 3*
G01X-12000Y8000D01*

G04 ----------------------- Draw copper area (positive)*
G36*
G01X10200Y-6400D02*
G01X-6600Y-6400D01*
G01X-6600Y6400D01*
G01X10200Y6400D01*
G01X10200Y-6400D01*
G37*

G04 -------------------- Draw copper area clearances (negative)*
%LPC*%

G04 Draw clearances for pads*
G54D11*
G01X9000Y-3000D03*
G01X8094Y-3000D03*
G01X7188Y-3000D03*
G54D12*
G01X8094Y-5559D03*
G54D13*
G01X-6000Y-4000D03*
G54D14*
G54D15*
G01X-5220Y-4000D03*
G01X-4430Y-4000D03*
G01X-3637Y-4000D03*
G01X-2850Y-4000D03*
G01X-2062Y-4000D03*
G01X-1275Y-4000D03*
G01X-488Y-4000D03*
G01X299Y-4000D03*
G01X1086Y-4000D03*
G01X1086Y4661D03*
G01X299Y4661D03*
G01X-488Y4661D03*
G01X-1275Y4661D03*
G01X-2062Y4661D03*
G01X-2850Y4661D03*
G01X-3637Y4661D03*
G01X-4425Y4661D03*
G01X-5212Y4661D03*
G01X-6000Y4660D03*
G54D16*
G01X5964Y4000D03*
G01X9035Y4000D03*
G54D17*
G01X8000Y0D03*
G01X9102Y0D03*
G54D18*
G01X-11000Y-2000D03*
G54D19*
G01X-11000Y-1000D03*
G01X-11000Y0D03*
G01X-11000Y1000D03*
G01X-11000Y2000D03*
G01X-11000Y3000D03*
G54D20*
G01X-10000Y7000D03*
G01X-10000Y-7000D03*
G01X11000Y-7000D03*
G01X11000Y7000D03*
G54D21*
G01X6000Y-5000D03*
G01X6000Y-3897D03*

G04 Draw clearances for traces*
G54D22*
G01X-3600Y1000D03*
G54D23*
G01X-11000Y1000D02*
G01X-3600Y1000D01*
G54D22*
G01X-3000Y0D03*
G54D23*
G01X-11000Y0D02*
G01X-3000Y0D01*
G54D24*
G01X9035Y4000D02*
G01X9006Y5000D01*
G01X9006Y5000D02*
G01X4000Y5000D01*
G01X4000Y5000D02*
G01X2200Y3200D01*
G01X2200Y3200D02*
G01X2200Y-4000D01*
G01X2200Y-4000D02*
G01X1086Y-4000D01*
G01X9102Y0D02*
G01X9000Y-3000D01*
G01X6000Y-3897D02*
G01X1086Y-4000D01*
G01X6000Y-3897D02*
G01X1086Y-4000D01*
G01X6000Y-3897D02*
G01X1086Y-4000D01*
G01X6000Y-3897D02*
G01X1400Y-4000D01*
G01X1400Y-4000D02*
G01X1086Y-4000D01*
G01X6000Y-3897D02*
G01X1102Y-3897D01*
G01X1102Y-3897D02*
G01X1000Y-4000D01*
G01X1000Y-4000D02*
G01X1086Y-4000D01*
G01X6000Y-3897D02*
G01X1702Y-3897D01*
G01X1702Y-3897D02*
G01X1600Y-4000D01*
G01X1600Y-4000D02*
G01X1086Y-4000D01*
G54D22*
G01X-11000Y-4001D03*
G54D24*
G01X-11000Y-2000D02*
G01X-11000Y-4001D01*
G01X9102Y0D02*
G01X9000Y0D01*
G01X9000Y0D02*
G01X9000Y-3000D01*
G01X9035Y4000D02*
G01X9600Y4000D01*
G01X9600Y4000D02*
G01X9600Y-3000D01*
G01X9600Y-3000D02*
G01X9000Y-3000D01*
G01X5964Y4000D02*
G01X4600Y4000D01*
G54D22*
G01X4400Y4200D03*
G54D24*
G01X4600Y4000D02*
G01X4400Y4200D01*
G01X7188Y-3000D02*
G01X7200Y-3200D01*
G01X7200Y-3200D02*
G01X4400Y-3200D01*
G01X4400Y-3200D02*
G01X4400Y3800D01*
G01X4400Y3800D02*
G01X4600Y4000D01*
G01X4600Y4000D02*
G01X5964Y4000D01*

G04 Draw clearances for text*

G04 -------------- Draw Parts, Pads, Traces, Vias and Text (positive)*
%LPD*%
G04 Draw part U1*
G54D25*
G01X9000Y-3000D03*
G01X8094Y-3000D03*
G01X7188Y-3000D03*
G54D26*
G01X8094Y-5559D03*
G04 Draw part U2*
G54D27*
G01X-6000Y-4000D03*
G01X-5220Y-4000D03*
G01X-4430Y-4000D03*
G01X-3637Y-4000D03*
G01X-2850Y-4000D03*
G01X-2062Y-4000D03*
G01X-1275Y-4000D03*
G01X-488Y-4000D03*
G01X299Y-4000D03*
G01X1086Y-4000D03*
G01X1086Y4661D03*
G01X299Y4661D03*
G01X-488Y4661D03*
G01X-1275Y4661D03*
G01X-2062Y4661D03*
G01X-2850Y4661D03*
G01X-3637Y4661D03*
G01X-4425Y4661D03*
G01X-5212Y4661D03*
G01X-6000Y4660D03*
G04 Draw part C1*
G54D28*
G01X5964Y4000D03*
G01X9035Y4000D03*
G04 Draw part C2*
G54D29*
G01X8000Y0D03*
G01X9102Y0D03*
G04 Draw part J2*
G54D30*
G01X-11000Y-2000D03*
G54D31*
G01X-11000Y-1000D03*
G01X-11000Y0D03*
G01X-11000Y1000D03*
G01X-11000Y2000D03*
G01X-11000Y3000D03*
G04 Draw part h1*
G04 Draw part h2*
G04 Draw part h3*
G04 Draw part h4*
G04 Draw part C3*
G54D32*
G01X6000Y-5000D03*
G01X6000Y-3897D03*
G04 Draw part B1*
G04 Draw part B2*
G04 Draw part B3*
G04 Draw part B4*

G04 Draw traces*
G54D33*
G01X-11000Y-1000D02*
G01X-9600Y-1000D01*
G01X-9600Y-1000D02*
G01X-9600Y-4000D01*
G01X-9600Y-4000D02*
G01X-6000Y-4000D01*
G01X-6000Y-4000D02*
G01X-6000Y-5600D01*
G01X-6000Y-5600D02*
G01X7000Y-5600D01*
G01X7000Y-5600D02*
G01X8094Y-5559D01*
G01X8094Y-3000D02*
G01X7600Y-2200D01*
G01X7600Y-2200D02*
G01X7600Y-1000D01*
G01X7600Y-1000D02*
G01X8000Y0D01*
G01X6000Y-5000D02*
G01X6000Y-5600D01*
G01X6000Y-5600D02*
G01X6040Y-5559D01*
G01X6040Y-5559D02*
G01X8094Y-5559D01*
G01X8094Y-3000D02*
G01X8094Y-5559D01*
G54D34*
G01X-11000Y1000D02*
G01X-3600Y1000D01*
G54D35*
G01X-3600Y1000D03*
G54D34*
G01X-11000Y0D02*
G01X-3000Y0D01*
G54D35*
G01X-3000Y0D03*
G54D33*
G01X9035Y4000D02*
G01X9006Y5000D01*
G01X9006Y5000D02*
G01X4000Y5000D01*
G01X4000Y5000D02*
G01X2200Y3200D01*
G01X2200Y3200D02*
G01X2200Y-4000D01*
G01X2200Y-4000D02*
G01X1086Y-4000D01*
G01X9102Y0D02*
G01X9000Y-3000D01*
G01X6000Y-3897D02*
G01X1086Y-4000D01*
G01X6000Y-3897D02*
G01X1086Y-4000D01*
G01X6000Y-3897D02*
G01X1086Y-4000D01*
G01X6000Y-3897D02*
G01X1400Y-4000D01*
G01X1400Y-4000D02*
G01X1086Y-4000D01*
G01X6000Y-3897D02*
G01X1102Y-3897D01*
G01X1102Y-3897D02*
G01X1000Y-4000D01*
G01X1000Y-4000D02*
G01X1086Y-4000D01*
G01X6000Y-3897D02*
G01X1702Y-3897D01*
G01X1702Y-3897D02*
G01X1600Y-4000D01*
G01X1600Y-4000D02*
G01X1086Y-4000D01*
G01X-11000Y-2000D02*
G01X-11000Y-4001D01*
G54D35*
G01X-11000Y-4001D03*
G54D33*
G01X9102Y0D02*
G01X9000Y0D01*
G01X9000Y0D02*
G01X9000Y-3000D01*
G01X9035Y4000D02*
G01X9600Y4000D01*
G01X9600Y4000D02*
G01X9600Y-3000D01*
G01X9600Y-3000D02*
G01X9000Y-3000D01*
G01X5964Y4000D02*
G01X4600Y4000D01*
G01X4600Y4000D02*
G01X4400Y4200D01*
G54D35*
G01X4400Y4200D03*
G54D33*
G01X7188Y-3000D02*
G01X7200Y-3200D01*
G01X7200Y-3200D02*
G01X4400Y-3200D01*
G01X4400Y-3200D02*
G01X4400Y3800D01*
G01X4400Y3800D02*
G01X4600Y4000D01*
G01X4600Y4000D02*
G01X5964Y4000D01*

G04 Draw Text*
M00*
M02*
