G04 FreePCB version 1.359*
G04 C:\Users\Wayne\Documents\GitHub\mlaunch\mGPS\CAM-mGPS2\top_silk.grb*
G04 top silk layer *
G04 Scale: 100 percent, Rotated: No, Reflected: No *
%FSLAX24Y24*%
%MOIN*%
%LN top silk *%
G04 Rounded Rectangle Macro, params: W/2, H/2, R *
%AMRNDREC*
21,1,$1+$1,$2+$2-$3-$3,0,0,0*
21,1,$1+$1-$3-$3,$2+$2,0,0,0*
1,1,$3+$3,$1-$3,$2-$3*
1,1,$3+$3,$3-$1,$2-$3*
1,1,$3+$3,$1-$3,$3-$2*
1,1,$3+$3,$3-$1,$3-$2*%
G04 Rectangular Thermal Macro, params: W/2, H/2, T/2 *
%AMRECTHERM*
$4=$3/2*
21,1,$1-$3,$2-$3,0-$1/2-$4,0-$2/2-$4,0*
21,1,$1-$3,$2-$3,0-$1/2-$4,$2/2+$4,0*
21,1,$1-$3,$2-$3,$1/2+$4,0-$2/2-$4,0*
21,1,$1-$3,$2-$3,$1/2+$4,$2/2+$4,0*%
%ADD10C,0.005000*%
%ADD11C,0.007000*%
%ADD12C,0.010000*%
G90*
G70D02*

G04 Step and Repeat for panelization *

G04 ----------------------- Draw board outline (positive)*
%LPD*%
G54D10*
G01X-12000Y8000D02*
G01X-12000Y-8000D01*
G04 end of side 1*
G01X12000Y-8000D01*
G04 end of side 2*
G01X12000Y8000D01*
G04 end of side 3*
G01X-12000Y8000D01*

G04 -------------- Draw Parts, Pads, Traces, Vias and Text (positive)*
%LPD*%
G04 Draw part U1*
G04 draw part outline for part U1*
G54D11*
G01X9374Y-3610D02*
G01X6814Y-3610D01*
G01X6814Y-3610D02*
G01X6814Y-4988D01*
G01X6814Y-4988D02*
G01X9374Y-4988D01*
G01X9374Y-4988D02*
G01X9374Y-3610D01*
G04 draw reference designator for part U1*
G01X10000Y-4522D02*
G01X10000Y-4863D01*
G01X10000Y-4863D02*
G01X10022Y-4931D01*
G01X10022Y-4931D02*
G01X10068Y-4977D01*
G01X10068Y-4977D02*
G01X10136Y-5000D01*
G01X10181Y-5000D02*
G01X10136Y-5000D01*
G01X10250Y-4977D02*
G01X10181Y-5000D01*
G01X10295Y-4931D02*
G01X10250Y-4977D01*
G01X10318Y-4863D02*
G01X10295Y-4931D01*
G01X10318Y-4522D02*
G01X10318Y-4863D01*
G01X10545Y-4590D02*
G01X10500Y-4613D01*
G01X10613Y-4522D02*
G01X10545Y-4590D01*
G01X10613Y-4522D02*
G01X10613Y-5000D01*
G04 Draw part U2*
G04 draw part outline for part U2*
G01X-6393Y-4393D02*
G01X4629Y-4393D01*
G01X4629Y-4393D02*
G01X4629Y5055D01*
G01X4629Y5055D02*
G01X-6393Y5055D01*
G01X-6393Y5055D02*
G01X-9040Y2205D01*
G01X-9040Y2205D02*
G01X-9040Y-1545D01*
G01X-9040Y-1545D02*
G01X-6393Y-4393D01*
G54D12*
G01X-9040Y-1545D02*
G01X-9690Y-1545D01*
G01X-9690Y-1545D02*
G01X-9690Y2205D01*
G01X-9690Y2205D02*
G01X-9040Y2205D01*
G01X-9040Y2205D02*
G01X-9040Y-1545D01*
G04 draw reference designator for part U2*
G54D10*
G01X-8840Y3948D02*
G01X-8840Y3607D01*
G01X-8840Y3607D02*
G01X-8817Y3539D01*
G01X-8817Y3539D02*
G01X-8771Y3494D01*
G01X-8771Y3494D02*
G01X-8703Y3471D01*
G01X-8658Y3471D02*
G01X-8703Y3471D01*
G01X-8590Y3494D02*
G01X-8658Y3471D01*
G01X-8544Y3539D02*
G01X-8590Y3494D01*
G01X-8521Y3607D02*
G01X-8544Y3539D01*
G01X-8521Y3948D02*
G01X-8521Y3607D01*
G01X-8317Y3857D02*
G01X-8317Y3834D01*
G01X-8294Y3903D02*
G01X-8317Y3857D01*
G01X-8271Y3925D02*
G01X-8294Y3903D01*
G01X-8226Y3948D02*
G01X-8271Y3925D01*
G01X-8135Y3948D02*
G01X-8226Y3948D01*
G01X-8135Y3948D02*
G01X-8090Y3925D01*
G01X-8090Y3925D02*
G01X-8067Y3903D01*
G01X-8067Y3903D02*
G01X-8044Y3857D01*
G01X-8044Y3857D02*
G01X-8044Y3812D01*
G01X-8044Y3812D02*
G01X-8067Y3766D01*
G01X-8067Y3766D02*
G01X-8112Y3698D01*
G01X-8112Y3698D02*
G01X-8340Y3471D01*
G01X-8021Y3471D02*
G01X-8340Y3471D01*
G04 Draw part C1*
G04 draw part outline for part C1*
G54D11*
G01X9153Y5653D02*
G01X9153Y2346D01*
G01X9153Y2346D02*
G01X5846Y2346D01*
G01X5846Y2346D02*
G01X5846Y5653D01*
G01X5846Y5653D02*
G01X9153Y5653D01*
G54D12*
G01X5468Y2551D02*
G01X5468Y3370D01*
G04 draw reference designator for part C1*
G54D10*
G01X9909Y5681D02*
G01X9863Y5659D01*
G01X9954Y5727D02*
G01X9909Y5681D01*
G01X9977Y5772D02*
G01X9954Y5727D01*
G01X9977Y5863D02*
G01X9977Y5772D01*
G01X9977Y5863D02*
G01X9954Y5909D01*
G01X9954Y5909D02*
G01X9909Y5954D01*
G01X9909Y5954D02*
G01X9863Y5977D01*
G01X9863Y5977D02*
G01X9795Y6000D01*
G01X9795Y6000D02*
G01X9681Y6000D01*
G01X9681Y6000D02*
G01X9613Y5977D01*
G01X9613Y5977D02*
G01X9568Y5954D01*
G01X9568Y5954D02*
G01X9522Y5909D01*
G01X9522Y5909D02*
G01X9500Y5863D01*
G01X9500Y5772D02*
G01X9500Y5863D01*
G01X9522Y5727D02*
G01X9500Y5772D01*
G01X9568Y5681D02*
G01X9522Y5727D01*
G01X9613Y5659D02*
G01X9568Y5681D01*
G01X9909Y5431D02*
G01X9886Y5477D01*
G01X9977Y5363D02*
G01X9909Y5431D01*
G01X9977Y5363D02*
G01X9500Y5363D01*
G04 Draw part C2*
G04 draw part outline for part C2*
G54D11*
G01X7566Y511D02*
G01X9535Y511D01*
G01X9535Y511D02*
G01X9535Y-511D01*
G01X9535Y-511D02*
G01X7566Y-511D01*
G01X7566Y-511D02*
G01X7566Y511D01*
G04 draw reference designator for part C2*
G01X8869Y1314D02*
G01X8892Y1269D01*
G01X8823Y1360D02*
G01X8869Y1314D01*
G01X8778Y1382D02*
G01X8823Y1360D01*
G01X8687Y1382D02*
G01X8778Y1382D01*
G01X8687Y1382D02*
G01X8642Y1360D01*
G01X8642Y1360D02*
G01X8596Y1314D01*
G01X8596Y1314D02*
G01X8573Y1269D01*
G01X8573Y1269D02*
G01X8551Y1200D01*
G01X8551Y1200D02*
G01X8551Y1087D01*
G01X8551Y1087D02*
G01X8573Y1019D01*
G01X8573Y1019D02*
G01X8596Y973D01*
G01X8596Y973D02*
G01X8642Y928D01*
G01X8642Y928D02*
G01X8687Y905D01*
G01X8778Y905D02*
G01X8687Y905D01*
G01X8823Y928D02*
G01X8778Y905D01*
G01X8869Y973D02*
G01X8823Y928D01*
G01X8892Y1019D02*
G01X8869Y973D01*
G01X9096Y1291D02*
G01X9096Y1269D01*
G01X9119Y1337D02*
G01X9096Y1291D01*
G01X9142Y1360D02*
G01X9119Y1337D01*
G01X9187Y1382D02*
G01X9142Y1360D01*
G01X9278Y1382D02*
G01X9187Y1382D01*
G01X9278Y1382D02*
G01X9323Y1360D01*
G01X9323Y1360D02*
G01X9346Y1337D01*
G01X9346Y1337D02*
G01X9369Y1291D01*
G01X9369Y1291D02*
G01X9369Y1246D01*
G01X9369Y1246D02*
G01X9346Y1200D01*
G01X9346Y1200D02*
G01X9301Y1132D01*
G01X9301Y1132D02*
G01X9073Y905D01*
G01X9392Y905D02*
G01X9073Y905D01*
G04 Draw part J2*
G04 draw part outline for part J2*
G01X-11500Y-2500D02*
G01X-11500Y3500D01*
G01X-11500Y3500D02*
G01X-10500Y3500D01*
G01X-10500Y3500D02*
G01X-10500Y-2500D01*
G01X-10500Y-2500D02*
G01X-11500Y-2500D01*
G04 draw reference designator for part J2*
G01X-11477Y4227D02*
G01X-11113Y4227D01*
G01X-11113Y4227D02*
G01X-11045Y4204D01*
G01X-11045Y4204D02*
G01X-11022Y4181D01*
G01X-11022Y4181D02*
G01X-11000Y4136D01*
G01X-11000Y4090D02*
G01X-11000Y4136D01*
G01X-11022Y4045D02*
G01X-11000Y4090D01*
G01X-11045Y4022D02*
G01X-11022Y4045D01*
G01X-11113Y4000D02*
G01X-11045Y4022D01*
G01X-11159Y4000D02*
G01X-11113Y4000D01*
G01X-11386Y4431D02*
G01X-11363Y4431D01*
G01X-11431Y4454D02*
G01X-11386Y4431D01*
G01X-11454Y4477D02*
G01X-11431Y4454D01*
G01X-11477Y4522D02*
G01X-11454Y4477D01*
G01X-11477Y4613D02*
G01X-11477Y4522D01*
G01X-11477Y4613D02*
G01X-11454Y4659D01*
G01X-11454Y4659D02*
G01X-11431Y4681D01*
G01X-11431Y4681D02*
G01X-11386Y4704D01*
G01X-11386Y4704D02*
G01X-11340Y4704D01*
G01X-11340Y4704D02*
G01X-11295Y4681D01*
G01X-11295Y4681D02*
G01X-11227Y4636D01*
G01X-11227Y4636D02*
G01X-11000Y4409D01*
G01X-11000Y4727D02*
G01X-11000Y4409D01*
G04 Draw part h1*
G04 draw part outline for part h1*
G04 Draw part h2*
G04 draw part outline for part h2*
G04 Draw part h3*
G04 draw part outline for part h3*
G04 Draw part h4*
G04 draw part outline for part h4*
G04 Draw part C3*
G04 draw part outline for part C3*
G01X5488Y-5433D02*
G01X5488Y-3464D01*
G01X5488Y-3464D02*
G01X6511Y-3464D01*
G01X6511Y-3464D02*
G01X6511Y-5433D01*
G01X6511Y-5433D02*
G01X5488Y-5433D01*
G04 draw reference designator for part C3*
G01X5318Y-2590D02*
G01X5340Y-2636D01*
G01X5272Y-2545D02*
G01X5318Y-2590D01*
G01X5227Y-2522D02*
G01X5272Y-2545D01*
G01X5136Y-2522D02*
G01X5227Y-2522D01*
G01X5136Y-2522D02*
G01X5090Y-2545D01*
G01X5090Y-2545D02*
G01X5045Y-2590D01*
G01X5045Y-2590D02*
G01X5022Y-2636D01*
G01X5022Y-2636D02*
G01X5000Y-2704D01*
G01X5000Y-2704D02*
G01X5000Y-2818D01*
G01X5000Y-2818D02*
G01X5022Y-2886D01*
G01X5022Y-2886D02*
G01X5045Y-2931D01*
G01X5045Y-2931D02*
G01X5090Y-2977D01*
G01X5090Y-2977D02*
G01X5136Y-3000D01*
G01X5227Y-3000D02*
G01X5136Y-3000D01*
G01X5272Y-2977D02*
G01X5227Y-3000D01*
G01X5318Y-2931D02*
G01X5272Y-2977D01*
G01X5340Y-2886D02*
G01X5318Y-2931D01*
G01X5818Y-2522D02*
G01X5568Y-2522D01*
G01X5818Y-2522D02*
G01X5681Y-2704D01*
G01X5750Y-2704D02*
G01X5681Y-2704D01*
G01X5750Y-2704D02*
G01X5795Y-2727D01*
G01X5795Y-2727D02*
G01X5818Y-2750D01*
G01X5818Y-2750D02*
G01X5840Y-2818D01*
G01X5840Y-2818D02*
G01X5840Y-2863D01*
G01X5840Y-2863D02*
G01X5818Y-2931D01*
G01X5818Y-2931D02*
G01X5772Y-2977D01*
G01X5772Y-2977D02*
G01X5704Y-3000D01*
G01X5636Y-3000D02*
G01X5704Y-3000D01*
G01X5568Y-2977D02*
G01X5636Y-3000D01*
G01X5545Y-2954D02*
G01X5568Y-2977D01*
G01X5522Y-2909D02*
G01X5545Y-2954D01*
G04 Draw part B1*
G04 Draw part B2*
G04 Draw part B3*
G04 Draw part B4*
G04 draw part outline for part U3*
G04 draw part outline for part x1*
G04 draw part outline for part x2*

G04 Draw traces*

G04 Draw Text*
G54D10*
G01X-10059Y-1936D02*
G01X-10081Y-1890D01*
G01X-10081Y-1890D02*
G01X-10127Y-1845D01*
G01X-10127Y-1845D02*
G01X-10172Y-1822D01*
G01X-10172Y-1822D02*
G01X-10263Y-1822D01*
G01X-10263Y-1822D02*
G01X-10309Y-1845D01*
G01X-10309Y-1845D02*
G01X-10354Y-1890D01*
G01X-10354Y-1890D02*
G01X-10377Y-1936D01*
G01X-10377Y-1936D02*
G01X-10400Y-2004D01*
G01X-10400Y-2004D02*
G01X-10400Y-2118D01*
G01X-10400Y-2118D02*
G01X-10377Y-2186D01*
G01X-10377Y-2186D02*
G01X-10354Y-2231D01*
G01X-10354Y-2231D02*
G01X-10309Y-2277D01*
G01X-10309Y-2277D02*
G01X-10263Y-2300D01*
G01X-10263Y-2300D02*
G01X-10172Y-2300D01*
G01X-10172Y-2300D02*
G01X-10127Y-2277D01*
G01X-10127Y-2277D02*
G01X-10081Y-2231D01*
G01X-10081Y-2231D02*
G01X-10059Y-2186D01*
G01X-10059Y-2186D02*
G01X-10059Y-2118D01*
G01X-10172Y-2118D02*
G01X-10059Y-2118D01*
G01X-9877Y-1822D02*
G01X-9877Y-2300D01*
G01X-9877Y-1822D02*
G01X-9559Y-2300D01*
G01X-9559Y-1822D02*
G01X-9559Y-2300D01*
G01X-9377Y-1822D02*
G01X-9377Y-2300D01*
G01X-9377Y-1822D02*
G01X-9218Y-1822D01*
G01X-9218Y-1822D02*
G01X-9150Y-1845D01*
G01X-9150Y-1845D02*
G01X-9104Y-1890D01*
G01X-9104Y-1890D02*
G01X-9081Y-1936D01*
G01X-9081Y-1936D02*
G01X-9059Y-2004D01*
G01X-9059Y-2004D02*
G01X-9059Y-2118D01*
G01X-9059Y-2118D02*
G01X-9081Y-2186D01*
G01X-9081Y-2186D02*
G01X-9104Y-2231D01*
G01X-9104Y-2231D02*
G01X-9150Y-2277D01*
G01X-9150Y-2277D02*
G01X-9218Y-2300D01*
G01X-9218Y-2300D02*
G01X-9377Y-2300D01*
G01X-10400Y-822D02*
G01X-10218Y-1300D01*
G01X-10036Y-822D02*
G01X-10218Y-1300D01*
G01X-9581Y-1050D02*
G01X-9627Y-1004D01*
G01X-9627Y-1004D02*
G01X-9672Y-981D01*
G01X-9672Y-981D02*
G01X-9740Y-981D01*
G01X-9740Y-981D02*
G01X-9786Y-1004D01*
G01X-9786Y-1004D02*
G01X-9831Y-1050D01*
G01X-9831Y-1050D02*
G01X-9854Y-1118D01*
G01X-9854Y-1118D02*
G01X-9854Y-1163D01*
G01X-9854Y-1163D02*
G01X-9831Y-1231D01*
G01X-9831Y-1231D02*
G01X-9786Y-1277D01*
G01X-9786Y-1277D02*
G01X-9740Y-1300D01*
G01X-9740Y-1300D02*
G01X-9672Y-1300D01*
G01X-9672Y-1300D02*
G01X-9627Y-1277D01*
G01X-9627Y-1277D02*
G01X-9581Y-1231D01*
G01X-9127Y-1050D02*
G01X-9172Y-1004D01*
G01X-9172Y-1004D02*
G01X-9218Y-981D01*
G01X-9218Y-981D02*
G01X-9286Y-981D01*
G01X-9286Y-981D02*
G01X-9331Y-1004D01*
G01X-9331Y-1004D02*
G01X-9377Y-1050D01*
G01X-9377Y-1050D02*
G01X-9400Y-1118D01*
G01X-9400Y-1118D02*
G01X-9400Y-1163D01*
G01X-9400Y-1163D02*
G01X-9377Y-1231D01*
G01X-9377Y-1231D02*
G01X-9331Y-1277D01*
G01X-9331Y-1277D02*
G01X-9286Y-1300D01*
G01X-9286Y-1300D02*
G01X-9218Y-1300D01*
G01X-9218Y-1300D02*
G01X-9172Y-1277D01*
G01X-9172Y-1277D02*
G01X-9127Y-1231D01*
G01X-10400Y177D02*
G01X-10400Y-300D01*
G01X-10400Y177D02*
G01X-10195Y177D01*
G01X-10195Y177D02*
G01X-10127Y154D01*
G01X-10127Y154D02*
G01X-10104Y131D01*
G01X-10104Y131D02*
G01X-10081Y86D01*
G01X-10081Y86D02*
G01X-10081Y40D01*
G01X-10081Y40D02*
G01X-10104Y-4D01*
G01X-10104Y-4D02*
G01X-10127Y-27D01*
G01X-10127Y-27D02*
G01X-10195Y-50D01*
G01X-10195Y-50D02*
G01X-10400Y-50D01*
G01X-10240Y-50D02*
G01X-10081Y-300D01*
G01X-9900Y177D02*
G01X-9581Y-300D01*
G01X-9581Y177D02*
G01X-9900Y-300D01*
G01X-10240Y1277D02*
G01X-10240Y800D01*
G01X-10400Y1277D02*
G01X-10081Y1277D01*
G01X-9900Y1277D02*
G01X-9581Y800D01*
G01X-9581Y1277D02*
G01X-9900Y800D01*
M00*
M02*
